<?xml version="1.0" standalone="no"?>
<!DOCTYPE svg PUBLIC "-//W3C//DTD SVG 20010904//EN"
 "http://www.w3.org/TR/2001/REC-SVG-20010904/DTD/svg10.dtd">
<svg version="1.0" xmlns="http://www.w3.org/2000/svg"
 width="640.000000pt" height="640.000000pt" viewBox="0 0 640.000000 640.000000"
 preserveAspectRatio="xMidYMid meet">
<metadata>
Created by potrace 1.11, written by Peter Selinger 2001-2013
</metadata>
<g transform="translate(0.000000,640.000000) scale(0.100000,-0.100000)"
fill="#000000" stroke="none">
<path d="M397 6083 c-1 -1 -22 -4 -47 -8 -120 -17 -253 -120 -311 -241 -55
-117 -48 -268 18 -382 65 -110 185 -189 318 -209 53 -8 5578 -7 5620 1 22 5
50 10 63 12 39 8 141 68 183 109 81 78 126 187 123 300 -2 82 -11 121 -47 190
-55 110 -170 194 -301 222 -26 5 -5614 12 -5619 6z"/>
<path d="M387 4669 c-308 -33 -481 -363 -329 -629 52 -90 162 -172 272 -201
34 -9 715 -12 2855 -12 l2810 -1 72 23 c40 13 78 30 84 37 6 8 17 14 23 14 20
0 146 132 146 153 0 3 8 22 17 43 22 52 24 58 27 137 4 80 -11 145 -49 215
-58 107 -142 170 -280 213 -31 10 -647 13 -2815 13 -1526 1 -2801 -2 -2833 -5z"/>
<path d="M437 3264 c-1 -1 -26 -4 -55 -8 -136 -16 -273 -106 -326 -213 -10
-21 -25 -51 -34 -67 -22 -42 -25 -182 -5 -248 23 -81 48 -122 108 -182 57 -58
119 -95 195 -117 35 -10 296 -13 1225 -13 l1180 -1 5 -895 c4 -803 7 -899 22
-936 30 -75 46 -99 111 -164 104 -104 280 -148 421 -106 25 8 46 11 46 8 0 -4
4 -2 8 3 4 6 25 19 46 30 57 29 140 114 172 176 14 30 32 83 38 120 7 45 11
332 10 913 0 465 2 847 5 847 3 1 542 3 1196 4 655 2 1201 5 1215 8 86 16 177
69 242 141 181 200 117 527 -127 647 -58 28 -76 34 -140 45 -25 4 -5553 12
-5558 8z"/>
</g>
</svg>
