<svg width="121" height="120" viewBox="0 0 121 120" xmlns="http://www.w3.org/2000/svg" fill="none"><g clip-path="url(#a)"><path d="M45.5 21.563c-3.171 0-6.015 2.01-7.071 5-.346.976.165 2.048 1.143 2.393.641.23 1.311.056 1.803-.352l7.875 9.457v2.252c0 1.035.839 1.875 1.875 1.875s1.875-.84 1.875-1.875v-11.25c0-4.136-3.364-7.5-7.5-7.5z" fill="#C7C7C7"/><path d="M39.875 25.313c-3.437 0-6.685 1.319-9.218 3.791l-24.04 26.244 2.765 2.532.649-.709 39.218 10.752v.514c0 1.035.839 1.875 1.875 1.875s1.875-.84 1.875-1.875v-30c0-7.237-5.889-13.125-13.125-13.125z" fill="#F7931E"/><path d="M75.5 21.563c3.171 0 6.015 2.01 7.072 5 .346.976-.165 2.048-1.143 2.393-.641.23-1.311.056-1.803-.352l-7.876 9.457v2.252c0 1.035-.839 1.875-1.875 1.875s-1.875-.84-1.875-1.875v-11.25c0-4.136 3.364-7.5 7.5-7.5z" fill="#C7C7C7"/><path d="M81.125 25.313c3.437 0 6.685 1.319 9.218 3.791l24.04 26.245-2.765 2.532-.649-.709-39.218 10.752v.514c0 1.035-.839 1.875-1.875 1.875s-1.875-.84-1.875-1.875v-30c0-7.237 5.889-13.125 13.125-13.125z" fill="#F7931E"/><path d="M26.75 92.813c11.391 0 20.625-9.234 20.625-20.625s-9.234-20.625-20.625-20.625-20.625 9.234-20.625 20.625 9.234 20.625 20.625 20.625z" fill="#754C29"/><path d="M30.5 75.938c4.142 0 7.5-3.358 7.5-7.5 0-4.142-3.358-7.5-7.5-7.5-4.142 0-7.5 3.358-7.5 7.5 0 4.142 3.358 7.5 7.5 7.5z" fill="#fff"/><path d="M45.5 47.813h30l.288-.004c-3.649 3.574-5.913 8.556-5.913 14.067v6.562h-18.75v-6.562c0-5.511-2.264-10.493-5.913-14.067" fill="url(#b)"/><path d="M26.75 45.938c-14.475 0-26.25 11.776-26.25 26.25 0 14.475 11.775 26.25 26.25 26.25 14.474 0 26.25-11.775 26.25-26.25s-11.776-26.25-26.25-26.25zm0 45c-10.338 0-18.75-8.411-18.75-18.75s8.412-18.75 18.75-18.75c10.339 0 18.75 8.412 18.75 18.75 0 10.339-8.411 18.75-18.75 18.75z" fill="url(#c)"/><path d="M94.25 92.813c11.391 0 20.625-9.234 20.625-20.625s-9.234-20.625-20.625-20.625-20.625 9.234-20.625 20.625 9.234 20.625 20.625 20.625z" fill="#754C29"/><path d="M94.25 45.938c-14.475 0-26.25 11.776-26.25 26.25 0 14.475 11.775 26.25 26.25 26.25s26.25-11.775 26.25-26.25-11.775-26.25-26.25-26.25zm0 45c-10.338 0-18.75-8.411-18.75-18.75s8.412-18.75 18.75-18.75c10.339 0 18.75 8.412 18.75 18.75 0 10.339-8.411 18.75-18.75 18.75z" fill="url(#d)"/><path d="M98 75.938c4.142 0 7.5-3.358 7.5-7.5 0-4.142-3.358-7.5-7.5-7.5-4.142 0-7.5 3.358-7.5 7.5 0 4.142 3.358 7.5 7.5 7.5z" fill="#fff"/><path d="M75.5 44.063h-30v3.75h30v-3.75z" fill="#F7931E"/></g><defs><linearGradient id="b" x1="60.5" y1="47.813" x2="60.5" y2="84.258" gradientUnits="userSpaceOnUse"><stop stop-color="#EF4223"/><stop offset="0" stop-color="#EF4323"/><stop offset="1" stop-color="#F7931E"/></linearGradient><linearGradient id="c" x1="24.523" y1="45.938" x2="25.695" y2="97.149" gradientUnits="userSpaceOnUse"><stop stop-color="#EF4223"/><stop offset="0" stop-color="#EF4323"/><stop offset="1" stop-color="#F7931E"/></linearGradient><linearGradient id="d" x1="94.25" y1="45.938" x2="94.25" y2="100.313" gradientUnits="userSpaceOnUse"><stop stop-color="#EF4223"/><stop offset="0" stop-color="#EF4323"/><stop offset="1" stop-color="#F7931E"/></linearGradient><clipPath id="a"><path fill="#fff" d="M.5 0h120v120h-120z"/></clipPath></defs></svg>