<svg width="121" height="120" viewBox="0 0 121 120" xmlns="http://www.w3.org/2000/svg" fill="none"><path d="M11.392 117.723l12.164-36.138c1.436-4.266 4.739-7.648 8.977-9.192l23.702-8.634 1.223-.445c3.084-1.123 6.074.441 7.229 3.506 1.148 3.047-.363 6.238-3.397 7.437l-6.618 2.571c-2.517.995-4.178 4.257-3.19 6.771.244.621 1.027 1.165 1.465 1.617.202.209.422.398.655.566 1.284.924 2.99 1.212 4.583.625l32.051-11.813 8.849-16.248c.32-.588.736-1.096 1.218-1.513 1.448-1.251 3.501-1.26 5.395-.585l-.212-.212c2.872 1.023 4.341 4.199 3.257 7.042l-8.425 21.332c-.666 1.749-1.973 3.18-3.656 4.006l-5.109 2.714-41.677 20.439c-1.185.581-1.936 1.784-1.936 3.101v3.603c0 .955-.776 1.728-1.732 1.728h-33.172c-1.184.001-2.019-1.158-1.642-2.277z" fill="#FED2A4"/><path d="M105.864 55.655c-1.716-.613-3.561-.312-4.969.682 1.977 1.397 2.848 4.003 1.945 6.379l-9.869 25.996c-.359.943-.904 1.793-1.592 2.508l.339-.167 5.534-2.721c1.683-.828 2.99-2.263 3.657-4.016l8.212-21.6c1.084-2.851-.385-6.035-3.257-7.061zM59.172 66.811c1.159 3.001-.366 6.352-3.429 7.532l-7.109 2.741c-2.541.98-3.789 3.774-2.791 6.25.986 2.447 3.804 3.676 6.337 2.765l1.714-.617c-.746-.524-1.352-1.255-1.712-2.149-.998-2.476.25-5.271 2.791-6.25l7.109-2.741c3.063-1.181 4.588-4.532 3.429-7.532-1.166-3.018-4.613-4.559-7.726-3.453l-1.234.438c1.164.657 2.11 1.694 2.62 3.014z" fill="#FFBD86"/><path d="M51.269 18.993c-6.092 6.124-6.092 16.054 0 22.178l22.35 22.468 2.729 2.484c.632.636 1.657.636 2.289 0l24.563-24.952c6.092-6.124 6.35-15.535.258-21.659-4.04-4.061-9.486-5.948-14.647-4.623-2.622.673-5.104 2.041-7.156 4.104l-4.162 4.184-4.162-4.184c-6.092-6.125-15.969-6.125-22.061 0z" fill="url(#a)"/><path d="M103.913 18.968c-4.055-4.041-9.781-5.4-14.962-4.081 2.632.67 5.124 2.028 7.185 4.081 6.116 6.095 6.116 15.975 0 22.069l-22.436 22.358 2.739 2.73c.635.632 1.664.632 2.298 0l25.175-25.088c6.116-6.094 6.116-15.975 0-22.069z" fill="#EF4323"/><defs><linearGradient id="a" x1="56.211" y1="40.459" x2="91.699" y2="40.459" gradientUnits="userSpaceOnUse"><stop stop-color="#EF4223"/><stop offset="0" stop-color="#EF4323"/><stop offset="1" stop-color="#F7931E"/></linearGradient></defs></svg>