<svg width="121" height="120" viewBox="0 0 121 120" xmlns="http://www.w3.org/2000/svg" fill="none"><g clip-path="url(#a)"><path d="M100.087 115.837h-41.306l-12.218-21.259-13.845-.14c-1.354-.012-2.446-1.115-2.446-2.47v-18.009h-8.436c-1.328 0-2.42-1.047-2.47-2.378-.215-5.793-.038-20.927 6.698-31.512l.316-.486c1.978-2.976 5.36-5.737 7.167-7.931h50.318c1.079 2.673 1.803 5.52 2.11 8.491.287 2.743.22 5.59-.255 8.494l-6.107 35.71c-.099.578.029 1.169.355 1.654l20.119 29.835z" fill="#FED2A4"/><path d="M85.721 48.637l-5.814 33.995c-.235 1.374-1.642 2.215-2.964 1.772l-16.575-5.557c-1.006-.339-1.686-1.283-1.686-2.344v-31.209h-8.303c-.593 0-1.139-.21-1.564-.559-.555-.452-.906-1.141-.906-1.912v-11.801h35.694c2.275 5.296 3.144 11.326 2.118 17.616z" fill="#91633C"/><path d="M95.124 103.524c-5.067 1.751-26.819 9.003-41.596 9.744-1.312.065-2.338 1.153-2.338 2.467v1.794c0 1.365 1.106 2.471 2.471 2.471h50.502c1.447 0 2.578-1.236 2.463-2.679-.26-3.244-1.901-8.856-9.367-13.544-.639-.401-1.423-.499-2.135-.253z" fill="#F7931E"/><path d="M85.346 37.454h-57.395c-7.395 0-13.389-5.995-13.389-13.389v-12.352c0-1.364 1.106-2.471 2.471-2.471h49.77c11.606 0 21.014 9.409 21.014 21.014v4.727c0 1.364-1.106 2.471-2.471 2.471z" fill="#754C29"/><path d="M48.647 74.893c0 2.914-1.026 5.339-3.057 7.202-3.809 3.504-10.235 3.987-13.48 3.987-.893 0-1.544-.037-1.838-.059v-3.626l.15.007c.012 0 .662.05 1.683.05.894 0 2.066-.038 3.349-.186 3.439-.393 6.099-1.378 7.69-2.844 1.267-1.166 1.881-2.649 1.881-4.533 0-.999.811-1.81 1.811-1.81 1.002 0 1.811.811 1.811 1.811z" fill="#FFBD86"/><path d="M102.061 35.916c0 17.373-14.082 31.456-31.455 31.456-17.373 0-31.456-14.083-31.456-31.456 0-17.372 14.083-31.455 31.456-31.455 17.372 0 31.455 14.083 31.455 31.455z" fill="url(#b)"/><path d="M102.061 35.915c0 17.373-14.081 31.458-31.455 31.458-17.373 0-31.455-14.085-31.455-31.458 0-.905.038-1.802.114-2.689 1.365 16.111 14.874 28.764 31.34 28.764 16.468 0 29.975-12.653 31.341-28.764.076.887.113 1.783.113 2.689z" fill="#EF4323"/><path d="M35.419 58.934c-1.769 0-3.354-.986-4.136-2.575-.441-.897-.072-1.983.825-2.424.897-.442 1.983-.072 2.424.825.132.267.434.553.886.553.453 0 .754-.286.886-.553.441-.897 1.527-1.267 2.424-.825.897.441 1.267 1.527.825 2.424-.782 1.588-2.366 2.575-4.135 2.575z" fill="#754C29"/><path d="M63.998 40.37h13.216c.644-5.355 2.785-10.437 6.087-14.772 2.041-2.678 3.253-6.022 3.253-9.65 0-9.063-7.56-16.36-16.719-15.929-8.218.386-14.856 7.093-15.166 15.314-.146 3.906 1.112 7.512 3.311 10.355 3.31 4.28 5.389 9.355 6.018 14.681z" fill="#F7931E"/><path d="M73.056 22.554c-1.001 0-1.811.81-1.811 1.811v1.145c0 .189-.279.409-.639.409-.361 0-.639-.22-.639-.409v-1.145c0-1.001-.811-1.811-1.811-1.811-1.001 0-1.811.81-1.811 1.811v14.938c0 1 .81 1.81 1.811 1.81 1 0 1.811-.81 1.811-1.81v-4.911c.209.029.421.05.639.05.218 0 .43-.021.639-.05v4.911c0 1 .811 1.81 1.811 1.81 1 0 1.811-.81 1.811-1.81v-14.938c0-1-.811-1.811-1.811-1.811zm-2.451 8.266c-.36 0-.639-.22-.639-.409v-.919c.21.03.422.05.639.05.218 0 .43-.02.64-.05v.919c0 .189-.279.409-.64.409z" fill="url(#c)"/><path d="M78.787 43.984h-16.123c-1.001 0-1.811-.81-1.811-1.81 0-1.001.81-1.811 1.811-1.811h16.123c1 0 1.81.81 1.81 1.811 0 1-.81 1.81-1.81 1.81zM78.787 48.726h-16.123c-1.001 0-1.811-.81-1.811-1.811 0-1 .81-1.811 1.811-1.811h16.123c1 0 1.81.811 1.81 1.811 0 1.001-.81 1.811-1.81 1.811zM78.787 53.522h-16.123c-1.001 0-1.811-.81-1.811-1.811 0-1 .81-1.811 1.811-1.811h16.123c1 0 1.81.811 1.81 1.811 0 1.001-.81 1.811-1.81 1.811z" fill="#F9F9F9"/></g><defs><linearGradient id="b" x1="39.151" y1="35.916" x2="102.061" y2="35.916" gradientUnits="userSpaceOnUse"><stop stop-color="#EF4223"/><stop offset="0" stop-color="#EF4323"/><stop offset="1" stop-color="#F7931E"/></linearGradient><linearGradient id="c" x1="70.715" y1="22.544" x2="70.715" y2="47.906" gradientUnits="userSpaceOnUse"><stop stop-color="#EF4223"/><stop offset="0" stop-color="#EF4323"/><stop offset="1" stop-color="#F7931E"/></linearGradient><clipPath id="a"><path fill="#fff" d="M.5 0h120v120h-120z"/></clipPath></defs></svg>