<svg width="121" height="120" viewBox="0 0 121 120" xmlns="http://www.w3.org/2000/svg" fill="none"><path fill-rule="evenodd" clip-rule="evenodd" d="M15.328 60c0 24.909 20.263 45.172 45.172 45.172 24.909 0 45.172-20.263 45.172-45.172 0-1.751-1.421-3.172-3.172-3.172-1.751 0-3.172 1.421-3.172 3.172 0 21.409-17.419 38.828-38.828 38.828-21.409 0-38.828-17.419-38.828-38.828 0-21.409 17.419-38.828 38.828-38.828 1.751 0 3.172-1.421 3.172-3.172 0-1.751-1.421-3.172-3.172-3.172-24.909 0-45.172 20.263-45.172 45.172z" fill="#EF4323"/><path fill-rule="evenodd" clip-rule="evenodd" d="M31.328 60c0 16.087 13.085 29.172 29.172 29.172s29.172-13.085 29.172-29.172c0-1.751-1.421-3.172-3.172-3.172-1.751 0-3.172 1.421-3.172 3.172 0 12.587-10.241 22.828-22.828 22.828s-22.828-10.241-22.828-22.828 10.241-22.828 22.828-22.828c1.751 0 3.172-1.421 3.172-3.172 0-1.751-1.421-3.172-3.172-3.172-16.087 0-29.172 13.085-29.172 29.172z" fill="#F7931E"/><path d="M60.5 70c5.523 0 10-4.477 10-10s-4.477-10-10-10-10 4.477-10 10 4.477 10 10 10z" fill="#EF4323"/><path fill-rule="evenodd" clip-rule="evenodd" d="M59.577 60.955c.251.251.588.493.923.675.302.164.78.378 1.287.378.714 0 1.431-.274 1.975-.818l37.302-37.303c.656-.656.779-1.54.693-2.236-.087-.702-.405-1.426-.927-1.948s-1.246-.84-1.949-.927c-.696-.086-1.581.037-2.236.693l-37.302 37.303c-.656.656-.779 1.54-.693 2.236.087.702.405 1.426.927 1.948z" fill="#C7C7C7"/><path d="M90.5 29.649l-1.172-7.691c0-.53.21-1.04.586-1.414l8-8c1.26-1.26 3.414-.368 3.414 1.414v5.172l-10.828 10.519z" fill="url(#a)"/><path d="M90.5 29.649l8 1.481c.53 0 1.04-.21 1.414-.586l8-8c1.26-1.26.368-3.414-1.414-3.414h-5.172l-10.828 10.519z" fill="url(#b)"/><defs><linearGradient id="a" x1="89.328" y1="21.541" x2="108.504" y2="21.541" gradientUnits="userSpaceOnUse"><stop stop-color="#EF4223"/><stop offset="0" stop-color="#EF4323"/><stop offset="1" stop-color="#F7931E"/></linearGradient><linearGradient id="b" x1="89.328" y1="21.541" x2="108.504" y2="21.541" gradientUnits="userSpaceOnUse"><stop stop-color="#EF4223"/><stop offset="0" stop-color="#EF4323"/><stop offset="1" stop-color="#F7931E"/></linearGradient></defs></svg>