<svg width="121" height="120" viewBox="0 0 121 120" xmlns="http://www.w3.org/2000/svg" fill="none"><path fill-rule="evenodd" clip-rule="evenodd" d="M31.084 118.904h4.068c1.511 0 2.737-1.226 2.737-2.738 0-1.511-1.227-2.736-2.737-2.736h-4.068c-1.51 0-2.737 1.225-2.737 2.736 0 1.512 1.227 2.738 2.737 2.738z" fill="#F7931E"/><path d="M77.982 116.372v.002c.214 1.349 1.377 2.312 2.702 2.312.141 0 .28-.012.418-.031l.004-.001.004-.001c3.024-.473 5.858-1.583 8.416-3.295 1.257-.841 1.59-2.544.75-3.797-.84-1.255-2.538-1.596-3.796-.753-1.895 1.268-3.985 2.087-6.218 2.437h-.001c-1.491.235-2.513 1.633-2.28 3.127zM93.226 108.155l.001.001c.378.18.78.265 1.174.265 1.019 0 2.002-.573 2.472-1.561 1.321-2.769 2.003-5.734 2.033-8.805.014-1.511-1.201-2.748-2.712-2.762h-.01c-1.543.008-2.738 1.198-2.752 2.713-.021 2.269-.525 4.455-1.5 6.5l-.001.002c-.647 1.365-.07 2.996 1.295 3.647zM79.234 76.863h-.002c-.453-.029-.91-.043-1.367-.043h-6.733c-1.511 0-2.737 1.226-2.737 2.736 0 1.511 1.225 2.737 2.737 2.737h6.733c.337 0 .673.011 1.003.033l.18.005h.006c1.433 0 2.633-1.111 2.73-2.558.101-1.508-1.044-2.809-2.549-2.911zM50.855 77.57c-.51 1.423.229 2.989 1.652 3.5 2.264.813 4.636 1.223 7.052 1.223h1.672c1.511 0 2.736-1.226 2.736-2.737 0-1.511-1.226-2.736-2.736-2.736h-1.672c-1.785 0-3.535-.304-5.203-.903-1.424-.512-2.989.231-3.5 1.653v.001zM43.322 74.603v.001c.541.656 1.325.996 2.112.996.614 0 1.231-.206 1.74-.626 1.17-.962 1.333-2.689.373-3.854-1.453-1.763-2.479-3.76-3.051-5.944v-.001c-.383-1.458-1.879-2.337-3.343-1.952-1.464.383-2.336 1.881-1.953 3.342.765 2.917 2.191 5.694 4.122 8.038zM41.222 58.718c.255.075.514.114.776.114 1.181 0 2.272-.77 2.623-1.965.63-2.134 1.747-4.16 3.231-5.851.995-1.136.884-2.865-.255-3.862-1.138-.999-2.867-.883-3.862.255-2.001 2.285-3.509 5.016-4.364 7.91-.428 1.448.399 2.972 1.851 3.4zM51.354 44.672c.375 1.155 1.448 1.893 2.602 1.893.287 0 .569-.048.841-.135h.002l.002-.001c1.531-.496 3.13-.747 4.75-.747h2.233c1.51 0 2.737-1.226 2.737-2.737 0-1.511-1.227-2.736-2.737-2.736h-2.235c-2.191 0-4.357.341-6.433 1.017-1.439.465-2.227 2.009-1.761 3.446zM62.876 118.904h7.922c1.511 0 2.737-1.226 2.737-2.738 0-1.511-1.227-2.736-2.737-2.736h-7.922c-1.51 0-2.738 1.225-2.738 2.736 0 1.512 1.227 2.738 2.738 2.738zM45.052 118.904h7.922c1.512 0 2.737-1.226 2.737-2.738 0-1.511-1.226-2.736-2.737-2.736h-7.922c-1.511 0-2.736 1.225-2.736 2.736 0 1.512 1.226 2.738 2.736 2.738zM86.032 81.266c.863-1.24 2.57-1.546 3.81-.684h.001c2.48 1.727 4.604 4.013 6.142 6.609v.001c.769 1.3.339 2.977-.959 3.749-.44.264-.924.384-1.396.384-.934 0-1.607-.428-2.357-1.345-1.219-2.205-3.82-4.357-4.758-5.06-.938-.703-1.523-2.227-.484-3.653z" fill="#F7931E"/><path d="M72.499 46c-2.207 0-3.999-1.456-3.999-3.251v-32.499c0-1.795 1.792-3.251 3.999-3.251s4.001 1.456 4.001 3.251v32.499c0 1.795-1.793 3.251-4.001 3.251zM16.788 118.2c-2.134 0-3.866-1.548-3.866-3.457v-34.569c0-1.909 1.732-3.458 3.866-3.458 2.134 0 3.868 1.548 3.868 3.458v34.569c0 1.909-1.734 3.457-3.868 3.457z" fill="#C7C7C7"/><path d="M68.938 3.825h36.329l-7.032 11.953 7.032 12.422h-36.329v-24.375z" fill="url(#a)"/><path d="M31.084 80.478c0 7.864-6.375 14.237-14.237 14.237-7.863 0-14.237-6.374-14.237-14.237s6.374-14.237 14.237-14.237 14.237 6.374 14.237 14.237z" fill="#754C29"/><path d="M10.745 82.512c-1.122 0-2.033-.912-2.033-2.034 0-4.487 3.648-8.135 8.135-8.135 1.122 0 2.033.911 2.033 2.033 0 1.123-.911 2.034-2.033 2.034-2.243 0-4.068 1.825-4.068 4.068 0 1.123-.911 2.034-2.034 2.034z" fill="#fff"/><defs><linearGradient id="a" x1="68.938" y1="16.013" x2="105.266" y2="16.013" gradientUnits="userSpaceOnUse"><stop stop-color="#EF4223"/><stop offset="0" stop-color="#EF4323"/><stop offset="1" stop-color="#F7931E"/></linearGradient></defs></svg>