<svg width="121" height="120" viewBox="0 0 121 120" xmlns="http://www.w3.org/2000/svg" fill="none"><g clip-path="url(#a)"><path d="M116.62 114.069h-24.486l-7.241-12.604-8.207-.082c-.802-.007-1.448-.662-1.448-1.463v-10.674h-5.001c-.787 0-1.435-.624-1.463-1.411-.128-3.433-.025-12.403 3.969-18.678l.189-.287c1.171-1.765 3.175-3.4 4.247-4.704h29.824c.64 1.587 1.07 3.274 1.25 5.035.172 1.627.131 3.315-.152 5.034l-3.619 21.167c-.058.343.019.693.213.981l11.925 17.687z" fill="#FED2A4"/><path d="M116.621 114.068h-3.814l-11.926-17.686c-.194-.286-.269-.637-.211-.98l3.62-21.169c.282-1.719.321-3.408.153-5.034-.183-1.759-.613-3.447-1.253-5.033h3.814c.639 1.586 1.07 3.274 1.251 5.033.17 1.627.129 3.315-.151 5.034l-3.62 21.169c-.06.342.017.693.211.98l11.926 17.686z" fill="#FFBD86"/><path d="M108.104 74.235l-3.446 20.15c-.14.815-.973 1.313-1.756 1.051l-9.825-3.294c-.597-.201-1-.76-1-1.389v-18.499h-4.922c-.352 0-.675-.124-.927-.331-.329-.268-.537-.677-.537-1.133v-6.995h21.157c1.348 3.139 1.863 6.714 1.255 10.441z" fill="#90633C"/><path d="M113.678 106.769c-3.003 1.037-15.896 5.336-24.655 5.775-.777.04-1.386.683-1.386 1.462v1.064c0 .809.656 1.465 1.465 1.465h29.934c.858 0 1.528-.733 1.461-1.587-.155-1.924-1.127-5.251-5.553-8.03-.378-.237-.842-.295-1.265-.149z" fill="url(#b)"/><path d="M107.882 67.606h-34.02c-4.383 0-7.936-3.553-7.936-7.936v-7.32c0-.809.655-1.465 1.465-1.465h29.5c6.88 0 12.456 5.576 12.456 12.456v2.802c0 .808-.656 1.464-1.465 1.464z" fill="#754C29"/><path d="M86.866 89.798c0 1.915-.708 3.579-2.05 4.812-1.425 1.309-3.518 2.128-6.227 2.432-.864.097-1.653.124-2.264.124-.504 0-.886-.019-1.087-.029v-3.629l.15.007c1.349.109 5.231.041 6.983-1.575.596-.55.873-1.231.873-2.141 0-1 .811-1.811 1.811-1.811 1.002 0 1.811.812 1.811 1.811z" fill="#FFBD86"/><path d="M52.226 87.835c-.029.787-.677 1.41-1.463 1.41h-5.001v10.675c0 .801-.647 1.456-1.448 1.463l-8.207.082-7.241 12.604h-24.486l11.925-17.687c.193-.287.271-.638.213-.981l-3.62-21.167c-.282-1.719-.323-3.408-.152-5.034.181-1.761.611-3.448 1.251-5.035h29.824c1.072 1.304 3.075 2.939 4.247 4.704l.188.287c3.994 6.275 4.098 15.244 3.97 18.678z" fill="#FED2A4"/><path d="M4.379 114.068h3.814l11.926-17.686c.194-.286.269-.637.21-.98l-3.619-21.169c-.282-1.719-.321-3.408-.154-5.034.184-1.759.613-3.447 1.253-5.033h-3.814c-.639 1.586-1.069 3.274-1.251 5.033-.17 1.627-.129 3.315.151 5.034l3.62 21.169c.059.342-.017.693-.212.98l-11.926 17.686z" fill="#FFBD86"/><path d="M12.895 74.235l3.447 20.15c.139.815.972 1.313 1.756 1.051l9.824-3.294c.597-.201 1-.76 1-1.389v-18.499h4.921c.352 0 .676-.124.927-.331.329-.268.537-.677.537-1.133v-6.995h-21.157c-1.349 3.139-1.863 6.714-1.256 10.441z" fill="#F7931E"/><path d="M7.322 106.769c3.003 1.037 15.895 5.336 24.654 5.775.778.04 1.386.683 1.386 1.462v1.064c0 .809-.656 1.465-1.464 1.465h-29.934c-.858 0-1.528-.733-1.46-1.587.154-1.924 1.127-5.251 5.552-8.03.379-.237.843-.295 1.266-.149z" fill="#754C29"/><path d="M13.118 67.606h34.02c4.383 0 7.936-3.553 7.936-7.936v-7.32c0-.809-.657-1.465-1.465-1.465h-29.5c-6.879 0-12.456 5.576-12.456 12.456v2.802c0 .808.655 1.464 1.465 1.464z" fill="url(#c)"/><path d="M45.762 93.51v3.626c-.2.009-.582.029-1.087.029-.611 0-1.4-.027-2.264-.124-2.71-.304-4.803-1.123-6.227-2.432-1.342-1.233-2.05-2.897-2.05-4.812 0-.999.809-1.81 1.811-1.81 1 0 1.811.811 1.811 1.81 0 .911.277 1.591.873 2.142 1.751 1.615 5.636 1.685 6.984 1.574l.149-.004z" fill="#FFBD86"/><path d="M39.87 79.957c-1.001 0-1.821-.811-1.821-1.811 0-1 .802-1.811 1.802-1.811h.019c1 0 1.81.811 1.81 1.811 0 1-.81 1.811-1.81 1.811zM81.148 79.957c-1 0-1.82-.811-1.82-1.811 0-1 .801-1.811 1.802-1.811h.018c1.001 0 1.811.811 1.811 1.811 0 1-.81 1.811-1.811 1.811zM7.985 5.93v28.727c0 1.333 1.081 2.414 2.415 2.414h30.943l9.997 6.48c1.607 1.041 3.728-.113 3.728-2.027v-35.595c0-1.333-1.081-2.414-2.414-2.414h-42.254c-1.334 0-2.415 1.081-2.415 2.414z" fill="#754C29"/><path d="M113.009 5.93v28.727c0 1.333-1.081 2.414-2.415 2.414h-30.943l-9.997 6.48c-1.607 1.041-3.728-.113-3.728-2.027v-35.595c0-1.333 1.081-2.414 2.414-2.414h42.254c1.333 0 2.414 1.081 2.414 2.414z" fill="#F7931E"/><path d="M20.072 16.416h-3.664c-1.001 0-1.811-.811-1.811-1.811 0-1 .81-1.811 1.811-1.811h3.664c1 0 1.811.811 1.811 1.811 0 1-.811 1.811-1.811 1.811zM46.653 16.416h-20.782c-1 0-1.811-.811-1.811-1.811 0-1 .811-1.811 1.811-1.811h20.782c1 0 1.811.811 1.811 1.811 0 1-.811 1.811-1.811 1.811zM46.653 22.452h-30.245c-1.001 0-1.811-.811-1.811-1.811 0-1.001.81-1.811 1.811-1.811h30.245c1 0 1.811.811 1.811 1.811 0 1-.811 1.811-1.811 1.811zM46.653 28.488h-30.245c-1.001 0-1.811-.81-1.811-1.811 0-1 .81-1.811 1.811-1.811h30.245c1 0 1.811.811 1.811 1.811 0 1.001-.811 1.811-1.811 1.811zM78.011 16.416h-3.664c-1 0-1.811-.811-1.811-1.811 0-1 .811-1.811 1.811-1.811h3.664c1 0 1.811.811 1.811 1.811 0 1-.811 1.811-1.811 1.811zM104.592 16.416h-20.783c-1 0-1.811-.811-1.811-1.811 0-1 .811-1.811 1.811-1.811h20.783c1 0 1.811.811 1.811 1.811 0 1-.811 1.811-1.811 1.811zM104.592 22.452h-30.245c-1.001 0-1.811-.811-1.811-1.811 0-1.001.81-1.811 1.811-1.811h30.245c1 0 1.811.811 1.811 1.811 0 1-.811 1.811-1.811 1.811zM104.592 28.488h-30.245c-1.001 0-1.811-.81-1.811-1.811 0-1 .81-1.811 1.811-1.811h30.245c1 0 1.811.811 1.811 1.811 0 1.001-.811 1.811-1.811 1.811z" fill="#F9F9F9"/></g><defs><linearGradient id="b" x1="87.636" y1="111.612" x2="120.5" y2="111.612" gradientUnits="userSpaceOnUse"><stop stop-color="#EF4223"/><stop offset="0" stop-color="#EF4323"/><stop offset="1" stop-color="#F7931E"/></linearGradient><linearGradient id="c" x1="11.653" y1="59.246" x2="55.074" y2="59.246" gradientUnits="userSpaceOnUse"><stop stop-color="#EF4223"/><stop offset="0" stop-color="#EF4323"/><stop offset="1" stop-color="#F7931E"/></linearGradient><clipPath id="a"><path fill="#fff" d="M.5 0h120v120h-120z"/></clipPath></defs></svg>