<svg width="131" height="131" viewBox="0 0 131 131" xmlns="http://www.w3.org/2000/svg" fill="none"><circle cx="65.5" cy="65.477" r="53.32" fill="#CC3630"/><path d="M69.165 46.98c-1.178.422-2.005 1.501-2.142 2.754h18.535v-3.295c0-2.262-2.169-3.855-4.252-3.13l-12.101 3.657-.04.013zM85.559 53.664h-30.504l13.66-13.673c.754-.755.754-1.98 0-2.735l-3.461-3.465c-1.761-1.762-4.615-1.762-6.376 0l-3.559 3.563-1.822-1.824c-2.009-2.011-5.278-2.011-7.287 0l-7.105 7.112c-2.009 2.011-2.009 5.283 0 7.294l1.822 1.824-3.559 3.562c-1.761 1.762-1.761 4.62 0 6.382l3.461 3.465c.754.755 1.978.755 2.733 0l4.897-4.902v29.837c0 4.629 3.749 8.381 8.373 8.381h20.353c4.624 0 8.373-3.752 8.373-8.381v-36.439zm-41.899-4.64l-1.822-1.824c-.502-.503-.502-1.321 0-1.824l7.105-7.112c.502-.503 1.32-.503 1.822 0l1.822 1.824-8.927 8.935zm16.685 38.63c0 1.068-.865 1.934-1.932 1.934s-1.932-.866-1.932-1.934v-23.158c0-1.068.865-1.934 1.932-1.934s1.932.866 1.932 1.934v23.158zm8.597 0c0 1.068-.865 1.934-1.932 1.934s-1.932-.866-1.932-1.934v-23.158c0-1.068.865-1.934 1.932-1.934s1.932.866 1.932 1.934v23.158zm8.597 0c0 1.068-.865 1.934-1.932 1.934s-1.932-.866-1.932-1.934v-23.158c0-1.068.865-1.934 1.932-1.934s1.932.866 1.932 1.934v23.158z" fill="#fff"/></svg>