<svg width="131" height="131" viewBox="0 0 131 131" xmlns="http://www.w3.org/2000/svg" fill="none"><g clip-path="url(#a)"><path d="M106.125 28.914v52.813h-89.375v-52.813c.003-1.077.432-2.108 1.193-2.869.761-.761 1.793-1.19 2.869-1.193h81.249c.686 0 1.36.173 1.96.503.6.33 1.107.807 1.473 1.386.415.649.634 1.404.63 2.174z" fill="url(#b)"/><path d="M106.125 81.727h-89.375l-10.156 24.375h109.68799999999999l-10.156-24.375z" fill="#204BB9"/><path d="M87.844 50.313c-1.284-.548-2.666-.831-4.063-.833h-6.683c.785-2.651.785-5.474 0-8.125-.871-2.934-2.666-5.507-5.119-7.337-2.452-1.83-5.431-2.819-8.491-2.819-3.06 0-6.038.989-8.491 2.819-2.452 1.83-4.248 4.404-5.119 7.337-.063.18-.118.363-.163.548-1.086-.5-2.296-.667-3.477-.481-1.181.186-2.281.718-3.16 1.528-.88.81-1.5 1.862-1.783 3.024-.283 1.162-.215 2.381.193 3.505h-2.397c-2.694 0-5.277 1.07-7.182 2.975-1.905 1.905-2.975 4.488-2.975 7.181 0 2.694 1.07 5.277 2.975 7.182 1.905 1.905 4.488 2.975 7.182 2.975h44.687c1.397-.001 2.778-.285 4.063-.833 1.812-.794 3.353-2.098 4.436-3.754 1.082-1.656 1.659-3.591 1.659-5.569 0-1.978-.576-3.914-1.659-5.569-1.082-1.656-2.624-2.96-4.436-3.754z" fill="#F0F0F4"/><path d="M130.5 39.07v52.813c-.003 1.076-.432 2.108-1.193 2.869-.762.761-1.793 1.19-2.869 1.193h-32.501c-1.075-.007-2.104-.438-2.864-1.198-.76-.76-1.191-1.789-1.198-2.864v-52.813c.003-1.076.432-2.108 1.193-2.869.761-.761 1.793-1.19 2.869-1.193h32.501c.859 0 1.697.273 2.391.781.693.508 1.208 1.223 1.468 2.042.14.398.208.817.203 1.239z" fill="url(#c)"/><path fill-rule="evenodd" clip-rule="evenodd" d="M126.438 35.008h-32.501c-1.076.003-2.108.432-2.869 1.193-.761.761-1.19 1.793-1.193 2.869v52.813c.007 1.075.438 2.104 1.198 2.864.76.76 1.789 1.191 2.864 1.198h32.501c1.076-.003 2.107-.432 2.869-1.193.761-.761 1.19-1.793 1.193-2.869v-52.813c.005-.422-.063-.841-.203-1.239-.26-.819-.775-1.535-1.468-2.042-.694-.508-1.532-.781-2.391-.781zm2.031 56.871c-.002.539-.218 1.055-.599 1.437-.381.381-.897.596-1.436.599h-32.488c-.539-.005-1.055-.222-1.436-.603s-.598-.897-.603-1.436v-52.801c.002-.539.217-1.055.598-1.436s.897-.596 1.436-.599h32.497c.428 0 .846.136 1.191.389.346.253.602.609.732 1.018l.009.029.01.029c.061.174.091.357.089.541l2.031.025h-2.031v52.809z" fill="#C7C7C7"/><path d="M77.688 67.762v4.063l-4.489 1.117c-.279 1.03-.689 2.019-1.219 2.945l2.377 3.961-2.864 2.864-3.961-2.376c-.926.53-1.915.94-2.945 1.219l-1.117 4.489h-4.063l-1.117-4.489c-1.03-.279-2.02-.689-2.945-1.219l-3.961 2.376-2.864-2.864 2.377-3.961c-.53-.926-.94-1.916-1.219-2.945l-4.489-1.117v-4.063l4.489-1.117c.279-1.03.688-2.019 1.219-2.945l-2.377-3.961 2.864-2.864 3.961 2.377c.926-.53 1.916-.94 2.945-1.219l1.117-4.489h4.063l1.117 4.489c1.03.279 2.02.689 2.945 1.219l3.961-2.377 2.864 2.864-2.377 3.961c.53.926.94 1.916 1.219 2.945l4.489 1.117z" fill="#CC3630"/><path d="M75.656 97.977l2.031 8.125h-32.5l2.031-8.125h28.437zM116.281 106.102v5.586c-.003.74-.432 1.449-1.193 1.972-.761.523-1.793.818-2.869.82h-101.563c-1.076-.002-2.108-.297-2.869-.82-.761-.523-1.19-1.232-1.193-1.972v-5.586h109.687z" fill="#2CCCD4"/><path d="M118.312 35.008v6.094c0 .539-.214 1.055-.594 1.436-.381.381-.898.595-1.437.595h-12.187c-.539 0-1.056-.214-1.437-.595-.38-.381-.595-.898-.595-1.436v-6.094h16.25z" fill="#C7C7C7"/><path d="M61.438 77.918c-1.607 0-3.178-.477-4.514-1.369-1.336-.893-2.378-2.162-2.992-3.646-.615-1.485-.776-3.118-.462-4.694.313-1.576 1.087-3.024 2.224-4.16 1.136-1.136 2.584-1.91 4.16-2.224 1.576-.314 3.21-.153 4.694.462 1.485.615 2.754 1.656 3.646 2.992.893 1.336 1.369 2.907 1.369 4.514 0 2.155-.856 4.221-2.38 5.745s-3.59 2.38-5.745 2.38zm0-12.188c-.803 0-1.589.238-2.257.685-.668.446-1.189 1.081-1.496 1.823-.307.742-.388 1.559-.231 2.347s.544 1.512 1.112 2.08c.568.568 1.292.955 2.08 1.112.788.157 1.605.076 2.347-.231s1.377-.828 1.823-1.496c.446-.668.685-1.453.685-2.257 0-1.078-.428-2.111-1.19-2.873s-1.795-1.19-2.873-1.19z" fill="#FFBD86"/><path d="M102.792 57.464c.39-.391.39-1.024 0-1.414l-1.458-1.458c-.391-.391-1.024-.391-1.415 0l-5.387 5.387c-.381.381-.595.898-.595 1.436 0 .539.214 1.055.595 1.436l5.387 5.387c.391.39 1.024.39 1.415 0l1.458-1.458c.39-.39.39-1.024 0-1.414l-.213-.212c-.63-.63-.183-1.707.707-1.707h22.405c.553 0 1-.448 1-1v-2.063c0-.552-.447-1-1-1h-22.405c-.89 0-1.337-1.077-.707-1.707l.213-.212z" fill="#fff"/><path d="M125.842 74.197l-5.386-5.387c-.391-.391-1.024-.391-1.415 0l-1.457 1.458c-.391.391-.391 1.024 0 1.414l.212.212c.63.63.184 1.707-.707 1.707h-22.151c-.552 0-1 .448-1 1v2.063c0 .552.448 1 1 1h22.151c.89 0 1.337 1.077.707 1.707l-.212.212c-.391.391-.391 1.024 0 1.414l1.457 1.458c.391.391 1.024.391 1.415 0l5.386-5.387c.381-.381.595-.898.595-1.436 0-.539-.214-1.055-.595-1.436z" fill="#F0F0F4"/></g><defs><linearGradient id="b" x1="106.125" y1="53.289" x2="16.75" y2="53.289" gradientUnits="userSpaceOnUse"><stop stop-color="#204BB9"/><stop offset="1" stop-color="#2CCCD4"/></linearGradient><linearGradient id="c" x1="110.188" y1="35.008" x2="110.188" y2="95.945" gradientUnits="userSpaceOnUse"><stop stop-color="#fff"/><stop offset="1" stop-color="#C7C7C7"/></linearGradient><clipPath id="a"><path fill="#fff" d="M.5.477h130v130h-130z"/></clipPath></defs></svg>