<svg width="131" height="131" viewBox="0 0 131 131" xmlns="http://www.w3.org/2000/svg" fill="none"><path d="M83.522 29.154v18.976c0 2.69 2.201 4.891 4.891 4.891h12.226v6.333c0 1.907 1.541 3.448 3.448 3.448.93 0 1.81-.367 2.446-1.002l8.778-8.779h7.336c2.69 0 4.891-2.201 4.891-4.891v-19.563c0-2.69-2.201-4.891-4.891-4.891h-36.68c0 2.03-.831 3.864-2.152 5.184-.098.098-.196.196-.318.269l.024.024z" fill="#F0F0F4"/><path d="M91.579 93.871v24.252c0 1.402-1.137 2.539-2.539 2.539h-82.954c-1.402 0-2.539-1.137-2.539-2.539v-24.252c0-7.263 2.885-14.232 8.021-19.367 4.304-4.304 9.928-7.067 15.968-7.825l10.246-1.272h19.563l10.246 1.272c6.04.758 11.664 3.521 15.968 7.825 2.568 2.568 4.573 5.6 5.942 8.876 1.345 3.301 2.078 6.871 2.078 10.49z" fill="url(#a)"/><path d="M79.963 84.944v37.368c0 3.446-5.453 6.228-12.208 6.228h-40.692c-6.755 0-12.208-2.782-12.208-6.228v-37.367999999999995c0-3.446 5.453-6.228 12.208-6.228h40.692c6.755 0 12.208 2.782 12.208 6.228z" fill="url(#b)"/><path d="M46.952 108.366c-2.701 0-4.891-2.189-4.891-4.89 0-2.702 2.19-4.891 4.891-4.891s4.891 2.189 4.891 4.891c0 2.701-2.19 4.89-4.891 4.89z" fill="#fff"/><path d="M17.925 53.853c1.32 1.321 3.154 2.152 5.184 2.152h3.423l.758-.367c-1.149-2.568-1.736-5.38-1.736-8.265v-6.04h-2.445c-4.059 0-7.336 3.277-7.336 7.336 0 2.03.831 3.864 2.152 5.184zM69.571 38.888v8.485c0 2.886-.587 5.698-1.736 8.265-1.027 2.396-2.494 4.597-4.377 6.48h-.024c-2.201 2.225-4.891 3.888-7.801 4.915-2.201.782-4.524 1.198-6.896 1.198h-2.299c-2.396 0-4.744-.391-6.945-1.198-.367-.122-.709-.245-1.051-.391-2.519-1.052-4.817-2.568-6.774-4.524-1.883-1.883-3.35-4.084-4.377-6.48-1.149-2.568-1.736-5.38-1.736-8.265v-23.157000000000004h29.343999999999998c8.094 0 14.672 6.578 14.672 14.672zM69.571 47.373c0 2.886-.587 5.698-1.736 8.265l.758.367h3.424c1.883 0 3.57-.709 4.866-1.883.122-.073.22-.171.318-.269 1.32-1.321 2.152-3.154 2.152-5.184 0-2.372-1.1-4.451-2.837-5.795-1.247-.954-2.812-1.541-4.499-1.541h-2.445v6.04z" fill="#FED2A4"/><path d="M55.816 49.281h-16.506c0 4.56 3.693 8.253 8.253 8.253 2.27 0 4.333-.928 5.839-2.414 1.486-1.506 2.414-3.569 2.414-5.839z" fill="#FFBD86"/><path d="M58.414 37.869c-.321 0-.62.088-.876.239-.798.475-1.558 1.391-2.487 1.391-.928 0-1.709-.776-1.387-1.646.699-1.889 2.564-3.244 4.749-3.244 2.185 0 4.051 1.355 4.749 3.244.322.871-.459 1.646-1.387 1.646-.928 0-1.689-.916-2.486-1.391-.255-.152-.555-.239-.876-.239zM36.712 34.609c2.185 0 4.051 1.355 4.749 3.244.322.871-.459 1.646-1.387 1.646-.928 0-1.689-.916-2.486-1.391-.255-.152-.555-.239-.876-.239-.321 0-.62.088-.876.239-.798.475-1.558 1.391-2.486 1.391-.928 0-1.709-.776-1.387-1.646.699-1.889 2.564-3.244 4.749-3.244z" fill="#90633C"/><path d="M35.263 24.216h-.024c-5.412 1.524-8.078 3.428-12.903 3.428-4.824 0-18.789-22.38 1.538-22.38 4.68 0 22.86-1.07 31.539-.611 6.602 0 12.593 2.69 16.922 7.018 4.328 4.328 7.018 10.319 7.018 16.922 0 1.981-.245 3.913-.709 5.82l-2.127 8.461c-1.247-.954-2.812-1.541-4.499-1.541h-2.445v-2.445c0-8.094-6.578-14.672-14.672-14.672h-19.636z" fill="#754C29"/><path d="M120.202 33.458c0-1.351-1.095-2.445-2.445-2.445h-24.454c-1.35 0-2.445 1.095-2.445 2.445 0 1.35 1.095 2.445 2.445 2.445h24.454c1.35 0 2.445-1.095 2.445-2.445zM95.749 43.24c0-1.351-1.095-2.445-2.445-2.445-1.351 0-2.445 1.095-2.445 2.445 0 1.351 1.095 2.445 2.445 2.445 1.351 0 2.445-1.095 2.445-2.445zM120.202 43.24c0-1.351-1.095-2.445-2.445-2.445h-14.672c-1.351 0-2.446 1.095-2.446 2.445 0 1.351 1.095 2.445 2.446 2.445h14.672c1.35 0 2.445-1.095 2.445-2.445z" fill="#fff"/><defs><linearGradient id="a" x1="3.547" y1="93.035" x2="91.579" y2="93.035" gradientUnits="userSpaceOnUse"><stop stop-color="#204BB9"/><stop offset="1" stop-color="#2CCCD4"/></linearGradient><linearGradient id="b" x1="47.41" y1="78.716" x2="47.41" y2="128.54" gradientUnits="userSpaceOnUse"><stop stop-color="#fff"/><stop offset="1" stop-color="#C7C7C7"/></linearGradient></defs></svg>