<svg width="131" height="131" viewBox="0 0 131 131" xmlns="http://www.w3.org/2000/svg" fill="none"><g clip-path="url(#a)"><path d="M29.209 50.581l36.292-36.291 36.292 36.291h7.583l-39.541-39.541h-8.667l-39.542 39.541h7.584z" fill="#C7C7C7"/><path d="M65.5 25.393c6.881 0 12.458-5.578 12.458-12.458 0-6.881-5.578-12.458-12.458-12.458-6.881 0-12.458 5.578-12.458 12.458 0 6.881 5.578 12.458 12.458 12.458z" fill="#2CCCD4"/><path d="M65.5 18.623c3.141 0 5.688-2.546 5.688-5.687 0-3.141-2.546-5.688-5.688-5.688-3.141 0-5.688 2.546-5.688 5.688 0 3.141 2.546 5.687 5.688 5.687z" fill="url(#b)"/><path d="M122.375 46.789h-113.75c-4.604 0-8.125 3.521-8.125 8.125v67.438c0 4.604 3.521 8.125 8.125 8.125h113.75c4.604 0 8.125-3.521 8.125-8.125v-67.438c0-4.333-3.521-8.125-8.125-8.125z" fill="url(#c)"/><path d="M119.667 57.623h-108.334v62.02h108.334v-62.02z" fill="#F0F0F4"/><path d="M29.479 109.352l-1.083-2.438h-4.604l-1.083 2.438h-2.708l4.875-11.375h2.438l4.875 11.375h-2.709zm-3.521-7.855l-1.354 3.25h2.979l-1.625-3.25zM37.063 105.289l2.979-7.312h2.708l-4.604 11.375h-2.167l-4.604-11.375h2.708l2.979 7.312zM51.416 109.352l-1.083-2.438h-4.875l-1.083 2.438h-2.708l4.875-11.375h2.709l4.875 11.375h-2.708zm-3.521-7.855l-1.354 3.25h2.979l-1.625-3.25zM55.479 97.977h2.438v11.375h-2.438v-11.375zM60.896 109.352v-11.375h2.437v9.208h4.875v2.167h-7.312zM78.229 109.352l-1.083-2.438h-4.875l-1.083 2.438h-2.708l5.146-11.375h2.438l4.875 11.375h-2.708zm-3.521-7.855l-1.354 3.25h2.979l-1.625-3.25zM87.166 109.352h-4.875v-11.375h4.333c.813 0 1.354 0 1.896.271.541.271 1.083.542 1.354.813.542.542.813 1.354.813 1.896 0 .812-.271 1.625-.813 1.896-.271.271-.271.271-.541.271 0 0-.271 0-.542.271.813.271 1.354.541 1.625 1.083.542.542.542 1.083.542 1.896 0 .812-.271 1.625-.813 2.167-.271.541-1.354.812-2.979.812zm-2.438-6.771h1.083c.813 0 1.354 0 1.625-.271.271-.271.542-.542.542-1.084s-.271-.812-.542-1.083c-.271-.271-.813-.271-1.625-.271h-1.354v2.708h.271v.001zm0 4.875h1.625c.813 0 1.354 0 1.625-.271.271-.271.542-.542.542-1.084 0-.541-.271-.812-.542-1.083-.271-.271-1.083-.271-1.896-.271h-1.625v2.708h.271v.001zM93.396 109.352v-11.375h2.438v9.208h4.874v2.167h-7.312zM111 97.977v2.166h-5.687v2.438h5.145v2.166h-5.145v2.438h5.958v2.166h-8.396v-11.374h8.125z" fill="#2CCCD4"/><path d="M46.469 73.548c0-4.44-3.232-7.564-8.004-7.564-4.741 0-8.004 3.124-8.004 7.564 0 4.165 2.894 7.197 7.173 7.533l-4.679 6.768h5.665l6.588-9.953c.8-1.194 1.262-2.695 1.262-4.349zm-11.083 0c0-1.868 1.447-2.97 3.078-2.97 1.663 0 3.079 1.072 3.079 2.97 0 1.899-1.416 2.971-3.079 2.971-1.632 0-3.078-1.102-3.078-2.971zM64.927 73.548c0-4.44-3.233-7.564-8.004-7.564-4.741 0-8.004 3.124-8.004 7.564 0 4.165 2.894 7.197 7.173 7.533l-4.679 6.768h5.665l6.588-9.953c.8-1.194 1.262-2.695 1.262-4.349zm-11.083 0c0-1.868 1.447-2.97 3.079-2.97 1.662 0 3.078 1.072 3.078 2.97 0 1.899-1.416 2.971-3.078 2.971-1.632 0-3.079-1.102-3.079-2.971zM70.005 83.103h-4.926l-1.231 9.034h3.694l2.463-9.034zM87.082 73.548c0-4.44-3.232-7.564-8.004-7.564-4.741 0-8.004 3.124-8.004 7.564 0 4.165 2.894 7.197 7.173 7.533l-4.679 6.768h5.665l6.588-9.953c.8-1.194 1.262-2.695 1.262-4.349zm-11.083 0c0-1.868 1.447-2.97 3.078-2.97 1.662 0 3.079 1.072 3.079 2.97 0 1.899-1.416 2.971-3.079 2.971-1.632 0-3.078-1.102-3.078-2.971zM96.487 79.981c2.607 0 4.555-1.993 4.555-4.459 0-2.544-1.948-4.459-4.555-4.459-2.633 0-4.581 1.993-4.581 4.459 0 2.466 1.948 4.459 4.581 4.459zm-2.396 6.925l1.738 1.023 11.901-13.141-1.738-.997-11.901 13.115zm2.37-9.941c-.816 0-1.395-.63-1.395-1.443 0-.813.579-1.443 1.395-1.443.843 0 1.422.63 1.422 1.443 0 .761-.579 1.443-1.422 1.443zm9.426 13.141c2.606 0 4.554-1.994 4.554-4.459 0-2.466-1.948-4.459-4.554-4.459-2.633 0-4.582 1.994-4.582 4.459 0 2.466 1.949 4.459 4.582 4.459zm-.027-3.017c-.816 0-1.395-.629-1.395-1.443 0-.813.579-1.443 1.395-1.443.843 0 1.422.63 1.422 1.443 0 .761-.579 1.443-1.422 1.443z" fill="#CC3630"/></g><defs><linearGradient id="b" x1="71.188" y1="12.935" x2="59.813" y2="12.935" gradientUnits="userSpaceOnUse"><stop stop-color="#204BB9"/><stop offset="1" stop-color="#2CCCD4"/></linearGradient><linearGradient id="c" x1="130.5" y1="88.633" x2=".5" y2="88.633" gradientUnits="userSpaceOnUse"><stop stop-color="#204BB9"/><stop offset="1" stop-color="#2CCCD4"/></linearGradient><clipPath id="a"><path fill="#fff" d="M.5.477h130v130h-130z"/></clipPath></defs></svg>