<svg width="131" height="131" viewBox="0 0 131 131" xmlns="http://www.w3.org/2000/svg" fill="none"><g clip-path="url(#a)"><path d="M5.937 127.721l14.023-41.769c1.655-4.93 5.463-8.84 10.349-10.624l27.323-9.979 1.409-.515c3.555-1.298 7.002.51 8.334 4.052 1.324 3.522-.418 7.21-3.916 8.596l-7.629 2.972c-2.902 1.15-4.817 4.92-3.677 7.826.282.718 1.184 1.347 1.689 1.869.233.241.486.46.755.654 1.48 1.068 3.447 1.401 5.284.722l36.948-13.654 10.201-18.78c.369-.679.848-1.266 1.404-1.748 1.669-1.446 4.036-1.456 6.22-.676l-.245-.245c3.311 1.182 5.004 4.853 3.755 8.139l-9.712 24.655c-.769 2.021-2.275 3.676-4.216 4.63l-5.89 3.137-48.045 23.624c-1.366.672-2.232 2.062-2.232 3.584v4.165c0 1.103-.894 1.997-1.997 1.997h-38.241c-1.365.001-2.328-1.338-1.893-2.632z" fill="#FED2A4"/><path d="M114.654 56.177c-1.979-.707-4.105-.36-5.729.786 2.28 1.61 3.284 4.615 2.243 7.354l-11.377 29.969c-.413 1.088-1.042 2.067-1.835 2.891l.39-.192 6.38-3.137c1.941-.954 3.447-2.609 4.216-4.63l9.467-24.9c1.249-3.286-.444-6.957-3.755-8.14zM60.624 68.886c1.324 3.522-.418 7.455-3.916 8.841l-8.119 3.217c-2.902 1.15-4.327 4.43-3.187 7.336 1.127 2.872 4.344 4.315 7.238 3.245l1.958-.724c-.852-.615-1.544-1.473-1.955-2.522-1.14-2.906.286-6.186 3.187-7.336l8.119-3.217c3.498-1.386 5.24-5.319 3.916-8.841-1.332-3.543-5.269-5.351-8.823-4.052l-1.409.515c1.329.771 2.41 1.988 2.992 3.538z" fill="#FFBD86"/><path fill-rule="evenodd" clip-rule="evenodd" d="M90.918 32.723h8.352v-13.889c0-9.093-7.951-16.326-17.519-16.326-9.569 0-17.519 7.233-17.519 16.326v13.889h8.352v-13.889c0-4.542 4.021-8.401 9.168-8.401 5.147 0 9.168 3.859 9.168 8.401v13.889z" fill="#C7C7C7"/><path d="M87.165 65.984h-9.591c-9.894 0-17.914-8.02-17.914-17.914v-18.12c0-.552.448-1 1-1h43.419c.552 0 1 .448 1 1v18.12c0 9.894-8.02 17.914-17.914 17.914z" fill="url(#b)"/><path d="M104.079 28.951c.552 0 1 .448 1 1v18.119c0 9.895-8.019 17.913-17.914 17.913h-3.797c-.552 0-1-.448-1-1v-35.032c0-.552.448-1 1-1h20.71z" fill="#2CCCD4"/><path d="M89.326 43.861c0-3.842-3.115-6.956-6.956-6.956-3.842 0-6.956 3.114-6.956 6.956 0 2.329 1.149 4.386 2.907 5.648v4.473c0 2.236 1.813 4.05 4.05 4.05 2.236 0 4.05-1.813 4.05-4.05v-4.473c1.758-1.263 2.907-3.319 2.907-5.648z" fill="#231F20"/><path fill-rule="evenodd" clip-rule="evenodd" d="M80.605 48.337v5.645c0 .975.79 1.765 1.764 1.765s1.765-.79 1.765-1.765v-5.645l.952-.684c1.19-.855 1.955-2.235 1.955-3.792 0-2.58-2.091-4.671-4.671-4.671s-4.671 2.091-4.671 4.671c0 1.558.765 2.938 1.955 3.792l.952.684zm1.764-11.433c3.842 0 6.956 3.114 6.956 6.956 0 2.329-1.149 4.386-2.907 5.648v4.473c0 2.237-1.813 4.05-4.05 4.05s-4.05-1.813-4.05-4.05v-4.473c-1.758-1.263-2.907-3.319-2.907-5.648 0-3.842 3.114-6.956 6.956-6.956z" fill="url(#c)"/></g><defs><linearGradient id="b" x1="105.079" y1="47.468" x2="59.66" y2="47.468" gradientUnits="userSpaceOnUse"><stop stop-color="#204BB9"/><stop offset="1" stop-color="#2CCCD4"/></linearGradient><linearGradient id="c" x1="82.37" y1="36.904" x2="82.37" y2="58.032" gradientUnits="userSpaceOnUse"><stop stop-color="#fff"/><stop offset="1" stop-color="#C7C7C7"/></linearGradient><clipPath id="a"><path fill="#fff" d="M.5.477h130v130h-130z"/></clipPath></defs></svg>