<svg width="131" height="131" viewBox="0 0 131 131" xmlns="http://www.w3.org/2000/svg" fill="none"><path d="M106.589 70.47v15.809999999999999c0 5.376-1.094 10.616-3.235 15.4-1.914 4.465-4.647 8.566-8.156 12.074h-.046c-4.1 4.146-9.112 7.245-14.534 9.158-4.101 1.458-8.429 2.233-12.848 2.233h-4.283c-4.465 0-8.839-.729-12.94-2.233-.683-.228-1.321-.456-1.959-.729-4.693-1.959-8.976-4.784-12.621-8.429-3.508-3.508-6.242-7.609-8.156-12.074-2.141-4.784-3.235-10.023-3.235-15.4v-43.148h54.674c15.081 0 27.337 12.256 27.337 27.337z" fill="#FED2A4"/><path d="M77.644 100.769h-22.597c0 6.032 5.056 10.918 11.299 10.918 3.107 0 5.932-1.229 7.994-3.194 2.034-1.992 3.305-4.722 3.305-7.724z" fill="#FFBD86"/><path d="M87.546 73.686c-.633 0-1.226.175-1.729.478-1.562.941-3.049 2.738-4.872 2.738s-3.355-1.522-2.728-3.234c1.368-3.734 5.034-6.414 9.33-6.414s7.962 2.68 9.33 6.414c.627 1.712-.906 3.234-2.729 3.234s-3.311-1.797-4.872-2.738c-.503-.303-1.096-.478-1.729-.478zM44.636 67.253c4.296 0 7.962 2.68 9.33 6.414.627 1.712-.905 3.234-2.728 3.234-1.823 0-3.311-1.797-4.872-2.738-.503-.303-1.096-.478-1.729-.478s-1.226.175-1.729.478c-1.562.941-3.049 2.738-4.872 2.738s-3.355-1.522-2.729-3.234c1.368-3.734 5.034-6.414 9.33-6.414zM112.928 61.161l1.278 2.538-4.189 4.316s-1.474-.057-3.555-1.777c-2.657-2.192-5.61-13.69-17.9-21.328s-37.898 22.572-67.502 17.296c-12.24 1.285 2.499-22.618 2.499-22.618l12.829-13.979c10.115-11.022 25.272-15.883 39.885-12.792 15.806 3.343 28.338 15.411 32.304 31.115l4.352 17.229z" fill="#754C29"/><path d="M119.03 65.222h-9.575v-6.333c0-23.923-19.226-43.386-42.856-43.386-23.63 0-42.856 19.463-42.856 43.386v6.333h-9.575v-6.333c0-29.271 23.522-53.08 52.431-53.08s52.431 23.809 52.431 53.08v6.333z" fill="url(#a)"/><path d="M93.043 125.257h-21.096c-2.58 0-4.676-2.092-4.676-4.676 0-2.583 2.092-4.675 4.676-4.675h21.096c8.336 0 15.112-6.781 15.112-15.117v-20.004c0-2.584 2.093-4.676 4.676-4.676 2.584 0 4.676 2.092 4.676 4.676v20.004c0 13.492-10.972 24.468-24.464 24.468z" fill="#231F20"/><path d="M114.514 60.398h-7.644c-.552 0-1 .448-1 1v33.293c0 .552.448 1 1 1h7.644c5.882 0 10.653-4.776 10.653-10.675v-13.944c-.005-5.898-4.771-10.675-10.653-10.675zM5.832 71.073v13.944c0 5.894 4.771 10.675 10.652 10.675h7.644c.552 0 1-.448 1-1v-33.293c0-.552-.448-1-1-1h-7.644c-5.886 0-10.652 4.776-10.652 10.675z" fill="#CC3630"/><path d="M110.934 69.784v12.659c0 2.202 1.784 3.989 3.99 3.989 2.205 0 3.989-1.787 3.989-3.989v-12.659c0-2.202-1.784-3.989-3.989-3.989-2.202 0-3.99 1.788-3.99 3.989zM11.985 69.784v12.659c0 2.202 1.783 3.989 3.989 3.989s3.989-1.787 3.989-3.989v-12.659c0-2.202-1.783-3.989-3.989-3.989s-3.989 1.788-3.989 3.989z" fill="#EF6262"/><defs><linearGradient id="a" x1="119.03" y1="35.515" x2="14.168" y2="35.515" gradientUnits="userSpaceOnUse"><stop stop-color="#204BB9"/><stop offset="1" stop-color="#2CCCD4"/></linearGradient></defs></svg>