<svg width="131" height="131" viewBox="0 0 131 131" xmlns="http://www.w3.org/2000/svg" fill="none"><g clip-path="url(#a)"><path d="M108.591 114.057v14.095c0 .982-.796 1.778-1.778 1.778h-84.477c-.982 0-1.777-.796-1.777-1.778v-14.095c0-7.263 2.886-14.232 8.021-19.367 4.304-4.304 9.928-7.067 15.968-7.825l10.246-1.272h19.563l10.246 1.272c6.04.758 11.664 3.521 15.968 7.825 2.568 2.568 4.573 5.6 5.942 8.876 1.345 3.302 2.079 6.872 2.079 10.491z" fill="url(#b)"/><path d="M34.937 74.039c1.321 1.32 3.154 2.152 5.184 2.152h3.423l.758-.367c-1.149-2.568-1.736-5.38-1.736-8.265v-6.04h-2.445c-4.059 0-7.336 3.277-7.336 7.336 0 2.03.831 3.864 2.152 5.184z" fill="#FED2A4"/><ellipse cx="64.484" cy="90.613" rx="5.84" ry="6.729" fill="#F0F0F4"/><path d="M86.583 59.074v8.485c0 2.885-.587 5.698-1.736 8.265-1.027 2.397-2.494 4.597-4.377 6.48h-.024c-2.201 2.225-4.891 3.888-7.801 4.915-2.201.782-4.524 1.198-6.896 1.198h-2.299c-2.396 0-4.744-.391-6.945-1.198-.367-.122-.709-.245-1.052-.391-2.519-1.052-4.817-2.568-6.773-4.524-1.883-1.883-3.35-4.084-4.377-6.48-1.149-2.568-1.736-5.38-1.736-8.265v-23.157000000000004h29.343999999999998c8.094 0 14.672 6.578 14.672 14.672zM86.583 67.559c0 2.886-.587 5.698-1.736 8.265l.758.367h3.424c1.883 0 3.57-.709 4.866-1.883.122-.073.22-.171.318-.269 1.32-1.32 2.152-3.154 2.152-5.184 0-2.372-1.1-4.451-2.837-5.795-1.247-.954-2.812-1.541-4.499-1.541h-2.445v6.04z" fill="#FED2A4"/><path d="M70.832 73.348h-11.426c0 3.086 2.557 5.586 5.713 5.586 1.571 0 2.999-.628 4.042-1.634 1.028-1.019 1.671-2.416 1.671-3.952z" fill="#FFBD86"/><path d="M54.04 58.22c.321 0 .62-.088.876-.239.798-.475 1.558-1.391 2.486-1.391.928 0 1.709.776 1.387 1.647-.699 1.889-2.564 3.244-4.749 3.244-2.185 0-4.051-1.355-4.749-3.244-.322-.871.459-1.647 1.387-1.647.928 0 1.688.916 2.486 1.391.255.152.555.239.876.239zM75.742 61.48c-2.185 0-4.051-1.355-4.749-3.244-.322-.871.459-1.647 1.387-1.647.928 0 1.689.916 2.487 1.391.255.152.555.239.876.239.321 0 .621-.088.876-.239.798-.475 1.558-1.391 2.486-1.391.928 0 1.709.776 1.387 1.647-.699 1.889-2.564 3.244-4.749 3.244z" fill="#90633C"/><path d="M52.275 44.401h-.024c-5.412 1.524-8.078 3.429-12.903 3.429-4.824 0-18.789-22.38 1.538-22.38 4.68 0 22.86-1.07 31.539-.611 6.602 0 12.593 2.69 16.922 7.018 4.328 4.328 7.018 10.319 7.018 16.922 0 1.981-.245 3.913-.709 5.82l-2.127 8.461c-1.247-.954-2.812-1.54-4.499-1.54h-2.445v-2.445c0-8.094-6.578-14.672-14.672-14.672h-19.636z" fill="#754C29"/><path d="M81.328 27.2l-45.612 18.024c-.489.193-1.046.065-1.402-.322l-14.767-16.08c-.719-.783-.215-2.05.846-2.125l17.958-1.268c.585-.041 1.065-.477 1.162-1.056l3.721-22.102c.147-.871 1.116-1.33 1.883-.891l20.507 11.735c.46.263 1.034.213 1.442-.125l12.984-10.785c.827-.687 2.081-.099 2.081.977v22.838c0 .521-.318.989-.803 1.181z" fill="#F7931E"/><circle cx="52.932" cy="19.773" r="5.713" fill="#fff"/><path d="M57.375 119.178l5.565-22.852h3.524l6.399 22.852-3.809 13.076h-7.744l-3.935-13.076z" fill="#F0F0F4"/></g><defs><linearGradient id="b" x1="20.559" y1="107.761" x2="108.591" y2="107.761" gradientUnits="userSpaceOnUse"><stop stop-color="#204BB9"/><stop offset="1" stop-color="#2CCCD4"/></linearGradient><clipPath id="a"><path fill="#fff" d="M.5.477h130v130h-130z"/></clipPath></defs></svg>