<svg width="131" height="131" viewBox="0 0 131 131" xmlns="http://www.w3.org/2000/svg" fill="none"><g clip-path="url(#a)"><path d="M60.451 16.344c0-.908 1.765-1.648 3.948-1.648 2.199 0 3.964.74 3.964 1.648v105.098c0 .908-1.765 2.433-3.964 2.433-2.184 0-3.948-1.525-3.948-2.433v-105.098z" fill="#477B9E"/><path fill-rule="evenodd" clip-rule="evenodd" d="M60.451 14.695h53.677c1.59 0 2.153 1.122 1.323 2.411l-8.244 12.836c-1.184 1.86-1.154 3.032 0 4.833l8.244 12.836c.82 1.29.198 2.422-1.323 2.422h-50.794c-2.063 0-2.883-.955-2.883-2.874v-32.464z" fill="#CC3630"/><path fill-rule="evenodd" clip-rule="evenodd" d="M98.261 29.943c-1.201 1.86-1.171 3.032 0 4.833l8.358 12.836c.831 1.29.2 2.422-1.342 2.422h8.828c1.541 0 2.172-1.132 1.341-2.422l-8.357-12.836c-1.171-1.802-1.201-2.973 0-4.833l8.357-12.836c.841-1.289.27-2.411-1.341-2.411h-8.828c1.612 0 2.182 1.122 1.342 2.411l-8.358 12.836z" fill="#BD3341"/><path fill-rule="evenodd" clip-rule="evenodd" d="M71.455 89.145l-8.141-1.054-6.093 1.054c-1.884 0-3.431 1.54-3.431 3.424v16.858c0 1.884 1.547 3.424 3.431 3.424h15.295c3.476 0 6.691-.868 9.284-2.333 1.346-.763.964-.658 2.564-.658h6.743l3.162-9.77-3.162-7.947h-9.135c-2.796 0-1.973-.045-4.336-1.181-2.4-1.151-3.132-1.816-6.182-1.816z" fill="#FED2A4"/><path d="M36.686 65.828h-36.399v22.92h36.399c1.435 0 2.609-1.174 2.609-2.602v-17.717c0-1.435-1.174-2.601-2.609-2.601z" fill="url(#b)"/><path fill-rule="evenodd" clip-rule="evenodd" d="M73.182 65.432c1.884 0 3.424 1.54 3.424 3.424v16.858c0 1.884-1.54 3.431-3.424 3.431h-15.295c-2.736 0-5.3-.538-7.535-1.48-3.985-1.682-2.758-1.517-7.423-1.517h-3.633v-17.718h11.228c1.383-4.739 7.393-9.023 14.884-9.643.165-.022.329-.037.493-.037 1.846 0 3.342 1.495 3.342 3.342s-1.495 3.342-3.342 3.342h7.281z" fill="#FED2A4"/><path d="M93.71 89.533h36.399v22.928h-36.399c-1.428 0-2.601-1.174-2.601-2.601v-17.718c0-1.436 1.166-2.609 2.601-2.609z" fill="url(#c)"/><path fill-rule="evenodd" clip-rule="evenodd" d="M84.365 103.266c-2.691 0-3.468.179-5.816 1.51-1.809 1.024-3.969 1.488-6.033 1.488h-18.726v3.162c0 1.884 1.547 3.424 3.431 3.424h1.72c4.635 0 9.322.082 13.957 0 3.334-.06 6.407-.92 8.903-2.333 1.346-.763.964-.658 2.564-.658h6.743v-6.593h-6.743zM70.012 79.12c0 2.788-1.338 3.431-3.94 3.431h-8.186c-1.689 0-3.409-.299-4.971-.964-3.536-1.488-4.5-1.891-7.027-1.996h-6.593999999999999v6.556h3.633c4.665 0 3.439-.164 7.423 1.517 2.377 1.002 4.964 1.48 7.535 1.48h15.295c1.884 0 3.424-1.547 3.424-3.431v-16.858c0-1.884-1.54-3.424-3.424-3.424h-3.17v13.688z" fill="#FFBD86"/></g><defs><linearGradient id="b" x1="39.295" y1="77.288" x2=".287" y2="77.288" gradientUnits="userSpaceOnUse"><stop stop-color="#204BB9"/><stop offset="1" stop-color="#2CCCD4"/></linearGradient><linearGradient id="c" x1="130.109" y1="100.997" x2="91.109" y2="100.997" gradientUnits="userSpaceOnUse"><stop stop-color="#204BB9"/><stop offset="1" stop-color="#2CCCD4"/></linearGradient><clipPath id="a"><path fill="#fff" d="M.5.477h130v130h-130z"/></clipPath></defs></svg>