<svg width="131" height="131" viewBox="0 0 131 131" xmlns="http://www.w3.org/2000/svg" fill="none"><path d="M78.439 82.742h-28.311c-7.204 0-13.066-5.886-13.066-13.118 0-6.376 4.547-11.697 10.558-12.878 2.265-7.77 9.486-13.359 17.753-13.359 6.529 0 12.566 3.485 15.867 9.017 7.113 1.307 12.444 7.574 12.444 15.034 0 8.44-6.838 15.305-15.244 15.305z" fill="url(#a)"/><path d="M65.288 20.568c8.684 0 16.55 2.268 23.592 6.729l-3.821 3.999c-2.419 2.426-.711 6.575 2.704 6.608l15.715 2.04h.039c2.141 0 3.878-1.736 3.878-3.875v-.027l-1.429-16.317c-.022-3.434-4.198-5.139-6.618-2.71l-4.502 4.5c-8.594-5.848-18.793-9.104-29.557-9.104-29.145 0-52.854 23.695-52.854 52.824 0 5.159.758 10.292 2.255 15.256.514 1.72 2.293 2.76 3.916 2.76h.037l1.238-.15.051-.015c2.046-.62 3.209-2.779 2.594-4.83v-.001c-1.28-4.237-1.929-8.62-1.929-13.02 0-24.854 19.823-44.666 44.691-44.666z" fill="#C7C7C7"/><path d="M65.216 109.989c-8.683-.041-16.538-2.348-23.558-6.843l3.84-3.983c2.43-2.415.742-6.575-2.673-6.624l-15.704-2.115h-.04c-2.14-.01-3.885 1.718-3.895 3.859v.027l1.351 16.331c.006 3.436 4.174 5.162 6.605 2.743l4.523-4.481c8.566 5.892 18.748 9.197 29.511 9.248 29.142.137 52.96-23.458 53.097-52.6.025-5.162-.709-10.3-2.182-15.274-.506-1.723-2.28-2.772-3.903-2.779h-.037l-1.239.144-.051.015c-2.049.61-3.222 2.765-2.617 4.819v.001c1.26 4.245 1.888 8.633 1.867 13.035-.117 24.866-20.031 44.593-44.897 44.476z" fill="#9AA3A7"/><defs><linearGradient id="a" x1="93.684" y1="63.064" x2="37.063" y2="63.064" gradientUnits="userSpaceOnUse"><stop stop-color="#204BB9"/><stop offset="1" stop-color="#2CCCD4"/></linearGradient></defs></svg>