<?xml version="1.0" standalone="no"?>
<!DOCTYPE svg PUBLIC "-//W3C//DTD SVG 20010904//EN"
 "http://www.w3.org/TR/2001/REC-SVG-20010904/DTD/svg10.dtd">
<svg version="1.0" xmlns="http://www.w3.org/2000/svg"
 width="3008.000000pt" height="3008.000000pt" viewBox="0 0 3008.000000 3008.000000"
 preserveAspectRatio="xMidYMid meet">
<metadata>
Created by potrace 1.11, written by Peter Selinger 2001-2013
</metadata>
<g transform="translate(0.000000,3008.000000) scale(0.100000,-0.100000)"
fill="#000000" stroke="none">
<path d="M3833 18858 c-11 -13 -37 -63 -58 -113 -21 -49 -42 -97 -46 -105 -15
-31 -43 -95 -45 -105 -1 -5 -14 -37 -29 -70 -16 -33 -40 -88 -54 -121 l-26
-62 -55 80 c-30 44 -59 87 -65 96 -5 9 -14 21 -18 26 -5 6 -53 76 -109 156
-55 80 -105 151 -112 158 -20 20 -75 18 -96 -4 -11 -10 -22 -33 -26 -49 -5
-26 5 -47 68 -140 40 -61 75 -112 78 -115 20 -20 250 -371 250 -382 0 -8 -4
-18 -8 -23 -5 -6 -16 -29 -25 -52 -9 -23 -26 -64 -38 -90 -54 -121 -71 -161
-155 -355 -49 -115 -91 -208 -94 -208 -6 0 -440 284 -457 299 -7 6 -14 11 -17
11 -4 0 -180 114 -196 127 -4 3 -3 180 4 563 2 154 -5 189 -45 210 -30 17 -72
3 -89 -28 -12 -22 -15 -79 -15 -330 0 -263 -2 -301 -15 -297 -19 8 -311 196
-328 212 -7 7 -20 13 -28 13 -8 0 -14 3 -14 8 0 4 -26 23 -57 41 -32 19 -61
38 -64 43 -3 5 -22 11 -42 15 -42 6 -64 -7 -82 -51 -10 -24 -10 -34 4 -57 9
-15 25 -32 36 -37 11 -5 110 -69 220 -141 109 -72 202 -131 207 -131 4 0 8 -3
8 -8 0 -4 20 -18 45 -32 25 -14 45 -28 45 -32 0 -5 6 -8 13 -8 8 0 22 -8 31
-19 15 -17 16 -43 11 -282 -3 -145 -7 -325 -8 -399 l-2 -135 -30 2 c-16 1 -66
9 -110 18 -44 9 -91 18 -105 20 -14 3 -36 7 -50 10 -14 2 -36 6 -50 9 -14 2
-38 7 -55 10 -16 3 -68 13 -115 21 -47 9 -96 19 -110 22 -14 3 -32 7 -40 9
-30 5 -115 18 -122 18 -11 1 -34 37 -43 66 -4 14 -13 39 -20 55 -17 39 -119
299 -121 305 0 3 -5 16 -11 30 -6 14 -19 45 -28 70 -9 25 -26 64 -36 87 -10
24 -19 47 -19 53 0 5 -11 17 -25 26 -22 14 -32 15 -65 5 -32 -9 -41 -18 -48
-44 -5 -18 -6 -36 -2 -42 3 -5 18 -39 32 -75 14 -36 45 -112 68 -170 23 -58
53 -132 65 -165 12 -33 32 -83 43 -111 l21 -51 -72 14 c-40 8 -82 16 -94 19
-13 2 -34 6 -48 8 -14 3 -33 7 -43 10 -9 3 -35 7 -57 11 -22 3 -47 7 -55 10
-17 5 -58 13 -110 21 -19 3 -51 9 -70 15 -53 14 -96 11 -118 -8 -47 -41 -21
-115 45 -129 21 -4 40 -8 43 -9 3 0 28 -5 55 -10 28 -4 55 -9 60 -11 6 -1 26
-5 45 -9 19 -3 67 -12 105 -20 39 -8 86 -17 105 -20 57 -10 73 -13 125 -25 28
-6 57 -11 65 -11 8 -1 31 -6 51 -11 35 -10 37 -13 99 -172 34 -88 69 -174 76
-191 19 -44 154 -385 154 -389 0 -3 -22 -8 -100 -23 -14 -2 -43 -9 -65 -14
-22 -6 -47 -11 -55 -11 -8 0 -67 -11 -130 -25 -63 -13 -128 -26 -145 -29 -16
-3 -50 -10 -75 -15 -25 -6 -54 -12 -65 -14 -40 -6 -91 -16 -122 -25 -32 -8
-35 -6 -190 152 -87 88 -204 207 -261 264 -110 111 -128 120 -174 84 -32 -24
-39 -49 -24 -84 6 -15 105 -124 221 -242 116 -119 211 -219 213 -224 2 -4 -19
-11 -45 -15 -26 -5 -55 -10 -63 -11 -8 -2 -28 -6 -45 -8 -16 -2 -50 -9 -75
-15 -25 -5 -60 -13 -79 -16 -19 -3 -37 -8 -41 -10 -4 -3 -28 -7 -54 -9 -26 -3
-50 -7 -54 -10 -4 -2 -23 -7 -42 -10 -108 -18 -136 -30 -149 -67 -13 -38 2
-74 39 -89 21 -9 44 -8 102 4 42 9 82 18 89 20 8 3 28 7 44 10 17 3 42 7 57
10 16 4 38 8 50 10 13 3 88 19 168 36 80 17 161 33 180 36 19 3 38 7 42 7 6 2
113 -105 474 -474 92 -94 109 -119 80 -119 -8 0 -16 -4 -18 -8 -1 -4 -50 -39
-108 -77 -58 -38 -129 -86 -157 -107 -29 -21 -53 -36 -53 -33 0 4 -7 0 -15 -8
-8 -8 -31 -25 -52 -38 -21 -13 -42 -27 -48 -32 -5 -4 -54 -37 -108 -72 l-97
-65 -58 26 c-31 14 -65 30 -76 36 -10 5 -28 11 -39 14 -11 2 -24 9 -29 16 -4
7 -8 9 -8 4 0 -6 -5 -5 -12 2 -7 7 -18 12 -25 12 -6 0 -40 13 -75 29 -35 16
-92 41 -128 56 -36 15 -83 36 -105 45 -85 38 -111 47 -126 45 -40 -6 -59 -18
-59 -35 0 -10 -4 -22 -10 -25 -6 -3 -3 -18 6 -38 12 -24 30 -38 72 -56 31 -14
80 -35 107 -47 28 -12 106 -45 175 -74 69 -29 144 -61 167 -71 23 -10 46 -19
52 -19 32 0 12 -25 -56 -71 -43 -29 -79 -56 -81 -61 -2 -4 -8 -8 -13 -8 -9 0
-186 -117 -199 -131 -3 -3 -23 -16 -45 -29 -22 -13 -42 -26 -45 -30 -3 -3 -24
-18 -47 -33 -37 -23 -43 -32 -43 -61 0 -39 32 -66 78 -66 27 0 182 92 252 149
14 12 29 21 33 21 4 0 17 9 29 20 12 11 28 20 35 20 7 0 13 5 13 10 0 6 6 10
14 10 8 0 16 3 18 8 4 10 158 112 169 112 5 0 9 5 9 10 0 6 5 10 11 10 6 0 17
6 24 14 13 12 29 8 117 -31 57 -24 168 -71 248 -105 80 -33 165 -69 190 -80
25 -11 59 -26 75 -33 17 -7 54 -23 82 -36 l53 -24 -39 -60 c-22 -33 -44 -65
-49 -71 -5 -5 -15 -21 -22 -35 -7 -13 -16 -26 -19 -29 -7 -5 -84 -120 -89
-133 -2 -4 -30 -47 -63 -95 -68 -100 -68 -100 -111 -167 -59 -91 -27 -84 -351
-82 -158 1 -287 6 -287 11 0 5 -6 4 -12 -1 -7 -5 -42 -9 -77 -7 -59 1 -67 -1
-93 -26 -21 -21 -26 -34 -22 -56 3 -16 9 -33 14 -37 11 -12 99 -17 398 -21
144 -1 264 -5 266 -7 2 -2 -59 -98 -136 -214 -202 -304 -211 -319 -202 -347
15 -49 69 -72 113 -48 10 5 34 33 52 62 19 29 37 55 41 56 5 2 8 8 8 13 0 10
62 103 73 107 4 2 7 7 7 12 0 6 216 334 237 359 1 2 67 3 145 2 79 -2 230 -4
336 -6 106 -1 195 -5 198 -8 3 -3 19 -1 35 3 16 5 29 6 29 2 0 -4 18 -6 40 -6
22 1 40 1 40 0 0 -1 -40 -205 -45 -227 -2 -9 -6 -34 -10 -55 -4 -22 -9 -48
-11 -59 -5 -33 -14 -78 -21 -110 -3 -16 -7 -40 -9 -52 -1 -11 -5 -31 -9 -43
-4 -12 -8 -32 -10 -43 -6 -44 -17 -102 -20 -107 -2 -3 -6 -26 -10 -50 -4 -25
-7 -46 -8 -47 -1 -1 -114 -45 -252 -98 -137 -53 -286 -110 -330 -127 -116 -45
-126 -57 -117 -136 1 -7 16 -19 34 -27 29 -11 39 -11 88 7 30 11 64 23 75 28
11 5 92 37 180 71 88 33 169 65 180 69 34 15 97 40 101 40 8 0 3 -32 -16 -118
-28 -121 -71 -322 -76 -352 -2 -14 -10 -47 -16 -75 -7 -27 -12 -56 -11 -62 0
-7 1 -20 2 -28 3 -45 75 -70 114 -41 17 13 38 76 51 151 3 17 7 39 9 50 2 11
7 36 11 55 3 19 9 46 12 60 3 14 7 36 10 50 2 14 16 82 30 153 14 70 26 136
27 147 1 11 4 20 8 20 4 0 5 8 2 19 -3 10 1 23 9 27 13 9 165 73 183 78 6 2
19 6 30 11 119 46 195 76 220 86 17 7 32 13 35 13 3 1 67 25 143 55 75 30 139
52 141 50 2 -2 6 -17 9 -34 6 -35 46 -230 53 -260 3 -11 6 -29 8 -40 3 -18 6
-36 22 -105 3 -14 7 -34 9 -45 2 -11 6 -33 10 -50 4 -16 11 -50 15 -75 5 -25
12 -58 15 -75 3 -16 10 -45 15 -63 8 -29 5 -36 -25 -65 -18 -17 -100 -96 -182
-174 -81 -78 -183 -175 -225 -215 -91 -88 -108 -120 -80 -157 24 -33 69 -45
98 -27 11 8 48 41 81 73 196 189 365 348 374 351 5 2 9 -2 10 -10 0 -7 3 -22
5 -33 3 -11 7 -30 9 -42 1 -11 6 -30 9 -41 4 -11 9 -35 11 -53 5 -37 7 -48 25
-124 6 -27 13 -61 15 -75 2 -14 9 -47 15 -75 7 -27 13 -59 15 -70 10 -81 33
-114 80 -120 57 -6 88 50 71 125 -4 14 -8 36 -11 50 -7 35 -12 61 -19 90 -3
14 -8 36 -11 50 -2 14 -11 57 -20 95 -8 39 -17 84 -20 100 -2 17 -9 48 -15 70
-5 22 -12 56 -15 75 -3 19 -8 41 -11 49 -2 8 -7 28 -10 45 -5 37 -24 17 221
251 103 99 225 217 272 262 81 78 103 90 103 57 0 -8 4 -14 8 -14 5 0 27 -28
49 -62 23 -35 69 -103 104 -153 225 -326 279 -406 279 -415 0 -5 -9 -30 -21
-57 -11 -26 -50 -120 -86 -208 -36 -88 -69 -165 -74 -171 -5 -6 -10 -19 -12
-30 -2 -10 -13 -41 -25 -68 -13 -28 -25 -60 -28 -73 -4 -13 -9 -23 -13 -23 -4
0 -8 -6 -9 -12 -1 -7 -3 -25 -6 -39 -6 -39 24 -71 70 -74 29 -2 42 3 55 19 14
18 104 221 230 514 l27 64 24 -34 c14 -18 50 -69 80 -113 184 -269 234 -342
248 -357 9 -10 33 -20 54 -24 30 -4 42 -1 57 15 36 38 25 74 -64 205 -45 67
-135 201 -200 297 l-118 175 32 69 c18 39 34 75 35 80 3 10 100 234 143 327
11 26 21 49 21 52 0 3 18 44 40 91 22 47 40 90 40 95 0 25 30 12 154 -70 75
-50 141 -90 146 -90 4 0 10 -3 12 -7 4 -11 102 -76 156 -104 12 -7 22 -16 22
-21 0 -4 6 -8 13 -8 6 -1 53 -29 102 -63 l90 -62 -3 -240 c-1 -132 -3 -293 -4
-358 -1 -108 1 -121 21 -148 19 -25 28 -30 58 -27 25 2 42 11 55 29 18 23 19
49 23 330 2 212 7 303 14 301 11 -2 122 -73 305 -193 48 -33 90 -59 92 -59 2
0 26 -16 54 -36 65 -47 97 -56 132 -35 28 15 46 65 35 95 -4 9 -68 55 -144
105 -76 49 -143 94 -150 100 -7 6 -15 11 -17 11 -6 0 -223 140 -288 185 l-37
25 5 253 c7 405 11 547 15 552 3 2 49 -5 104 -16 55 -11 114 -22 130 -25 17
-2 41 -6 55 -9 14 -3 36 -7 50 -10 14 -3 36 -7 50 -10 14 -3 39 -7 55 -10 17
-3 53 -10 80 -15 28 -6 67 -13 89 -15 21 -3 41 -7 45 -9 3 -3 27 -7 51 -11 25
-4 52 -9 60 -10 8 -2 18 -4 21 -4 7 -1 77 -160 84 -191 4 -14 94 -239 114
-285 11 -26 36 -88 36 -95 1 -3 9 -22 18 -44 9 -21 17 -42 17 -46 0 -14 37
-40 59 -40 25 0 62 17 73 34 11 16 10 63 -1 84 -12 21 -92 223 -95 237 -1 6
-10 25 -19 43 -10 17 -15 32 -13 32 2 0 -13 41 -34 90 -21 50 -36 90 -34 90 2
0 -3 12 -13 26 l-17 27 45 -6 c24 -3 123 -22 219 -41 96 -19 186 -37 200 -40
14 -3 57 -11 96 -19 107 -21 143 3 135 90 -2 23 -47 43 -127 59 -43 8 -88 17
-99 19 -11 2 -20 4 -20 5 0 1 -11 3 -25 5 -60 9 -98 15 -145 25 -55 12 -148
30 -182 35 -12 2 -34 6 -50 9 -15 4 -38 8 -51 11 -49 9 -61 17 -71 45 -5 17
-7 30 -3 30 4 0 2 4 -3 8 -6 4 -23 41 -39 82 -16 41 -36 91 -44 110 -9 19 -17
37 -17 40 -1 3 -7 19 -14 35 -6 17 -34 89 -62 160 -28 72 -59 148 -69 170 -36
81 -40 77 105 107 72 16 144 30 160 32 17 2 50 9 75 14 25 6 59 13 75 16 36 7
120 23 155 31 14 3 41 8 60 11 19 3 38 8 41 9 3 2 26 7 51 10 l45 6 134 -136
c383 -390 378 -385 408 -385 34 0 66 26 74 61 8 32 -4 49 -133 181 -52 53
-143 146 -203 206 -59 61 -104 113 -99 116 5 3 19 7 33 9 13 3 42 8 64 13 22
4 47 8 55 9 8 1 26 5 40 8 14 4 36 9 50 11 14 3 70 14 125 25 120 24 148 29
197 37 53 9 87 46 81 87 -11 72 -42 76 -243 32 -41 -9 -86 -18 -100 -20 -14
-3 -56 -11 -93 -20 -37 -8 -80 -17 -95 -20 -15 -3 -40 -7 -57 -10 -16 -3 -46
-10 -65 -15 -19 -5 -50 -12 -69 -15 -19 -3 -38 -8 -43 -11 -4 -3 -74 61 -154
143 -80 81 -208 212 -285 289 -76 78 -139 144 -139 147 0 4 19 19 43 34 23 16
47 32 52 36 24 19 247 167 251 167 3 0 10 5 17 11 19 16 167 119 172 119 2 0
33 20 69 45 l65 46 75 -35 c41 -19 77 -31 80 -28 3 3 6 -1 6 -8 0 -7 2 -11 6
-8 3 3 79 -27 170 -68 90 -40 168 -74 172 -75 13 -3 47 -17 104 -42 56 -25 87
-26 118 -3 30 22 30 83 0 106 -12 9 -106 52 -209 95 -198 83 -255 108 -311
133 -19 9 -38 16 -42 17 -29 1 9 32 204 164 123 82 228 155 235 161 7 5 17 10
22 10 19 0 51 53 51 86 0 23 -7 38 -22 48 -36 26 -74 19 -139 -24 -33 -22 -64
-40 -67 -40 -4 0 -19 -11 -34 -25 -15 -14 -30 -25 -33 -25 -3 0 -62 -38 -131
-85 -70 -47 -130 -85 -135 -85 -5 0 -9 -4 -9 -10 0 -5 -6 -10 -13 -10 -8 0
-22 -9 -32 -20 -10 -11 -23 -20 -29 -20 -6 0 -22 -9 -35 -19 -24 -18 -25 -18
-70 5 -50 25 -308 134 -317 134 -3 0 -33 13 -67 29 -34 16 -98 44 -142 62 -44
18 -84 37 -89 41 -6 4 -17 8 -25 8 -9 0 -24 7 -34 14 -18 14 -18 15 0 43 10
15 21 33 26 38 28 36 167 248 167 256 0 5 3 9 8 9 4 0 27 32 51 70 24 39 48
70 53 70 4 0 8 4 8 10 0 10 95 155 116 177 9 10 98 12 377 9 l365 -3 26 24
c32 30 33 64 3 99 -23 26 -26 27 -158 30 -74 2 -138 4 -144 4 -5 0 -44 0 -86
-1 -42 -1 -81 1 -87 5 -7 4 -12 2 -12 -4 0 -6 -5 -8 -10 -5 -6 4 -42 7 -80 7
-39 0 -72 4 -75 7 -2 4 7 20 21 36 13 15 24 32 24 37 0 4 7 16 16 26 9 9 76
109 150 222 146 221 152 239 102 280 -33 28 -70 25 -99 -7 -23 -27 -199 -287
-208 -307 -2 -6 -12 -19 -23 -30 -10 -11 -18 -26 -18 -33 0 -7 -4 -13 -8 -13
-5 0 -39 -49 -78 -109 l-69 -108 -260 4 c-143 3 -329 6 -413 7 l-153 1 6 30
c3 17 8 40 11 53 6 34 12 65 18 92 10 45 16 74 21 110 4 19 10 54 16 78 5 23
12 59 15 78 3 20 8 46 10 58 7 30 13 62 19 94 2 15 7 38 10 52 2 14 7 37 10
53 20 106 19 105 101 133 38 14 83 31 99 38 17 8 73 30 125 49 52 20 116 45
143 56 26 11 47 18 47 14 0 -3 6 -1 13 4 6 5 41 20 77 33 112 41 136 68 110
130 -21 50 -52 52 -160 9 -52 -21 -101 -38 -107 -39 -7 0 -13 -5 -13 -10 0 -6
-3 -9 -7 -8 -11 3 -86 -23 -100 -35 -7 -5 -13 -6 -13 -2 0 4 -6 3 -12 -2 -7
-5 -35 -17 -63 -27 -54 -19 -71 -26 -127 -50 -20 -9 -41 -16 -48 -16 -13 0
-10 19 25 180 3 14 7 36 10 50 2 14 9 48 15 75 6 28 12 60 14 72 2 12 7 34 10
50 12 56 22 109 31 164 7 44 -16 76 -62 85 -47 9 -76 -25 -92 -106 -20 -101
-20 -102 -27 -144 -3 -22 -7 -43 -10 -47 -2 -3 -6 -24 -8 -45 -3 -21 -10 -54
-15 -72 -5 -18 -10 -35 -10 -37 -1 -3 -1 -6 -2 -7 0 -2 -2 -12 -3 -23 -2 -19
-10 -62 -21 -115 -3 -14 -8 -38 -11 -55 -18 -103 -7 -92 -144 -146 -69 -28
-133 -51 -142 -52 -10 -1 -18 -4 -18 -8 0 -4 -12 -10 -27 -14 -15 -3 -46 -15
-70 -26 -23 -10 -48 -19 -55 -19 -8 0 -18 -4 -23 -9 -6 -5 -28 -14 -50 -21
-22 -7 -56 -20 -75 -28 -19 -9 -37 -16 -40 -17 -5 -2 -19 -7 -93 -37 -23 -9
-31 -8 -37 2 -7 11 -36 141 -46 205 -2 11 -5 31 -8 45 -8 36 -57 280 -63 310
-2 13 -11 56 -19 95 -29 133 -31 122 28 177 390 363 478 451 478 474 0 26 -33
70 -58 76 -35 10 -70 -17 -238 -177 -92 -88 -191 -183 -220 -211 l-53 -51 -10
31 c-6 17 -12 48 -15 68 -3 21 -11 59 -17 85 -6 27 -13 59 -15 73 -3 14 -16
81 -30 150 -14 69 -28 139 -30 155 -3 17 -9 39 -15 50 -28 57 -127 43 -137
-19 -3 -14 15 -115 32 -191 2 -5 6 -28 10 -50 4 -22 12 -53 16 -70 5 -16 11
-43 13 -60 3 -16 13 -64 23 -105 10 -41 17 -79 16 -84 -2 -4 2 -22 7 -40 5
-17 12 -45 14 -63 3 -17 8 -36 11 -41 3 -5 -65 -77 -152 -160 -86 -83 -218
-209 -292 -281 -74 -72 -138 -131 -141 -131 -4 0 -32 38 -63 85 -57 85 -198
291 -213 310 -4 6 -26 37 -48 70 -22 33 -60 89 -86 125 -25 36 -45 72 -44 80
2 8 15 42 30 75 14 33 32 74 40 90 7 17 25 56 39 88 14 31 38 85 52 120 14 34
31 68 36 75 6 6 7 12 4 12 -4 0 0 12 8 28 8 15 29 60 46 100 28 66 30 77 19
103 -24 59 -89 78 -126 37z m-133 -1038 c0 -5 4 -10 8 -12 4 -1 21 -23 38 -48
17 -25 55 -81 85 -125 30 -44 88 -129 129 -190 115 -173 141 -193 198 -162 12
7 102 89 199 182 96 94 226 218 287 277 119 114 118 114 129 38 3 -19 7 -42
10 -50 3 -8 8 -31 11 -50 3 -19 12 -66 21 -105 9 -38 18 -83 20 -99 2 -15 7
-35 9 -45 3 -9 8 -32 11 -51 3 -19 13 -69 21 -110 9 -41 18 -84 20 -95 13 -66
16 -83 26 -113 11 -37 50 -61 88 -55 20 3 193 68 275 102 11 5 39 16 63 25 23
9 61 23 85 32 23 9 51 20 62 25 58 24 234 92 258 99 26 8 27 7 22 -18 -3 -15
-8 -36 -10 -47 -2 -11 -6 -33 -10 -50 -6 -31 -22 -114 -40 -212 -3 -16 -8 -39
-10 -53 -3 -14 -8 -36 -10 -50 -3 -14 -7 -36 -10 -50 -3 -14 -8 -41 -11 -60
-3 -19 -7 -43 -10 -52 -3 -9 -7 -25 -9 -36 -2 -11 -7 -37 -11 -58 -4 -22 -8
-63 -8 -93 -1 -47 2 -56 25 -73 25 -19 47 -20 430 -25 222 -2 405 -5 406 -7 2
-2 -42 -70 -97 -151 -55 -81 -100 -151 -100 -156 0 -6 -7 -12 -15 -15 -8 -4
-15 -10 -15 -15 0 -11 -142 -223 -152 -227 -5 -2 -8 -8 -8 -13 0 -5 -16 -32
-35 -59 -24 -34 -34 -58 -31 -74 5 -26 27 -65 38 -67 5 -1 11 -2 16 -3 4 -1
33 -14 66 -29 32 -15 60 -27 62 -27 2 0 27 -11 56 -24 29 -13 114 -50 188 -81
74 -32 153 -66 175 -76 22 -10 71 -32 109 -48 38 -17 67 -33 65 -35 -9 -9
-160 -106 -165 -106 -3 0 -14 -8 -25 -18 -10 -11 -32 -25 -47 -33 -15 -8 -33
-20 -40 -27 -8 -7 -28 -20 -45 -29 -18 -9 -34 -19 -37 -22 -5 -7 -58 -42 -75
-51 -30 -15 -233 -155 -247 -171 -10 -10 -18 -30 -18 -44 0 -28 3 -31 384
-420 130 -132 192 -201 184 -206 -7 -4 -29 -10 -48 -13 -19 -3 -46 -8 -60 -11
-14 -3 -47 -9 -75 -15 -27 -5 -61 -12 -75 -15 -14 -3 -38 -8 -55 -11 -16 -3
-48 -9 -70 -14 -22 -5 -55 -12 -74 -15 -19 -3 -37 -7 -40 -9 -3 -2 -31 -7 -61
-11 -30 -4 -58 -9 -62 -11 -4 -3 -20 -7 -35 -9 -78 -10 -180 -41 -170 -51 3
-3 2 -16 -3 -28 -6 -16 -1 -39 15 -80 13 -31 24 -60 25 -64 7 -21 45 -120 83
-212 5 -14 14 -35 18 -47 16 -41 27 -68 42 -103 9 -19 36 -89 62 -155 26 -66
49 -124 52 -129 3 -4 -7 -5 -23 -2 -16 3 -45 8 -64 11 -19 4 -55 11 -80 16
-25 6 -58 12 -75 15 -16 3 -43 7 -60 9 -16 3 -40 7 -52 10 -13 3 -31 7 -42 9
-10 2 -34 7 -52 10 -19 3 -59 10 -89 16 -30 6 -66 13 -80 16 -14 2 -36 7 -50
11 -14 3 -36 7 -50 9 -14 1 -45 5 -68 8 -84 11 -106 -20 -107 -154 -1 -53 -4
-101 -8 -107 -4 -7 -3 -14 3 -18 6 -4 8 -10 5 -14 -2 -5 -7 -134 -10 -287 -3
-153 -7 -280 -10 -282 -4 -5 -308 199 -313 211 -2 4 -10 7 -18 7 -8 0 -14 4
-14 8 0 5 -11 14 -25 20 -14 7 -31 17 -38 22 -22 19 -187 130 -192 130 -3 0
-16 9 -28 20 -57 53 -111 37 -152 -45 -30 -61 -109 -235 -111 -245 0 -3 -11
-27 -24 -55 -13 -27 -24 -54 -26 -60 -1 -5 -25 -62 -54 -125 -28 -63 -61 -136
-73 -163 -16 -38 -23 -45 -33 -35 -6 7 -67 96 -135 198 -67 102 -126 187 -131
188 -4 2 -8 7 -8 12 0 5 -32 55 -71 112 -39 57 -79 115 -88 131 -21 36 -66 49
-105 30 -15 -8 -47 -33 -71 -56 -23 -23 -126 -123 -230 -222 -103 -99 -206
-198 -229 -220 -22 -23 -49 -47 -58 -53 -17 -14 -18 -10 -42 118 -5 24 -31
153 -40 195 -18 85 -46 224 -50 245 -12 70 -38 189 -47 217 -7 23 -19 35 -43
43 -29 9 -46 6 -142 -31 -60 -22 -122 -47 -139 -55 -36 -17 -314 -124 -321
-124 -3 0 -24 -8 -47 -19 -43 -19 -154 -61 -162 -61 -2 0 -2 6 0 13 2 6 6 29
9 49 3 21 11 59 17 85 8 39 56 289 75 393 3 14 11 57 19 95 8 39 17 86 20 105
3 19 8 43 11 52 7 22 -11 55 -37 69 -13 7 -113 13 -263 16 -339 6 -570 11
-579 12 -4 1 43 76 105 168 62 92 115 172 117 177 2 6 15 22 28 35 12 14 23
30 23 34 0 5 13 26 28 46 16 20 32 43 35 51 4 8 32 50 62 94 56 80 66 116 42
148 -16 21 -23 24 -532 243 -16 7 -52 22 -79 34 -27 12 -72 31 -100 42 -28 12
-52 22 -54 24 -4 4 268 185 279 185 5 0 9 4 9 8 0 5 10 14 23 21 29 15 50 28
226 146 162 108 178 126 155 180 -7 17 -130 148 -273 293 -144 145 -261 267
-261 272 0 5 -9 12 -20 15 -46 15 -22 23 175 61 11 2 43 8 70 14 28 6 61 12
75 15 14 3 50 10 80 16 30 7 64 13 75 15 19 3 84 16 131 27 12 3 39 8 60 11
22 4 65 14 96 23 52 14 58 18 64 48 3 20 -1 46 -11 71 -9 21 -18 44 -19 49 -4
12 -11 32 -47 119 -16 37 -29 74 -29 82 0 8 -5 14 -12 14 -6 0 -9 3 -6 6 4 3
-2 24 -12 47 -17 41 -32 77 -35 87 -1 3 -7 19 -14 35 -62 154 -111 283 -111
291 0 3 8 3 18 -1 9 -3 31 -8 47 -10 17 -2 64 -11 105 -20 41 -9 91 -18 110
-21 19 -3 50 -9 69 -14 19 -5 38 -7 43 -4 4 3 8 0 8 -6 0 -6 3 -9 8 -6 4 2 30
0 57 -5 28 -5 64 -12 80 -15 17 -2 39 -8 50 -11 11 -4 34 -7 50 -9 17 -1 30
-3 30 -4 0 -4 45 -11 105 -16 71 -7 86 0 96 47 4 20 15 460 18 732 0 53 4 76
12 73 14 -5 614 -400 632 -416 7 -6 27 -17 44 -24 55 -23 82 -6 123 80 19 41
35 77 35 79 0 5 58 135 70 157 6 10 10 25 10 33 0 8 5 15 11 15 5 0 8 4 4 9
-3 5 -1 12 5 16 5 3 10 15 10 26 0 10 4 19 9 19 8 0 23 41 20 56 0 4 3 10 8
13 4 3 30 58 57 121 27 63 54 120 59 127 6 8 22 -8 53 -54 24 -36 44 -69 44
-73z"/>
<path d="M10560 16562 c0 -4 -17 -7 -38 -8 -35 0 -85 -6 -162 -20 -139 -23
-348 -95 -470 -162 -36 -20 -75 -40 -87 -46 -13 -6 -23 -14 -23 -18 0 -5 -6
-8 -13 -8 -8 0 -22 -9 -32 -20 -10 -11 -22 -20 -27 -20 -5 0 -15 -6 -22 -12
-7 -7 -25 -22 -41 -33 -68 -49 -189 -165 -251 -243 -26 -31 -50 -59 -53 -62
-9 -7 -97 -141 -111 -170 -7 -14 -16 -27 -19 -30 -15 -12 -124 -270 -136 -320
-1 -8 -8 -33 -14 -55 -5 -22 -13 -56 -16 -75 -3 -19 -10 -53 -15 -74 -5 -22
-7 -43 -4 -47 2 -4 0 -10 -4 -13 -10 -6 -8 -374 2 -426 4 -19 9 -44 11 -55 19
-111 63 -258 108 -355 16 -36 33 -74 38 -85 70 -164 293 -435 460 -558 35 -27
71 -54 79 -60 56 -46 279 -162 360 -187 25 -7 50 -17 55 -20 6 -4 35 -13 65
-21 66 -16 59 -14 90 -22 132 -35 364 -50 525 -34 109 11 143 17 245 44 52 13
102 26 110 28 36 8 191 75 264 114 78 41 227 138 263 169 10 10 43 38 74 64
l56 48 0 -98 c1 -119 5 -142 38 -197 45 -77 120 -115 218 -111 92 5 157 46
205 130 16 29 17 119 19 1427 3 1366 3 1396 -17 1436 -57 120 -206 174 -325
118 -38 -19 -105 -82 -105 -101 0 -7 -4 -14 -9 -16 -15 -5 -22 -55 -23 -165
-1 -95 -3 -101 -19 -92 -10 5 -24 17 -31 27 -7 10 -44 43 -83 73 -38 29 -76
59 -83 66 -7 7 -20 13 -28 13 -8 0 -14 3 -14 8 0 6 -46 36 -68 44 -4 1 -31 17
-61 35 -104 63 -349 147 -486 169 -27 4 -57 9 -65 11 -48 10 -270 20 -270 11
0 -4 -13 -3 -30 2 -16 5 -30 6 -30 2z m210 -485 c36 -3 88 -11 115 -17 28 -7
60 -14 73 -16 33 -6 111 -33 152 -51 68 -31 155 -74 160 -81 3 -4 18 -14 34
-22 61 -32 228 -189 291 -274 66 -90 162 -280 181 -355 2 -9 8 -34 14 -56 17
-66 20 -78 27 -135 13 -103 7 -280 -12 -369 -21 -100 -109 -331 -134 -351 -3
-3 -23 -31 -44 -63 -127 -194 -331 -354 -563 -441 -39 -15 -81 -29 -92 -31
-12 -3 -32 -8 -44 -11 -113 -27 -311 -37 -418 -20 -19 3 -48 7 -65 10 -151 24
-368 120 -506 226 -60 46 -188 181 -236 249 -49 70 -115 195 -138 261 -1 3 -4
12 -8 20 -8 21 -45 168 -52 210 -19 106 -6 368 19 409 6 9 5 12 0 8 -15 -9 39
150 80 237 111 238 297 427 535 547 120 60 273 104 394 114 21 2 40 5 42 7 4
4 114 1 195 -5z"/>
<path d="M18030 16560 c0 -3 -35 -5 -78 -6 -42 0 -93 -3 -112 -6 -19 -3 -55
-9 -80 -13 -25 -4 -76 -16 -115 -28 -38 -11 -72 -21 -75 -22 -90 -20 -356
-162 -418 -222 -24 -23 -37 -14 -39 27 -5 84 -70 169 -153 202 -45 17 -115 16
-167 -4 -63 -23 -108 -65 -137 -127 l-22 -48 1 -1384 1 -1384 21 -45 c49 -104
166 -161 273 -133 114 29 183 107 184 209 1 30 5 54 9 54 5 0 5 5 1 12 -10 16
-11 118 -1 118 4 0 5 6 1 12 -11 17 -11 288 -1 288 5 0 5 5 1 12 -9 14 -12
148 -4 148 3 0 6 9 6 20 0 11 -3 20 -6 20 -3 0 -5 32 -5 70 0 39 4 70 8 70 5
0 5 6 1 12 -11 17 -11 288 -1 288 5 0 5 5 1 12 -9 14 -12 148 -4 148 3 0 6 9
6 20 0 11 -3 20 -6 20 -3 0 -5 45 -5 100 0 55 4 100 9 100 5 0 3 6 -3 13 -6 8
-9 16 -7 18 2 2 7 38 10 79 29 316 149 548 361 697 180 126 464 192 685 158
111 -17 182 -9 234 27 107 75 143 209 83 311 -25 42 -80 95 -102 98 -5 0 -21
7 -35 14 -55 29 -74 34 -175 41 -139 9 -145 9 -145 4z"/>
<path d="M21797 16563 c-1 0 -38 -4 -82 -7 -100 -8 -130 -13 -230 -38 -128
-31 -292 -92 -345 -128 -14 -10 -35 -21 -47 -24 -13 -4 -23 -12 -23 -17 0 -5
-5 -9 -11 -9 -6 0 -52 -31 -102 -69 -91 -69 -169 -144 -239 -231 -48 -60 -138
-206 -138 -224 0 -8 -4 -16 -8 -18 -24 -10 -104 -255 -127 -393 -25 -148 -28
-227 -28 -1030 0 -737 4 -875 24 -875 5 0 9 -7 9 -15 0 -19 61 -80 103 -102
45 -25 170 -24 216 1 48 26 90 72 112 124 19 43 20 82 23 891 4 722 7 926 16
926 1 0 3 8 5 19 12 65 32 130 57 191 16 39 32 78 35 88 3 9 9 17 14 17 5 0 9
5 9 11 0 16 59 98 110 153 105 113 298 217 450 242 14 3 49 9 78 15 68 14 215
17 265 7 21 -5 59 -10 84 -13 51 -5 204 -55 267 -87 126 -64 232 -160 311
-283 47 -73 93 -166 100 -205 2 -8 4 -16 5 -17 2 -2 4 -7 5 -13 1 -5 3 -11 5
-12 1 -2 4 -12 6 -23 3 -11 6 -24 8 -30 1 -5 6 -26 9 -45 4 -19 10 -48 14 -65
3 -16 8 -327 10 -690 5 -1051 5 -1054 26 -1097 38 -75 123 -132 205 -137 111
-7 228 81 249 188 7 35 6 1639 -1 1716 -25 274 -107 514 -247 722 -56 83 -243
275 -325 333 -27 19 -50 32 -50 30 -1 -3 -10 2 -20 12 -35 30 -198 106 -299
138 -148 47 -254 64 -468 73 -21 1 -39 1 -40 0z"/>
<path d="M28376 16563 c-1 -1 -38 -5 -81 -8 -44 -2 -91 -7 -105 -10 -14 -2
-39 -7 -55 -10 -138 -22 -365 -101 -485 -169 -36 -21 -73 -40 -82 -43 -10 -3
-18 -9 -18 -14 0 -5 -4 -9 -10 -9 -9 0 -107 -65 -120 -80 -3 -3 -23 -20 -45
-37 -41 -32 -122 -110 -186 -179 -41 -44 -152 -191 -162 -214 -4 -8 -18 -33
-32 -55 -26 -42 -87 -168 -100 -205 -1 -3 -6 -16 -12 -30 -11 -26 -52 -160
-58 -189 -2 -9 -8 -36 -14 -61 -9 -42 -17 -97 -26 -180 -10 -87 -3 -311 11
-380 2 -14 9 -47 14 -75 5 -27 14 -68 20 -90 6 -22 13 -49 15 -59 21 -92 162
-387 207 -436 10 -10 18 -24 18 -30 0 -5 5 -10 10 -10 6 0 10 -6 10 -14 0 -8
3 -16 8 -18 4 -2 25 -25 47 -53 48 -60 212 -225 224 -225 5 0 11 -3 13 -8 5
-11 83 -71 150 -114 32 -21 112 -63 176 -94 64 -31 125 -60 134 -65 10 -5 26
-9 36 -9 10 0 22 -4 27 -9 10 -8 163 -49 220 -57 135 -21 186 -26 300 -27 92
-1 218 8 255 18 8 2 35 7 60 10 24 4 48 9 53 12 4 3 18 6 30 7 138 16 432 156
610 290 91 69 322 296 301 296 -3 0 2 7 10 16 23 22 138 202 160 249 10 22 23
48 28 59 13 26 79 197 83 216 2 8 10 42 18 75 8 33 19 80 23 105 4 25 9 56 11
70 3 14 6 97 8 185 2 143 -2 191 -29 360 -2 11 -6 27 -9 35 -7 19 -20 71 -23
90 -2 19 -44 126 -78 203 -14 31 -25 60 -26 62 -2 17 -105 176 -167 258 -97
128 -315 337 -353 337 -5 0 -10 4 -10 8 0 17 -170 113 -310 175 -51 23 -210
77 -210 72 0 -2 -11 0 -25 5 -28 10 -47 15 -141 30 -92 15 -310 31 -318 23z
m184 -488 c58 -7 181 -30 188 -35 1 -2 5 -3 10 -4 54 -13 195 -73 257 -110
123 -73 277 -209 340 -300 11 -16 31 -41 43 -57 13 -16 20 -29 16 -29 -4 0 0
-8 8 -17 28 -32 107 -198 119 -251 2 -8 4 -15 18 -62 30 -97 44 -316 27 -421
-3 -19 -8 -52 -12 -74 -3 -22 -10 -48 -15 -57 -5 -9 -9 -23 -9 -32 0 -8 -5
-27 -12 -43 -6 -15 -13 -36 -14 -46 -2 -9 -26 -62 -53 -116 -54 -107 -123
-203 -210 -294 -59 -62 -190 -167 -208 -167 -6 0 -16 -6 -22 -14 -10 -11 -112
-68 -131 -72 -3 0 -18 -7 -35 -14 -54 -23 -174 -58 -179 -52 -3 3 -6 1 -6 -4
0 -5 -8 -10 -17 -10 -10 -1 -43 -4 -73 -9 -78 -11 -233 -13 -299 -3 -93 14
-104 16 -166 33 -76 20 -154 50 -230 89 -68 34 -148 86 -153 98 -2 4 -8 8 -13
8 -17 0 -143 117 -213 199 -34 40 -114 168 -141 226 -35 75 -65 158 -60 166 3
4 1 10 -4 13 -5 3 -12 23 -16 43 -5 21 -10 45 -12 53 -17 65 -22 263 -10 360
16 130 50 247 108 363 40 80 96 169 111 175 4 2 8 9 8 16 0 22 175 190 253
244 147 102 341 182 477 198 19 2 58 7 85 10 28 3 51 6 52 7 3 4 149 -3 193
-8z"/>
<path d="M13195 16475 c-59 -26 -104 -73 -128 -134 -16 -40 -17 -104 -14 -915
2 -479 7 -887 11 -906 3 -19 11 -60 18 -90 6 -30 11 -59 10 -63 -1 -4 2 -16 7
-25 5 -9 11 -30 14 -47 7 -47 74 -213 117 -292 74 -134 108 -180 225 -299 71
-72 265 -224 265 -208 0 4 6 2 13 -3 44 -36 210 -109 299 -132 4 -1 22 -7 40
-12 18 -6 44 -12 58 -15 14 -2 39 -7 55 -11 51 -11 58 -12 130 -20 117 -12
326 -6 415 12 47 9 95 19 100 20 149 38 312 106 431 180 124 78 272 217 363
345 49 68 146 245 154 280 2 8 7 17 10 20 4 3 8 10 9 15 0 6 13 48 27 95 14
47 27 96 30 110 2 14 7 36 10 50 26 117 29 209 29 1060 0 815 0 825 -20 865
-96 186 -348 189 -448 5 -18 -33 -19 -71 -21 -825 -2 -743 -6 -907 -19 -980
-13 -72 -48 -198 -61 -223 -7 -15 -14 -34 -14 -43 0 -9 -7 -22 -15 -29 -8 -7
-15 -18 -15 -25 0 -16 -64 -110 -119 -174 -178 -206 -529 -321 -835 -274 -50
8 -95 16 -101 17 -72 19 -105 30 -132 42 -94 41 -112 50 -163 82 -70 44 -186
161 -233 234 -53 83 -106 205 -121 280 -3 13 -8 34 -11 48 -3 14 -7 36 -9 50
-3 14 -8 45 -12 70 -4 25 -8 416 -9 870 -1 679 -4 832 -15 863 -8 20 -18 37
-22 37 -4 0 -8 5 -8 10 0 16 -30 44 -78 74 -61 38 -147 42 -217 11z"/>
<path d="M19390 16490 c-73 -21 -127 -68 -159 -140 -20 -45 -21 -57 -21 -1420
0 -1046 3 -1385 12 -1415 19 -62 101 -139 166 -154 120 -29 235 25 283 134
l23 50 0 1380 c0 1370 -1 1380 -21 1425 -40 89 -110 138 -202 144 -31 2 -67 0
-81 -4z"/>
<path d="M24174 16490 c-67 -15 -124 -63 -159 -135 -19 -39 -20 -68 -21 -1420
-1 -1143 2 -1387 13 -1421 69 -206 363 -215 451 -14 14 30 16 116 17 617 1
320 3 584 6 587 2 2 25 -14 51 -37 50 -44 100 -87 158 -134 19 -15 45 -37 57
-48 12 -11 38 -33 58 -50 20 -16 42 -35 48 -40 7 -6 71 -60 142 -120 72 -60
132 -112 135 -115 3 -3 30 -25 60 -50 68 -56 99 -82 114 -95 6 -6 38 -33 71
-60 33 -28 65 -54 71 -60 6 -5 31 -26 55 -47 24 -20 54 -44 65 -55 12 -10 43
-36 70 -58 26 -22 52 -44 58 -50 6 -5 51 -44 101 -85 49 -41 100 -84 113 -95
14 -11 38 -33 56 -48 51 -46 109 -82 146 -93 147 -43 312 79 311 230 0 97 -21
138 -109 212 -31 27 -62 53 -68 59 -6 5 -28 24 -49 40 -21 17 -46 38 -56 48
-11 9 -23 17 -29 17 -5 0 -10 4 -10 8 0 4 -21 24 -47 45 -27 20 -61 48 -78 62
-40 35 -60 51 -125 105 -30 25 -57 47 -60 50 -5 5 -104 87 -128 105 -7 6 -21
17 -30 26 -9 8 -71 60 -137 114 -66 55 -125 104 -132 110 -6 5 -28 24 -49 40
-20 17 -44 37 -53 45 -9 8 -39 33 -66 55 -28 22 -55 44 -61 50 -7 5 -31 26
-55 45 -24 19 -60 49 -81 67 l-38 31 53 44 c28 23 57 47 63 53 6 5 32 28 58
50 27 22 56 47 66 55 10 8 33 27 52 42 19 15 46 37 60 50 25 23 42 37 128 108
24 19 51 43 61 53 11 9 21 17 24 17 3 0 13 8 23 18 17 15 89 77 149 127 14 11
35 29 48 40 13 11 53 45 91 75 37 30 75 62 84 70 9 8 38 33 65 54 28 22 59 49
71 60 11 12 33 30 48 41 15 11 38 29 50 40 32 28 93 80 140 118 96 78 130 133
129 214 -2 131 -104 234 -238 238 -96 4 -118 -8 -285 -150 -71 -59 -444 -374
-539 -453 -23 -21 -48 -42 -55 -47 -6 -6 -38 -33 -71 -60 -33 -28 -62 -52 -65
-55 -3 -3 -61 -53 -130 -110 -69 -57 -127 -107 -130 -110 -3 -3 -30 -25 -60
-50 -30 -25 -57 -47 -60 -50 -3 -3 -48 -41 -100 -85 -52 -44 -97 -82 -100 -85
-15 -16 -110 -91 -111 -88 0 1 -2 264 -3 583 -2 634 -1 614 -62 682 -57 62
-156 93 -240 73z"/>
</g>
</svg>
