<?xml version="1.0" encoding="utf-8"?>
<!-- Generator: Adobe Illustrator 24.1.3, SVG Export Plug-In . SVG Version: 6.00 Build 0)  -->
<svg version="1.1" id="Слой_1" xmlns="http://www.w3.org/2000/svg" xmlns:xlink="http://www.w3.org/1999/xlink" x="0px" y="0px"
	 width="500px" height="500px" viewBox="0 0 500 500" enable-background="new 0 0 500 500" xml:space="preserve">
<path fill-rule="evenodd" clip-rule="evenodd" fill="#FFFFFF" d="M183.3,0c-27.6,0-50,22.4-50,50c0,27.6,22.4,50,50,50h50V50
	C233.4,22.4,211,0,183.3,0C183.3,0,183.3,0,183.3,0L183.3,0z M183.3,133.3H50c-27.6,0-50,22.4-50,50c0,27.6,22.3,50,50,50h133.3
	c27.6,0,50-22.4,50-50C233.4,155.7,211,133.4,183.3,133.3z"/>
<path fill-rule="evenodd" clip-rule="evenodd" fill="#FFFFFF" d="M500,183.3c0-27.6-22.4-50-50-50c-27.6,0-50,22.4-50,50v50h50
	C477.6,233.3,500,210.9,500,183.3z M366.7,183.3V50c0-27.6-22.4-49.9-50-50c-27.6,0-50,22.4-50,50v133.3c0,27.6,22.3,50,50,50
	C344.3,233.3,366.7,210.9,366.7,183.3z"/>
<path fill-rule="evenodd" clip-rule="evenodd" fill="#FFFFFF" d="M499.9,183.3c0-27.6-22.4-50-50-50c-27.6,0-50,22.4-50,50v50h50
	C477.6,233.3,500,210.9,499.9,183.3z M366.6,183.3V50c0-27.6-22.3-49.9-50-50c-27.6,0-50,22.4-50,50v133.3c0,27.6,22.3,50,50,50
	C344.2,233.3,366.6,210.9,366.6,183.3z"/>
<path fill-rule="evenodd" clip-rule="evenodd" fill="#FFFFFF" d="M316.7,500c27.6,0,50-22.4,50-50c0-27.6-22.4-50-50-50h-50v50
	C266.6,477.6,289,500,316.7,500z M316.7,366.6H450c27.6,0,50-22.4,50-50c0-27.6-22.4-50-50-50H316.7c-27.6,0-50,22.4-50,50
	C266.7,344.2,289,366.6,316.7,366.6z"/>
<path fill-rule="evenodd" clip-rule="evenodd" fill="#FFFFFF" d="M0,316.7c0,27.6,22.4,50,50,50c27.6,0,50-22.4,50-50v-50H50
	C22.4,266.7,0,289.1,0,316.7z M133.3,316.7V450c0,27.6,22.3,50,50,50c27.6,0,50-22.4,50-50V316.7c0-27.6-22.3-50-50-50
	C155.7,266.7,133.3,289.1,133.3,316.7C133.3,316.7,133.3,316.7,133.3,316.7z"/>
</svg>
