<?xml version="1.0" encoding="utf-8"?>
<!-- Generator: Adobe Illustrator 24.1.3, SVG Export Plug-In . SVG Version: 6.00 Build 0)  -->
<svg version="1.1" id="Слой_1" xmlns="http://www.w3.org/2000/svg" xmlns:xlink="http://www.w3.org/1999/xlink" x="0px" y="0px"
	 width="3221.3px" height="500px" viewBox="0 0 3221.3 500" enable-background="new 0 0 3221.3 500" xml:space="preserve">
<path fill="#FFFFFF" d="M1014.7,9.7c-20.9,0-36.9,17.1-36.9,36.6v230.5c-2.5,100-61.5,147.6-142.8,150c-81.2-2.4-140.3-50-142.8-150
	V46.3c0-20.7-17.2-36.6-36.9-36.6c-20.9,0-36.9,17.1-36.9,36.6v230.5c0,67.1,23.4,124.4,64,163.4c40.6,39,94.8,59.8,153.9,59.8
	c57.9,0,113.2-20.7,152.6-59.8c40.6-39,64-96.3,64-163.4V46.3C1052.9,25.6,1035.6,9.7,1014.7,9.7z M1596.9,9.7
	c-20.9,0-36.9,17.1-36.9,36.6v408.5c0,20.7,17.2,36.6,36.9,36.6c20.9,0,36.9-17.1,36.9-36.6V46.3C1633.8,25.6,1616.6,9.7,1596.9,9.7
	z M1962.5,0c-57.9,0-113.2,20.7-153.9,59.8c-40.6,39-64,96.3-64,163.4v230.5c0,20.7,17.2,36.6,36.9,36.6c20.9,0,36.9-17.1,36.9-36.6
	V224.4c1.2-100,60.3-147.6,142.8-150c81.2,2.4,140.3,50,142.8,150v230.5c0,20.7,17.2,36.6,36.9,36.6c20.9,0,36.9-17.1,36.9-36.6
	V223.2c0-67.1-23.4-124.4-64-163.4C2075.7,20.7,2020.4,0,1962.5,0z M1417.2,2.4c-7.4-1.2-23.4-2.4-34.5-2.4
	c-52.9,0-103.4,17.1-142.8,50v-4.9c0-20.7-17.2-36.6-36.9-36.6c-20.9,0-36.9,17.1-36.9,36.6v408.5c0,17.1,12.3,31.7,28.3,35.4
	c2.5,1.2,6.2,1.2,8.6,1.2c1.2,0,2.5,0,3.7,0c13.5-1.2,25.8-9.8,30.8-22c2.5-4.9,2.5-9.8,2.5-14.6V224.4
	c1.2-100,60.3-147.6,142.8-150c8.6,0,16,1.2,24.6,2.4c1.2,0,3.7,0,4.9,1.2c1.2,0,2.5,0,3.7,0c20.9,0,38.2-17.1,38.2-37.8
	C1452.9,12.2,1424.6,4.9,1417.2,2.4z M2651.8,20.7c-14.8-14.6-38.2-14.6-52.9-1.2L2365,217.1v1.2v-172c0-20.7-17.2-36.6-36.9-36.6
	c-20.9,0-36.9,17.1-36.9,36.6v408.5c0,20.7,17.2,36.6,36.9,36.6c20.9,0,36.9-17.1,36.9-36.6v-172l233.9,197.6
	c14.8,14.6,38.2,13.4,52.9-1.2c14.8-14.6,14.8-37.8,0-52.4L2438.9,250l212.9-178C2666.6,58.5,2666.6,35.4,2651.8,20.7z M2969.4,0
	c-139.1,0-252.3,112.2-252.3,250s113.2,250,252.3,250c139.1,0,252.3-112.2,252.3-250S3108.5,0,2969.4,0z M2969.4,426.8
	c-98.5,0-178.5-79.3-178.5-176.8s80-176.8,178.5-176.8s177.3,79.3,178.5,176.8C3146.6,347.6,3066.6,426.8,2969.4,426.8z M468.2,9.7
	c-20.9,0-36.9,17.1-36.9,36.6v26.8C385.7,28,322.9,0,252.8,0C113.7,0,0.4,112.2,0.4,250s113.2,250,252.3,250
	c68.9,0,131.7-28,178.5-73.2v26.8c0,20.7,17.2,36.6,36.9,36.6c20.9,0,36.9-17.1,36.9-36.6V46.3C505.1,25.6,489.1,9.7,468.2,9.7z
	 M252.8,426.8c-98.5,0-178.5-79.3-178.5-176.8s80-176.8,178.5-176.8c98.5,0,177.3,79.3,178.5,176.8
	C431.2,347.6,351.2,426.8,252.8,426.8z"/>
</svg>
