<svg width="767" height="771" viewBox="0 0 767 771" xmlns="http://www.w3.org/2000/svg" fill="none"><path d="M765.289 379.894c0 206.646-167.573 374.263-374.33 374.263-206.684 0-374.331-167.543-374.331-374.263 0-206.721 167.573-374.263 374.331-374.263 206.757 0 374.33 167.542 374.33 374.263z" fill="url(#a)"/><path d="M640.685 379.894c0 137.863-111.765 249.682-249.727 249.682-137.888 0-249.727-111.745-249.727-249.682 0-137.863 111.765-249.608 249.727-249.608 137.888-.074 249.727 111.745 249.727 249.608z" fill="url(#b)" stroke="url(#c)" stroke-width="1.021" stroke-miterlimit="10"/><path d="M431.182 379.893c0 22.186-18.034 40.217-40.224 40.217-22.189 0-40.223-18.031-40.223-40.217 0-22.185 18.034-40.216 40.223-40.216 22.19 0 40.224 18.031 40.224 40.216z" fill="url(#d)"/><path d="M372.257 362.011l3.711 3.71c-3.785 3.859-6.012 9.127-6.012 14.544 0 8.607 5.27 16.027 12.691 19.217 2.3.965 4.824-.668 4.824-3.19v-.149c0-1.41-.891-2.597-2.152-3.19-4.899-2.152-8.312-7.049-8.312-12.688 0-3.636 1.41-7.049 3.933-9.646l3.488 3.487c1.187 1.187 3.117.371 3.117-1.336v-13.875h-13.878c-1.781 0-2.597 2.003-1.41 3.116zm33.767 32.055c3.785-3.859 5.937-9.127 5.937-14.543 0-8.608-5.195-16.028-12.69-19.218-2.301-.965-4.824.668-4.824 3.19v.149c0 1.41.89 2.597 2.152 3.19 4.898 2.152 8.312 7.049 8.312 12.689 0 3.635-1.41 7.049-3.933 9.646l-3.489-3.488c-1.187-1.187-3.116-.371-3.116 1.262v13.949h13.952c1.632 0 2.449-2.003 1.261-3.116l-3.562-3.71zM271.104 669.05v28.715l8.831-3.859v-22.63l16.624-3.933v33.538l-25.455-3.116 25.455 9.201 13.804-4.23v-38.658l-13.804-4.452-25.455 9.424zM641.666 498.794v28.715l8.831-3.858v-22.631l16.624-3.932v33.538l-25.455-3.117 25.455 9.201 13.803-4.229v-38.658l-13.803-4.452-25.455 9.423zM214.246 89.736v28.715l8.831-3.858v-22.631l16.624-3.933v33.538l-25.455-3.116 25.455 9.201 13.803-4.23v-38.657l-13.803-4.452-25.455 9.423zM67.538 340.345v-37.1l-27.162 4.675v36.729l27.162 4.674v-8.978zm-8.906-4.526l-10.316-.965v-19.292l9.87-1.039v3.859l-6.011.445v4.452l5.64-.148v3.858l-5.64-.074v4.6l6.457.371v3.933zM88.837 337.897v-23.299c0-1.336-1.113-2.449-2.449-2.449h-16.327v3.414h.668c.148 0 .297.074.445.148l2.449 2.449c.148.148.148.445 0 .593l-.891.891c-.148.148-.445.148-.594 0l-1.113-1.113h-.965v6.603c1.707 1.484 3.117 2.672 2.672 3.117-.297.297-1.336-.223-2.672-.965v6.678h.445c3.043-2.226 5.492-6.381 6.234-5.639.891.816-4.972 8.533-5.714 8.681h-.965v3.413h16.327c1.336-.074 2.449-1.187 2.449-2.522zm-3.414-3.933v2.374c0 .371-.297.594-.594.594h-6.086c-.148 0-.297-.074-.445-.148l-2.449-2.449c-.148-.148-.148-.445 0-.593l.891-.891c.148-.148.445-.148.594 0l1.113 1.113h4.007v-3.413c-2.226-3.042-6.382-5.491-5.64-6.233.816-.89 8.535 4.972 8.683 5.714l-.074 3.932zm0-15.359v3.71c0 .148-.074.297-.148.445l-2.449 2.449c-.148.148-.445.148-.594 0l-.891-.891c-.148-.148-.148-.445 0-.593l1.113-1.113v-4.007h-3.414c-3.043 2.226-5.492 6.381-6.234 5.713-.891-.816 4.972-8.533 5.714-8.681h6.308c.371 0 .594.297.594.593v2.375zM726.674 374.412v-37.099999999999994l-27.162 4.675v36.729l27.162 4.675v-8.979zm-8.906-4.526l-10.315-.964v-19.292l9.87-1.039v3.858l-6.011.445v4.452l5.64-.148v3.858l-5.64-.074v4.601l6.456.371v3.932zM747.973 371.964v-23.299c0-1.335-1.113-2.448-2.449-2.448h-16.327v3.413h.668c.149 0 .297.074.445.148l2.449 2.449c.149.148.149.445 0 .594l-.89.89c-.148.148-.445.148-.594 0l-1.113-1.113h-.965v6.604c1.707 1.484 3.117 2.671 2.672 3.116-.297.297-1.336-.222-2.672-.964v6.678h.446c3.042-2.226 5.491-6.382 6.233-5.64.891.817-4.972 8.533-5.714 8.682h-.965v3.413h16.327c1.336-.074 2.449-1.187 2.449-2.523zm-3.414-3.932v2.374c0 .371-.297.594-.593.594h-6.086c-.148 0-.297-.075-.445-.149l-2.449-2.448c-.149-.149-.149-.446 0-.594l.89-.89c.149-.149.446-.149.594 0l1.113 1.113h4.008v-3.414c-2.227-3.042-6.382-5.49-5.64-6.232.816-.891 8.534 4.971 8.683 5.713l-.075 3.933zm0-15.36v3.71c0 .149-.074.297-.148.445l-2.449 2.449c-.149.148-.445.148-.594 0l-.89-.89c-.149-.149-.149-.446 0-.594l1.113-1.113v-4.007h-3.414c-3.043 2.226-5.492 6.381-6.234 5.714-.89-.817 4.972-8.533 5.715-8.682h6.308c.371 0 .593.297.593.594v2.374zM102.789 477.021c.371-.223.742-.519.964-.668l12.988-8.755v-.594c0-.89-.742-1.707-1.707-1.707h-16.476v9.646c.965.668 2.375 1.633 3.192 2.078.519.297.593.371 1.039 0zm.964 3.191c-.222.148-.519.371-.816.593-.668.371-.816.223-1.41-.148-.742-.445-2.004-1.262-2.969-1.929v13.059h15.585c1.41 0 2.598-1.188 2.598-2.597v-17.66l-12.988 8.682zm-23.154 3.487c1.187 1.781 3.191 1.632 4.304-.148.742-1.113 1.113-2.82 1.113-4.23 0-.816-.074-1.558-.297-2.226-.371-1.41-1.187-2.3-2.004-2.671-1.484-.668-3.265.297-3.933 3.116-.594 2.078-.297 4.527.816 6.159zm-12.319 14.691l28.349 5.862.074-49.268-28.424 5.49v37.916zm8.386-22.111c1.41-4.526 5.047-6.084 8.089-5.046 1.707.594 3.265 2.078 4.082 4.304.371 1.039.594 2.3.594 3.562 0 2.226-.742 4.897-2.301 6.752-2.375 2.819-6.382 3.116-8.831.222-2.078-2.522-2.672-6.455-1.633-9.794zM667.605 196.583c.371-.222.742-.519.965-.668l12.987-8.755v-.594c0-.89-.742-1.706-1.707-1.706h-16.475v9.646c.965.667 2.375 1.632 3.191 2.077.519.297.594.371 1.039 0zm.965 3.191c-.223.148-.52.371-.817.593-.668.371-.816.223-1.41-.148-.742-.445-2.003-1.261-2.968-1.929v13.059h15.585c1.41 0 2.597-1.187 2.597-2.597v-17.66l-12.987 8.682zm-23.155 3.487c1.188 1.781 3.191 1.633 4.305-.148.742-1.113 1.113-2.82 1.113-4.23 0-.816-.074-1.558-.297-2.226-.371-1.409-1.187-2.3-2.004-2.671-1.484-.668-3.265.297-3.933 3.117-.594 2.077-.297 4.526.816 6.158zm-12.319 14.692l28.349 5.861.075-49.268-28.424 5.491v37.916zm8.386-22.112c1.41-4.526 5.046-6.084 8.089-5.045 1.707.593 3.266 2.077 4.082 4.303.371 1.039.594 2.3.594 3.562 0 2.226-.742 4.897-2.301 6.752-2.375 2.82-6.382 3.116-8.831.223-2.078-2.523-2.672-6.456-1.633-9.795zM392.738 311.852c-1.187-.074-2.226.89-2.301 2.078-.074 1.187.891 2.226 2.079 2.3h.074c1.188 0 2.153-.891 2.227-2.078.074-1.187-.817-2.226-2.079-2.3zM380.642 587.949c-1.187-.074-2.227.89-2.301 2.078-.074 1.187.891 2.226 2.079 2.3h.074c1.187 0 2.152-.891 2.227-2.078.074-1.261-.891-2.226-2.079-2.3zM379.901 604.199c-1.188-.074-2.227.89-2.301 2.077-.075 1.188.89 2.226 2.078 2.301h.074c1.188 0 2.153-.891 2.227-2.078.074-1.261-.891-2.226-2.078-2.3zM378.49 636.698c-1.187-.074-2.227.891-2.301 2.078-.074 1.187.891 2.226 2.079 2.3h.074c1.187 0 2.152-.89 2.227-2.077.074-1.262-.817-2.301-2.079-2.301zM379.232 620.449c-1.187-.075-2.227.89-2.301 2.077-.074 1.187.891 2.226 2.079 2.3h.074c1.188 0 2.152-.89 2.227-2.077.074-1.262-.891-2.3-2.079-2.3zM382.052 555.45c-1.187-.074-2.227.89-2.301 2.077-.074 1.188.891 2.226 2.078 2.301h.075c1.187 0 2.152-.891 2.226-2.078.075-1.187-.89-2.226-2.078-2.3zM382.72 539.2c-1.188-.074-2.227.89-2.301 2.078-.074 1.187.891 2.226 2.078 2.3h.074c1.188 0 2.153-.891 2.227-2.078.074-1.187-.89-2.226-2.078-2.3zM384.13 506.701c-1.187-.075-2.226.89-2.301 2.077-.074 1.187.891 2.226 2.079 2.3h.074c1.188 0 2.153-.89 2.227-2.077.074-1.187-.891-2.226-2.079-2.3zM383.388 522.95c-1.188-.074-2.227.891-2.301 2.078-.074 1.187.89 2.226 2.078 2.3h.074c1.188 0 2.153-.89 2.227-2.078.074-1.187-.816-2.225-2.078-2.3zM381.31 571.7c-1.188-.075-2.227.89-2.301 2.077-.075 1.187.89 2.226 2.078 2.3h.074c1.188 0 2.153-.89 2.227-2.077.074-1.187-.891-2.226-2.078-2.3zM375.002 717.873c-1.188-.075-2.227.89-2.301 2.077-.075 1.187.89 2.226 2.078 2.3h.074c1.188 0 2.153-.89 2.227-2.077.074-1.187-.891-2.226-2.078-2.3zM374.261 734.123c-1.188-.075-2.227.89-2.302 2.077-.074 1.187.891 2.226 2.079 2.3h.074c1.188 0 2.153-.89 2.227-2.077.074-1.187-.817-2.226-2.078-2.3zM373.592 750.372c-1.188-.074-2.227.891-2.301 2.078-.074 1.187.891 2.226 2.078 2.3h.075c1.187 0 2.152-.89 2.226-2.078.075-1.187-.89-2.226-2.078-2.3zM377.822 652.948c-1.188-.074-2.227.89-2.301 2.078-.074 1.187.891 2.226 2.078 2.3h.074c1.188 0 2.153-.891 2.227-2.078.075-1.261-.89-2.3-2.078-2.3zM372.85 766.622c-1.187-.074-2.226.891-2.301 2.078-.074 1.187.891 2.226 2.079 2.3h.074c1.188 0 2.153-.89 2.227-2.078.074-1.261-.817-2.226-2.079-2.3zM375.671 701.623c-1.188-.074-2.227.891-2.301 2.078-.075 1.187.89 2.226 2.078 2.3h.074c1.188 0 2.153-.89 2.227-2.078.074-1.187-.817-2.226-2.078-2.3zM377.081 669.124c-1.188-.075-2.227.89-2.301 2.077-.075 1.187.89 2.226 2.078 2.3h.074c1.188 0 2.153-.89 2.227-2.077.074-1.187-.816-2.226-2.078-2.3zM376.412 685.373c-1.188-.074-2.227.891-2.301 2.078-.074 1.187.891 2.226 2.078 2.3h.075c1.187 0 2.152-.89 2.226-2.077.075-1.188-.89-2.226-2.078-2.301zM400.977 116.93c-1.188-.074-2.227.89-2.301 2.077-.075 1.188.89 2.226 2.078 2.301h.074c1.188 0 2.153-.891 2.227-2.078.074-1.261-.891-2.3-2.078-2.3zM400.309 133.105c-1.188-.074-2.227.891-2.301 2.078-.075 1.187.89 2.226 2.078 2.3h.074c1.188 0 2.153-.89 2.227-2.077.074-1.188-.891-2.226-2.078-2.301zM398.899 165.605c-1.188-.075-2.227.89-2.301 2.077-.074 1.187.891 2.226 2.078 2.3h.074c1.188 0 2.153-.89 2.227-2.077.075-1.187-.89-2.226-2.078-2.3zM402.386 84.43c-1.187-.074-2.226.89-2.301 2.078-.074 1.187.891 2.226 2.079 2.3h.074c1.188 0 2.153-.89 2.227-2.078.074-1.261-.891-2.3-2.079-2.3zM399.567 149.355c-1.188-.074-2.227.89-2.301 2.077-.075 1.188.89 2.226 2.078 2.301h.074c1.188 0 2.153-.891 2.227-2.078.074-1.187-.891-2.226-2.078-2.3zM401.719 100.68c-1.188-.074-2.227.89-2.301 2.077-.075 1.188.89 2.226 2.078 2.301h.074c1.188 0 2.153-.891 2.227-2.078.074-1.261-.891-2.3-2.078-2.3zM384.798 490.451c-1.187-.074-2.227.89-2.301 2.077-.074 1.188.891 2.226 2.079 2.301h.074c1.187 0 2.152-.891 2.227-2.078.074-1.187-.817-2.226-2.079-2.3zM393.927 279.353c-1.188-.075-2.227.89-2.302 2.077-.074 1.187.891 2.226 2.079 2.3h.074c1.188 0 2.153-.89 2.227-2.077.074-1.262-.817-2.3-2.078-2.3zM394.668 263.103c-1.188-.074-2.227.89-2.301 2.077-.074 1.188.891 2.226 2.078 2.301h.075c1.187 0 2.152-.891 2.226-2.078.075-1.261-.89-2.3-2.078-2.3zM393.259 295.602c-1.188-.074-2.227.891-2.301 2.078-.075 1.187.89 2.226 2.078 2.3h.074c1.188 0 2.153-.89 2.227-2.077.074-1.262-.891-2.301-2.078-2.301zM395.337 246.853c-1.188-.074-2.227.891-2.301 2.078-.074 1.187.891 2.226 2.078 2.3h.074c1.188 0 2.153-.89 2.227-2.077.075-1.262-.816-2.301-2.078-2.301zM396.078 230.603c-1.188-.074-2.227.891-2.301 2.078-.074 1.187.891 2.226 2.078 2.3h.075c1.187 0 2.152-.89 2.226-2.077.075-1.262-.89-2.226-2.078-2.301zM397.488 198.104c-1.187-.074-2.226.891-2.301 2.078-.074 1.187.891 2.226 2.079 2.3h.074c1.188 0 2.153-.89 2.227-2.078.074-1.187-.891-2.226-2.079-2.3zM396.746 214.354c-1.187-.074-2.226.89-2.301 2.077-.074 1.188.891 2.226 2.079 2.301h.074c1.187 0 2.152-.891 2.227-2.078.074-1.261-.817-2.226-2.079-2.3zM398.156 181.855c-1.187-.075-2.227.89-2.301 2.077-.074 1.187.891 2.226 2.079 2.3h.074c1.187 0 2.152-.89 2.227-2.077.074-1.187-.817-2.226-2.079-2.3zM447.732 653.394c-.297-1.188.445-2.375 1.706-2.597 1.188-.297 2.375.519 2.598 1.706.297 1.187-.445 2.375-1.707 2.597-.148.074-.371.074-.594.074-.89-.148-1.781-.816-2.003-1.78zm-3.563-15.879c-.297-1.187.52-2.375 1.707-2.597 1.188-.297 2.375.519 2.598 1.707.297 1.187-.446 2.374-1.707 2.596-.149 0-.371.075-.594.075-.89-.149-1.781-.817-2.004-1.781zm-3.488-15.879c-.297-1.187.446-2.374 1.707-2.597 1.188-.297 2.375.52 2.598 1.707.297 1.187-.446 2.374-1.707 2.597-.149.074-.371.074-.594.074-.89-.149-1.781-.816-2.004-1.781zm-3.562-15.879c-.297-1.187.445-2.374 1.707-2.597 1.187-.296 2.375.446 2.597 1.633.297 1.187-.445 2.374-1.706 2.597-.149.074-.372.074-.594.074-.891 0-1.781-.742-2.004-1.707zm-3.488-15.878c-.297-1.188.52-2.375 1.707-2.597 1.187-.297 2.375.445 2.597 1.632.297 1.187-.445 2.374-1.632 2.597l-.594.074c-.965 0-1.855-.742-2.078-1.706zm-3.562-15.879c-.297-1.187.519-2.374 1.707-2.597 1.187-.297 2.375.445 2.597 1.632.297 1.188-.445 2.375-1.707 2.597-.148.075-.371.075-.593.075-.891 0-1.781-.742-2.004-1.707zm-3.488-15.879c-.297-1.187.445-2.374 1.707-2.597 1.187-.297 2.375.445 2.597 1.707.297 1.187-.445 2.374-1.707 2.597-.148.074-.371.074-.593.074-.965-.074-1.782-.742-2.004-1.781zm-3.562-15.879c-.297-1.187.519-2.374 1.707-2.596 1.187-.297 2.374.445 2.597 1.706.297 1.187-.445 2.374-1.707 2.597-.148.074-.371.074-.594.074-.89-.074-1.781-.742-2.003-1.781zm-3.488-15.878c-.297-1.187.519-2.375 1.707-2.597 1.187-.297 2.374.519 2.597 1.706.297 1.188-.445 2.375-1.633 2.597-.222.075-.371.075-.593.075-1.039-.075-1.856-.742-2.078-1.781zm-3.563-15.879c-.296-1.187.446-2.374 1.707-2.597 1.188-.297 2.375.519 2.598 1.707.297 1.187-.446 2.374-1.707 2.597-.149 0-.371.074-.594.074-.89-.074-1.781-.742-2.004-1.781zm-3.488-15.805c-.296-1.187.446-2.374 1.707-2.597 1.188-.296 2.375.52 2.598 1.707.297 1.187-.446 2.374-1.707 2.597-.149 0-.371.074-.594.074-.965-.148-1.781-.816-2.004-1.781zm-3.562-15.878c-.297-1.187.52-2.375 1.707-2.597 1.187-.297 2.375.519 2.598 1.706.296 1.188-.446 2.375-1.707 2.597-.149.075-.371.075-.594.075-.891-.149-1.781-.817-2.004-1.781zm-3.488-15.879c-.297-1.187.52-2.374 1.707-2.597 1.187-.297 2.375.445 2.597 1.632.297 1.188-.445 2.375-1.706 2.597-.149 0-.371.075-.594.075-.965-.075-1.781-.742-2.004-1.707zm-42.301-190.471c-.297-1.187.445-2.374 1.707-2.597 1.187-.296 2.374.446 2.597 1.707.297 1.187-.445 2.374-1.707 2.597-.148.074-.371.074-.594.074-.964-.074-1.781-.816-2.003-1.781zm-3.563-15.878c-.296-1.187.446-2.375 1.707-2.597 1.188-.297 2.375.445 2.598 1.632.297 1.187-.52 2.375-1.707 2.597-.148.074-.371.074-.594.074-.89 0-1.781-.742-2.004-1.706zm-3.488-15.879c-.296-1.187.52-2.374 1.707-2.597 1.188-.297 2.375.519 2.598 1.707.297 1.187-.445 2.374-1.633 2.597-.223.074-.371.074-.594.074-1.039-.074-1.855-.816-2.078-1.781zm-3.562-15.879c-.297-1.187.446-2.374 1.707-2.597 1.188-.297 2.375.52 2.598 1.707.296 1.187-.446 2.374-1.707 2.597-.149.074-.371.074-.594.074-.891-.074-1.781-.742-2.004-1.781zm-3.488-15.878c-.297-1.188.52-2.375 1.707-2.597 1.188-.297 2.375.519 2.598 1.706.296 1.187-.446 2.375-1.707 2.597-.149.074-.371.074-.594.074-.965-.074-1.781-.742-2.004-1.78zm-3.562-15.879c-.297-1.187.52-2.375 1.707-2.597 1.187-.297 2.375.519 2.597 1.706.297 1.188-.445 2.375-1.707 2.597-.148 0-.371.075-.593.075-.891-.075-1.781-.742-2.004-1.781zm-3.488-15.879c-.297-1.187.445-2.374 1.707-2.597 1.187-.297 2.375.519 2.597 1.707.297 1.187-.445 2.374-1.707 2.597-.148 0-.371.074-.593.074-.965-.074-1.781-.742-2.004-1.781zm-3.562-15.804c-.297-1.188.445-2.375 1.707-2.597 1.187-.297 2.374.519 2.597 1.706.297 1.187-.519 2.375-1.707 2.597-.148 0-.371.074-.593.074-.891-.148-1.782-.816-2.004-1.78zm-3.488-15.879c-.297-1.187.445-2.375 1.707-2.597 1.187-.297 2.374.445 2.597 1.632.297 1.187-.445 2.375-1.707 2.597-.148.074-.371.074-.593.074-.965-.074-1.782-.742-2.004-1.706zm-3.562-15.879c-.297-1.187.519-2.374 1.706-2.597 1.188-.297 2.375.445 2.598 1.632.297 1.188-.445 2.375-1.707 2.597-.148.075-.371.075-.594.075-.89-.075-1.781-.742-2.003-1.707zm-3.488-15.879c-.297-1.187.445-2.374 1.706-2.597 1.188-.296 2.375.446 2.598 1.633.297 1.187-.445 2.374-1.707 2.597-.148.074-.371.074-.594.074-.965 0-1.781-.742-2.003-1.707zm-3.563-15.878c-.297-1.187.446-2.374 1.707-2.597 1.188-.297 2.375.445 2.598 1.707.297 1.187-.446 2.374-1.707 2.597-.149.074-.371.074-.594.074-.891-.074-1.781-.816-2.004-1.781zm-3.488-15.879c-.297-1.187.52-2.374 1.707-2.597 1.188-.297 2.375.445 2.598 1.707.296 1.187-.446 2.374-1.633 2.597-.223.074-.371.074-.594.074-1.039-.074-1.855-.816-2.078-1.781zm-3.562-15.879c-.297-1.187.445-2.374 1.707-2.597 1.187-.297 2.375.445 2.597 1.707.297 1.187-.445 2.374-1.706 2.597-.149.074-.372.074-.594.074-.891-.074-1.781-.742-2.004-1.781zm-3.488-15.879c-.297-1.187.445-2.374 1.707-2.597 1.187-.297 2.375.519 2.597 1.707.297 1.187-.519 2.374-1.706 2.597-.149 0-.372.074-.594.074-.965-.074-1.781-.742-2.004-1.781zm-3.562-15.879c-.297-1.187.519-2.374 1.707-2.597 1.187-.297 2.375.519 2.597 1.707.297 1.187-.445 2.374-1.707 2.597-.148.074-.371.074-.593.074-.891-.074-1.782-.742-2.004-1.781zm-3.488-15.879c-.297-1.187.445-2.374 1.707-2.597 1.187-.297 2.375.519 2.597 1.707.297 1.187-.445 2.374-1.707 2.597-.148 0-.371.074-.593.074-.965-.074-1.782-.742-2.004-1.781zm-3.562-15.805c-.297-1.187.445-2.374 1.706-2.597 1.188-.297 2.375.445 2.598 1.632.297 1.187-.445 2.374-1.707 2.597-.148 0-.371.074-.594.074-.89-.074-1.781-.742-2.003-1.707zM759.056 450.235c-1.188-.223-2.004-1.336-1.781-2.523.222-1.187 1.335-2.003 2.523-1.781 1.187.223 2.004 1.336 1.781 2.523-.148 1.039-1.039 1.781-2.078 1.781h-.445zm-16.03-2.894c-1.188-.223-2.004-1.336-1.781-2.523.222-1.187 1.335-2.003 2.523-1.781 1.187.223 2.004 1.336 1.781 2.523-.223 1.039-1.039 1.781-2.078 1.781-.074.074-.297.074-.445 0zm-15.956-2.82c-1.187-.222-2.004-1.335-1.781-2.522.222-1.188 1.336-2.004 2.523-1.781 1.187.222 2.004 1.335 1.781 2.523-.222 1.038-1.039 1.78-2.078 1.78h-.445zm-16.03-2.893c-1.188-.223-2.004-1.336-1.781-2.523.222-1.187 1.336-2.004 2.523-1.781 1.187.223 2.004 1.336 1.781 2.523-.222 1.039-1.039 1.781-2.078 1.781-.148.074-.297 0-.445 0zm-16.03-2.894c-1.187-.223-2.004-1.336-1.781-2.523.222-1.187 1.336-2.003 2.523-1.781 1.187.223 2.004 1.336 1.781 2.523-.148 1.039-1.039 1.781-2.078 1.781-.074.074-.297.074-.445 0zm-15.956-2.82c-1.187-.222-2.004-1.335-1.781-2.523.223-1.187 1.336-2.003 2.523-1.78 1.188.222 2.004 1.335 1.781 2.522-.222 1.039-1.039 1.781-2.078 1.781h-.445zm-16.03-2.894c-1.187-.222-2.004-1.335-1.781-2.522.223-1.188 1.336-2.004 2.523-1.781 1.188.223 2.004 1.335 1.781 2.523-.222 1.038-1.039 1.78-2.078 1.78-.148.075-.297.075-.445 0zm-16.03-2.819c-1.187-.223-2.004-1.336-1.781-2.523.223-1.187 1.336-2.003 2.523-1.781 1.188.223 2.004 1.336 1.781 2.523-.148 1.039-1.039 1.781-2.078 1.781h-.445zm-15.956-2.894c-1.187-.222-2.004-1.335-1.781-2.523.223-1.187 1.336-2.003 2.523-1.78 1.188.222 2.004 1.335 1.781 2.522-.222 1.039-1.039 1.781-2.077 1.781h-.446zm-16.03-2.894c-1.187-.222-2.004-1.335-1.781-2.522.223-1.188 1.336-2.004 2.523-1.781 1.188.222 2.004 1.335 1.781 2.523-.148 1.038-1.039 1.78-2.078 1.78-.148.075-.296.075-.445 0zm-16.03-2.819c-1.187-.223-2.004-1.336-1.781-2.523.223-1.187 1.336-2.003 2.523-1.781 1.188.223 2.004 1.336 1.781 2.523-.148 1.039-1.039 1.781-2.078 1.781h-.445zm-16.03-2.894c-1.187-.223-2.004-1.336-1.781-2.523.223-1.187 1.336-2.003 2.523-1.781 1.188.223 2.004 1.336 1.781 2.523-.148 1.039-1.039 1.781-2.078 1.781-.074.074-.222 0-.445 0zm-15.956-2.82c-1.187-.222-2.003-1.335-1.781-2.522.223-1.188 1.336-2.004 2.523-1.781 1.188.222 2.004 1.335 1.782 2.523-.149 1.038-1.039 1.78-2.078 1.78h-.446zm-16.03-2.893c-1.187-.223-2.003-1.336-1.781-2.523.223-1.187 1.336-2.004 2.523-1.781 1.188.223 2.004 1.336 1.782 2.523-.149 1.039-1.039 1.781-2.078 1.781h-.446zm-16.03-2.894c-1.187-.223-2.003-1.336-1.781-2.523.223-1.187 1.336-2.003 2.523-1.781 1.188.223 2.004 1.336 1.782 2.523-.149 1.039-1.039 1.781-2.078 1.781-.075.074-.223.074-.446 0zm-15.955-2.82c-1.188-.222-2.004-1.335-1.782-2.523.223-1.187 1.336-2.003 2.524-1.78 1.187.222 2.003 1.335 1.781 2.522-.149 1.039-1.039 1.781-2.078 1.781h-.445zm-16.031-2.894c-1.187-.222-2.003-1.335-1.781-2.522.223-1.188 1.336-2.004 2.524-1.781 1.187.222 2.003 1.335 1.781 2.523-.149 1.038-1.039 1.78-2.078 1.78-.149.075-.297 0-.446 0zm-16.03-2.893c-1.187-.223-2.003-1.336-1.781-2.523.223-1.187 1.336-2.004 2.524-1.781 1.187.223 2.003 1.336 1.781 2.523-.149 1.039-1.039 1.781-2.078 1.781-.074.074-.297.074-.446 0zm-15.955-2.82c-1.188-.223-2.004-1.336-1.781-2.523.222-1.187 1.335-2.003 2.523-1.781 1.187.223 2.004 1.336 1.781 2.523-.148 1.039-1.039 1.781-2.078 1.781h-.445zm-176.108-31.535c-1.187-.222-2.004-1.335-1.781-2.523.223-1.187 1.336-2.003 2.523-1.78 1.188.222 2.004 1.335 1.781 2.522-.222 1.039-1.039 1.781-2.078 1.781h-.445zm-16.03-2.894c-1.187-.222-2.004-1.335-1.781-2.522.223-1.188 1.336-2.004 2.523-1.781 1.188.222 2.004 1.335 1.781 2.523-.222 1.038-1.039 1.78-2.078 1.78-.074.075-.222.075-.445 0zm-15.956-2.819c-1.187-.223-2.003-1.336-1.781-2.523.223-1.187 1.336-2.003 2.523-1.781 1.188.223 2.004 1.336 1.781 2.523-.148 1.039-1.038 1.781-2.077 1.781h-.446zm-16.03-2.894c-1.187-.223-2.004-1.336-1.781-2.523.223-1.187 1.336-2.003 2.523-1.781 1.188.223 2.004 1.336 1.781 2.523-.148 1.039-1.039 1.781-2.077 1.781-.149.074-.297 0-.446 0zm-16.03-2.894c-1.187-.222-2.004-1.335-1.781-2.523.223-1.187 1.336-2.003 2.523-1.78 1.188.222 2.004 1.335 1.781 2.522-.148 1.039-1.039 1.781-2.078 1.781-.074.074-.222.074-.445 0zm-15.956-2.819c-1.187-.223-2.003-1.336-1.781-2.523.223-1.187 1.336-2.004 2.524-1.781 1.187.223 2.003 1.336 1.781 2.523-.149 1.039-1.039 1.781-2.078 1.781h-.446zm-16.03-2.894c-1.187-.223-2.003-1.336-1.781-2.523.223-1.187 1.336-2.003 2.523-1.781 1.188.223 2.004 1.336 1.782 2.523-.149 1.039-1.039 1.781-2.078 1.781-.149.074-.297.074-.446 0zm-16.03-2.82c-1.187-.222-2.003-1.335-1.781-2.523.223-1.187 1.336-2.003 2.523-1.78 1.188.222 2.004 1.335 1.782 2.522-.149 1.039-1.039 1.781-2.078 1.781h-.446zm-15.955-2.894c-1.188-.222-2.004-1.335-1.782-2.522.223-1.188 1.336-2.004 2.524-1.781 1.187.222 2.003 1.335 1.781 2.523-.149 1.038-1.039 1.78-2.078 1.78-.149.075-.297 0-.445 0zm-16.03-2.893c-1.188-.223-2.004-1.336-1.782-2.523.223-1.187 1.336-2.003 2.524-1.781 1.187.223 2.003 1.336 1.781 2.523-.149 1.039-1.039 1.781-2.078 1.781-.149.074-.297.074-.445 0zm-16.03-2.82c-1.188-.222-2.004-1.335-1.782-2.523.223-1.187 1.336-2.003 2.524-1.78 1.187.222 2.003 1.335 1.781 2.522-.149 1.039-1.039 1.781-2.078 1.781h-.445zm-15.956-2.894c-1.188-.222-2.004-1.335-1.781-2.522.222-1.188 1.335-2.004 2.523-1.781 1.187.222 2.004 1.335 1.781 2.523-.148 1.038-1.039 1.78-2.078 1.78-.148.075-.297 0-.445 0zm-16.03-2.893c-1.188-.223-2.004-1.336-1.781-2.523.222-1.187 1.335-2.004 2.523-1.781 1.187.223 2.004 1.336 1.781 2.523-.148 1.039-1.039 1.781-2.078 1.781-.148.074-.297.074-.445 0zM465.989 414.545c-1.114-.52-2.376-.074-2.895 1.039-.52 1.113-.074 2.374 1.039 2.893.297.149.594.223.965.223.816 0 1.633-.445 2.004-1.261.445-1.039 0-2.375-1.113-2.894zM451.814 407.57c-1.114-.519-2.376-.074-2.895 1.039-.52 1.113-.074 2.374 1.039 2.894.297.148.594.222.965.222.817 0 1.633-.445 2.004-1.261.446-1.039 0-2.375-1.113-2.894zM215.965 296.493c-1.114-.519-2.376-.074-2.895 1.039-.52 1.113-.074 2.375 1.039 2.894.297.148.594.223.965.223.817 0 1.633-.446 2.004-1.262.446-1.113 0-2.374-1.113-2.894zM230.658 303.394c-1.113-.52-2.375-.075-2.894 1.038-.52 1.113-.075 2.375 1.039 2.894.297.149.594.223.965.223.816 0 1.633-.445 2.004-1.262.445-1.038 0-2.374-1.114-2.893zM201.271 289.519c-1.114-.52-2.376-.075-2.895 1.038-.52 1.113-.075 2.375 1.039 2.894.297.149.594.223.965.223.816 0 1.633-.445 2.004-1.262.445-1.113 0-2.374-1.113-2.893zM304.204 338.193c-1.114-.519-2.376-.074-2.895 1.039-.52 1.113-.074 2.374 1.039 2.894.297.148.594.222.965.222.816 0 1.633-.445 2.004-1.261.445-1.039-.074-2.374-1.113-2.894zM245.353 310.369c-1.113-.52-2.375-.075-2.895 1.038-.519 1.113-.074 2.375 1.039 2.894.297.148.594.223.965.223.817 0 1.633-.446 2.004-1.262.446-1.038 0-2.374-1.113-2.893zM289.51 331.219c-1.113-.52-2.375-.075-2.895 1.038s-.074 2.375 1.039 2.894c.297.149.594.223.965.223.817 0 1.633-.445 2.004-1.262.446-1.038-.074-2.374-1.113-2.893zM274.741 324.318c-1.113-.519-2.375-.074-2.895 1.039-.519 1.113-.074 2.374 1.039 2.894.297.148.594.222.965.222.817 0 1.633-.445 2.004-1.261.52-1.113 0-2.375-1.113-2.894zM260.047 317.343c-1.113-.519-2.375-.074-2.895 1.039-.519 1.113-.074 2.374 1.04 2.894.297.148.593.222.965.222.816 0 1.633-.445 2.004-1.261.519-1.113 0-2.374-1.114-2.894zM186.576 282.544c-1.113-.52-2.375-.075-2.895 1.038-.519 1.113-.074 2.375 1.04 2.894.297.149.593.223.965.223.816 0 1.633-.445 2.004-1.262.445-1.038 0-2.374-1.114-2.893zM69.023 226.894c-1.113-.52-2.375-.075-2.895 1.038s-.074 2.375 1.039 2.894c.297.149.594.223.965.223.817 0 1.633-.445 2.004-1.262.445-1.038 0-2.374-1.113-2.893zM54.329 219.919c-1.113-.519-2.375-.074-2.895 1.039s-.074 2.374 1.039 2.894c.297.148.594.222.965.222.816 0 1.633-.445 2.004-1.261.445-1.039 0-2.375-1.114-2.894zM83.717 233.869c-1.113-.52-2.375-.074-2.895 1.039s-.074 2.374 1.039 2.893c.297.149.594.223.965.223.816 0 1.633-.445 2.004-1.261.445-1.113 0-2.375-1.113-2.894zM39.635 213.019c-1.113-.52-2.375-.075-2.895 1.038s-.074 2.375 1.039 2.894c.297.149.594.223.965.223.816 0 1.633-.445 2.004-1.262.445-1.113-.074-2.374-1.113-2.893zM127.8 254.719c-1.114-.52-2.376-.075-2.895 1.038-.52 1.113-.074 2.375 1.039 2.894.297.149.594.223.965.223.816 0 1.633-.445 2.004-1.262.445-1.038 0-2.374-1.113-2.893zM171.883 275.569c-1.114-.519-2.376-.074-2.895 1.039-.52 1.113-.074 2.374 1.039 2.893.297.149.594.223.965.223.816 0 1.633-.445 2.004-1.261.445-1.039 0-2.375-1.113-2.894zM142.493 261.693c-1.113-.519-2.375-.074-2.895 1.039-.519 1.113-.074 2.375 1.04 2.894.297.148.593.223.965.223.816 0 1.633-.446 2.004-1.262.445-1.113 0-2.374-1.114-2.894zM98.411 240.843c-1.113-.519-2.375-.074-2.895 1.039s-.074 2.375 1.039 2.894c.297.148.594.223.965.223.817 0 1.633-.446 2.004-1.262.445-1.113 0-2.374-1.113-2.894zM113.105 247.744c-1.113-.519-2.375-.074-2.894 1.039-.52 1.113-.075 2.374 1.039 2.894.297.148.594.222.965.222.816 0 1.633-.445 2.004-1.261.445-1.039 0-2.375-1.114-2.894zM157.187 268.668c-1.113-.519-2.375-.074-2.894 1.039-.52 1.113-.075 2.375 1.039 2.894.297.148.594.223.965.223.816 0 1.633-.446 2.004-1.262.445-1.113 0-2.374-1.114-2.894zM612.855 484.293c-1.113-.52-2.375-.075-2.895 1.038-.519 1.113-.074 2.375 1.04 2.894.297.149.593.223.965.223.816 0 1.633-.445 2.004-1.262.445-1.113-.074-2.374-1.114-2.893zM627.55 491.193c-1.113-.519-2.375-.074-2.895 1.039-.519 1.113-.074 2.374 1.039 2.894.297.148.594.222.965.222.817 0 1.633-.445 2.005-1.261.445-1.039-.075-2.375-1.114-2.894zM583.394 470.343c-1.114-.52-2.375-.074-2.895 1.039s-.074 2.374 1.039 2.893c.297.149.594.223.965.223.817 0 1.633-.445 2.004-1.261.52-1.039 0-2.375-1.113-2.894zM598.161 477.318c-1.113-.52-2.375-.074-2.895 1.039-.519 1.113-.074 2.374 1.04 2.893.296.149.593.223.964.223.817 0 1.633-.445 2.005-1.261.445-1.039-.075-2.375-1.114-2.894zM524.616 442.518c-1.113-.519-2.375-.074-2.894 1.039-.52 1.113-.075 2.374 1.039 2.894.297.148.594.222.965.222.816 0 1.633-.445 2.004-1.261.445-1.039 0-2.374-1.114-2.894zM509.923 435.618c-1.113-.52-2.375-.075-2.895 1.038s-.074 2.375 1.039 2.894c.297.149.594.223.965.223.817 0 1.633-.445 2.004-1.262.446-1.113 0-2.374-1.113-2.893zM480.534 421.668c-1.113-.519-2.375-.074-2.895 1.039-.519 1.113-.074 2.374 1.039 2.894.297.148.594.222.965.222.817 0 1.633-.445 2.004-1.261.446-1.039 0-2.374-1.113-2.894zM495.228 428.643c-1.114-.52-2.376-.074-2.895 1.039-.52 1.112-.074 2.374 1.039 2.893.297.149.594.223.965.223.816 0 1.633-.445 2.004-1.262.445-1.113 0-2.374-1.113-2.893zM539.311 449.493c-1.114-.52-2.376-.074-2.895 1.039-.52 1.113-.075 2.374 1.039 2.893.297.149.594.223.965.223.816 0 1.633-.445 2.004-1.261.445-1.039 0-2.375-1.113-2.894zM318.898 345.168c-1.114-.519-2.376-.074-2.895 1.039-.52 1.113-.074 2.374 1.039 2.894.297.148.594.222.965.222.817 0 1.633-.445 2.004-1.261.446-1.113-.074-2.375-1.113-2.894zM568.698 463.368c-1.113-.519-2.375-.074-2.894 1.039-.52 1.113-.075 2.374 1.039 2.894.297.148.594.222.965.222.816 0 1.633-.445 2.004-1.261.519-1.039 0-2.375-1.114-2.894zM554.005 456.468c-1.114-.52-2.375-.075-2.895 1.038s-.074 2.375 1.039 2.894c.297.149.594.223.965.223.817 0 1.633-.445 2.004-1.262.52-1.113 0-2.374-1.113-2.893zM129.654 474.275c-.445-1.113.223-2.374 1.336-2.819 1.113-.445 2.375.222 2.82 1.335.445 1.113-.223 2.375-1.336 2.82-.222.074-.445.148-.668.148-.89 0-1.781-.593-2.152-1.484zm15.288-5.49c-.445-1.113.148-2.375 1.336-2.82 1.113-.371 2.375.223 2.82 1.336.445 1.113-.223 2.374-1.336 2.819-.223.074-.445.149-.668.149-.89 0-1.781-.594-2.152-1.484zm15.362-5.491c-.445-1.113.149-2.374 1.336-2.82 1.113-.445 2.375.149 2.82 1.336.371 1.113-.223 2.374-1.336 2.819-.222.075-.445.149-.668.149-.964 0-1.855-.52-2.152-1.484zm15.288-5.491c-.445-1.113.223-2.374 1.336-2.819 1.113-.446 2.375.222 2.82 1.335.445 1.113-.149 2.375-1.336 2.82-.223.074-.445.148-.668.148-.965 0-1.855-.519-2.152-1.484zm15.288-5.491c-.445-1.113.223-2.374 1.336-2.819 1.113-.445 2.375.148 2.82 1.335.445 1.113-.223 2.375-1.336 2.82-.223.074-.445.148-.668.148-.89 0-1.781-.519-2.152-1.484zm15.362-5.416c-.445-1.113.223-2.375 1.336-2.82 1.113-.445 2.375.223 2.82 1.336.445 1.113-.223 2.374-1.336 2.819-.223.075-.445.149-.668.149-.965 0-1.855-.594-2.152-1.484zm15.288-5.491c-.445-1.113.148-2.374 1.336-2.82 1.113-.445 2.375.223 2.82 1.336.445 1.113-.223 2.374-1.336 2.82-.223.074-.445.148-.668.148-.965 0-1.855-.594-2.152-1.484zm15.288-5.491c-.446-1.113.148-2.374 1.336-2.819 1.113-.446 2.374.222 2.82 1.335.371 1.113-.223 2.375-1.336 2.82-.223.074-.445.148-.668.148-.891 0-1.781-.593-2.152-1.484zm15.362-5.491c-.371-1.113.222-2.374 1.336-2.819 1.113-.445 2.374.222 2.82 1.335.445 1.113-.223 2.375-1.336 2.82-.223.074-.445.148-.668.148-.965 0-1.855-.519-2.152-1.484zm15.288-5.49c-.446-1.113.222-2.375 1.336-2.82 1.113-.445 2.374.223 2.82 1.336.445 1.113-.149 2.374-1.336 2.819-.223.074-.445.149-.668.149-.965 0-1.855-.52-2.152-1.484zm15.288-5.417c-.446-1.113.222-2.374 1.335-2.819 1.114-.446 2.375.222 2.821 1.335.445 1.113-.223 2.374-1.336 2.82-.223.074-.446.148-.668.148-.965 0-1.781-.593-2.152-1.484zm15.362-5.491c-.446-1.113.222-2.374 1.336-2.819 1.113-.371 2.374.222 2.82 1.335.371 1.113-.223 2.375-1.336 2.82-.223.074-.445.148-.668.148-.965 0-1.855-.593-2.152-1.484zm168.389-60.25c-.445-1.113.149-2.374 1.336-2.819 1.113-.446 2.375.222 2.82 1.335.371 1.113-.223 2.375-1.336 2.82-.222.074-.445.148-.668.148-.964 0-1.855-.593-2.152-1.484zm15.288-5.491c-.445-1.113.148-2.374 1.336-2.819 1.113-.371 2.375.222 2.82 1.335.445 1.113-.148 2.375-1.336 2.82-.223.074-.445.148-.668.148-.965 0-1.781-.593-2.152-1.484zm15.288-5.49c-.445-1.113.223-2.375 1.336-2.82 1.113-.445 2.375.148 2.82 1.336.445 1.113-.223 2.374-1.336 2.819-.223.074-.445.149-.668.149-.891 0-1.781-.594-2.152-1.484zm15.362-5.491c-.445-1.113.223-2.374 1.336-2.82 1.113-.445 2.375.223 2.82 1.336.445 1.113-.223 2.374-1.336 2.819-.223.075-.445.149-.668.149-.965 0-1.855-.52-2.152-1.484zm15.288-5.491c-.445-1.113.223-2.374 1.336-2.819 1.113-.446 2.375.148 2.82 1.335.445 1.113-.223 2.375-1.336 2.82-.223.074-.445.148-.668.148-.965 0-1.781-.519-2.152-1.484zm15.288-5.416c-.371-1.113.222-2.375 1.336-2.82 1.113-.445 2.374.223 2.82 1.336.371 1.113-.223 2.374-1.336 2.819-.223.074-.445.149-.668.149-.891 0-1.781-.594-2.152-1.484zm15.362-5.491c-.445-1.113.148-2.375 1.336-2.82 1.113-.445 2.375.223 2.82 1.336.445 1.113-.149 2.374-1.336 2.819-.223.075-.445.149-.668.149-.965 0-1.855-.594-2.152-1.484zm15.288-5.491c-.446-1.113.222-2.374 1.336-2.82 1.113-.445 2.374.223 2.82 1.336.445 1.113-.223 2.374-1.336 2.82-.223.074-.445.148-.668.148-.965 0-1.855-.594-2.152-1.484zm15.288-5.491c-.446-1.113.222-2.374 1.335-2.819 1.114-.446 2.375.222 2.821 1.335.445 1.113-.223 2.375-1.336 2.82-.223.074-.446.148-.668.148-.891 0-1.781-.593-2.152-1.484zm15.362-5.491c-.446-1.113.148-2.374 1.336-2.819 1.113-.445 2.374.222 2.82 1.335.445 1.113-.223 2.375-1.336 2.82-.223.074-.445.148-.668.148-.965 0-1.855-.519-2.152-1.484zm15.288-5.416c-.446-1.113.222-2.375 1.335-2.82 1.114-.445 2.375.223 2.821 1.336.371 1.113-.223 2.374-1.336 2.819-.223.075-.446.149-.668.149-.965-.074-1.856-.594-2.152-1.484zm15.288-5.491c-.446-1.113.148-2.374 1.335-2.819 1.114-.371 2.375.222 2.82 1.335.446 1.113-.148 2.374-1.335 2.82-.223.074-.446.148-.668.148-.891 0-1.781-.594-2.152-1.484zm15.362-5.491c-.371-1.113.222-2.374 1.335-2.819 1.114-.445 2.375.148 2.821 1.335.445 1.113-.223 2.375-1.336 2.82-.223.074-.446.148-.668.148-.965 0-1.856-.593-2.152-1.484zm15.288-5.49c-.446-1.113.222-2.375 1.335-2.82 1.114-.445 2.375.223 2.82 1.336.446 1.113-.222 2.374-1.335 2.819-.223.074-.446.149-.668.149-.965 0-1.856-.594-2.152-1.484zm15.287-5.491c-.445-1.113.149-2.375 1.336-2.82 1.113-.445 2.375.149 2.82 1.336.446 1.113-.222 2.374-1.336 2.819-.222.075-.445.149-.667.149-.891 0-1.782-.52-2.153-1.484zm15.288-5.491c-.445-1.113.223-2.374 1.336-2.82 1.113-.445 2.375.223 2.82 1.336.445 1.113-.222 2.374-1.336 2.82-.222.074-.445.148-.668.148-.89 0-1.781-.519-2.152-1.484zm15.362-5.491c-.371-1.113.223-2.374 1.336-2.819 1.113-.446 2.375.148 2.82 1.335.446 1.113-.148 2.375-1.335 2.82-.223.074-.446.148-.668.148-.965.074-1.856-.519-2.153-1.484zm15.288-5.416c-.371-1.113.223-2.375 1.336-2.82 1.113-.445 2.375.223 2.82 1.336.445 1.113-.148 2.374-1.336 2.819-.222.074-.445.149-.668.149-.964 0-1.855-.594-2.152-1.484zm15.288-5.491c-.445-1.113.223-2.375 1.336-2.82 1.113-.445 2.375.223 2.82 1.336.445 1.113-.223 2.374-1.336 2.819-.222.075-.445.149-.668.149-.89 0-1.781-.594-2.152-1.484zM664.656 637.366c-.89-.816-.965-2.226-.148-3.116.816-.891 2.226-.965 3.117-.149.89.817.964 2.226.148 3.117-.445.445-1.039.742-1.633.742-.519 0-1.039-.149-1.484-.594zm-11.948-10.981c-.891-.817-.965-2.226-.149-3.117.817-.89 2.227-.964 3.117-.148.891.816.965 2.226.149 3.116-.446.445-1.039.742-1.633.742-.519 0-1.039-.222-1.484-.593zm-11.948-11.056c-.891-.816-.965-2.226-.149-3.117.816-.89 2.226-.964 3.117-.148s.965 2.226.148 3.116c-.445.446-1.039.742-1.632.742-.52 0-1.039-.148-1.484-.593zm-11.949-10.982c-.89-.816-.965-2.226-.148-3.116.816-.89 2.226-.965 3.117-.148.89.816.965 2.226.148 3.116-.445.445-1.039.742-1.633.742-.519 0-1.113-.223-1.484-.594zm-11.948-10.981c-.891-.816-.965-2.226-.148-3.117.816-.89 2.226-.964 3.116-.148.891.816.965 2.226.149 3.116-.445.446-1.039.668-1.633.668-.519 0-1.113-.148-1.484-.519zm-12.023-11.056c-.89-.816-.964-2.226-.148-3.116.816-.891 2.226-.965 3.117-.149.89.816.965 2.226.148 3.117-.445.445-1.039.742-1.632.742-.52 0-1.039-.223-1.485-.594zm-11.948-10.982c-.89-.816-.965-2.225-.148-3.116.816-.89 2.226-.965 3.117-.148.89.816.964 2.226.148 3.116-.445.445-1.039.668-1.633.668-.519 0-1.039-.149-1.484-.52zm-11.948-11.055c-.891-.816-.965-2.226-.149-3.117.817-.89 2.227-.964 3.117-.148.891.816.965 2.226.149 3.116-.445.446-1.039.742-1.633.742-.519 0-1.039-.222-1.484-.593zm-11.949-10.982c-.89-.816-.964-2.226-.148-3.116.816-.891 2.226-.965 3.117-.149.891.817.965 2.226.148 3.117-.445.445-1.039.668-1.632.668-.52.074-1.039-.149-1.485-.52zm-11.948-11.056c-.89-.816-.965-2.226-.148-3.116.816-.89 2.226-.965 3.117-.148.89.816.964 2.226.148 3.116-.445.445-1.039.668-1.633.668-.519.074-1.039-.074-1.484-.52zm-11.948-10.981c-.891-.816-.965-2.226-.148-3.117.816-.89 2.226-.964 3.116-.148.891.816.965 2.226.149 3.116-.445.446-1.039.742-1.633.742-.519 0-1.113-.222-1.484-.593zm-12.023-11.056c-.89-.816-.964-2.226-.148-3.116.816-.891 2.226-.965 3.117-.149.89.817.965 2.226.148 3.117-.445.445-1.039.667-1.632.667-.52.075-1.039-.074-1.485-.519zm-11.948-10.981c-.89-.817-.965-2.226-.148-3.117.816-.89 2.226-.964 3.117-.148.89.816.964 2.226.148 3.116-.445.445-1.039.742-1.633.742-.519 0-1.039-.222-1.484-.593zm-11.948-10.982c-.891-.816-.965-2.226-.149-3.116.817-.891 2.227-.965 3.117-.149.891.816.965 2.226.149 3.117-.446.445-1.039.742-1.633.742-.519-.075-1.039-.223-1.484-.594zm-11.948-11.056c-.891-.816-.965-2.226-.149-3.116.816-.891 2.226-.965 3.117-.149.891.817.965 2.226.148 3.117-.445.445-1.039.742-1.632.742-.52 0-1.039-.223-1.484-.594zm-11.949-10.981c-.89-.816-.965-2.226-.148-3.117.816-.89 2.226-.964 3.117-.148.89.816.964 2.226.148 3.116-.445.445-1.039.742-1.633.742-.519-.074-1.039-.222-1.484-.593zm-11.948-11.056c-.891-.816-.965-2.226-.149-3.116.817-.891 2.227-.965 3.117-.149.891.816.965 2.226.149 3.117-.445.445-1.039.742-1.633.742-.519 0-1.113-.223-1.484-.594zm-12.023-10.982c-.89-.816-.964-2.226-.148-3.116.816-.89 2.226-.965 3.117-.148.89.816.965 2.226.148 3.116-.445.445-1.039.742-1.632.742-.52 0-1.039-.223-1.485-.594zm-11.948-11.055c-.89-.817-.965-2.226-.148-3.117.816-.89 2.226-.964 3.117-.148.89.816.964 2.226.148 3.116-.445.445-1.039.742-1.633.742-.519 0-1.039-.148-1.484-.593zm-131.505-121.168c-.891-.817-.965-2.226-.149-3.117.816-.89 2.227-.964 3.117-.148.891.816.965 2.226.148 3.116-.445.445-1.038.668-1.632.668-.594.074-1.113-.074-1.484-.519zm-12.023-10.982c-.891-.816-.965-2.226-.148-3.116.816-.891 2.226-.965 3.117-.149.89.816.964 2.226.148 3.117-.445.445-1.039.667-1.633.667-.519.075-1.039-.148-1.484-.519zm-11.948-11.056c-.891-.816-.965-2.226-.149-3.116.817-.89 2.227-.965 3.117-.149.891.817.965 2.226.149 3.117-.446.445-1.039.668-1.633.668-.52.074-1.039-.075-1.484-.52zm-11.949-10.981c-.89-.816-.964-2.226-.148-3.117.816-.89 2.226-.964 3.117-.148.89.816.965 2.226.148 3.116-.445.446-1.039.742-1.632.742-.52 0-1.039-.222-1.485-.593zm-11.948-11.056c-.89-.816-.965-2.226-.148-3.116.816-.891 2.226-.965 3.117-.149.89.816.964 2.226.148 3.117-.445.445-1.039.667-1.633.667-.519.075-1.039-.074-1.484-.519zm-11.948-10.982c-.891-.816-.965-2.226-.149-3.116.817-.89 2.227-.965 3.117-.148.891.816.965 2.226.149 3.116-.446.445-1.039.742-1.633.742-.519 0-1.113-.223-1.484-.594zm-12.023-10.981c-.89-.816-.964-2.226-.148-3.116.816-.891 2.226-.965 3.117-.149.89.816.965 2.226.148 3.116-.445.446-1.039.742-1.632.742-.52-.074-1.039-.222-1.485-.593zm-11.948-11.056c-.891-.816-.965-2.226-.148-3.116.816-.891 2.226-.965 3.117-.149.89.817.964 2.226.148 3.117-.445.445-1.039.742-1.633.742-.519 0-1.039-.223-1.484-.594zm-11.948-10.981c-.891-.817-.965-2.226-.149-3.117.817-.89 2.227-.964 3.117-.148.891.816.965 2.226.149 3.116-.446.445-1.039.742-1.633.742-.52 0-1.039-.222-1.484-.593zm-11.949-11.056c-.89-.816-.964-2.226-.148-3.117.816-.89 2.226-.964 3.117-.148.89.816.965 2.226.148 3.116-.445.446-1.039.742-1.632.742-.52 0-1.039-.222-1.485-.593zm-11.948-10.982c-.89-.816-.965-2.226-.148-3.116.816-.891 2.226-.965 3.117-.148.89.816.964 2.225.148 3.116-.445.445-1.039.742-1.633.742-.519 0-1.039-.223-1.484-.594zm-11.948-11.055c-.891-.817-.965-2.226-.149-3.117.817-.89 2.227-.964 3.117-.148.891.816.965 2.226.149 3.116-.446.445-1.039.742-1.633.742-.519 0-1.113-.148-1.484-.593zm-11.948-10.982c-.891-.816-.965-2.226-.149-3.116.816-.891 2.226-.965 3.117-.149s.965 2.226.148 3.117c-.445.445-1.039.742-1.632.742-.594 0-1.113-.223-1.484-.594zm-12.023-11.056c-.891-.816-.965-2.226-.148-3.116.816-.891 2.226-.965 3.117-.149.89.817.964 2.226.148 3.117-.445.445-1.039.742-1.633.742-.519 0-1.039-.149-1.484-.594zm-11.948-10.981c-.891-.817-.965-2.226-.149-3.117.817-.89 2.227-.964 3.117-.148.891.816.965 2.226.149 3.116-.446.445-1.039.742-1.633.742-.52 0-1.039-.222-1.484-.593zm-11.949-11.056c-.89-.816-.964-2.226-.148-3.116.816-.891 2.226-.965 3.117-.149.89.816.965 2.226.148 3.117-.445.445-1.039.742-1.632.742-.52 0-1.039-.149-1.485-.594zm-11.948-10.982c-.89-.816-.965-2.226-.148-3.116.816-.89 2.226-.965 3.117-.148.89.816.964 2.226.148 3.116-.445.445-1.039.742-1.633.742-.519 0-1.039-.223-1.484-.594zm-11.948-10.981c-.891-.816-.965-2.226-.149-3.117.817-.89 2.227-.964 3.117-.148.891.816.965 2.226.149 3.116-.446.446-1.039.742-1.633.742-.519-.074-1.113-.222-1.484-.593zm-12.023-11.056c-.89-.816-.964-2.226-.148-3.116.816-.891 2.226-.965 3.117-.149.89.816.965 2.226.148 3.117-.445.445-1.039.742-1.632.742-.52 0-1.039-.223-1.485-.594zM472.444 373.29c-1.187.074-2.152 1.113-2.078 2.3.074 1.187 1.039 2.078 2.227 2.078h.148c1.188-.075 2.153-1.113 2.079-2.301-.075-1.261-1.114-2.226-2.376-2.077zM455.821 374.551c-1.188.074-2.153 1.113-2.078 2.3.074 1.188 1.039 2.078 2.226 2.078h.149c1.188-.074 2.152-1.113 2.078-2.3-.148-1.187-1.187-2.152-2.375-2.078zM196.744 391.617c-1.188.074-2.153 1.113-2.079 2.375.074 1.187 1.039 2.077 2.227 2.077h.148c1.188-.074 2.153-1.113 2.079-2.374-.074-1.262-1.114-2.152-2.375-2.078zM212.996 390.504c-1.188.074-2.153 1.113-2.079 2.3.074 1.187 1.039 2.078 2.227 2.078h.148c1.188-.074 2.153-1.113 2.005-2.375-.075-1.187-1.114-2.077-2.301-2.003zM180.565 392.656c-1.188.074-2.153 1.113-2.079 2.374.075 1.188 1.039 2.078 2.227 2.078h.149c1.187-.074 2.152-1.113 2.078-2.3-.149-1.336-1.188-2.226-2.375-2.152zM148.06 394.808c-1.188.074-2.153 1.113-2.078 2.374.074 1.187 1.039 2.078 2.226 2.078h.149c1.187-.074 2.152-1.113 2.078-2.375-.074-1.261-1.113-2.151-2.375-2.077zM164.312 393.769c-1.187.074-2.152 1.113-2.004 2.3.074 1.187 1.039 2.078 2.227 2.078h.148c1.188-.074 2.153-1.113 2.079-2.375-.223-1.187-1.262-2.077-2.45-2.003zM229.174 389.465c-1.188.074-2.153 1.113-2.078 2.375.074 1.187 1.039 2.077 2.226 2.077h.149c1.188-.074 2.152-1.113 2.078-2.3-.074-1.336-1.113-2.226-2.375-2.152zM261.68 387.313c-1.188.075-2.153 1.113-2.079 2.375.075 1.187 1.04 2.077 2.227 2.077h.149c1.187-.074 2.152-1.113 2.078-2.374-.148-1.261-1.188-2.152-2.375-2.078zM277.858 386.201c-1.188.074-2.153 1.113-2.078 2.3.074 1.187 1.039 2.077 2.226 2.077h.149c1.188-.074 2.152-1.113 2.078-2.3-.074-1.261-1.113-2.152-2.375-2.077zM245.427 388.352c-1.188.074-2.153 1.113-2.079 2.375.074 1.187 1.039 2.077 2.227 2.077h.149c1.187-.074 2.152-1.113 2.078-2.374-.074-1.262-1.188-2.152-2.375-2.078zM83.197 399.111c-1.188.074-2.153 1.113-2.078 2.375.074 1.187 1.039 2.077 2.227 2.077h.148c1.188-.074 2.153-1.113 2.078-2.374-.148-1.262-1.188-2.152-2.375-2.078zM18.261 403.415c-1.188.074-2.153 1.113-2.078 2.374.074 1.188 1.039 2.078 2.227 2.078h.148c1.188-.074 2.153-1.113 2.078-2.374-.074-1.262-1.188-2.152-2.375-2.078zM50.692 401.263c-1.188.074-2.152 1.113-2.078 2.375.074 1.187 1.039 2.077 2.227 2.077h.148c1.188-.074 2.153-1.113 2.078-2.3-.074-1.336-1.113-2.226-2.375-2.152zM34.513 402.302c-1.188.074-2.153 1.113-2.078 2.374.074 1.187 1.039 2.078 2.227 2.078h.148c1.188-.075 2.153-1.113 2.078-2.375-.148-1.187-1.188-2.152-2.375-2.077zM2.082 404.454c-1.188.074-2.153 1.113-2.078 2.3.074 1.187 1.039 2.077 2.227 2.077h.148c1.188-.074 2.153-1.113 2.004-2.3-.074-1.187-1.113-2.151-2.301-2.077zM115.629 396.959c-1.188.075-2.153 1.113-2.078 2.301.074 1.187 1.039 2.077 2.226 2.077h.149c1.188-.074 2.152-1.113 2.078-2.3-.074-1.261-1.187-2.152-2.375-2.078zM131.881 395.921c-1.188.074-2.153 1.113-2.078 2.374.074 1.187 1.039 2.078 2.227 2.078h.148c1.188-.074 2.153-1.113 2.004-2.375-.074-1.261-1.113-2.151-2.301-2.077zM66.944 400.15c-1.188.074-2.153 1.113-2.078 2.374.074 1.188 1.039 2.078 2.227 2.078h.148c1.188-.074 2.153-1.113 2.078-2.374-.074-1.188-1.188-2.152-2.375-2.078zM99.376 398.073c-1.188.074-2.153 1.113-2.078 2.374.074 1.187 1.039 2.078 2.227 2.078h.148c1.188-.074 2.153-1.113 2.079-2.375-.075-1.261-1.114-2.226-2.376-2.077zM294.111 385.162c-1.188.074-2.153 1.113-2.079 2.3.075 1.187 1.04 2.078 2.227 2.078h.149c1.187-.075 2.152-1.113 2.078-2.375-.149-1.187-1.188-2.077-2.375-2.003zM618.644 363.644c-1.187.074-2.152 1.113-2.078 2.374.074 1.187 1.039 2.078 2.227 2.078h.148c1.188-.074 2.153-1.113 2.079-2.3-.149-1.336-1.188-2.226-2.376-2.152zM651.076 361.492c-1.188.074-2.153 1.113-2.079 2.374.075 1.187 1.04 2.078 2.227 2.078h.149c1.187-.074 2.152-1.113 2.004-2.375-.075-1.187-1.114-2.151-2.301-2.077zM634.823 362.605c-1.188.074-2.152 1.113-2.078 2.374.074 1.187 1.039 2.078 2.227 2.078h.148c1.188-.074 2.153-1.113 2.078-2.375-.074-1.261-1.113-2.151-2.375-2.077zM667.328 360.453c-1.187.074-2.152 1.113-2.078 2.374.074 1.188 1.039 2.078 2.227 2.078h.148c1.188-.074 2.153-1.113 2.079-2.3-.149-1.336-1.188-2.226-2.376-2.152zM683.506 359.34c-1.187.075-2.152 1.113-2.004 2.375.074 1.187 1.039 2.077 2.153 2.077h.148c1.188-.074 2.153-1.113 2.078-2.374-.074-1.187-1.113-2.152-2.375-2.078zM505.023 371.212c-1.187.074-2.152 1.113-2.078 2.3.074 1.187 1.039 2.078 2.227 2.078h.148c1.188-.074 2.153-1.113 2.079-2.3-.075-1.262-1.114-2.226-2.376-2.078zM602.392 364.757c-1.188.074-2.153 1.113-2.079 2.3.075 1.187 1.04 2.078 2.227 2.078h.149c1.187-.075 2.152-1.113 2.078-2.375-.074-1.187-1.188-2.077-2.375-2.003zM310.363 384.048c-1.188.075-2.153 1.113-2.079 2.375.075 1.187 1.04 2.077 2.227 2.077h.149c1.187-.074 2.152-1.113 2.078-2.374-.148-1.187-1.188-2.152-2.375-2.078zM537.53 369.061c-1.188.074-2.153 1.112-2.079 2.374.075 1.187 1.039 2.077 2.227 2.077h.149c1.187-.074 2.152-1.113 2.078-2.374-.148-1.261-1.188-2.226-2.375-2.077zM521.276 370.099c-1.187.074-2.152 1.113-2.078 2.375.074 1.187 1.039 2.077 2.227 2.077h.148c1.188-.074 2.153-1.113 2.005-2.374-.075-1.262-1.114-2.152-2.302-2.078zM553.708 367.947c-1.188.075-2.152 1.113-2.078 2.301.074 1.187 1.039 2.077 2.227 2.077h.148c1.188-.074 2.153-1.113 2.078-2.374-.074-1.187-1.113-2.078-2.375-2.004zM586.139 365.796c-1.188.074-2.153 1.113-2.078 2.374.074 1.187 1.039 2.078 2.226 2.078h.149c1.188-.075 2.153-1.113 2.078-2.375-.074-1.261-1.113-2.152-2.375-2.077zM569.96 366.909c-1.188.074-2.153 1.113-2.078 2.374.074 1.187 1.039 2.078 2.227 2.078h.148c1.188-.075 2.153-1.113 2.078-2.375-.148-1.261-1.187-2.152-2.375-2.077zM326.319 383.455c-1.187.074-2.152 1.113-2.078 2.375.074 1.187 1.039 2.077 2.227 2.077h.148c1.188-.074 2.153-1.113 2.079-2.374-.075-1.262-1.188-2.226-2.376-2.078zM488.327 372.473c-1.188.075-2.153 1.113-2.079 2.301.075 1.187 1.04 2.077 2.227 2.077h.149c1.187-.074 2.152-1.113 2.078-2.3-.074-1.187-1.113-2.152-2.375-2.078zM286.912 196.175c-1.039.593-1.485 1.929-.891 2.968.371.668 1.114 1.113 1.856 1.113.371 0 .816-.074 1.188-.297 1.039-.594 1.484-1.929.89-2.968-.668-1.039-2.004-1.41-3.043-.816zM294.778 210.347c-1.039.594-1.484 1.929-.89 2.968.371.668 1.113 1.113 1.855 1.113.371 0 .817-.074 1.188-.297 1.039-.593 1.485-1.929.891-2.968-.668-1.038-2.004-1.409-3.044-.816zM302.646 224.593c-1.039.594-1.41 1.93-.891 2.968.371.668 1.114 1.113 1.856 1.113.371 0 .816-.074 1.187-.296 1.04-.594 1.411-1.93.891-2.968-.668-1.039-2.004-1.41-3.043-.817zM278.971 181.929c-1.039.593-1.41 1.929-.89 2.968.371.667 1.113 1.113 1.855 1.113.372 0 .817-.075 1.188-.297 1.039-.594 1.485-1.929.891-2.968-.594-1.039-1.93-1.41-3.044-.816zM341.978 295.677c-1.039.593-1.41 1.929-.89 2.968.371.668 1.113 1.113 1.855 1.113.371 0 .817-.074 1.188-.297 1.039-.594 1.41-1.929.891-2.968-.594-.965-1.93-1.41-3.044-.816zM334.111 281.505c-1.039.593-1.484 1.929-.89 2.968.371.667 1.113 1.113 1.855 1.113.371 0 .817-.075 1.188-.297 1.039-.594 1.484-1.929.891-2.968-.594-1.039-1.93-1.41-3.044-.816zM326.245 267.258c-1.04.594-1.411 1.93-.891 2.968.371.668 1.113 1.113 1.856 1.113.371 0 .816-.074 1.187-.296 1.039-.594 1.411-1.93.891-2.968-.668-1.039-2.004-1.41-3.043-.817zM318.379 253.012c-1.04.594-1.485 1.929-.891 2.968.371.668 1.113 1.113 1.856 1.113.371 0 .816-.074 1.187-.297 1.039-.593 1.485-1.929.891-2.968-.668-.964-2.004-1.41-3.043-.816zM310.512 238.84c-1.04.594-1.485 1.929-.891 2.968.371.668 1.113 1.113 1.856 1.113.371 0 .816-.074 1.187-.297 1.039-.593 1.485-1.929.891-2.968-.668-1.039-2.004-1.41-3.043-.816zM263.238 153.436c-1.04.594-1.411 1.929-.891 2.968.371.668 1.113 1.113 1.856 1.113.371 0 .816-.074 1.187-.297 1.039-.593 1.411-1.929.891-2.968-.668-.964-1.93-1.41-3.043-.816zM255.371 139.264c-1.039.593-1.484 1.929-.891 2.968.371.668 1.114 1.113 1.856 1.113.371 0 .816-.074 1.188-.297 1.039-.594 1.484-1.929.89-2.968-.668-1.039-2.004-1.41-3.043-.816zM349.919 309.923c-1.039.594-1.485 1.929-.891 2.968.371.668 1.114 1.113 1.856 1.113.371 0 .816-.074 1.187-.297 1.04-.593 1.485-1.929.891-2.968-.668-1.038-2.004-1.409-3.043-.816zM271.104 167.682c-1.039.594-1.485 1.929-.891 2.968.371.668 1.114 1.113 1.856 1.113.371 0 .816-.074 1.187-.297 1.04-.593 1.485-1.929.891-2.968-.594-1.038-1.93-1.409-3.043-.816zM523.132 622.823c-1.039.594-1.41 1.929-.891 2.968.371.668 1.114 1.113 1.856 1.113.371 0 .816-.074 1.188-.297 1.039-.593 1.41-1.929.89-2.968-.668-.964-1.93-1.335-3.043-.816zM530.998 637.069c-1.039.594-1.484 1.929-.89 2.968.371.668 1.113 1.113 1.855 1.113.371 0 .817-.074 1.188-.297 1.039-.593 1.484-1.929.891-2.968-.594-.964-1.93-1.409-3.044-.816zM507.399 594.405c-1.04.593-1.411 1.929-.891 2.968.371.667 1.113 1.113 1.856 1.113.371 0 .816-.075 1.187-.297 1.039-.594 1.411-1.929.891-2.968-.668-1.039-2.004-1.41-3.043-.816zM538.865 651.316c-1.039.593-1.41 1.929-.891 2.968.371.667 1.113 1.113 1.856 1.113.371 0 .816-.075 1.187-.297 1.039-.594 1.411-1.929.891-2.968-.594-1.039-1.93-1.41-3.043-.816zM515.265 608.651c-1.039.594-1.485 1.929-.891 2.968.371.668 1.114 1.113 1.856 1.113.371 0 .816-.074 1.187-.297 1.04-.593 1.485-1.929.891-2.968-.668-1.039-2.004-1.41-3.043-.816zM554.672 679.734c-1.039.594-1.484 1.93-.89 2.968.371.668 1.113 1.113 1.855 1.113.371 0 .817-.074 1.188-.297 1.039-.593 1.484-1.929.891-2.967-.668-.965-2.004-1.41-3.044-.817zM491.665 565.986c-1.039.594-1.484 1.93-.89 2.968.371.668 1.113 1.113 1.855 1.113.371 0 .817-.074 1.188-.296 1.039-.594 1.484-1.93.891-2.968-.669-1.039-2.005-1.41-3.044-.817zM546.806 665.562c-1.039.594-1.485 1.929-.891 2.968.371.668 1.114 1.113 1.856 1.113.371 0 .816-.074 1.187-.297 1.04-.593 1.485-1.929.891-2.968-.668-1.039-2.004-1.409-3.043-.816zM499.532 580.158c-1.039.594-1.484 1.929-.891 2.968.371.668 1.114 1.113 1.856 1.113.371 0 .817-.074 1.188-.297 1.039-.593 1.41-1.929.89-2.967-.668-.965-2.004-1.336-3.043-.817zM467.992 523.321c-1.039.594-1.41 1.93-.891 2.968.371.668 1.114 1.113 1.856 1.113.371 0 .816-.074 1.188-.296 1.039-.594 1.41-1.93.89-2.968-.594-1.039-1.93-1.41-3.043-.817zM460.125 509.075c-1.039.594-1.484 1.929-.89 2.968.371.668 1.113 1.113 1.855 1.113.372 0 .817-.074 1.188-.297 1.039-.593 1.41-1.929.891-2.968-.594-1.039-1.93-1.41-3.044-.816zM452.259 494.829c-1.04.593-1.485 1.929-.891 2.968.371.667 1.113 1.113 1.855 1.113.372 0 .817-.075 1.188-.297 1.039-.594 1.485-1.929.891-2.968-.668-1.039-2.004-1.41-3.043-.816zM444.392 480.657c-1.039.593-1.41 1.929-.891 2.968.372.667 1.114 1.113 1.856 1.113.371 0 .817-.075 1.188-.297 1.039-.594 1.41-1.929.891-2.968-.669-1.039-2.005-1.41-3.044-.816zM475.859 537.494c-1.039.593-1.485 1.929-.891 2.968.371.667 1.113 1.113 1.856 1.113.371 0 .816-.075 1.187-.297 1.039-.594 1.485-1.929.891-2.968-.594-.965-1.93-1.41-3.043-.816zM483.799 551.74c-1.039.593-1.41 1.929-.891 2.968.371.668 1.114 1.113 1.856 1.113.371 0 .816-.074 1.188-.297 1.039-.594 1.484-1.929.89-2.968-.668-1.039-2.004-1.41-3.043-.816zM358.157 324.095c-1.039.594-1.485 1.929-.891 2.968.371.668 1.113 1.113 1.856 1.113.371 0 .816-.074 1.187-.297 1.039-.593 1.485-1.929.891-2.968-.594-1.038-1.93-1.409-3.043-.816zM437.046 466.336c-1.04.594-1.411 1.929-.891 2.968.371.668 1.113 1.113 1.856 1.113.371 0 .816-.074 1.187-.297 1.039-.593 1.411-1.929.891-2.968-.594-.964-1.93-1.335-3.043-.816zM429.178 452.164c-1.039.594-1.485 1.929-.891 2.968.371.668 1.114 1.113 1.856 1.113.371 0 .816-.074 1.188-.297 1.039-.593 1.41-1.929.89-2.968-.594-1.039-1.93-1.41-3.043-.816zM421.312 437.918c-1.039.593-1.484 1.929-.891 2.968.372.667 1.114 1.113 1.856 1.113.371 0 .817-.075 1.188-.297 1.039-.594 1.484-1.929.89-2.968-.593-1.039-1.929-1.41-3.043-.816zM244.61 482.289c-.965.742-1.188 2.078-.519 3.042.445.594 1.113.891 1.781.891.445 0 .891-.149 1.262-.446.965-.667 1.187-2.077.519-3.042-.668-.89-2.078-1.113-3.043-.445zM231.4 491.786c-.965.742-1.187 2.078-.519 3.043.445.593 1.113.89 1.781.89.445 0 .891-.148 1.336-.445.965-.668 1.188-2.078.52-3.042-.743-.891-2.153-1.113-3.118-.446zM323.869 425.452c-.965.742-1.187 2.078-.519 3.042.445.594 1.113.891 1.781.891.445 0 .891-.149 1.262-.446.965-.742 1.188-2.077.52-3.042-.668-.89-2.005-1.113-3.044-.445zM218.191 501.284c-.965.742-1.188 2.078-.52 3.042.445.594 1.114.891 1.782.891.445 0 .89-.149 1.261-.445.965-.742 1.188-2.078.52-3.043-.668-.964-2.078-1.187-3.043-.445zM257.82 472.866c-.965.668-1.188 2.077-.52 3.042.445.594 1.113.89 1.781.89.446 0 .891-.148 1.262-.445.965-.668 1.188-2.077.52-3.042-.668-.965-2.004-1.187-3.043-.445zM310.66 434.95c-.965.742-1.188 2.077-.52 3.042.445.594 1.114.89 1.782.89.445 0 .89-.148 1.261-.445.965-.668 1.188-2.077.52-3.042-.668-.965-2.004-1.187-3.043-.445zM191.771 520.205c-.965.668-1.188 2.078-.52 3.042.445.594 1.113.891 1.782.891.445 0 .89-.149 1.261-.445.965-.668 1.188-2.078.52-3.043-.668-.89-2.078-1.113-3.043-.445zM297.45 444.447c-.965.742-1.188 2.078-.52 3.042.445.594 1.114.891 1.782.891.445 0 .89-.149 1.261-.446.965-.667 1.188-2.077.52-3.042-.668-.964-2.004-1.187-3.043-.445zM271.03 463.368c-.965.668-1.187 2.078-.519 3.042.445.594 1.113.891 1.781.891.445 0 .891-.149 1.262-.446.965-.742 1.188-2.077.519-3.042-.668-.964-2.004-1.187-3.043-.445zM204.98 510.707c-.965.742-1.188 2.078-.519 3.043.445.593 1.113.89 1.781.89.445 0 .891-.148 1.262-.445.965-.742 1.187-2.078.519-3.042-.668-.891-2.078-1.113-3.043-.446zM112.511 577.042c-.965.742-1.188 2.078-.52 3.042.446.594 1.114.891 1.782.891.445 0 .891-.149 1.262-.445.965-.668 1.187-2.078.519-3.043-.742-.89-2.078-1.113-3.043-.445zM178.561 529.703c-.965.667-1.188 2.077-.52 3.042.445.593 1.113.89 1.781.89.446 0 .891-.148 1.262-.445.965-.668 1.188-2.078.52-3.042-.668-.965-2.078-1.187-3.043-.445zM86.09 596.037c-.965.742-1.188 2.077-.52 3.042.445.594 1.113.89 1.781.89.445 0 .891-.148 1.262-.445.965-.742 1.188-2.077.52-3.042-.742-.965-2.078-1.187-3.043-.445zM72.881 605.535c-.965.742-1.188 2.077-.52 3.042.445.593 1.113.89 1.781.89.445 0 .891-.148 1.262-.445.965-.742 1.188-2.078.52-3.042-.742-.965-2.078-1.187-3.043-.445zM99.301 586.54c-.965.742-1.188 2.077-.52 3.042.445.593 1.113.89 1.782.89.445 0 .891-.148 1.262-.445.965-.668 1.187-2.078.519-3.042-.742-.891-2.078-1.113-3.043-.445zM152.141 548.624c-.965.742-1.188 2.077-.52 3.042.445.593 1.113.89 1.781.89.446 0 .891-.148 1.262-.445.965-.742 1.188-2.078.52-3.042-.668-.891-2.079-1.113-3.043-.445zM165.35 539.2c-.965.742-1.188 2.078-.52 3.042.446.594 1.114.891 1.782.891.445 0 .891-.149 1.262-.446.965-.742 1.187-2.077.519-3.042-.668-.964-2.078-1.187-3.043-.445zM125.72 567.619c-.964.667-1.187 2.077-.519 3.042.445.593 1.113.89 1.781.89.446 0 .891-.148 1.262-.445.965-.742 1.188-2.078.52-3.042-.743-.965-2.079-1.187-3.044-.445zM138.931 558.121c-.965.668-1.188 2.078-.52 3.042.446.594 1.114.891 1.782.891.445 0 .891-.149 1.262-.446.965-.742 1.187-2.077.519-3.042-.668-.89-2.078-1.113-3.043-.445zM284.24 453.871c-.965.742-1.188 2.077-.52 3.042.446.594 1.114.89 1.782.89.445 0 .89-.148 1.261-.445.965-.742 1.188-2.077.52-3.042-.668-.89-2.004-1.113-3.043-.445zM614.636 216.951c-.965.668-1.188 2.078-.52 3.042.446.594 1.114.891 1.782.891.445 0 .891-.149 1.262-.446.965-.742 1.187-2.077.519-3.042-.742-.89-2.078-1.113-3.043-.445zM574.932 245.444c-.965.742-1.187 2.077-.519 3.042.445.593 1.113.89 1.781.89.446 0 .891-.148 1.262-.445.965-.668 1.188-2.078.52-3.042-.668-.965-2.004-1.187-3.044-.445zM601.352 226.449c-.965.667-1.188 2.077-.52 3.042.446.593 1.114.89 1.782.89.445 0 .89-.148 1.262-.445.964-.668 1.187-2.078.519-3.042-.668-.891-2.004-1.113-3.043-.445zM588.142 235.946c-.965.742-1.187 2.078-.519 3.042.445.594 1.113.891 1.781.891.446 0 .891-.149 1.262-.446.965-.667 1.188-2.077.52-3.042-.668-.964-2.004-1.187-3.044-.445zM482.463 311.778c-.965.668-1.188 2.078-.52 3.042.445.594 1.113.891 1.782.891.445 0 .89-.149 1.261-.446.965-.742 1.188-2.077.52-3.042-.668-.964-2.078-1.187-3.043-.445zM508.882 292.783c-.965.742-1.187 2.078-.519 3.042.445.594 1.113.891 1.781.891.446 0 .891-.149 1.262-.446.965-.742 1.188-2.077.52-3.042-.668-.89-2.079-1.113-3.044-.445zM495.673 302.281c-.965.668-1.188 2.077-.52 3.042.446.594 1.114.89 1.782.89.445 0 .89-.148 1.262-.445.964-.742 1.187-2.077.519-3.042-.668-.965-2.078-1.187-3.043-.445zM469.252 321.202c-.965.742-1.187 2.077-.519 3.042.445.594 1.113.89 1.781.89.445 0 .891-.148 1.262-.445.965-.742 1.188-2.077.52-3.042-.669-.89-2.079-1.113-3.044-.445zM561.722 254.867c-.965.668-1.188 2.077-.52 3.042.446.594 1.114.89 1.782.89.445 0 .891-.148 1.262-.445.965-.742 1.187-2.077.519-3.042-.668-.89-2.004-1.113-3.043-.445zM548.512 264.365c-.964.667-1.187 2.077-.519 3.042.445.593 1.113.89 1.781.89.446 0 .891-.148 1.262-.445.965-.742 1.188-2.078.52-3.042-.668-.965-2.004-1.187-3.044-.445zM535.302 273.862c-.965.668-1.187 2.078-.519 3.042.445.594 1.113.891 1.781.891.445 0 .891-.149 1.262-.446.965-.667 1.188-2.077.52-3.042-.669-.964-2.079-1.187-3.044-.445zM522.092 283.286c-.965.741-1.187 2.077-.519 3.042.445.593 1.113.89 1.781.89.446 0 .891-.148 1.262-.445.965-.668 1.188-2.078.52-3.042-.668-.891-2.079-1.113-3.044-.445zM442.908 340.197c-.965.742-1.188 2.077-.52 3.042.446.594 1.114.89 1.782.89.445 0 .891-.148 1.262-.445.965-.742 1.187-2.077.519-3.042-.668-.965-2.078-1.187-3.043-.445zM456.117 330.699c-.964.668-1.187 2.078-.519 3.042.445.594 1.113.891 1.781.891.446 0 .891-.149 1.262-.446.965-.742 1.188-2.077.52-3.042-.668-.964-2.079-1.187-3.044-.445zM256.781 560.644c-.965-.742-2.375-.519-3.043.445-.743.965-.52 2.375.445 3.043.445.296.891.445 1.336.445.668 0 1.262-.297 1.707-.891.743-.89.52-2.3-.445-3.042zM266.429 547.585c-.965-.742-2.376-.519-3.044.445-.742.965-.519 2.375.446 3.042.445.297.891.446 1.336.446.668 0 1.262-.297 1.707-.891.742-.964.52-2.3-.445-3.042zM314.741 482.141c-.964-.742-2.375-.52-3.043.445-.742.964-.519 2.374.446 3.042.445.297.89.445 1.336.445.668 0 1.261-.297 1.707-.89.742-.891.519-2.3-.446-3.042zM276.076 534.526c-.965-.742-2.375-.52-3.043.445-.742.964-.52 2.374.445 3.042.372.297.891.445 1.336.445.669 0 1.262-.297 1.708-.89.742-.965.519-2.375-.446-3.042zM247.133 573.777c-.965-.742-2.375-.519-3.043.446-.743.964-.52 2.374.445 3.042.445.297.891.445 1.336.445.668 0 1.262-.297 1.707-.89.743-.965.52-2.375-.445-3.043zM285.724 521.392c-.965-.742-2.375-.519-3.043.446-.742.964-.519 2.374.445 3.042.446.297.891.445 1.337.445.668 0 1.261-.297 1.707-.89.742-.891.594-2.301-.446-3.043zM305.093 495.274c-.965-.742-2.375-.519-3.043.445-.742.965-.519 2.375.445 3.043.446.296.891.445 1.337.445.668 0 1.261-.297 1.707-.891.742-.964.519-2.374-.446-3.042zM237.485 586.836c-.965-.742-2.375-.519-3.043.446-.742.964-.52 2.374.445 3.042.446.297.891.445 1.411.445.668 0 1.262-.297 1.707-.89.668-.965.445-2.301-.52-3.043zM295.372 508.333c-.965-.742-2.375-.519-3.043.445-.743.965-.52 2.375.445 3.043.445.296.891.445 1.336.445.668 0 1.262-.297 1.707-.891.743-.964.594-2.3-.445-3.042zM179.599 665.34c-.965-.742-2.375-.52-3.043.445-.742.965-.52 2.374.445 3.042.446.297.891.445 1.336.445.668 0 1.262-.296 1.708-.89.668-.965.519-2.3-.446-3.042zM169.877 678.399c-.965-.742-2.375-.519-3.043.445-.742.965-.52 2.375.445 3.042.446.297.891.446 1.337.446.668 0 1.261-.297 1.707-.891.742-.89.594-2.3-.446-3.042zM324.389 469.082c-.965-.742-2.375-.52-3.043.445-.742.965-.52 2.374.445 3.042.446.297.891.445 1.336.445.668 0 1.262-.296 1.708-.89.742-.965.519-2.3-.446-3.042zM189.247 652.281c-.965-.742-2.375-.52-3.043.445-.743.965-.52 2.374.445 3.042.445.297.891.445 1.336.445.668 0 1.262-.297 1.707-.89.743-.965.52-2.374-.445-3.042zM160.23 691.532c-.965-.742-2.375-.519-3.043.445-.743.965-.52 2.375.445 3.043.445.296.891.445 1.336.445.668 0 1.262-.297 1.707-.891.743-.964.594-2.374-.445-3.042zM227.838 599.896c-.965-.742-2.375-.52-3.044.445-.742.965-.519 2.374.446 3.042.445.297.891.445 1.336.445.668 0 1.262-.296 1.707-.89.742-.89.52-2.3-.445-3.042zM218.19 613.029c-.965-.742-2.375-.519-3.043.445-.742.965-.52 2.375.445 3.042.446.297.891.446 1.336.446.668 0 1.262-.297 1.708-.891.742-.964.519-2.374-.446-3.042zM198.895 639.147c-.965-.742-2.375-.519-3.043.445-.743.965-.52 2.375.445 3.043.445.296.891.445 1.336.445.668 0 1.262-.297 1.707-.891.743-.964.52-2.3-.445-3.042zM208.543 626.088c-.965-.742-2.376-.519-3.044.445-.742.965-.519 2.375.446 3.043.445.296.89.445 1.336.445.668 0 1.262-.297 1.707-.891.742-.964.519-2.3-.445-3.042zM604.321 89.699c-.965-.742-2.375-.519-3.043.445-.743.965-.52 2.374.445 3.042.445.297.891.445 1.336.445.668 0 1.262-.297 1.707-.89.742-.965.52-2.374-.445-3.042zM546.435 168.202c-.965-.742-2.376-.519-3.044.445-.742.965-.519 2.375.446 3.042.371.297.89.446 1.336.446.668 0 1.262-.297 1.707-.891.668-.964.52-2.374-.445-3.042zM556.082 155.069c-.965-.742-2.375-.52-3.043.445-.742.964-.52 2.374.445 3.042.446.297.891.445 1.336.445.668 0 1.262-.297 1.708-.89.742-.965.519-2.3-.446-3.042zM565.73 142.01c-.965-.742-2.375-.52-3.044.445-.742.964-.519 2.374.446 3.042.445.297.891.445 1.336.445.668 0 1.262-.297 1.707-.89.742-.965.52-2.3-.445-3.042zM536.713 181.261c-.965-.742-2.376-.519-3.044.445-.742.965-.519 2.375.446 3.043.445.296.89.445 1.336.445.668 0 1.262-.297 1.707-.891.742-.964.594-2.3-.445-3.042zM613.969 76.565c-.965-.742-2.376-.519-3.044.445-.742.965-.519 2.374.446 3.042.445.297.89.445 1.336.445.668 0 1.262-.297 1.707-.89.742-.89.519-2.3-.445-3.042zM575.377 128.95c-.964-.742-2.375-.519-3.043.446-.742.964-.519 2.374.446 3.042.445.297.89.445 1.336.445.668 0 1.261-.297 1.707-.89.742-.965.519-2.375-.446-3.043zM594.673 102.758c-.965-.742-2.375-.52-3.043.445-.742.965-.52 2.374.445 3.042.446.297.891.445 1.336.445.668 0 1.262-.296 1.708-.89.742-.965.519-2.3-.446-3.042zM527.065 194.32c-.965-.742-2.375-.519-3.043.446-.742.964-.52 2.374.445 3.042.446.297.891.445 1.336.445.668 0 1.262-.297 1.708-.89.742-.965.593-2.301-.446-3.043zM585.026 115.817c-.965-.742-2.375-.519-3.043.445-.742.965-.52 2.375.445 3.043.446.296.891.445 1.336.445.668 0 1.262-.297 1.708-.891.742-.964.519-2.3-.446-3.042zM449.883 299.016c-.965-.742-2.375-.52-3.043.445-.742.965-.52 2.375.445 3.042.446.297.891.446 1.337.446.668 0 1.261-.297 1.707-.891.742-.964.519-2.3-.446-3.042zM478.826 259.764c-.965-.742-2.375-.519-3.043.446-.742.964-.52 2.374.445 3.042.445.297.891.445 1.336.445.668 0 1.262-.297 1.707-.89.743-.965.52-2.375-.445-3.043zM517.418 207.379c-.965-.742-2.376-.519-3.044.446-.742.964-.519 2.374.446 3.042.445.297.891.445 1.336.445.668 0 1.262-.297 1.707-.89.742-.891.52-2.301-.445-3.043zM469.178 272.824c-.964-.742-2.375-.52-3.043.445-.742.964-.519 2.374.446 3.042.445.297.89.445 1.336.445.668 0 1.262-.297 1.707-.89.742-.965.519-2.3-.446-3.042zM440.236 312.075c-.965-.742-2.376-.519-3.044.445-.742.965-.519 2.375.446 3.042.445.297.891.446 1.336.446.668 0 1.262-.297 1.707-.891.742-.964.52-2.3-.445-3.042zM459.531 285.883c-.965-.742-2.375-.52-3.043.445-.743.964-.52 2.374.445 3.042.445.297.891.445 1.336.445.668 0 1.262-.297 1.707-.89.743-.891.52-2.3-.445-3.042zM507.769 220.513c-.965-.742-2.375-.52-3.043.445-.742.965-.519 2.374.445 3.042.446.297.891.445 1.337.445.668 0 1.261-.297 1.707-.89.742-.965.519-2.3-.446-3.042zM488.474 246.631c-.965-.742-2.376-.519-3.044.445-.742.965-.519 2.375.446 3.043.445.296.89.445 1.336.445.668 0 1.262-.297 1.707-.891.742-.89.52-2.3-.445-3.042zM498.122 233.572c-.965-.742-2.375-.519-3.043.445-.743.965-.52 2.375.445 3.042.445.297.891.446 1.336.446.668 0 1.262-.297 1.707-.891.743-.964.52-2.3-.445-3.042zM334.556 456.319c-.965-.742-2.375-.519-3.043.446-.743.964-.52 2.374.445 3.042.445.296.891.445 1.336.445.668 0 1.262-.297 1.707-.89.743-.965.52-2.301-.445-3.043zM416.933 299.684c-1.113-.371-2.375.222-2.746 1.409-.371 1.113.223 2.375 1.41 2.746.223.074.446.148.668.148.891 0 1.782-.593 2.079-1.484.371-1.187-.223-2.374-1.411-2.819zM426.952 269.039c-1.113-.371-2.375.223-2.746 1.41-.371 1.113.223 2.374 1.41 2.745.223.074.445.149.668.149.891 0 1.782-.594 2.079-1.484.371-1.188-.297-2.449-1.411-2.82zM354.891 484.96c-1.114-.371-2.376.223-2.821 1.41-.371 1.187.223 2.374 1.41 2.819.223.075.446.149.668.149.891 0 1.782-.594 2.079-1.484.445-1.262-.223-2.523-1.336-2.894zM344.575 515.827c-1.113-.371-2.375.223-2.746 1.41-.371 1.113.223 2.374 1.41 2.819.223.075.446.075.668.075.891 0 1.782-.594 2.079-1.484.371-1.187-.223-2.449-1.411-2.82zM339.454 531.186c-1.113-.371-2.375.223-2.82 1.41-.371 1.113.222 2.375 1.41 2.82.223.074.445.074.668.074.891 0 1.782-.593 2.078-1.484.446-1.187-.222-2.374-1.336-2.82zM360.012 469.527c-1.188-.371-2.376.222-2.821 1.409-.371 1.113.223 2.375 1.41 2.746.223.074.446.148.668.148.891 0 1.782-.593 2.079-1.484.445-1.187-.149-2.448-1.336-2.819zM421.757 284.473c-1.113-.371-2.375.222-2.746 1.409-.371 1.113.222 2.375 1.41 2.82.223.074.445.074.668.074.891 0 1.782-.593 2.078-1.484.372-1.187-.222-2.448-1.41-2.819zM365.207 454.093c-1.113-.371-2.375.223-2.746 1.41-.371 1.113.222 2.374 1.41 2.745.223.074.445.149.668.149.891 0 1.782-.594 2.078-1.484.297-1.188-.296-2.449-1.41-2.82zM349.696 500.394c-1.114-.371-2.376.222-2.747 1.409s.223 2.375 1.41 2.82c.223.074.446.074.668.074.891 0 1.782-.594 2.079-1.484.371-1.187-.223-2.448-1.41-2.819zM308.583 623.788c-1.113-.371-2.375.222-2.82 1.41-.372 1.113.222 2.374 1.41 2.819.223.074.445.074.668.074.891 0 1.781-.593 2.078-1.484.446-1.187-.222-2.448-1.336-2.819zM303.387 639.147c-1.113-.371-2.375.223-2.746 1.41-.371 1.113.223 2.374 1.41 2.745.223.074.446.148.668.148.891 0 1.782-.593 2.079-1.484.371-1.187-.223-2.374-1.411-2.819zM313.703 608.354c-1.113-.371-2.375.223-2.82 1.41-.372 1.187.222 2.374 1.41 2.82.223.074.445.074.668.074.891 0 1.781-.594 2.078-1.484.446-1.187-.148-2.449-1.336-2.82zM324.019 577.487c-1.114-.371-2.376.223-2.821 1.41-.371 1.113.223 2.374 1.41 2.745.223.074.446.149.668.149.891 0 1.782-.594 2.079-1.484.445-1.188-.223-2.449-1.336-2.82zM329.139 562.054c-1.113-.371-2.375.222-2.746 1.409-.372 1.113.222 2.375 1.41 2.746.223.074.445.148.668.148.891 0 1.781-.593 2.078-1.484.371-1.187-.297-2.448-1.41-2.819zM318.824 592.921c-1.114-.371-2.376.222-2.747 1.409-.371 1.188.223 2.375 1.41 2.82.223.074.446.148.669.148.89 0 1.781-.593 2.078-1.484.371-1.261-.223-2.522-1.41-2.893zM334.26 546.62c-1.113-.371-2.375.223-2.746 1.41-.371 1.113.223 2.374 1.41 2.745.223.074.446.149.668.149.891 0 1.782-.594 2.079-1.484.371-1.187-.223-2.375-1.411-2.82zM473.261 130.212c-1.114-.371-2.376.222-2.747 1.409-.371 1.113.223 2.375 1.41 2.746.223.074.446.148.669.148.89 0 1.781-.593 2.078-1.484.371-1.187-.297-2.374-1.41-2.819zM488.697 83.985c-1.113-.371-2.375.223-2.82 1.41-.372 1.113.222 2.374 1.41 2.819.223.074.445.074.668.074.891 0 1.781-.594 2.078-1.484.446-1.187-.222-2.448-1.336-2.819zM483.576 99.419c-1.113-.371-2.375.223-2.746 1.409-.371 1.113.223 2.375 1.41 2.746.223.074.446.148.668.148.891 0 1.782-.593 2.079-1.484.297-1.187-.297-2.448-1.411-2.819zM493.818 68.552c-1.188-.371-2.376.223-2.821 1.41-.371 1.113.223 2.374 1.41 2.82.223.074.446.074.668.074.891 0 1.782-.594 2.079-1.484.445-1.187-.149-2.448-1.336-2.819zM504.133 37.684c-1.113-.371-2.375.223-2.821 1.41-.371 1.113.223 2.374 1.411 2.745.222.074.445.148.668.148.89 0 1.781-.594 2.078-1.484.445-1.187-.148-2.449-1.336-2.82zM499.013 53.118c-1.114-.371-2.376.223-2.747 1.41-.371 1.113.223 2.374 1.411 2.82.222.074.445.074.668.074.89 0 1.781-.594 2.078-1.484.371-1.187-.297-2.449-1.41-2.82zM509.254 22.251c-1.113-.371-2.375.223-2.746 1.41-.371 1.113.223 2.374 1.41 2.745.223.074.446.148.668.148.891 0 1.782-.594 2.079-1.484.371-1.187-.223-2.374-1.411-2.82zM432.072 253.605c-1.113-.371-2.375.223-2.82 1.41-.371 1.113.223 2.375 1.41 2.746.223.074.445.148.668.148.891 0 1.782-.594 2.079-1.484.445-1.187-.149-2.449-1.337-2.82zM478.382 114.852c-1.114-.371-2.375.223-2.821 1.41-.371 1.113.223 2.374 1.41 2.745.223.074.446.149.669.149.89 0 1.781-.594 2.078-1.484.445-1.262-.149-2.449-1.336-2.82zM442.388 222.738c-1.113-.371-2.375.223-2.821 1.41-.371 1.113.223 2.374 1.411 2.745.222.075.445.149.668.149.89 0 1.781-.594 2.078-1.484.445-1.187-.223-2.375-1.336-2.82zM468.14 145.645c-1.114-.371-2.376.223-2.747 1.41-.371 1.113.223 2.374 1.411 2.745.222.075.445.149.668.149.89 0 1.781-.594 2.078-1.484.297-1.187-.297-2.449-1.41-2.82zM447.509 207.379c-1.188-.371-2.375.223-2.821 1.41-.371 1.113.223 2.374 1.411 2.745.222.074.445.149.668.149.89 0 1.781-.594 2.078-1.484.445-1.187-.149-2.449-1.336-2.82zM437.193 238.172c-1.113-.371-2.375.222-2.746 1.41-.371 1.113.223 2.374 1.41 2.745.223.074.446.148.668.148.891 0 1.782-.593 2.079-1.484.371-1.187-.223-2.448-1.411-2.819zM452.63 191.946c-1.114-.371-2.376.222-2.747 1.409-.371 1.113.223 2.375 1.411 2.82.222.074.445.074.668.074.89 0 1.781-.594 2.078-1.484.371-1.187-.223-2.448-1.41-2.819zM462.946 161.079c-1.188-.371-2.376.222-2.821 1.409-.371 1.113.223 2.375 1.41 2.82.223.074.446.074.668.074.891 0 1.782-.593 2.079-1.484.445-1.187-.149-2.448-1.336-2.819zM457.825 176.512c-1.114-.371-2.375.223-2.821 1.41-.371 1.113.223 2.375 1.41 2.82.223.074.446.074.669.074.89 0 1.781-.594 2.078-1.484.445-1.187-.223-2.449-1.336-2.82zM369.956 438.511c-1.113-.371-2.375.223-2.746 1.41-.371 1.113.222 2.374 1.41 2.745.223.075.445.149.668.149.891 0 1.782-.594 2.078-1.484.372-1.187-.296-2.449-1.41-2.82z" fill="#EF4223"/><path d="M476.154 674.891c0-.149 0-.371-.074-.52v-.074l-.148-.519c-.074-.149-.149-.297-.297-.52-.074-.148-.223-.297-.371-.371 0 0-.074 0-.074-.074l-.371-.297s-.075 0-.075-.074l-.445-.223h-.074l-.445-.148h-.075c-.148 0-.297-.074-.519-.074h-40.81699999999999.074c-.149 0-.297 0-.52.074h-.074c-.148 0-.297.074-.445.148h-.074l-.446.223s-.074 0-.074.074l-.371.297-.074.074-.371.371c-.074.149-.223.297-.297.52-.074.148-.148.371-.148.519v.074c0 .149-.075.297-.075.52v29.16c0 1.633 1.336 2.894 2.895 2.894h40.743c1.41 0 2.597-.965 2.82-2.3.074-.223.074-.371.074-.594v-29.16c.148.074.148.074.148 0zm-42.598-2.597c.223.074.371.148.52.296-.149-.148-.297-.222-.52-.296l-.223-.075c.075 0 .149 0 .223.075zm-.519-.223c-.149 0-.297-.074-.52-.074.149.074.371.074.52.074zm39.555 0c.149 0 .297-.074.52-.074-.149.074-.297.074-.52.074z" fill="#fff"/><path d="M435.338 680.679l-2.078-1.558 2.078 1.558zM433.26 679.121l-2.523-1.781 2.523 1.781z" fill="#EF4223"/><path opacity=".05" d="M449.588 695.89l-14.323 11.055 25.381.075-11.058-11.13z" fill="#EF4223"/><path opacity=".9" d="M430.44 677.117l.297.223c-.817-.594-1.262-1.484-1.262-2.449v29.161c0 1.632 1.336 2.893 2.894 2.893h2.895v-25.079l-4.824-4.749z" fill="#EF4223"/><path opacity=".12" d="M469.179 681.495l-16.327 11.872-3.265 2.523 11.058 11.13 9.647-.075v-26.266l-1.113.816z" fill="#EF4223"/><path opacity=".05" d="M433.038 672.072c.222.074.371.074.519.148.148.074.371.148.52.297l18.701 13.653 18.702-13.653c.148-.074.297-.223.519-.297.149-.074.371-.148.52-.148h.074c.149 0 .297-.075.52-.075h-40.669.074c.149.075.371.075.52.075z" fill="#EF4223"/><path d="M475.487 676.746c-.148.223-.371.371-.593.52l-4.602 3.339v26.34h2.895c1.41 0 2.597-.89 2.82-2.226.074-.222.074-.371.074-.593v-29.161c.074.594-.148 1.262-.594 1.781z" fill="#EF4223"/><path opacity=".9" d="M476.155 674.891c0-.148 0-.371-.074-.519v-.075l-.149-.519c-.074-.148-.148-.297-.296-.519-.075-.149-.223-.297-.372-.371 0 0-.074 0-.074-.074l-.371-.297s-.074 0-.074-.074l-.445-.223h-.074l-.446-.148h-.074c-.148 0-.297-.075-.519-.075h-.075c-.148 0-.371 0-.519.075h-.074c-.149 0-.371.074-.52.148-.148.074-.297.148-.519.297l-.149.074-18.627 13.504-18.702-13.652c-.148-.149-.297-.223-.519-.297-.149-.075-.371-.149-.52-.149-.148 0-.297-.074-.519-.074h-.075c-.148 0-.296 0-.519.074h-.074c-.149 0-.297.074-.446.149h-.074l-.445.222s-.074 0-.074.075l-.371.296-.075.075-.371.371c-.074.148-.222.296-.296.519-.075.148-.149.371-.149.519v.074c0 .149-.074.297-.074.52v.074c0 .965.445 1.855 1.262 2.449l2.449 1.78 2.152 1.559 17.514 12.762 14.249-10.388 3.265-2.374 4.601-3.339c.817-.594 1.262-1.484 1.262-2.449z" fill="#EF4223"/><path d="M435.264 680.605l-2.078-1.484-2.449-1.781-.297-.223 4.824 4.749v-1.261z" fill="#EF4223"/><path opacity=".1" d="M449.588 695.89l-14.323-14.098v25.153l14.323-11.055z" fill="#EF4223"/><path opacity=".2" d="M435.265 681.792l14.323 14.098 3.266-2.523-17.589-12.688v1.113z" fill="#EF4223"/><path d="M427.04 39.376c0-.148 0-.371-.075-.519v-.074l-.148-.519c-.074-.148-.148-.297-.297-.519-.074-.148-.223-.297-.371-.371 0 0-.074 0-.074-.074l-.371-.297s-.074 0-.074-.074l-.446-.223h-.074l-.445-.148h-.074c-.149 0-.297-.074-.52-.074h-40.81699999999999.074c-.148 0-.297 0-.519.074h-.075c-.148 0-.296.074-.445.148h-.074l-.445.223s-.075 0-.075.074l-.371.297-.074.074-.371.371c-.074.148-.222.297-.297.519-.074.148-.148.371-.148.519v.074c0 .148-.074.297-.074.519v29.16c0 1.632 1.335 2.894 2.894 2.894h40.743c1.41 0 2.597-.965 2.82-2.3.074-.223.074-.371.074-.594v-29.16c.149.074.149.074.149 0zm-42.599-2.597c.223.074.371.148.52.297-.149-.148-.297-.223-.52-.297l-.222-.074c.074 0 .148 0 .222.074zm-.519-.223c-.149 0-.297-.074-.52-.074.149.074.371.074.52.074zm39.555 0c.149 0 .297-.074.52-.074-.149.074-.297.074-.52.074z" fill="#fff"/><path d="M386.223 45.164l-2.078-1.558 2.078 1.558zM384.145 43.606l-2.523-1.781 2.523 1.781z" fill="#EF4223"/><path opacity=".05" d="M400.474 60.375l-14.324 11.056 25.381.074-11.057-11.13z" fill="#EF4223"/><path opacity=".9" d="M381.325 41.602l.297.223c-.817-.594-1.262-1.484-1.262-2.449v29.16c0 1.632 1.336 2.894 2.894 2.894h2.895v-25.08l-4.824-4.749z" fill="#EF4223"/><path opacity=".12" d="M420.064 45.98l-16.327 11.872-3.265 2.523 11.058 11.13 9.647-.074v-26.267l-1.113.816z" fill="#EF4223"/><path opacity=".05" d="M383.923 36.557c.222.074.371.074.519.148.149.074.371.148.52.297l18.701 13.653 18.702-13.653c.149-.074.297-.223.52-.297.148-.074.371-.148.519-.148h.074c.149 0 .297-.074.52-.074h-40.669.074c.149.074.371.074.52.074z" fill="#EF4223"/><path d="M426.373 41.231c-.149.223-.372.371-.594.519l-4.601 3.339v26.341h2.894c1.41 0 2.597-.89 2.82-2.226.074-.223.074-.371.074-.594v-29.16c.074.594-.148 1.261-.593 1.781z" fill="#EF4223"/><path opacity=".9" d="M427.04 39.376c0-.148 0-.371-.074-.519v-.074l-.148-.519c-.075-.148-.149-.297-.297-.519-.074-.148-.223-.297-.371-.371 0 0-.075 0-.075-.074l-.371-.297s-.074 0-.074-.074l-.445-.223h-.074l-.446-.148h-.074c-.148 0-.297-.074-.519-.074h-.074c-.149 0-.372 0-.52.074h-.074c-.149 0-.371.074-.52.148-.148.074-.297.148-.519.297l-.149.074-18.627 13.504-18.702-13.653c-.148-.148-.297-.223-.519-.297-.149-.074-.371-.148-.52-.148-.148 0-.297-.074-.519-.074h-.074c-.149 0-.297 0-.52.074h-.074c-.149 0-.297.074-.445.148h-.075l-.445.223s-.074 0-.074.074l-.371.297-.074.074-.371.371c-.075.148-.223.297-.297.519-.075.148-.149.371-.149.519v.074c0 .148-.074.297-.074.519v.074c0 .965.445 1.855 1.262 2.449l2.449 1.781 2.152 1.558 17.514 12.762 14.249-10.388 3.265-2.374 4.602-3.339c.816-.594 1.261-1.484 1.261-2.449z" fill="#EF4223"/><path d="M386.15 45.09l-2.079-1.484-2.449-1.781-.297-.223 4.825 4.749v-1.261z" fill="#EF4223"/><path opacity=".1" d="M400.473 60.375l-14.323-14.098v25.153l14.323-11.056z" fill="#EF4223"/><path opacity=".2" d="M386.15 46.277l14.323 14.098 3.266-2.523-17.589-12.688v1.113z" fill="#EF4223"/><defs><radialGradient id="a" cx="0" cy="0" r="1" gradientUnits="userSpaceOnUse" gradientTransform="translate(390.959 379.894) scale(374.331 374.263)"><stop offset=".748" stop-color="#fff"/><stop offset="1" stop-color="#FFFDE4"/></radialGradient><radialGradient id="b" cx="0" cy="0" r="1" gradientUnits="userSpaceOnUse" gradientTransform="translate(390.958 379.931) scale(249.708 249.663)"><stop offset=".002" stop-color="#FFFDE4"/><stop offset=".999" stop-color="#F7931E"/></radialGradient><radialGradient id="c" cx="0" cy="0" r="1" gradientUnits="userSpaceOnUse" gradientTransform="translate(390.958 379.931) scale(250.087 250.042)"><stop offset=".002" stop-color="#FFFDE4"/><stop offset=".999" stop-color="#F7931E"/></radialGradient><radialGradient id="d" cx="0" cy="0" r="1" gradientUnits="userSpaceOnUse" gradientTransform="translate(390.958 379.893) scale(40.224 40.216)"><stop offset=".29" stop-color="#fff"/><stop offset=".998" stop-color="#EF4223"/></radialGradient></defs></svg>