<svg width="431" height="275" viewBox="0 0 431 275" xmlns="http://www.w3.org/2000/svg" fill="none"><path fill-rule="evenodd" clip-rule="evenodd" d="M0 163.356c0-8.513 3.944-16.119 10.098-21.097-7.84-6.332-11.274-16.133-9.729-25.621 2.098-12.894 14.088-22.617 27.891-22.617h57.432l-1.787-5.364c-10.218-30.647-.729-63.395 21.761-82.554 12.562-10.837 33.993-7.224 40.576 10.705.459 1.249.491 2.616.092 3.886-5.008 15.93-5.079 26.642-.245 36.971 5.013 10.713 15.797 21.962 36.06 37.613 4.861 3.754 9.111 6.05 13.221 8.269l.006.003c6.476 3.498 12.625 6.819 18.982 14.587h317.642v12.058h-320.594c-1.917 0-3.719-.911-4.855-2.454-5.439-7.387-10.249-9.985-16.907-13.58-4.324-2.336-9.226-4.983-14.868-9.339-41.279-31.885-50.725-51.42-40.611-85.566-3.998-7.687-13.97-9.76-21.052-3.644-19.216 16.798-26.192 43.974-17.77 69.233l3.057 9.177h7.713c3.329 0 6.029 2.699 6.029 6.029s-2.7 6.029-6.029 6.029h-77.854c-7.956 0-14.83 5.372-15.989 12.497-1.571 9.646 5.842 17.649 14.861 17.649h57.88c3.329 0 6.029 2.699 6.029 6.029s-2.7 6.029-6.029 6.029h-57.88c-8.311 0-15.073 6.762-15.073 15.073.001 8.33 6.739 15.072 15.073 15.072h57.88c3.329 0 6.029 2.699 6.029 6.029s-2.7 6.029-6.029 6.029h-45.821c-8.311 0-15.073 6.762-15.073 15.073 0 8.331 6.739 15.073 15.073 15.073h45.821c3.329 0 6.029 2.699 6.029 6.029s-2.7 6.029-6.029 6.029h-21.705c-8.311 0-15.073 6.762-15.073 15.073 0 8.331 6.739 15.073 15.073 15.073h75.593c21.341 0 41.647-7.989 57.177-22.494 1.117-1.043 2.588-1.623 4.116-1.623h331.808v12.058h-329.474c-17.529 15.57-40.027 24.116-63.627 24.116h-75.593c-14.997 0-27.131-12.132-27.131-27.131 0-5.573 1.691-10.759 4.584-15.073h-1.57c-14.997 0-27.131-12.132-27.131-27.131 0-6.297 2.162-12.094 5.775-16.704-10.303-3.748-17.833-13.667-17.833-25.499z" fill="#C7C7C7"/></svg>