<svg xmlns="http://www.w3.org/2000/svg" width="72" height="72" viewBox="0 0 72 72"><path fill="#90278E" d="M35 72h-.2c-1.1 0-1.9-.9-1.9-2s.9-1.9 2-1.9h.1c1.1 0 1.9.9 1.9 2s-.8 1.9-1.9 1.9zm10.6-1.4c-.9 0-1.6-.6-1.9-1.4-.3-1 .3-2.1 1.3-2.4 1-.3 2.1.3 2.4 1.3.3 1-.2 2.1-1.3 2.4h-.1c-.1.1-.2.1-.4.1zm-21.1-.6c-.2 0-.5 0-.7-.1l.7-1.8-.7 1.8c-1-.4-1.6-1.5-1.2-2.5.3-1 1.4-1.6 2.5-1.2l.2.1c1 .4 1.5 1.5 1.1 2.5-.4.7-1.2 1.2-1.9 1.2zm30.8-4c-.6 0-1.2-.3-1.6-.8-.6-.9-.4-2.1.5-2.7l.1-.1c.9-.6 2.1-.4 2.7.5.6.9.4 2.1-.5 2.7l-1.1-1.6 1.1 1.6c-.4.3-.8.4-1.2.4zm-40.3-1.2c-.4 0-.8-.1-1.2-.4l-.1-.1c-.8-.7-1-1.9-.3-2.7.7-.8 1.9-1 2.7-.3.8.7 1 1.9.4 2.8-.4.4-.9.7-1.5.7zm48.1-6.2c-.4 0-.8-.1-1.1-.4-.9-.6-1.1-1.8-.4-2.7l.1-.1c.7-.8 1.9-1 2.7-.3.8.7 1 1.9.3 2.7l-1.5-1.2 1.5 1.2c-.4.5-1 .8-1.6.8zm-55.4-1.7c-.6 0-1.2-.3-1.6-.8l-.1-.1c-.6-.9-.3-2.1.6-2.7.9-.6 2.1-.3 2.7.6.6.9.4 2.1-.5 2.7-.4.2-.8.3-1.1.3zm60.5-7.8c-.2 0-.4 0-.6-.1-1-.3-1.6-1.4-1.2-2.5v-.1c.3-1 1.5-1.6 2.5-1.2 1 .3 1.6 1.5 1.2 2.5v.1c-.3.8-1.1 1.3-1.9 1.3zm-65-1.9c-.9 0-1.6-.6-1.9-1.4v-.1c-.3-1 .3-2.1 1.3-2.4 1-.3 2.1.3 2.4 1.3v.1c.3 1-.3 2.1-1.4 2.4-.1 0-.2.1-.4.1zm66.9-8.7c-1.1 0-1.9-.9-1.9-1.9v-.1c0-1.1.9-1.9 1.9-1.9 1.1 0 1.9.9 1.9 1.9v.1c0 1-.9 1.9-1.9 1.9zm-68.1-2c-1.2 0-2-1-1.9-2v-.1c0-1.1 1-1.9 2-1.9 1.1 0 1.9 1 1.9 2v.1c-.1 1.1-1 1.9-2 1.9zm66.5-8.6c-.8 0-1.6-.5-1.9-1.4-.3-1 .2-2.2 1.3-2.5 1-.3 2.1.2 2.4 1.2v.1c.3 1-.3 2.1-1.3 2.4-.1.2-.3.2-.5.2zm-64.4-2c-.2 0-.5 0-.7-.1-1-.4-1.5-1.5-1.1-2.5v-.1c.4-1 1.5-1.5 2.5-1.1 1 .4 1.5 1.5 1.1 2.5v.1c-.3.8-1 1.2-1.8 1.2zm59.7-7.7c-.6 0-1.2-.3-1.6-.9-.6-.9-.4-2.1.5-2.7.9-.6 2-.5 2.7.4l.1.1c.6.9.4 2.1-.5 2.7-.5.3-.8.4-1.2.4zm-54.3-1.6c-.4 0-.9-.1-1.2-.4-.8-.7-1-1.9-.3-2.7.7-.8 1.9-1 2.7-.3.8.7 1 1.9.3 2.7-.4.5-1 .7-1.5.7zm46.7-6c-.4 0-.8-.1-1.1-.4l-.1-.1c-.9-.6-1.1-1.9-.4-2.7.6-.9 1.9-1.1 2.7-.4.9.6 1.1 1.9.4 2.7-.3.6-.9.9-1.5.9zm-38.8-1.2c-.6 0-1.3-.3-1.6-.9-.6-.9-.3-2.1.6-2.7l1.1 1.6-1-1.7c.9-.6 2.1-.4 2.7.5.6.9.4 2.1-.5 2.7l-.1.1c-.4.3-.8.4-1.2.4zm29.3-3.8c-.2 0-.4 0-.6-.1-1-.3-1.6-1.4-1.3-2.5.3-1 1.4-1.6 2.4-1.3h.1c1 .3 1.6 1.5 1.2 2.5-.2.9-1 1.4-1.8 1.4zm-19.4-.6c-.9 0-1.7-.6-1.9-1.5-.3-1 .4-2.1 1.4-2.4l.5 1.9-.4-1.9c1-.3 2.1.3 2.4 1.4.3 1-.3 2.1-1.4 2.4h-.1c-.2.1-.4.1-.5.1zm8.8-1.1c-1.2 0-2-.9-2-1.9s.8-2 1.9-2h.1c1.1 0 1.9.9 1.9 1.9s-.8 2-1.9 2z"/></svg>