<svg width="544" height="457" viewBox="0 0 544 457" fill="none" xmlns="http://www.w3.org/2000/svg">
<path d="M219 253.502C288.036 253.502 344 196.866 344 127.002C344 57.1379 288.036 0.501953 219 0.501953C149.964 0.501953 94 57.1379 94 127.002C94 196.866 149.964 253.502 219 253.502Z" fill="#F0F0F4"/>
<g filter="url(#filter0_d)">
<rect x="188" y="48.502" width="242" height="349" rx="16" fill="white"/>
</g>
<path fill-rule="evenodd" clip-rule="evenodd" d="M225.731 213.503C225.731 212.951 226.428 212.503 227.287 212.503H392.176C393.035 212.503 393.731 212.951 393.731 213.503C393.731 214.055 393.035 214.503 392.176 214.503H227.287C226.428 214.503 225.731 214.055 225.731 213.503Z" fill="#231F20"/>
<path d="M233.576 198.028C234.186 198.208 234.656 198.523 234.986 198.973C235.326 199.413 235.496 199.958 235.496 200.608C235.496 201.498 235.166 202.203 234.506 202.723C233.856 203.243 232.956 203.503 231.806 203.503H227.876C227.526 203.503 227.256 203.408 227.066 203.218C226.876 203.028 226.781 202.758 226.781 202.408V194.023C226.781 193.673 226.876 193.403 227.066 193.213C227.256 193.023 227.526 192.928 227.876 192.928H231.656C232.756 192.928 233.626 193.173 234.266 193.663C234.916 194.153 235.241 194.823 235.241 195.673C235.241 196.223 235.091 196.708 234.791 197.128C234.501 197.538 234.096 197.838 233.576 198.028ZM229.061 197.233H231.266C231.866 197.233 232.306 197.133 232.586 196.933C232.876 196.723 233.021 196.408 233.021 195.988C233.021 195.548 232.876 195.228 232.586 195.028C232.306 194.818 231.866 194.713 231.266 194.713H229.061V197.233ZM231.536 201.718C232.156 201.718 232.606 201.613 232.886 201.403C233.166 201.193 233.306 200.853 233.306 200.383C233.306 199.913 233.166 199.568 232.886 199.348C232.606 199.128 232.156 199.018 231.536 199.018H229.061V201.718H231.536ZM238.293 203.593C237.933 203.593 237.648 203.488 237.438 203.278C237.228 203.068 237.123 202.783 237.123 202.423V194.008C237.123 193.658 237.228 193.378 237.438 193.168C237.648 192.958 237.933 192.853 238.293 192.853C238.653 192.853 238.938 192.958 239.148 193.168C239.358 193.378 239.463 193.658 239.463 194.008V202.423C239.463 202.783 239.358 203.068 239.148 203.278C238.938 203.488 238.653 203.593 238.293 203.593ZM242.342 200.368C241.632 200.368 241.277 200.073 241.277 199.483C241.277 198.893 241.632 198.598 242.342 198.598H245.282C245.992 198.598 246.347 198.893 246.347 199.483C246.347 200.073 245.992 200.368 245.282 200.368H242.342ZM249.263 203.503C248.913 203.503 248.643 203.408 248.453 203.218C248.263 203.028 248.168 202.758 248.168 202.408V194.023C248.168 193.673 248.263 193.403 248.453 193.213C248.643 193.023 248.913 192.928 249.263 192.928H252.278C253.428 192.928 254.418 193.138 255.248 193.558C256.078 193.978 256.713 194.583 257.153 195.373C257.593 196.163 257.813 197.108 257.813 198.208C257.813 199.308 257.593 200.258 257.153 201.058C256.723 201.848 256.093 202.453 255.263 202.873C254.433 203.293 253.438 203.503 252.278 203.503H249.263ZM252.113 201.613C254.363 201.613 255.488 200.478 255.488 198.208C255.488 195.948 254.363 194.818 252.113 194.818H250.508V201.613H252.113ZM260.779 203.593C260.419 203.593 260.134 203.488 259.924 203.278C259.714 203.068 259.609 202.783 259.609 202.423V194.008C259.609 193.658 259.714 193.378 259.924 193.168C260.134 192.958 260.419 192.853 260.779 192.853C261.139 192.853 261.424 192.958 261.634 193.168C261.844 193.378 261.949 193.658 261.949 194.008V202.423C261.949 202.783 261.844 203.068 261.634 203.278C261.424 203.488 261.139 203.593 260.779 203.593ZM272.717 202.018C272.867 202.238 272.942 202.453 272.942 202.663C272.942 202.943 272.827 203.173 272.597 203.353C272.377 203.533 272.117 203.623 271.817 203.623C271.627 203.623 271.442 203.578 271.262 203.488C271.082 203.398 270.932 203.258 270.812 203.068L268.832 200.128C268.662 199.868 268.482 199.683 268.292 199.573C268.102 199.453 267.862 199.393 267.572 199.393H266.357V202.423C266.357 202.783 266.252 203.068 266.042 203.278C265.842 203.488 265.567 203.593 265.217 203.593C264.857 203.593 264.572 203.488 264.362 203.278C264.152 203.068 264.047 202.783 264.047 202.423V194.023C264.047 193.673 264.142 193.403 264.332 193.213C264.522 193.023 264.792 192.928 265.142 192.928H268.907C270.147 192.928 271.082 193.203 271.712 193.753C272.352 194.293 272.672 195.078 272.672 196.108C272.672 196.918 272.447 197.593 271.997 198.133C271.547 198.673 270.912 199.028 270.092 199.198C270.392 199.258 270.657 199.378 270.887 199.558C271.127 199.728 271.357 199.978 271.577 200.308L272.717 202.018ZM268.562 197.623C269.232 197.623 269.717 197.508 270.017 197.278C270.317 197.038 270.467 196.668 270.467 196.168C270.467 195.658 270.317 195.288 270.017 195.058C269.717 194.828 269.232 194.713 268.562 194.713H266.327V197.623H268.562ZM275.66 203.503C275.31 203.503 275.04 203.408 274.85 203.218C274.66 203.028 274.565 202.758 274.565 202.408V194.023C274.565 193.673 274.66 193.403 274.85 193.213C275.04 193.023 275.31 192.928 275.66 192.928H280.97C281.71 192.928 282.08 193.228 282.08 193.828C282.08 194.438 281.71 194.743 280.97 194.743H276.845V197.218H280.67C281.41 197.218 281.78 197.523 281.78 198.133C281.78 198.733 281.41 199.033 280.67 199.033H276.845V201.688H280.97C281.71 201.688 282.08 201.993 282.08 202.603C282.08 203.203 281.71 203.503 280.97 203.503H275.66ZM288.316 203.638C287.276 203.638 286.366 203.418 285.586 202.978C284.806 202.538 284.206 201.908 283.786 201.088C283.366 200.268 283.156 199.308 283.156 198.208C283.156 197.108 283.366 196.153 283.786 195.343C284.206 194.523 284.806 193.893 285.586 193.453C286.366 193.013 287.276 192.793 288.316 192.793C289.626 192.793 290.756 193.153 291.706 193.873C291.856 193.993 291.961 194.113 292.021 194.233C292.081 194.353 292.111 194.503 292.111 194.683C292.111 194.943 292.036 195.168 291.886 195.358C291.746 195.538 291.571 195.628 291.361 195.628C291.221 195.628 291.096 195.613 290.986 195.583C290.886 195.543 290.771 195.478 290.641 195.388C290.241 195.128 289.871 194.943 289.531 194.833C289.191 194.713 288.826 194.653 288.436 194.653C287.476 194.653 286.751 194.953 286.261 195.553C285.781 196.143 285.541 197.028 285.541 198.208C285.541 200.588 286.506 201.778 288.436 201.778C288.806 201.778 289.156 201.723 289.486 201.613C289.816 201.493 290.201 201.303 290.641 201.043C290.791 200.953 290.916 200.893 291.016 200.863C291.116 200.823 291.231 200.803 291.361 200.803C291.571 200.803 291.746 200.898 291.886 201.088C292.036 201.268 292.111 201.488 292.111 201.748C292.111 201.928 292.076 202.083 292.006 202.213C291.946 202.333 291.846 202.448 291.706 202.558C290.756 203.278 289.626 203.638 288.316 203.638ZM297.091 203.578C296.741 203.578 296.456 203.473 296.236 203.263C296.026 203.053 295.921 202.773 295.921 202.423V194.833H293.491C292.751 194.833 292.381 194.513 292.381 193.873C292.381 193.243 292.751 192.928 293.491 192.928H300.691C301.431 192.928 301.801 193.243 301.801 193.873C301.801 194.513 301.431 194.833 300.691 194.833H298.261V202.423C298.261 202.773 298.156 203.053 297.946 203.263C297.736 203.473 297.451 203.578 297.091 203.578ZM303.977 203.593C303.617 203.593 303.332 203.488 303.122 203.278C302.912 203.068 302.807 202.783 302.807 202.423V194.008C302.807 193.658 302.912 193.378 303.122 193.168C303.332 192.958 303.617 192.853 303.977 192.853C304.337 192.853 304.622 192.958 304.832 193.168C305.042 193.378 305.147 193.658 305.147 194.008V202.423C305.147 202.783 305.042 203.068 304.832 203.278C304.622 203.488 304.337 203.593 303.977 203.593ZM312.105 203.638C311.055 203.638 310.14 203.418 309.36 202.978C308.59 202.528 307.995 201.898 307.575 201.088C307.155 200.268 306.945 199.308 306.945 198.208C306.945 197.108 307.155 196.153 307.575 195.343C307.995 194.523 308.59 193.893 309.36 193.453C310.14 193.013 311.055 192.793 312.105 192.793C313.155 192.793 314.065 193.013 314.835 193.453C315.615 193.893 316.215 194.523 316.635 195.343C317.055 196.153 317.265 197.108 317.265 198.208C317.265 199.308 317.055 200.268 316.635 201.088C316.215 201.898 315.615 202.528 314.835 202.978C314.065 203.418 313.155 203.638 312.105 203.638ZM312.105 201.823C312.985 201.823 313.675 201.513 314.175 200.893C314.685 200.273 314.94 199.378 314.94 198.208C314.94 197.038 314.69 196.148 314.19 195.538C313.69 194.918 312.995 194.608 312.105 194.608C311.215 194.608 310.52 194.918 310.02 195.538C309.53 196.148 309.285 197.038 309.285 198.208C309.285 199.378 309.535 200.273 310.035 200.893C310.535 201.513 311.225 201.823 312.105 201.823ZM327.122 192.853C327.452 192.853 327.717 192.963 327.917 193.183C328.127 193.393 328.232 193.668 328.232 194.008V202.423C328.232 202.773 328.127 203.058 327.917 203.278C327.717 203.488 327.452 203.593 327.122 203.593C326.762 203.593 326.472 203.463 326.252 203.203L321.227 196.768V202.423C321.227 202.773 321.127 203.058 320.927 203.278C320.737 203.488 320.477 203.593 320.147 203.593C319.817 203.593 319.552 203.488 319.352 203.278C319.152 203.058 319.052 202.773 319.052 202.423V194.008C319.052 193.668 319.152 193.393 319.352 193.183C319.562 192.963 319.832 192.853 320.162 192.853C320.532 192.853 320.817 192.983 321.017 193.243L326.042 199.633V194.008C326.042 193.668 326.142 193.393 326.342 193.183C326.542 192.963 326.802 192.853 327.122 192.853ZM340.186 202.078C340.266 202.258 340.306 202.418 340.306 202.558C340.306 202.838 340.191 203.078 339.961 203.278C339.741 203.468 339.486 203.563 339.196 203.563C339.006 203.563 338.826 203.513 338.656 203.413C338.486 203.303 338.356 203.143 338.266 202.933L337.471 201.163H332.386L331.591 202.933C331.501 203.143 331.371 203.303 331.201 203.413C331.041 203.513 330.861 203.563 330.661 203.563C330.371 203.563 330.111 203.468 329.881 203.278C329.651 203.078 329.536 202.838 329.536 202.558C329.536 202.418 329.576 202.258 329.656 202.078L333.706 193.573C333.816 193.333 333.981 193.153 334.201 193.033C334.421 192.903 334.656 192.838 334.906 192.838C335.166 192.838 335.406 192.903 335.626 193.033C335.846 193.163 336.016 193.343 336.136 193.573L340.186 202.078ZM336.676 199.393L334.936 195.493L333.181 199.393H336.676ZM342.691 203.503C342.341 203.503 342.071 203.408 341.881 203.218C341.691 203.028 341.596 202.758 341.596 202.408V194.008C341.596 193.658 341.701 193.378 341.911 193.168C342.121 192.958 342.406 192.853 342.766 192.853C343.126 192.853 343.411 192.958 343.621 193.168C343.831 193.378 343.936 193.658 343.936 194.008V201.598H347.776C348.506 201.598 348.871 201.918 348.871 202.558C348.871 203.188 348.506 203.503 347.776 203.503H342.691ZM358.048 203.638C357.258 203.638 356.523 203.548 355.843 203.368C355.163 203.178 354.608 202.913 354.177 202.573C354.028 202.463 353.918 202.348 353.848 202.228C353.788 202.098 353.758 201.938 353.758 201.748C353.758 201.498 353.833 201.278 353.983 201.088C354.143 200.898 354.323 200.803 354.523 200.803C354.633 200.803 354.738 200.823 354.838 200.863C354.948 200.893 355.078 200.953 355.228 201.043C355.658 201.313 356.093 201.513 356.533 201.643C356.973 201.763 357.458 201.823 357.988 201.823C358.648 201.823 359.153 201.713 359.503 201.493C359.853 201.273 360.028 200.958 360.028 200.548C360.028 200.238 359.863 199.988 359.533 199.798C359.213 199.608 358.638 199.428 357.808 199.258C356.878 199.068 356.133 198.838 355.573 198.568C355.023 198.298 354.618 197.963 354.358 197.563C354.108 197.163 353.983 196.678 353.983 196.108C353.983 195.478 354.163 194.913 354.523 194.413C354.893 193.903 355.398 193.508 356.038 193.228C356.688 192.938 357.418 192.793 358.228 192.793C359.648 192.793 360.818 193.148 361.738 193.858C361.888 193.978 361.993 194.103 362.053 194.233C362.123 194.353 362.158 194.503 362.158 194.683C362.158 194.933 362.078 195.153 361.918 195.343C361.768 195.533 361.593 195.628 361.393 195.628C361.283 195.628 361.178 195.613 361.078 195.583C360.988 195.553 360.858 195.488 360.688 195.388C360.278 195.128 359.898 194.933 359.548 194.803C359.208 194.673 358.773 194.608 358.243 194.608C357.633 194.608 357.153 194.728 356.803 194.968C356.453 195.198 356.278 195.518 356.278 195.928C356.278 196.168 356.343 196.368 356.473 196.528C356.613 196.678 356.838 196.813 357.147 196.933C357.468 197.053 357.918 197.178 358.498 197.308C359.858 197.608 360.833 197.993 361.423 198.463C362.023 198.933 362.323 199.578 362.323 200.398C362.323 201.038 362.143 201.603 361.783 202.093C361.433 202.583 360.933 202.963 360.283 203.233C359.643 203.503 358.898 203.638 358.048 203.638ZM370.3 193.228C370.52 192.968 370.78 192.838 371.08 192.838C371.36 192.838 371.61 192.948 371.83 193.168C372.06 193.378 372.175 193.623 372.175 193.903C372.175 194.153 372.08 194.388 371.89 194.608L368.605 198.508V202.423C368.605 202.803 368.495 203.093 368.275 203.293C368.055 203.493 367.78 203.593 367.45 203.593C367.1 203.593 366.815 203.493 366.595 203.293C366.375 203.093 366.265 202.803 366.265 202.423V198.508L363.01 194.608C362.82 194.408 362.725 194.173 362.725 193.903C362.725 193.623 362.83 193.378 363.04 193.168C363.26 192.948 363.51 192.838 363.79 192.838C364.09 192.838 364.35 192.968 364.57 193.228L367.435 196.723L370.3 193.228ZM381.321 192.853C381.651 192.853 381.916 192.963 382.116 193.183C382.326 193.393 382.431 193.668 382.431 194.008V202.423C382.431 202.773 382.326 203.058 382.116 203.278C381.916 203.488 381.651 203.593 381.321 203.593C380.961 203.593 380.671 203.463 380.451 203.203L375.426 196.768V202.423C375.426 202.773 375.326 203.058 375.126 203.278C374.936 203.488 374.676 203.593 374.346 203.593C374.016 203.593 373.751 203.488 373.551 203.278C373.351 203.058 373.251 202.773 373.251 202.423V194.008C373.251 193.668 373.351 193.393 373.551 193.183C373.761 192.963 374.031 192.853 374.361 192.853C374.731 192.853 375.016 192.983 375.216 193.243L380.241 199.633V194.008C380.241 193.668 380.341 193.393 380.541 193.183C380.741 192.963 381.001 192.853 381.321 192.853ZM389.39 203.638C388.35 203.638 387.44 203.418 386.66 202.978C385.88 202.538 385.28 201.908 384.86 201.088C384.44 200.268 384.23 199.308 384.23 198.208C384.23 197.108 384.44 196.153 384.86 195.343C385.28 194.523 385.88 193.893 386.66 193.453C387.44 193.013 388.35 192.793 389.39 192.793C390.7 192.793 391.83 193.153 392.78 193.873C392.93 193.993 393.035 194.113 393.095 194.233C393.155 194.353 393.185 194.503 393.185 194.683C393.185 194.943 393.11 195.168 392.96 195.358C392.82 195.538 392.645 195.628 392.435 195.628C392.295 195.628 392.17 195.613 392.06 195.583C391.96 195.543 391.845 195.478 391.715 195.388C391.315 195.128 390.945 194.943 390.605 194.833C390.265 194.713 389.9 194.653 389.51 194.653C388.55 194.653 387.825 194.953 387.335 195.553C386.855 196.143 386.615 197.028 386.615 198.208C386.615 200.588 387.58 201.778 389.51 201.778C389.88 201.778 390.23 201.723 390.56 201.613C390.89 201.493 391.275 201.303 391.715 201.043C391.865 200.953 391.99 200.893 392.09 200.863C392.19 200.823 392.305 200.803 392.435 200.803C392.645 200.803 392.82 200.898 392.96 201.088C393.11 201.268 393.185 201.488 393.185 201.748C393.185 201.928 393.15 202.083 393.08 202.213C393.02 202.333 392.92 202.448 392.78 202.558C391.83 203.278 390.7 203.638 389.39 203.638Z" fill="#231F20"/>
<path d="M315.629 156.703H301.086C297.386 156.703 294.374 153.68 294.374 149.965C294.374 146.69 296.71 143.956 299.798 143.35C300.961 139.358 304.67 136.487 308.917 136.487C312.271 136.487 315.372 138.278 317.067 141.119C320.721 141.791 323.459 145.01 323.459 148.842C323.459 153.177 319.947 156.703 315.629 156.703Z" fill="url(#paint0_linear)"/>
<path d="M308.873 124.766C313.334 124.766 317.375 125.931 320.992 128.222L319.029 130.276C317.786 131.522 318.664 133.654 320.418 133.671L328.49 134.719H328.511C329.61 134.719 330.502 133.827 330.502 132.728V132.714L329.769 124.333C329.757 122.569 327.612 121.693 326.369 122.94L324.056 125.252C319.642 122.248 314.403 120.575 308.873 120.575C293.902 120.575 281.723 132.747 281.723 147.71C281.723 150.36 282.112 152.996 282.881 155.547C283.145 156.43 284.059 156.964 284.893 156.964H284.912L285.548 156.887L285.574 156.879C286.625 156.561 287.223 155.452 286.907 154.398L286.907 154.398C286.249 152.221 285.916 149.97 285.916 147.71C285.916 134.943 296.099 124.766 308.873 124.766Z" fill="#C7C7C7"/>
<path d="M308.836 170.7C304.376 170.679 300.341 169.494 296.735 167.185L298.708 165.139C299.956 163.898 299.089 161.761 297.335 161.736L289.268 160.65L289.248 160.65C288.148 160.644 287.252 161.532 287.247 162.632L287.247 162.645L287.941 171.035C287.944 172.8 290.085 173.686 291.334 172.443L293.657 170.142C298.057 173.168 303.287 174.866 308.816 174.892C323.786 174.963 336.021 162.842 336.092 147.873C336.104 145.221 335.727 142.582 334.97 140.027C334.71 139.141 333.799 138.603 332.966 138.599L332.947 138.599L332.31 138.673L332.284 138.681C331.231 138.995 330.629 140.101 330.94 141.157L330.94 141.157C331.587 143.338 331.91 145.592 331.899 147.853C331.839 160.626 321.609 170.76 308.836 170.7Z" fill="#9AA3A7"/>
<path fill-rule="evenodd" clip-rule="evenodd" d="M378.662 147.303L372.953 141.595C372.369 141.011 371.422 141.011 370.839 141.595C370.255 142.178 370.255 143.125 370.839 143.709L373.995 146.865H360.561C359.735 146.865 359.066 147.535 359.066 148.36C359.066 149.186 359.735 149.855 360.561 149.855H373.995L370.839 153.012C370.255 153.596 370.255 154.542 370.839 155.126C371.422 155.71 372.369 155.71 372.953 155.126L378.662 149.418C379.245 148.834 379.245 147.887 378.662 147.303ZM371.261 142.017C370.911 142.368 370.911 142.936 371.261 143.286L375.439 147.463H375.439L371.262 143.286C370.911 142.936 370.911 142.368 371.262 142.017C371.394 141.885 371.557 141.803 371.727 141.771C371.557 141.803 371.394 141.885 371.261 142.017ZM360.394 147.479C359.978 147.557 359.664 147.922 359.664 148.36C359.664 148.856 360.066 149.257 360.561 149.257H375.439L371.261 153.435C370.911 153.785 370.911 154.353 371.261 154.703C371.478 154.92 371.779 155.003 372.059 154.951C371.779 155.003 371.478 154.92 371.262 154.703C370.911 154.353 370.911 153.785 371.262 153.435L375.439 149.257H360.561C360.066 149.257 359.664 148.856 359.664 148.36C359.664 147.922 359.978 147.557 360.394 147.479Z" fill="#231F20"/>
<path d="M247.126 143.709L243.969 146.865L257.403 146.865C258.229 146.865 258.898 147.535 258.898 148.36C258.898 149.186 258.229 149.855 257.403 149.855L243.969 149.855L247.126 153.012C247.709 153.596 247.709 154.542 247.126 155.126C246.542 155.71 245.595 155.71 245.011 155.126L239.303 149.418C238.719 148.834 238.719 147.887 239.303 147.303L245.011 141.595C245.595 141.011 246.542 141.011 247.126 141.595C247.709 142.178 247.709 143.125 247.126 143.709Z" fill="#231F20"/>
<g clip-path="url(#clip0)">
<g clip-path="url(#clip1)">
<path fill-rule="evenodd" clip-rule="evenodd" d="M249.536 230.983C249.992 231.363 250.054 232.042 249.673 232.499L242.494 241.115C242.289 241.36 241.986 241.502 241.667 241.502C241.347 241.502 241.044 241.36 240.839 241.115L237.25 236.807C236.869 236.35 236.931 235.671 237.388 235.29C237.844 234.909 238.523 234.971 238.904 235.428L241.667 238.743L248.019 231.12C248.4 230.664 249.079 230.602 249.536 230.983Z" fill="#2CCCD4"/>
<path d="M264.92 243.577C264.73 243.577 264.58 243.522 264.47 243.412C264.36 243.292 264.305 243.137 264.305 242.947V233.527C264.305 233.347 264.36 233.202 264.47 233.092C264.59 232.982 264.745 232.927 264.935 232.927H270.395C270.575 232.927 270.715 232.972 270.815 233.062C270.915 233.152 270.965 233.282 270.965 233.452C270.965 233.612 270.915 233.737 270.815 233.827C270.715 233.917 270.575 233.962 270.395 233.962H265.52V237.607H270.095C270.275 237.607 270.415 237.652 270.515 237.742C270.615 237.832 270.665 237.962 270.665 238.132C270.665 238.292 270.615 238.417 270.515 238.507C270.415 238.597 270.275 238.642 270.095 238.642H265.52V242.947C265.52 243.137 265.465 243.292 265.355 243.412C265.255 243.522 265.11 243.577 264.92 243.577ZM273.09 243.577C272.91 243.577 272.76 243.527 272.64 243.427C272.53 243.317 272.475 243.167 272.475 242.977V236.647C272.475 236.457 272.53 236.312 272.64 236.212C272.76 236.102 272.91 236.047 273.09 236.047C273.27 236.047 273.415 236.102 273.525 236.212C273.635 236.312 273.69 236.457 273.69 236.647V242.977C273.69 243.177 273.635 243.327 273.525 243.427C273.415 243.527 273.27 243.577 273.09 243.577ZM273.09 234.472C272.85 234.472 272.655 234.402 272.505 234.262C272.355 234.122 272.28 233.937 272.28 233.707C272.28 233.487 272.355 233.307 272.505 233.167C272.655 233.027 272.85 232.957 273.09 232.957C273.33 232.957 273.525 233.027 273.675 233.167C273.825 233.307 273.9 233.487 273.9 233.707C273.9 233.937 273.825 234.122 273.675 234.262C273.525 234.402 273.33 234.472 273.09 234.472ZM279.576 236.047C279.996 236.017 280.206 236.187 280.206 236.557C280.206 236.717 280.161 236.847 280.071 236.947C279.981 237.037 279.826 237.092 279.606 237.112L279.156 237.157C278.486 237.217 277.986 237.457 277.656 237.877C277.336 238.287 277.176 238.772 277.176 239.332V242.977C277.176 243.177 277.121 243.327 277.011 243.427C276.901 243.527 276.756 243.577 276.576 243.577C276.396 243.577 276.246 243.527 276.126 243.427C276.016 243.317 275.961 243.167 275.961 242.977V236.647C275.961 236.457 276.021 236.312 276.141 236.212C276.261 236.102 276.406 236.047 276.576 236.047C276.736 236.047 276.871 236.102 276.981 236.212C277.091 236.312 277.146 236.452 277.146 236.632V237.472C277.356 237.032 277.651 236.697 278.031 236.467C278.421 236.237 278.866 236.102 279.366 236.062L279.576 236.047ZM283.636 243.607C283.176 243.607 282.736 243.552 282.316 243.442C281.906 243.332 281.541 243.177 281.221 242.977C281.041 242.857 280.911 242.747 280.831 242.647C280.761 242.537 280.726 242.407 280.726 242.257C280.726 242.127 280.761 242.022 280.831 241.942C280.911 241.852 281.011 241.807 281.131 241.807C281.251 241.807 281.426 241.882 281.656 242.032C281.956 242.212 282.251 242.357 282.541 242.467C282.841 242.567 283.211 242.617 283.651 242.617C284.191 242.617 284.611 242.522 284.911 242.332C285.211 242.142 285.361 241.867 285.361 241.507C285.361 241.287 285.306 241.112 285.196 240.982C285.086 240.842 284.896 240.722 284.626 240.622C284.356 240.512 283.961 240.402 283.441 240.292C282.561 240.102 281.931 239.847 281.551 239.527C281.171 239.207 280.981 238.772 280.981 238.222C280.981 237.792 281.101 237.412 281.341 237.082C281.581 236.752 281.911 236.492 282.331 236.302C282.761 236.112 283.246 236.017 283.786 236.017C284.176 236.017 284.551 236.072 284.911 236.182C285.281 236.282 285.606 236.427 285.886 236.617C286.226 236.857 286.396 237.107 286.396 237.367C286.396 237.497 286.356 237.607 286.276 237.697C286.196 237.787 286.101 237.832 285.991 237.832C285.871 237.832 285.691 237.747 285.451 237.577C285.171 237.397 284.906 237.257 284.656 237.157C284.406 237.057 284.096 237.007 283.726 237.007C283.256 237.007 282.876 237.112 282.586 237.322C282.306 237.532 282.166 237.812 282.166 238.162C282.166 238.382 282.216 238.562 282.316 238.702C282.426 238.832 282.601 238.952 282.841 239.062C283.091 239.162 283.446 239.262 283.906 239.362C284.586 239.512 285.111 239.677 285.481 239.857C285.861 240.037 286.131 240.257 286.291 240.517C286.451 240.777 286.531 241.107 286.531 241.507C286.531 242.137 286.266 242.647 285.736 243.037C285.206 243.417 284.506 243.607 283.636 243.607ZM291.685 242.617C292.035 242.647 292.21 242.807 292.21 243.097C292.21 243.267 292.145 243.397 292.015 243.487C291.895 243.567 291.71 243.597 291.46 243.577L291.055 243.547C290.255 243.487 289.665 243.247 289.285 242.827C288.905 242.407 288.715 241.772 288.715 240.922V237.157H287.71C287.54 237.157 287.405 237.117 287.305 237.037C287.215 236.947 287.17 236.832 287.17 236.692C287.17 236.542 287.215 236.422 287.305 236.332C287.405 236.242 287.54 236.197 287.71 236.197H288.715V234.502C288.715 234.312 288.77 234.167 288.88 234.067C288.99 233.957 289.14 233.902 289.33 233.902C289.51 233.902 289.655 233.957 289.765 234.067C289.875 234.167 289.93 234.312 289.93 234.502V236.197H291.595C291.755 236.197 291.88 236.242 291.97 236.332C292.07 236.422 292.12 236.542 292.12 236.692C292.12 236.832 292.07 236.947 291.97 237.037C291.88 237.117 291.755 237.157 291.595 237.157H289.93V240.982C289.93 241.532 290.04 241.932 290.26 242.182C290.49 242.422 290.83 242.557 291.28 242.587L291.685 242.617ZM305.824 242.752C305.924 242.862 305.974 242.982 305.974 243.112C305.974 243.242 305.919 243.362 305.809 243.472C305.709 243.572 305.589 243.622 305.449 243.622C305.309 243.622 305.184 243.567 305.074 243.457L303.694 242.017C303.244 242.537 302.729 242.932 302.149 243.202C301.569 243.472 300.959 243.607 300.319 243.607C299.659 243.607 299.074 243.497 298.564 243.277C298.054 243.047 297.654 242.722 297.364 242.302C297.074 241.882 296.929 241.397 296.929 240.847C296.929 240.187 297.134 239.602 297.544 239.092C297.954 238.572 298.579 238.067 299.419 237.577C298.979 237.117 298.654 236.702 298.444 236.332C298.244 235.962 298.144 235.562 298.144 235.132C298.144 234.412 298.389 233.847 298.879 233.437C299.369 233.027 299.989 232.822 300.739 232.822C301.459 232.822 302.034 233.012 302.464 233.392C302.894 233.772 303.109 234.292 303.109 234.952C303.109 235.492 302.939 235.972 302.599 236.392C302.269 236.812 301.744 237.252 301.024 237.712L303.559 240.382C303.899 239.652 304.099 238.782 304.159 237.772C304.169 237.592 304.229 237.457 304.339 237.367C304.449 237.267 304.574 237.217 304.714 237.217C304.864 237.217 304.989 237.272 305.089 237.382C305.189 237.482 305.234 237.622 305.224 237.802C305.134 239.102 304.824 240.222 304.294 241.162L305.824 242.752ZM300.754 233.752C300.324 233.752 299.974 233.877 299.704 234.127C299.434 234.377 299.299 234.712 299.299 235.132C299.299 235.442 299.379 235.737 299.539 236.017C299.709 236.297 299.979 236.627 300.349 237.007C300.969 236.607 301.404 236.262 301.654 235.972C301.914 235.682 302.044 235.362 302.044 235.012C302.044 234.632 301.924 234.327 301.684 234.097C301.454 233.867 301.144 233.752 300.754 233.752ZM300.364 242.617C300.864 242.617 301.339 242.507 301.789 242.287C302.239 242.067 302.639 241.737 302.989 241.297L300.079 238.282C299.349 238.722 298.839 239.137 298.549 239.527C298.269 239.907 298.129 240.337 298.129 240.817C298.129 241.377 298.329 241.817 298.729 242.137C299.139 242.457 299.684 242.617 300.364 242.617ZM311.718 243.577C311.538 243.577 311.388 243.527 311.268 243.427C311.158 243.317 311.103 243.167 311.103 242.977V233.452C311.103 233.262 311.158 233.117 311.268 233.017C311.388 232.907 311.538 232.852 311.718 232.852C311.888 232.852 312.028 232.907 312.138 233.017C312.258 233.117 312.318 233.262 312.318 233.452V242.977C312.318 243.167 312.258 243.317 312.138 243.427C312.028 243.527 311.888 243.577 311.718 243.577ZM317.574 236.017C319.404 236.017 320.319 236.977 320.319 238.897V242.977C320.319 243.157 320.264 243.302 320.154 243.412C320.054 243.522 319.914 243.577 319.734 243.577C319.554 243.577 319.409 243.522 319.299 243.412C319.189 243.302 319.134 243.157 319.134 242.977V242.257C318.944 242.687 318.654 243.022 318.264 243.262C317.874 243.492 317.424 243.607 316.914 243.607C316.444 243.607 316.009 243.512 315.609 243.322C315.219 243.132 314.909 242.867 314.679 242.527C314.449 242.187 314.334 241.812 314.334 241.402C314.334 240.852 314.474 240.427 314.754 240.127C315.034 239.817 315.494 239.597 316.134 239.467C316.774 239.327 317.664 239.257 318.804 239.257H319.134V238.762C319.134 238.162 319.009 237.722 318.759 237.442C318.519 237.162 318.124 237.022 317.574 237.022C316.894 237.022 316.204 237.207 315.504 237.577C315.234 237.747 315.044 237.832 314.934 237.832C314.814 237.832 314.714 237.787 314.634 237.697C314.554 237.607 314.514 237.492 314.514 237.352C314.514 237.212 314.554 237.092 314.634 236.992C314.724 236.882 314.864 236.772 315.054 236.662C315.404 236.462 315.799 236.307 316.239 236.197C316.689 236.077 317.134 236.017 317.574 236.017ZM317.079 242.647C317.679 242.647 318.169 242.447 318.549 242.047C318.939 241.637 319.134 241.112 319.134 240.472V240.037H318.864C317.984 240.037 317.314 240.077 316.854 240.157C316.394 240.227 316.064 240.352 315.864 240.532C315.674 240.702 315.579 240.957 315.579 241.297C315.579 241.687 315.719 242.012 315.999 242.272C316.289 242.522 316.649 242.647 317.079 242.647ZM325.003 243.607C324.543 243.607 324.103 243.552 323.683 243.442C323.273 243.332 322.908 243.177 322.588 242.977C322.408 242.857 322.278 242.747 322.198 242.647C322.128 242.537 322.093 242.407 322.093 242.257C322.093 242.127 322.128 242.022 322.198 241.942C322.278 241.852 322.378 241.807 322.498 241.807C322.618 241.807 322.793 241.882 323.023 242.032C323.323 242.212 323.618 242.357 323.908 242.467C324.208 242.567 324.578 242.617 325.018 242.617C325.558 242.617 325.978 242.522 326.278 242.332C326.578 242.142 326.728 241.867 326.728 241.507C326.728 241.287 326.673 241.112 326.563 240.982C326.453 240.842 326.263 240.722 325.993 240.622C325.723 240.512 325.328 240.402 324.808 240.292C323.928 240.102 323.298 239.847 322.918 239.527C322.538 239.207 322.348 238.772 322.348 238.222C322.348 237.792 322.468 237.412 322.708 237.082C322.948 236.752 323.278 236.492 323.698 236.302C324.128 236.112 324.613 236.017 325.153 236.017C325.543 236.017 325.918 236.072 326.278 236.182C326.648 236.282 326.973 236.427 327.253 236.617C327.593 236.857 327.763 237.107 327.763 237.367C327.763 237.497 327.723 237.607 327.643 237.697C327.563 237.787 327.468 237.832 327.358 237.832C327.238 237.832 327.058 237.747 326.818 237.577C326.538 237.397 326.273 237.257 326.023 237.157C325.773 237.057 325.463 237.007 325.093 237.007C324.623 237.007 324.243 237.112 323.953 237.322C323.673 237.532 323.533 237.812 323.533 238.162C323.533 238.382 323.583 238.562 323.683 238.702C323.793 238.832 323.968 238.952 324.208 239.062C324.458 239.162 324.813 239.262 325.273 239.362C325.953 239.512 326.478 239.677 326.848 239.857C327.228 240.037 327.498 240.257 327.658 240.517C327.818 240.777 327.898 241.107 327.898 241.507C327.898 242.137 327.633 242.647 327.103 243.037C326.573 243.417 325.873 243.607 325.003 243.607ZM333.052 242.617C333.402 242.647 333.577 242.807 333.577 243.097C333.577 243.267 333.512 243.397 333.382 243.487C333.262 243.567 333.077 243.597 332.827 243.577L332.422 243.547C331.622 243.487 331.032 243.247 330.652 242.827C330.272 242.407 330.082 241.772 330.082 240.922V237.157H329.077C328.907 237.157 328.772 237.117 328.672 237.037C328.582 236.947 328.537 236.832 328.537 236.692C328.537 236.542 328.582 236.422 328.672 236.332C328.772 236.242 328.907 236.197 329.077 236.197H330.082V234.502C330.082 234.312 330.137 234.167 330.247 234.067C330.357 233.957 330.507 233.902 330.697 233.902C330.877 233.902 331.022 233.957 331.132 234.067C331.242 234.167 331.297 234.312 331.297 234.502V236.197H332.962C333.122 236.197 333.247 236.242 333.337 236.332C333.437 236.422 333.487 236.542 333.487 236.692C333.487 236.832 333.437 236.947 333.337 237.037C333.247 237.117 333.122 237.157 332.962 237.157H331.297V240.982C331.297 241.532 331.407 241.932 331.627 242.182C331.857 242.422 332.197 242.557 332.647 242.587L333.052 242.617ZM342.317 236.017C344.067 236.017 344.942 236.982 344.942 238.912V242.977C344.942 243.167 344.887 243.317 344.777 243.427C344.677 243.527 344.532 243.577 344.342 243.577C344.152 243.577 344.002 243.527 343.892 243.427C343.782 243.317 343.727 243.167 343.727 242.977V238.987C343.727 238.307 343.592 237.812 343.322 237.502C343.062 237.192 342.642 237.037 342.062 237.037C341.392 237.037 340.857 237.242 340.457 237.652C340.057 238.062 339.857 238.617 339.857 239.317V242.977C339.857 243.167 339.802 243.317 339.692 243.427C339.592 243.527 339.447 243.577 339.257 243.577C339.067 243.577 338.917 243.527 338.807 243.427C338.697 243.317 338.642 243.167 338.642 242.977V236.647C338.642 236.467 338.697 236.322 338.807 236.212C338.917 236.102 339.067 236.047 339.257 236.047C339.437 236.047 339.577 236.102 339.677 236.212C339.787 236.322 339.842 236.462 339.842 236.632V237.397C340.082 236.947 340.417 236.607 340.847 236.377C341.277 236.137 341.767 236.017 342.317 236.017ZM350.152 236.017C351.982 236.017 352.897 236.977 352.897 238.897V242.977C352.897 243.157 352.842 243.302 352.732 243.412C352.632 243.522 352.492 243.577 352.312 243.577C352.132 243.577 351.987 243.522 351.877 243.412C351.767 243.302 351.712 243.157 351.712 242.977V242.257C351.522 242.687 351.232 243.022 350.842 243.262C350.452 243.492 350.002 243.607 349.492 243.607C349.022 243.607 348.587 243.512 348.187 243.322C347.797 243.132 347.487 242.867 347.257 242.527C347.027 242.187 346.912 241.812 346.912 241.402C346.912 240.852 347.052 240.427 347.332 240.127C347.612 239.817 348.072 239.597 348.712 239.467C349.352 239.327 350.242 239.257 351.382 239.257H351.712V238.762C351.712 238.162 351.587 237.722 351.337 237.442C351.097 237.162 350.702 237.022 350.152 237.022C349.472 237.022 348.782 237.207 348.082 237.577C347.812 237.747 347.622 237.832 347.512 237.832C347.392 237.832 347.292 237.787 347.212 237.697C347.132 237.607 347.092 237.492 347.092 237.352C347.092 237.212 347.132 237.092 347.212 236.992C347.302 236.882 347.442 236.772 347.632 236.662C347.982 236.462 348.377 236.307 348.817 236.197C349.267 236.077 349.712 236.017 350.152 236.017ZM349.657 242.647C350.257 242.647 350.747 242.447 351.127 242.047C351.517 241.637 351.712 241.112 351.712 240.472V240.037H351.442C350.562 240.037 349.892 240.077 349.432 240.157C348.972 240.227 348.642 240.352 348.442 240.532C348.252 240.702 348.157 240.957 348.157 241.297C348.157 241.687 348.297 242.012 348.577 242.272C348.867 242.522 349.227 242.647 349.657 242.647ZM363.251 236.017C364.871 236.017 365.681 236.982 365.681 238.912V242.977C365.681 243.167 365.626 243.317 365.516 243.427C365.406 243.527 365.261 243.577 365.081 243.577C364.901 243.577 364.751 243.527 364.631 243.427C364.521 243.317 364.466 243.167 364.466 242.977V238.942C364.466 238.272 364.346 237.787 364.106 237.487C363.866 237.187 363.491 237.037 362.981 237.037C362.371 237.037 361.891 237.242 361.541 237.652C361.191 238.062 361.016 238.617 361.016 239.317V242.977C361.016 243.167 360.956 243.317 360.836 243.427C360.726 243.527 360.581 243.577 360.401 243.577C360.221 243.577 360.076 243.527 359.966 243.427C359.856 243.317 359.801 243.167 359.801 242.977V238.942C359.801 238.272 359.681 237.787 359.441 237.487C359.201 237.187 358.821 237.037 358.301 237.037C357.701 237.037 357.221 237.242 356.861 237.652C356.511 238.062 356.336 238.617 356.336 239.317V242.977C356.336 243.167 356.281 243.317 356.171 243.427C356.061 243.527 355.916 243.577 355.736 243.577C355.556 243.577 355.406 243.527 355.286 243.427C355.176 243.317 355.121 243.167 355.121 242.977V236.647C355.121 236.467 355.176 236.322 355.286 236.212C355.406 236.102 355.556 236.047 355.736 236.047C355.906 236.047 356.046 236.102 356.156 236.212C356.266 236.312 356.321 236.452 356.321 236.632V237.352C356.541 236.922 356.846 236.592 357.236 236.362C357.626 236.132 358.076 236.017 358.586 236.017C359.726 236.017 360.471 236.497 360.821 237.457C361.031 237.017 361.351 236.667 361.781 236.407C362.211 236.147 362.701 236.017 363.251 236.017ZM373.55 241.807C373.66 241.807 373.755 241.852 373.835 241.942C373.915 242.032 373.955 242.147 373.955 242.287C373.955 242.537 373.78 242.767 373.43 242.977C373.07 243.187 372.69 243.347 372.29 243.457C371.89 243.557 371.5 243.607 371.12 243.607C369.99 243.607 369.095 243.272 368.435 242.602C367.785 241.932 367.46 241.007 367.46 239.827C367.46 239.077 367.605 238.417 367.895 237.847C368.185 237.267 368.59 236.817 369.11 236.497C369.64 236.177 370.24 236.017 370.91 236.017C371.86 236.017 372.615 236.327 373.175 236.947C373.735 237.567 374.015 238.407 374.015 239.467C374.015 239.667 373.975 239.812 373.895 239.902C373.815 239.992 373.685 240.037 373.505 240.037H368.675C368.765 241.757 369.58 242.617 371.12 242.617C371.51 242.617 371.845 242.567 372.125 242.467C372.405 242.357 372.705 242.212 373.025 242.032C373.285 241.882 373.46 241.807 373.55 241.807ZM370.925 236.962C370.285 236.962 369.77 237.162 369.38 237.562C369 237.962 368.775 238.527 368.705 239.257H372.95C372.93 238.517 372.745 237.952 372.395 237.562C372.045 237.162 371.555 236.962 370.925 236.962Z" fill="#6F737B"/>
</g>
<g clip-path="url(#clip2)">
<path fill-rule="evenodd" clip-rule="evenodd" d="M249.536 256.983C249.992 257.363 250.054 258.042 249.673 258.499L242.494 267.115C242.289 267.36 241.986 267.502 241.667 267.502C241.347 267.502 241.044 267.36 240.839 267.115L237.25 262.807C236.869 262.35 236.931 261.671 237.388 261.29C237.844 260.909 238.523 260.971 238.904 261.428L241.667 264.743L248.019 257.12C248.4 256.664 249.079 256.602 249.536 256.983Z" fill="#2CCCD4"/>
<path d="M264.935 269.502C264.745 269.502 264.59 269.447 264.47 269.337C264.36 269.227 264.305 269.082 264.305 268.902V259.527C264.305 259.347 264.36 259.202 264.47 259.092C264.59 258.982 264.745 258.927 264.935 258.927H270.545C270.725 258.927 270.865 258.972 270.965 259.062C271.065 259.152 271.115 259.277 271.115 259.437C271.115 259.597 271.065 259.722 270.965 259.812C270.865 259.902 270.725 259.947 270.545 259.947H265.52V263.622H270.245C270.425 263.622 270.565 263.667 270.665 263.757C270.765 263.847 270.815 263.972 270.815 264.132C270.815 264.292 270.765 264.417 270.665 264.507C270.565 264.597 270.425 264.642 270.245 264.642H265.52V268.482H270.545C270.725 268.482 270.865 268.527 270.965 268.617C271.065 268.697 271.115 268.822 271.115 268.992C271.115 269.152 271.065 269.277 270.965 269.367C270.865 269.457 270.725 269.502 270.545 269.502H264.935ZM280.985 262.017C282.605 262.017 283.415 262.982 283.415 264.912V268.977C283.415 269.167 283.36 269.317 283.25 269.427C283.14 269.527 282.995 269.577 282.815 269.577C282.635 269.577 282.485 269.527 282.365 269.427C282.255 269.317 282.2 269.167 282.2 268.977V264.942C282.2 264.272 282.08 263.787 281.84 263.487C281.6 263.187 281.225 263.037 280.715 263.037C280.105 263.037 279.625 263.242 279.275 263.652C278.925 264.062 278.75 264.617 278.75 265.317V268.977C278.75 269.167 278.69 269.317 278.57 269.427C278.46 269.527 278.315 269.577 278.135 269.577C277.955 269.577 277.81 269.527 277.7 269.427C277.59 269.317 277.535 269.167 277.535 268.977V264.942C277.535 264.272 277.415 263.787 277.175 263.487C276.935 263.187 276.555 263.037 276.035 263.037C275.435 263.037 274.955 263.242 274.595 263.652C274.245 264.062 274.07 264.617 274.07 265.317V268.977C274.07 269.167 274.015 269.317 273.905 269.427C273.795 269.527 273.65 269.577 273.47 269.577C273.29 269.577 273.14 269.527 273.02 269.427C272.91 269.317 272.855 269.167 272.855 268.977V262.647C272.855 262.467 272.91 262.322 273.02 262.212C273.14 262.102 273.29 262.047 273.47 262.047C273.64 262.047 273.78 262.102 273.89 262.212C274 262.312 274.055 262.452 274.055 262.632V263.352C274.275 262.922 274.58 262.592 274.97 262.362C275.36 262.132 275.81 262.017 276.32 262.017C277.46 262.017 278.205 262.497 278.555 263.457C278.765 263.017 279.085 262.667 279.515 262.407C279.945 262.147 280.435 262.017 280.985 262.017ZM288.614 262.017C290.444 262.017 291.359 262.977 291.359 264.897V268.977C291.359 269.157 291.304 269.302 291.194 269.412C291.094 269.522 290.954 269.577 290.774 269.577C290.594 269.577 290.449 269.522 290.339 269.412C290.229 269.302 290.174 269.157 290.174 268.977V268.257C289.984 268.687 289.694 269.022 289.304 269.262C288.914 269.492 288.464 269.607 287.954 269.607C287.484 269.607 287.049 269.512 286.649 269.322C286.259 269.132 285.949 268.867 285.719 268.527C285.489 268.187 285.374 267.812 285.374 267.402C285.374 266.852 285.514 266.427 285.794 266.127C286.074 265.817 286.534 265.597 287.174 265.467C287.814 265.327 288.704 265.257 289.844 265.257H290.174V264.762C290.174 264.162 290.049 263.722 289.799 263.442C289.559 263.162 289.164 263.022 288.614 263.022C287.934 263.022 287.244 263.207 286.544 263.577C286.274 263.747 286.084 263.832 285.974 263.832C285.854 263.832 285.754 263.787 285.674 263.697C285.594 263.607 285.554 263.492 285.554 263.352C285.554 263.212 285.594 263.092 285.674 262.992C285.764 262.882 285.904 262.772 286.094 262.662C286.444 262.462 286.839 262.307 287.279 262.197C287.729 262.077 288.174 262.017 288.614 262.017ZM288.119 268.647C288.719 268.647 289.209 268.447 289.589 268.047C289.979 267.637 290.174 267.112 290.174 266.472V266.037H289.904C289.024 266.037 288.354 266.077 287.894 266.157C287.434 266.227 287.104 266.352 286.904 266.532C286.714 266.702 286.619 266.957 286.619 267.297C286.619 267.687 286.759 268.012 287.039 268.272C287.329 268.522 287.689 268.647 288.119 268.647ZM294.198 269.577C294.018 269.577 293.868 269.527 293.748 269.427C293.638 269.317 293.583 269.167 293.583 268.977V262.647C293.583 262.457 293.638 262.312 293.748 262.212C293.868 262.102 294.018 262.047 294.198 262.047C294.378 262.047 294.523 262.102 294.633 262.212C294.743 262.312 294.798 262.457 294.798 262.647V268.977C294.798 269.177 294.743 269.327 294.633 269.427C294.523 269.527 294.378 269.577 294.198 269.577ZM294.198 260.472C293.958 260.472 293.763 260.402 293.613 260.262C293.463 260.122 293.388 259.937 293.388 259.707C293.388 259.487 293.463 259.307 293.613 259.167C293.763 259.027 293.958 258.957 294.198 258.957C294.438 258.957 294.633 259.027 294.783 259.167C294.933 259.307 295.008 259.487 295.008 259.707C295.008 259.937 294.933 260.122 294.783 260.262C294.633 260.402 294.438 260.472 294.198 260.472ZM297.684 269.577C297.504 269.577 297.354 269.527 297.234 269.427C297.124 269.317 297.069 269.167 297.069 268.977V259.452C297.069 259.262 297.124 259.117 297.234 259.017C297.354 258.907 297.504 258.852 297.684 258.852C297.854 258.852 297.994 258.907 298.104 259.017C298.224 259.117 298.284 259.262 298.284 259.452V268.977C298.284 269.167 298.224 269.317 298.104 269.427C297.994 269.527 297.854 269.577 297.684 269.577Z" fill="#6F737B"/>
</g>
<g clip-path="url(#clip3)">
<path fill-rule="evenodd" clip-rule="evenodd" d="M249.536 282.983C249.992 283.363 250.054 284.042 249.673 284.499L242.494 293.115C242.289 293.36 241.986 293.502 241.667 293.502C241.347 293.502 241.044 293.36 240.839 293.115L237.25 288.807C236.869 288.35 236.931 287.671 237.388 287.29C237.844 286.909 238.523 286.971 238.904 287.428L241.667 290.743L248.019 283.12C248.4 282.664 249.079 282.602 249.536 282.983Z" fill="#2CCCD4"/>
<path d="M264.92 295.577C264.73 295.577 264.58 295.522 264.47 295.412C264.36 295.292 264.305 295.137 264.305 294.947V285.527C264.305 285.347 264.36 285.202 264.47 285.092C264.59 284.982 264.745 284.927 264.935 284.927H268.49C269.6 284.927 270.46 285.197 271.07 285.737C271.69 286.277 272 287.042 272 288.032C272 289.022 271.69 289.792 271.07 290.342C270.45 290.892 269.59 291.167 268.49 291.167H265.535V294.947C265.535 295.137 265.48 295.292 265.37 295.412C265.26 295.522 265.11 295.577 264.92 295.577ZM268.37 290.147C269.98 290.147 270.785 289.442 270.785 288.032C270.785 286.642 269.98 285.947 268.37 285.947H265.535V290.147H268.37ZM277.483 288.017C278.343 288.017 278.993 288.262 279.433 288.752C279.873 289.232 280.093 289.952 280.093 290.912V294.977C280.093 295.167 280.038 295.317 279.928 295.427C279.818 295.527 279.673 295.577 279.493 295.577C279.303 295.577 279.153 295.527 279.043 295.427C278.933 295.317 278.878 295.167 278.878 294.977V290.942C278.878 290.292 278.743 289.812 278.473 289.502C278.213 289.192 277.793 289.037 277.213 289.037C276.543 289.037 276.008 289.242 275.608 289.652C275.208 290.062 275.008 290.617 275.008 291.317V294.977C275.008 295.167 274.953 295.317 274.843 295.427C274.743 295.527 274.598 295.577 274.408 295.577C274.218 295.577 274.068 295.527 273.958 295.427C273.848 295.317 273.793 295.167 273.793 294.977V285.437C273.793 285.267 273.848 285.127 273.958 285.017C274.078 284.907 274.228 284.852 274.408 284.852C274.598 284.852 274.743 284.907 274.843 285.017C274.953 285.117 275.008 285.257 275.008 285.437V289.367C275.248 288.927 275.583 288.592 276.013 288.362C276.443 288.132 276.933 288.017 277.483 288.017ZM285.348 295.607C284.658 295.607 284.048 295.452 283.518 295.142C282.998 294.832 282.593 294.392 282.303 293.822C282.023 293.242 281.883 292.572 281.883 291.812C281.883 291.052 282.023 290.387 282.303 289.817C282.593 289.237 282.998 288.792 283.518 288.482C284.048 288.172 284.658 288.017 285.348 288.017C286.038 288.017 286.648 288.172 287.178 288.482C287.708 288.792 288.113 289.237 288.393 289.817C288.683 290.387 288.828 291.052 288.828 291.812C288.828 292.572 288.683 293.242 288.393 293.822C288.113 294.392 287.708 294.832 287.178 295.142C286.648 295.452 286.038 295.607 285.348 295.607ZM285.348 294.602C286.068 294.602 286.618 294.367 286.998 293.897C287.388 293.417 287.583 292.722 287.583 291.812C287.583 290.922 287.388 290.237 286.998 289.757C286.608 289.267 286.058 289.022 285.348 289.022C284.638 289.022 284.088 289.267 283.698 289.757C283.308 290.237 283.113 290.922 283.113 291.812C283.113 292.712 283.303 293.402 283.683 293.882C284.073 294.362 284.628 294.602 285.348 294.602ZM294.314 288.017C296.064 288.017 296.939 288.982 296.939 290.912V294.977C296.939 295.167 296.884 295.317 296.774 295.427C296.674 295.527 296.529 295.577 296.339 295.577C296.149 295.577 295.999 295.527 295.889 295.427C295.779 295.317 295.724 295.167 295.724 294.977V290.987C295.724 290.307 295.589 289.812 295.319 289.502C295.059 289.192 294.639 289.037 294.059 289.037C293.389 289.037 292.854 289.242 292.454 289.652C292.054 290.062 291.854 290.617 291.854 291.317V294.977C291.854 295.167 291.799 295.317 291.689 295.427C291.589 295.527 291.444 295.577 291.254 295.577C291.064 295.577 290.914 295.527 290.804 295.427C290.694 295.317 290.639 295.167 290.639 294.977V288.647C290.639 288.467 290.694 288.322 290.804 288.212C290.914 288.102 291.064 288.047 291.254 288.047C291.434 288.047 291.574 288.102 291.674 288.212C291.784 288.322 291.839 288.462 291.839 288.632V289.397C292.079 288.947 292.414 288.607 292.844 288.377C293.274 288.137 293.764 288.017 294.314 288.017ZM304.819 293.807C304.929 293.807 305.024 293.852 305.104 293.942C305.184 294.032 305.224 294.147 305.224 294.287C305.224 294.537 305.049 294.767 304.699 294.977C304.339 295.187 303.959 295.347 303.559 295.457C303.159 295.557 302.769 295.607 302.389 295.607C301.259 295.607 300.364 295.272 299.704 294.602C299.054 293.932 298.729 293.007 298.729 291.827C298.729 291.077 298.874 290.417 299.164 289.847C299.454 289.267 299.859 288.817 300.379 288.497C300.909 288.177 301.509 288.017 302.179 288.017C303.129 288.017 303.884 288.327 304.444 288.947C305.004 289.567 305.284 290.407 305.284 291.467C305.284 291.667 305.244 291.812 305.164 291.902C305.084 291.992 304.954 292.037 304.774 292.037H299.944C300.034 293.757 300.849 294.617 302.389 294.617C302.779 294.617 303.114 294.567 303.394 294.467C303.674 294.357 303.974 294.212 304.294 294.032C304.554 293.882 304.729 293.807 304.819 293.807ZM302.194 288.962C301.554 288.962 301.039 289.162 300.649 289.562C300.269 289.962 300.044 290.527 299.974 291.257H304.219C304.199 290.517 304.014 289.952 303.664 289.562C303.314 289.162 302.824 288.962 302.194 288.962ZM314.616 288.017C316.366 288.017 317.241 288.982 317.241 290.912V294.977C317.241 295.167 317.186 295.317 317.076 295.427C316.976 295.527 316.831 295.577 316.641 295.577C316.451 295.577 316.301 295.527 316.191 295.427C316.081 295.317 316.026 295.167 316.026 294.977V290.987C316.026 290.307 315.891 289.812 315.621 289.502C315.361 289.192 314.941 289.037 314.361 289.037C313.691 289.037 313.156 289.242 312.756 289.652C312.356 290.062 312.156 290.617 312.156 291.317V294.977C312.156 295.167 312.101 295.317 311.991 295.427C311.891 295.527 311.746 295.577 311.556 295.577C311.366 295.577 311.216 295.527 311.106 295.427C310.996 295.317 310.941 295.167 310.941 294.977V288.647C310.941 288.467 310.996 288.322 311.106 288.212C311.216 288.102 311.366 288.047 311.556 288.047C311.736 288.047 311.876 288.102 311.976 288.212C312.086 288.322 312.141 288.462 312.141 288.632V289.397C312.381 288.947 312.716 288.607 313.146 288.377C313.576 288.137 314.066 288.017 314.616 288.017ZM325.017 288.047C325.207 288.047 325.352 288.102 325.452 288.212C325.562 288.322 325.617 288.467 325.617 288.647V294.992C325.617 295.162 325.562 295.302 325.452 295.412C325.352 295.522 325.207 295.577 325.017 295.577C324.837 295.577 324.692 295.527 324.582 295.427C324.482 295.317 324.432 295.177 324.432 295.007V294.257C324.202 294.697 323.877 295.032 323.457 295.262C323.047 295.492 322.582 295.607 322.062 295.607C321.192 295.607 320.537 295.367 320.097 294.887C319.657 294.397 319.437 293.677 319.437 292.727V288.647C319.437 288.467 319.492 288.322 319.602 288.212C319.712 288.102 319.862 288.047 320.052 288.047C320.242 288.047 320.387 288.102 320.487 288.212C320.597 288.322 320.652 288.467 320.652 288.647V292.697C320.652 293.347 320.782 293.827 321.042 294.137C321.302 294.437 321.712 294.587 322.272 294.587C322.912 294.587 323.427 294.382 323.817 293.972C324.207 293.552 324.402 293.002 324.402 292.322V288.647C324.402 288.467 324.457 288.322 324.567 288.212C324.677 288.102 324.827 288.047 325.017 288.047ZM336.005 288.017C337.625 288.017 338.435 288.982 338.435 290.912V294.977C338.435 295.167 338.38 295.317 338.27 295.427C338.16 295.527 338.015 295.577 337.835 295.577C337.655 295.577 337.505 295.527 337.385 295.427C337.275 295.317 337.22 295.167 337.22 294.977V290.942C337.22 290.272 337.1 289.787 336.86 289.487C336.62 289.187 336.245 289.037 335.735 289.037C335.125 289.037 334.645 289.242 334.295 289.652C333.945 290.062 333.77 290.617 333.77 291.317V294.977C333.77 295.167 333.71 295.317 333.59 295.427C333.48 295.527 333.335 295.577 333.155 295.577C332.975 295.577 332.83 295.527 332.72 295.427C332.61 295.317 332.555 295.167 332.555 294.977V290.942C332.555 290.272 332.435 289.787 332.195 289.487C331.955 289.187 331.575 289.037 331.055 289.037C330.455 289.037 329.975 289.242 329.615 289.652C329.265 290.062 329.09 290.617 329.09 291.317V294.977C329.09 295.167 329.035 295.317 328.925 295.427C328.815 295.527 328.67 295.577 328.49 295.577C328.31 295.577 328.16 295.527 328.04 295.427C327.93 295.317 327.875 295.167 327.875 294.977V288.647C327.875 288.467 327.93 288.322 328.04 288.212C328.16 288.102 328.31 288.047 328.49 288.047C328.66 288.047 328.8 288.102 328.91 288.212C329.02 288.312 329.075 288.452 329.075 288.632V289.352C329.295 288.922 329.6 288.592 329.99 288.362C330.38 288.132 330.83 288.017 331.34 288.017C332.48 288.017 333.225 288.497 333.575 289.457C333.785 289.017 334.105 288.667 334.535 288.407C334.965 288.147 335.455 288.017 336.005 288.017ZM344.323 288.017C344.963 288.017 345.528 288.172 346.018 288.482C346.508 288.792 346.888 289.232 347.158 289.802C347.428 290.372 347.563 291.032 347.563 291.782C347.563 292.542 347.428 293.212 347.158 293.792C346.888 294.362 346.508 294.807 346.018 295.127C345.528 295.447 344.963 295.607 344.323 295.607C343.753 295.607 343.253 295.482 342.823 295.232C342.403 294.982 342.083 294.627 341.863 294.167V294.977C341.863 295.157 341.808 295.302 341.698 295.412C341.598 295.522 341.453 295.577 341.263 295.577C341.073 295.577 340.923 295.522 340.813 295.412C340.703 295.302 340.648 295.157 340.648 294.977V285.437C340.648 285.267 340.703 285.127 340.813 285.017C340.923 284.907 341.073 284.852 341.263 284.852C341.453 284.852 341.598 284.907 341.698 285.017C341.808 285.117 341.863 285.257 341.863 285.437V289.457C342.083 288.997 342.403 288.642 342.823 288.392C343.253 288.142 343.753 288.017 344.323 288.017ZM344.083 294.602C344.793 294.602 345.343 294.357 345.733 293.867C346.123 293.367 346.318 292.672 346.318 291.782C346.318 290.912 346.123 290.237 345.733 289.757C345.343 289.277 344.793 289.037 344.083 289.037C343.373 289.037 342.823 289.277 342.433 289.757C342.053 290.237 341.863 290.922 341.863 291.812C341.863 292.702 342.053 293.392 342.433 293.882C342.823 294.362 343.373 294.602 344.083 294.602ZM355.034 293.807C355.144 293.807 355.239 293.852 355.319 293.942C355.399 294.032 355.439 294.147 355.439 294.287C355.439 294.537 355.264 294.767 354.914 294.977C354.554 295.187 354.174 295.347 353.774 295.457C353.374 295.557 352.984 295.607 352.604 295.607C351.474 295.607 350.579 295.272 349.919 294.602C349.269 293.932 348.944 293.007 348.944 291.827C348.944 291.077 349.089 290.417 349.379 289.847C349.669 289.267 350.074 288.817 350.594 288.497C351.124 288.177 351.724 288.017 352.394 288.017C353.344 288.017 354.099 288.327 354.659 288.947C355.219 289.567 355.499 290.407 355.499 291.467C355.499 291.667 355.459 291.812 355.379 291.902C355.299 291.992 355.169 292.037 354.989 292.037H350.159C350.249 293.757 351.064 294.617 352.604 294.617C352.994 294.617 353.329 294.567 353.609 294.467C353.889 294.357 354.189 294.212 354.509 294.032C354.769 293.882 354.944 293.807 355.034 293.807ZM352.409 288.962C351.769 288.962 351.254 289.162 350.864 289.562C350.484 289.962 350.259 290.527 350.189 291.257H354.434C354.414 290.517 354.229 289.952 353.879 289.562C353.529 289.162 353.039 288.962 352.409 288.962ZM360.904 288.047C361.324 288.017 361.534 288.187 361.534 288.557C361.534 288.717 361.489 288.847 361.399 288.947C361.309 289.037 361.154 289.092 360.934 289.112L360.484 289.157C359.814 289.217 359.314 289.457 358.984 289.877C358.664 290.287 358.504 290.772 358.504 291.332V294.977C358.504 295.177 358.449 295.327 358.339 295.427C358.229 295.527 358.084 295.577 357.904 295.577C357.724 295.577 357.574 295.527 357.454 295.427C357.344 295.317 357.289 295.167 357.289 294.977V288.647C357.289 288.457 357.349 288.312 357.469 288.212C357.589 288.102 357.734 288.047 357.904 288.047C358.064 288.047 358.199 288.102 358.309 288.212C358.419 288.312 358.474 288.452 358.474 288.632V289.472C358.684 289.032 358.979 288.697 359.359 288.467C359.749 288.237 360.194 288.102 360.694 288.062L360.904 288.047Z" fill="#6F737B"/>
</g>
<g clip-path="url(#clip4)">
<path fill-rule="evenodd" clip-rule="evenodd" d="M249.536 308.983C249.992 309.363 250.054 310.042 249.673 310.499L242.494 319.115C242.289 319.36 241.986 319.502 241.667 319.502C241.347 319.502 241.044 319.36 240.839 319.115L237.25 314.807C236.869 314.35 236.931 313.671 237.388 313.29C237.844 312.909 238.523 312.971 238.904 313.428L241.667 316.743L248.019 309.12C248.4 308.664 249.079 308.602 249.536 308.983Z" fill="#2CCCD4"/>
<path d="M273.41 320.797C273.45 320.877 273.47 320.962 273.47 321.052C273.47 321.202 273.41 321.327 273.29 321.427C273.18 321.527 273.045 321.577 272.885 321.577C272.635 321.577 272.46 321.457 272.36 321.217L271.295 318.787H265.64L264.56 321.217C264.46 321.457 264.285 321.577 264.035 321.577C263.875 321.577 263.735 321.527 263.615 321.427C263.495 321.317 263.435 321.187 263.435 321.037C263.435 320.957 263.455 320.877 263.495 320.797L267.785 311.257C267.845 311.117 267.935 311.012 268.055 310.942C268.175 310.872 268.305 310.837 268.445 310.837C268.595 310.837 268.73 310.877 268.85 310.957C268.97 311.027 269.06 311.127 269.12 311.257L273.41 320.797ZM270.845 317.767L268.46 312.382L266.09 317.767H270.845ZM280.888 310.852C281.078 310.852 281.228 310.907 281.338 311.017C281.448 311.127 281.503 311.267 281.503 311.437V320.977C281.503 321.157 281.448 321.302 281.338 321.412C281.228 321.522 281.078 321.577 280.888 321.577C280.698 321.577 280.548 321.522 280.438 321.412C280.338 321.302 280.288 321.157 280.288 320.977V320.167C280.068 320.627 279.743 320.982 279.313 321.232C278.893 321.482 278.398 321.607 277.828 321.607C277.188 321.607 276.623 321.447 276.133 321.127C275.643 320.807 275.263 320.362 274.993 319.792C274.723 319.212 274.588 318.542 274.588 317.782C274.588 317.032 274.723 316.372 274.993 315.802C275.263 315.232 275.643 314.792 276.133 314.482C276.623 314.172 277.188 314.017 277.828 314.017C278.398 314.017 278.893 314.142 279.313 314.392C279.743 314.642 280.068 314.997 280.288 315.457V311.437C280.288 311.257 280.338 311.117 280.438 311.017C280.548 310.907 280.698 310.852 280.888 310.852ZM278.068 320.602C278.778 320.602 279.323 320.362 279.703 319.882C280.093 319.392 280.288 318.702 280.288 317.812C280.288 316.922 280.093 316.237 279.703 315.757C279.323 315.277 278.778 315.037 278.068 315.037C277.358 315.037 276.803 315.277 276.403 315.757C276.013 316.237 275.818 316.912 275.818 317.782C275.818 318.672 276.013 319.367 276.403 319.867C276.803 320.357 277.358 320.602 278.068 320.602ZM289.619 310.852C289.809 310.852 289.959 310.907 290.069 311.017C290.179 311.127 290.234 311.267 290.234 311.437V320.977C290.234 321.157 290.179 321.302 290.069 321.412C289.959 321.522 289.809 321.577 289.619 321.577C289.429 321.577 289.279 321.522 289.169 321.412C289.069 321.302 289.019 321.157 289.019 320.977V320.167C288.799 320.627 288.474 320.982 288.044 321.232C287.624 321.482 287.129 321.607 286.559 321.607C285.919 321.607 285.354 321.447 284.864 321.127C284.374 320.807 283.994 320.362 283.724 319.792C283.454 319.212 283.319 318.542 283.319 317.782C283.319 317.032 283.454 316.372 283.724 315.802C283.994 315.232 284.374 314.792 284.864 314.482C285.354 314.172 285.919 314.017 286.559 314.017C287.129 314.017 287.624 314.142 288.044 314.392C288.474 314.642 288.799 314.997 289.019 315.457V311.437C289.019 311.257 289.069 311.117 289.169 311.017C289.279 310.907 289.429 310.852 289.619 310.852ZM286.799 320.602C287.509 320.602 288.054 320.362 288.434 319.882C288.824 319.392 289.019 318.702 289.019 317.812C289.019 316.922 288.824 316.237 288.434 315.757C288.054 315.277 287.509 315.037 286.799 315.037C286.089 315.037 285.534 315.277 285.134 315.757C284.744 316.237 284.549 316.912 284.549 317.782C284.549 318.672 284.744 319.367 285.134 319.867C285.534 320.357 286.089 320.602 286.799 320.602ZM296.099 314.047C296.519 314.017 296.729 314.187 296.729 314.557C296.729 314.717 296.684 314.847 296.594 314.947C296.504 315.037 296.349 315.092 296.129 315.112L295.679 315.157C295.009 315.217 294.509 315.457 294.179 315.877C293.859 316.287 293.699 316.772 293.699 317.332V320.977C293.699 321.177 293.644 321.327 293.534 321.427C293.424 321.527 293.279 321.577 293.099 321.577C292.919 321.577 292.769 321.527 292.649 321.427C292.539 321.317 292.484 321.167 292.484 320.977V314.647C292.484 314.457 292.544 314.312 292.664 314.212C292.784 314.102 292.929 314.047 293.099 314.047C293.259 314.047 293.394 314.102 293.504 314.212C293.614 314.312 293.669 314.452 293.669 314.632V315.472C293.879 315.032 294.174 314.697 294.554 314.467C294.944 314.237 295.389 314.102 295.889 314.062L296.099 314.047ZM303.281 319.807C303.391 319.807 303.486 319.852 303.566 319.942C303.646 320.032 303.686 320.147 303.686 320.287C303.686 320.537 303.511 320.767 303.161 320.977C302.801 321.187 302.421 321.347 302.021 321.457C301.621 321.557 301.231 321.607 300.851 321.607C299.721 321.607 298.826 321.272 298.166 320.602C297.516 319.932 297.191 319.007 297.191 317.827C297.191 317.077 297.336 316.417 297.626 315.847C297.916 315.267 298.321 314.817 298.841 314.497C299.371 314.177 299.971 314.017 300.641 314.017C301.591 314.017 302.346 314.327 302.906 314.947C303.466 315.567 303.746 316.407 303.746 317.467C303.746 317.667 303.706 317.812 303.626 317.902C303.546 317.992 303.416 318.037 303.236 318.037H298.406C298.496 319.757 299.311 320.617 300.851 320.617C301.241 320.617 301.576 320.567 301.856 320.467C302.136 320.357 302.436 320.212 302.756 320.032C303.016 319.882 303.191 319.807 303.281 319.807ZM300.656 314.962C300.016 314.962 299.501 315.162 299.111 315.562C298.731 315.962 298.506 316.527 298.436 317.257H302.681C302.661 316.517 302.476 315.952 302.126 315.562C301.776 315.162 301.286 314.962 300.656 314.962ZM307.996 321.607C307.536 321.607 307.096 321.552 306.676 321.442C306.266 321.332 305.901 321.177 305.581 320.977C305.401 320.857 305.271 320.747 305.191 320.647C305.121 320.537 305.086 320.407 305.086 320.257C305.086 320.127 305.121 320.022 305.191 319.942C305.271 319.852 305.371 319.807 305.491 319.807C305.611 319.807 305.786 319.882 306.016 320.032C306.316 320.212 306.611 320.357 306.901 320.467C307.201 320.567 307.571 320.617 308.011 320.617C308.551 320.617 308.971 320.522 309.271 320.332C309.571 320.142 309.721 319.867 309.721 319.507C309.721 319.287 309.666 319.112 309.556 318.982C309.446 318.842 309.256 318.722 308.986 318.622C308.716 318.512 308.321 318.402 307.801 318.292C306.921 318.102 306.291 317.847 305.911 317.527C305.531 317.207 305.341 316.772 305.341 316.222C305.341 315.792 305.461 315.412 305.701 315.082C305.941 314.752 306.271 314.492 306.691 314.302C307.121 314.112 307.606 314.017 308.146 314.017C308.536 314.017 308.911 314.072 309.271 314.182C309.641 314.282 309.966 314.427 310.246 314.617C310.586 314.857 310.756 315.107 310.756 315.367C310.756 315.497 310.716 315.607 310.636 315.697C310.556 315.787 310.461 315.832 310.351 315.832C310.231 315.832 310.051 315.747 309.811 315.577C309.531 315.397 309.266 315.257 309.016 315.157C308.766 315.057 308.456 315.007 308.086 315.007C307.616 315.007 307.236 315.112 306.946 315.322C306.666 315.532 306.526 315.812 306.526 316.162C306.526 316.382 306.576 316.562 306.676 316.702C306.786 316.832 306.961 316.952 307.201 317.062C307.451 317.162 307.806 317.262 308.266 317.362C308.946 317.512 309.471 317.677 309.841 317.857C310.221 318.037 310.491 318.257 310.651 318.517C310.811 318.777 310.891 319.107 310.891 319.507C310.891 320.137 310.626 320.647 310.096 321.037C309.566 321.417 308.866 321.607 307.996 321.607ZM315.203 321.607C314.743 321.607 314.303 321.552 313.883 321.442C313.473 321.332 313.108 321.177 312.788 320.977C312.608 320.857 312.478 320.747 312.398 320.647C312.328 320.537 312.293 320.407 312.293 320.257C312.293 320.127 312.328 320.022 312.398 319.942C312.478 319.852 312.578 319.807 312.698 319.807C312.818 319.807 312.993 319.882 313.223 320.032C313.523 320.212 313.818 320.357 314.108 320.467C314.408 320.567 314.778 320.617 315.218 320.617C315.758 320.617 316.178 320.522 316.478 320.332C316.778 320.142 316.928 319.867 316.928 319.507C316.928 319.287 316.873 319.112 316.763 318.982C316.653 318.842 316.463 318.722 316.193 318.622C315.923 318.512 315.528 318.402 315.008 318.292C314.128 318.102 313.498 317.847 313.118 317.527C312.738 317.207 312.548 316.772 312.548 316.222C312.548 315.792 312.668 315.412 312.908 315.082C313.148 314.752 313.478 314.492 313.898 314.302C314.328 314.112 314.813 314.017 315.353 314.017C315.743 314.017 316.118 314.072 316.478 314.182C316.848 314.282 317.173 314.427 317.453 314.617C317.793 314.857 317.963 315.107 317.963 315.367C317.963 315.497 317.923 315.607 317.843 315.697C317.763 315.787 317.668 315.832 317.558 315.832C317.438 315.832 317.258 315.747 317.018 315.577C316.738 315.397 316.473 315.257 316.223 315.157C315.973 315.057 315.663 315.007 315.293 315.007C314.823 315.007 314.443 315.112 314.153 315.322C313.873 315.532 313.733 315.812 313.733 316.162C313.733 316.382 313.783 316.562 313.883 316.702C313.993 316.832 314.168 316.952 314.408 317.062C314.658 317.162 315.013 317.262 315.473 317.362C316.153 317.512 316.678 317.677 317.048 317.857C317.428 318.037 317.698 318.257 317.858 318.517C318.018 318.777 318.098 319.107 318.098 319.507C318.098 320.137 317.833 320.647 317.303 321.037C316.773 321.417 316.073 321.607 315.203 321.607Z" fill="#6F737B"/>
</g>
<g clip-path="url(#clip5)">
<path fill-rule="evenodd" clip-rule="evenodd" d="M249.536 334.983C249.992 335.363 250.054 336.042 249.673 336.499L242.494 345.115C242.289 345.36 241.986 345.502 241.667 345.502C241.347 345.502 241.044 345.36 240.839 345.115L237.25 340.807C236.869 340.35 236.931 339.671 237.388 339.29C237.844 338.909 238.523 338.971 238.904 339.428L241.667 342.743L248.019 335.12C248.4 334.664 249.079 334.602 249.536 334.983Z" fill="#2CCCD4"/>
<path d="M272.21 336.852C272.39 336.852 272.53 336.912 272.63 337.032C272.73 337.142 272.78 337.292 272.78 337.482V346.947C272.78 347.137 272.725 347.292 272.615 347.412C272.515 347.522 272.37 347.577 272.18 347.577C271.99 347.577 271.825 347.492 271.685 347.322L265.46 338.997V346.947C265.46 347.137 265.405 347.292 265.295 347.412C265.195 347.522 265.055 347.577 264.875 347.577C264.695 347.577 264.555 347.522 264.455 347.412C264.355 347.292 264.305 347.137 264.305 346.947V337.482C264.305 337.292 264.355 337.142 264.455 337.032C264.565 336.912 264.715 336.852 264.905 336.852C265.105 336.852 265.275 336.937 265.415 337.107L271.625 345.432V337.482C271.625 337.292 271.675 337.142 271.775 337.032C271.885 336.912 272.03 336.852 272.21 336.852ZM278.244 347.607C277.554 347.607 276.944 347.452 276.414 347.142C275.894 346.832 275.489 346.392 275.199 345.822C274.919 345.242 274.779 344.572 274.779 343.812C274.779 343.052 274.919 342.387 275.199 341.817C275.489 341.237 275.894 340.792 276.414 340.482C276.944 340.172 277.554 340.017 278.244 340.017C278.934 340.017 279.544 340.172 280.074 340.482C280.604 340.792 281.009 341.237 281.289 341.817C281.579 342.387 281.724 343.052 281.724 343.812C281.724 344.572 281.579 345.242 281.289 345.822C281.009 346.392 280.604 346.832 280.074 347.142C279.544 347.452 278.934 347.607 278.244 347.607ZM278.244 346.602C278.964 346.602 279.514 346.367 279.894 345.897C280.284 345.417 280.479 344.722 280.479 343.812C280.479 342.922 280.284 342.237 279.894 341.757C279.504 341.267 278.954 341.022 278.244 341.022C277.534 341.022 276.984 341.267 276.594 341.757C276.204 342.237 276.009 342.922 276.009 343.812C276.009 344.712 276.199 345.402 276.579 345.882C276.969 346.362 277.524 346.602 278.244 346.602ZM286.895 346.617C287.245 346.647 287.42 346.807 287.42 347.097C287.42 347.267 287.355 347.397 287.225 347.487C287.105 347.567 286.92 347.597 286.67 347.577L286.265 347.547C285.465 347.487 284.875 347.247 284.495 346.827C284.115 346.407 283.925 345.772 283.925 344.922V341.157H282.92C282.75 341.157 282.615 341.117 282.515 341.037C282.425 340.947 282.38 340.832 282.38 340.692C282.38 340.542 282.425 340.422 282.515 340.332C282.615 340.242 282.75 340.197 282.92 340.197H283.925V338.502C283.925 338.312 283.98 338.167 284.09 338.067C284.2 337.957 284.35 337.902 284.54 337.902C284.72 337.902 284.865 337.957 284.975 338.067C285.085 338.167 285.14 338.312 285.14 338.502V340.197H286.805C286.965 340.197 287.09 340.242 287.18 340.332C287.28 340.422 287.33 340.542 287.33 340.692C287.33 340.832 287.28 340.947 287.18 341.037C287.09 341.117 286.965 341.157 286.805 341.157H285.14V344.982C285.14 345.532 285.25 345.932 285.47 346.182C285.7 346.422 286.04 346.557 286.49 346.587L286.895 346.617ZM294.272 345.807C294.382 345.807 294.477 345.852 294.557 345.942C294.637 346.032 294.677 346.147 294.677 346.287C294.677 346.537 294.502 346.767 294.152 346.977C293.792 347.187 293.412 347.347 293.012 347.457C292.612 347.557 292.222 347.607 291.842 347.607C290.712 347.607 289.817 347.272 289.157 346.602C288.507 345.932 288.182 345.007 288.182 343.827C288.182 343.077 288.327 342.417 288.617 341.847C288.907 341.267 289.312 340.817 289.832 340.497C290.362 340.177 290.962 340.017 291.632 340.017C292.582 340.017 293.337 340.327 293.897 340.947C294.457 341.567 294.737 342.407 294.737 343.467C294.737 343.667 294.697 343.812 294.617 343.902C294.537 343.992 294.407 344.037 294.227 344.037H289.397C289.487 345.757 290.302 346.617 291.842 346.617C292.232 346.617 292.567 346.567 292.847 346.467C293.127 346.357 293.427 346.212 293.747 346.032C294.007 345.882 294.182 345.807 294.272 345.807ZM291.647 340.962C291.007 340.962 290.492 341.162 290.102 341.562C289.722 341.962 289.497 342.527 289.427 343.257H293.672C293.652 342.517 293.467 341.952 293.117 341.562C292.767 341.162 292.277 340.962 291.647 340.962ZM298.987 347.607C298.527 347.607 298.087 347.552 297.667 347.442C297.257 347.332 296.892 347.177 296.572 346.977C296.392 346.857 296.262 346.747 296.182 346.647C296.112 346.537 296.077 346.407 296.077 346.257C296.077 346.127 296.112 346.022 296.182 345.942C296.262 345.852 296.362 345.807 296.482 345.807C296.602 345.807 296.777 345.882 297.007 346.032C297.307 346.212 297.602 346.357 297.892 346.467C298.192 346.567 298.562 346.617 299.002 346.617C299.542 346.617 299.962 346.522 300.262 346.332C300.562 346.142 300.712 345.867 300.712 345.507C300.712 345.287 300.657 345.112 300.547 344.982C300.437 344.842 300.247 344.722 299.977 344.622C299.707 344.512 299.312 344.402 298.792 344.292C297.912 344.102 297.282 343.847 296.902 343.527C296.522 343.207 296.332 342.772 296.332 342.222C296.332 341.792 296.452 341.412 296.692 341.082C296.932 340.752 297.262 340.492 297.682 340.302C298.112 340.112 298.597 340.017 299.137 340.017C299.527 340.017 299.902 340.072 300.262 340.182C300.632 340.282 300.957 340.427 301.237 340.617C301.577 340.857 301.747 341.107 301.747 341.367C301.747 341.497 301.707 341.607 301.627 341.697C301.547 341.787 301.452 341.832 301.342 341.832C301.222 341.832 301.042 341.747 300.802 341.577C300.522 341.397 300.257 341.257 300.007 341.157C299.757 341.057 299.447 341.007 299.077 341.007C298.607 341.007 298.227 341.112 297.937 341.322C297.657 341.532 297.517 341.812 297.517 342.162C297.517 342.382 297.567 342.562 297.667 342.702C297.777 342.832 297.952 342.952 298.192 343.062C298.442 343.162 298.797 343.262 299.257 343.362C299.937 343.512 300.462 343.677 300.832 343.857C301.212 344.037 301.482 344.257 301.642 344.517C301.802 344.777 301.882 345.107 301.882 345.507C301.882 346.137 301.617 346.647 301.087 347.037C300.557 347.417 299.857 347.607 298.987 347.607Z" fill="#6F737B"/>
</g>
<g clip-path="url(#clip6)">
<path fill-rule="evenodd" clip-rule="evenodd" d="M249.536 360.983C249.992 361.363 250.054 362.042 249.673 362.499L242.494 371.115C242.289 371.36 241.986 371.502 241.667 371.502C241.347 371.502 241.044 371.36 240.839 371.115L237.25 366.807C236.869 366.35 236.931 365.671 237.388 365.29C237.844 364.909 238.523 364.971 238.904 365.428L241.667 368.743L248.019 361.12C248.4 360.664 249.079 360.602 249.536 360.983Z" fill="#2CCCD4"/>
<path d="M268.79 373.622C267.79 373.622 266.925 373.407 266.195 372.977C265.465 372.537 264.9 371.912 264.5 371.102C264.11 370.282 263.915 369.317 263.915 368.207C263.915 367.107 264.11 366.152 264.5 365.342C264.9 364.522 265.465 363.897 266.195 363.467C266.925 363.027 267.79 362.807 268.79 362.807C269.46 362.807 270.09 362.917 270.68 363.137C271.28 363.347 271.8 363.652 272.24 364.052C272.4 364.202 272.48 364.377 272.48 364.577C272.48 364.717 272.44 364.842 272.36 364.952C272.28 365.052 272.185 365.102 272.075 365.102C271.955 365.102 271.81 365.047 271.64 364.937C271.13 364.537 270.665 364.257 270.245 364.097C269.835 363.937 269.36 363.857 268.82 363.857C267.66 363.857 266.765 364.237 266.135 364.997C265.515 365.747 265.205 366.817 265.205 368.207C265.205 369.607 265.515 370.687 266.135 371.447C266.765 372.197 267.66 372.572 268.82 372.572C269.35 372.572 269.825 372.492 270.245 372.332C270.665 372.172 271.13 371.892 271.64 371.492C271.81 371.382 271.955 371.327 272.075 371.327C272.185 371.327 272.28 371.377 272.36 371.477C272.44 371.577 272.48 371.702 272.48 371.852C272.48 372.052 272.4 372.227 272.24 372.377C271.8 372.777 271.28 373.087 270.68 373.307C270.09 373.517 269.46 373.622 268.79 373.622ZM277.16 373.607C276.47 373.607 275.86 373.452 275.33 373.142C274.81 372.832 274.405 372.392 274.115 371.822C273.835 371.242 273.695 370.572 273.695 369.812C273.695 369.052 273.835 368.387 274.115 367.817C274.405 367.237 274.81 366.792 275.33 366.482C275.86 366.172 276.47 366.017 277.16 366.017C277.85 366.017 278.46 366.172 278.99 366.482C279.52 366.792 279.925 367.237 280.205 367.817C280.495 368.387 280.64 369.052 280.64 369.812C280.64 370.572 280.495 371.242 280.205 371.822C279.925 372.392 279.52 372.832 278.99 373.142C278.46 373.452 277.85 373.607 277.16 373.607ZM277.16 372.602C277.88 372.602 278.43 372.367 278.81 371.897C279.2 371.417 279.395 370.722 279.395 369.812C279.395 368.922 279.2 368.237 278.81 367.757C278.42 367.267 277.87 367.022 277.16 367.022C276.45 367.022 275.9 367.267 275.51 367.757C275.12 368.237 274.925 368.922 274.925 369.812C274.925 370.712 275.115 371.402 275.495 371.882C275.885 372.362 276.44 372.602 277.16 372.602ZM290.58 366.017C292.2 366.017 293.01 366.982 293.01 368.912V372.977C293.01 373.167 292.955 373.317 292.845 373.427C292.735 373.527 292.59 373.577 292.41 373.577C292.23 373.577 292.08 373.527 291.96 373.427C291.85 373.317 291.795 373.167 291.795 372.977V368.942C291.795 368.272 291.675 367.787 291.435 367.487C291.195 367.187 290.82 367.037 290.31 367.037C289.7 367.037 289.22 367.242 288.87 367.652C288.52 368.062 288.345 368.617 288.345 369.317V372.977C288.345 373.167 288.285 373.317 288.165 373.427C288.055 373.527 287.91 373.577 287.73 373.577C287.55 373.577 287.405 373.527 287.295 373.427C287.185 373.317 287.13 373.167 287.13 372.977V368.942C287.13 368.272 287.01 367.787 286.77 367.487C286.53 367.187 286.15 367.037 285.63 367.037C285.03 367.037 284.55 367.242 284.19 367.652C283.84 368.062 283.665 368.617 283.665 369.317V372.977C283.665 373.167 283.61 373.317 283.5 373.427C283.39 373.527 283.245 373.577 283.065 373.577C282.885 373.577 282.735 373.527 282.615 373.427C282.505 373.317 282.45 373.167 282.45 372.977V366.647C282.45 366.467 282.505 366.322 282.615 366.212C282.735 366.102 282.885 366.047 283.065 366.047C283.235 366.047 283.375 366.102 283.485 366.212C283.595 366.312 283.65 366.452 283.65 366.632V367.352C283.87 366.922 284.175 366.592 284.565 366.362C284.955 366.132 285.405 366.017 285.915 366.017C287.055 366.017 287.8 366.497 288.15 367.457C288.36 367.017 288.68 366.667 289.11 366.407C289.54 366.147 290.03 366.017 290.58 366.017ZM298.899 366.017C299.539 366.017 300.104 366.177 300.594 366.497C301.084 366.817 301.464 367.267 301.734 367.847C302.004 368.417 302.139 369.082 302.139 369.842C302.139 370.602 302.004 371.267 301.734 371.837C301.464 372.397 301.084 372.832 300.594 373.142C300.114 373.452 299.549 373.607 298.899 373.607C298.329 373.607 297.829 373.482 297.399 373.232C296.979 372.982 296.659 372.627 296.439 372.167V375.692C296.439 375.872 296.384 376.012 296.274 376.112C296.174 376.222 296.029 376.277 295.839 376.277C295.649 376.277 295.499 376.222 295.389 376.112C295.279 376.002 295.224 375.862 295.224 375.692V366.647C295.224 366.467 295.279 366.322 295.389 366.212C295.499 366.102 295.649 366.047 295.839 366.047C296.029 366.047 296.174 366.102 296.274 366.212C296.384 366.322 296.439 366.467 296.439 366.647V367.457C296.659 366.997 296.979 366.642 297.399 366.392C297.829 366.142 298.329 366.017 298.899 366.017ZM298.659 372.602C299.369 372.602 299.919 372.362 300.309 371.882C300.699 371.402 300.894 370.722 300.894 369.842C300.894 368.962 300.699 368.277 300.309 367.787C299.919 367.287 299.369 367.037 298.659 367.037C297.949 367.037 297.399 367.277 297.009 367.757C296.629 368.237 296.439 368.922 296.439 369.812C296.439 370.702 296.629 371.392 297.009 371.882C297.399 372.362 297.949 372.602 298.659 372.602ZM306.939 366.017C308.769 366.017 309.684 366.977 309.684 368.897V372.977C309.684 373.157 309.629 373.302 309.519 373.412C309.419 373.522 309.279 373.577 309.099 373.577C308.919 373.577 308.774 373.522 308.664 373.412C308.554 373.302 308.499 373.157 308.499 372.977V372.257C308.309 372.687 308.019 373.022 307.629 373.262C307.239 373.492 306.789 373.607 306.279 373.607C305.809 373.607 305.374 373.512 304.974 373.322C304.584 373.132 304.274 372.867 304.044 372.527C303.814 372.187 303.699 371.812 303.699 371.402C303.699 370.852 303.839 370.427 304.119 370.127C304.399 369.817 304.859 369.597 305.499 369.467C306.139 369.327 307.029 369.257 308.169 369.257H308.499V368.762C308.499 368.162 308.374 367.722 308.124 367.442C307.884 367.162 307.489 367.022 306.939 367.022C306.259 367.022 305.569 367.207 304.869 367.577C304.599 367.747 304.409 367.832 304.299 367.832C304.179 367.832 304.079 367.787 303.999 367.697C303.919 367.607 303.879 367.492 303.879 367.352C303.879 367.212 303.919 367.092 303.999 366.992C304.089 366.882 304.229 366.772 304.419 366.662C304.769 366.462 305.164 366.307 305.604 366.197C306.054 366.077 306.499 366.017 306.939 366.017ZM306.444 372.647C307.044 372.647 307.534 372.447 307.914 372.047C308.304 371.637 308.499 371.112 308.499 370.472V370.037H308.229C307.349 370.037 306.679 370.077 306.219 370.157C305.759 370.227 305.429 370.352 305.229 370.532C305.039 370.702 304.944 370.957 304.944 371.297C304.944 371.687 305.084 372.012 305.364 372.272C305.654 372.522 306.014 372.647 306.444 372.647ZM315.583 366.017C317.333 366.017 318.208 366.982 318.208 368.912V372.977C318.208 373.167 318.153 373.317 318.043 373.427C317.943 373.527 317.798 373.577 317.608 373.577C317.418 373.577 317.268 373.527 317.158 373.427C317.048 373.317 316.993 373.167 316.993 372.977V368.987C316.993 368.307 316.858 367.812 316.588 367.502C316.328 367.192 315.908 367.037 315.328 367.037C314.658 367.037 314.123 367.242 313.723 367.652C313.323 368.062 313.123 368.617 313.123 369.317V372.977C313.123 373.167 313.068 373.317 312.958 373.427C312.858 373.527 312.713 373.577 312.523 373.577C312.333 373.577 312.183 373.527 312.073 373.427C311.963 373.317 311.908 373.167 311.908 372.977V366.647C311.908 366.467 311.963 366.322 312.073 366.212C312.183 366.102 312.333 366.047 312.523 366.047C312.703 366.047 312.843 366.102 312.943 366.212C313.053 366.322 313.108 366.462 313.108 366.632V367.397C313.348 366.947 313.683 366.607 314.113 366.377C314.543 366.137 315.033 366.017 315.583 366.017ZM325.699 366.422C325.809 366.182 325.984 366.062 326.224 366.062C326.374 366.062 326.509 366.112 326.629 366.212C326.749 366.312 326.809 366.437 326.809 366.587C326.809 366.677 326.789 366.757 326.749 366.827L322.534 375.917C322.484 376.027 322.409 376.112 322.309 376.172C322.219 376.232 322.124 376.262 322.024 376.262C321.874 376.262 321.739 376.212 321.619 376.112C321.509 376.022 321.454 375.902 321.454 375.752C321.454 375.672 321.474 375.592 321.514 375.512L322.564 373.247L319.594 366.827C319.554 366.757 319.534 366.682 319.534 366.602C319.534 366.452 319.599 366.322 319.729 366.212C319.869 366.102 320.019 366.047 320.179 366.047C320.279 366.047 320.374 366.077 320.464 366.137C320.564 366.197 320.639 366.282 320.689 366.392L323.194 372.017L325.699 366.422Z" fill="#6F737B"/>
</g>
</g>
<g filter="url(#filter1_d)">
<path d="M187.111 64.502C187.111 55.6654 194.275 48.502 203.111 48.502H414.018C422.854 48.502 430.018 55.6654 430.018 64.502V104.429H187.111V64.502Z" fill="white"/>
</g>
<path fill-rule="evenodd" clip-rule="evenodd" d="M334.498 81.7413C334.498 79.1034 334.498 64.9825 334.498 64.9825L337.625 64.3618C337.625 64.3618 337.625 78.6378 337.625 80.1896C337.625 81.7413 338.407 82.0517 339.032 82.0517C339.032 84.3793 334.498 84.3793 334.498 81.7413Z" fill="black"/>
<path fill-rule="evenodd" clip-rule="evenodd" d="M312.996 78.98L309.478 83.2929H305.412L311.004 76.5378L305.881 70.2583H309.79L312.996 74.1309L316.202 70.2583H320.111L314.988 76.5378L320.58 83.2929H316.515L312.996 78.98Z" fill="black"/>
<path d="M314.482 83.2932H311.667L313.074 81.4312L314.482 83.2932Z" fill="#CC3630"/>
<path fill-rule="evenodd" clip-rule="evenodd" d="M298.513 70.1005C295.545 70.6633 293.215 72.7849 293.215 76.4654V77.0861C293.215 81.431 296.307 83.6034 300.173 83.6034C303.729 83.6034 306.976 81.431 306.976 77.0861V76.4654C306.976 72.5976 304.691 70.5639 301.693 70.0688L300.541 72.4428C302.164 72.5759 303.883 73.8299 303.883 76.4654V77.3965C303.883 80.1896 301.952 81.1207 300.251 81.1207C298.551 81.1207 296.462 80.1896 296.462 77.3965V76.4654C296.462 73.9864 298.107 72.7297 299.667 72.4784L298.513 70.1005Z" fill="black"/>
<path fill-rule="evenodd" clip-rule="evenodd" d="M324.71 69.9494C323.447 70.1849 322.291 70.6865 321.364 71.4584C320.021 72.5759 319.173 74.2498 319.173 76.4653V77.086C319.173 79.2989 319.98 80.9733 321.303 82.0921C322.623 83.2079 324.441 83.7584 326.445 83.7584C328.416 83.7584 330.174 83.2861 331.763 82.3398L330.275 80.1894C328.736 80.9532 327.556 81.1205 326.445 81.1205C325.606 81.1205 324.695 80.858 323.997 80.2655C323.357 79.7227 322.683 79.0492 322.613 77.8618H333.403C333.403 77.8618 333.559 77.2411 333.559 76.4653C333.559 74.2928 332.753 72.5011 331.449 71.4008C330.516 70.6146 329.338 70.1293 328.037 69.9175L326.812 72.4439C328.167 72.5659 329.701 73.5381 330.119 75.379H322.77C323.159 73.6669 324.63 72.7062 325.939 72.482L324.71 69.9494Z" fill="black"/>
<path d="M283.05 70.2583H279.767C279.767 70.2583 285.552 83.2929 285.552 83.6033C285.552 85.7756 283.52 85.7756 281.487 85.7756H281.487V88.5689C282.73 88.5689 283.969 88.5534 285.083 88.1033C286.195 87.6544 287.458 86.6495 288.054 85.4654C288.59 84.4031 292.612 74.7556 294.466 70.2583H291.026C290.156 72.3677 289 75.2802 287.957 77.9065C287.721 78.5022 287.493 79.0152 287.273 79.5688L283.05 70.2583Z" fill="black"/>
<g clip-path="url(#clip7)">
<path d="M517.807 79.5073V93.351L522.644 96.3973C522.772 96.4345 523.048 96.4371 523.176 96.3973L543.997 82.3595C543.997 80.6982 542.448 79.5073 541.573 79.5073H517.807Z" fill="#0072C6"/>
<path d="M517.807 98.5159L522.222 101.549C522.844 102.006 523.593 101.549 523.593 101.549C522.846 102.006 544 87.9551 544 87.9551V113.399C544 116.169 542.227 117.33 540.233 117.33H517.804V98.5159H517.807Z" fill="#0072C6"/>
<path d="M494.946 92.1338C493.442 92.1338 492.243 92.8409 491.358 94.2523C490.473 95.6638 490.029 97.5325 490.029 99.8584C490.029 102.219 490.473 104.085 491.358 105.456C492.243 106.831 493.405 107.514 494.84 107.514C496.321 107.514 497.496 106.847 498.362 105.512C499.229 104.178 499.665 102.325 499.665 99.9568C499.665 97.4873 499.245 95.5655 498.402 94.1912C497.559 92.8196 496.408 92.1338 494.946 92.1338Z" fill="#0072C6"/>
<path d="M474 72.4764V126.636L515.201 135.275V64.502L474 72.4764ZM501.57 108.712C499.829 111.004 497.559 112.152 494.758 112.152C492.028 112.152 489.805 111.041 488.086 108.821C486.368 106.599 485.507 103.707 485.507 100.14C485.507 96.3733 486.379 93.327 488.125 91.0012C489.872 88.6753 492.184 87.511 495.063 87.511C497.783 87.511 499.984 88.6221 501.661 90.8496C503.341 93.0772 504.181 96.0118 504.181 99.6561C504.183 103.401 503.312 106.421 501.57 108.712Z" fill="#0072C6"/>
</g>
<g clip-path="url(#clip8)">
<path d="M81.1108 116.389C85.309 112.027 91.1399 109.323 97.5831 109.323C106.155 109.323 113.647 114.092 117.641 121.187C121.111 119.646 124.93 118.773 128.982 118.773C144.464 118.773 157 131.393 157 146.98C157 162.566 144.464 175.186 128.982 175.186C127.087 175.186 125.251 174.982 123.472 174.633C119.974 180.885 113.268 185.102 105.601 185.102C102.394 185.102 99.3324 184.375 96.6501 183.037C93.0933 191.383 84.7843 197.257 75.1341 197.257C65.0758 197.257 56.4752 190.918 53.2099 181.99C51.7813 182.281 50.2653 182.456 48.7493 182.456C36.7085 182.456 27 172.685 27 160.588C27 152.505 31.3732 145.438 37.8455 141.658C36.5044 138.605 35.7755 135.203 35.7755 131.655C35.7755 117.755 47.0875 106.502 61.0233 106.502C69.2157 106.502 76.4752 110.369 81.1108 116.389Z" fill="#119CD8"/>
<path d="M45.8338 153.58C45.7463 153.784 45.8629 153.842 45.8921 153.871C46.1253 154.046 46.3877 154.162 46.621 154.307C47.9329 155.005 49.1866 155.209 50.4985 155.209C53.1516 155.209 54.8134 153.784 54.8134 151.516V151.458C54.8134 149.364 52.9475 148.579 51.1982 148.026L50.965 147.968C49.653 147.532 48.516 147.183 48.516 146.311V146.252C48.516 145.496 49.1866 144.973 50.207 144.973C51.344 144.973 52.7143 145.351 53.5889 145.845C53.5889 145.845 53.8513 146.02 53.9387 145.758C53.9971 145.613 54.4344 144.42 54.4927 144.304C54.551 144.159 54.4635 144.072 54.3761 144.013C53.3848 143.403 51.9854 142.996 50.5568 142.996H50.2944C47.8454 142.996 46.1545 144.479 46.1545 146.572V146.63C46.1545 148.84 48.0204 149.567 49.7988 150.062L50.0903 150.149C51.3731 150.556 52.481 150.876 52.481 151.777V151.836C52.481 152.65 51.7522 153.26 50.6151 153.26C50.1778 153.26 48.7201 153.26 47.1749 152.272C47 152.155 46.8833 152.097 46.7376 151.981C46.6501 151.923 46.4752 151.865 46.3877 152.097L45.8338 153.58Z" fill="white"/>
<path d="M84.8717 153.58C84.7842 153.784 84.9008 153.842 84.93 153.871C85.1632 154.046 85.4256 154.162 85.6589 154.307C86.9708 155.005 88.2245 155.209 89.5364 155.209C92.1895 155.209 93.8513 153.784 93.8513 151.516V151.458C93.8513 149.364 91.9854 148.579 90.2361 148.026L90.0029 147.968C88.6909 147.532 87.5539 147.183 87.5539 146.311V146.252C87.5539 145.496 88.2245 144.973 89.2449 144.973C90.3819 144.973 91.7521 145.351 92.6268 145.845C92.6268 145.845 92.8892 146.02 92.9766 145.758C93.0349 145.613 93.4723 144.42 93.5306 144.304C93.5889 144.159 93.5014 144.072 93.4139 144.013C92.4227 143.403 91.0233 142.996 89.5947 142.996H89.3323C86.8833 142.996 85.1924 144.479 85.1924 146.572V146.63C85.1924 148.84 87.0874 149.567 88.8367 150.062L89.1282 150.149C90.411 150.556 91.5189 150.876 91.5189 151.777V151.836C91.5189 152.65 90.79 153.26 89.653 153.26C89.2157 153.26 87.758 153.26 86.2128 152.272C86.0379 152.155 85.9212 152.097 85.7755 151.981C85.7172 151.952 85.5131 151.865 85.4256 152.097L84.8717 153.58Z" fill="white"/>
<path d="M113.735 146.717C113.531 145.99 113.181 145.322 112.714 144.798C112.248 144.246 111.694 143.81 110.994 143.49C110.324 143.17 109.507 143.024 108.604 143.024C107.7 143.024 106.884 143.199 106.213 143.49C105.542 143.81 104.959 144.246 104.493 144.798C104.026 145.351 103.706 145.99 103.472 146.717C103.268 147.444 103.152 148.259 103.152 149.102C103.152 149.945 103.268 150.759 103.472 151.486C103.677 152.213 104.026 152.882 104.493 153.406C104.959 153.958 105.513 154.394 106.213 154.685C106.884 155.005 107.7 155.15 108.604 155.15C109.507 155.15 110.295 155.005 110.994 154.685C111.665 154.365 112.248 153.929 112.714 153.406C113.181 152.853 113.502 152.213 113.735 151.486C113.939 150.759 114.056 149.945 114.056 149.102C114.085 148.259 113.968 147.444 113.735 146.717ZM111.519 149.102C111.519 150.381 111.286 151.399 110.79 152.126C110.324 152.824 109.624 153.173 108.633 153.173C107.642 153.173 106.942 152.824 106.475 152.126C106.009 151.399 105.776 150.381 105.776 149.102C105.776 147.822 106.009 146.805 106.475 146.107C106.942 145.409 107.642 145.06 108.633 145.06C109.624 145.06 110.324 145.409 110.79 146.107C111.286 146.805 111.519 147.822 111.519 149.102Z" fill="white"/>
<path fill-rule="evenodd" clip-rule="evenodd" d="M132.015 152.824C131.956 152.621 131.723 152.679 131.723 152.679C131.402 152.795 131.052 152.911 130.673 152.97C130.294 153.028 129.886 153.057 129.449 153.057C128.37 153.057 127.525 152.737 126.913 152.097C126.3 151.458 125.95 150.44 125.95 149.073C125.95 147.823 126.271 146.863 126.796 146.136C127.35 145.409 128.166 145.06 129.274 145.06C130.178 145.06 130.907 145.177 131.636 145.409C131.636 145.409 131.81 145.496 131.898 145.264C132.102 144.711 132.248 144.333 132.452 143.752C132.51 143.577 132.364 143.519 132.306 143.49C132.015 143.374 131.344 143.199 130.819 143.112C130.353 143.054 129.77 142.996 129.157 142.996C128.224 142.996 127.379 143.17 126.679 143.461C125.98 143.781 125.367 144.217 124.872 144.769C124.405 145.322 124.026 145.962 123.793 146.689C123.56 147.416 123.443 148.23 123.443 149.073C123.443 150.905 123.939 152.388 124.93 153.493C125.921 154.598 127.408 155.151 129.332 155.151C130.469 155.151 131.636 154.918 132.481 154.598C132.481 154.598 132.656 154.511 132.568 154.336L132.015 152.824Z" fill="white"/>
<path fill-rule="evenodd" clip-rule="evenodd" d="M143.414 146.311C143.239 145.584 142.744 144.886 142.452 144.566C141.956 144.042 141.49 143.693 141.023 143.49C140.411 143.228 139.682 143.054 138.866 143.054C137.933 143.054 137.058 143.199 136.388 143.548C135.688 143.868 135.105 144.304 134.639 144.857C134.172 145.409 133.851 146.049 133.618 146.805C133.385 147.532 133.297 148.346 133.297 149.189C133.297 150.062 133.414 150.876 133.647 151.603C133.881 152.33 134.23 152.97 134.726 153.522C135.222 154.045 135.863 154.482 136.621 154.772C137.379 155.063 138.312 155.209 139.362 155.209C141.548 155.209 142.685 154.714 143.152 154.453C143.239 154.394 143.327 154.336 143.21 154.104L142.714 152.737C142.627 152.533 142.423 152.621 142.423 152.621C141.869 152.824 141.111 153.173 139.332 153.173C138.166 153.173 137.292 152.824 136.767 152.301C136.213 151.748 135.921 150.934 135.892 149.8H143.414C143.414 149.8 143.618 149.8 143.647 149.596C143.647 149.451 143.91 147.997 143.414 146.311ZM135.921 147.881C136.038 147.154 136.213 146.572 136.534 146.107C137 145.409 137.7 145.002 138.691 145.002C139.682 145.002 140.324 145.38 140.79 146.107C141.111 146.572 141.227 147.183 141.286 147.881H135.921Z" fill="white"/>
<path fill-rule="evenodd" clip-rule="evenodd" d="M83.0642 146.311C82.8893 145.584 82.3936 144.886 82.1021 144.566C81.6065 144.042 81.14 143.693 80.6735 143.49C80.0613 143.228 79.3324 143.054 78.5161 143.054C77.5831 143.054 76.7085 143.199 76.0379 143.548C75.3382 143.868 74.7551 144.304 74.2887 144.857C73.8222 145.409 73.5015 146.049 73.2683 146.805C73.035 147.532 72.9476 148.346 72.9476 149.189C72.9476 150.062 73.0642 150.876 73.2974 151.603C73.5307 152.33 73.8805 152.97 74.3761 153.522C74.8718 154.045 75.5132 154.482 76.2712 154.772C77.0292 155.063 77.9621 155.209 79.0117 155.209C81.1983 155.209 82.3353 154.714 82.8018 154.453C82.8893 154.394 82.9767 154.336 82.8601 154.104L82.3645 152.737C82.277 152.533 82.0729 152.621 82.0729 152.621C81.519 152.824 80.761 153.173 78.9826 153.173C77.8164 153.173 76.9417 152.824 76.417 152.301C75.863 151.748 75.5715 150.934 75.5423 149.8H83.0642C83.0642 149.8 83.2683 149.8 83.2974 149.596C83.2974 149.451 83.5598 147.997 83.0642 146.311ZM75.5715 147.881C75.6881 147.154 75.863 146.572 76.1837 146.107C76.6502 145.409 77.3499 145.002 78.3412 145.002C79.3324 145.002 79.9738 145.38 80.4403 146.107C80.761 146.572 80.8776 147.183 80.9359 147.881H75.5715Z" fill="white"/>
<path d="M62.2769 147.503C61.9854 147.474 61.5772 147.474 61.1108 147.474C60.4694 147.474 59.828 147.561 59.2449 147.706C58.6618 147.852 58.137 148.113 57.6705 148.433C57.2041 148.753 56.8542 149.189 56.5918 149.684C56.3294 150.178 56.1837 150.76 56.1837 151.428C56.1837 152.097 56.3003 152.679 56.5335 153.144C56.7667 153.609 57.0874 154.016 57.5248 154.307C57.9329 154.598 58.4577 154.831 59.07 154.976C59.653 155.121 60.3236 155.18 61.0525 155.18C61.8396 155.18 62.5976 155.121 63.3557 154.976C64.0845 154.86 64.9883 154.656 65.2507 154.598C65.5131 154.54 65.7755 154.453 65.7755 154.453C65.9504 154.394 65.9504 154.22 65.9504 154.22V147.357C65.9504 145.845 65.5422 144.74 64.7551 144.042C63.9679 143.345 62.8017 142.996 61.2857 142.996C60.7318 142.996 59.7988 143.083 59.274 143.17C59.274 143.17 57.6414 143.49 56.9417 144.013C56.9417 144.013 56.7959 144.101 56.8834 144.304L57.4081 145.729C57.4665 145.903 57.6705 145.845 57.6705 145.845C57.6705 145.845 57.7288 145.816 57.7872 145.787C59.2449 145.002 61.0816 145.031 61.0816 145.031C61.8979 145.031 62.5102 145.206 62.9475 145.525C63.3557 145.845 63.5597 146.311 63.5597 147.328V147.648C62.8892 147.561 62.2769 147.503 62.2769 147.503ZM59.274 152.795C58.9825 152.563 58.9242 152.504 58.8367 152.359C58.6909 152.126 58.6035 151.806 58.6035 151.37C58.6035 150.701 58.8367 150.236 59.274 149.916C59.274 149.916 59.9154 149.364 61.4606 149.364C62.5393 149.364 63.5014 149.538 63.5014 149.538V152.97C63.5014 152.97 62.5393 153.173 61.4606 153.231C59.9737 153.319 59.274 152.795 59.274 152.795Z" fill="white"/>
<path fill-rule="evenodd" clip-rule="evenodd" d="M123.064 143.635C123.123 143.461 123.006 143.374 122.948 143.374C122.831 143.315 122.19 143.199 121.694 143.17C120.732 143.112 120.207 143.257 119.741 143.49C119.274 143.693 118.749 144.042 118.458 144.42V143.49C118.458 143.374 118.37 143.257 118.254 143.257H116.33C116.213 143.257 116.126 143.345 116.126 143.49V154.714C116.126 154.831 116.213 154.947 116.359 154.947H118.341C118.458 154.947 118.575 154.86 118.575 154.714V149.102C118.575 148.346 118.662 147.59 118.837 147.125C119.012 146.66 119.216 146.281 119.507 146.02C119.77 145.758 120.091 145.555 120.44 145.467C120.79 145.351 121.169 145.322 121.461 145.322C121.869 145.322 122.277 145.438 122.277 145.438C122.423 145.467 122.51 145.351 122.569 145.235C122.627 144.886 123.006 143.839 123.064 143.635Z" fill="white"/>
<path fill-rule="evenodd" clip-rule="evenodd" d="M104.493 138.43C104.259 138.343 104.026 138.314 103.735 138.256C103.443 138.198 103.093 138.168 102.714 138.168C101.344 138.168 100.265 138.546 99.5363 139.303C98.7783 140.059 98.2827 141.193 98.0203 142.705L97.9328 143.228H96.2127C96.2127 143.228 96.0086 143.228 95.9503 143.461L95.6588 145.031C95.6296 145.176 95.7171 145.264 95.892 145.264H97.5538L95.8629 154.656C95.7171 155.412 95.5713 156.023 95.4256 156.517C95.2506 156.982 95.1049 157.331 94.9008 157.593C94.6967 157.826 94.5218 158.029 94.2011 158.116C93.9387 158.204 93.6471 158.233 93.3264 158.233C93.1515 158.233 92.8891 158.204 92.7142 158.175C92.5393 158.146 92.4518 158.087 92.306 158.058C92.306 158.058 92.102 157.971 92.0436 158.175C91.9853 158.349 91.548 159.541 91.4897 159.716C91.4314 159.861 91.5189 159.978 91.6063 160.007C91.8396 160.094 91.9853 160.123 92.306 160.21C92.7142 160.297 93.0932 160.326 93.4139 160.326C94.1136 160.326 94.7259 160.239 95.2506 160.036C95.7754 159.832 96.2419 159.512 96.65 159.076C97.0874 158.582 97.3789 158.087 97.6413 157.389C97.9037 156.692 98.1369 155.848 98.3119 154.86L100.003 145.293H102.481C102.481 145.293 102.685 145.293 102.743 145.06L103.035 143.49C103.064 143.344 102.977 143.257 102.802 143.257H100.382C100.382 143.199 100.498 142.356 100.79 141.571C100.907 141.222 101.14 140.96 101.315 140.756C101.49 140.582 101.723 140.437 101.956 140.349C102.189 140.262 102.452 140.233 102.772 140.233C103.006 140.233 103.21 140.262 103.385 140.291C103.618 140.349 103.705 140.378 103.764 140.378C103.997 140.466 104.055 140.378 104.084 140.262L104.668 138.692C104.668 138.546 104.522 138.459 104.493 138.43Z" fill="white"/>
<path fill-rule="evenodd" clip-rule="evenodd" d="M70.8192 154.685C70.8192 154.802 70.7318 154.918 70.6152 154.918H68.6035C68.4869 154.918 68.3994 154.802 68.3994 154.685V138.634C68.3994 138.518 68.4869 138.401 68.6035 138.401H70.6152C70.7318 138.401 70.8192 138.489 70.8192 138.634V154.685Z" fill="white"/>
</g>
<g clip-path="url(#clip9)">
<path d="M544 204.038C544 201.61 543.803 199.169 543.383 196.781H509.702V210.534H528.99C528.189 214.969 525.618 218.893 521.852 221.386V230.31H533.359C540.116 224.09 544 214.904 544 204.038Z" fill="#4285F4"/>
<path d="M509.702 238.932C519.333 238.932 527.455 235.77 533.372 230.31L521.865 221.387C518.663 223.565 514.53 224.799 509.715 224.799C500.399 224.799 492.5 218.513 489.666 210.062H477.792V219.261C483.854 231.321 496.201 238.932 509.702 238.932Z" fill="#34A853"/>
<path d="M489.653 210.061C488.157 205.626 488.157 200.823 489.653 196.387V187.188H477.792C472.727 197.28 472.727 209.169 477.792 219.261L489.653 210.061Z" fill="#FBBC04"/>
<path d="M509.702 181.637C514.793 181.558 519.713 183.474 523.4 186.991L533.595 176.794C527.14 170.732 518.572 167.398 509.702 167.503C496.201 167.503 483.854 175.115 477.792 187.188L489.653 196.387C492.474 187.923 500.386 181.637 509.702 181.637Z" fill="#EA4335"/>
</g>
<defs>
<filter id="filter0_d" x="138" y="18.502" width="342" height="449" filterUnits="userSpaceOnUse" color-interpolation-filters="sRGB">
<feFlood flood-opacity="0" result="BackgroundImageFix"/>
<feColorMatrix in="SourceAlpha" type="matrix" values="0 0 0 0 0 0 0 0 0 0 0 0 0 0 0 0 0 0 127 0"/>
<feOffset dy="20"/>
<feGaussianBlur stdDeviation="25"/>
<feColorMatrix type="matrix" values="0 0 0 0 0 0 0 0 0 0 0 0 0 0 0 0 0 0 0.12 0"/>
<feBlend mode="normal" in2="BackgroundImageFix" result="effect1_dropShadow"/>
<feBlend mode="normal" in="SourceGraphic" in2="effect1_dropShadow" result="shape"/>
</filter>
<filter id="filter1_d" x="167.111" y="31.502" width="282.907" height="95.9269" filterUnits="userSpaceOnUse" color-interpolation-filters="sRGB">
<feFlood flood-opacity="0" result="BackgroundImageFix"/>
<feColorMatrix in="SourceAlpha" type="matrix" values="0 0 0 0 0 0 0 0 0 0 0 0 0 0 0 0 0 0 127 0"/>
<feOffset dy="3"/>
<feGaussianBlur stdDeviation="10"/>
<feColorMatrix type="matrix" values="0 0 0 0 0 0 0 0 0 0 0 0 0 0 0 0 0 0 0.07 0"/>
<feBlend mode="normal" in2="BackgroundImageFix" result="effect1_dropShadow"/>
<feBlend mode="normal" in="SourceGraphic" in2="effect1_dropShadow" result="shape"/>
</filter>
<linearGradient id="paint0_linear" x1="323.459" y1="146.595" x2="294.374" y2="146.595" gradientUnits="userSpaceOnUse">
<stop stop-color="#204BB9"/>
<stop offset="1" stop-color="#2CCCD4"/>
</linearGradient>
<clipPath id="clip0">
<rect width="143" height="152" fill="white" transform="translate(237 227.502)"/>
</clipPath>
<clipPath id="clip1">
<rect width="146" height="22" fill="white" transform="translate(237 227.502)"/>
</clipPath>
<clipPath id="clip2">
<rect width="146" height="22" fill="white" transform="translate(237 253.502)"/>
</clipPath>
<clipPath id="clip3">
<rect width="146" height="22" fill="white" transform="translate(237 279.502)"/>
</clipPath>
<clipPath id="clip4">
<rect width="146" height="22" fill="white" transform="translate(237 305.502)"/>
</clipPath>
<clipPath id="clip5">
<rect width="146" height="22" fill="white" transform="translate(237 331.502)"/>
</clipPath>
<clipPath id="clip6">
<rect width="146" height="22" fill="white" transform="translate(237 357.502)"/>
</clipPath>
<clipPath id="clip7">
<rect width="70" height="70.7735" fill="white" transform="translate(474 64.502)"/>
</clipPath>
<clipPath id="clip8">
<rect width="130" height="90.7547" fill="white" transform="translate(27 106.502)"/>
</clipPath>
<clipPath id="clip9">
<rect width="70" height="71.4286" fill="white" transform="translate(474 167.503)"/>
</clipPath>
</defs>
</svg>
