<svg width="263" height="473" viewBox="0 0 263 473" xmlns="http://www.w3.org/2000/svg" fill="none"><g opacity=".2"><mask id="a" maskUnits="userSpaceOnUse" x="0" y="0" width="496" height="473"><path d="M0 48.923c0-1.175.952-2.127 2.126-2.127s2.126.952 2.126 2.127c0 1.175-.952 2.127-2.126 2.127s-2.126-.952-2.126-2.127zM0 2.127c0-1.175.952-2.127 2.126-2.127s2.126.952 2.126 2.127c0 1.175-.952 2.127-2.126 2.127s-2.126-.952-2.126-2.127zM23.39 25.525c0-1.175.952-2.127 2.126-2.127s2.126.952 2.126 2.127c0 1.175-.952 2.127-2.126 2.127s-2.126-.952-2.126-2.127zM46.781 48.923c0-1.175.952-2.127 2.126-2.127s2.126.952 2.126 2.127c0 1.175-.952 2.127-2.126 2.127s-2.126-.952-2.126-2.127zM70.171 25.525c0-1.175.952-2.127 2.126-2.127s2.126.952 2.126 2.127c0 1.175-.952 2.127-2.126 2.127s-2.126-.952-2.126-2.127zM46.781 2.127c0-1.175.952-2.127 2.126-2.127s2.126.952 2.126 2.127c0 1.175-.952 2.127-2.126 2.127s-2.126-.952-2.126-2.127zM93.562 48.923c0-1.175.952-2.127 2.126-2.127s2.126.952 2.126 2.127c0 1.175-.952 2.127-2.126 2.127s-2.126-.952-2.126-2.127zM116.952 25.525c0-1.175.952-2.127 2.127-2.127 1.174 0 2.126.952 2.126 2.127 0 1.175-.952 2.127-2.126 2.127-1.175 0-2.127-.952-2.127-2.127zM93.562 2.127c0-1.175.952-2.127 2.126-2.127s2.126.952 2.126 2.127c0 1.175-.952 2.127-2.126 2.127s-2.126-.952-2.126-2.127zM140.343 48.923c0-1.175.952-2.127 2.126-2.127s2.126.952 2.126 2.127c0 1.175-.952 2.127-2.126 2.127s-2.126-.952-2.126-2.127zM163.733 25.525c0-1.175.952-2.127 2.126-2.127 1.175 0 2.127.952 2.127 2.127 0 1.175-.952 2.127-2.127 2.127-1.174 0-2.126-.952-2.126-2.127zM140.343 2.127c0-1.175.952-2.127 2.126-2.127s2.126.952 2.126 2.127c0 1.175-.952 2.127-2.126 2.127s-2.126-.952-2.126-2.127zM187.123 48.923c0-1.175.953-2.127 2.127-2.127s2.126.952 2.126 2.127c0 1.175-.952 2.127-2.126 2.127s-2.127-.952-2.127-2.127zM210.514 25.525c0-1.175.952-2.127 2.126-2.127 1.175 0 2.127.952 2.127 2.127 0 1.175-.952 2.127-2.127 2.127-1.174 0-2.126-.952-2.126-2.127zM187.123 2.127c0-1.175.953-2.127 2.127-2.127s2.126.952 2.126 2.127c0 1.175-.952 2.127-2.126 2.127s-2.127-.952-2.127-2.127zM233.904 48.923c0-1.175.952-2.127 2.127-2.127 1.174 0 2.126.952 2.126 2.127 0 1.175-.952 2.127-2.126 2.127-1.175 0-2.127-.952-2.127-2.127zM257.295 25.525c0-1.175.952-2.127 2.126-2.127 1.175 0 2.127.952 2.127 2.127 0 1.175-.952 2.127-2.127 2.127-1.174 0-2.126-.952-2.126-2.127zM233.904 2.127c0-1.175.952-2.127 2.127-2.127 1.174 0 2.126.952 2.126 2.127 0 1.175-.952 2.127-2.126 2.127-1.175 0-2.127-.952-2.127-2.127zM280.685 48.923c0-1.175.952-2.127 2.127-2.127 1.174 0 2.126.952 2.126 2.127 0 1.175-.952 2.127-2.126 2.127-1.175 0-2.127-.952-2.127-2.127zM304.076 25.525c0-1.175.952-2.127 2.126-2.127s2.126.952 2.126 2.127c0 1.175-.952 2.127-2.126 2.127s-2.126-.952-2.126-2.127zM280.685 2.127c0-1.175.952-2.127 2.127-2.127 1.174 0 2.126.952 2.126 2.127 0 1.175-.952 2.127-2.126 2.127-1.175 0-2.127-.952-2.127-2.127zM327.466 48.923c0-1.175.952-2.127 2.126-2.127 1.175 0 2.127.952 2.127 2.127 0 1.175-.952 2.127-2.127 2.127-1.174 0-2.126-.952-2.126-2.127zM350.857 25.525c0-1.175.952-2.127 2.126-2.127s2.126.952 2.126 2.127c0 1.175-.952 2.127-2.126 2.127s-2.126-.952-2.126-2.127zM327.466 2.127c0-1.175.952-2.127 2.126-2.127 1.175 0 2.127.952 2.127 2.127 0 1.175-.952 2.127-2.127 2.127-1.174 0-2.126-.952-2.126-2.127zM374.247 48.923c0-1.175.952-2.127 2.126-2.127 1.175 0 2.127.952 2.127 2.127 0 1.175-.952 2.127-2.127 2.127-1.174 0-2.126-.952-2.126-2.127zM397.637 25.525c0-1.175.952-2.127 2.127-2.127 1.174 0 2.126.952 2.126 2.127 0 1.175-.952 2.127-2.126 2.127-1.175 0-2.127-.952-2.127-2.127zM374.247 2.127c0-1.175.952-2.127 2.126-2.127 1.175 0 2.127.952 2.127 2.127 0 1.175-.952 2.127-2.127 2.127-1.174 0-2.126-.952-2.126-2.127zM421.028 48.923c0-1.175.952-2.127 2.126-2.127 1.175 0 2.127.952 2.127 2.127 0 1.175-.952 2.127-2.127 2.127-1.174 0-2.126-.952-2.126-2.127zM444.418 25.525c0-1.175.952-2.127 2.127-2.127 1.174 0 2.126.952 2.126 2.127 0 1.175-.952 2.127-2.126 2.127-1.175 0-2.127-.952-2.127-2.127zM421.028 2.127c0-1.175.952-2.127 2.126-2.127 1.175 0 2.127.952 2.127 2.127 0 1.175-.952 2.127-2.127 2.127-1.174 0-2.126-.952-2.126-2.127zM467.809 48.923c0-1.175.952-2.127 2.126-2.127s2.126.952 2.126 2.127c0 1.175-.952 2.127-2.126 2.127s-2.126-.952-2.126-2.127zM491.199 25.525c0-1.175.952-2.127 2.127-2.127 1.174 0 2.126.952 2.126 2.127 0 1.175-.952 2.127-2.126 2.127-1.175 0-2.127-.952-2.127-2.127zM467.809 2.127c0-1.175.952-2.127 2.126-2.127s2.126.952 2.126 2.127c0 1.175-.952 2.127-2.126 2.127s-2.126-.952-2.126-2.127zM23.39 72.321c0-1.175.952-2.127 2.126-2.127s2.126.952 2.126 2.127c0 1.175-.952 2.127-2.126 2.127s-2.126-.952-2.126-2.127zM0 95.719c0-1.175.952-2.127 2.126-2.127s2.126.952 2.126 2.127c0 1.175-.952 2.127-2.126 2.127s-2.126-.952-2.126-2.127zM70.171 72.321c0-1.175.952-2.127 2.126-2.127s2.126.952 2.126 2.127c0 1.175-.952 2.127-2.126 2.127s-2.126-.952-2.126-2.127zM46.781 95.719c0-1.175.952-2.127 2.126-2.127s2.126.952 2.126 2.127c0 1.175-.952 2.127-2.126 2.127s-2.126-.952-2.126-2.127zM116.952 72.321c0-1.175.952-2.127 2.127-2.127 1.174 0 2.126.952 2.126 2.127 0 1.175-.952 2.127-2.126 2.127-1.175 0-2.127-.952-2.127-2.127zM93.562 95.719c0-1.175.952-2.127 2.126-2.127s2.126.952 2.126 2.127c0 1.175-.952 2.127-2.126 2.127s-2.126-.952-2.126-2.127zM163.733 72.321c0-1.175.952-2.127 2.126-2.127 1.175 0 2.127.952 2.127 2.127 0 1.175-.952 2.127-2.127 2.127-1.174 0-2.126-.952-2.126-2.127zM140.343 95.719c0-1.175.952-2.127 2.126-2.127s2.126.952 2.126 2.127c0 1.175-.952 2.127-2.126 2.127s-2.126-.952-2.126-2.127zM210.514 72.321c0-1.175.952-2.127 2.126-2.127 1.175 0 2.127.952 2.127 2.127 0 1.175-.952 2.127-2.127 2.127-1.174 0-2.126-.952-2.126-2.127zM187.123 95.719c0-1.175.953-2.127 2.127-2.127s2.126.952 2.126 2.127c0 1.175-.952 2.127-2.126 2.127s-2.127-.952-2.127-2.127zM257.295 72.321c0-1.175.952-2.127 2.126-2.127 1.175 0 2.127.952 2.127 2.127 0 1.175-.952 2.127-2.127 2.127-1.174 0-2.126-.952-2.126-2.127zM233.904 95.719c0-1.175.952-2.127 2.127-2.127 1.174 0 2.126.952 2.126 2.127 0 1.175-.952 2.127-2.126 2.127-1.175 0-2.127-.952-2.127-2.127zM304.076 72.321c0-1.175.952-2.127 2.126-2.127s2.126.952 2.126 2.127c0 1.175-.952 2.127-2.126 2.127s-2.126-.952-2.126-2.127zM280.685 95.719c0-1.175.952-2.127 2.127-2.127 1.174 0 2.126.952 2.126 2.127 0 1.175-.952 2.127-2.126 2.127-1.175 0-2.127-.952-2.127-2.127zM350.857 72.321c0-1.175.952-2.127 2.126-2.127s2.126.952 2.126 2.127c0 1.175-.952 2.127-2.126 2.127s-2.126-.952-2.126-2.127zM327.466 95.719c0-1.175.952-2.127 2.126-2.127 1.175 0 2.127.952 2.127 2.127 0 1.175-.952 2.127-2.127 2.127-1.174 0-2.126-.952-2.126-2.127zM397.637 72.321c0-1.175.952-2.127 2.127-2.127 1.174 0 2.126.952 2.126 2.127 0 1.175-.952 2.127-2.126 2.127-1.175 0-2.127-.952-2.127-2.127zM374.247 95.719c0-1.175.952-2.127 2.126-2.127 1.175 0 2.127.952 2.127 2.127 0 1.175-.952 2.127-2.127 2.127-1.174 0-2.126-.952-2.126-2.127zM444.418 72.321c0-1.175.952-2.127 2.127-2.127 1.174 0 2.126.952 2.126 2.127 0 1.175-.952 2.127-2.126 2.127-1.175 0-2.127-.952-2.127-2.127zM421.028 95.719c0-1.175.952-2.127 2.126-2.127 1.175 0 2.127.952 2.127 2.127 0 1.175-.952 2.127-2.127 2.127-1.174 0-2.126-.952-2.126-2.127zM491.199 72.321c0-1.175.952-2.127 2.127-2.127 1.174 0 2.126.952 2.126 2.127 0 1.175-.952 2.127-2.126 2.127-1.175 0-2.127-.952-2.127-2.127zM467.809 95.719c0-1.175.952-2.127 2.126-2.127s2.126.952 2.126 2.127c0 1.175-.952 2.127-2.126 2.127s-2.126-.952-2.126-2.127zM23.39 119.116c0-1.174.952-2.127 2.126-2.127s2.126.953 2.126 2.127c0 1.175-.952 2.127-2.126 2.127s-2.126-.952-2.126-2.127zM0 142.514c0-1.175.952-2.127 2.126-2.127s2.126.952 2.126 2.127c0 1.175-.952 2.127-2.126 2.127s-2.126-.952-2.126-2.127zM70.171 119.116c0-1.174.952-2.127 2.126-2.127s2.126.953 2.126 2.127c0 1.175-.952 2.127-2.126 2.127s-2.126-.952-2.126-2.127zM46.781 142.514c0-1.175.952-2.127 2.126-2.127s2.126.952 2.126 2.127c0 1.175-.952 2.127-2.126 2.127s-2.126-.952-2.126-2.127zM116.952 119.116c0-1.174.952-2.127 2.127-2.127 1.174 0 2.126.953 2.126 2.127 0 1.175-.952 2.127-2.126 2.127-1.175 0-2.127-.952-2.127-2.127zM93.562 142.514c0-1.175.952-2.127 2.126-2.127s2.126.952 2.126 2.127c0 1.175-.952 2.127-2.126 2.127s-2.126-.952-2.126-2.127zM163.733 119.116c0-1.174.952-2.127 2.126-2.127 1.175 0 2.127.953 2.127 2.127 0 1.175-.952 2.127-2.127 2.127-1.174 0-2.126-.952-2.126-2.127zM140.343 142.514c0-1.175.952-2.127 2.126-2.127s2.126.952 2.126 2.127c0 1.175-.952 2.127-2.126 2.127s-2.126-.952-2.126-2.127zM210.514 119.116c0-1.174.952-2.127 2.126-2.127 1.175 0 2.127.953 2.127 2.127 0 1.175-.952 2.127-2.127 2.127-1.174 0-2.126-.952-2.126-2.127zM187.123 142.514c0-1.175.953-2.127 2.127-2.127s2.126.952 2.126 2.127c0 1.175-.952 2.127-2.126 2.127s-2.127-.952-2.127-2.127zM257.295 119.116c0-1.174.952-2.127 2.126-2.127 1.175 0 2.127.953 2.127 2.127 0 1.175-.952 2.127-2.127 2.127-1.174 0-2.126-.952-2.126-2.127zM233.904 142.514c0-1.175.952-2.127 2.127-2.127 1.174 0 2.126.952 2.126 2.127 0 1.175-.952 2.127-2.126 2.127-1.175 0-2.127-.952-2.127-2.127zM304.076 119.116c0-1.174.952-2.127 2.126-2.127s2.126.953 2.126 2.127c0 1.175-.952 2.127-2.126 2.127s-2.126-.952-2.126-2.127zM280.685 142.514c0-1.175.952-2.127 2.127-2.127 1.174 0 2.126.952 2.126 2.127 0 1.175-.952 2.127-2.126 2.127-1.175 0-2.127-.952-2.127-2.127zM350.857 119.116c0-1.174.952-2.127 2.126-2.127s2.126.953 2.126 2.127c0 1.175-.952 2.127-2.126 2.127s-2.126-.952-2.126-2.127zM327.466 142.514c0-1.175.952-2.127 2.126-2.127 1.175 0 2.127.952 2.127 2.127 0 1.175-.952 2.127-2.127 2.127-1.174 0-2.126-.952-2.126-2.127zM397.637 119.116c0-1.174.952-2.127 2.127-2.127 1.174 0 2.126.953 2.126 2.127 0 1.175-.952 2.127-2.126 2.127-1.175 0-2.127-.952-2.127-2.127zM374.247 142.514c0-1.175.952-2.127 2.126-2.127 1.175 0 2.127.952 2.127 2.127 0 1.175-.952 2.127-2.127 2.127-1.174 0-2.126-.952-2.126-2.127zM444.418 119.116c0-1.174.952-2.127 2.127-2.127 1.174 0 2.126.953 2.126 2.127 0 1.175-.952 2.127-2.126 2.127-1.175 0-2.127-.952-2.127-2.127zM421.028 142.514c0-1.175.952-2.127 2.126-2.127 1.175 0 2.127.952 2.127 2.127 0 1.175-.952 2.127-2.127 2.127-1.174 0-2.126-.952-2.126-2.127zM491.199 119.116c0-1.174.952-2.127 2.127-2.127 1.174 0 2.126.953 2.126 2.127 0 1.175-.952 2.127-2.126 2.127-1.175 0-2.127-.952-2.127-2.127zM467.809 142.514c0-1.175.952-2.127 2.126-2.127s2.126.952 2.126 2.127c0 1.175-.952 2.127-2.126 2.127s-2.126-.952-2.126-2.127zM23.39 165.912c0-1.175.952-2.127 2.126-2.127s2.126.952 2.126 2.127c0 1.175-.952 2.127-2.126 2.127s-2.126-.952-2.126-2.127zM0 189.31c0-1.175.952-2.127 2.126-2.127s2.126.952 2.126 2.127c0 1.175-.952 2.127-2.126 2.127s-2.126-.952-2.126-2.127zM70.171 165.912c0-1.175.952-2.127 2.126-2.127s2.126.952 2.126 2.127c0 1.175-.952 2.127-2.126 2.127s-2.126-.952-2.126-2.127zM46.781 189.31c0-1.175.952-2.127 2.126-2.127s2.126.952 2.126 2.127c0 1.175-.952 2.127-2.126 2.127s-2.126-.952-2.126-2.127zM116.952 165.912c0-1.175.952-2.127 2.127-2.127 1.174 0 2.126.952 2.126 2.127 0 1.175-.952 2.127-2.126 2.127-1.175 0-2.127-.952-2.127-2.127zM93.562 189.31c0-1.175.952-2.127 2.126-2.127s2.126.952 2.126 2.127c0 1.175-.952 2.127-2.126 2.127s-2.126-.952-2.126-2.127zM163.733 165.912c0-1.175.952-2.127 2.126-2.127 1.175 0 2.127.952 2.127 2.127 0 1.175-.952 2.127-2.127 2.127-1.174 0-2.126-.952-2.126-2.127zM140.343 189.31c0-1.175.952-2.127 2.126-2.127s2.126.952 2.126 2.127c0 1.175-.952 2.127-2.126 2.127s-2.126-.952-2.126-2.127zM210.514 165.912c0-1.175.952-2.127 2.126-2.127 1.175 0 2.127.952 2.127 2.127 0 1.175-.952 2.127-2.127 2.127-1.174 0-2.126-.952-2.126-2.127zM187.123 189.31c0-1.175.953-2.127 2.127-2.127s2.126.952 2.126 2.127c0 1.175-.952 2.127-2.126 2.127s-2.127-.952-2.127-2.127zM257.295 165.912c0-1.175.952-2.127 2.126-2.127 1.175 0 2.127.952 2.127 2.127 0 1.175-.952 2.127-2.127 2.127-1.174 0-2.126-.952-2.126-2.127zM233.904 189.31c0-1.175.952-2.127 2.127-2.127 1.174 0 2.126.952 2.126 2.127 0 1.175-.952 2.127-2.126 2.127-1.175 0-2.127-.952-2.127-2.127zM304.076 165.912c0-1.175.952-2.127 2.126-2.127s2.126.952 2.126 2.127c0 1.175-.952 2.127-2.126 2.127s-2.126-.952-2.126-2.127zM280.685 189.31c0-1.175.952-2.127 2.127-2.127 1.174 0 2.126.952 2.126 2.127 0 1.175-.952 2.127-2.126 2.127-1.175 0-2.127-.952-2.127-2.127zM350.857 165.912c0-1.175.952-2.127 2.126-2.127s2.126.952 2.126 2.127c0 1.175-.952 2.127-2.126 2.127s-2.126-.952-2.126-2.127zM327.466 189.31c0-1.175.952-2.127 2.126-2.127 1.175 0 2.127.952 2.127 2.127 0 1.175-.952 2.127-2.127 2.127-1.174 0-2.126-.952-2.126-2.127zM397.637 165.912c0-1.175.952-2.127 2.127-2.127 1.174 0 2.126.952 2.126 2.127 0 1.175-.952 2.127-2.126 2.127-1.175 0-2.127-.952-2.127-2.127zM374.247 189.31c0-1.175.952-2.127 2.126-2.127 1.175 0 2.127.952 2.127 2.127 0 1.175-.952 2.127-2.127 2.127-1.174 0-2.126-.952-2.126-2.127zM444.418 165.912c0-1.175.952-2.127 2.127-2.127 1.174 0 2.126.952 2.126 2.127 0 1.175-.952 2.127-2.126 2.127-1.175 0-2.127-.952-2.127-2.127zM421.028 189.31c0-1.175.952-2.127 2.126-2.127 1.175 0 2.127.952 2.127 2.127 0 1.175-.952 2.127-2.127 2.127-1.174 0-2.126-.952-2.126-2.127zM491.199 165.912c0-1.175.952-2.127 2.127-2.127 1.174 0 2.126.952 2.126 2.127 0 1.175-.952 2.127-2.126 2.127-1.175 0-2.127-.952-2.127-2.127zM467.809 189.31c0-1.175.952-2.127 2.126-2.127s2.126.952 2.126 2.127c0 1.175-.952 2.127-2.126 2.127s-2.126-.952-2.126-2.127zM23.39 212.708c0-1.175.952-2.127 2.126-2.127s2.126.952 2.126 2.127c0 1.174-.952 2.127-2.126 2.127s-2.126-.953-2.126-2.127zM0 236.106c0-1.175.952-2.128 2.126-2.128s2.126.953 2.126 2.128c0 1.174-.952 2.127-2.126 2.127s-2.126-.953-2.126-2.127zM70.171 212.708c0-1.175.952-2.127 2.126-2.127s2.126.952 2.126 2.127c0 1.174-.952 2.127-2.126 2.127s-2.126-.953-2.126-2.127zM46.781 236.106c0-1.175.952-2.128 2.126-2.128s2.126.953 2.126 2.128c0 1.174-.952 2.127-2.126 2.127s-2.126-.953-2.126-2.127zM116.952 212.708c0-1.175.952-2.127 2.127-2.127 1.174 0 2.126.952 2.126 2.127 0 1.174-.952 2.127-2.126 2.127-1.175 0-2.127-.953-2.127-2.127zM93.562 236.106c0-1.175.952-2.128 2.126-2.128s2.126.953 2.126 2.128c0 1.174-.952 2.127-2.126 2.127s-2.126-.953-2.126-2.127zM163.733 212.708c0-1.175.952-2.127 2.126-2.127 1.175 0 2.127.952 2.127 2.127 0 1.174-.952 2.127-2.127 2.127-1.174 0-2.126-.953-2.126-2.127zM140.343 236.106c0-1.175.952-2.128 2.126-2.128s2.126.953 2.126 2.128c0 1.174-.952 2.127-2.126 2.127s-2.126-.953-2.126-2.127zM210.514 212.708c0-1.175.952-2.127 2.126-2.127 1.175 0 2.127.952 2.127 2.127 0 1.174-.952 2.127-2.127 2.127-1.174 0-2.126-.953-2.126-2.127zM187.123 236.106c0-1.175.953-2.128 2.127-2.128s2.126.953 2.126 2.128c0 1.174-.952 2.127-2.126 2.127s-2.127-.953-2.127-2.127zM257.295 212.708c0-1.175.952-2.127 2.126-2.127 1.175 0 2.127.952 2.127 2.127 0 1.174-.952 2.127-2.127 2.127-1.174 0-2.126-.953-2.126-2.127zM233.904 236.106c0-1.175.952-2.128 2.127-2.128 1.174 0 2.126.953 2.126 2.128 0 1.174-.952 2.127-2.126 2.127-1.175 0-2.127-.953-2.127-2.127zM304.076 212.708c0-1.175.952-2.127 2.126-2.127s2.126.952 2.126 2.127c0 1.174-.952 2.127-2.126 2.127s-2.126-.953-2.126-2.127zM280.685 236.106c0-1.175.952-2.128 2.127-2.128 1.174 0 2.126.953 2.126 2.128 0 1.174-.952 2.127-2.126 2.127-1.175 0-2.127-.953-2.127-2.127zM350.857 212.708c0-1.175.952-2.127 2.126-2.127s2.126.952 2.126 2.127c0 1.174-.952 2.127-2.126 2.127s-2.126-.953-2.126-2.127zM327.466 236.106c0-1.175.952-2.128 2.126-2.128 1.175 0 2.127.953 2.127 2.128 0 1.174-.952 2.127-2.127 2.127-1.174 0-2.126-.953-2.126-2.127zM397.637 212.708c0-1.175.952-2.127 2.127-2.127 1.174 0 2.126.952 2.126 2.127 0 1.174-.952 2.127-2.126 2.127-1.175 0-2.127-.953-2.127-2.127zM374.247 236.106c0-1.175.952-2.128 2.126-2.128 1.175 0 2.127.953 2.127 2.128 0 1.174-.952 2.127-2.127 2.127-1.174 0-2.126-.953-2.126-2.127zM444.418 212.708c0-1.175.952-2.127 2.127-2.127 1.174 0 2.126.952 2.126 2.127 0 1.174-.952 2.127-2.126 2.127-1.175 0-2.127-.953-2.127-2.127zM421.028 236.106c0-1.175.952-2.128 2.126-2.128 1.175 0 2.127.953 2.127 2.128 0 1.174-.952 2.127-2.127 2.127-1.174 0-2.126-.953-2.126-2.127zM491.199 212.708c0-1.175.952-2.127 2.127-2.127 1.174 0 2.126.952 2.126 2.127 0 1.174-.952 2.127-2.126 2.127-1.175 0-2.127-.953-2.127-2.127zM467.809 236.106c0-1.175.952-2.128 2.126-2.128s2.126.953 2.126 2.128c0 1.174-.952 2.127-2.126 2.127s-2.126-.953-2.126-2.127zM23.39 259.503c0-1.174.952-2.127 2.126-2.127s2.126.953 2.126 2.127c0 1.175-.952 2.127-2.126 2.127s-2.126-.952-2.126-2.127zM0 282.901c0-1.175.952-2.127 2.126-2.127s2.126.952 2.126 2.127c0 1.175-.952 2.127-2.126 2.127s-2.126-.952-2.126-2.127zM70.171 259.503c0-1.174.952-2.127 2.126-2.127s2.126.953 2.126 2.127c0 1.175-.952 2.127-2.126 2.127s-2.126-.952-2.126-2.127zM46.781 282.901c0-1.175.952-2.127 2.126-2.127s2.126.952 2.126 2.127c0 1.175-.952 2.127-2.126 2.127s-2.126-.952-2.126-2.127zM116.952 259.503c0-1.174.952-2.127 2.127-2.127 1.174 0 2.126.953 2.126 2.127 0 1.175-.952 2.127-2.126 2.127-1.175 0-2.127-.952-2.127-2.127zM93.562 282.901c0-1.175.952-2.127 2.126-2.127s2.126.952 2.126 2.127c0 1.175-.952 2.127-2.126 2.127s-2.126-.952-2.126-2.127zM163.733 259.503c0-1.174.952-2.127 2.126-2.127 1.175 0 2.127.953 2.127 2.127 0 1.175-.952 2.127-2.127 2.127-1.174 0-2.126-.952-2.126-2.127zM140.343 282.901c0-1.175.952-2.127 2.126-2.127s2.126.952 2.126 2.127c0 1.175-.952 2.127-2.126 2.127s-2.126-.952-2.126-2.127zM210.514 259.503c0-1.174.952-2.127 2.126-2.127 1.175 0 2.127.953 2.127 2.127 0 1.175-.952 2.127-2.127 2.127-1.174 0-2.126-.952-2.126-2.127zM187.123 282.901c0-1.175.953-2.127 2.127-2.127s2.126.952 2.126 2.127c0 1.175-.952 2.127-2.126 2.127s-2.127-.952-2.127-2.127zM257.295 259.503c0-1.174.952-2.127 2.126-2.127 1.175 0 2.127.953 2.127 2.127 0 1.175-.952 2.127-2.127 2.127-1.174 0-2.126-.952-2.126-2.127zM233.904 282.901c0-1.175.952-2.127 2.127-2.127 1.174 0 2.126.952 2.126 2.127 0 1.175-.952 2.127-2.126 2.127-1.175 0-2.127-.952-2.127-2.127zM304.076 259.503c0-1.174.952-2.127 2.126-2.127s2.126.953 2.126 2.127c0 1.175-.952 2.127-2.126 2.127s-2.126-.952-2.126-2.127zM280.685 282.901c0-1.175.952-2.127 2.127-2.127 1.174 0 2.126.952 2.126 2.127 0 1.175-.952 2.127-2.126 2.127-1.175 0-2.127-.952-2.127-2.127zM350.857 259.503c0-1.174.952-2.127 2.126-2.127s2.126.953 2.126 2.127c0 1.175-.952 2.127-2.126 2.127s-2.126-.952-2.126-2.127zM327.466 282.901c0-1.175.952-2.127 2.126-2.127 1.175 0 2.127.952 2.127 2.127 0 1.175-.952 2.127-2.127 2.127-1.174 0-2.126-.952-2.126-2.127zM397.637 259.503c0-1.174.952-2.127 2.127-2.127 1.174 0 2.126.953 2.126 2.127 0 1.175-.952 2.127-2.126 2.127-1.175 0-2.127-.952-2.127-2.127zM374.247 282.901c0-1.175.952-2.127 2.126-2.127 1.175 0 2.127.952 2.127 2.127 0 1.175-.952 2.127-2.127 2.127-1.174 0-2.126-.952-2.126-2.127zM444.418 259.503c0-1.174.952-2.127 2.127-2.127 1.174 0 2.126.953 2.126 2.127 0 1.175-.952 2.127-2.126 2.127-1.175 0-2.127-.952-2.127-2.127zM421.028 282.901c0-1.175.952-2.127 2.126-2.127 1.175 0 2.127.952 2.127 2.127 0 1.175-.952 2.127-2.127 2.127-1.174 0-2.126-.952-2.126-2.127zM491.199 259.503c0-1.174.952-2.127 2.127-2.127 1.174 0 2.126.953 2.126 2.127 0 1.175-.952 2.127-2.126 2.127-1.175 0-2.127-.952-2.127-2.127zM467.809 282.901c0-1.175.952-2.127 2.126-2.127s2.126.952 2.126 2.127c0 1.175-.952 2.127-2.126 2.127s-2.126-.952-2.126-2.127zM23.39 306.299c0-1.175.952-2.127 2.126-2.127s2.126.952 2.126 2.127c0 1.175-.952 2.127-2.126 2.127s-2.126-.952-2.126-2.127zM0 329.697c0-1.175.952-2.127 2.126-2.127s2.126.952 2.126 2.127c0 1.175-.952 2.127-2.126 2.127s-2.126-.952-2.126-2.127zM70.171 306.299c0-1.175.952-2.127 2.126-2.127s2.126.952 2.126 2.127c0 1.175-.952 2.127-2.126 2.127s-2.126-.952-2.126-2.127zM46.781 329.697c0-1.175.952-2.127 2.126-2.127s2.126.952 2.126 2.127c0 1.175-.952 2.127-2.126 2.127s-2.126-.952-2.126-2.127zM116.952 306.299c0-1.175.952-2.127 2.127-2.127 1.174 0 2.126.952 2.126 2.127 0 1.175-.952 2.127-2.126 2.127-1.175 0-2.127-.952-2.127-2.127zM93.562 329.697c0-1.175.952-2.127 2.126-2.127s2.126.952 2.126 2.127c0 1.175-.952 2.127-2.126 2.127s-2.126-.952-2.126-2.127zM163.733 306.299c0-1.175.952-2.127 2.126-2.127 1.175 0 2.127.952 2.127 2.127 0 1.175-.952 2.127-2.127 2.127-1.174 0-2.126-.952-2.126-2.127zM140.343 329.697c0-1.175.952-2.127 2.126-2.127s2.126.952 2.126 2.127c0 1.175-.952 2.127-2.126 2.127s-2.126-.952-2.126-2.127zM210.514 306.299c0-1.175.952-2.127 2.126-2.127 1.175 0 2.127.952 2.127 2.127 0 1.175-.952 2.127-2.127 2.127-1.174 0-2.126-.952-2.126-2.127zM187.123 329.697c0-1.175.953-2.127 2.127-2.127s2.126.952 2.126 2.127c0 1.175-.952 2.127-2.126 2.127s-2.127-.952-2.127-2.127zM257.295 306.299c0-1.175.952-2.127 2.126-2.127 1.175 0 2.127.952 2.127 2.127 0 1.175-.952 2.127-2.127 2.127-1.174 0-2.126-.952-2.126-2.127zM233.904 329.697c0-1.175.952-2.127 2.127-2.127 1.174 0 2.126.952 2.126 2.127 0 1.175-.952 2.127-2.126 2.127-1.175 0-2.127-.952-2.127-2.127zM304.076 306.299c0-1.175.952-2.127 2.126-2.127s2.126.952 2.126 2.127c0 1.175-.952 2.127-2.126 2.127s-2.126-.952-2.126-2.127zM280.685 329.697c0-1.175.952-2.127 2.127-2.127 1.174 0 2.126.952 2.126 2.127 0 1.175-.952 2.127-2.126 2.127-1.175 0-2.127-.952-2.127-2.127zM350.857 306.299c0-1.175.952-2.127 2.126-2.127s2.126.952 2.126 2.127c0 1.175-.952 2.127-2.126 2.127s-2.126-.952-2.126-2.127zM327.466 329.697c0-1.175.952-2.127 2.126-2.127 1.175 0 2.127.952 2.127 2.127 0 1.175-.952 2.127-2.127 2.127-1.174 0-2.126-.952-2.126-2.127zM397.637 306.299c0-1.175.952-2.127 2.127-2.127 1.174 0 2.126.952 2.126 2.127 0 1.175-.952 2.127-2.126 2.127-1.175 0-2.127-.952-2.127-2.127zM374.247 329.697c0-1.175.952-2.127 2.126-2.127 1.175 0 2.127.952 2.127 2.127 0 1.175-.952 2.127-2.127 2.127-1.174 0-2.126-.952-2.126-2.127zM444.418 306.299c0-1.175.952-2.127 2.127-2.127 1.174 0 2.126.952 2.126 2.127 0 1.175-.952 2.127-2.126 2.127-1.175 0-2.127-.952-2.127-2.127zM421.028 329.697c0-1.175.952-2.127 2.126-2.127 1.175 0 2.127.952 2.127 2.127 0 1.175-.952 2.127-2.127 2.127-1.174 0-2.126-.952-2.126-2.127zM491.199 306.299c0-1.175.952-2.127 2.127-2.127 1.174 0 2.126.952 2.126 2.127 0 1.175-.952 2.127-2.126 2.127-1.175 0-2.127-.952-2.127-2.127zM467.809 329.697c0-1.175.952-2.127 2.126-2.127s2.126.952 2.126 2.127c0 1.175-.952 2.127-2.126 2.127s-2.126-.952-2.126-2.127zM23.39 353.095c0-1.175.952-2.127 2.126-2.127s2.126.952 2.126 2.127c0 1.175-.952 2.127-2.126 2.127s-2.126-.952-2.126-2.127zM0 376.493c0-1.175.952-2.127 2.126-2.127s2.126.952 2.126 2.127c0 1.174-.952 2.127-2.126 2.127s-2.126-.953-2.126-2.127zM70.171 353.095c0-1.175.952-2.127 2.126-2.127s2.126.952 2.126 2.127c0 1.175-.952 2.127-2.126 2.127s-2.126-.952-2.126-2.127zM46.781 376.493c0-1.175.952-2.127 2.126-2.127s2.126.952 2.126 2.127c0 1.174-.952 2.127-2.126 2.127s-2.126-.953-2.126-2.127zM116.952 353.095c0-1.175.952-2.127 2.127-2.127 1.174 0 2.126.952 2.126 2.127 0 1.175-.952 2.127-2.126 2.127-1.175 0-2.127-.952-2.127-2.127zM93.562 376.493c0-1.175.952-2.127 2.126-2.127s2.126.952 2.126 2.127c0 1.174-.952 2.127-2.126 2.127s-2.126-.953-2.126-2.127zM163.733 353.095c0-1.175.952-2.127 2.126-2.127 1.175 0 2.127.952 2.127 2.127 0 1.175-.952 2.127-2.127 2.127-1.174 0-2.126-.952-2.126-2.127zM140.343 376.493c0-1.175.952-2.127 2.126-2.127s2.126.952 2.126 2.127c0 1.174-.952 2.127-2.126 2.127s-2.126-.953-2.126-2.127zM210.514 353.095c0-1.175.952-2.127 2.126-2.127 1.175 0 2.127.952 2.127 2.127 0 1.175-.952 2.127-2.127 2.127-1.174 0-2.126-.952-2.126-2.127zM187.123 376.493c0-1.175.953-2.127 2.127-2.127s2.126.952 2.126 2.127c0 1.174-.952 2.127-2.126 2.127s-2.127-.953-2.127-2.127zM257.295 353.095c0-1.175.952-2.127 2.126-2.127 1.175 0 2.127.952 2.127 2.127 0 1.175-.952 2.127-2.127 2.127-1.174 0-2.126-.952-2.126-2.127zM233.904 376.493c0-1.175.952-2.127 2.127-2.127 1.174 0 2.126.952 2.126 2.127 0 1.174-.952 2.127-2.126 2.127-1.175 0-2.127-.953-2.127-2.127zM304.076 353.095c0-1.175.952-2.127 2.126-2.127s2.126.952 2.126 2.127c0 1.175-.952 2.127-2.126 2.127s-2.126-.952-2.126-2.127zM280.685 376.493c0-1.175.952-2.127 2.127-2.127 1.174 0 2.126.952 2.126 2.127 0 1.174-.952 2.127-2.126 2.127-1.175 0-2.127-.953-2.127-2.127zM350.857 353.095c0-1.175.952-2.127 2.126-2.127s2.126.952 2.126 2.127c0 1.175-.952 2.127-2.126 2.127s-2.126-.952-2.126-2.127zM327.466 376.493c0-1.175.952-2.127 2.126-2.127 1.175 0 2.127.952 2.127 2.127 0 1.174-.952 2.127-2.127 2.127-1.174 0-2.126-.953-2.126-2.127zM397.637 353.095c0-1.175.952-2.127 2.127-2.127 1.174 0 2.126.952 2.126 2.127 0 1.175-.952 2.127-2.126 2.127-1.175 0-2.127-.952-2.127-2.127zM374.247 376.493c0-1.175.952-2.127 2.126-2.127 1.175 0 2.127.952 2.127 2.127 0 1.174-.952 2.127-2.127 2.127-1.174 0-2.126-.953-2.126-2.127zM444.418 353.095c0-1.175.952-2.127 2.127-2.127 1.174 0 2.126.952 2.126 2.127 0 1.175-.952 2.127-2.126 2.127-1.175 0-2.127-.952-2.127-2.127zM421.028 376.493c0-1.175.952-2.127 2.126-2.127 1.175 0 2.127.952 2.127 2.127 0 1.174-.952 2.127-2.127 2.127-1.174 0-2.126-.953-2.126-2.127zM491.199 353.095c0-1.175.952-2.127 2.127-2.127 1.174 0 2.126.952 2.126 2.127 0 1.175-.952 2.127-2.126 2.127-1.175 0-2.127-.952-2.127-2.127zM467.809 376.493c0-1.175.952-2.127 2.126-2.127s2.126.952 2.126 2.127c0 1.174-.952 2.127-2.126 2.127s-2.126-.953-2.126-2.127zM23.39 399.89c0-1.174.952-2.127 2.126-2.127s2.126.953 2.126 2.127c0 1.175-.952 2.128-2.126 2.128s-2.126-.953-2.126-2.128zM0 423.288c0-1.174.952-2.127 2.126-2.127s2.126.953 2.126 2.127c0 1.175-.952 2.127-2.126 2.127s-2.126-.952-2.126-2.127zM70.171 399.89c0-1.174.952-2.127 2.126-2.127s2.126.953 2.126 2.127c0 1.175-.952 2.128-2.126 2.128s-2.126-.953-2.126-2.128zM46.781 423.288c0-1.174.952-2.127 2.126-2.127s2.126.953 2.126 2.127c0 1.175-.952 2.127-2.126 2.127s-2.126-.952-2.126-2.127zM116.952 399.89c0-1.174.952-2.127 2.127-2.127 1.174 0 2.126.953 2.126 2.127 0 1.175-.952 2.128-2.126 2.128-1.175 0-2.127-.953-2.127-2.128zM93.562 423.288c0-1.174.952-2.127 2.126-2.127s2.126.953 2.126 2.127c0 1.175-.952 2.127-2.126 2.127s-2.126-.952-2.126-2.127zM163.733 399.89c0-1.174.952-2.127 2.126-2.127 1.175 0 2.127.953 2.127 2.127 0 1.175-.952 2.128-2.127 2.128-1.174 0-2.126-.953-2.126-2.128zM140.343 423.288c0-1.174.952-2.127 2.126-2.127s2.126.953 2.126 2.127c0 1.175-.952 2.127-2.126 2.127s-2.126-.952-2.126-2.127zM210.514 399.89c0-1.174.952-2.127 2.126-2.127 1.175 0 2.127.953 2.127 2.127 0 1.175-.952 2.128-2.127 2.128-1.174 0-2.126-.953-2.126-2.128zM187.123 423.288c0-1.174.953-2.127 2.127-2.127s2.126.953 2.126 2.127c0 1.175-.952 2.127-2.126 2.127s-2.127-.952-2.127-2.127zM257.295 399.89c0-1.174.952-2.127 2.126-2.127 1.175 0 2.127.953 2.127 2.127 0 1.175-.952 2.128-2.127 2.128-1.174 0-2.126-.953-2.126-2.128zM233.904 423.288c0-1.174.952-2.127 2.127-2.127 1.174 0 2.126.953 2.126 2.127 0 1.175-.952 2.127-2.126 2.127-1.175 0-2.127-.952-2.127-2.127zM304.076 399.89c0-1.174.952-2.127 2.126-2.127s2.126.953 2.126 2.127c0 1.175-.952 2.128-2.126 2.128s-2.126-.953-2.126-2.128zM280.685 423.288c0-1.174.952-2.127 2.127-2.127 1.174 0 2.126.953 2.126 2.127 0 1.175-.952 2.127-2.126 2.127-1.175 0-2.127-.952-2.127-2.127zM350.857 399.89c0-1.174.952-2.127 2.126-2.127s2.126.953 2.126 2.127c0 1.175-.952 2.128-2.126 2.128s-2.126-.953-2.126-2.128zM327.466 423.288c0-1.174.952-2.127 2.126-2.127 1.175 0 2.127.953 2.127 2.127 0 1.175-.952 2.127-2.127 2.127-1.174 0-2.126-.952-2.126-2.127zM397.637 399.89c0-1.174.952-2.127 2.127-2.127 1.174 0 2.126.953 2.126 2.127 0 1.175-.952 2.128-2.126 2.128-1.175 0-2.127-.953-2.127-2.128zM374.247 423.288c0-1.174.952-2.127 2.126-2.127 1.175 0 2.127.953 2.127 2.127 0 1.175-.952 2.127-2.127 2.127-1.174 0-2.126-.952-2.126-2.127zM444.418 399.89c0-1.174.952-2.127 2.127-2.127 1.174 0 2.126.953 2.126 2.127 0 1.175-.952 2.128-2.126 2.128-1.175 0-2.127-.953-2.127-2.128zM421.028 423.288c0-1.174.952-2.127 2.126-2.127 1.175 0 2.127.953 2.127 2.127 0 1.175-.952 2.127-2.127 2.127-1.174 0-2.126-.952-2.126-2.127zM491.199 399.89c0-1.174.952-2.127 2.127-2.127 1.174 0 2.126.953 2.126 2.127 0 1.175-.952 2.128-2.126 2.128-1.175 0-2.127-.953-2.127-2.128zM467.809 423.288c0-1.174.952-2.127 2.126-2.127s2.126.953 2.126 2.127c0 1.175-.952 2.127-2.126 2.127s-2.126-.952-2.126-2.127zM23.39 446.686c0-1.175.952-2.127 2.126-2.127s2.126.952 2.126 2.127c0 1.175-.952 2.127-2.126 2.127s-2.126-.952-2.126-2.127zM0 470.084c0-1.175.952-2.127 2.126-2.127s2.126.952 2.126 2.127c0 1.175-.952 2.127-2.126 2.127s-2.126-.952-2.126-2.127zM70.171 446.686c0-1.175.952-2.127 2.126-2.127s2.126.952 2.126 2.127c0 1.175-.952 2.127-2.126 2.127s-2.126-.952-2.126-2.127zM46.781 470.084c0-1.175.952-2.127 2.126-2.127s2.126.952 2.126 2.127c0 1.175-.952 2.127-2.126 2.127s-2.126-.952-2.126-2.127zM116.952 446.686c0-1.175.952-2.127 2.127-2.127 1.174 0 2.126.952 2.126 2.127 0 1.175-.952 2.127-2.126 2.127-1.175 0-2.127-.952-2.127-2.127zM93.562 470.084c0-1.175.952-2.127 2.126-2.127s2.126.952 2.126 2.127c0 1.175-.952 2.127-2.126 2.127s-2.126-.952-2.126-2.127zM163.733 446.686c0-1.175.952-2.127 2.126-2.127 1.175 0 2.127.952 2.127 2.127 0 1.175-.952 2.127-2.127 2.127-1.174 0-2.126-.952-2.126-2.127zM140.343 470.084c0-1.175.952-2.127 2.126-2.127s2.126.952 2.126 2.127c0 1.175-.952 2.127-2.126 2.127s-2.126-.952-2.126-2.127zM210.514 446.686c0-1.175.952-2.127 2.126-2.127 1.175 0 2.127.952 2.127 2.127 0 1.175-.952 2.127-2.127 2.127-1.174 0-2.126-.952-2.126-2.127zM187.123 470.084c0-1.175.953-2.127 2.127-2.127s2.126.952 2.126 2.127c0 1.175-.952 2.127-2.126 2.127s-2.127-.952-2.127-2.127zM257.295 446.686c0-1.175.952-2.127 2.126-2.127 1.175 0 2.127.952 2.127 2.127 0 1.175-.952 2.127-2.127 2.127-1.174 0-2.126-.952-2.126-2.127zM233.904 470.084c0-1.175.952-2.127 2.127-2.127 1.174 0 2.126.952 2.126 2.127 0 1.175-.952 2.127-2.126 2.127-1.175 0-2.127-.952-2.127-2.127zM304.076 446.686c0-1.175.952-2.127 2.126-2.127s2.126.952 2.126 2.127c0 1.175-.952 2.127-2.126 2.127s-2.126-.952-2.126-2.127zM280.685 470.084c0-1.175.952-2.127 2.127-2.127 1.174 0 2.126.952 2.126 2.127 0 1.175-.952 2.127-2.126 2.127-1.175 0-2.127-.952-2.127-2.127zM350.857 446.686c0-1.175.952-2.127 2.126-2.127s2.126.952 2.126 2.127c0 1.175-.952 2.127-2.126 2.127s-2.126-.952-2.126-2.127zM327.466 470.084c0-1.175.952-2.127 2.126-2.127 1.175 0 2.127.952 2.127 2.127 0 1.175-.952 2.127-2.127 2.127-1.174 0-2.126-.952-2.126-2.127zM397.637 446.686c0-1.175.952-2.127 2.127-2.127 1.174 0 2.126.952 2.126 2.127 0 1.175-.952 2.127-2.126 2.127-1.175 0-2.127-.952-2.127-2.127zM374.247 470.084c0-1.175.952-2.127 2.126-2.127 1.175 0 2.127.952 2.127 2.127 0 1.175-.952 2.127-2.127 2.127-1.174 0-2.126-.952-2.126-2.127zM444.418 446.686c0-1.175.952-2.127 2.127-2.127 1.174 0 2.126.952 2.126 2.127 0 1.175-.952 2.127-2.126 2.127-1.175 0-2.127-.952-2.127-2.127zM421.028 470.084c0-1.175.952-2.127 2.126-2.127 1.175 0 2.127.952 2.127 2.127 0 1.175-.952 2.127-2.127 2.127-1.174 0-2.126-.952-2.126-2.127zM491.199 446.686c0-1.175.952-2.127 2.127-2.127 1.174 0 2.126.952 2.126 2.127 0 1.175-.952 2.127-2.126 2.127-1.175 0-2.127-.952-2.127-2.127zM467.809 470.084c0-1.175.952-2.127 2.126-2.127s2.126.952 2.126 2.127c0 1.175-.952 2.127-2.126 2.127s-2.126-.952-2.126-2.127z"/></mask><circle cx="281.003" cy="215.506" r="215.506" fill="#C7C7C7" mask="url(#a)"/></g></svg>