<svg width="111" height="110" viewBox="0 0 111 110" xmlns="http://www.w3.org/2000/svg" fill="none"><g clip-path="url(#a)"><path d="M68.388 38.5h-25.665v18.333h25.667v-18.333zm-5.5 12.833c0 1.014-.821 1.833-1.833 1.833h-11c-1.012 0-1.833-.819-1.833-1.833v-7.333c0-1.014.821-1.833 1.833-1.833h11c1.012 0 1.833.819 1.833 1.833v7.333zM50.055 29.333c0-3.032 2.468-5.5 5.5-5.5s5.5 2.468 5.5 5.5v5.5h3.667v-5.5c0-5.055-4.112-9.167-9.167-9.167s-9.167 4.112-9.167 9.167v5.5h3.667v-5.5z" fill="#F7931E"/><path d="M103.223 7.333h-95.337c-4.043 0-7.331 3.289-7.331 7.332v64.17c0 4.043 3.289 7.332 7.331 7.332h30.409l15.963 15.962c.358.358.827.538 1.296.538.469 0 .939-.18 1.296-.538l15.965-15.962h30.409c4.043 0 7.332-3.289 7.332-7.332v-64.17c-.002-4.043-3.291-7.332-7.334-7.332zm-29.335 60.5c0 1.014-.821 1.833-1.833 1.833h-14.667c-1.012 0-1.833-.82-1.833-1.833 0-1.014.821-1.833 1.833-1.833h14.667c1.012 0 1.833.82 1.833 1.833zm-34.833-31.167c0-1.014.821-1.833 1.833-1.833h1.833v-5.5c0-7.075 5.757-12.833 12.833-12.833 7.077 0 12.833 5.759 12.833 12.833v5.5h1.833c1.012 0 1.833.819 1.833 1.833v22c0 1.014-.821 1.833-1.833 1.833h-29.333c-1.012 0-1.833-.819-1.833-1.833v-22zm-14.667 29.333h25.667c1.012 0 1.833.82 1.833 1.833 0 1.014-.821 1.833-1.833 1.833h-25.667c-1.012 0-1.833-.82-1.833-1.833 0-1.014.821-1.833 1.833-1.833zm5.5 11h-5.5c-1.012 0-1.833-.819-1.833-1.833s.821-1.833 1.833-1.833h5.5c1.012 0 1.833.82 1.833 1.833 0 1.014-.821 1.833-1.833 1.833zm27.5 0h-20.167c-1.012 0-1.833-.819-1.833-1.833s.821-1.833 1.833-1.833h20.167c1.012 0 1.833.82 1.833 1.833 0 1.014-.821 1.833-1.833 1.833zm29.333 0h-22c-1.012 0-1.833-.819-1.833-1.833s.821-1.833 1.833-1.833h22c1.012 0 1.833.82 1.833 1.833 0 1.014-.821 1.833-1.833 1.833zm0-7.333h-7.333c-1.012 0-1.833-.82-1.833-1.833 0-1.014.821-1.833 1.833-1.833h7.333c1.012 0 1.833.82 1.833 1.833 0 1.014-.821 1.833-1.833 1.833z" fill="#58595B"/></g><defs><clipPath id="a"><path fill="#fff" d="M.5 0h110v110h-110z"/></clipPath></defs></svg>