<svg width="281" height="277" viewBox="0 0 281 277" xmlns="http://www.w3.org/2000/svg" fill="none"><path opacity=".3" d="M230.774 130.42c0 48.48-39.192 87.644-87.705 87.644-48.514 0-87.706-39.164-87.706-87.644 0-48.48 39.192-87.644 87.706-87.644 48.513 0 87.705 39.354 87.705 87.644z" fill="url(#a)"/><path d="M169.704 103.994c7.355 0 13.317-5.959 13.317-13.308 0-7.35-5.962-13.308-13.317-13.308s-13.318 5.958-13.318 13.308 5.963 13.308 13.318 13.308zM191.773 121.675c-.761-7.415-10.464-13.309-22.069-13.309-11.605 0-21.118 5.894-22.069 13.309h44.138z" fill="#F37021"/><path d="M169.704 161.409c-12.176 0-22.069 6.464-22.069 14.259v7.795h44.138v-7.795c0-7.795-9.893-14.259-22.069-14.259zM162.855 154.945c2.093 1.141 4.376 1.901 6.849 1.901s4.756-.76 6.849-1.901h7.99l-1.712-11.977c-1.141-7.605-6.088-12.738-13.317-12.738-7.04 0-11.986 5.703-13.318 12.738l-1.712 11.977h8.371z" fill="#FFFDE4"/><path d="M103.306 143.728c0 7.225 5.898 13.308 13.318 13.308 7.229 0 13.317-5.893 13.317-13.308 0-7.224-5.897-13.308-13.317-13.308s-13.318 5.894-13.318 13.308zm13.318 17.681c-12.176 0-22.069 6.464-22.069 14.259v7.794h44.138v-7.794c0-7.795-9.893-14.259-22.069-14.259z" fill="#F37021"/><path d="M116.434 103.994c2.473 0 4.756-.761 6.849-1.901h8.18l-1.712-11.978c-1.141-7.605-6.088-12.738-13.317-12.738-7.04 0-11.986 5.704-13.318 12.738l-1.712 11.978h8.181c2.092 1.14 4.375 1.901 6.849 1.901zM116.434 108.366c-11.606 0-21.118 5.894-22.069 13.309h44.138c-.761-7.415-10.274-13.309-22.069-13.309z" fill="#FFFDE4"/><path d="M254.365 247.342c-.571-.571-1.712-.571-2.283 0-.571.57-.571 1.711 0 2.471.381.38.761.571 1.142.571.38 0 .761-.191 1.141-.571.761-.76.761-1.711 0-2.471zM237.623 232.893c.571-.57.571-1.711 0-2.281-.571-.571-1.712-.571-2.283 0-.571.57-.571 1.711 0 2.471.38.38.761.571 1.141.571.381-.191.761-.381 1.142-.761zM220.881 216.163c.571-.571.571-1.711 0-2.282-.571-.57-1.712-.57-2.283 0-.571.571-.571 1.711 0 2.472.38.38.761.57 1.141.57.381 0 .761-.57 1.142-.76zM229.252 224.528c.571-.571.571-1.711 0-2.282-.571-.57-1.712-.57-2.283 0-.571.571-.571 1.711 0 2.472.38.38.761.38 1.141.38.381 0 .761-.19 1.142-.57zM245.994 241.258c.571-.57.571-1.711 0-2.281-.571-.571-1.712-.571-2.283 0-.571.57-.571 1.711 0 2.471.381.38.761.571 1.142.571.38-.191.951-.381 1.141-.761zM262.736 255.707c-.571-.57-1.712-.57-2.283 0s-.571 1.711 0 2.472c.38.38.761.57 1.141.57.381 0 .761-.19 1.142-.57.761-.761.761-1.712 0-2.472zM252.462 213.691c-.761-.76-1.712-.76-2.473 0-.571.571-.571 1.711 0 2.472.381.38.761.57 1.142.57.38 0 .761-.19 1.141-.57.951-.761.951-1.711.19-2.472zM261.214 224.908c.571-.57.571-1.711 0-2.281-.571-.571-1.712-.571-2.283 0-.571.57-.571 1.711 0 2.471.38.38.761.57 1.141.57.381 0 .952-.57 1.142-.76zM269.965 231.182c-.57-.571-1.712-.571-2.283 0-.57.57-.57 1.711 0 2.471.381.381.761.571 1.142.571.38 0 .761-.19 1.141-.571.761-.76.761-1.711 0-2.471zM278.717 239.927c-.571-.57-1.712-.57-2.283 0-.571.571-.571 1.711 0 2.472.381.38.761.57 1.142.57.38 0 .761-.19 1.141-.57.761-.761.761-1.711 0-2.472zM222.213 246.962c-.571-.571-1.713-.571-2.283 0-.571.57-.571 1.711 0 2.471.38.38.761.57 1.141.57.381 0 .761-.19 1.142-.57.761-.76.761-1.711 0-2.471zM213.842 238.597c-.571-.571-1.713-.571-2.283 0-.571.57-.571 1.711 0 2.471.38.38.761.57 1.141.57.381 0 .761-.19 1.142-.57.761-.76.761-1.711 0-2.471zM230.584 255.137c-.571-.571-1.713-.571-2.283 0-.571.57-.571 1.711 0 2.471.38.38.761.57 1.141.57.381 0 .761-.19 1.142-.57.57-.57.57-1.711 0-2.471zM188.919 213.691c-.571-.57-1.712-.57-2.283 0s-.571 1.711 0 2.472c.38.38.761.57 1.141.57.381 0 .761-.19 1.142-.57.761-.761.761-1.711 0-2.472zM205.471 230.231c-.571-.57-1.713-.57-2.283 0-.571.571-.571 1.711 0 2.472.38.38.761.38 1.141.38.381 0 .951-.19 1.142-.57.761-.381.761-1.521 0-2.282zM247.135 271.867c-.57-.57-1.712-.57-2.283 0-.57.57-.57 1.711 0 2.471.381.381.761.381 1.142.381.38 0 .951-.19 1.141-.571.761-.57.761-1.711 0-2.281zM238.765 263.502c-.571-.571-1.713-.571-2.283 0-.571.57-.571 1.711 0 2.471.38.38.761.571 1.141.571.381 0 .761-.191 1.142-.571.761-.76.761-1.711 0-2.471zM197.29 222.056c-.571-.57-1.712-.57-2.283 0-.571.571-.571 1.711 0 2.472.38.38.761.57 1.141.57.381 0 .761-.19 1.142-.57.761-.761.761-1.711 0-2.472zM229.062 207.798c.761-.761.761-1.711.19-2.472-.381-.38-.761-.57-1.142-.57-.38 0-.761.19-1.141.38-.571.57-.761 1.711 0 2.472.571.76 1.522.76 2.093.19zM253.224 179.66c-.381 0-.952.19-1.142.571-.571.57-.761 1.711 0 2.471.571.57 1.712.76 2.283 0 .571-.57.571-1.711 0-2.281-.19-.571-.761-.761-1.141-.761zM261.595 171.295c-.381 0-.952.19-1.142.571-.571.57-.761 1.711 0 2.471.571.57 1.712.761 2.283 0 .571-.57.571-1.711 0-2.281-.19-.761-.571-.761-1.141-.761zM237.623 199.242c.761-.76.761-1.711 0-2.471-.381-.38-.761-.57-1.142-.57-.38 0-.951.19-1.141.57-.571.57-.761 1.711 0 2.471.571.761 1.522.761 2.283 0zM245.994 190.877c.761-.76.761-1.711 0-2.471-.381-.381-.761-.571-1.142-.571-.38 0-.761.19-1.141.571-.571.57-.761 1.711 0 2.471.571.571 1.522.761 2.283 0zM268.824 195.82c-.38 0-.761.19-1.141.57-.571.571-.761 1.712 0 2.472.57.57 1.712.76 2.283 0 .57-.57.57-1.711 0-2.281-.191-.761-.761-.761-1.142-.761zM278.717 189.927c.761-.761.761-1.712 0-2.472-.38-.38-.761-.57-1.141-.57-.381 0-.761.19-1.142.57-.571.57-.761 1.711 0 2.472.571.57 1.712.57 2.283 0zM261.214 207.417c.761-.76.761-1.711 0-2.471-.38-.381-.761-.571-1.141-.571-.381 0-.761.19-1.142.571-.571.57-.761 1.711 0 2.471.571.571 1.712.571 2.283 0zM245.994 155.135c-.38 0-.761.19-1.141.38-.571.571-.761 1.712 0 2.472.57.57 1.712.76 2.283 0 .57-.57.761-1.711 0-2.281-.191-.381-.761-.571-1.142-.571zM229.442 171.675c-.38 0-.951.191-1.141.571-.571.57-.761 1.711 0 2.471.571.571 1.712.761 2.283 0 .571-.57.571-1.711 0-2.281-.381-.57-.761-.761-1.142-.761zM237.623 163.5c-.381 0-.761.19-1.142.571-.57.57-.761 1.711 0 2.471.571.57 1.713.761 2.283 0 .571-.57.571-1.711 0-2.281-.19-.761-.57-.761-1.141-.761zM221.071 180.041c-.38 0-.951.19-1.141.57-.571.57-.761 1.711 0 2.472.57.57 1.712.76 2.283 0 .57-.571.57-1.712 0-2.282-.381-.57-.761-.76-1.142-.76zM212.7 188.406c-.38 0-.761.19-1.141.57-.571.57-.761 1.711 0 2.471.57.571 1.712.761 2.283 0 .57-.57.57-1.711 0-2.281-.191-.76-.571-.76-1.142-.76zM196.148 204.946c-.38 0-.951.19-1.141.57-.571.57-.761 1.711 0 2.472.571.57 1.712.76 2.283 0 .571-.571.571-1.711 0-2.282-.381-.57-.761-.76-1.142-.76zM204.519 196.581c-.38 0-.761.19-1.141.38-.571.57-.761 1.711 0 2.472.571.57 1.712.76 2.283 0 .571-.571.761-1.712 0-2.282-.381-.38-.761-.57-1.142-.57zM26.635 94.108c.571-.57 1.712-.57 2.283 0s.571 1.711 0 2.471c-.38.19-.761.38-1.141.38-.381 0-.761-.19-1.142-.57-.761-.57-.761-1.521 0-2.281zM43.377 79.659c-.571-.57-.571-1.711 0-2.281.571-.57 1.712-.57 2.283 0s.571 1.711 0 2.472c-.38.38-.761.57-1.142.57-.38-.19-.761-.38-1.142-.76zM60.119 62.929c-.571-.57-.571-1.711 0-2.281.571-.57 1.712-.57 2.283 0s.571 1.711 0 2.472c-.38.38-.761.57-1.142.57-.38 0-.761-.38-1.142-.761zM51.748 71.294c-.571-.57-.571-1.711 0-2.281.571-.57 1.712-.57 2.283 0s.571 1.711 0 2.471c-.38.38-.761.38-1.142.38-.38 0-.761-.19-1.142-.57zM35.006 88.024c-.571-.57-.571-1.711 0-2.281.571-.57 1.712-.57 2.283 0s.571 1.711 0 2.472c-.38.38-.761.57-1.142.57-.571-.19-.951-.38-1.142-.76zM18.074 102.473c.571-.57 1.712-.57 2.283 0s.571 1.711 0 2.471c-.381.381-.761.571-1.142.571-.38 0-.761-.19-1.142-.571-.571-.76-.571-1.711 0-2.471zM28.348 60.457c.761-.761 1.712-.761 2.473 0 .571.57.571 1.711 0 2.472-.38.38-.761.57-1.141.57-.381 0-.761-.19-1.142-.57-.761-.761-.761-1.711-.19-2.472zM19.596 71.674c-.571-.57-.571-1.711 0-2.281.571-.57 1.712-.57 2.283 0s.571 1.711 0 2.472c-.381.38-.761.57-1.142.57-.381 0-.761-.38-1.142-.76zM11.035 77.948c.571-.57 1.712-.57 2.283 0s.571 1.711 0 2.472c-.381.38-.761.57-1.142.57-.38 0-.761-.19-1.142-.57-.761-.761-.761-1.711 0-2.472zM2.283 86.693c.571-.57 1.712-.57 2.283 0s.571 1.711 0 2.472c-.381.19-.761.38-1.142.38-.381 0-.951-.19-1.332-.38-.571-.76-.571-1.711.19-2.472zM58.788 93.727c.571-.57 1.712-.57 2.283 0s.571 1.711 0 2.472c-.38.38-.761.57-1.142.57-.38 0-.761-.19-1.142-.57-.761-.76-.761-1.711 0-2.472zM67.159 85.362c.571-.57 1.712-.57 2.283 0s.571 1.711 0 2.471c-.38.38-.761.57-1.141.57s-.761-.19-1.141-.57c-.761-.76-.761-1.711 0-2.471zM50.416 102.093c.571-.571 1.712-.571 2.283 0 .571.57.571 1.711 0 2.471-.38.38-.761.571-1.142.571-.38 0-.761-.191-1.142-.571-.571-.76-.761-1.901 0-2.471zM92.082 60.457c.571-.57 1.712-.57 2.283 0s.571 1.711 0 2.472c-.381.38-.761.57-1.142.57-.38 0-.761-.19-1.141-.57-.761-.761-.761-1.711 0-2.472zM75.339 76.997c.571-.57 1.712-.57 2.283 0s.571 1.711 0 2.471c-.38.38-.761.38-1.141.38s-.951-.19-1.142-.57c-.761-.38-.571-1.521 0-2.281zM33.865 118.633c.571-.571 1.712-.571 2.283 0 .571.57.571 1.711 0 2.471-.38.381-.761.381-1.142.381-.38 0-.951-.191-1.142-.571-.761-.57-.761-1.711 0-2.281zM42.236 110.268c.571-.571 1.712-.571 2.283 0 .571.57.571 1.711 0 2.471-.38.38-.761.57-1.142.57-.38 0-.761-.19-1.142-.57-.761-.76-.761-1.711 0-2.471zM83.71 68.822c.571-.57 1.712-.57 2.283 0s.571 1.711 0 2.472c-.38.38-.761.57-1.141.57s-.761-.19-1.141-.57c-.761-.761-.761-1.711 0-2.472zM51.748 54.564c-.761-.761-.761-1.711-.19-2.471.38-.38.761-.57 1.142-.57.38 0 .761.19 1.142.38.571.57.761 1.711 0 2.471-.38.76-1.332.76-2.093.19zM27.777 26.426c.381 0 .951.19 1.142.57.571.57.761 1.711 0 2.471-.571.57-1.712.761-2.283 0-.571-.57-.571-1.711 0-2.281.19-.57.571-.761 1.141-.761zM19.215 18.061c.381 0 .951.19 1.142.57.571.57.761 1.711 0 2.472-.571.57-1.712.76-2.283 0-.571-.57-.571-1.711 0-2.281.381-.57.761-.761 1.142-.761zM43.377 46.008c-.761-.761-.761-1.711 0-2.471.38-.38.761-.57 1.142-.57.38 0 .951.19 1.142.57.571.57.761 1.711 0 2.471-.571.761-1.712.761-2.283 0zM35.006 37.643c-.761-.761-.761-1.711 0-2.472.38-.38.761-.57 1.141-.57.381 0 .761.19 1.142.57.571.57.761 1.711 0 2.472-.571.76-1.712.76-2.283 0zM12.176 42.586c.381 0 .761.19 1.142.57.571.57.761 1.711 0 2.471-.571.57-1.712.761-2.283 0-.571-.57-.571-1.711 0-2.281.19-.57.571-.76 1.141-.76zM2.283 36.692c-.761-.761-.761-1.711 0-2.471.381-.38.761-.57 1.142-.57.381 0 .761.19 1.142.57.571.57.761 1.711 0 2.471-.571.57-1.712.57-2.283 0zM19.786 54.183c-.761-.761-.761-1.711 0-2.472.38-.38.761-.57 1.142-.57.38 0 .761.19 1.141.57.571.57.761 1.711 0 2.472-.571.57-1.712.57-2.283 0zM35.006 1.901c.38 0 .761.19 1.142.38.571.57.761 1.711 0 2.472-.571.57-1.712.76-2.283 0-.571-.57-.761-1.711 0-2.281.19-.38.761-.57 1.142-.57zM51.558 18.441c.38 0 .951.19 1.141.57.571.57.761 1.711 0 2.472-.571.57-1.712.76-2.283 0-.571-.57-.571-1.711 0-2.281.38-.57.761-.761 1.142-.761zM43.187 10.266c.381 0 .761.19 1.142.57.571.57.761 1.711 0 2.472-.571.57-1.712.76-2.283 0-.571-.57-.571-1.711 0-2.281.381-.57.761-.761 1.142-.761zM59.929 26.806c.38 0 .951.19 1.142.57.571.57.761 1.711 0 2.472-.571.57-1.712.76-2.283 0-.571-.57-.571-1.711 0-2.281.19-.57.761-.761 1.142-.761zM68.11 35.172c.381 0 .761.19 1.142.57.571.57.761 1.711 0 2.471-.571.57-1.712.76-2.283 0-.571-.57-.571-1.711 0-2.281.38-.57.761-.761 1.142-.761zM84.852 51.712c.38 0 .951.19 1.142.57.571.57.761 1.711 0 2.472-.571.57-1.712.761-2.283 0-.571-.57-.571-1.711 0-2.281.19-.57.761-.76 1.141-.76zM76.481 43.347c.38 0 .761.19 1.141.38.571.57.761 1.711 0 2.472-.571.57-1.712.76-2.283 0-.571-.57-.761-1.711 0-2.281.381-.38.761-.57 1.142-.57z" fill="#EF4223"/><defs><radialGradient id="a" cx="0" cy="0" r="1" gradientUnits="userSpaceOnUse" gradientTransform="translate(143.117 130.435) scale(87.69 87.629)"><stop stop-color="#754C29"/><stop offset="1" stop-color="#fff"/></radialGradient></defs></svg>