<svg width="111" height="110" viewBox="0 0 111 110" xmlns="http://www.w3.org/2000/svg" fill="none"><path d="M94.36 31.508c-.808-7.983-7.568-14.235-15.761-14.235-1.464 0-2.898.197-4.276.582-.519-9.933-8.764-17.854-18.824-17.854-10.06 0-18.305 7.921-18.824 17.854-1.377-.385-2.812-.582-4.276-.582-8.193 0-14.953 6.252-15.761 14.235-9.142 1.499-16.14 9.455-16.14 19.015 0 10.662 8.644 19.336 19.268 19.336h.707l-.097.761c-.694 6.322.369 12.706 3.072 18.461.475 1.01.995 1.99 1.551 2.944 1.343-1.745 3.06-3.187 5.03-4.206-.26-.485-.512-.976-.748-1.478-2.199-4.681-3.063-9.874-2.499-15.017.054-.491.125-.978.204-1.464h-6.514c.801-6.057 3.187-11.776 6.934-16.583 3.89-4.99 8.714-8.73 14.336-11.116 4.12-1.748 8.574-2.683 13.06-2.765v6.444c-3.624.081-7.217.844-10.542 2.255-4.602 1.953-8.562 5.03-11.771 9.146-2.866 3.677-4.751 8.014-5.503 12.621h56.95c-.313-1.744-.795-3.471-1.453-5.157-.948-2.43-2.15-4.676-3.593-6.716-1.819 1.04-3.922 1.637-6.163 1.637-6.871 0-12.461-5.59-12.461-12.461s5.59-12.461 12.461-12.461 12.461 5.59 12.461 12.461c0 2.267-.612 4.394-1.675 6.227 2.031 2.696 3.698 5.698 4.974 8.969.954 2.446 1.608 4.962 1.976 7.499h-6.528c1.267 7.045-.252 14.36-4.379 20.348-5.766 8.367-14.794 13.111-24.471 12.976v6.448l.423.004c11.645 0 22.447-5.746 29.356-15.77 4.88-7.081 6.81-15.658 5.6-24.006h.764c10.624 0 19.268-8.674 19.268-19.337 0-9.559-6.998-17.515-16.14-19.015zM36.917 109.98c4.863 0 8.805-3.941 8.805-8.804s-3.942-8.805-8.805-8.805c-4.863 0-8.804 3.942-8.804 8.805 0 4.863 3.942 8.804 8.804 8.804zM72.731 53.393c3.441 0 6.23-2.789 6.23-6.23 0-3.441-2.789-6.23-6.23-6.23-3.441 0-6.231 2.79-6.231 6.23 0 3.441 2.79 6.23 6.231 6.23z" fill="#58595B"/></svg>