<svg width="230" height="231" viewBox="0 0 230 231" fill="none" xmlns="http://www.w3.org/2000/svg">
<circle cx="115" cy="115.501" r="115" fill="#F0F0F4"/>
<path d="M201.765 199.721H28.2349C25.2239 199.721 22.7832 197.28 22.7832 194.269V189.43C22.7832 188.162 23.8115 187.134 25.0795 187.134H204.92C206.189 187.134 207.217 188.162 207.217 189.43V194.269C207.217 197.28 204.776 199.721 201.765 199.721Z" fill="#C8C3CA"/>
<path d="M188.763 89.8232H41.2372C37.4896 89.8232 34.4514 92.8614 34.4514 96.6091V187.134H195.548V96.6091C195.548 92.8614 192.51 89.8232 188.763 89.8232Z" fill="#B1ABB4"/>
<path d="M46.3264 187.134V104.807C46.3264 103.09 47.7184 101.698 49.4354 101.698H180.564C182.281 101.698 183.673 103.09 183.673 104.807V187.134H46.3264Z" fill="white"/>
<path d="M204.921 187.134H193.788C195.056 187.134 196.084 188.162 196.084 189.43V194.269C196.084 197.28 193.643 199.721 190.632 199.721H201.765C204.776 199.721 207.217 197.28 207.217 194.269V189.43C207.217 188.162 206.189 187.134 204.921 187.134Z" fill="#B1ABB4"/>
<path d="M188.762 89.8232H177.63C181.377 89.8232 184.415 92.8614 184.415 96.6091V187.134H195.548V96.6091C195.548 92.8614 192.51 89.8232 188.762 89.8232Z" fill="#A29AA5"/>
<path d="M180.564 101.698H169.432C171.149 101.698 172.541 103.09 172.541 104.807V187.134H183.674V104.807C183.674 103.09 182.282 101.698 180.564 101.698Z" fill="#E3E0E4"/>
<path d="M98.7217 187.134H131.278V199.721H98.7217V187.134Z" fill="#766D78"/>
<path d="M120.146 187.134H131.278V199.721H120.146V187.134Z" fill="#655E67"/>
<path d="M161.648 58.6624H151.068C149.628 58.6624 148.461 57.495 148.461 56.0551V45.4752C148.461 44.0354 149.628 42.8679 151.068 42.8679H161.648C163.088 42.8679 164.255 44.0354 164.255 45.4752V56.0551C164.255 57.495 163.088 58.6624 161.648 58.6624Z" fill="#F7931E"/>
<path d="M78.9317 66.0843H68.3518C66.912 66.0843 65.7445 64.9168 65.7445 63.477V52.8971C65.7445 51.4573 66.912 50.2898 68.3518 50.2898H78.9317C80.3715 50.2898 81.539 51.4573 81.539 52.8971V63.477C81.539 64.9168 80.3719 66.0843 78.9317 66.0843Z" fill="#F7931E"/>
<path d="M120.29 43.0765H109.71C108.27 43.0765 107.103 41.909 107.103 40.4692V29.8893C107.103 28.4494 108.27 27.282 109.71 27.282H120.29C121.73 27.282 122.897 28.4494 122.897 29.8893V40.4692C122.897 41.909 121.73 43.0765 120.29 43.0765Z" fill="#FFE07D"/>
<path d="M120.29 72.1202H109.71C108.27 72.1202 107.103 70.9527 107.103 69.5129V58.933C107.103 57.4931 108.27 56.3257 109.71 56.3257H120.29C121.73 56.3257 122.897 57.4931 122.897 58.933V69.5129C122.897 70.9531 121.73 72.1202 120.29 72.1202Z" fill="#FFE07D"/>
<path d="M120.29 132.273H109.71C108.27 132.273 107.103 131.105 107.103 129.665V119.085C107.103 117.645 108.27 116.478 109.71 116.478H120.29C121.73 116.478 122.897 117.645 122.897 119.085V129.665C122.897 131.105 121.73 132.273 120.29 132.273Z" fill="#F7931E"/>
<path d="M120.29 163.543H109.71C108.27 163.543 107.103 162.376 107.103 160.936V150.356C107.103 148.916 108.27 147.749 109.71 147.749H120.29C121.73 147.749 122.897 148.916 122.897 150.356V160.936C122.897 162.376 121.73 163.543 120.29 163.543Z" fill="#FFE07D"/>
<path d="M78.9317 136.83H68.3518C66.912 136.83 65.7445 135.662 65.7445 134.223V123.643C65.7445 122.203 66.912 121.035 68.3518 121.035H78.9317C80.3715 121.035 81.539 122.203 81.539 123.643V134.223C81.539 135.663 80.3719 136.83 78.9317 136.83Z" fill="#FFE07D"/>
<path d="M78.9317 165.956H68.3518C66.912 165.956 65.7445 164.788 65.7445 163.348V152.768C65.7445 151.329 66.912 150.161 68.3518 150.161H78.9317C80.3715 150.161 81.539 151.329 81.539 152.768V163.348C81.539 164.789 80.3719 165.956 78.9317 165.956Z" fill="#FFE07D"/>
<path d="M162.012 140.17H151.432C149.992 140.17 148.825 139.002 148.825 137.562V126.983C148.825 125.543 149.992 124.375 151.432 124.375H162.012C163.452 124.375 164.619 125.543 164.619 126.983V137.562C164.619 139.003 163.452 140.17 162.012 140.17Z" fill="#FFE07D"/>
</svg>
