<svg width="324" height="359" viewBox="0 0 324 359" xmlns="http://www.w3.org/2000/svg" fill="none"><path d="M251.641 187.478c0 48.436-39.123 87.565-87.552 87.565-48.429 0-87.552-39.129-87.552-87.565 0-48.437 39.123-87.566 87.552-87.566 48.429 0 87.552 39.319 87.552 87.566z" fill="url(#a)"/><path d="M126.105 213.691c0 3.419 2.659 6.078 6.078 6.078h60.774c3.418 0 6.077-2.659 6.077-6.078v-51.856h-72.929v51.856zm18.043-3.42h-12.345v-10.447h12.345v10.447zm16.523 0h-12.345v-10.447h12.345v10.447zm16.332 0h-12.344v-10.447h12.344v10.447zm16.333 0h-12.344v-10.447h12.344v10.447zm0-14.436h-12.344v-10.447h12.344v10.447zm-12.344-24.693h12.344v10.447h-12.344v-10.447zm-3.989 24.693h-12.344v-10.447h12.344v10.447zm-12.344-24.693h12.344v10.447h-12.344v-10.447zm-3.988 24.693h-12.345v-10.447h12.345v10.447zm-12.345-24.693h12.345v10.447h-12.345v-10.447zm-4.178 24.693h-12.345v-10.447h12.345v10.447zm-12.345-24.693h12.345v10.447h-12.345v-10.447z" fill="#754C29"/><path d="M193.147 146.639h-60.774c-3.419 0-6.078 2.659-6.078 6.078v3.04h73.119v-3.04c-.19-3.419-3.039-6.078-6.267-6.078z" fill="#F7931E"/><path d="M150.415 131.443c-.76 0-1.519-.57-1.709-1.329-.19-.95.38-1.9 1.329-2.09.95-.19 1.71.38 1.899 1.33.19.95-.379 1.709-1.329 1.899 0 .19 0 .19-.19.19zm-2.469-11.586c-.759 0-1.519-.57-1.709-1.33-.19-.95.38-1.9 1.329-2.09.95-.189 1.71.38 1.9 1.14.189.95-.38 1.71-1.33 1.9 0 .38 0 .38-.19.38zm-2.469-11.397c-.759 0-1.519-.57-1.709-1.33-.19-.95.38-1.899 1.329-2.089.95-.19 1.71.38 1.9 1.139.19.95-.38 1.71-1.33 1.9 0 .38 0 .38-.19.38zm-2.469-11.397c-.759 0-1.519-.57-1.709-1.33-.19-.95.38-1.899 1.329-2.089.95-.19 1.71.38 1.9 1.33.19.95-.38 1.71-1.33 1.9 0 .19-.19.19-.19.19zm-2.469-11.587c-.759 0-1.519-.57-1.709-1.33-.19-.95.38-1.9 1.33-2.089.949-.19 1.709.38 1.899 1.14.19.95-.38 1.709-1.33 1.899 0 .38-.19.38-.19.38zm-2.469-11.397c-.759 0-1.519-.57-1.709-1.33-.19-.95.38-1.899 1.33-2.089.949-.19 1.709.38 1.899 1.14.19.95-.38 1.71-1.33 1.9 0 .38-.19.38-.19.38zm-2.468-11.397c-.76 0-1.52-.57-1.71-1.33-.19-.95.38-1.9 1.33-2.089.949-.19 1.709.38 1.899 1.14.19.95-.38 1.709-1.33 1.899 0 .38-.189.38-.189.38zm-2.659-11.587c-.76 0-1.52-.57-1.71-1.33-.19-.95.38-1.899 1.33-2.089.949-.19 1.709.38 1.899 1.33.19.95-.38 1.71-1.329 1.9.19.19 0 .19-.19.19zm-2.469-11.397c-.76 0-1.52-.57-1.71-1.33-.189-.95.38-1.899 1.33-2.089.949-.19 1.709.38 1.899 1.14.19.95-.38 1.709-1.329 1.899.19.38 0 .38-.19.38zm-2.469-11.397c-.76 0-1.52-.57-1.709-1.33-.19-.95.379-1.899 1.329-2.089.95-.19 1.709.38 1.899 1.14.19.95-.38 1.71-1.329 1.899.19.38 0 .38-.19.38zm-2.469-11.587c-.76 0-1.519-.57-1.709-1.33-.19-.95.379-1.899 1.329-2.089.95-.19 1.709.38 1.899 1.33.19.95-.38 1.71-1.329 1.9 0 .19 0 .19-.19.19zm-2.469-11.397c-.76 0-1.519-.57-1.709-1.33-.19-.95.38-1.899 1.329-2.089.95-.19 1.709.38 1.899 1.14.19.95-.38 1.71-1.329 1.899 0 .38 0 .38-.19.38zM127.815 126.505c-.57 0-1.14-.38-1.519-.95-.38-.76-.19-1.899.569-2.279.76-.38 1.71-.19 2.279.569.38.76.19 1.9-.759 2.28 0 .38-.19.38-.57.38zm-5.698-10.257c-.569 0-1.139-.38-1.519-.95-.38-.76-.19-1.9.57-2.28.759-.379 1.709-.189 2.279.57.38.76.19 1.9-.57 2.28-.19.38-.38.38-.76.38zm-5.697-10.258c-.57 0-1.14-.379-1.52-.759-.379-.76-.189-1.9.57-2.28.76-.38 1.709-.19 2.279.57.38.76.19 1.9-.57 2.28-.189.189-.379.189-.759.189zm-5.698-10.257c-.57 0-1.139-.38-1.519-.76-.38-.76-.19-1.899.57-2.279.759-.38 1.709-.19 2.279.57.38.76.19 1.9-.57 2.279-.19.19-.38.19-.76.19zm-5.507-10.257c-.57 0-1.14-.38-1.52-.95-.38-.76-.19-1.899.57-2.279.76-.38 1.709-.19 2.279.57.38.76.19 1.899-.57 2.279-.38.38-.569.38-.759.38zM109.773 137.712c-.38 0-.76-.19-1.14-.38-.76-.57-.76-1.71-.19-2.47.57-.759 1.709-.759 2.279-.19.76.57.76 1.71.19 2.28-.19.57-.57.76-1.139.76zm-8.547-7.788c-.38 0-.759-.19-1.139-.38-.76-.57-.76-1.71-.19-2.469.57-.76 1.709-.76 2.279-.19.76.569.76 1.709.19 2.279-.38.57-.76.76-1.14.76zm-8.736-7.788c-.38 0-.76-.19-1.139-.38-.76-.57-.76-1.709-.19-2.469.57-.76 1.709-.76 2.279-.19.76.57.76 1.709.19 2.279-.19.57-.76.76-1.139.76zm-8.736-7.978c-.38 0-.76-.19-1.139-.38-.76-.57-.76-1.709-.19-2.469.57-.76 1.709-.76 2.279-.19.76.57.76 1.71.19 2.279-.19.57-.76.76-1.139.76zm-8.736-7.788c-.38 0-.76-.19-1.139-.38-.76-.569-.76-1.709-.19-2.469.57-.76 1.709-.76 2.279-.19.76.57.76 1.71.19 2.28-.19.569-.57.759-1.139.759zm-8.736-7.977c-.38 0-.76-.19-1.139-.38-.76-.57-.76-1.709-.19-2.469.57-.76 1.709-.76 2.279-.19.76.57.76 1.71.19 2.279-.19.57-.57.76-1.139.76zm-8.546-7.788c-.38 0-.76-.19-1.14-.38-.76-.57-.76-1.71-.19-2.469.57-.76 1.709-.76 2.279-.19.76.57.76 1.709.19 2.279-.38.57-.76.76-1.139.76zm-8.736-7.978c-.38 0-.76-.19-1.139-.38-.76-.57-.76-1.71-.19-2.469.57-.76 1.709-.76 2.279-.19.76.57.76 1.71.19 2.279-.19.57-.76.76-1.139.76zm-8.736-7.788c-.38 0-.76-.19-1.14-.38-.76-.57-.76-1.709-.19-2.469.57-.76 1.709-.76 2.279-.19.76.57.76 1.71.19 2.279-.19.57-.76.76-1.139.76zM108.823 159.175c-.19 0-.38 0-.76-.189-.759-.38-1.329-1.33-.949-2.28.38-.76 1.329-1.14 2.089-.95.76.38 1.139 1.33.76 2.28 0 .76-.57 1.139-1.14 1.139zm-10.635-4.938c-.19 0-.38 0-.76-.19-.76-.38-1.329-1.33-.76-2.279.38-.76 1.329-1.14 2.089-.76.76.38 1.139 1.329.76 2.279-.19.57-.76.95-1.329.95zm-10.825-4.749c-.19 0-.38 0-.76-.19-.76-.38-1.329-1.329-.76-2.279.38-.76 1.329-1.14 2.089-.76.76.38 1.14 1.33.76 2.279 0 .57-.57.95-1.329.95zm-10.635-4.938c-.19 0-.38 0-.76-.19-.76-.38-1.329-1.33-.76-2.28.38-.76 1.33-1.139 2.089-.76.76.38 1.139 1.33.76 2.28 0 .57-.57.95-1.329.95zm-10.635-4.749c-.19 0-.38 0-.76-.19-.76-.38-1.329-1.33-.76-2.279.38-.76 1.329-1.14 2.089-.76.76.38 1.14 1.329.76 2.279-.19.57-.76.95-1.329.95zm-10.635-4.939c-.19 0-.38 0-.76-.19-.76-.38-1.329-1.329-.95-2.279.38-.76 1.329-1.33 2.089-.95.76.38 1.139 1.33.76 2.28 0 .759-.57 1.139-1.139 1.139zm-10.635-4.938c-.19 0-.38 0-.76-.19-.76-.38-1.329-1.33-.95-2.28.38-.76 1.329-1.139 2.089-.76.76.38 1.14 1.33.76 2.28 0 .76-.57.95-1.139.95zm-10.825-4.749c-.19 0-.38 0-.76-.19-.76-.38-1.329-1.33-.95-2.279.38-.76 1.329-1.14 2.089-.76.76.38 1.139 1.329.76 2.279.19.57-.38.95-1.14.95zm-10.635-4.939c-.19 0-.38 0-.76-.19-.76-.38-1.329-1.329-.95-2.279.38-.76 1.329-1.14 2.089-.76.76.38 1.14 1.33.76 2.28.19.569-.38.949-1.14.949zM87.172 171.522h-.38c-.95-.19-1.519-.95-1.329-1.899.19-.95.95-1.52 1.899-1.33.95.19 1.519.95 1.329 1.9 0 .759-.76 1.329-1.519 1.329zm-11.585-2.089h-.38c-.95-.19-1.519-.95-1.329-1.9.19-.949.95-1.519 1.899-1.329.95.19 1.519.949 1.329 1.899 0 .76-.57 1.33-1.519 1.33zm-11.395-2.09h-.38c-.95-.19-1.519-.949-1.329-1.899.19-.95.95-1.52 1.899-1.33.95.19 1.519.95 1.329 1.9-.19.76-.76 1.329-1.519 1.329zm-11.585-1.899h-.38c-.95-.19-1.519-.95-1.329-1.9.19-.949.95-1.519 1.899-1.329.95.19 1.519.95 1.33 1.899-.19.76-.76 1.33-1.519 1.33zm-11.585-2.09h-.19c-.95-.189-1.519-.949-1.329-1.899.19-.95.95-1.52 1.899-1.33.95.19 1.519.95 1.329 1.9-.19.76-.95 1.329-1.709 1.329zm-11.585-2.089h-.38c-.95-.19-1.519-.95-1.329-1.899.19-.95.95-1.52 1.899-1.33.949.19 1.519.95 1.329 1.899 0 .76-.76 1.33-1.519 1.33zm-11.585-2.089h-.38c-.95-.19-1.519-.95-1.329-1.9.19-.95.95-1.519 1.899-1.329.95.189 1.519.949 1.329 1.899 0 .76-.57 1.33-1.519 1.33zM169.407 109.029c-1.14-.19-1.709-.949-1.709-1.899 0-.95.949-1.71 1.899-1.52.949 0 1.519.95 1.519 1.71-.19.95-.76 1.709-1.709 1.709zm1.139-11.776c-1.139 0-1.709-.95-1.709-1.71 0-.95.95-1.71 1.709-1.52.95 0 1.52.76 1.52 1.709 0 .95-.76 1.52-1.52 1.52zm.95-11.587c-1.14-.19-1.709-.95-1.709-1.899 0-.95.949-1.71 1.899-1.52.949 0 1.519.95 1.519 1.71-.19.95-.76 1.709-1.709 1.709zm1.139-11.777c-1.139 0-1.709-.95-1.709-1.71 0-.95.95-1.709 1.709-1.52.95 0 1.52.76 1.52 1.71s-.76 1.52-1.52 1.52zm.95-11.587c-1.14-.19-1.709-.95-1.709-1.899 0-.95.949-1.71 1.899-1.52.949 0 1.519.95 1.519 1.709-.19.95-.759 1.709-1.709 1.709zm1.139-11.777c-1.139-.19-1.709-.95-1.709-1.9s.95-1.709 1.899-1.52c.95 0 1.52.95 1.52 1.71-.19 1.14-.95 1.709-1.71 1.709zm.95-11.587c-1.139-.19-1.709-.95-1.709-1.899 0-.95.949-1.71 1.899-1.52.95 0 1.519.95 1.519 1.709-.19.95-.759 1.709-1.709 1.709zm1.14-11.777c-1.14-.19-1.71-.95-1.71-1.899 0-.95.95-1.709 1.899-1.519.95 0 1.52.95 1.52 1.709-.19 1.14-.95 1.709-1.709 1.709zM185.55 129.734c-.19 0-.38 0-.57-.19-.76-.38-1.329-1.33-.949-2.09.379-.76 1.329-1.329 2.279-.949.759.379 1.329 1.329.949 2.089s-.949 1.14-1.709 1.14zm4.558-10.827c-.19 0-.38 0-.57-.19-.759-.38-1.329-1.33-.949-2.09.379-.759 1.329-1.329 2.279-.949.759.379 1.329 1.329.949 2.089s-.949 1.14-1.709 1.14zm4.558-10.827c-.19 0-.38 0-.57-.19-.759-.38-1.329-1.33-.949-2.09.379-.759 1.329-1.329 2.089-.949.759.379 1.329 1.329.949 2.089-.19.76-.949 1.14-1.519 1.14zm4.558-10.827c-.19 0-.38 0-.57-.19-.759-.38-1.329-1.33-.949-2.089.379-.76 1.329-1.33 2.089-.95.759.38 1.329 1.33.949 2.089-.379.76-.949 1.14-1.519 1.14zm4.368-10.827c-.19 0-.38 0-.57-.19-.759-.38-1.329-1.33-.949-2.09.38-.76 1.329-1.33 2.279-.95.759.38 1.329 1.33.949 2.089-.379.76-.949 1.14-1.709 1.14zm4.558-10.827c-.19 0-.38 0-.57-.19-.759-.38-1.329-1.33-.949-2.089.38-.76 1.329-1.33 2.279-.95.759.38 1.329 1.33.949 2.089-.379.76-.949 1.14-1.709 1.14zm4.558-10.827c-.19 0-.38 0-.57-.19-.759-.38-1.329-1.33-.949-2.089.38-.76 1.329-1.33 2.279-.95.76.38 1.329 1.33.949 2.089-.379.76-1.139 1.14-1.709 1.14zm4.558-10.827c-.19 0-.38 0-.57-.19-.759-.38-1.329-1.33-.949-2.089.38-.76 1.329-1.33 2.279-.95.76.38 1.329 1.33.949 2.09-.569.76-1.139 1.14-1.709 1.14zm4.368-10.827c-.19 0-.38 0-.569-.19-.76-.38-1.33-1.33-.95-2.089.38-.76 1.329-1.33 2.089-.95.76.38 1.329 1.33.95 2.089-.19.76-.76 1.14-1.52 1.14zm4.558-10.827c-.19 0-.379 0-.569-.19-.76-.38-1.33-1.33-.95-2.089.38-.76 1.329-1.33 2.279-.95.76.38 1.329 1.33.95 2.089-.38.76-.95 1.14-1.71 1.14zm4.558-10.827c-.19 0-.379 0-.569-.19-.76-.38-1.33-1.33-.95-2.089.38-.76 1.329-1.33 2.279-.95.76.38 1.329 1.33.95 2.089-.38.76-1.14 1.14-1.71 1.14zM220.115 115.298c-.38 0-.76-.19-.95-.38-.759-.57-.949-1.52-.38-2.279.57-.76 1.71-.95 2.279-.38.76.57.95 1.519.38 2.279-.38.57-.759.76-1.329.76zm7.217-9.118c-.38 0-.76-.19-.95-.379-.76-.57-.949-1.52-.38-2.28.57-.76 1.71-.95 2.279-.38.76.57.95 1.52.38 2.28-.19.38-.76.759-1.329.759zm7.406-9.307c-.379 0-.759-.19-.949-.38-.76-.57-.76-1.52-.19-2.279.57-.76 1.709-.95 2.279-.38.76.57.95 1.519.38 2.279-.57.57-1.14.76-1.52.76zm7.217-9.117c-.379 0-.759-.19-.949-.38-.76-.57-.76-1.71-.19-2.279.57-.76 1.709-.95 2.279-.38.76.57.949 1.52.38 2.279-.57.57-.95.76-1.52.76zm7.217-9.308c-.38 0-.759-.19-.949-.38-.76-.57-.76-1.52-.19-2.279.57-.76 1.709-.95 2.279-.38.759.57.949 1.52.38 2.279-.38.57-.95.76-1.52.76zm7.407-9.117c-.38 0-.76-.19-.95-.38-.759-.57-.759-1.71-.189-2.279.569-.76 1.709-.95 2.279-.38.759.57.949 1.52.379 2.279-.569.57-1.139.76-1.519.76zM215.177 149.298c-.57 0-1.139-.19-1.329-.76-.57-.759-.38-1.709.379-2.279.76-.57 1.9-.38 2.279.38.57.76.38 1.71-.379 2.279-.38.19-.57.38-.95.38zm9.686-6.648c-.57 0-1.14-.19-1.33-.76-.569-.759-.379-1.709.38-2.279.76-.57 1.899-.38 2.279.38.38.76.38 1.709-.38 2.279-.189.38-.569.38-.949.38zm9.686-6.648c-.57 0-1.14-.19-1.33-.76-.569-.76-.38-1.709.38-2.279.76-.57 1.899-.38 2.279.38.57.76.38 1.709-.38 2.279-.19.38-.569.38-.949.38zm9.875-6.458c-.569 0-1.139-.19-1.329-.76-.57-.76-.38-1.71.38-2.279.759-.57 1.899-.38 2.279.38.57.759.38 1.709-.38 2.279-.38.19-.76.38-.95.38zm9.686-6.648c-.57 0-1.139-.19-1.329-.76-.57-.76-.38-1.71.38-2.28.759-.569 1.899-.379 2.279.38.569.76.379 1.71-.38 2.28-.38.38-.76.38-.95.38zm9.686-6.459c-.57 0-1.139-.19-1.329-.759-.57-.76-.38-1.71.379-2.28.76-.57 1.9-.38 2.279.38.57.76.38 1.71-.379 2.28-.38.189-.76.379-.95.379zm9.686-6.648c-.57 0-1.14-.19-1.33-.759-.569-.76-.379-1.71.38-2.28.76-.57 1.899-.38 2.279.38.57.76.38 1.71-.38 2.279-.379.19-.569.38-.949.38zm9.686-6.648c-.57 0-1.14-.19-1.33-.76-.57-.759-.38-1.709.38-2.279.76-.57 1.899-.38 2.279.38.57.76.38 1.709-.38 2.279-.38.38-.569.38-.949.38zm9.685-6.458c-.569 0-1.139-.19-1.329-.76-.57-.76-.38-1.71.38-2.279.76-.57 1.899-.38 2.279.38.38.76.38 1.709-.38 2.279-.19.19-.57.38-.95.38zm9.686-6.648c-.569 0-1.139-.19-1.329-.76-.57-.76-.38-1.71.38-2.279.759-.57 1.899-.38 2.279.38.569.76.38 1.71-.38 2.279-.19.38-.57.38-.95.38zM233.409 160.315c-.759 0-1.329-.38-1.519-1.139-.38-.95.19-1.9.95-2.09.949-.38 1.899.19 2.089.95.379.95-.19 1.709-.95 2.089-.19.19-.38.19-.57.19zm11.016-3.799c-.76 0-1.33-.38-1.52-1.139-.38-.95.19-1.9.95-2.09.949-.38 1.899.19 2.089.95.19.76-.19 1.709-.95 2.089-.19.19-.38.19-.569.19zm11.015-3.989c-.76 0-1.33-.38-1.52-1.139-.379-.95.19-1.9.95-2.09.95-.38 1.899.19 2.089.95.38.95-.19 1.71-.949 2.089-.19.19-.38.19-.57.19zm11.205-3.799c-.76 0-1.329-.379-1.519-1.139-.38-.95.19-1.9.949-2.09.95-.38 1.899.19 2.089.95.38.95-.19 1.71-.949 2.089-.19.19-.38.19-.57.19zm11.015-3.799c-.759 0-1.329-.379-1.519-1.139-.38-.95.19-1.9.949-2.09.95-.38 1.9.19 2.09.95.379.95-.19 1.71-.95 2.09-.19.189-.38.189-.57.189zm11.015-3.798c-.759 0-1.329-.38-1.519-1.14-.38-.95.19-1.9.95-2.09.949-.379 1.899.19 2.089.95.38.95-.19 1.71-.95 2.09-.19.19-.38.19-.57.19zM213.468 181.399c-.76 0-1.52-.569-1.709-1.519 0-.95.569-1.71 1.519-1.71.949 0 1.709.57 1.899 1.52 0 .95-.57 1.709-1.519 1.709h-.19zm11.585-1.139c-.76 0-1.52-.57-1.709-1.52 0-.95.569-1.709 1.519-1.709.949 0 1.709.569 1.899 1.519 0 .95-.57 1.71-1.519 1.71h-.19zm11.775-.95c-.76 0-1.52-.57-1.71-1.52 0-.949.57-1.709 1.52-1.709.949 0 1.709.57 1.899 1.519 0 .95-.57 1.71-1.519 1.71h-.19zm11.585-.95c-.76 0-1.52-.57-1.71-1.519 0-.95.57-1.71 1.52-1.71.949 0 1.709.57 1.899 1.52 0 .949-.57 1.709-1.519 1.709h-.19zm11.775-1.139c-.76 0-1.52-.57-1.71-1.52 0-.95.57-1.71 1.52-1.71.949 0 1.709.57 1.899 1.52 0 .95-.57 1.71-1.519 1.71h-.19zm11.585-.95c-.76 0-1.52-.57-1.71-1.52 0-.949.57-1.709 1.52-1.709.949 0 1.709.57 1.899 1.519 0 .95-.57 1.71-1.519 1.71h-.19zm11.775-1.14c-.76 0-1.52-.57-1.71-1.519 0-.95.57-1.71 1.52-1.71.949 0 1.709.57 1.899 1.52 0 .949-.57 1.709-1.52 1.709h-.189zm11.584-.95c-.759 0-1.519-.569-1.709-1.519 0-.95.57-1.71 1.52-1.71.949 0 1.709.57 1.899 1.52 0 .95-.57 1.709-1.52 1.709h-.19zm11.775-1.139c-.759 0-1.519-.57-1.709-1.52 0-.95.57-1.709 1.519-1.709.95 0 1.71.569 1.9 1.519 0 .95-.57 1.71-1.52 1.71h-.19zm11.585-.95c-.759 0-1.519-.57-1.709-1.52 0-.949.57-1.709 1.519-1.709.95 0 1.71.57 1.9 1.519 0 .95-.57 1.71-1.52 1.71h-.19zM320.582 212.741h-.38c-.95-.19-1.52-.95-1.33-1.9.19-.95.95-1.52 1.9-1.33.949.19 1.519.95 1.329 1.9 0 .76-.76 1.33-1.519 1.33zm-11.585-2.09h-.38c-.95-.19-1.52-.95-1.33-1.899.19-.95.95-1.52 1.9-1.33.949.19 1.519.95 1.329 1.899 0 .76-.76 1.33-1.519 1.33zm-11.395-2.089h-.19c-.95-.19-1.52-.95-1.33-1.9.19-.95.95-1.519 1.899-1.329.95.19 1.52.949 1.33 1.899-.38.76-.95 1.33-1.709 1.33zm-11.585-1.9h-.38c-.95-.19-1.52-.95-1.33-1.899.19-.95.95-1.52 1.899-1.33.95.19 1.52.95 1.33 1.9-.19.759-.76 1.329-1.519 1.329zm-11.585-2.089h-.38c-.95-.19-1.52-.95-1.33-1.9.19-.949.95-1.519 1.899-1.329.95.19 1.52.949 1.33 1.899 0 .76-.76 1.33-1.519 1.33zm-11.585-2.09h-.19c-.95-.19-1.52-.949-1.33-1.899.19-.95.95-1.52 1.899-1.33.95.19 1.52.95 1.33 1.9-.19.76-.95 1.329-1.709 1.329zm-11.585-1.899h-.38c-.95-.19-1.52-.95-1.33-1.9.19-.949.95-1.519 1.899-1.329.95.19 1.52.95 1.33 1.899 0 .76-.76 1.33-1.519 1.33zm-11.395-2.09h-.38c-.95-.189-1.52-.949-1.33-1.899.19-.95.95-1.52 1.899-1.33.95.19 1.52.95 1.33 1.9-.19.76-.76 1.329-1.519 1.329zM280.129 240.093c-.19 0-.38 0-.76-.19-.759-.38-1.139-1.33-.759-2.279.38-.76 1.329-1.14 2.279-.76.759.38 1.139 1.33.759 2.279-.189.57-.759.95-1.519.95zm-10.635-4.939c-.19 0-.38 0-.76-.19-.76-.379-1.139-1.329-.76-2.279.38-.76 1.33-1.14 2.279-.76.76.38 1.14 1.33.76 2.28-.19.569-.76.949-1.519.949zm-10.446-4.938c-.19 0-.38 0-.759-.19-.76-.38-1.14-1.33-.76-2.28.38-.949 1.329-1.139 2.279-.759.76.38 1.139 1.329.76 2.279-.38.57-.95.95-1.52.95zm-10.635-5.129c-.19 0-.38 0-.76-.19-.76-.38-1.139-1.329-.76-2.279.38-.95 1.33-1.14 2.279-.76.76.38 1.33 1.33.95 2.279-.57.57-1.139.95-1.709.95zm-10.636-4.938c-.19 0-.379 0-.759-.19-.76-.38-1.14-1.33-.76-2.28.38-.76 1.329-1.139 2.279-.76.76.38 1.14 1.33.76 2.28-.38.57-.95.95-1.52.95zm-10.635-4.939c-.19 0-.38 0-.76-.19-.759-.38-1.139-1.33-.759-2.279.379-.76 1.329-1.14 2.279-.76.759.38 1.139 1.329.759 2.279-.38.57-.949.95-1.519.95zM278.989 290.049c-.379 0-.759-.19-1.139-.38-.76-.57-.76-1.709-.19-2.279.57-.76 1.709-.76 2.279-.19.76.57.76 1.709.19 2.469-.38.19-.76.38-1.14.38zm-8.736-7.978c-.38 0-.759-.19-1.139-.38-.76-.569-.76-1.709-.19-2.279.57-.76 1.709-.76 2.279-.19.759.57.759 1.71.19 2.469-.19.19-.76.38-1.14.38zm-8.736-7.788c-.38 0-.76-.19-1.14-.379-.759-.57-.759-1.71-.189-2.28.569-.76 1.709-.76 2.279-.19.759.57.759 1.71.189 2.47-.189.189-.759.379-1.139.379zm-8.736-7.977c-.38 0-.76-.19-1.14-.38-.759-.57-.759-1.71-.19-2.28.57-.759 1.71-.759 2.279-.19.76.57.76 1.71.19 2.47-.19.19-.569.38-1.139.38zm-8.547-7.788c-.379 0-.759-.19-1.139-.38-.76-.57-.76-1.71-.19-2.279.57-.76 1.709-.76 2.279-.19.76.569.76 1.709.19 2.469-.38.19-.76.38-1.14.38zm-8.736-7.978c-.38 0-.759-.19-1.139-.38-.76-.57-.76-1.709-.19-2.279.57-.76 1.709-.76 2.279-.19.759.57.759 1.709.19 2.469-.19.19-.76.38-1.14.38zm-8.736-7.788c-.38 0-.76-.19-1.14-.38-.759-.57-.759-1.709-.189-2.279.569-.76 1.709-.76 2.279-.19.759.57.759 1.71.189 2.469-.189.19-.569.38-1.139.38zm-8.736-7.978c-.38 0-.76-.19-1.14-.379-.759-.57-.759-1.71-.19-2.28.57-.76 1.71-.76 2.279-.19.76.57.76 1.71.19 2.47-.19.189-.569.379-1.139.379zm-8.547-7.787c-.379 0-.759-.19-1.139-.38-.76-.57-.76-1.71-.19-2.28.57-.759 1.709-.759 2.279-.19.76.57.76 1.71.19 2.47-.38.19-.76.38-1.14.38zM237.967 310.753c-.569 0-1.139-.19-1.329-.759-.38-.76-.19-1.9.57-2.28.759-.38 1.899-.19 2.279.57.379.76.19 1.9-.57 2.279-.38 0-.76.19-.95.19zm-6.077-10.067c-.57 0-1.14-.19-1.33-.76-.379-.759-.189-1.899.57-2.279.76-.38 1.899-.19 2.279.57.38.76.19 1.899-.57 2.279l-.949.19zm-6.077-10.067c-.57 0-1.14-.19-1.33-.76-.57-.76-.19-1.899.57-2.279.76-.57 1.899-.19 2.279.57.57.759.19 1.899-.57 2.279-.19 0-.57.19-.949.19zm-5.888-10.067c-.57 0-1.139-.19-1.329-.76-.38-.76-.19-1.899.569-2.279.76-.38 1.9-.19 2.279.569.38.76.19 1.9-.569 2.28-.38 0-.76.19-.95.19zm-6.077-10.067c-.57 0-1.14-.19-1.33-.76-.38-.76-.19-1.9.57-2.28.76-.379 1.899-.19 2.279.57.38.76.19 1.9-.57 2.28l-.949.19zm-6.078-10.068c-.569 0-1.139-.19-1.329-.759-.57-.76-.19-1.9.57-2.28.759-.57 1.899-.19 2.279.57.379.76.19 1.9-.57 2.279-.19 0-.57.19-.95.19zm-5.887-10.067c-.57 0-1.14-.19-1.33-.76-.379-.759-.189-1.899.57-2.279.76-.38 1.899-.19 2.279.57.38.76.19 1.899-.57 2.279-.379 0-.759.19-.949.19zM202.263 357.48c-.76 0-1.33-.57-1.52-1.139-.19-.95.38-1.71 1.14-2.09.95-.19 1.709.38 2.089 1.14.19.95-.38 1.899-1.139 2.089h-.57zm-2.849-11.397c-.76 0-1.329-.379-1.519-1.139-.19-.95.379-1.71 1.139-2.09.95-.19 1.709.38 2.089 1.14.19.95-.38 1.899-1.139 2.089h-.57zm-2.659-11.396c-.76 0-1.329-.57-1.519-1.14-.19-.95.38-1.71 1.139-2.089.95-.19 1.71.379 2.089 1.139.19.95-.379 1.9-1.139 2.09-.19-.19-.38 0-.57 0zm-2.659-11.587c-.759 0-1.329-.57-1.519-1.33-.19-.95.38-1.709 1.329-1.899.95-.19 1.71.38 1.9 1.329.189.95-.38 1.9-1.33 2.09-.19-.19-.19-.19-.38-.19zm-2.659-11.397c-.759 0-1.329-.57-1.519-1.14-.19-.949.38-1.709 1.14-2.089.949-.19 1.709.38 2.089 1.14.19.949-.38 1.899-1.14 2.089h-.57zm-2.848-11.397c-.76 0-1.33-.57-1.52-1.139-.19-.95.38-1.71 1.14-2.09.949-.19 1.709.38 2.089 1.14.19.95-.38 1.899-1.14 2.089h-.569zm-2.659-11.397c-.76 0-1.33-.569-1.52-1.139-.189-.95.38-1.71 1.14-2.09.95-.19 1.709.38 2.089 1.14.19.95-.38 1.899-1.139 2.089h-.57zm-2.659-11.396c-.76 0-1.329-.57-1.519-1.33-.19-.95.379-1.71 1.329-1.9.95-.19 1.709.38 1.899 1.33.19.95-.38 1.9-1.329 2.089-.19-.189-.19-.189-.38-.189zm-2.659-11.397c-.76 0-1.329-.38-1.519-1.14-.19-.95.38-1.71 1.139-2.089.95-.19 1.71.38 2.089 1.139.19.95-.379 1.9-1.139 2.09h-.57zm-2.849-11.397c-.759 0-1.329-.57-1.519-1.14-.19-.95.38-1.709 1.14-2.089.949-.19 1.709.38 2.089 1.139.19.95-.38 1.9-1.14 2.09h-.57zm-2.659-11.397c-.759 0-1.329-.38-1.519-1.14-.19-.949.38-1.709 1.14-2.089.949-.19 1.709.38 2.089 1.14.19.949-.38 1.899-1.14 2.089h-.57zM150.225 324.999c-1.139 0-1.709-.949-1.709-1.899 0-.95.949-1.71 1.899-1.52.95 0 1.519.76 1.519 1.71-.19.95-.949 1.709-1.709 1.709zm.95-11.776c-1.14 0-1.71-.95-1.71-1.9s.95-1.709 1.9-1.519c.949 0 1.519.759 1.519 1.709-.19 1.14-.76 1.71-1.709 1.71zm1.139-11.587c-1.139 0-1.709-.95-1.709-1.9 0-.949.95-1.709 1.899-1.519.95 0 1.519.76 1.519 1.709-.189.95-.949 1.71-1.709 1.71zm.95-11.777c-1.14-.19-1.709-.95-1.709-1.899 0-.95.949-1.71 1.899-1.52.949 0 1.519.95 1.519 1.71-.19 1.139-.95 1.709-1.709 1.709zm1.139-11.587c-1.139 0-1.709-.949-1.709-1.899 0-.95.95-1.71 1.899-1.52.95 0 1.52.76 1.52 1.71-.19.95-.95 1.709-1.71 1.709zm.95-11.776c-1.14 0-1.709-.95-1.709-1.9s.949-1.709 1.899-1.519c.949 0 1.519.759 1.519 1.709-.19 1.14-.759 1.71-1.709 1.71zM98.947 337.726c-.19 0-.38 0-.57-.19-.76-.38-1.329-1.33-.95-2.089.38-.76 1.329-1.33 2.279-.95.76.38 1.329 1.329.95 2.089-.38.76-1.14 1.14-1.71 1.14zm4.558-10.827c-.19 0-.379 0-.569-.19-.76-.38-1.33-1.33-.95-2.089.38-.76 1.329-1.33 2.279-.95.76.38 1.33 1.329.95 2.089-.57.76-1.14 1.14-1.71 1.14zm4.558-10.827c-.189 0-.379 0-.569-.19-.76-.38-1.33-1.33-.95-2.089.38-.76 1.33-1.33 2.279-.95.76.38 1.33 1.329.95 2.089-.57.76-1.14 1.14-1.71 1.14zm4.369-10.827c-.19 0-.38 0-.57-.19-.76-.38-1.33-1.33-.95-2.089.38-.76 1.33-1.33 2.279-.95.76.38 1.33 1.329.95 2.089-.38.76-.95 1.14-1.709 1.14zm4.558-10.827c-.19 0-.38 0-.57-.19-.76-.38-1.33-1.33-.95-2.089.38-.76 1.33-1.33 2.279-.95.76.38 1.33 1.329.95 2.089-.38.76-.95 1.14-1.709 1.14zm4.558-10.827c-.19 0-.38 0-.57-.19-.76-.38-1.33-1.33-.95-2.089.38-.76 1.33-1.33 2.279-.95.95.38 1.33 1.329.95 2.089-.38.76-1.14 1.14-1.709 1.14zm4.558-10.827c-.19 0-.38 0-.57-.19-.76-.38-1.33-1.33-.95-2.089.38-.76 1.33-1.33 2.279-.95.76.38 1.33 1.329.95 2.089-.57.76-1.14 1.14-1.709 1.14zm4.558-10.827c-.19 0-.38 0-.57-.19-.76-.38-1.33-1.33-.95-2.089.38-.76 1.33-1.33 2.279-.95.76.38 1.33 1.33.95 2.089-.57.76-1.14 1.14-1.709 1.14zm4.368-10.827c-.19 0-.38 0-.57-.19-.76-.38-1.329-1.33-.95-2.089.38-.76 1.33-1.33 2.279-.95.76.38 1.33 1.33.95 2.089-.38.76-.95 1.14-1.709 1.14zm4.558-10.827c-.19 0-.38 0-.57-.19-.76-.38-1.329-1.33-.95-2.089.38-.76 1.33-1.33 2.279-.95.76.38 1.33 1.33.95 2.089-.38.76-.95 1.14-1.709 1.14zM74.638 292.898c-.38 0-.76-.19-.95-.38-.76-.569-.76-1.709-.19-2.279.57-.76 1.709-.95 2.279-.38.76.57.95 1.52.38 2.279-.57.38-.95.76-1.519.76zm7.407-9.117c-.38 0-.76-.19-1.139-.38-.76-.57-.76-1.71-.19-2.279.57-.76 1.709-.95 2.279-.19.76.569.76 1.519.19 2.279-.19.38-.57.57-1.139.57zm7.407-9.118c-.38 0-.76-.19-1.139-.38-.76-.569-.76-1.709-.19-2.279.57-.76 1.709-.76 2.279-.19.76.57.76 1.52.19 2.279-.19.38-.57.57-1.139.57zm7.407-9.117c-.38 0-.76-.19-1.139-.38-.76-.57-.76-1.71-.19-2.279.57-.76 1.709-.76 2.279-.19.76.57.76 1.519.19 2.279-.19.38-.57.57-1.14.57zm7.407-9.118c-.38 0-.76-.19-.95-.379-.759-.57-.759-1.71-.19-2.28.57-.76 1.71-.95 2.279-.38.76.57.95 1.52.38 2.28-.57.569-.949.759-1.519.759zm7.407-9.117c-.38 0-.76-.19-1.14-.38-.759-.57-.76-1.709-.19-2.279.57-.76 1.71-.76 2.279-.19.76.57.76 1.519.19 2.279-.19.38-.57.57-1.139.57zM30.957 274.094c-.57 0-1.14-.19-1.329-.76-.57-.76-.38-1.71.38-2.28.76-.569 1.899-.38 2.279.38.57.76.38 1.71-.38 2.28-.38.19-.57.38-.95.38zm9.686-6.649c-.57 0-1.14-.19-1.329-.759-.57-.76-.38-1.71.38-2.28.76-.57 1.899-.38 2.279.38.57.76.38 1.71-.38 2.279-.38.19-.57.38-.95.38zm9.686-6.648c-.57 0-1.14-.19-1.329-.76-.57-.759-.38-1.709.38-2.279.76-.57 1.899-.38 2.279.38.57.76.38 1.709-.38 2.279-.19.38-.57.38-.95.38zm9.686-6.458c-.57 0-1.14-.19-1.329-.76-.57-.76-.38-1.709.38-2.279.76-.57 1.899-.38 2.279.38.57.76.38 1.709-.38 2.279-.19.19-.57.38-.95.38zm9.876-6.648c-.57 0-1.139-.19-1.329-.76-.57-.76-.38-1.709.38-2.279.76-.57 1.899-.38 2.279.38.38.759.38 1.709-.38 2.279-.38.38-.76.38-.95.38zm9.686-6.648c-.57 0-1.139-.19-1.329-.76-.57-.76-.38-1.71.38-2.279.76-.57 1.899-.38 2.279.379.57.76.38 1.71-.38 2.28-.38.38-.76.38-.95.38zm9.686-6.458c-.57 0-1.139-.19-1.329-.76-.57-.76-.38-1.71.38-2.28.76-.569 1.899-.38 2.279.38.38.76.38 1.71-.38 2.28-.38.19-.76.38-.95.38zm9.686-6.649c-.57 0-1.139-.19-1.329-.759-.57-.76-.38-1.71.38-2.28.76-.57 1.899-.38 2.279.38.569.76.379 1.71-.38 2.279-.38.38-.57.38-.95.38zm9.686-6.458c-.57 0-1.139-.19-1.329-.76-.57-.759-.38-1.709.379-2.279.76-.57 1.9-.38 2.279.38.57.76.38 1.709-.379 2.279-.38.19-.57.38-.95.38zM3.988 197.735c-.95 0-1.709-.57-1.709-1.52 0-.949.57-1.709 1.519-1.709.95 0 1.709.57 1.709 1.519.19.95-.57 1.71-1.519 1.71zm11.585-.95c-.95 0-1.709-.57-1.709-1.519 0-.95.57-1.71 1.519-1.71h.19c.95 0 1.709.57 1.709 1.52.19.949-.57 1.709-1.709 1.709zm11.775-.76c-.95 0-1.709-.57-1.709-1.519 0-.95.57-1.71 1.519-1.71.95 0 1.709.57 1.709 1.52.19.76-.57 1.519-1.519 1.709zm11.775-.949c-.95 0-1.709-.57-1.709-1.52 0-.95.57-1.71 1.519-1.71.95 0 1.709.57 1.709 1.52.19.76-.57 1.52-1.519 1.71zm11.585-.95c-.95 0-1.709-.57-1.709-1.52 0-.949.57-1.709 1.519-1.709.95 0 1.709.57 1.709 1.519.19.76-.38 1.71-1.519 1.71zm11.775-.95c-.95 0-1.709-.57-1.709-1.519 0-.95.57-1.71 1.519-1.71.95 0 1.709.57 1.709 1.52.19.759-.57 1.709-1.519 1.709zm11.585-.95c-.95 0-1.709-.569-1.709-1.519s.57-1.71 1.519-1.71c.95 0 1.709.57 1.709 1.52.19.95-.38 1.709-1.519 1.709zm11.775-.949c-.95 0-1.709-.57-1.709-1.52 0-.95.57-1.709 1.519-1.709.95 0 1.709.569 1.709 1.519.19.95-.57 1.71-1.519 1.71zm11.585-.76c-.95 0-1.709-.57-1.709-1.52 0-.949.57-1.709 1.519-1.709.95 0 1.709.57 1.709 1.519.19.76-.38 1.52-1.519 1.71zm11.775-.95c-.95 0-1.709-.57-1.709-1.519 0-.95.569-1.71 1.519-1.71s1.709.57 1.709 1.52c.19.759-.57 1.519-1.519 1.709zM37.794 228.126c-.76 0-1.329-.38-1.519-1.139-.38-.95.19-1.9.95-2.09.95-.38 1.899.19 2.089.95.38.95-.19 1.71-.95 2.089-.19.19-.38.19-.57.19zm11.015-3.799c-.76 0-1.33-.379-1.519-1.139-.38-.95.19-1.9.95-2.09.95-.38 1.899.19 2.089.95.38.95-.19 1.71-.95 2.089-.19.19-.38.19-.57.19zm11.205-3.799c-.76 0-1.329-.379-1.519-1.139-.38-.95.19-1.9.95-2.09.95-.38 1.899.19 2.089.95.38.95-.19 1.71-.95 2.09l-.57.189zm11.015-3.988c-.76 0-1.329-.38-1.519-1.14-.38-.95.19-1.9.95-2.09.95-.379 1.899.19 2.089.95.38.95-.19 1.71-.95 2.09-.19.19-.38.19-.57.19zm11.015-3.799c-.76 0-1.329-.38-1.519-1.14-.38-.95.19-1.9.95-2.089.95-.38 1.899.189 2.089.949.38.95-.19 1.71-.95 2.09-.19.19-.38.19-.57.19zm11.205-3.799c-.76 0-1.329-.38-1.519-1.14-.38-.95.19-1.899.95-2.089.95-.38 1.899.19 2.089.949.38.95-.19 1.71-.95 2.09-.19.19-.38.19-.57.19z" fill="#EF4223"/><defs><radialGradient id="a" cx="0" cy="0" r="1" gradientUnits="userSpaceOnUse" gradientTransform="translate(164.107 187.549) scale(87.537 87.55)"><stop offset=".511" stop-color="#fff"/><stop offset="1" stop-color="#FFFDE4"/></radialGradient></defs></svg>