<svg width="299" height="288" viewBox="0 0 299 288" xmlns="http://www.w3.org/2000/svg" fill="none"><path d="M50.319 186.842c0-35.782 18.966-67.116 47.222-84.717-.387-34.815 17.418-68.857 49.738-87.425-46.835-24.564-105.281-7.93-132.183 38.49-27.288 47.194-11.418 107.541 35.223 135.393.194-.58 0-1.161 0-1.741z" fill="#EF4223"/><path d="M149.988 87.232c18.579 0 35.997 5.222 51.092 14.119-.58-33.848-18.385-66.535-49.931-84.523l-3.677-2.128c-32.32 18.568-50.125 52.61-49.738 87.425 15.096-9.284 33.094-14.893 52.254-14.893z" fill="#D83926"/><path d="M149.988 87.232c-19.16 0-37.158 5.416-52.448 14.893.194 16.44 4.452 33.268 13.354 48.548 9.87 17.021 23.998 29.98 40.255 38.49 14.709-8.317 27.482-20.696 36.578-36.362 9.289-16.248 13.547-34.042 13.353-51.45-15.095-8.897-32.513-14.119-51.092-14.119z" fill="#D22317"/><path d="M110.894 150.673c-8.902-15.28-13.16-32.107-13.354-48.548-28.256 17.601-47.222 48.935-47.222 84.717v1.548c.387.193.774.386 1.161.773 31.933 18.375 69.671 17.215 99.475 0-16.063-8.317-30.191-21.469-40.061-38.49z" fill="#E5291B"/><path d="M201.08 101.351c.387 17.408-4.064 35.202-13.353 51.449-9.096 15.667-21.87 28.046-36.578 36.556 29.223 15.087 65.22 15.667 95.799-2.127.967-.58 1.741-.967 2.515-1.548-.193-35.975-19.74-67.116-48.383-84.33z" fill="#E07E2A"/><path d="M283.525 51.063c-27.481-47.581-88.444-63.828-136.053-36.556 1.355.58 2.516 1.354 3.677 2.128 31.352 18.181 49.157 50.869 49.738 84.524 28.836 17.214 48.19 48.354 48.577 84.33 45.867-28.045 60.962-87.618 34.061-134.425z" fill="#E9DAC8"/><path d="M246.948 187.229c-30.579 17.601-66.769 17.214-95.799 2.128-29.804 17.214-67.737 18.374-99.476 0-.387-.194-.774-.387-1.161-.774.774 54.157 45.093 97.87 99.669 97.87 54.964 0 99.67-44.487 99.67-99.611v-1.354c-1.162.581-1.936 1.161-2.903 1.741z" fill="#F7931E"/><path d="M119.445 149.126c9.771 17.214 31.612 23.21 48.663 13.152 17.051-9.864 22.99-31.914 13.028-49.128-9.771-17.215-31.612-23.211-48.663-13.153-17.051 9.865-22.99 31.914-13.028 49.129zm56.709-33.075c8.238 14.313 3.257 32.881-10.92 41.198s-32.569 3.288-40.807-11.025c-8.239-14.313-3.257-32.881 10.92-41.198s32.569-3.288 40.807 11.025zM156.038 108.508l-1.15 4.448c-4.598-1.16-9.579-.58-13.794 1.935-6.514 3.868-9.962 11.024-9.004 18.181.191 2.127 2.682 3.481 4.598 2.321h.191c1.15-.58 1.533-1.934 1.533-3.095-.575-4.642 1.724-9.477 5.939-11.992 2.682-1.547 5.939-1.934 9.005-1.354l-1.15 4.256c-.383 1.353 1.15 2.514 2.299 1.74l10.537-6.189-6.13-10.638c-.575-1.161-2.491-.967-2.874.387zm-9.579 40.231c4.598 1.16 9.579.58 13.794-1.934 6.514-3.869 9.771-11.025 9.004-18.182-.191-2.127-2.682-3.481-4.598-2.321h-.191c-1.15.58-1.533 1.934-1.533 3.095.575 4.642-1.724 9.477-5.939 11.992-2.682 1.547-5.939 1.934-9.005 1.354l1.15-4.255c.383-1.354-1.15-2.515-2.299-1.741l-10.537 6.189 6.13 10.638c.767 1.161 2.491.967 2.874-.387l1.15-4.448zM117.53 280.457h-.384c-.958-.194-1.532-.967-1.341-1.934.192-.968 1.15-1.548 1.916-1.354.958.193 1.533 1.16 1.341 1.934 0 .773-.766 1.354-1.532 1.354zm2.49-11.605h-.383c-.958-.194-1.533-.967-1.341-1.935.191-.967 1.149-1.547 1.916-1.354.958.194 1.532 1.161 1.341 1.935 0 .773-.767 1.354-1.533 1.354zm2.491-11.799h-.383c-.958-.193-1.533-.967-1.342-1.934.192-.967 1.15-1.547 1.916-1.354.958.193 1.533 1.16 1.341 1.934 0 .774-.766 1.354-1.532 1.354zm2.49-11.605h-.383c-.958-.193-1.533-.967-1.341-1.934.192-.967 1.15-1.548 1.916-1.354.958.193 1.533 1.16 1.341 1.934 0 .774-.766 1.354-1.533 1.354zm2.491-11.605h-.383c-.958-.194-1.533-.967-1.341-1.934.191-.967 1.149-1.548 1.915-1.354.958.193 1.533 1.16 1.342 1.934 0 .774-.767 1.354-1.533 1.354zm2.49-11.799h-.383c-.958-.193-1.532-.967-1.341-1.934.192-.967 1.15-1.547 1.916-1.354.958.194 1.533 1.161 1.341 1.934 0 .774-.766 1.354-1.533 1.354zm2.491-11.605h-.383c-.958-.193-1.533-.967-1.341-1.934.191-.967 1.149-1.547 1.916-1.354.958.194 1.532 1.161 1.341 1.934 0 .774-.575 1.354-1.533 1.354zm2.682-11.605h-.383c-.958-.193-1.533-.967-1.341-1.934.192-.967 1.15-1.547 1.916-1.354.958.193 1.533 1.161 1.341 1.934-.192.774-.766 1.354-1.533 1.354zm2.491-11.798h-.383c-.958-.194-1.533-.967-1.341-1.935.191-.967 1.149-1.547 1.915-1.353.958.193 1.533 1.16 1.342 1.934-.192.773-.767 1.354-1.533 1.354zM86.876 243.32c-.192 0-.575 0-.766-.193-.766-.387-1.15-1.354-.766-2.321.383-.774 1.533-1.161 2.299-.58.766.387 1.15 1.547.575 2.321 0 .387-.575.773-1.341.773zm5.748-10.444c-.191 0-.575 0-.766-.194-.766-.386-1.149-1.354-.766-2.321.383-.773 1.533-1.16 2.299-.58.766.387 1.15 1.548.575 2.321 0 .387-.766.774-1.341.774zm5.748-10.445c-.192 0-.575 0-.766-.193-.766-.387-1.15-1.354-.766-2.321.383-.774 1.533-1.161 2.299-.58.766.386 1.15 1.547.575 2.321-.192.386-.766.773-1.341.773zm5.748-10.444c-.192 0-.575 0-.767-.194-.766-.387-1.149-1.354-.766-2.321.383-.773 1.533-1.16 2.299-.58.766.387 1.15 1.547.575 2.321-.192.387-.767.774-1.341.774zm5.747-10.445c-.191 0-.575 0-.766-.193-.766-.387-1.15-1.354-.766-2.321.383-.774 1.532-1.161 2.299-.581.766.387 1.149 1.548.574 2.321-.191.387-.766.774-1.341.774zm5.748-10.445c-.192 0-.575 0-.767-.193-.766-.387-1.149-1.354-.766-2.321.383-.774 1.533-1.16 2.299-.58.766.387 1.15 1.547.575 2.321-.192.387-.766.773-1.341.773zM61.012 213.727c-.383 0-.958-.193-1.15-.58-.575-.774-.575-1.741 0-2.321.766-.58 1.724-.58 2.299.193.575.774.575 1.741-.192 2.321 0 .194-.383.387-.958.387zm8.813-7.93c-.383 0-.958-.193-1.15-.58-.575-.774-.575-1.741 0-2.321.766-.58 1.724-.58 2.299.193.575.774.575 1.741-.192 2.321 0 .194-.575.387-.958.387zm8.813-8.123c-.383 0-.958-.194-1.15-.581-.575-.773-.575-1.741 0-2.321.766-.58 1.724-.58 2.299.194.575.773.575 1.74-.192 2.321-.192.387-.575.387-.958.387zm8.813-7.931c-.383 0-.958-.193-1.15-.58-.575-.774-.575-1.741 0-2.321.766-.58 1.724-.58 2.299.193.575.774.575 1.741-.192 2.322-.192.193-.575.386-.958.386zm8.813-8.123c-.383 0-.958-.194-1.15-.58-.575-.774-.575-1.741 0-2.321.766-.581 1.724-.581 2.299.193s.575 1.741-.192 2.321c-.191.387-.575.387-.958.387zm8.621-7.93c-.383 0-.958-.194-1.149-.581-.575-.773-.575-1.74 0-2.321.766-.58 1.724-.58 2.299.194.574.773.574 1.741-.192 2.321 0 .193-.383.387-.958.387zm8.813-7.931c-.383 0-.958-.193-1.15-.58-.574-.773-.574-1.741 0-2.321.767-.58 1.725-.58 2.299.194.575.773.575 1.74-.191 2.321-.192.193-.575.386-.958.386zM41.087 184.715c-.575 0-1.341-.387-1.533-.967-.383-.774 0-1.741.766-2.128s1.916 0 2.299.774c.383.773 0 1.934-.766 2.321h-.766zm10.729-5.029c-.575 0-1.341-.387-1.533-.967-.383-.774 0-1.741.766-2.128s1.916 0 2.299.774c.383.773 0 1.934-.766 2.321h-.766zm10.729-4.836c-.575 0-1.341-.387-1.533-.967-.383-.773 0-1.741.766-2.127.766-.387 1.916 0 2.299.773.383.774 0 1.934-.766 2.321-.192-.193-.383 0-.766 0zm10.729-5.029c-.575 0-1.341-.386-1.533-.967-.383-.773 0-1.74.766-2.127.766-.387 1.916 0 2.299.773.383.774 0 1.935-.766 2.321h-.766zM18.864 156.862c-.766 0-1.533-.58-1.724-1.354-.192-.967.383-1.74 1.341-1.934.958-.193 1.916.387 1.916 1.354.192.967-.383 1.741-1.341 1.934h-.192zm11.687-1.934c-.766 0-1.533-.58-1.724-1.354-.192-.967.383-1.741 1.341-1.934.958-.193 1.916.387 1.916 1.354.192.967-.383 1.741-1.341 1.934h-.192zm11.495-2.127c-.766 0-1.533-.581-1.724-1.354-.192-.967.383-1.741 1.341-1.935.958-.193 1.916.387 1.916 1.354.192.967-.383 1.741-1.341 1.935h-.192zm11.687-2.128c-.766 0-1.533-.58-1.724-1.354-.192-.967.383-1.741 1.341-1.934.958-.194 1.916.387 1.916 1.354.191.967-.383 1.741-1.341 1.934h-.192zm11.687-2.128c-.766 0-1.533-.58-1.724-1.354-.192-.967.383-1.74 1.341-1.934.958-.193 1.916.387 1.916 1.354.192.967-.383 1.741-1.341 1.934h-.192zm11.687-1.934c-.766 0-1.533-.58-1.724-1.354-.192-.967.383-1.741 1.341-1.934.958-.193 1.916.387 1.916 1.354.192.967-.383 1.741-1.341 1.934h-.192zm11.687-2.127c-.766 0-1.533-.581-1.724-1.354-.192-.967.383-1.741 1.341-1.935.958-.193 1.916.387 1.916 1.354.192.967-.383 1.741-1.341 1.935h-.192zm11.495-2.128c-.766 0-1.533-.58-1.724-1.354-.192-.967.383-1.741 1.341-1.934.958-.194 1.916.387 1.916 1.354.191.967-.383 1.741-1.341 1.934h-.192zM204.126 265.177c-.575 0-1.15-.387-1.533-.967-.383-.774 0-1.935.958-2.128.766-.387 1.916 0 2.107.967.384.774 0 1.934-.957 2.321 0-.387-.192-.193-.575-.193zm-4.407-11.025c-.574 0-1.149-.387-1.532-.967-.384-.774 0-1.934.958-2.128.766-.387 1.915 0 2.107.967.383.774 0 1.934-.958 2.321-.192-.387-.383-.193-.575-.193zm-4.598-11.025c-.574 0-1.149-.387-1.532-.967-.384-.774 0-1.934.958-2.128.766-.387 1.915 0 2.107.967.383.774 0 1.935-.958 2.321-.192-.386-.383-.193-.575-.193zm-4.598-11.025c-.574 0-1.149-.387-1.532-.967-.384-.774 0-1.934.958-2.128.766-.386 1.915 0 2.107.968.383.773 0 1.934-.958 2.321-.192-.194-.383-.194-.575-.194zm-4.598-11.025c-.575 0-1.149-.387-1.532-.967-.384-.774 0-1.934.957-2.127.767-.387 1.916 0 2.108.967.383.773 0 1.934-.958 2.321-.192-.194-.383-.194-.575-.194zm-4.598-11.025c-.575 0-1.149-.386-1.532-.967-.384-.773 0-1.934.957-2.127.767-.387 1.916 0 2.108.967.191.967 0 1.934-.958 2.321-.192-.194-.383-.194-.575-.194zm-4.598-11.024c-.575 0-1.149-.387-1.532-.968-.384-.773 0-1.934.957-2.127.767-.387 1.916 0 2.108.967.191.967 0 1.934-.958 2.321-.192-.193-.383-.193-.575-.193zm-4.598-11.025c-.575 0-1.149-.387-1.533-.967-.383-.774 0-1.935.958-2.128.767-.387 1.916 0 2.108.967.191.967 0 1.934-.958 2.321 0-.193-.383-.193-.575-.193zM234.396 238.485c-.383 0-.958-.194-1.341-.58-.575-.774-.383-1.741.191-2.321.767-.581 1.725-.387 2.299.193.575.58.575 1.741-.191 2.321-.192.193-.575.387-.958.387zm-7.28-9.478c-.384 0-.958-.193-1.341-.58-.575-.774-.384-1.741.191-2.321.766-.58 1.724-.387 2.299.194.575.773.383 1.74-.191 2.321-.384.386-.575.386-.958.386zm-7.472-9.284c-.575 0-.958-.193-1.341-.58-.575-.774-.383-1.741.383-2.321.766-.58 1.724-.387 2.299.387s.383 1.934-.192 2.321l-1.149.193zm-7.28-9.284c-.383 0-.958-.193-1.341-.58-.575-.774-.384-1.741.191-2.321.767-.58 1.724-.387 2.299.193.575.774.383 1.741-.191 2.321-.192.194-.575.387-.958.387zm-7.281-9.477c-.383 0-.957-.194-1.341-.581-.574-.773-.383-1.74.192-2.321.766-.58 1.724-.386 2.299.194.575.774.383 1.741-.192 2.321-.383.193-.766.387-.958.387zm-7.471-9.284c-.383 0-.958-.194-1.341-.581-.575-.773-.384-1.74.191-2.321.767-.58 1.724-.386 2.299.194.575.58.575 1.741-.191 2.321-.192.193-.575.387-.958.387zM244.167 198.06c-.383 0-.575 0-.958-.193-.767-.58-.958-1.547-.383-2.321.574-.774 1.532-.967 2.299-.387.766.58.958 1.548.574 2.321-.383.387-.958.58-1.532.58zm-9.771-6.576c-.383 0-.575 0-.958-.193-.766-.58-.958-1.548-.383-2.321.575-.774 1.533-.967 2.299-.387s.958 1.547.575 2.321c-.575.193-.958.58-1.533.58zm-9.771-6.769c-.383 0-.575 0-.958-.387-.766-.581-.958-1.548-.383-2.321.575-.774 1.533-.967 2.299-.387s.958 1.547.383 2.321c-.383.58-.766.774-1.341.774zm-9.771-6.577c-.383 0-.574 0-.958-.193-.766-.58-.958-1.547-.383-2.321.575-.774 1.533-.967 2.299-.387.767.58.958 1.547.575 2.321-.575.194-1.15.58-1.533.58zm-9.77-6.769c-.384 0-.575 0-.958-.194-.767-.58-.958-1.547-.384-2.321.575-.773 1.533-.967 2.299-.387.767.581.958 1.548.575 2.321-.575.387-1.149.581-1.532.581zm-9.963-6.77c-.383 0-.575 0-.958-.193-.766-.581-.958-1.548-.383-2.321.575-.774 1.533-.967 2.299-.387s.958 1.547.575 2.321c-.383.387-.958.58-1.533.58zm-9.771-6.576c-.383 0-.574 0-.958-.194-.766-.58-.958-1.547-.383-2.321.575-.773 1.533-.967 2.299-.386.767.58.958 1.547.575 2.321-.383.193-.958.58-1.533.58zM263.9 173.496h-.575c-.958-.387-1.341-1.354-.958-2.127.383-.967 1.341-1.354 2.108-.967.958.386 1.341 1.353 1.149 2.127-.575.58-1.149.967-1.724.967zm-11.304-3.868h-.574c-.958-.387-1.341-1.354-.958-2.128.383-.967 1.341-1.354 2.107-.967.958.387 1.341 1.354 1.15 2.128-.383.58-.958.967-1.725.967zm-11.111-3.868h-.575c-.958-.387-1.341-1.354-.958-2.128.383-.967 1.341-1.354 2.107-.967.958.387 1.341 1.354 1.15 2.127-.383.387-.958.968-1.724.968zm-11.112-4.062h-.575c-.958-.387-1.341-1.354-.958-2.128.383-.967 1.341-1.354 2.107-.967.958.387 1.341 1.354 1.15 2.128-.575.58-1.15.967-1.724.967zm-11.304-3.869h-.575c-.958-.386-1.341-1.354-.958-2.127.384-.967 1.342-1.354 2.108-.967.958.386 1.341 1.354 1.149 2.127-.383.581-.958.967-1.724.967zM276.353 145.644h-.192c-.957 0-1.532-.967-1.532-1.934s.958-1.547 1.916-1.547 1.724.967 1.532 1.934c-.191.773-.766 1.547-1.724 1.547zm-11.687-1.354h-.191c-.958 0-1.533-.967-1.533-1.934s.958-1.547 1.916-1.547 1.724.967 1.533 1.934c-.192.774-.958 1.547-1.725 1.547zm-11.878-1.354h-.191c-.958-.193-1.533-.967-1.533-1.934.191-.967.958-1.547 1.916-1.547.958.193 1.532.967 1.532 1.934-.191.967-.766 1.547-1.724 1.547zm-11.686-1.354h-.192c-.958-.193-1.533-.967-1.533-1.934.192-.967.958-1.547 1.916-1.547.958.193 1.533.967 1.533 1.934-.192.967-.958 1.547-1.724 1.547zm-11.687-1.354h-.192c-.958 0-1.532-.967-1.532-1.934s.958-1.547 1.915-1.547c.958 0 1.725.967 1.533 1.934-.191.967-.958 1.547-1.724 1.547zm-11.878-1.16h-.192c-.958 0-1.533-.967-1.533-1.934s.958-1.548 1.916-1.548 1.724.967 1.533 1.935c-.192.773-.766 1.547-1.724 1.547zm-11.687-1.354h-.192c-.958-.193-1.532-.967-1.532-1.934.191-.967.958-1.548 1.916-1.548.957.194 1.532.968 1.532 1.935-.191.967-.958 1.547-1.724 1.547zM198.953 110.248c-.575 0-1.15-.386-1.533-.967-.383-.773 0-1.934.766-2.321.767-.386 1.916 0 2.299.774.384.774 0 1.741-.766 2.321-.191 0-.383.193-.766.193zm10.728-5.222c-.574 0-1.149-.387-1.532-.967-.383-.774 0-1.934.766-2.321.766-.387 1.916 0 2.299.774.383.773 0 1.74-.766 2.321-.192.193-.383.193-.767.193zm10.729-5.029c-.575 0-1.341-.387-1.532-.967-.384-.774 0-1.934.766-2.321.766-.387 1.916 0 2.299.774s0 1.741-.766 2.128c-.192.387-.575.387-.767.387zm10.729-5.029c-.575 0-1.341-.387-1.533-.967-.383-.774 0-1.934.767-2.321.766-.387 1.915 0 2.299.774.383.774 0 1.741-.767 2.128-.191.193-.574.387-.766.387zm10.729-5.222c-.575 0-1.15-.387-1.533-.967-.383-.774 0-1.934.766-2.321.767-.387 1.916 0 2.299.774.384.774 0 1.741-.766 2.321-.383.193-.575.193-.766.193zm10.728-5.029c-.574 0-1.149-.387-1.532-.967-.383-.774 0-1.934.766-2.321.766-.387 1.916 0 2.299.774s0 1.741-.766 2.321c-.383.193-.575.193-.767.193zm10.729-5.029c-.575 0-1.149-.387-1.533-.967-.383-.774 0-1.934.767-2.321.766-.387 1.916 0 2.299.774s0 1.741-.767 2.321c-.383.194-.574.194-.766.194zm10.729-5.222c-.575 0-1.15-.387-1.533-.967-.383-.774 0-1.934.767-2.321.766-.387 1.915 0 2.299.774.383.774-.001 1.741-.767 2.321-.383.194-.575.194-.766.194zm10.537-5.029c-.575 0-1.15-.387-1.533-.967-.383-.774 0-1.934.767-2.321.766-.387 1.915 0 2.299.774.383.774 0 1.741-.767 2.321-.191.193-.383.193-.766.193zM196.846 90.907c-.384 0-.958-.193-1.342-.58-.574-.774-.574-1.741.192-2.321.766-.58 1.724-.58 2.491.193.574.774.574 1.741 0 2.321-.575.193-.958.387-1.341.387zm8.621-8.124c-.383 0-.958-.193-1.341-.58-.575-.774-.575-1.741.191-2.321.767-.58 1.725-.58 2.491.193.575.774.575 1.741 0 2.321-.383.193-.766.387-1.341.387zm8.813-7.93c-.383 0-.958-.194-1.15-.58-.575-.774-.575-1.741.192-2.321.766-.58 1.724-.58 2.49 0 .575.774.575 1.741 0 2.321-.766.387-1.149.58-1.532.58zm8.813-8.124c-.384 0-.958-.193-1.342-.58-.574-.774-.574-1.741.192-2.321.766-.58 1.724-.58 2.491.193.574.774.574 1.741 0 2.321-.575.194-.958.387-1.341.387zm8.812-7.93c-.383 0-.957-.193-1.341-.58-.574-.774-.574-1.741.192-2.321.766-.58 1.724-.58 2.491.194.574.774.574 1.741 0 2.321-.575.193-.958.387-1.342.387zm8.622-8.124c-.383 0-.958-.193-1.15-.58-.575-.774-.575-1.741.192-2.321.766-.58 1.724-.58 2.49 0 .575.774.575 1.741 0 2.321-.574.387-1.149.58-1.532.58zm8.813-7.93c-.384 0-.958-.193-1.342-.58-.574-.774-.574-1.741.192-2.321.766-.58 1.724-.58 2.491.193.574.774.574 1.741 0 2.321-.575.193-.958.387-1.341.387zm8.812-8.124c-.383 0-.957-.193-1.341-.58-.574-.774-.574-1.741.192-2.321.766-.58 1.724-.58 2.491.194.574.774.574 1.741 0 2.321-.575.193-.958.387-1.342.387zM178.837 84.331c-.384 0-.575 0-.958-.193-.767-.387-.958-1.547-.575-2.321.383-.774 1.533-1.16 2.299-.58.766.387 1.149 1.547.575 2.321-.192.58-.767.774-1.341.774zm6.13-10.251c-.383 0-.574 0-.766-.193-.766-.387-1.15-1.547-.575-2.321.575-.774 1.533-1.16 2.299-.58.767.387 1.15 1.547.575 2.321-.383.58-.958.774-1.533.774zm6.131-10.251c-.383 0-.575 0-.958-.193-.766-.387-.958-1.547-.575-2.321.383-.774 1.533-1.16 2.299-.58.767.387 1.15 1.547.575 2.321-.192.58-.766.774-1.341.774zm6.131-10.251c-.384 0-.575 0-.958-.194-.767-.387-.958-1.547-.575-2.321.383-.774 1.533-1.161 2.299-.58.766.387 1.149 1.547.575 2.321-.383.58-.767.774-1.341.774zm5.939-10.251c-.383 0-.575 0-.767-.193-.766-.387-1.149-1.547-.574-2.321.383-.774 1.532-1.161 2.299-.58.766.387 1.149 1.547.574 2.321-.383.58-.957.774-1.532.774zm6.13-10.251c-.383 0-.574 0-.957-.193-.767-.387-.958-1.547-.575-2.321.383-.774 1.532-1.161 2.299-.58.766.387 1.149 1.547.575 2.321-.192.58-.767.774-1.342.774zm6.131-10.251c-.383 0-.575 0-.958-.193-.766-.387-.958-1.547-.575-2.321.384-.774 1.533-1.161 2.299-.58.767.387 1.15 1.547.575 2.321-.191.58-.766.774-1.341.774zM165.234 62.474h-.383c-.958-.194-1.533-1.161-1.15-2.128.192-.967 1.15-1.547 2.108-1.354.958.194 1.532 1.16 1.341 1.934-.383 1.16-1.15 1.547-1.916 1.547zm2.682-11.605h-.383c-.958-.194-1.533-1.161-1.149-2.128.191-.967 1.149-1.547 2.107-1.354.958.193 1.533 1.16 1.341 1.934-.383.967-1.149 1.547-1.916 1.547zm2.874-11.605h-.383c-.958-.194-1.533-1.161-1.341-2.128.191-.967 1.149-1.547 2.107-1.354.958.193 1.533 1.16 1.341 1.934-.383.967-.958 1.547-1.724 1.547zm2.682-11.605h-.383c-.958-.194-1.533-1.161-1.15-2.128.192-.967 1.15-1.547 2.108-1.354.958.193 1.533 1.161 1.341 1.934-.575.967-1.15 1.547-1.916 1.547zm2.682-11.605h-.383c-.958-.193-1.533-1.16-1.149-2.128.191-.967 1.149-1.547 2.107-1.354.958.193 1.533 1.16 1.341 1.934-.383.967-1.149 1.547-1.916 1.547zM144.735 76.207c-.767 0-1.533-.58-1.725-1.547 0-.967.575-1.741 1.533-1.741s1.724.58 1.724 1.547-.574 1.741-1.532 1.741zm-1.15-11.799c-.766 0-1.533-.58-1.724-1.547 0-.967.575-1.741 1.533-1.741.957 0 1.724.58 1.724 1.547.191.774-.383 1.547-1.533 1.741zm-.958-11.992c-.766 0-1.532-.58-1.724-1.547 0-.967.575-1.741 1.533-1.741s1.724.58 1.724 1.547-.575 1.741-1.533 1.741zm-1.149-11.799c-.767 0-1.533-.58-1.725-1.547 0-.967.575-1.741 1.533-1.741s1.724.58 1.724 1.547-.383 1.547-1.532 1.741zm-.958-11.992c-.767 0-1.533-.58-1.725-1.547 0-.967.575-1.741 1.533-1.741s1.724.58 1.724 1.547c.192.774-.574 1.741-1.532 1.741zm-1.15-11.799c-.766 0-1.532-.58-1.724-1.547 0-.967.575-1.741 1.533-1.934.958 0 1.724.58 1.916 1.547 0 .774-.575 1.741-1.725 1.934zM131.707 89.94c-.575 0-1.15-.387-1.533-.967-.383-.774 0-1.934.958-2.128.766-.387 1.916 0 2.108.967.383.774 0 1.934-.958 2.321-.192-.387-.384-.193-.575-.193zm-4.598-11.025c-.575 0-1.15-.387-1.533-.967-.383-.774 0-1.934.958-2.128.766-.387 1.916 0 2.108.967.383.774 0 1.934-.958 2.321 0-.387-.192-.194-.575-.194zm-4.407-11.025c-.574 0-1.149-.387-1.532-.967-.383-.774 0-1.934.958-2.128.766-.387 1.915 0 2.107.967.192.967 0 1.934-.958 2.321-.191-.387-.383-.193-.575-.193zm-4.598-11.025c-.574 0-1.149-.387-1.532-.967-.383-.774 0-1.934.958-2.128.766-.387 1.915 0 2.107.967.383.774 0 1.934-.958 2.321-.191-.387-.383-.194-.575-.194zm-4.598-11.025c-.574 0-1.149-.387-1.532-.967-.383-.774 0-1.934.958-2.128.766-.387 1.915 0 2.107.967.192.967 0 1.934-.958 2.321-.191-.387-.383-.193-.575-.193zm-4.598-11.025c-.574 0-1.149-.387-1.532-.967-.384-.774 0-1.934.958-2.128.766-.387 1.915 0 2.107.967.383.774 0 1.934-.958 2.321-.192-.194-.383-.194-.575-.194zm-4.598-11.025c-.574 0-1.149-.387-1.532-.967-.384-.774 0-1.934.958-2.128.766-.387 1.915 0 2.107.967.383.774 0 1.934-.958 2.321 0-.193-.383-.193-.575-.193zm-4.406-11.025c-.575 0-1.149-.387-1.533-.967-.383-.774 0-1.934.958-2.128.766-.387 1.916 0 2.108.967.191.967 0 1.934-.958 2.321-.192-.194-.384-.194-.575-.194zM98.371 70.017c-.383 0-.958-.193-1.341-.58-.575-.774-.383-1.741.192-2.321.575-.58 1.724-.387 2.299.193.575.774.575 1.741-.192 2.321-.192.193-.575.387-.958.387zm-7.472-9.284c-.383 0-.958-.193-1.15-.58-.575-.774-.575-1.741.192-2.321.766-.58 1.724-.58 2.299.193.575.774.575 1.741-.192 2.321-.383.194-.766.387-1.15.387zm-7.472-9.284c-.383 0-.958-.193-1.341-.58-.575-.774-.383-1.741.192-2.321.766-.58 1.724-.387 2.299.193.575.774.575 1.741-.192 2.321-.192.193-.575.387-.958.387zm-7.472-9.284c-.383 0-.958-.193-1.341-.58-.575-.774-.383-1.741.192-2.321.575-.58 1.724-.387 2.299.194.575.774.575 1.741-.192 2.321-.192.193-.575.387-.958.387zm-7.472-9.284c-.383 0-.958-.193-1.15-.58-.575-.774-.575-1.741.192-2.321.766-.58 1.724-.58 2.299.193.575.774.575 1.741-.192 2.321-.383.387-.766.387-1.15.387zm-7.472-9.284c-.383 0-.958-.193-1.341-.58-.575-.774-.383-1.741.191-2.321.766-.58 1.724-.387 2.299.193.575.774.575 1.741-.191 2.321-.192.387-.575.387-.958.387zM103.352 101.932c-.383 0-.574 0-.958-.194-.766-.58-.958-1.547-.383-2.321.575-.774 1.533-.967 2.299-.387.767.58.958 1.548.575 2.321-.575.194-.958.581-1.533.581zm-9.77-6.77c-.383 0-.575 0-.958-.193-.766-.58-.958-1.547-.383-2.321.575-.774 1.533-.967 2.299-.387s.958 1.547.575 2.321c-.575.387-1.15.58-1.533.58zm-9.962-6.77c-.383 0-.575 0-.958-.387-.766-.58-.958-1.547-.383-2.321.575-.774 1.533-.967 2.299-.387s.958 1.547.383 2.321c-.192.58-.766.774-1.341.774zm-9.771-6.576c-.383 0-.575 0-.958-.193-.766-.58-.958-1.547-.383-2.321.575-.774 1.533-.967 2.299-.387s.958 1.547.575 2.321c-.383.193-.958.58-1.533.58zm-9.771-6.77c-.383 0-.575 0-.958-.194-.766-.58-.958-1.547-.383-2.321.575-.774 1.533-.967 2.299-.387s.958 1.547.575 2.321c-.383.387-.958.58-1.533.58zm-9.771-6.576c-.383 0-.575 0-.958-.193-.766-.58-.958-1.547-.383-2.321.575-.774 1.533-.967 2.299-.387s.958 1.547.575 2.321c-.383.193-.958.58-1.533.58zm-9.771-6.77c-.383 0-.575 0-.958-.387-.766-.58-.958-1.547-.383-2.321.575-.774 1.533-.967 2.299-.387s.958 1.547.383 2.321c-.383.58-.766.774-1.341.774zm-9.771-6.77c-.383 0-.575 0-.958-.194-.766-.58-.958-1.547-.383-2.321.575-.774 1.533-.967 2.299-.387s.958 1.547.575 2.321c-.575.387-.958.58-1.533.58zm-9.771-6.576c-.383 0-.575 0-.958-.193-.766-.58-.958-1.547-.383-2.321.575-.774 1.533-.967 2.299-.387s.958 1.547.575 2.321c-.575.193-.958.58-1.533.58zM97.605 115.277h-.575c-.958-.386-1.341-1.354-.958-2.127.383-.967 1.341-1.354 2.107-.967.958.387 1.341 1.354 1.15 2.127-.383.581-.958.967-1.724.967zm-11.112-3.868h-.575c-.958-.387-1.341-1.161-1.15-2.128.383-.967 1.15-1.354 2.108-1.16.958.387 1.341 1.354 1.149 2.127-.192.774-.958 1.161-1.533 1.161zm-11.303-3.868h-.575c-.958-.387-1.341-1.354-.958-2.128.383-.967 1.341-1.354 2.108-.967.766.387 1.341 1.354 1.15 2.128-.383.58-.958.967-1.724.967zm-11.112-3.869h-.575c-.958-.387-1.341-1.16-1.149-2.127.383-.967 1.149-1.354 2.107-1.161.958.387 1.341 1.354 1.15 2.128-.192.58-.766 1.16-1.533 1.16zm-11.112-4.061h-.575c-.958-.387-1.341-1.354-.958-2.128.383-.967 1.341-1.354 2.107-.967.958.387 1.341 1.354 1.149 2.128-.383.58-1.149.967-1.724.967zm-11.303-3.868h-.575c-.958-.387-1.341-1.16-1.149-2.128.383-.967 1.149-1.354 2.107-1.161.958.387 1.341 1.354 1.149 2.128-.191.774-.766 1.16-1.533 1.16zm-11.112-3.868h-.575c-.958-.387-1.341-1.354-.958-2.128.383-.967 1.341-1.354 2.107-.967.958.387 1.341 1.354 1.149 2.128-.383.58-.958.967-1.724.967zm-11.112-3.868h-.575c-.958-.387-1.341-1.354-.958-2.128.383-.967 1.341-1.354 2.107-.967.958.387 1.341 1.354 1.15 2.128-.383.387-1.15.967-1.724.967zM179.028 4.835c-.191 0-.191-.193 0 0-1.149 0-1.724-.967-1.724-1.741 0-.967.958-1.547 1.724-1.547.958 0 1.533.967 1.533 1.741 0 .774-.766 1.547-1.533 1.547zM212.555 122.627c-.766 0-1.532-.58-1.724-1.354-.191-.967.383-1.74 1.341-1.934.958-.193 1.916.387 1.916 1.354.192.967-.383 1.741-1.341 1.934h-.192zm11.687-2.127c-.766 0-1.533-.581-1.724-1.354-.192-.967.383-1.741 1.341-1.935.958-.193 1.916.387 1.916 1.354.191.968-.383 1.741-1.341 1.935h-.192zm11.687-2.128c-.767 0-1.533-.58-1.725-1.354-.191-.967.384-1.741 1.342-1.934.957-.194 1.915.387 1.915 1.354 0 .967-.383 1.741-1.341 1.934h-.191zm11.686-1.934c-.766 0-1.532-.58-1.724-1.354-.192-.967.383-1.741 1.341-1.934.958-.194 1.724.387 1.916 1.354.192.967-.383 1.74-1.341 1.934h-.192zm11.687-2.128c-.766 0-1.533-.58-1.724-1.354-.192-.967.383-1.74 1.341-1.934.958-.193 1.916.387 1.916 1.354 0 .967-.384 1.741-1.341 1.934h-.192zm11.495-2.127c-.766 0-1.533-.581-1.724-1.354-.192-.967.383-1.741 1.341-1.935.958-.193 1.916.387 1.916 1.354.191.968-.383 1.741-1.341 1.935h-.192zm11.687-2.128c-.767 0-1.533-.58-1.725-1.354-.191-.967.384-1.741 1.341-1.934.958-.194 1.916.387 1.916 1.354 0 .967-.383 1.741-1.341 1.934h-.191zm11.686-1.934c-.766 0-1.532-.58-1.724-1.354-.192-.967.383-1.741 1.341-1.934.958-.194 1.916.387 1.916 1.354.192.967-.383 1.74-1.341 1.934" fill="#fff"/><path d="M64.461 125.722c-1.15 0-1.724-.967-1.724-1.741 0-.967.766-1.547 1.724-1.547s1.533.967 1.533 1.741c0 .773-.766 1.547-1.533 1.547zm-11.878-.967c-1.15 0-1.724-.967-1.724-1.741 0-.967.958-1.547 1.724-1.547.958 0 1.533.967 1.533 1.741.192.773-.575 1.547-1.533 1.547zm-11.687-.967c-1.149 0-1.724-.967-1.724-1.741 0-.967.766-1.547 1.724-1.547s1.533.967 1.533 1.74c0 .968-.766 1.548-1.533 1.548zm-11.878-.967c-1.15 0-1.724-.967-1.724-1.741 0-.967.958-1.547 1.724-1.547.958 0 1.533.967 1.533 1.74 0 .967-.575 1.548-1.533 1.548zm-11.687-.967c-1.149 0-1.724-.968-1.724-1.741 0-.967.766-1.548 1.724-1.548h.192c.958 0 1.533.968 1.533 1.741-.192.967-.958 1.548-1.724 1.548zm-11.878-.968c-1.15 0-1.724-.967-1.724-1.74 0-.967.958-1.548 1.724-1.548.958 0 1.533.967 1.533 1.741 0 .967-.575 1.547-1.533 1.547zM163.51 286.453c-.766 0-1.533-.581-1.724-1.548 0-.967.574-1.74 1.532-1.74.958 0 1.725.58 1.725 1.547s-.384 1.547-1.533 1.741zm-.958-11.992c-.766 0-1.533-.58-1.724-1.548 0-.967.574-1.74 1.532-1.74.958 0 1.725.58 1.725 1.547.191.774-.575 1.741-1.533 1.741zm-1.15-11.799c-.766 0-1.532-.58-1.724-1.547 0-.967.575-1.741 1.533-1.741s1.724.58 1.724 1.547c0 .968-.383 1.548-1.533 1.741zm-.958-11.992c-.766 0-1.532-.58-1.724-1.547 0-.967.575-1.741 1.533-1.741s1.724.58 1.724 1.548c0 .967-.575 1.74-1.533 1.74zm-1.149-11.798c-.766 0-1.533-.58-1.724-1.548 0-.967.574-1.74 1.532-1.74.958 0 1.725.58 1.725 1.547s-.384 1.547-1.533 1.741zm-.958-11.992c-.766 0-1.533-.58-1.724-1.548 0-.967.575-1.74 1.532-1.74.958 0 1.725.58 1.725 1.547s-.575 1.741-1.533 1.741zm-1.149-11.799c-.767 0-1.533-.58-1.725-1.547 0-.967.575-1.741 1.533-1.741s1.724.58 1.724 1.548c0 .967-.383 1.547-1.532 1.74zm-.958-11.992c-.767 0-1.533-.58-1.725-1.547 0-.967.575-1.741 1.533-1.741s1.724.581 1.724 1.548c.192.773-.574 1.74-1.532 1.74z" fill="#fff"/></svg>