<svg width="230" height="231" viewBox="0 0 230 231" fill="none" xmlns="http://www.w3.org/2000/svg">
<circle cx="115" cy="115.501" r="115" fill="#F0F0F4"/>
<g clip-path="url(#clip0)">
<path d="M193.756 217.594C190.94 220.41 186.375 220.41 183.559 217.594L137.105 171.14L147.302 160.943L193.756 207.397C196.572 210.213 196.572 214.778 193.756 217.594Z" fill="#6F737B"/>
<path d="M52.1318 151.34H177.868C190.915 151.34 201.899 141.147 202.347 128.131C202.358 127.81 202.363 127.487 202.363 127.163C202.363 111.835 189.915 99.4094 174.56 99.4094C174.549 99.4094 174.539 99.4101 174.529 99.4101C174.547 99.0005 174.56 98.5895 174.56 98.1754C174.56 82.8476 162.112 70.422 146.757 70.422C141.973 70.422 137.472 71.6289 133.541 73.7527C127.093 59.9106 113.357 50.1361 97.2528 49.3483C73.3107 48.1765 52.9552 67.3834 52.8251 91.3108C52.81 94.1046 53.0698 96.8345 53.5732 99.4783C39.0896 100.438 27.6367 112.461 27.6367 127.162C27.6367 127.487 27.6423 127.81 27.6532 128.131C28.1011 141.147 39.0847 151.34 52.1318 151.34Z" fill="white"/>
<path d="M174.134 98.968C174.123 98.968 174.113 98.9687 174.102 98.9687C174.12 98.5591 174.134 98.1481 174.134 97.734C174.134 82.4062 161.685 69.9806 146.33 69.9806C141.547 69.9806 137.045 71.1875 133.114 73.3113C126.667 59.4696 112.93 49.6947 96.8264 48.9069C81.7345 48.1682 68.0703 55.5285 59.996 67.063C67.4224 61.864 76.5549 58.9781 86.2795 59.4537C98.5972 60.0563 109.529 65.9165 116.875 74.8332C120.54 79.2829 126.26 81.5684 131.972 80.7862C133.218 80.6157 134.49 80.5274 135.783 80.5274C152.004 80.5274 158.805 91.7782 161.627 100.261C163.292 105.264 167.213 109.247 172.226 110.881C183.352 114.508 191.389 124.951 191.389 137.268C191.389 137.592 191.384 137.915 191.373 138.237C191.25 141.801 190.333 145.151 188.805 148.14C196.322 144.256 201.612 136.64 201.92 127.69C201.931 127.368 201.936 127.046 201.936 126.721C201.937 111.394 189.489 98.968 174.134 98.968Z" fill="#2CCCD4"/>
<path d="M121.21 180.383C140.725 180.383 156.545 164.563 156.545 145.048C156.545 125.533 140.725 109.714 121.21 109.714C101.696 109.714 85.8757 125.533 85.8757 145.048C85.8757 164.563 101.696 180.383 121.21 180.383Z" fill="#C8C3CA"/>
<path d="M146.196 120.063C137.951 111.818 126.646 108.501 115.937 110.109C123.151 111.192 130.095 114.509 135.649 120.063C149.448 133.862 149.448 156.234 135.649 170.033C130.094 175.587 123.151 178.904 115.937 179.987C126.646 181.595 137.951 178.278 146.196 170.033C159.994 156.234 159.994 133.862 146.196 120.063Z" fill="#C7C7C7"/>
<path d="M121.21 168.431C134.124 168.431 144.593 157.962 144.593 145.048C144.593 132.134 134.124 121.665 121.21 121.665C108.296 121.665 97.8276 132.134 97.8276 145.048C97.8276 157.962 108.296 168.431 121.21 168.431Z" fill="white"/>
<path d="M137.744 128.514C131.828 122.598 123.53 120.52 115.937 122.27C120.063 123.221 123.982 125.299 127.197 128.514C136.329 137.646 136.329 152.451 127.197 161.582C123.982 164.798 120.063 166.875 115.937 167.827C123.53 169.577 131.827 167.499 137.744 161.582C146.876 152.451 146.876 137.646 137.744 128.514Z" fill="#F1F1F1"/>
</g>
<defs>
<clipPath id="clip0">
<rect width="180" height="180" fill="white" transform="translate(25 44.5015)"/>
</clipPath>
</defs>
</svg>
