<svg width="230" height="232" viewBox="0 0 230 232" fill="none" xmlns="http://www.w3.org/2000/svg">
<path d="M230 115.501C230 141.111 221.626 164.768 207.469 183.882C202.264 190.909 196.274 197.325 189.633 202.995C169.548 220.147 143.487 230.501 115 230.501C98.5011 230.501 82.8189 227.028 68.6384 220.771C62.5128 218.072 56.6689 214.852 51.1629 211.167C47.3984 208.656 43.7984 205.924 40.3668 202.995C33.7251 197.325 27.7357 190.908 22.5301 183.882C8.37389 164.768 0 141.111 0 115.501C0 89.8915 8.37389 66.2347 22.5306 47.1209C31.4489 35.081 42.6628 24.8437 55.5239 17.0565C72.8772 6.54705 93.23 0.501465 115 0.501465C115.15 0.501465 115.301 0.501465 115.451 0.505957C137.052 0.585918 157.245 6.61758 174.476 17.0565C187.337 24.8437 198.551 35.081 207.469 47.1209C221.626 66.2343 230 89.8915 230 115.501Z" fill="#F0F0F4"/>
<path d="M184 207.501V84.3127C184 77.2368 178.291 71.5018 171.247 71.5015H58.7528C51.7092 71.5015 46 77.2368 46 84.3127V207.501C57.5 217.001 86 231.501 115 231.501C136.257 231.501 154.092 225.755 170.778 216.176C175.405 213.52 180 210.501 184 207.501Z" fill="#B1ABB4"/>
<path d="M171 216.001V108.567C171 104.111 167.379 100.501 162.916 100.501H67.0795C62.6171 100.501 59 104.111 59 108.567V216.073C67 220.501 89.5003 231.501 115 231.501C136.375 231.501 155 225.501 171 216.001Z" fill="white"/>
<path d="M149 75.2916V97.8658C149 102.085 145.6 105.501 141.402 105.501H88.5985C84.3998 105.501 81 102.085 81 97.8658V75.2916C81 71.0723 84.4001 67.6559 88.5985 67.6559H101.892C104.291 62.8236 109.26 59.5015 115 59.5015C115.893 59.5015 116.768 59.582 117.616 59.7362C121.633 60.4616 125.078 62.8374 127.237 66.135C127.265 66.177 127.289 66.2155 127.314 66.2578C127.519 66.5767 127.715 66.906 127.893 67.2424C127.973 67.3896 128.046 67.5298 128.109 67.6559H141.403C145.6 67.6559 149 71.0726 149 75.2916Z" fill="#F7931E"/>
<path d="M149 75.2916V97.8658C149 102.085 145.587 105.501 141.374 105.501H93.6264C89.4123 105.501 86 102.085 86 97.8658V75.2916C86 71.0723 89.4126 67.6559 93.6264 67.6559H101.718C104.126 62.8236 109.114 59.5015 114.875 59.5015C115.771 59.5015 116.65 59.582 117.5 59.7362C121.532 60.4616 124.99 62.8374 127.157 66.135C127.185 66.177 127.209 66.2155 127.234 66.2578C127.458 66.6186 127.654 66.9517 127.815 67.2424C127.895 67.3896 127.969 67.5298 128.032 67.6559H141.374C145.588 67.6559 149 71.0726 149 75.2916Z" fill="#FFE07D"/>
<path d="M115 76.5015C117.761 76.5015 120 74.2629 120 71.5015C120 68.74 117.761 66.5015 115 66.5015C112.239 66.5015 110 68.74 110 71.5015C110 74.2629 112.239 76.5015 115 76.5015Z" fill="#766D78"/>
<path d="M134.256 94.5015H95.7441C93.6763 94.5015 92 92.7106 92 90.5015C92 88.2924 93.6763 86.5015 95.7441 86.5015H134.256C136.324 86.5015 138 88.2924 138 90.5015C138 92.7106 136.324 94.5015 134.256 94.5015Z" fill="#F7931E"/>
<path d="M73.9883 140.514C73.9883 142.17 75.3314 143.514 76.9883 143.514H86.0124C87.6693 143.514 89.0124 142.17 89.0124 140.514V131.489C89.0124 129.833 87.6693 128.489 86.0124 128.489H76.9883C75.3314 128.489 73.9883 129.833 73.9883 131.489V140.514Z" fill="#FFE07D"/>
<path d="M127.722 132.727H108.113C106.394 132.727 105 131.333 105 129.614C105 127.895 106.394 126.501 108.113 126.501H127.722C129.441 126.501 130.834 127.895 130.834 129.614C130.834 131.333 129.441 132.727 127.722 132.727Z" fill="#2CCCD4"/>
<path d="M152 144.866H108.113C106.394 144.866 105 143.472 105 141.753C105 140.034 106.394 138.641 108.113 138.641H152C153.719 138.641 155.113 140.034 155.113 141.753C155.113 143.472 153.719 144.866 152 144.866Z" fill="#2CCCD4"/>
<path d="M73.9883 176.514C73.9883 178.17 75.3314 179.514 76.9883 179.514H86.0124C87.6693 179.514 89.0124 178.17 89.0124 176.514V167.489C89.0124 165.833 87.6693 164.489 86.0124 164.489H76.9883C75.3314 164.489 73.9883 165.833 73.9883 167.489V176.514Z" fill="#FFE07D"/>
<path d="M127.722 168.727H108.113C106.394 168.727 105 167.333 105 165.614C105 163.895 106.394 162.501 108.113 162.501H127.722C129.441 162.501 130.834 163.895 130.834 165.614C130.834 167.333 129.441 168.727 127.722 168.727Z" fill="#2CCCD4"/>
<path d="M152 180.866H108.113C106.394 180.866 105 179.472 105 177.753C105 176.034 106.394 174.641 108.113 174.641H152C153.719 174.641 155.113 176.034 155.113 177.753C155.113 179.472 153.719 180.866 152 180.866Z" fill="#2CCCD4"/>
<path d="M89.0121 212.513C89.0121 214.17 87.6689 215.513 86.0121 215.513H76.9879C75.3311 215.513 73.9879 214.17 73.9879 212.513V203.489C73.9879 201.832 75.3311 200.489 76.9879 200.489H86.0121C87.6689 200.489 89.0121 201.832 89.0121 203.489V212.513Z" fill="#FFE07D"/>
<path d="M127.722 204.727H108.113C106.394 204.727 105 203.333 105 201.614C105 199.895 106.394 198.501 108.113 198.501H127.722C129.441 198.501 130.834 199.895 130.834 201.614C130.834 203.333 129.441 204.727 127.722 204.727Z" fill="#2CCCD4"/>
<path d="M152 216.866H108.113C106.394 216.866 105 215.472 105 213.753C105 212.034 106.394 210.641 108.113 210.641H152C153.719 210.641 155.113 212.034 155.113 213.753C155.113 215.472 153.719 216.866 152 216.866Z" fill="#2CCCD4"/>
<path d="M80.931 182.501C79.9862 182.501 79.0969 182.052 78.5681 181.295L69.4774 168.296C68.6072 167.051 68.9598 165.37 70.2653 164.54C71.5709 163.71 73.3345 164.047 74.2048 165.292L80.5123 174.311L88.5913 158.051C89.2626 156.699 90.9566 156.122 92.3747 156.763C93.7925 157.403 94.3975 159.018 93.7259 160.37L83.4991 180.952C83.0611 181.834 82.159 182.423 81.1384 182.494C81.0685 182.499 80.9995 182.501 80.931 182.501Z" fill="#F7931E"/>
<path d="M80.931 146.501C79.9862 146.501 79.0969 146.035 78.5681 145.249L69.4774 131.749C68.6072 130.457 68.9598 128.711 70.2653 127.849C71.5709 126.988 73.3345 127.337 74.2048 128.63L80.5123 137.996L88.5913 121.111C89.2626 119.707 90.9566 119.108 92.3747 119.773C93.7925 120.438 94.3975 122.115 93.7259 123.519L83.4991 144.893C83.0611 145.808 82.159 146.42 81.1384 146.494C81.0685 146.499 80.9995 146.501 80.931 146.501Z" fill="#F7931E"/>
<path d="M80.931 218.501C79.9862 218.501 79.0969 218.035 78.5681 217.249L69.4774 203.749C68.6072 202.457 68.9598 200.711 70.2653 199.849C71.5709 198.988 73.3345 199.337 74.2048 200.63L80.5123 209.996L88.5913 193.111C89.2626 191.707 90.9566 191.108 92.3747 191.773C93.7925 192.438 94.3975 194.115 93.7259 195.519L83.4991 216.893C83.0611 217.808 82.159 218.42 81.1384 218.494C81.0685 218.499 80.9995 218.501 80.931 218.501Z" fill="#F7931E"/>
</svg>
