<svg width="321" height="308" viewBox="0 0 321 308" xmlns="http://www.w3.org/2000/svg" fill="none"><path d="M249.641 164.478c0 48.436-39.123 87.565-87.552 87.565-48.429 0-87.552-39.129-87.552-87.565 0-48.437 39.123-87.566 87.552-87.566 48.429 0 87.552 39.319 87.552 87.566z" fill="url(#a)"/><path d="M174.769 136.5h-29.538c-.742 0-1.444-.335-1.911-.91-.468-.576-.65-1.332-.498-2.057l1.073-5.105c.556-2.643 2.92-4.561 5.621-4.561h2.408l-.876-3.505c-.184-.735-.019-1.514.448-2.111.466-.597 1.182-.947 1.94-.947h13.128c.758 0 1.474.35 1.941.947.466.597.631 1.376.447 2.111l-.876 3.505h2.409c2.701 0 5.065 1.918 5.62 4.561l1.073 5.105c.153.725-.03 1.481-.497 2.057-.468.575-1.17.91-1.912.91z" fill="#754C29"/><path fill-rule="evenodd" clip-rule="evenodd" d="M181.913 127.844h7.626c1.359 0 2.461 1.102 2.461 2.461v69.234c0 1.359-1.102 2.461-2.461 2.461h-59.077c-1.36 0-2.462-1.102-2.462-2.461v-69.234c0-1.359 1.102-2.461 2.462-2.461h7.743s-.284 2.855-.201 5.373l.01.316c.076 2.363.134 4.193 1.484 5.855 1.408 1.734 3.498 2.729 5.733 2.729h29.538c2.235 0 4.325-.995 5.734-2.73 1.408-1.735 1.576-3.821 1.493-6.171l-.083-5.372zm-21.913 26.742h-19.692c-1.359 0-2.462-1.102-2.462-2.461 0-1.359 1.103-2.461 2.462-2.461h19.692c1.36 0 2.462 1.102 2.462 2.461 0 1.359-1.102 2.461-2.462 2.461zm-19.692 12.469h19.692c1.36 0 2.462-1.102 2.462-2.461 0-1.359-1.102-2.461-2.462-2.461h-19.692c-1.359 0-2.462 1.102-2.462 2.461 0 1.359 1.103 2.461 2.462 2.461zm19.692 12.468h-19.692c-1.359 0-2.462-1.101-2.462-2.461 0-1.359 1.103-2.46 2.462-2.46h19.692c1.36 0 2.462 1.101 2.462 2.46 0 1.36-1.102 2.461-2.462 2.461zm-19.692 12.469h19.692c1.36 0 2.462-1.102 2.462-2.461 0-1.359-1.102-2.461-2.462-2.461h-19.692c-1.359 0-2.462 1.102-2.462 2.461 0 1.359 1.103 2.461 2.462 2.461zm41.125-29.138l-6.962 6.96c-.481.481-1.111.721-1.741.721-.629 0-1.26-.24-1.74-.721l-3.481-3.48c-.962-.961-.962-2.519 0-3.48.961-.961 2.52-.961 3.481 0l1.74 1.74 5.222-5.221c.961-.96 2.52-.961 3.481 0 .961.961.961 2.52 0 3.481zm-6.962-5.509l6.962-6.96c.961-.961.961-2.519 0-3.48-.961-.962-2.52-.961-3.481 0l-5.222 5.22-1.74-1.74c-.961-.961-2.52-.961-3.481 0-.962.961-.962 2.519 0 3.48l3.481 3.48c.48.481 1.111.721 1.74.721.63 0 1.26-.24 1.741-.721z" fill="#F7931E"/><path d="M148.415 108.443c-.76 0-1.519-.569-1.709-1.329-.19-.95.38-1.9 1.329-2.09.95-.19 1.709.38 1.899 1.33.19.95-.379 1.709-1.329 1.899 0 .19 0 .19-.19.19zm-2.469-11.586c-.76 0-1.519-.57-1.709-1.33-.19-.95.38-1.9 1.329-2.09.95-.19 1.71.38 1.899 1.14.19.95-.379 1.71-1.329 1.899 0 .38 0 .38-.19.38zm-2.469-11.397c-.759 0-1.519-.57-1.709-1.33-.19-.95.38-1.899 1.329-2.089.95-.19 1.71.38 1.9 1.14.189.95-.38 1.709-1.33 1.899 0 .38 0 .38-.19.38zm-2.469-11.397c-.759 0-1.519-.57-1.709-1.33-.19-.95.38-1.9 1.329-2.089.95-.19 1.71.38 1.9 1.33.19.95-.38 1.71-1.33 1.9 0 .19-.19.19-.19.19zm-2.469-11.587c-.759 0-1.519-.57-1.709-1.33-.19-.95.38-1.899 1.329-2.089.95-.19 1.71.38 1.9 1.14.19.95-.38 1.709-1.33 1.899 0 .38-.19.38-.19.38zm-2.469-11.397c-.759 0-1.519-.57-1.709-1.33-.19-.95.38-1.899 1.33-2.089.949-.19 1.709.38 1.899 1.14.19.95-.38 1.71-1.33 1.899 0 .38-.19.38-.19.38zm-2.469-11.397c-.759 0-1.519-.57-1.709-1.33-.19-.95.38-1.899 1.33-2.089.949-.19 1.709.38 1.899 1.14.19.95-.38 1.71-1.33 1.899 0 .38-.19.38-.19.38zm-2.658-11.587c-.76 0-1.52-.57-1.71-1.33-.19-.95.38-1.9 1.33-2.089.949-.19 1.709.38 1.899 1.33.19.95-.38 1.71-1.329 1.899.189.19 0 .19-.19.19zm-2.469-11.397c-.76 0-1.52-.57-1.71-1.33-.19-.95.38-1.9 1.33-2.089.949-.19 1.709.38 1.899 1.14.19.95-.38 1.71-1.329 1.899.19.38 0 .38-.19.38zM125.815 103.505c-.57 0-1.14-.38-1.519-.95-.38-.76-.19-1.9.569-2.279.76-.38 1.71-.19 2.279.569.38.76.19 1.9-.759 2.28 0 .38-.19.38-.57.38zm-5.698-10.257c-.569 0-1.139-.38-1.519-.95-.38-.76-.19-1.899.57-2.279.759-.38 1.709-.19 2.279.57.38.76.19 1.899-.57 2.279-.19.38-.38.38-.76.38zm-5.697-10.257c-.57 0-1.14-.38-1.52-.76-.379-.76-.189-1.899.57-2.279.76-.38 1.709-.19 2.279.57.38.76.19 1.899-.57 2.279-.189.19-.379.19-.759.19zm-5.698-10.257c-.57 0-1.139-.38-1.519-.76-.38-.76-.19-1.9.57-2.279.759-.38 1.709-.19 2.279.57.38.76.19 1.899-.57 2.279-.19.19-.38.19-.76.19zm-5.507-10.257c-.57 0-1.14-.38-1.52-.95-.38-.76-.19-1.9.57-2.279.76-.38 1.709-.19 2.279.57.38.76.19 1.899-.57 2.279-.38.38-.569.38-.759.38zM107.773 114.712c-.38 0-.76-.19-1.14-.38-.76-.57-.76-1.71-.19-2.47.57-.759 1.709-.759 2.279-.19.76.57.76 1.71.19 2.28-.19.57-.57.76-1.139.76zm-8.547-7.788c-.38 0-.76-.19-1.139-.38-.76-.57-.76-1.71-.19-2.469.57-.76 1.709-.76 2.279-.19.76.569.76 1.709.19 2.279-.38.57-.76.76-1.14.76zm-8.736-7.788c-.38 0-.76-.19-1.139-.38-.76-.57-.76-1.71-.19-2.469.57-.76 1.709-.76 2.279-.19.76.57.76 1.709.19 2.279-.19.57-.76.76-1.139.76zm-8.736-7.978c-.38 0-.76-.19-1.139-.38-.76-.57-.76-1.71-.19-2.469.57-.76 1.709-.76 2.279-.19.76.57.76 1.71.19 2.279-.19.57-.76.76-1.139.76zm-8.736-7.788c-.38 0-.76-.19-1.139-.38-.76-.57-.76-1.71-.19-2.469.57-.76 1.709-.76 2.279-.19.76.57.76 1.71.19 2.279-.19.57-.57.76-1.139.76zm-8.736-7.978c-.38 0-.76-.19-1.14-.38-.76-.57-.76-1.709-.19-2.469.57-.76 1.709-.76 2.279-.19.76.57.76 1.71.19 2.279-.19.57-.57.76-1.139.76zm-8.546-7.788c-.38 0-.76-.19-1.14-.38-.76-.57-.76-1.71-.19-2.469.57-.76 1.709-.76 2.279-.19.76.57.76 1.709.19 2.279-.38.57-.76.76-1.139.76zm-8.736-7.978c-.38 0-.76-.19-1.139-.38-.76-.57-.76-1.71-.19-2.469.57-.76 1.709-.76 2.279-.19.76.57.76 1.709.19 2.279-.19.57-.76.76-1.139.76zm-8.736-7.788c-.38 0-.76-.19-1.14-.38-.76-.57-.76-1.71-.19-2.469.57-.76 1.709-.76 2.279-.19.76.57.76 1.71.19 2.279-.19.57-.76.76-1.139.76zM106.823 136.176c-.19 0-.38 0-.76-.19-.759-.38-1.329-1.33-.949-2.28.38-.76 1.329-1.139 2.089-.949.76.379 1.139 1.329.76 2.279 0 .76-.57 1.14-1.14 1.14zm-10.635-4.939c-.19 0-.38 0-.76-.19-.76-.38-1.329-1.33-.76-2.279.38-.76 1.329-1.14 2.089-.76.76.38 1.139 1.329.76 2.279-.19.57-.76.95-1.329.95zm-10.825-4.749c-.19 0-.38 0-.76-.19-.76-.38-1.329-1.329-.76-2.279.38-.76 1.329-1.14 2.089-.76.76.38 1.14 1.33.76 2.28 0 .569-.57.949-1.329.949zm-10.635-4.938c-.19 0-.38 0-.76-.19-.76-.38-1.329-1.33-.76-2.28.38-.759 1.33-1.139 2.089-.759.76.379 1.139 1.329.76 2.279 0 .57-.57.95-1.329.95zm-10.635-4.749c-.19 0-.38 0-.76-.19-.76-.38-1.329-1.33-.76-2.279.38-.76 1.33-1.14 2.089-.76.76.38 1.14 1.329.76 2.279-.19.57-.76.95-1.329.95zm-10.635-4.939c-.19 0-.38 0-.76-.19-.76-.379-1.329-1.329-.95-2.279.38-.76 1.329-1.33 2.089-.95.76.38 1.139 1.33.76 2.28 0 .759-.57 1.139-1.139 1.139zm-10.635-4.938c-.19 0-.38 0-.76-.19-.76-.38-1.329-1.33-.95-2.28.38-.759 1.329-1.139 2.089-.759s1.14 1.329.76 2.279c0 .76-.57.95-1.139.95zm-10.825-4.749c-.19 0-.38 0-.76-.19-.76-.38-1.329-1.33-.95-2.279.38-.76 1.329-1.14 2.089-.76.76.38 1.139 1.33.76 2.279.19.57-.38.95-1.14.95zm-10.636-4.939c-.19 0-.38 0-.76-.19-.76-.38-1.329-1.33-.95-2.279.38-.76 1.329-1.14 2.089-.76.76.38 1.14 1.33.76 2.279.19.57-.38.95-1.14.95zM85.172 148.522h-.38c-.95-.19-1.519-.95-1.329-1.899.19-.95.95-1.52 1.899-1.33.95.19 1.519.95 1.329 1.9 0 .759-.76 1.329-1.519 1.329zm-11.585-2.089h-.38c-.95-.19-1.519-.95-1.329-1.9.19-.949.95-1.519 1.899-1.329.95.19 1.519.949 1.329 1.899 0 .76-.57 1.33-1.519 1.33zm-11.395-2.09h-.38c-.95-.19-1.519-.949-1.329-1.899.19-.95.95-1.52 1.899-1.33.95.19 1.519.95 1.33 1.9-.19.759-.76 1.329-1.519 1.329zm-11.585-1.899h-.38c-.95-.19-1.519-.95-1.329-1.9.19-.949.95-1.519 1.899-1.329.95.19 1.519.949 1.33 1.899-.19.76-.76 1.33-1.519 1.33zm-11.585-2.09h-.19c-.95-.19-1.519-.949-1.329-1.899.19-.95.95-1.52 1.899-1.33.95.19 1.519.95 1.329 1.9-.19.76-.95 1.329-1.709 1.329zm-11.585-2.089h-.38c-.95-.19-1.519-.95-1.329-1.899.19-.95.95-1.52 1.899-1.33.949.19 1.519.95 1.329 1.899 0 .76-.76 1.33-1.519 1.33zm-11.585-2.089h-.38c-.95-.19-1.519-.95-1.329-1.9.19-.95.95-1.519 1.899-1.33.95.19 1.519.95 1.329 1.9 0 .76-.57 1.33-1.519 1.33zM167.407 86.029c-1.14-.19-1.709-.95-1.709-1.899 0-.95.949-1.71 1.899-1.52.949 0 1.519.95 1.519 1.709-.19.95-.76 1.71-1.709 1.71zm1.139-11.777c-1.139 0-1.709-.95-1.709-1.709 0-.95.95-1.71 1.709-1.52.95 0 1.52.76 1.52 1.709 0 .95-.76 1.52-1.52 1.52zm.95-11.587c-1.14-.19-1.709-.95-1.709-1.899 0-.95.949-1.71 1.899-1.52.949 0 1.519.95 1.519 1.709-.19.95-.76 1.709-1.709 1.709zm1.139-11.777c-1.139 0-1.709-.95-1.709-1.709 0-.95.95-1.709 1.709-1.52.95 0 1.52.76 1.52 1.709 0 .95-.76 1.52-1.52 1.52zm.95-11.587c-1.14-.19-1.709-.95-1.709-1.899 0-.95.949-1.709 1.899-1.52.949 0 1.519.95 1.519 1.71-.19.95-.759 1.71-1.709 1.71zm1.139-11.777c-1.139-.19-1.709-.95-1.709-1.899 0-.95.95-1.71 1.899-1.52.95 0 1.52.95 1.52 1.709-.19 1.14-.95 1.71-1.71 1.71zm.95-11.587c-1.139-.19-1.709-.95-1.709-1.899 0-.95.949-1.71 1.899-1.52.95 0 1.519.95 1.519 1.71-.19.95-.759 1.71-1.709 1.71zm1.14-11.777c-1.14-.19-1.71-.95-1.71-1.899 0-.95.95-1.71 1.899-1.52.95 0 1.52.95 1.52 1.71-.19 1.14-.95 1.71-1.709 1.71zM183.55 106.734c-.19 0-.38 0-.57-.19-.76-.38-1.329-1.33-.949-2.09.379-.759 1.329-1.329 2.279-.949.759.38 1.329 1.329.949 2.089s-.949 1.14-1.709 1.14zm4.558-10.827c-.19 0-.38 0-.57-.19-.759-.38-1.329-1.33-.949-2.09.379-.76 1.329-1.33 2.279-.95.759.38 1.329 1.33.949 2.089-.38.76-.949 1.14-1.709 1.14zm4.558-10.827c-.19 0-.38 0-.57-.19-.759-.38-1.329-1.33-.949-2.089.379-.76 1.329-1.33 2.089-.95.759.38 1.329 1.33.949 2.089-.19.76-.949 1.14-1.519 1.14zm4.558-10.827c-.19 0-.38 0-.57-.19-.759-.38-1.329-1.33-.949-2.089.379-.76 1.329-1.33 2.089-.95.759.38 1.329 1.33.949 2.09-.379.76-.949 1.14-1.519 1.14zm4.368-10.827c-.19 0-.38 0-.57-.19-.759-.38-1.329-1.33-.949-2.089.38-.76 1.329-1.33 2.279-.95.759.38 1.329 1.33.949 2.09-.379.76-.949 1.14-1.709 1.14zm4.558-10.827c-.19 0-.38 0-.57-.19-.759-.38-1.329-1.33-.949-2.089.38-.76 1.329-1.33 2.279-.95.759.38 1.329 1.33.949 2.089-.379.76-.949 1.14-1.709 1.14zm4.558-10.827c-.19 0-.38 0-.57-.19-.759-.38-1.329-1.33-.949-2.089.38-.76 1.329-1.33 2.279-.95.76.38 1.329 1.33.949 2.089-.379.76-1.139 1.14-1.709 1.14zm4.558-10.827c-.19 0-.38 0-.57-.19-.759-.38-1.329-1.33-.949-2.089.38-.76 1.329-1.33 2.279-.95.76.38 1.329 1.33.949 2.089-.569.76-1.139 1.14-1.709 1.14zm4.368-10.827c-.19 0-.38 0-.569-.19-.76-.38-1.33-1.33-.95-2.09.38-.76 1.329-1.33 2.089-.95.76.38 1.329 1.33.95 2.089-.19.76-.76 1.14-1.52 1.14zM218.115 92.298c-.38 0-.76-.19-.95-.38-.759-.57-.949-1.52-.38-2.279.57-.76 1.71-.95 2.279-.38.76.57.95 1.52.38 2.279-.38.57-.759.76-1.329.76zm7.217-9.117c-.38 0-.76-.19-.95-.38-.76-.57-.949-1.519-.38-2.279.57-.76 1.71-.95 2.279-.38.76.57.95 1.52.38 2.279-.19.38-.76.76-1.329.76zm7.406-9.307c-.379 0-.759-.19-.949-.38-.76-.57-.76-1.52-.19-2.279.57-.76 1.709-.95 2.279-.38.76.57.95 1.519.38 2.279-.57.57-1.14.76-1.52.76zm7.217-9.117c-.379 0-.759-.19-.949-.38-.76-.57-.76-1.71-.19-2.279.57-.76 1.709-.95 2.279-.38.76.57.949 1.52.38 2.279-.57.57-.95.76-1.52.76zm7.217-9.308c-.38 0-.759-.19-.949-.38-.76-.57-.76-1.52-.19-2.279.57-.76 1.709-.95 2.279-.38.759.57.949 1.52.38 2.279-.38.57-.95.76-1.52.76zm7.407-9.117c-.38 0-.76-.19-.95-.38-.759-.57-.759-1.709-.189-2.279.569-.76 1.709-.95 2.279-.38.759.57.949 1.52.379 2.279-.569.57-1.139.76-1.519.76zM213.177 126.298c-.57 0-1.139-.19-1.329-.76-.57-.759-.38-1.709.379-2.279.76-.57 1.9-.38 2.279.38.57.76.38 1.71-.379 2.279-.38.19-.57.38-.95.38zm9.686-6.648c-.57 0-1.14-.19-1.33-.76-.569-.759-.379-1.709.38-2.279.76-.57 1.899-.38 2.279.38.38.76.38 1.709-.38 2.279-.189.38-.569.38-.949.38zm9.686-6.648c-.57 0-1.14-.19-1.33-.76-.569-.76-.38-1.709.38-2.279.76-.57 1.899-.38 2.279.38.57.76.38 1.709-.38 2.279-.19.38-.569.38-.949.38zm9.875-6.458c-.569 0-1.139-.19-1.329-.76-.57-.76-.38-1.71.38-2.279.759-.57 1.899-.38 2.279.38.57.759.38 1.709-.38 2.279-.38.19-.76.38-.95.38zm9.686-6.648c-.57 0-1.139-.19-1.329-.76-.57-.76-.38-1.71.38-2.279.759-.57 1.899-.38 2.279.38.569.76.379 1.709-.38 2.279-.38.38-.76.38-.95.38zm9.686-6.458c-.57 0-1.139-.19-1.329-.76-.57-.76-.38-1.71.379-2.279.76-.57 1.9-.38 2.279.38.57.76.38 1.71-.379 2.279-.38.19-.76.38-.95.38zm9.686-6.648c-.57 0-1.14-.19-1.33-.76-.569-.76-.379-1.71.38-2.279.76-.57 1.899-.38 2.279.38.57.76.38 1.71-.38 2.279-.379.19-.569.38-.949.38zm9.686-6.648c-.57 0-1.14-.19-1.33-.76-.57-.76-.38-1.71.38-2.279.76-.57 1.899-.38 2.279.38.57.76.38 1.71-.38 2.279-.38.38-.569.38-.949.38zm9.685-6.458c-.569 0-1.139-.19-1.329-.76-.57-.76-.38-1.71.38-2.279.76-.57 1.899-.38 2.279.38.38.76.38 1.709-.38 2.279-.19.19-.57.38-.95.38zm9.686-6.648c-.569 0-1.139-.19-1.329-.76-.57-.76-.38-1.71.38-2.279.759-.57 1.899-.38 2.279.38.569.76.38 1.71-.38 2.279-.19.38-.57.38-.95.38zM231.409 137.315c-.759 0-1.329-.38-1.519-1.139-.38-.95.19-1.9.95-2.09.949-.38 1.899.19 2.089.95.379.95-.19 1.709-.95 2.089-.19.19-.38.19-.57.19zm11.016-3.799c-.76 0-1.33-.38-1.52-1.139-.38-.95.19-1.9.95-2.09.949-.38 1.899.19 2.089.95.19.76-.19 1.709-.95 2.089-.19.19-.38.19-.569.19zm11.015-3.989c-.76 0-1.33-.379-1.52-1.139-.379-.95.19-1.9.95-2.09.95-.38 1.899.19 2.089.95.38.95-.19 1.71-.949 2.089-.19.19-.38.19-.57.19zm11.205-3.799c-.76 0-1.329-.379-1.519-1.139-.38-.95.19-1.9.949-2.09.95-.38 1.899.19 2.089.95.38.95-.19 1.71-.949 2.09-.19.189-.38.189-.57.189zm11.015-3.798c-.759 0-1.329-.38-1.519-1.14-.38-.95.19-1.9.949-2.09.95-.379 1.9.19 2.09.95.379.95-.19 1.71-.95 2.09-.19.19-.38.19-.57.19zm11.015-3.799c-.759 0-1.329-.38-1.519-1.14-.38-.95.19-1.9.95-2.09.949-.379 1.899.19 2.089.95.38.95-.19 1.71-.95 2.09-.19.19-.38.19-.57.19zM211.468 158.399c-.76 0-1.52-.569-1.709-1.519 0-.95.569-1.71 1.519-1.71.949 0 1.709.57 1.899 1.52 0 .95-.57 1.709-1.519 1.709h-.19zm11.585-1.139c-.76 0-1.52-.57-1.709-1.52 0-.95.569-1.709 1.519-1.709.949 0 1.709.569 1.899 1.519 0 .95-.57 1.71-1.519 1.71h-.19zm11.775-.95c-.76 0-1.52-.57-1.71-1.52 0-.949.57-1.709 1.52-1.709.949 0 1.709.57 1.899 1.519 0 .95-.57 1.71-1.519 1.71h-.19zm11.585-.95c-.76 0-1.52-.57-1.71-1.519 0-.95.57-1.71 1.52-1.71.949 0 1.709.57 1.899 1.52 0 .949-.57 1.709-1.519 1.709h-.19zm11.775-1.139c-.76 0-1.52-.57-1.71-1.52 0-.95.57-1.71 1.52-1.71.949 0 1.709.57 1.899 1.52 0 .95-.57 1.71-1.519 1.71h-.19zm11.585-.95c-.76 0-1.52-.57-1.71-1.52 0-.949.57-1.709 1.52-1.709.949 0 1.709.57 1.899 1.519 0 .95-.57 1.71-1.519 1.71h-.19zm11.775-1.14c-.76 0-1.52-.57-1.71-1.519 0-.95.57-1.71 1.52-1.71.949 0 1.709.57 1.899 1.52 0 .949-.57 1.709-1.52 1.709h-.189zm11.584-.95c-.759 0-1.519-.569-1.709-1.519 0-.95.57-1.71 1.52-1.71.949 0 1.709.57 1.899 1.52 0 .95-.57 1.709-1.52 1.709h-.19zm11.775-1.139c-.759 0-1.519-.57-1.709-1.52 0-.95.57-1.709 1.519-1.709.95 0 1.71.569 1.9 1.519 0 .95-.57 1.71-1.52 1.71h-.19zm11.585-.95c-.759 0-1.519-.57-1.709-1.52 0-.949.57-1.709 1.519-1.709.95 0 1.71.57 1.9 1.519 0 .95-.57 1.71-1.52 1.71h-.19zM318.582 189.741h-.38c-.95-.19-1.52-.95-1.33-1.9.19-.95.95-1.519 1.9-1.329.949.189 1.519.949 1.329 1.899 0 .76-.76 1.33-1.519 1.33zm-11.585-2.09h-.38c-.95-.19-1.52-.95-1.33-1.899.19-.95.95-1.52 1.9-1.33.949.19 1.519.95 1.329 1.9 0 .759-.76 1.329-1.519 1.329zm-11.395-2.089h-.19c-.95-.19-1.52-.95-1.33-1.9.19-.949.95-1.519 1.899-1.329.95.19 1.52.949 1.33 1.899-.38.76-.95 1.33-1.709 1.33zm-11.585-1.9h-.38c-.95-.19-1.52-.949-1.33-1.899.19-.95.95-1.52 1.899-1.33.95.19 1.52.95 1.33 1.9-.19.759-.76 1.329-1.519 1.329zm-11.585-2.089h-.38c-.95-.19-1.52-.95-1.33-1.9.19-.949.95-1.519 1.899-1.329.95.19 1.52.95 1.33 1.899 0 .76-.76 1.33-1.519 1.33zm-11.585-2.089h-.19c-.95-.19-1.52-.95-1.33-1.9.19-.95.95-1.52 1.899-1.33.95.19 1.52.95 1.33 1.9-.19.76-.95 1.33-1.709 1.33zm-11.585-1.9h-.38c-.95-.19-1.52-.95-1.33-1.899.19-.95.95-1.52 1.899-1.33.95.19 1.52.95 1.33 1.899 0 .76-.76 1.33-1.519 1.33zm-11.395-2.089h-.38c-.95-.19-1.52-.95-1.33-1.9.19-.95.95-1.519 1.899-1.329.95.189 1.52.949 1.33 1.899-.19.76-.76 1.33-1.519 1.33zM278.129 217.093c-.19 0-.38 0-.76-.19-.759-.38-1.139-1.33-.759-2.279.38-.76 1.329-1.14 2.279-.76.759.38 1.139 1.33.759 2.279-.189.57-.759.95-1.519.95zm-10.635-4.939c-.19 0-.38 0-.76-.19-.76-.379-1.139-1.329-.76-2.279.38-.76 1.33-1.14 2.279-.76.76.38 1.14 1.33.76 2.28-.19.57-.76.949-1.519.949zm-10.446-4.938c-.19 0-.38 0-.759-.19-.76-.38-1.14-1.33-.76-2.28.38-.949 1.329-1.139 2.279-.759.76.38 1.139 1.329.76 2.279-.38.57-.95.95-1.52.95zm-10.635-5.129c-.19 0-.38 0-.76-.19-.76-.38-1.139-1.329-.76-2.279.38-.95 1.33-1.14 2.279-.76.76.38 1.33 1.33.95 2.28-.57.569-1.139.949-1.709.949zm-10.636-4.938c-.19 0-.379 0-.759-.19-.76-.38-1.14-1.33-.76-2.28.38-.759 1.329-1.139 2.279-.759.76.379 1.14 1.329.76 2.279-.38.57-.95.95-1.52.95zm-10.635-4.939c-.19 0-.38 0-.76-.19-.759-.38-1.139-1.33-.759-2.279.379-.76 1.329-1.14 2.279-.76.759.38 1.139 1.33.759 2.279-.38.57-.949.95-1.519.95zM276.989 267.049c-.379 0-.759-.19-1.139-.38-.76-.57-.76-1.709-.19-2.279.57-.76 1.709-.76 2.279-.19.76.57.76 1.71.19 2.469-.38.19-.76.38-1.14.38zm-8.736-7.978c-.38 0-.759-.19-1.139-.379-.76-.57-.76-1.71-.19-2.28.57-.76 1.709-.76 2.279-.19.759.57.759 1.71.19 2.47-.19.189-.76.379-1.14.379zm-8.736-7.787c-.38 0-.76-.19-1.14-.38-.759-.57-.759-1.71-.189-2.28.569-.759 1.709-.759 2.279-.19.759.57.759 1.71.189 2.47-.189.19-.759.38-1.139.38zm-8.736-7.978c-.38 0-.76-.19-1.14-.38-.759-.57-.759-1.71-.19-2.279.57-.76 1.71-.76 2.279-.19.76.569.76 1.709.19 2.469-.19.19-.569.38-1.139.38zm-8.547-7.788c-.379 0-.759-.19-1.139-.38-.76-.57-.76-1.709-.19-2.279.57-.76 1.709-.76 2.279-.19.76.57.76 1.709.19 2.469-.38.19-.76.38-1.14.38zm-8.736-7.978c-.38 0-.759-.19-1.139-.38-.76-.57-.76-1.709-.19-2.279.57-.76 1.709-.76 2.279-.19.759.57.759 1.709.19 2.469-.19.19-.76.38-1.14.38zm-8.736-7.788c-.38 0-.76-.19-1.14-.38-.759-.569-.759-1.709-.189-2.279.569-.76 1.709-.76 2.279-.19.759.57.759 1.71.189 2.469-.189.19-.569.38-1.139.38zm-8.736-7.977c-.38 0-.76-.19-1.14-.38-.759-.57-.759-1.71-.19-2.28.57-.759 1.71-.759 2.279-.19.76.57.76 1.71.19 2.47-.19.19-.569.38-1.139.38zm-8.547-7.788c-.379 0-.759-.19-1.139-.38-.76-.57-.76-1.71-.19-2.28.57-.759 1.709-.759 2.279-.189.76.569.76 1.709.19 2.469-.38.19-.76.38-1.14.38zM235.967 287.753c-.569 0-1.139-.19-1.329-.759-.38-.76-.19-1.9.57-2.28.759-.38 1.899-.19 2.279.57.379.76.19 1.9-.57 2.279-.38 0-.76.19-.95.19zm-6.077-10.067c-.57 0-1.14-.19-1.33-.76-.379-.759-.189-1.899.57-2.279.76-.38 1.899-.19 2.279.57.38.76.19 1.899-.57 2.279l-.949.19zm-6.077-10.067c-.57 0-1.14-.19-1.33-.76-.57-.76-.19-1.899.57-2.279.76-.57 1.899-.19 2.279.57.57.759.19 1.899-.57 2.279-.19 0-.57.19-.949.19zm-5.888-10.067c-.57 0-1.139-.19-1.329-.76-.38-.76-.19-1.899.569-2.279.76-.38 1.9-.19 2.279.569.38.76.19 1.9-.569 2.28-.38 0-.76.19-.95.19zm-6.077-10.067c-.57 0-1.14-.19-1.33-.76-.38-.76-.19-1.9.57-2.28.76-.379 1.899-.19 2.279.57.38.76.19 1.9-.57 2.28l-.949.19zm-6.078-10.068c-.569 0-1.139-.19-1.329-.759-.57-.76-.19-1.9.57-2.28.759-.57 1.899-.19 2.279.57.379.76.19 1.9-.57 2.279-.19 0-.57.19-.95.19zm-5.887-10.067c-.57 0-1.14-.19-1.33-.76-.379-.759-.189-1.899.57-2.279.76-.38 1.899-.19 2.279.57.38.76.19 1.899-.57 2.279-.379 0-.759.19-.949.19zM194.755 311.687c-.76 0-1.329-.57-1.519-1.14-.19-.95.38-1.709 1.139-2.089.95-.19 1.71.38 2.089 1.139.19.95-.379 1.9-1.139 2.09-.19-.19-.38 0-.57 0zm-2.659-11.587c-.759 0-1.329-.57-1.519-1.33-.19-.949.38-1.709 1.329-1.899.95-.19 1.71.38 1.9 1.33.189.949-.38 1.899-1.33 2.089-.19-.19-.19-.19-.38-.19zm-2.659-11.397c-.759 0-1.329-.57-1.519-1.14-.19-.949.38-1.709 1.14-2.089.949-.19 1.709.38 2.089 1.14.19.949-.38 1.899-1.14 2.089h-.57zm-2.848-11.397c-.76 0-1.33-.57-1.52-1.139-.19-.95.38-1.71 1.14-2.09.949-.19 1.709.38 2.089 1.14.19.95-.38 1.899-1.14 2.089h-.569zm-2.659-11.396c-.76 0-1.33-.57-1.52-1.14-.189-.95.38-1.71 1.14-2.09.95-.19 1.709.38 2.089 1.14.19.95-.38 1.9-1.139 2.09h-.57zm-2.659-11.397c-.76 0-1.329-.57-1.519-1.33-.19-.95.379-1.71 1.329-1.899.95-.19 1.709.379 1.899 1.329.19.95-.38 1.9-1.329 2.09-.19-.19-.19-.19-.38-.19zm-2.659-11.397c-.76 0-1.329-.38-1.519-1.14-.19-.95.38-1.709 1.139-2.089.95-.19 1.71.38 2.089 1.139.19.95-.379 1.9-1.139 2.09h-.57zm-2.849-11.397c-.759 0-1.329-.57-1.519-1.14-.19-.949.38-1.709 1.14-2.089.949-.19 1.709.38 2.089 1.14.19.949-.38 1.899-1.14 2.089h-.57zm-2.659-11.397c-.759 0-1.329-.38-1.519-1.139-.19-.95.38-1.71 1.14-2.09.949-.19 1.709.38 2.089 1.14.19.95-.38 1.899-1.14 2.089h-.57zM148.225 301.999c-1.139 0-1.709-.949-1.709-1.899 0-.95.949-1.71 1.899-1.52.95 0 1.519.76 1.519 1.71-.19.95-.949 1.709-1.709 1.709zm.95-11.776c-1.14 0-1.71-.95-1.71-1.9s.95-1.709 1.9-1.519c.949 0 1.519.759 1.519 1.709-.19 1.14-.76 1.71-1.709 1.71zm1.139-11.587c-1.139 0-1.709-.95-1.709-1.9 0-.949.95-1.709 1.899-1.519.95 0 1.519.76 1.519 1.709-.189.95-.949 1.71-1.709 1.71zm.95-11.777c-1.14-.19-1.709-.95-1.709-1.899 0-.95.949-1.71 1.899-1.52.949 0 1.519.95 1.519 1.71-.19 1.139-.95 1.709-1.709 1.709zm1.139-11.587c-1.139 0-1.709-.949-1.709-1.899 0-.95.95-1.71 1.899-1.52.95 0 1.52.76 1.52 1.71-.19.95-.95 1.709-1.71 1.709zm.95-11.776c-1.14 0-1.709-.95-1.709-1.9s.949-1.709 1.899-1.519c.949 0 1.519.759 1.519 1.709-.19 1.14-.759 1.71-1.709 1.71zM96.947 314.726c-.19 0-.38 0-.57-.19-.76-.38-1.329-1.33-.95-2.089.38-.76 1.329-1.33 2.279-.95.76.38 1.33 1.329.95 2.089-.38.76-1.139 1.14-1.709 1.14zm4.558-10.827c-.19 0-.379 0-.569-.19-.76-.38-1.33-1.33-.95-2.089.38-.76 1.329-1.33 2.279-.95.76.38 1.33 1.329.95 2.089-.57.76-1.14 1.14-1.71 1.14zm4.558-10.827c-.189 0-.379 0-.569-.19-.76-.38-1.33-1.33-.95-2.089.38-.76 1.33-1.33 2.279-.95.76.38 1.33 1.329.95 2.089-.57.76-1.14 1.14-1.71 1.14zm4.369-10.827c-.19 0-.38 0-.57-.19-.76-.38-1.33-1.33-.95-2.089.38-.76 1.33-1.33 2.279-.95.76.38 1.33 1.329.95 2.089-.38.76-.95 1.14-1.709 1.14zm4.558-10.827c-.19 0-.38 0-.57-.19-.76-.38-1.33-1.33-.95-2.089.38-.76 1.33-1.33 2.279-.95.76.38 1.33 1.329.95 2.089-.38.76-.95 1.14-1.709 1.14zm4.558-10.827c-.19 0-.38 0-.57-.19-.76-.38-1.33-1.33-.95-2.089.38-.76 1.33-1.33 2.279-.95.95.38 1.33 1.329.95 2.089-.38.76-1.14 1.14-1.709 1.14zm4.558-10.827c-.19 0-.38 0-.57-.19-.76-.38-1.33-1.33-.95-2.089.38-.76 1.33-1.33 2.279-.95.76.38 1.33 1.329.95 2.089-.57.76-1.14 1.14-1.709 1.14zm4.558-10.827c-.19 0-.38 0-.57-.19-.76-.38-1.33-1.33-.95-2.089.38-.76 1.33-1.33 2.279-.95.76.38 1.33 1.33.95 2.089-.57.76-1.14 1.14-1.709 1.14zm4.368-10.827c-.19 0-.38 0-.57-.19-.76-.38-1.329-1.33-.95-2.089.38-.76 1.33-1.33 2.279-.95.76.38 1.33 1.33.95 2.089-.38.76-.95 1.14-1.709 1.14zm4.558-10.827c-.19 0-.38 0-.57-.19-.76-.38-1.329-1.33-.95-2.089.38-.76 1.33-1.33 2.279-.95.76.38 1.33 1.33.95 2.089-.38.76-.95 1.14-1.709 1.14zM72.638 269.898c-.38 0-.76-.19-.95-.38-.76-.569-.76-1.709-.19-2.279.57-.76 1.709-.95 2.279-.38.76.57.95 1.52.38 2.28-.57.379-.95.759-1.519.759zm7.407-9.117c-.38 0-.76-.19-1.139-.38-.76-.57-.76-1.71-.19-2.279.57-.76 1.709-.95 2.279-.19.76.569.76 1.519.19 2.279-.19.38-.57.57-1.139.57zm7.407-9.118c-.38 0-.76-.19-1.139-.38-.76-.569-.76-1.709-.19-2.279.57-.76 1.709-.76 2.279-.19.76.57.76 1.52.19 2.28-.19.379-.57.569-1.139.569zm7.407-9.117c-.38 0-.76-.19-1.139-.38-.76-.57-.76-1.71-.19-2.279.57-.76 1.709-.76 2.279-.19.76.57.76 1.519.19 2.279-.19.38-.57.57-1.14.57zm7.407-9.118c-.38 0-.76-.189-.95-.379-.759-.57-.759-1.71-.19-2.28.57-.76 1.71-.95 2.279-.38.76.57.95 1.52.38 2.28-.57.57-.949.759-1.519.759zm7.407-9.117c-.38 0-.76-.19-1.14-.38-.759-.57-.76-1.709-.19-2.279.57-.76 1.71-.76 2.279-.19.76.57.76 1.519.19 2.279-.19.38-.57.57-1.139.57zM28.957 251.094c-.57 0-1.14-.19-1.329-.76-.57-.76-.38-1.71.38-2.28.76-.569 1.899-.379 2.279.38.57.76.38 1.71-.38 2.28-.38.19-.57.38-.95.38zm9.686-6.649c-.57 0-1.14-.189-1.329-.759-.57-.76-.38-1.71.38-2.28.76-.57 1.899-.38 2.279.38.57.76.38 1.71-.38 2.28-.38.19-.57.379-.95.379zm9.686-6.648c-.57 0-1.14-.19-1.329-.759-.57-.76-.38-1.71.38-2.28.76-.57 1.899-.38 2.279.38.57.76.38 1.71-.38 2.279-.19.38-.57.38-.95.38zm9.686-6.458c-.57 0-1.14-.19-1.329-.76-.57-.759-.38-1.709.38-2.279.76-.57 1.899-.38 2.279.38.57.76.38 1.709-.38 2.279-.19.19-.57.38-.95.38zm9.876-6.648c-.57 0-1.139-.19-1.329-.76-.57-.76-.38-1.709.38-2.279.76-.57 1.899-.38 2.279.38.38.76.38 1.709-.38 2.279-.38.38-.76.38-.95.38zm9.686-6.648c-.57 0-1.139-.19-1.329-.76-.57-.76-.38-1.709.38-2.279.76-.57 1.899-.38 2.279.38.57.759.38 1.709-.38 2.279-.38.38-.76.38-.95.38zm9.686-6.458c-.57 0-1.139-.19-1.329-.76-.57-.76-.38-1.71.38-2.28.76-.569 1.899-.379 2.279.38.38.76.38 1.71-.38 2.28-.38.19-.76.38-.95.38zm9.686-6.649c-.57 0-1.139-.189-1.329-.759-.57-.76-.38-1.71.38-2.28.76-.57 1.899-.38 2.279.38.57.76.38 1.71-.38 2.28-.38.379-.57.379-.95.379zm9.686-6.458c-.57 0-1.139-.19-1.329-.76-.57-.759-.38-1.709.379-2.279.76-.57 1.9-.38 2.279.38.57.76.38 1.71-.379 2.279-.38.19-.57.38-.95.38zM1.988 174.735c-.95 0-1.709-.57-1.709-1.52 0-.949.57-1.709 1.519-1.709.95 0 1.709.57 1.709 1.519.19.95-.57 1.71-1.519 1.71zm11.585-.95c-.95 0-1.709-.57-1.709-1.519 0-.95.57-1.71 1.519-1.71h.19c.95 0 1.709.57 1.709 1.52.19.949-.57 1.709-1.709 1.709zm11.775-.76c-.95 0-1.709-.57-1.709-1.519 0-.95.57-1.71 1.519-1.71.95 0 1.709.57 1.709 1.52.19.76-.57 1.519-1.519 1.709zm11.775-.949c-.95 0-1.709-.57-1.709-1.52 0-.95.57-1.71 1.519-1.71.95 0 1.709.57 1.709 1.52.19.76-.57 1.52-1.519 1.71zm11.585-.95c-.95 0-1.709-.57-1.709-1.52 0-.949.57-1.709 1.519-1.709.95 0 1.709.57 1.709 1.519.19.76-.38 1.71-1.519 1.71zm11.775-.95c-.95 0-1.709-.57-1.709-1.519 0-.95.57-1.71 1.519-1.71.95 0 1.709.57 1.709 1.52.19.759-.57 1.709-1.519 1.709zm11.585-.95c-.95 0-1.709-.569-1.709-1.519s.57-1.71 1.519-1.71c.95 0 1.709.57 1.709 1.52.19.95-.38 1.709-1.519 1.709zm11.775-.949c-.95 0-1.709-.57-1.709-1.52 0-.95.57-1.709 1.519-1.709.95 0 1.709.569 1.709 1.519.19.95-.57 1.71-1.519 1.71zm11.585-.76c-.95 0-1.709-.57-1.709-1.52 0-.949.57-1.709 1.519-1.709.95 0 1.709.57 1.709 1.519.19.76-.38 1.52-1.519 1.71zm11.775-.95c-.95 0-1.709-.57-1.709-1.519 0-.95.569-1.71 1.519-1.71s1.709.57 1.709 1.52c.19.759-.57 1.519-1.519 1.709zM35.794 205.126c-.76 0-1.329-.379-1.519-1.139-.38-.95.19-1.9.95-2.09.95-.38 1.899.19 2.089.95.38.95-.19 1.71-.95 2.089-.19.19-.38.19-.57.19zm11.015-3.799c-.76 0-1.33-.379-1.519-1.139-.38-.95.19-1.9.95-2.09.95-.38 1.899.19 2.089.95.38.95-.19 1.71-.95 2.09-.19.189-.38.189-.57.189zm11.205-3.798c-.76 0-1.329-.38-1.519-1.14-.38-.95.19-1.9.95-2.09.95-.379 1.899.19 2.089.95.38.95-.19 1.71-.95 2.09l-.57.19zm11.015-3.989c-.76 0-1.329-.38-1.519-1.14-.38-.95.19-1.9.95-2.089.95-.38 1.899.189 2.089.949.38.95-.19 1.71-.95 2.09-.19.19-.38.19-.57.19zm11.015-3.799c-.76 0-1.329-.38-1.519-1.14-.38-.95.19-1.899.95-2.089.95-.38 1.899.19 2.089.949.38.95-.19 1.71-.95 2.09-.19.19-.38.19-.57.19zm11.205-3.799c-.76 0-1.329-.38-1.519-1.14-.38-.95.19-1.899.95-2.089.95-.38 1.899.19 2.089.949.38.95-.19 1.71-.95 2.09-.19.19-.38.19-.57.19z" fill="#EF4223"/><defs><radialGradient id="a" cx="0" cy="0" r="1" gradientUnits="userSpaceOnUse" gradientTransform="translate(162.107 164.549) scale(87.537 87.55)"><stop offset=".511" stop-color="#fff"/><stop offset="1" stop-color="#FFFDE4"/></radialGradient></defs></svg>