<svg width="238" height="231" viewBox="0 0 238 231" fill="none" xmlns="http://www.w3.org/2000/svg">
<circle cx="123" cy="115.501" r="115" fill="#F0F0F4"/>
<g clip-path="url(#clip0)">
<path d="M30.1465 190.746H169.854C184.35 190.746 196.554 179.495 197.052 165.128C197.064 164.772 197.07 164.416 197.07 164.058C197.07 147.139 183.239 133.423 166.178 133.423C166.166 133.423 166.155 133.424 166.143 133.424C166.163 132.971 166.178 132.518 166.178 132.061C166.178 115.141 152.346 101.425 135.285 101.425C131.247 101.425 127.39 102.194 123.855 103.592C122.013 104.32 119.917 103.613 118.939 101.89C111.237 88.328 96.893 78.9705 80.2812 78.1631C53.6789 76.8698 31.0617 98.0713 30.9172 124.483C30.9074 126.242 30.9973 127.979 31.1801 129.687C31.3984 131.728 30.0141 133.593 27.998 133.975C13.7219 136.676 2.92969 149.114 2.92969 164.058C2.92969 164.416 2.93594 164.772 2.94805 165.127C3.4457 179.495 15.6496 190.746 30.1465 190.746Z" fill="white"/>
<path d="M166.178 133.422C166.166 133.422 166.155 133.424 166.143 133.424C166.163 132.971 166.178 132.518 166.178 132.061C166.178 115.141 152.346 101.425 135.285 101.425C131.247 101.425 127.39 102.194 123.855 103.592C122.013 104.32 119.917 103.613 118.939 101.89C111.237 88.328 96.8929 78.9705 80.2812 78.1631C67.2753 77.5307 55.2242 82.2772 46.2839 90.3787C53.0261 87.2116 60.6164 85.5893 68.5625 85.9756C85.1742 86.783 99.5183 96.1405 107.22 109.703C108.198 111.425 110.294 112.132 112.136 111.404C115.672 110.007 119.528 109.238 123.566 109.238C140.628 109.238 154.459 122.954 154.459 139.873C154.459 140.33 154.444 140.784 154.424 141.236C154.436 141.236 154.447 141.235 154.459 141.235C171.52 141.235 185.352 154.951 185.352 171.871C185.352 172.228 185.345 172.585 185.333 172.94C185.117 179.195 182.68 184.858 178.803 189.26C189.062 185.754 196.662 176.402 197.052 165.127C197.064 164.772 197.07 164.416 197.07 164.058C197.07 147.138 183.239 133.422 166.178 133.422Z" fill="#2CCCD4"/>
<path d="M162.448 175.425H74.5854C71.4026 175.425 68.8221 172.845 68.8221 169.662V103.265C68.8221 100.082 71.4026 97.5015 74.5854 97.5015H162.448C165.63 97.5015 168.211 100.082 168.211 103.265V169.662C168.211 172.845 165.63 175.425 162.448 175.425Z" fill="#FFE07D"/>
<path d="M163.672 97.5015H154.444C156.951 97.5015 158.983 100.082 158.983 103.265V169.662C158.983 172.844 156.951 175.425 154.444 175.425H163.672C166.178 175.425 168.21 172.844 168.21 169.662V103.265C168.21 100.082 166.178 97.5015 163.672 97.5015Z" fill="#F7931E"/>
<path d="M174.393 178.199C174.679 177.173 174.834 176.093 174.834 174.977C174.834 168.356 169.467 162.989 162.847 162.989C159.403 162.989 156.301 164.443 154.114 166.768C151.29 159.006 143.847 153.463 135.109 153.463C125.968 153.463 118.247 159.53 115.746 167.857C113.344 161.043 106.853 156.157 99.2169 156.157C91.4431 156.157 84.8556 161.221 82.5622 168.229C80.4013 166.116 77.4462 164.813 74.1853 164.813C67.5646 164.813 62.1978 170.18 62.1978 176.8C62.1978 177.274 62.2282 177.74 62.2817 178.199H174.393Z" fill="white"/>
<path d="M135.193 83.7223C136.811 83.7223 138.122 82.4106 138.122 80.7926V69.2754C138.122 67.6574 136.811 66.3457 135.193 66.3457C133.575 66.3457 132.263 67.6574 132.263 69.2754V80.7926C132.263 82.4106 133.575 83.7223 135.193 83.7223Z" fill="#F0F0F4"/>
<path d="M162.249 83.7223C163.867 83.7223 165.179 82.4106 165.179 80.7926V69.2754C165.179 67.6574 163.867 66.3457 162.249 66.3457C160.631 66.3457 159.32 67.6574 159.32 69.2754V80.7926C159.32 82.4106 160.631 83.7223 162.249 83.7223Z" fill="#F0F0F4"/>
<path d="M148.721 83.7224C150.339 83.7224 151.651 82.4106 151.651 80.7927V44.2563C151.651 42.6384 150.339 41.3267 148.721 41.3267C147.103 41.3267 145.792 42.6384 145.792 44.2563V80.7927C145.792 82.4106 147.103 83.7224 148.721 83.7224Z" fill="#F0F0F4"/>
<path d="M118.333 131.946L73.3334 97.5015H163.333L118.333 131.946Z" fill="#F7931E"/>
</g>
<defs>
<clipPath id="clip0">
<rect width="200" height="200" fill="white" transform="translate(0 17.5015)"/>
</clipPath>
</defs>
</svg>
