<svg width="305" height="255" viewBox="0 0 305 255" xmlns="http://www.w3.org/2000/svg" fill="none"><circle cx="187" cy="155" r="100" fill="#F7931E"/><circle cx="100" cy="100" r="100" fill="#EF4323"/><path fill-rule="evenodd" clip-rule="evenodd" d="M100 200c55.228 0 100-44.772 100-100 0-16.175-3.84-31.454-10.659-44.973-.778-.018-1.559-.027-2.341-.027-55.228 0-100 44.772-100 100 0 16.175 3.841 31.454 10.659 44.973.778.018 1.558.027 2.341.027z" fill="#E5291B"/><path d="M110.84 148.014c9.771 17.215 31.611 23.211 48.662 13.153 17.051-9.864 22.99-31.914 13.028-49.128-9.771-17.215-31.611-23.211-48.662-13.153-17.051 9.865-22.991 31.914-13.028 49.128zm56.709-33.074c8.238 14.313 3.257 32.881-10.92 41.198-14.178 8.317-32.57 3.288-40.808-11.025s-3.257-32.881 10.92-41.198c14.178-8.317 32.57-3.288 40.808 11.025zM145 129.055h4.786c1.407.032 2.075 1.838 1.095 2.685l-8.759 8.604-8.635-8.647c-1.038-.918-.299-2.693 1.108-2.662l4.407.045v-17.986c0-1.709 1.386-3.094 3.095-3.094 1.709 0 2.903 1.382 2.903 3.091v17.964z" fill="#fff"/><path fill-rule="evenodd" clip-rule="evenodd" d="M127.5 136c1.657 0 3 1.343 3 3v5h23v-5c0-1.657 1.343-3 3-3s3 1.343 3 3v5c0 3.314-2.686 6-6 6h-23c-3.314 0-6-2.686-6-6v-5c0-1.657 1.343-3 3-3z" fill="#fff"/><path d="M24.949 115.207c.571-.571 1.712-.571 2.283 0 .571.57.571 1.711 0 2.471-.38.19-.761.38-1.142.38-.38 0-.761-.19-1.141-.57-.761-.57-.761-1.521 0-2.281zM41.691 100.758c-.571-.571-.571-1.711 0-2.282.571-.57 1.712-.57 2.283 0s.571 1.711 0 2.472c-.38.38-.761.57-1.142.57-.38-.19-.761-.38-1.142-.76zM58.433 84.028c-.571-.57-.571-1.711 0-2.281.571-.57 1.712-.57 2.283 0s.571 1.711 0 2.472c-.38.38-.761.57-1.142.57-.38 0-.761-.38-1.142-.76zM50.062 92.392c-.571-.57-.571-1.711 0-2.281.571-.57 1.712-.57 2.283 0s.571 1.711 0 2.472c-.381.38-.761.38-1.142.38-.38 0-.761-.19-1.142-.57zM33.32 109.123c-.571-.571-.571-1.711 0-2.282.571-.57 1.712-.57 2.283 0 .571.571.571 1.711 0 2.472-.38.38-.761.57-1.142.57-.571-.19-.951-.38-1.142-.76zM16.388 123.572c.571-.571 1.712-.571 2.283 0 .571.57.571 1.711 0 2.471-.381.381-.761.571-1.142.571-.38 0-.761-.19-1.142-.571-.571-.76-.571-1.711 0-2.471zM26.662 81.556c.761-.76 1.712-.76 2.473 0 .571.57.571 1.711 0 2.472-.38.38-.761.57-1.141.57-.381 0-.761-.19-1.142-.57-.761-.761-.761-1.711-.19-2.472zM17.91 92.773c-.571-.57-.571-1.711 0-2.281.571-.57 1.712-.57 2.283 0s.571 1.711 0 2.472c-.381.38-.761.57-1.142.57-.381 0-.761-.38-1.142-.761zM9.349 99.047c.571-.57 1.712-.57 2.283 0s.571 1.711 0 2.471c-.381.38-.761.571-1.142.571-.38 0-.761-.191-1.142-.571-.761-.76-.761-1.711 0-2.471zM.597 107.792c.571-.57 1.712-.57 2.283 0s.571 1.711 0 2.472c-.381.19-.761.38-1.142.38-.381 0-.951-.19-1.332-.38-.571-.761-.571-1.712.19-2.472zM57.102 114.826c.571-.57 1.712-.57 2.283 0 .571.571.571 1.711 0 2.472-.381.38-.761.57-1.142.57-.381 0-.761-.19-1.142-.57-.761-.761-.761-1.711 0-2.472zM65.473 106.461c.571-.57 1.712-.57 2.283 0 .571.571.571 1.711 0 2.472-.38.38-.761.57-1.142.57-.38 0-.761-.19-1.141-.57-.761-.761-.761-1.711 0-2.472zM48.73 123.192c.571-.571 1.712-.571 2.283 0 .571.57.571 1.711 0 2.471-.38.38-.761.571-1.142.571-.38 0-.761-.191-1.141-.571-.571-.76-.761-1.901 0-2.471zM90.395 81.556c.571-.57 1.712-.57 2.283 0s.571 1.711 0 2.472c-.38.38-.761.57-1.141.57-.381 0-.761-.19-1.142-.57-.761-.761-.761-1.711 0-2.472zM73.653 98.096c.571-.57 1.712-.57 2.283 0s.571 1.711 0 2.471c-.38.381-.761.381-1.142.381-.38 0-.951-.19-1.141-.571-.761-.38-.571-1.521 0-2.281zM32.179 139.732c.571-.571 1.712-.571 2.283 0 .571.57.571 1.711 0 2.471-.38.38-.761.38-1.142.38-.38 0-.951-.19-1.142-.57-.761-.57-.761-1.711 0-2.281zM40.55 131.366c.571-.57 1.712-.57 2.283 0 .571.571.571 1.712 0 2.472-.38.38-.761.57-1.142.57-.38 0-.761-.19-1.142-.57-.761-.76-.761-1.711 0-2.472zM82.024 89.921c.571-.57 1.712-.57 2.283 0s.571 1.711 0 2.472c-.38.38-.761.57-1.142.57-.38 0-.761-.19-1.141-.57-.761-.761-.761-1.711 0-2.472zM50.062 75.662c-.761-.76-.761-1.711-.19-2.471.381-.38.761-.57 1.142-.57.381 0 .761.19 1.142.38.571.57.761 1.711 0 2.472-.38.76-1.332.76-2.093.19zM26.091 47.525c.381 0 .951.19 1.142.57.571.57.761 1.711 0 2.471-.571.57-1.712.76-2.283 0-.571-.57-.571-1.711 0-2.281.19-.57.571-.761 1.141-.761zM17.529 39.16c.381 0 .951.19 1.142.57.571.57.761 1.711 0 2.471-.571.57-1.712.76-2.283 0-.571-.57-.571-1.711 0-2.281.381-.57.761-.761 1.142-.761zM41.691 67.107c-.761-.76-.761-1.711 0-2.472.38-.38.761-.57 1.142-.57.38 0 .951.19 1.142.57.571.57.761 1.711 0 2.472-.571.761-1.712.761-2.283 0zM33.32 58.742c-.761-.761-.761-1.711 0-2.471.38-.38.761-.57 1.141-.57.381 0 .761.19 1.142.57.571.57.761 1.711 0 2.471-.571.761-1.712.761-2.283 0zM10.49 63.685c.38 0 .761.19 1.142.57.571.57.761 1.711 0 2.471-.571.57-1.712.76-2.283 0-.571-.57-.571-1.711 0-2.281.19-.57.571-.761 1.141-.761zM.597 57.791c-.761-.761-.761-1.711 0-2.472.381-.38.761-.57 1.142-.57.381 0 .761.19 1.141.57.571.57.761 1.711 0 2.472-.571.57-1.712.57-2.283 0zM18.1 75.282c-.761-.76-.761-1.711 0-2.472.38-.38.761-.57 1.142-.57.381 0 .761.19 1.142.57.571.57.761 1.711 0 2.472-.571.57-1.712.57-2.283 0zM33.32 23c.38 0 .761.19 1.142.38.571.57.761 1.711 0 2.472-.571.57-1.712.761-2.283 0-.571-.57-.761-1.711 0-2.281.19-.38.761-.57 1.142-.57zM49.872 39.54c.38 0 .951.19 1.141.57.571.57.761 1.711 0 2.471-.571.57-1.712.761-2.283 0-.571-.57-.571-1.711 0-2.281.38-.57.761-.761 1.142-.761zM41.501 31.365c.381 0 .761.19 1.142.57.571.57.761 1.711 0 2.472-.571.57-1.712.76-2.283 0-.571-.57-.571-1.711 0-2.281.381-.57.761-.761 1.142-.761zM58.243 47.905c.38 0 .951.19 1.142.57.571.57.761 1.711 0 2.471-.571.57-1.712.761-2.283 0-.571-.57-.571-1.711 0-2.281.19-.57.761-.76 1.142-.76zM66.424 56.27c.38 0 .761.19 1.141.57.571.57.761 1.711 0 2.471-.571.57-1.712.76-2.283 0-.571-.57-.571-1.711 0-2.281.38-.57.761-.761 1.141-.761zM83.166 72.811c.38 0 .951.19 1.141.57.571.57.761 1.711 0 2.472-.571.57-1.712.76-2.283 0-.571-.57-.571-1.711 0-2.281.19-.57.761-.76 1.142-.76zM74.795 64.446c.38 0 .761.19 1.142.38.571.57.761 1.711 0 2.472-.571.57-1.712.76-2.283 0-.571-.57-.761-1.711 0-2.281.38-.38.761-.57 1.141-.57zM255.157 223.207c-.57-.571-1.712-.571-2.283 0-.57.57-.57 1.711 0 2.471.381.38.761.57 1.142.57.38 0 .761-.19 1.141-.57.761-.76.761-1.711 0-2.471zM238.415 208.758c.571-.571.571-1.711 0-2.282-.571-.57-1.712-.57-2.283 0-.571.571-.571 1.711 0 2.472.381.38.761.57 1.142.57.38-.19.761-.38 1.141-.76zM221.673 192.028c.571-.571.571-1.712 0-2.282-.571-.57-1.712-.57-2.283 0s-.571 1.711 0 2.472c.381.38.761.57 1.142.57.38 0 .761-.57 1.141-.76zM230.044 200.393c.571-.571.571-1.712 0-2.282-.571-.57-1.712-.57-2.283 0s-.571 1.711 0 2.472c.381.38.761.38 1.142.38.38 0 .761-.19 1.141-.57zM246.786 217.123c.571-.571.571-1.711 0-2.282-.57-.57-1.712-.57-2.283 0-.57.571-.57 1.711 0 2.472.381.38.761.57 1.142.57.38-.19.951-.38 1.141-.76zM263.528 231.572c-.57-.571-1.712-.571-2.283 0-.57.57-.57 1.711 0 2.471.381.381.761.571 1.142.571.38 0 .761-.19 1.141-.571.761-.76.761-1.711 0-2.471zM253.255 189.556c-.761-.761-1.712-.761-2.473 0-.571.57-.571 1.711 0 2.471.38.381.761.571 1.141.571.381 0 .761-.19 1.142-.571.951-.76.951-1.711.19-2.471zM262.006 200.773c.571-.571.571-1.711 0-2.282-.57-.57-1.712-.57-2.283 0-.57.571-.57 1.711 0 2.472.381.38.761.57 1.142.57.38 0 .951-.57 1.141-.76zM270.758 207.047c-.571-.571-1.712-.571-2.283 0-.571.57-.571 1.711 0 2.471.38.38.761.571 1.141.571.381 0 .761-.191 1.142-.571.761-.76.761-1.711 0-2.471zM279.509 215.792c-.57-.57-1.712-.57-2.283 0-.57.57-.57 1.711 0 2.472.381.38.761.57 1.142.57.38 0 .761-.19 1.141-.57.761-.761.761-1.712 0-2.472zM223.005 222.826c-.571-.57-1.712-.57-2.283 0-.571.571-.571 1.711 0 2.472.381.38.761.57 1.142.57.38 0 .761-.19 1.141-.57.761-.761.761-1.711 0-2.472zM214.634 214.461c-.571-.57-1.712-.57-2.283 0-.571.571-.571 1.711 0 2.472.38.38.761.57 1.141.57.381 0 .761-.19 1.142-.57.761-.761.761-1.711 0-2.472zM231.376 231.001c-.571-.57-1.712-.57-2.283 0-.571.571-.571 1.711 0 2.472.38.38.761.57 1.141.57.381 0 .761-.19 1.142-.57.571-.571.571-1.711 0-2.472zM189.711 189.556c-.571-.57-1.712-.57-2.283 0s-.571 1.711 0 2.471c.381.381.761.571 1.142.571.38 0 .761-.19 1.141-.571.761-.76.761-1.711 0-2.471zM206.263 206.096c-.571-.57-1.712-.57-2.283 0s-.571 1.711 0 2.471c.38.381.761.381 1.141.381.381 0 .952-.19 1.142-.571.761-.38.761-1.521 0-2.281zM247.928 247.732c-.571-.571-1.712-.571-2.283 0-.571.57-.571 1.711 0 2.471.38.38.761.38 1.141.38.381 0 .952-.19 1.142-.57.761-.57.761-1.711 0-2.281zM239.557 239.366c-.571-.57-1.712-.57-2.283 0-.571.571-.571 1.712 0 2.472.38.38.761.57 1.141.57.381 0 .761-.19 1.142-.57.761-.76.761-1.711 0-2.472zM198.082 197.921c-.571-.57-1.712-.57-2.283 0-.571.571-.571 1.711 0 2.472.381.38.761.57 1.142.57.38 0 .761-.19 1.141-.57.761-.761.761-1.711 0-2.472zM229.854 183.662c.761-.76.761-1.711.19-2.471-.38-.38-.761-.57-1.141-.57-.381 0-.761.19-1.142.38-.571.57-.761 1.711 0 2.471.571.761 1.522.761 2.093.19zM254.016 155.525c-.38 0-.951.19-1.142.57-.57.571-.761 1.711 0 2.472.571.57 1.713.76 2.283 0 .571-.571.571-1.711 0-2.282-.19-.57-.76-.76-1.141-.76zM262.387 147.16c-.381 0-.952.19-1.142.57-.571.571-.761 1.711 0 2.472.571.57 1.712.76 2.283 0 .571-.571.571-1.711 0-2.282-.19-.76-.571-.76-1.141-.76zM238.415 175.107c.761-.76.761-1.711 0-2.471-.38-.381-.761-.571-1.141-.571-.381 0-.951.19-1.142.571-.57.57-.761 1.711 0 2.471.571.761 1.522.761 2.283 0zM246.786 166.742c.761-.761.761-1.711 0-2.472-.38-.38-.761-.57-1.141-.57-.381 0-.761.19-1.142.57-.57.571-.761 1.711 0 2.472.571.57 1.522.76 2.283 0zM269.616 171.685c-.38 0-.761.19-1.141.57-.571.571-.761 1.711 0 2.472.57.57 1.712.76 2.283 0 .57-.571.57-1.711 0-2.282-.191-.76-.761-.76-1.142-.76zM279.51 165.791c.761-.76.761-1.711 0-2.471-.381-.38-.761-.57-1.142-.57-.38 0-.761.19-1.141.57-.571.57-.761 1.711 0 2.471.57.571 1.712.571 2.283 0zM262.006 183.282c.761-.76.761-1.711 0-2.471-.38-.381-.761-.571-1.141-.571-.381 0-.761.19-1.142.571-.571.57-.761 1.711 0 2.471.571.57 1.712.57 2.283 0zM246.786 131c-.38 0-.761.19-1.141.38-.571.571-.761 1.711 0 2.472.57.57 1.712.76 2.282 0 .571-.571.761-1.711 0-2.282-.19-.38-.76-.57-1.141-.57zM230.234 147.54c-.38 0-.951.19-1.141.57-.571.571-.761 1.711 0 2.472.571.57 1.712.76 2.283 0 .571-.57.571-1.711 0-2.282-.381-.57-.761-.76-1.142-.76zM238.415 139.365c-.38 0-.761.19-1.141.57-.571.571-.761 1.711 0 2.472.571.57 1.712.76 2.283 0 .571-.57.571-1.711 0-2.282-.19-.76-.571-.76-1.142-.76zM221.863 155.905c-.38 0-.951.19-1.141.571-.571.57-.761 1.711 0 2.471.571.571 1.712.761 2.283 0 .571-.57.571-1.711 0-2.281-.381-.571-.761-.761-1.142-.761zM213.492 164.271c-.38 0-.761.19-1.141.57-.571.57-.761 1.711 0 2.471.571.571 1.712.761 2.283 0 .571-.57.571-1.711 0-2.281-.19-.76-.571-.76-1.142-.76zM196.941 180.811c-.381 0-.952.19-1.142.57-.571.57-.761 1.711 0 2.471.571.571 1.712.761 2.283 0 .571-.57.571-1.711 0-2.281-.38-.57-.761-.76-1.141-.76zM205.312 172.446c-.381 0-.761.19-1.142.38-.571.57-.761 1.711 0 2.471.571.571 1.712.761 2.283 0 .571-.57.761-1.711 0-2.281-.38-.38-.761-.57-1.141-.57z" fill="#fff"/></svg>