<svg width="101" height="100" viewBox="0 0 101 100" xmlns="http://www.w3.org/2000/svg" fill="none"><g clip-path="url(#a)"><path d="M.5 21.429v74.107c0 2.462 2.003 4.464 4.464 4.464h91.072c2.46 0 4.464-2.004 4.464-4.464v-74.107h-100zm17.857 66.071c0 .986-.8 1.786-1.786 1.786h-7.143c-.986 0-1.786-.8-1.786-1.786v-7.143c0-.986.8-1.786 1.786-1.786h7.143c.986 0 1.786.8 1.786 1.786v7.143zm16.071 0c0 .986-.8 1.786-1.786 1.786h-7.143c-.986 0-1.786-.8-1.786-1.786v-7.143c0-.986.8-1.786 1.786-1.786h7.143c.986 0 1.786.8 1.786 1.786v7.143zm-26.786-23.214c0-.986.8-1.786 1.786-1.786h16.071c.986 0 1.786.8 1.786 1.786s-.8 1.785-1.786 1.785h-16.071c-.986 0-1.786-.8-1.786-1.785zm26.786-8.929c0 .986-.8 1.785-1.786 1.785h-23.214c-.986 0-1.786-.8-1.786-1.785v-7.143c0-.986.8-1.785 1.786-1.785h23.214c.986 0 1.786.8 1.786 1.785v7.143zm-1.786-14.286h-23.214c-.986 0-1.786-.8-1.786-1.785 0-.986.8-1.786 1.786-1.786h23.214c.986 0 1.786.8 1.786 1.786s-.8 1.785-1.786 1.785zm45.17 39.845c-1.978.771-3.707 2.261-4.866 4.193l-3.057 5.096c-.323.537-.903.866-1.53.866-.626 0-1.209-.329-1.531-.866l-3.053-5.091c-1.168-1.946-2.863-3.423-4.77-4.159-10.202-3.938-19.432-14.181-17.057-28.189 2.007-11.831 11.649-20.981 23.447-22.25 7.714-.838 15.127 1.547 20.857 6.693 5.651 5.075 8.893 12.341 8.893 19.934-.002 10.495-6.643 19.604-17.332 23.773zM27.286 82.143h3.571v3.571h-3.571v-3.571z" fill="#58595B"/><path d="M83.862 39.866c-4.316-3.877-9.734-5.939-15.477-5.939-.864 0-1.736.046-2.611.14-10.216 1.1-18.566 9.036-20.309 19.297-2.179 12.844 6.623 21.096 14.822 24.258 2.646 1.022 4.969 3.029 6.546 5.654l1.524 2.537 1.527-2.545c1.564-2.605 3.919-4.623 6.63-5.682 9.288-3.623 15.057-11.457 15.057-20.446 0-6.579-2.809-12.875-7.709-17.275zm.075 13.148l-6.525 6.87 1.633 9.454c.12.69-.173 1.382-.75 1.777-.304.209-.657.313-1.009.313-.318 0-.634-.084-.918-.256l-8.011-4.806-8.008 4.806c-.598.359-1.352.336-1.929-.059s-.87-1.088-.75-1.777l1.633-9.454-6.525-6.87c-.462-.486-.613-1.192-.389-1.823.223-.633.784-1.088 1.45-1.175l8.904-1.18 4-8.522c.297-.626.927-1.026 1.618-1.026.691 0 1.323.4 1.616 1.026l4 8.522 8.903 1.18c.666.087 1.227.542 1.45 1.175.218.634.068 1.339-.394 1.825z" fill="#F7931E"/><path d="M11.214 50h19.643v3.571h-19.643v-3.571zM7.643 7.143h3.571v3.571h-3.571v-3.571zM11.214 82.143h3.572v3.571h-3.572v-3.571z" fill="#58595B"/><path d="M71.155 51.236l-2.798-5.961-2.798 5.961c-.259.55-.778.931-1.383 1.01l-6.398.848 4.73 4.981c.39.409.561.976.465 1.534l-1.121 6.496 5.588-3.352c.281-.169.6-.255.918-.255.317 0 .636.084.919.255l5.585 3.352-1.121-6.496c-.097-.558.076-1.125.464-1.534l4.73-4.981-6.398-.848c-.604-.079-1.123-.46-1.383-1.01z" fill="#F7931E"/><path d="M100.5 4.464c0-2.462-2.004-4.464-4.464-4.464h-91.072c-2.462 0-4.464 2.003-4.464 4.464v13.393h100v-13.393zm-85.714 8.036c0 .986-.8 1.786-1.786 1.786h-7.143c-.986 0-1.786-.8-1.786-1.786v-7.143c0-.986.8-1.786 1.786-1.786h7.143c.986 0 1.786.8 1.786 1.786v7.143zm14.285 0c0 .986-.8 1.786-1.785 1.786h-7.143c-.986 0-1.785-.8-1.785-1.786v-7.143c0-.986.8-1.786 1.785-1.786h7.143c.986 0 1.785.8 1.785 1.786v7.143zM21.929 7.143h3.571v3.571h-3.571v-3.571z" fill="#58595B"/></g><defs><clipPath id="a"><path fill="#fff" d="M.5 0h100v100h-100z"/></clipPath></defs></svg>