<svg width="111" height="110" viewBox="0 0 111 110" xmlns="http://www.w3.org/2000/svg" fill="none"><path d="M94.398 32.315c.647.649 1.497.971 2.348.971.851 0 1.703-.324 2.351-.971l6.75-6.751c1.294-1.294 1.297-3.401 0-4.697l-12.561-12.562c-1.298-1.297-3.403-1.292-4.697 0l-6.751 6.75c-1.296 1.297-1.296 3.403 0 4.699l1.095 1.095-3.015 3.014c-6.013-4.404-13.086-7.44-20.766-8.632v-4.231h5.844c1.832 0 3.323-1.49 3.323-3.322v-4.356c0-1.831-1.49-3.322-3.323-3.322h-26.356c-1.831 0-3.322 1.49-3.322 3.322v4.356c0 1.831 1.49 3.322 3.322 3.322h5.845v4.231c-22.815 3.538-40.334 23.311-40.334 47.102 0 26.283 21.384 47.667 47.667 47.667 26.282 0 47.667-21.384 47.667-47.667 0-10.501-3.422-20.215-9.196-28.099l3.014-3.015 1.095 1.095zm-33.411-4.815h11c1.012 0 1.833.822 1.833 1.834 0 1.011-.821 1.833-1.833 1.833h-11c-1.012 0-1.834-.822-1.834-1.833 0-1.012.822-1.834 1.834-1.834zm-14.667 7.333h11.001c1.012 0 1.833.822 1.833 1.834s-.821 1.833-1.833 1.833h-11.001c-1.011 0-1.833-.821-1.833-1.833s.822-1.834 1.833-1.834zm-14.667-7.333h11c1.012 0 1.834.822 1.834 1.834 0 1.011-.822 1.833-1.834 1.833h-11c-1.012 0-1.833-.822-1.833-1.833 0-1.012.821-1.834 1.833-1.834zm11 69.666h-11c-1.012 0-1.833-.821-1.833-1.833s.821-1.834 1.833-1.834h11c1.012 0 1.834.822 1.834 1.834s-.822 1.833-1.834 1.833zm14.667-7.333h-11.001c-1.011 0-1.833-.822-1.833-1.833 0-1.012.822-1.834 1.833-1.834h11.001c1.012 0 1.833.822 1.833 1.834 0 1.011-.821 1.833-1.833 1.833zm14.666 7.333h-11c-1.012 0-1.834-.821-1.834-1.833s.822-1.834 1.834-1.834h11c1.012 0 1.833.822 1.833 1.834s-.821 1.833-1.833 1.833zm18.333-22.009c0 3.038-2.471 5.509-5.509 5.509h-65.982c-3.037 0-5.509-2.471-5.509-5.509v-25.649c0-3.037 2.472-5.509 5.509-5.509h65.982c3.038 0 5.509 2.471 5.509 5.509v25.649z" fill="#58595B"/><path d="M24.321 55h5.5v14.666h-5.5v-14.666zM38.987 55h5.5v14.666h-5.5v-14.666zM59.154 55h5.5v14.666h-5.5v-14.666zM73.821 55h5.5v14.666h-5.5v-14.666zM84.812 47.667h-65.982c-1.017 0-1.842.827-1.842 1.842v25.649c0 1.016.827 1.842 1.842 1.842h65.982c1.015 0 1.842-.827 1.842-1.842v-25.649c0-1.015-.827-1.842-1.842-1.842zm-51.324 23.833c0 1.012-.822 1.833-1.834 1.833h-9.166c-1.012 0-1.834-.821-1.834-1.833v-18.334c0-1.011.822-1.833 1.834-1.833h9.166c1.012 0 1.834.822 1.834 1.833v18.334zm14.667 0c0 1.012-.822 1.833-1.834 1.833h-9.166c-1.012 0-1.834-.821-1.834-1.833v-18.334c0-1.011.822-1.833 1.834-1.833h9.166c1.012 0 1.834.822 1.834 1.833v18.334zm20.167 0c0 1.012-.822 1.833-1.834 1.833h-9.166c-1.012 0-1.834-.821-1.834-1.833v-18.334c0-1.011.822-1.833 1.834-1.833h9.166c1.012 0 1.834.822 1.834 1.833v18.334zm14.666 0c0 1.012-.822 1.833-1.833 1.833h-9.167c-1.012 0-1.834-.821-1.834-1.833v-18.334c0-1.011.822-1.833 1.834-1.833h9.167c1.011 0 1.833.822 1.833 1.833v18.334z" fill="#F7931E"/></svg>