<svg width="292" height="291" viewBox="0 0 292 291" xmlns="http://www.w3.org/2000/svg" fill="none"><path opacity=".3" d="M234.554 145.977c0 48.659-39.315 87.968-87.981 87.968-48.667 0-87.982-39.309-87.982-87.968 0-48.659 39.315-87.968 87.982-87.968 48.666 0 87.981 39.309 87.981 87.968z" fill="url(#a)"/><path d="M205.927 96.364c.948 0 1.717-.769 1.717-1.717 0-.949-.769-1.717-1.717-1.717-.949 0-1.718.769-1.718 1.717 0 .948.769 1.717 1.718 1.717zM212.606 105.332c.949 0 1.718-.769 1.718-1.717 0-.949-.769-1.717-1.718-1.717-.948 0-1.717.768-1.717 1.717 0 .948.769 1.717 1.717 1.717zM198.102 88.54c.949 0 1.718-.769 1.718-1.717 0-.948-.769-1.717-1.718-1.717s-1.718.769-1.718 1.717c0 .948.769 1.717 1.718 1.717zM189.132 81.862c.949 0 1.718-.769 1.718-1.717 0-.948-.769-1.717-1.718-1.717s-1.718.769-1.718 1.717c0 .949.769 1.717 1.718 1.717zM179.208 76.519c.949 0 1.718-.769 1.718-1.717 0-.949-.769-1.717-1.718-1.717s-1.718.769-1.718 1.717c0 .948.769 1.717 1.718 1.717zM168.902 72.702c.948 0 1.717-.769 1.717-1.717 0-.949-.769-1.717-1.717-1.717-.949 0-1.718.769-1.718 1.717 0 .948.769 1.717 1.718 1.717zM158.024 70.221c.948 0 1.717-.769 1.717-1.717 0-.949-.769-1.717-1.717-1.717-.949 0-1.718.769-1.718 1.717 0 .948.769 1.717 1.718 1.717zM146.763 69.458c.949 0 1.718-.769 1.718-1.717 0-.948-.769-1.717-1.718-1.717-.948 0-1.717.769-1.717 1.717 0 .949.769 1.717 1.717 1.717zM217.95 115.064c.949 0 1.718-.769 1.718-1.717 0-.949-.769-1.718-1.718-1.718-.948 0-1.717.769-1.717 1.718 0 .948.769 1.717 1.717 1.717zM221.958 125.559c.949 0 1.718-.769 1.718-1.717 0-.949-.769-1.718-1.718-1.718-.948 0-1.718.769-1.718 1.718 0 .948.77 1.717 1.718 1.717zM224.248 136.436c.949 0 1.718-.769 1.718-1.717 0-.949-.769-1.718-1.718-1.718-.948 0-1.717.769-1.717 1.718 0 .948.769 1.717 1.717 1.717zM225.203 147.503c.948 0 1.717-.769 1.717-1.717 0-.948-.769-1.717-1.717-1.717-.949 0-1.718.769-1.718 1.717 0 .948.769 1.717 1.718 1.717zM288.565 147.694c.948 0 1.717-.769 1.717-1.717 0-.949-.769-1.717-1.717-1.717-.949 0-1.718.768-1.718 1.717 0 .948.769 1.717 1.718 1.717zM287.992 136.436c.949 0 1.718-.769 1.718-1.717 0-.949-.769-1.718-1.718-1.718s-1.718.769-1.718 1.718c0 .948.769 1.717 1.718 1.717zM286.847 125.559c.949 0 1.718-.769 1.718-1.717 0-.948-.769-1.717-1.718-1.717s-1.718.769-1.718 1.717c0 .948.769 1.717 1.718 1.717zM284.557 114.682c.948 0 1.717-.768 1.717-1.717 0-.948-.769-1.717-1.717-1.717-.949 0-1.718.769-1.718 1.717 0 .949.769 1.717 1.718 1.717zM281.694 103.997c.949 0 1.718-.769 1.718-1.718 0-.948-.769-1.717-1.718-1.717-.948 0-1.717.769-1.717 1.717 0 .949.769 1.718 1.717 1.718zM277.686 93.502c.949 0 1.718-.769 1.718-1.717 0-.948-.769-1.717-1.718-1.717-.948 0-1.717.769-1.717 1.717 0 .948.769 1.717 1.717 1.717zM273.106 83.388c.948 0 1.717-.769 1.717-1.717 0-.948-.769-1.717-1.717-1.717-.949 0-1.718.769-1.718 1.717 0 .949.769 1.717 1.718 1.717zM267.571 73.656c.949 0 1.718-.769 1.718-1.717 0-.948-.769-1.717-1.718-1.717-.948 0-1.717.769-1.717 1.717 0 .948.769 1.717 1.717 1.717zM261.464 64.497c.949 0 1.718-.769 1.718-1.717 0-.948-.769-1.717-1.718-1.717s-1.718.769-1.718 1.717c0 .948.769 1.717 1.718 1.717zM254.593 55.719c.949 0 1.718-.769 1.718-1.717 0-.948-.769-1.717-1.718-1.717-.948 0-1.717.769-1.717 1.717 0 .949.769 1.717 1.717 1.717zM246.959 47.514c.949 0 1.718-.769 1.718-1.717 0-.948-.769-1.717-1.718-1.717-.948 0-1.717.769-1.717 1.717 0 .949.769 1.717 1.717 1.717zM238.753 40.072c.948 0 1.717-.769 1.717-1.717 0-.949-.769-1.717-1.717-1.717-.949 0-1.718.769-1.718 1.717 0 .948.769 1.717 1.718 1.717zM230.165 33.203c.948 0 1.717-.769 1.717-1.717 0-.948-.769-1.717-1.717-1.717-.949 0-1.718.769-1.718 1.717 0 .948.769 1.717 1.718 1.717zM220.813 26.905c.949 0 1.718-.769 1.718-1.717 0-.948-.769-1.717-1.718-1.717s-1.718.769-1.718 1.717c0 .949.769 1.717 1.718 1.717zM211.08 21.563c.948 0 1.717-.769 1.717-1.717 0-.949-.769-1.717-1.717-1.717-.949 0-1.718.769-1.718 1.717 0 .948.769 1.717 1.718 1.717zM200.965 16.792c.948 0 1.717-.769 1.717-1.717 0-.948-.769-1.717-1.717-1.717-.949 0-1.718.769-1.718 1.717 0 .948.769 1.717 1.718 1.717zM190.659 12.976c.948 0 1.717-.769 1.717-1.717 0-.948-.769-1.717-1.717-1.717-.949 0-1.718.769-1.718 1.717 0 .948.769 1.717 1.718 1.717zM179.78 9.923c.949 0 1.718-.769 1.718-1.717 0-.948-.769-1.717-1.718-1.717-.948 0-1.717.769-1.717 1.717 0 .948.769 1.717 1.717 1.717zM168.902 7.823c.949 0 1.718-.769 1.718-1.717 0-.948-.769-1.717-1.718-1.717s-1.718.769-1.718 1.717c0 .948.769 1.717 1.718 1.717zM157.833 6.488c.948 0 1.717-.769 1.717-1.717 0-.948-.769-1.717-1.717-1.717-.949 0-1.718.769-1.718 1.717 0 .948.769 1.717 1.718 1.717zM146.763 6.106c.949 0 1.718-.769 1.718-1.717 0-.948-.769-1.717-1.718-1.717-.948 0-1.717.769-1.717 1.717 0 .948.769 1.717 1.717 1.717zM257.075 147.503c.948 0 1.717-.769 1.717-1.717 0-.948-.769-1.717-1.717-1.717-.949 0-1.718.769-1.718 1.717 0 .948.769 1.717 1.718 1.717zM146.763 37.401c.949 0 1.718-.769 1.718-1.717 0-.949-.769-1.717-1.718-1.717-.948 0-1.717.769-1.717 1.717 0 .948.769 1.717 1.717 1.717zM158.214 37.973c.949 0 1.718-.769 1.718-1.717 0-.949-.769-1.717-1.718-1.717-.948 0-1.717.769-1.717 1.717 0 .948.769 1.717 1.717 1.717zM169.665 39.881c.949 0 1.718-.769 1.718-1.717 0-.949-.769-1.717-1.718-1.717-.948 0-1.717.769-1.717 1.717 0 .948.769 1.717 1.717 1.717zM180.734 42.743c.949 0 1.718-.769 1.718-1.717 0-.949-.769-1.717-1.718-1.717-.948 0-1.717.769-1.717 1.717 0 .949.769 1.717 1.717 1.717zM191.422 46.941c.949 0 1.718-.769 1.718-1.717 0-.949-.769-1.717-1.718-1.717-.948 0-1.717.769-1.717 1.717 0 .949.769 1.717 1.717 1.717zM201.728 52.094c.949 0 1.718-.769 1.718-1.717 0-.948-.769-1.717-1.718-1.717-.948 0-1.718.769-1.718 1.717 0 .949.77 1.717 1.718 1.717zM211.461 58.391c.949 0 1.718-.769 1.718-1.717 0-.949-.769-1.717-1.718-1.717-.948 0-1.717.769-1.717 1.717 0 .948.769 1.717 1.717 1.717zM220.431 65.642c.949 0 1.718-.769 1.718-1.717 0-.948-.769-1.717-1.718-1.717-.948 0-1.717.769-1.717 1.717 0 .949.769 1.717 1.717 1.717zM228.447 73.656c.949 0 1.718-.769 1.718-1.717 0-.948-.769-1.717-1.718-1.717s-1.718.769-1.718 1.717c0 .948.769 1.717 1.718 1.717zM235.89 82.625c.949 0 1.718-.769 1.718-1.717 0-.949-.769-1.717-1.718-1.717s-1.718.769-1.718 1.717c0 .948.769 1.717 1.718 1.717zM242.188 92.166c.949 0 1.718-.769 1.718-1.717 0-.948-.769-1.717-1.718-1.717s-1.718.769-1.718 1.717c0 .948.769 1.717 1.718 1.717zM247.341 102.47c.949 0 1.718-.769 1.718-1.717 0-.949-.769-1.718-1.718-1.718s-1.718.769-1.718 1.718c0 .948.769 1.717 1.718 1.717zM251.54 113.156c.949 0 1.718-.769 1.718-1.718 0-.948-.769-1.717-1.718-1.717s-1.718.769-1.718 1.717c0 .949.769 1.718 1.718 1.718zM254.784 124.223c.949 0 1.718-.768 1.718-1.717 0-.948-.769-1.717-1.718-1.717-.948 0-1.717.769-1.717 1.717 0 .949.769 1.717 1.717 1.717zM256.502 135.863c.948 0 1.717-.768 1.717-1.717 0-.948-.769-1.717-1.717-1.717-.949 0-1.718.769-1.718 1.717 0 .949.769 1.717 1.718 1.717zM87.409 198.834c.949 0 1.718-.769 1.718-1.717 0-.949-.769-1.717-1.718-1.717s-1.718.768-1.718 1.717c0 .948.769 1.717 1.718 1.717zM80.729 189.866c.949 0 1.718-.769 1.718-1.718 0-.948-.769-1.717-1.718-1.717s-1.718.769-1.718 1.717c0 .949.769 1.718 1.718 1.718zM95.234 206.658c.949 0 1.718-.769 1.718-1.718 0-.948-.769-1.717-1.718-1.717s-1.718.769-1.718 1.717c0 .949.769 1.718 1.718 1.718zM104.204 213.336c.948 0 1.717-.769 1.717-1.717 0-.948-.769-1.717-1.717-1.717-.949 0-1.718.769-1.718 1.717 0 .948.769 1.717 1.718 1.717zM113.937 218.679c.949 0 1.718-.769 1.718-1.717 0-.948-.769-1.717-1.718-1.717-.948 0-1.718.769-1.718 1.717 0 .948.77 1.717 1.718 1.717zM124.434 222.496c.948 0 1.717-.769 1.717-1.718 0-.948-.769-1.717-1.717-1.717-.949 0-1.718.769-1.718 1.717 0 .949.769 1.718 1.718 1.718zM135.312 224.977c.949 0 1.718-.769 1.718-1.718 0-.948-.769-1.717-1.718-1.717-.948 0-1.718.769-1.718 1.717 0 .949.77 1.718 1.718 1.718zM146.572 225.74c.949 0 1.718-.769 1.718-1.718 0-.948-.769-1.717-1.718-1.717-.948 0-1.717.769-1.717 1.717 0 .949.769 1.718 1.717 1.718zM75.386 180.134c.949 0 1.718-.769 1.718-1.718 0-.948-.769-1.717-1.718-1.717s-1.718.769-1.718 1.717c0 .949.769 1.718 1.718 1.718zM71.378 169.639c.949 0 1.718-.769 1.718-1.718 0-.948-.769-1.717-1.718-1.717s-1.718.769-1.718 1.717c0 .949.769 1.718 1.718 1.718zM69.088 158.762c.949 0 1.718-.769 1.718-1.717 0-.949-.769-1.718-1.718-1.718s-1.718.769-1.718 1.718c0 .948.769 1.717 1.718 1.717zM68.133 147.695c.949 0 1.718-.769 1.718-1.718 0-.948-.769-1.717-1.718-1.717s-1.718.769-1.718 1.717c0 .949.769 1.718 1.718 1.718zM4.771 147.504c.949 0 1.718-.769 1.718-1.718 0-.948-.769-1.717-1.718-1.717s-1.718.769-1.718 1.717c0 .949.769 1.718 1.718 1.718zM5.153 158.762c.949 0 1.718-.769 1.718-1.717 0-.949-.769-1.718-1.718-1.718s-1.718.769-1.718 1.718c0 .948.769 1.717 1.718 1.717zM6.489 169.639c.949 0 1.718-.769 1.718-1.718 0-.948-.769-1.717-1.718-1.717s-1.718.769-1.718 1.717c0 .949.769 1.718 1.718 1.718zM8.779 180.515c.949 0 1.718-.768 1.718-1.717 0-.948-.769-1.717-1.718-1.717s-1.718.769-1.718 1.717c0 .949.769 1.717 1.718 1.717zM11.642 191.392c.949 0 1.718-.769 1.718-1.717 0-.949-.769-1.718-1.718-1.718s-1.718.769-1.718 1.718c0 .948.769 1.717 1.718 1.717zM15.649 201.696c.949 0 1.718-.769 1.718-1.717 0-.949-.769-1.717-1.718-1.717s-1.718.768-1.718 1.717c0 .948.769 1.717 1.718 1.717zM20.23 211.81c.949 0 1.718-.769 1.718-1.718 0-.948-.769-1.717-1.718-1.717s-1.718.769-1.718 1.717c0 .949.769 1.718 1.718 1.718zM25.765 221.542c.949 0 1.718-.769 1.718-1.718 0-.948-.769-1.717-1.718-1.717s-1.718.769-1.718 1.717c0 .949.769 1.718 1.718 1.718zM31.872 230.701c.949 0 1.718-.769 1.718-1.717 0-.949-.769-1.718-1.718-1.718s-1.718.769-1.718 1.718c0 .948.769 1.717 1.718 1.717zM38.742 239.479c.949 0 1.718-.769 1.718-1.718 0-.948-.769-1.717-1.718-1.717s-1.718.769-1.718 1.717c0 .949.769 1.718 1.718 1.718zM46.376 247.684c.949 0 1.718-.769 1.718-1.717 0-.949-.769-1.718-1.718-1.718s-1.718.769-1.718 1.718c0 .948.769 1.717 1.718 1.717zM54.583 255.126c.949 0 1.718-.769 1.718-1.718 0-.948-.769-1.717-1.718-1.717s-1.718.769-1.718 1.717c0 .949.769 1.718 1.718 1.718zM63.171 261.995c.949 0 1.718-.768 1.718-1.717 0-.948-.769-1.717-1.718-1.717s-1.718.769-1.718 1.717c0 .949.769 1.717 1.718 1.717zM72.523 268.292c.949 0 1.718-.768 1.718-1.717 0-.948-.769-1.717-1.718-1.717s-1.718.769-1.718 1.717c0 .949.769 1.717 1.718 1.717zM82.256 273.635c.949 0 1.718-.768 1.718-1.717 0-.948-.769-1.717-1.718-1.717s-1.718.769-1.718 1.717c0 .949.769 1.717 1.718 1.717zM92.371 278.406c.949 0 1.718-.769 1.718-1.717 0-.949-.769-1.718-1.718-1.718s-1.718.769-1.718 1.718c0 .948.769 1.717 1.718 1.717zM102.677 282.222c.949 0 1.718-.769 1.718-1.717 0-.949-.769-1.717-1.718-1.717s-1.718.768-1.718 1.717c0 .948.769 1.717 1.718 1.717zM113.365 285.275c.948 0 1.717-.769 1.717-1.717 0-.949-.769-1.717-1.717-1.717-.949 0-1.718.768-1.718 1.717 0 .948.769 1.717 1.718 1.717zM124.434 287.374c.948 0 1.717-.768 1.717-1.717 0-.948-.769-1.717-1.717-1.717-.949 0-1.718.769-1.718 1.717 0 .949.769 1.717 1.718 1.717zM135.312 288.71c.949 0 1.718-.769 1.718-1.717 0-.949-.769-1.718-1.718-1.718-.948 0-1.717.769-1.717 1.718 0 .948.769 1.717 1.717 1.717zM146.572 289.092c.949 0 1.718-.769 1.718-1.718 0-.948-.769-1.717-1.718-1.717-.948 0-1.717.769-1.717 1.717 0 .949.769 1.718 1.717 1.718zM36.07 147.695c.949 0 1.718-.769 1.718-1.718 0-.948-.769-1.717-1.718-1.717s-1.718.769-1.718 1.717c0 .949.769 1.718 1.718 1.718zM146.572 257.797c.949 0 1.718-.768 1.718-1.717 0-.948-.769-1.717-1.718-1.717-.948 0-1.717.769-1.717 1.717 0 .949.769 1.717 1.717 1.717zM134.931 257.225c.948 0 1.717-.769 1.717-1.717 0-.949-.769-1.718-1.717-1.718-.949 0-1.718.769-1.718 1.718 0 .948.769 1.717 1.718 1.717zM123.671 255.317c.948 0 1.717-.769 1.717-1.718 0-.948-.769-1.717-1.717-1.717-.949 0-1.718.769-1.718 1.717 0 .949.769 1.718 1.718 1.718zM112.601 252.454c.949 0 1.718-.768 1.718-1.717 0-.948-.769-1.717-1.718-1.717-.948 0-1.717.769-1.717 1.717 0 .949.769 1.717 1.717 1.717zM101.723 248.256c.948 0 1.717-.769 1.717-1.717 0-.948-.769-1.717-1.717-1.717-.949 0-1.718.769-1.718 1.717 0 .948.769 1.717 1.718 1.717zM91.608 243.104c.949 0 1.718-.769 1.718-1.717 0-.949-.769-1.717-1.718-1.717s-1.718.768-1.718 1.717c0 .948.769 1.717 1.718 1.717zM81.874 236.807c.949 0 1.718-.769 1.718-1.717 0-.949-.769-1.717-1.718-1.717s-1.718.768-1.718 1.717c0 .948.769 1.717 1.718 1.717zM72.904 229.556c.949 0 1.718-.769 1.718-1.717 0-.949-.769-1.718-1.718-1.718s-1.718.769-1.718 1.718c0 .948.769 1.717 1.718 1.717zM64.698 221.542c.949 0 1.718-.769 1.718-1.718 0-.948-.769-1.717-1.718-1.717s-1.718.769-1.718 1.717c0 .949.769 1.718 1.718 1.718zM57.445 212.573c.949 0 1.718-.769 1.718-1.717 0-.949-.769-1.718-1.718-1.718s-1.718.769-1.718 1.718c0 .948.769 1.717 1.718 1.717zM51.148 203.032c.949 0 1.718-.769 1.718-1.717 0-.949-.769-1.718-1.718-1.718s-1.718.769-1.718 1.718c0 .948.769 1.717 1.718 1.717zM45.995 192.728c.949 0 1.718-.769 1.718-1.717 0-.949-.769-1.718-1.718-1.718s-1.718.769-1.718 1.718c0 .948.769 1.717 1.718 1.717zM41.796 182.042c.949 0 1.718-.769 1.718-1.717 0-.949-.769-1.718-1.718-1.718s-1.718.769-1.718 1.718c0 .948.769 1.717 1.718 1.717zM38.552 170.975c.949 0 1.718-.769 1.718-1.718 0-.948-.769-1.717-1.718-1.717s-1.718.769-1.718 1.717c0 .949.769 1.718 1.718 1.718zM36.643 159.335c.949 0 1.718-.769 1.718-1.718 0-.948-.769-1.717-1.718-1.717s-1.718.769-1.718 1.717c0 .949.769 1.718 1.718 1.718z" fill="#754C29"/><path d="M129.968 102.088h35.499c1.908 0 3.435-1.526 3.435-3.434 0-1.908-1.527-3.435-3.435-3.435h-35.499c-1.908 0-3.435 1.527-3.435 3.435 0 1.908 1.527 3.434 3.435 3.434zM122.525 114.492h48.094c1.909 0 3.436-1.527 3.436-3.435 0-1.908-1.527-3.435-3.436-3.435h-48.094c-1.908 0-3.435 1.527-3.435 3.435 0 1.908 1.527 3.435 3.435 3.435zm-6.87 12.594h61.835c1.909 0 3.435-1.527 3.435-3.435 0-1.908-1.526-3.435-3.435-3.435h-61.835c-1.909 0-3.436 1.527-3.436 3.435 0 1.908 1.527 3.435 3.436 3.435zM181.116 133.955h-68.706c-3.817 0-6.87 3.054-6.87 6.87v8.205l36.834 16.983c2.672 1.336 5.916 1.336 8.588 0l36.834-16.983v-8.205c.191-3.816-3.054-6.87-6.68-6.87z" fill="#F7931E"/><path d="M146.572 173.837c-2.481 0-4.962-.573-7.252-1.527l-33.971-15.838v25.57c0 3.816 3.053 6.87 6.87 6.87h68.706c3.817 0 6.871-3.054 6.871-6.87v-25.57l-33.971 15.647c-2.291 1.145-4.772 1.718-7.253 1.718z" fill="#EF4223"/><defs><radialGradient id="a" cx="0" cy="0" r="1" gradientUnits="userSpaceOnUse" gradientTransform="translate(146.654 145.887) scale(87.966 87.953)"><stop offset=".005" stop-color="#F7931E"/><stop offset="1" stop-color="#fff"/></radialGradient></defs></svg>