<svg width="374" height="239" viewBox="0 0 374 239" fill="none" xmlns="http://www.w3.org/2000/svg">
<circle cx="146.5" cy="127.5" r="102.5" fill="white"/>
<mask id="mask0" mask-type="alpha" maskUnits="userSpaceOnUse" x="157" y="0" width="217" height="206">
<path d="M157 21.3116C157 20.7998 157.415 20.385 157.927 20.385C158.44 20.385 158.855 20.7998 158.855 21.3116C158.855 21.8233 158.44 22.2382 157.927 22.2382C157.415 22.2382 157 21.8233 157 21.3116Z" fill="black"/>
<path d="M157 0.92659C157 0.414848 157.415 0 157.927 0C158.44 0 158.855 0.414848 158.855 0.92659C158.855 1.43833 158.44 1.85318 157.927 1.85318C157.415 1.85318 157 1.43833 157 0.92659Z" fill="black"/>
<path d="M167.202 11.1191C167.202 10.6073 167.617 10.1925 168.129 10.1925C168.641 10.1925 169.057 10.6073 169.057 11.1191C169.057 11.6308 168.641 12.0457 168.129 12.0457C167.617 12.0457 167.202 11.6308 167.202 11.1191Z" fill="black"/>
<path d="M177.404 21.3116C177.404 20.7998 177.819 20.385 178.331 20.385C178.843 20.385 179.258 20.7998 179.258 21.3116C179.258 21.8233 178.843 22.2382 178.331 22.2382C177.819 22.2382 177.404 21.8233 177.404 21.3116Z" fill="black"/>
<path d="M187.605 11.1191C187.605 10.6073 188.021 10.1925 188.533 10.1925C189.045 10.1925 189.46 10.6073 189.46 11.1191C189.46 11.6308 189.045 12.0457 188.533 12.0457C188.021 12.0457 187.605 11.6308 187.605 11.1191Z" fill="black"/>
<path d="M177.404 0.92659C177.404 0.414848 177.819 0 178.331 0C178.843 0 179.258 0.414848 179.258 0.92659C179.258 1.43833 178.843 1.85318 178.331 1.85318C177.819 1.85318 177.404 1.43833 177.404 0.92659Z" fill="black"/>
<path d="M197.807 21.3116C197.807 20.7998 198.222 20.385 198.734 20.385C199.247 20.385 199.662 20.7998 199.662 21.3116C199.662 21.8233 199.247 22.2382 198.734 22.2382C198.222 22.2382 197.807 21.8233 197.807 21.3116Z" fill="black"/>
<path d="M208.009 11.1191C208.009 10.6073 208.424 10.1925 208.936 10.1925C209.448 10.1925 209.864 10.6073 209.864 11.1191C209.864 11.6308 209.448 12.0457 208.936 12.0457C208.424 12.0457 208.009 11.6308 208.009 11.1191Z" fill="black"/>
<path d="M197.807 0.92659C197.807 0.414848 198.222 0 198.734 0C199.247 0 199.662 0.414848 199.662 0.92659C199.662 1.43833 199.247 1.85318 198.734 1.85318C198.222 1.85318 197.807 1.43833 197.807 0.92659Z" fill="black"/>
<path d="M218.211 21.3116C218.211 20.7998 218.626 20.385 219.138 20.385C219.65 20.385 220.065 20.7998 220.065 21.3116C220.065 21.8233 219.65 22.2382 219.138 22.2382C218.626 22.2382 218.211 21.8233 218.211 21.3116Z" fill="black"/>
<path d="M228.412 11.1191C228.412 10.6073 228.828 10.1925 229.34 10.1925C229.852 10.1925 230.267 10.6073 230.267 11.1191C230.267 11.6308 229.852 12.0457 229.34 12.0457C228.828 12.0457 228.412 11.6308 228.412 11.1191Z" fill="black"/>
<path d="M218.211 0.92659C218.211 0.414848 218.626 0 219.138 0C219.65 0 220.065 0.414848 220.065 0.92659C220.065 1.43833 219.65 1.85318 219.138 1.85318C218.626 1.85318 218.211 1.43833 218.211 0.92659Z" fill="black"/>
<path d="M238.614 21.3116C238.614 20.7998 239.029 20.385 239.542 20.385C240.054 20.385 240.469 20.7998 240.469 21.3116C240.469 21.8233 240.054 22.2382 239.542 22.2382C239.029 22.2382 238.614 21.8233 238.614 21.3116Z" fill="black"/>
<path d="M248.816 11.1191C248.816 10.6073 249.231 10.1925 249.743 10.1925C250.256 10.1925 250.671 10.6073 250.671 11.1191C250.671 11.6308 250.256 12.0457 249.743 12.0457C249.231 12.0457 248.816 11.6308 248.816 11.1191Z" fill="black"/>
<path d="M238.614 0.92659C238.614 0.414848 239.029 0 239.542 0C240.054 0 240.469 0.414848 240.469 0.92659C240.469 1.43833 240.054 1.85318 239.542 1.85318C239.029 1.85318 238.614 1.43833 238.614 0.92659Z" fill="black"/>
<path d="M259.018 21.3116C259.018 20.7998 259.433 20.385 259.945 20.385C260.457 20.385 260.873 20.7998 260.873 21.3116C260.873 21.8233 260.457 22.2382 259.945 22.2382C259.433 22.2382 259.018 21.8233 259.018 21.3116Z" fill="black"/>
<path d="M269.219 11.1191C269.219 10.6073 269.635 10.1925 270.147 10.1925C270.659 10.1925 271.074 10.6073 271.074 11.1191C271.074 11.6308 270.659 12.0457 270.147 12.0457C269.635 12.0457 269.219 11.6308 269.219 11.1191Z" fill="black"/>
<path d="M259.018 0.92659C259.018 0.414848 259.433 0 259.945 0C260.457 0 260.873 0.414848 260.873 0.92659C260.873 1.43833 260.457 1.85318 259.945 1.85318C259.433 1.85318 259.018 1.43833 259.018 0.92659Z" fill="black"/>
<path d="M279.421 21.3116C279.421 20.7998 279.836 20.385 280.349 20.385C280.861 20.385 281.276 20.7998 281.276 21.3116C281.276 21.8233 280.861 22.2382 280.349 22.2382C279.836 22.2382 279.421 21.8233 279.421 21.3116Z" fill="black"/>
<path d="M289.623 11.1191C289.623 10.6073 290.038 10.1925 290.55 10.1925C291.063 10.1925 291.478 10.6073 291.478 11.1191C291.478 11.6308 291.063 12.0457 290.55 12.0457C290.038 12.0457 289.623 11.6308 289.623 11.1191Z" fill="black"/>
<path d="M279.421 0.92659C279.421 0.414848 279.836 0 280.349 0C280.861 0 281.276 0.414848 281.276 0.92659C281.276 1.43833 280.861 1.85318 280.349 1.85318C279.836 1.85318 279.421 1.43833 279.421 0.92659Z" fill="black"/>
<path d="M299.825 21.3116C299.825 20.7998 300.24 20.385 300.752 20.385C301.264 20.385 301.68 20.7998 301.68 21.3116C301.68 21.8233 301.264 22.2382 300.752 22.2382C300.24 22.2382 299.825 21.8233 299.825 21.3116Z" fill="black"/>
<path d="M310.026 11.1191C310.026 10.6073 310.442 10.1925 310.954 10.1925C311.466 10.1925 311.881 10.6073 311.881 11.1191C311.881 11.6308 311.466 12.0457 310.954 12.0457C310.442 12.0457 310.026 11.6308 310.026 11.1191Z" fill="black"/>
<path d="M299.825 0.92659C299.825 0.414848 300.24 0 300.752 0C301.264 0 301.68 0.414848 301.68 0.92659C301.68 1.43833 301.264 1.85318 300.752 1.85318C300.24 1.85318 299.825 1.43833 299.825 0.92659Z" fill="black"/>
<path d="M320.228 21.3116C320.228 20.7998 320.643 20.385 321.156 20.385C321.668 20.385 322.083 20.7998 322.083 21.3116C322.083 21.8233 321.668 22.2382 321.156 22.2382C320.643 22.2382 320.228 21.8233 320.228 21.3116Z" fill="black"/>
<path d="M330.43 11.1191C330.43 10.6073 330.845 10.1925 331.357 10.1925C331.87 10.1925 332.285 10.6073 332.285 11.1191C332.285 11.6308 331.87 12.0457 331.357 12.0457C330.845 12.0457 330.43 11.6308 330.43 11.1191Z" fill="black"/>
<path d="M320.228 0.92659C320.228 0.414848 320.643 0 321.156 0C321.668 0 322.083 0.414848 322.083 0.92659C322.083 1.43833 321.668 1.85318 321.156 1.85318C320.643 1.85318 320.228 1.43833 320.228 0.92659Z" fill="black"/>
<path d="M340.632 21.3116C340.632 20.7998 341.047 20.385 341.559 20.385C342.071 20.385 342.487 20.7998 342.487 21.3116C342.487 21.8233 342.071 22.2382 341.559 22.2382C341.047 22.2382 340.632 21.8233 340.632 21.3116Z" fill="black"/>
<path d="M350.834 11.1191C350.834 10.6073 351.249 10.1925 351.761 10.1925C352.273 10.1925 352.688 10.6073 352.688 11.1191C352.688 11.6308 352.273 12.0457 351.761 12.0457C351.249 12.0457 350.834 11.6308 350.834 11.1191Z" fill="black"/>
<path d="M340.632 0.92659C340.632 0.414848 341.047 0 341.559 0C342.071 0 342.487 0.414848 342.487 0.92659C342.487 1.43833 342.071 1.85318 341.559 1.85318C341.047 1.85318 340.632 1.43833 340.632 0.92659Z" fill="black"/>
<path d="M361.035 21.3116C361.035 20.7998 361.451 20.385 361.963 20.385C362.475 20.385 362.89 20.7998 362.89 21.3116C362.89 21.8233 362.475 22.2382 361.963 22.2382C361.451 22.2382 361.035 21.8233 361.035 21.3116Z" fill="black"/>
<path d="M371.237 11.1191C371.237 10.6073 371.652 10.1925 372.165 10.1925C372.677 10.1925 373.092 10.6073 373.092 11.1191C373.092 11.6308 372.677 12.0457 372.165 12.0457C371.652 12.0457 371.237 11.6308 371.237 11.1191Z" fill="black"/>
<path d="M361.035 0.92659C361.035 0.414848 361.451 0 361.963 0C362.475 0 362.89 0.414848 362.89 0.92659C362.89 1.43833 362.475 1.85318 361.963 1.85318C361.451 1.85318 361.035 1.43833 361.035 0.92659Z" fill="black"/>
<path d="M167.202 31.5041C167.202 30.9923 167.617 30.5775 168.129 30.5775C168.641 30.5775 169.057 30.9923 169.057 31.5041C169.057 32.0158 168.641 32.4306 168.129 32.4306C167.617 32.4306 167.202 32.0158 167.202 31.5041Z" fill="black"/>
<path d="M157 41.6965C157 41.1848 157.415 40.77 157.927 40.77C158.44 40.77 158.855 41.1848 158.855 41.6965C158.855 42.2083 158.44 42.6231 157.927 42.6231C157.415 42.6231 157 42.2083 157 41.6965Z" fill="black"/>
<path d="M187.605 31.5041C187.605 30.9923 188.021 30.5775 188.533 30.5775C189.045 30.5775 189.46 30.9923 189.46 31.5041C189.46 32.0158 189.045 32.4306 188.533 32.4306C188.021 32.4306 187.605 32.0158 187.605 31.5041Z" fill="black"/>
<path d="M177.404 41.6965C177.404 41.1848 177.819 40.77 178.331 40.77C178.843 40.77 179.258 41.1848 179.258 41.6965C179.258 42.2083 178.843 42.6231 178.331 42.6231C177.819 42.6231 177.404 42.2083 177.404 41.6965Z" fill="black"/>
<path d="M208.009 31.5041C208.009 30.9923 208.424 30.5775 208.936 30.5775C209.448 30.5775 209.864 30.9923 209.864 31.5041C209.864 32.0158 209.448 32.4306 208.936 32.4306C208.424 32.4306 208.009 32.0158 208.009 31.5041Z" fill="black"/>
<path d="M197.807 41.6965C197.807 41.1848 198.222 40.77 198.734 40.77C199.247 40.77 199.662 41.1848 199.662 41.6965C199.662 42.2083 199.247 42.6231 198.734 42.6231C198.222 42.6231 197.807 42.2083 197.807 41.6965Z" fill="black"/>
<path d="M228.412 31.5041C228.412 30.9923 228.828 30.5775 229.34 30.5775C229.852 30.5775 230.267 30.9923 230.267 31.5041C230.267 32.0158 229.852 32.4306 229.34 32.4306C228.828 32.4306 228.412 32.0158 228.412 31.5041Z" fill="black"/>
<path d="M218.211 41.6965C218.211 41.1848 218.626 40.77 219.138 40.77C219.65 40.77 220.065 41.1848 220.065 41.6965C220.065 42.2083 219.65 42.6231 219.138 42.6231C218.626 42.6231 218.211 42.2083 218.211 41.6965Z" fill="black"/>
<path d="M248.816 31.5041C248.816 30.9923 249.231 30.5775 249.743 30.5775C250.256 30.5775 250.671 30.9923 250.671 31.5041C250.671 32.0158 250.256 32.4306 249.743 32.4306C249.231 32.4306 248.816 32.0158 248.816 31.5041Z" fill="black"/>
<path d="M238.614 41.6965C238.614 41.1848 239.029 40.77 239.542 40.77C240.054 40.77 240.469 41.1848 240.469 41.6965C240.469 42.2083 240.054 42.6231 239.542 42.6231C239.029 42.6231 238.614 42.2083 238.614 41.6965Z" fill="black"/>
<path d="M269.219 31.5041C269.219 30.9923 269.635 30.5775 270.147 30.5775C270.659 30.5775 271.074 30.9923 271.074 31.5041C271.074 32.0158 270.659 32.4306 270.147 32.4306C269.635 32.4306 269.219 32.0158 269.219 31.5041Z" fill="black"/>
<path d="M259.018 41.6965C259.018 41.1848 259.433 40.77 259.945 40.77C260.457 40.77 260.873 41.1848 260.873 41.6965C260.873 42.2083 260.457 42.6231 259.945 42.6231C259.433 42.6231 259.018 42.2083 259.018 41.6965Z" fill="black"/>
<path d="M289.623 31.5041C289.623 30.9923 290.038 30.5775 290.55 30.5775C291.063 30.5775 291.478 30.9923 291.478 31.5041C291.478 32.0158 291.063 32.4306 290.55 32.4306C290.038 32.4306 289.623 32.0158 289.623 31.5041Z" fill="black"/>
<path d="M279.421 41.6965C279.421 41.1848 279.836 40.77 280.349 40.77C280.861 40.77 281.276 41.1848 281.276 41.6965C281.276 42.2083 280.861 42.6231 280.349 42.6231C279.836 42.6231 279.421 42.2083 279.421 41.6965Z" fill="black"/>
<path d="M310.026 31.5041C310.026 30.9923 310.442 30.5775 310.954 30.5775C311.466 30.5775 311.881 30.9923 311.881 31.5041C311.881 32.0158 311.466 32.4306 310.954 32.4306C310.442 32.4306 310.026 32.0158 310.026 31.5041Z" fill="black"/>
<path d="M299.825 41.6965C299.825 41.1848 300.24 40.77 300.752 40.77C301.264 40.77 301.68 41.1848 301.68 41.6965C301.68 42.2083 301.264 42.6231 300.752 42.6231C300.24 42.6231 299.825 42.2083 299.825 41.6965Z" fill="black"/>
<path d="M330.43 31.5041C330.43 30.9923 330.845 30.5775 331.357 30.5775C331.87 30.5775 332.285 30.9923 332.285 31.5041C332.285 32.0158 331.87 32.4306 331.357 32.4306C330.845 32.4306 330.43 32.0158 330.43 31.5041Z" fill="black"/>
<path d="M320.228 41.6965C320.228 41.1848 320.643 40.77 321.156 40.77C321.668 40.77 322.083 41.1848 322.083 41.6965C322.083 42.2083 321.668 42.6231 321.156 42.6231C320.643 42.6231 320.228 42.2083 320.228 41.6965Z" fill="black"/>
<path d="M350.834 31.5041C350.834 30.9923 351.249 30.5775 351.761 30.5775C352.273 30.5775 352.688 30.9923 352.688 31.5041C352.688 32.0158 352.273 32.4306 351.761 32.4306C351.249 32.4306 350.834 32.0158 350.834 31.5041Z" fill="black"/>
<path d="M340.632 41.6965C340.632 41.1848 341.047 40.77 341.559 40.77C342.071 40.77 342.487 41.1848 342.487 41.6965C342.487 42.2083 342.071 42.6231 341.559 42.6231C341.047 42.6231 340.632 42.2083 340.632 41.6965Z" fill="black"/>
<path d="M371.237 31.5041C371.237 30.9923 371.652 30.5775 372.165 30.5775C372.677 30.5775 373.092 30.9923 373.092 31.5041C373.092 32.0158 372.677 32.4306 372.165 32.4306C371.652 32.4306 371.237 32.0158 371.237 31.5041Z" fill="black"/>
<path d="M361.035 41.6965C361.035 41.1848 361.451 40.77 361.963 40.77C362.475 40.77 362.89 41.1848 362.89 41.6965C362.89 42.2083 362.475 42.6231 361.963 42.6231C361.451 42.6231 361.035 42.2083 361.035 41.6965Z" fill="black"/>
<path d="M167.202 51.889C167.202 51.3773 167.617 50.9624 168.129 50.9624C168.641 50.9624 169.057 51.3773 169.057 51.889C169.057 52.4008 168.641 52.8156 168.129 52.8156C167.617 52.8156 167.202 52.4008 167.202 51.889Z" fill="black"/>
<path d="M157 62.0815C157 61.5698 157.415 61.1549 157.927 61.1549C158.44 61.1549 158.855 61.5698 158.855 62.0815C158.855 62.5933 158.44 63.0081 157.927 63.0081C157.415 63.0081 157 62.5933 157 62.0815Z" fill="black"/>
<path d="M187.605 51.889C187.605 51.3773 188.021 50.9624 188.533 50.9624C189.045 50.9624 189.46 51.3773 189.46 51.889C189.46 52.4008 189.045 52.8156 188.533 52.8156C188.021 52.8156 187.605 52.4008 187.605 51.889Z" fill="black"/>
<path d="M177.404 62.0815C177.404 61.5698 177.819 61.1549 178.331 61.1549C178.843 61.1549 179.258 61.5698 179.258 62.0815C179.258 62.5933 178.843 63.0081 178.331 63.0081C177.819 63.0081 177.404 62.5933 177.404 62.0815Z" fill="black"/>
<path d="M208.009 51.889C208.009 51.3773 208.424 50.9624 208.936 50.9624C209.448 50.9624 209.864 51.3773 209.864 51.889C209.864 52.4008 209.448 52.8156 208.936 52.8156C208.424 52.8156 208.009 52.4008 208.009 51.889Z" fill="black"/>
<path d="M197.807 62.0815C197.807 61.5698 198.222 61.1549 198.734 61.1549C199.247 61.1549 199.662 61.5698 199.662 62.0815C199.662 62.5933 199.247 63.0081 198.734 63.0081C198.222 63.0081 197.807 62.5933 197.807 62.0815Z" fill="black"/>
<path d="M228.412 51.889C228.412 51.3773 228.828 50.9624 229.34 50.9624C229.852 50.9624 230.267 51.3773 230.267 51.889C230.267 52.4008 229.852 52.8156 229.34 52.8156C228.828 52.8156 228.412 52.4008 228.412 51.889Z" fill="black"/>
<path d="M218.211 62.0815C218.211 61.5698 218.626 61.1549 219.138 61.1549C219.65 61.1549 220.065 61.5698 220.065 62.0815C220.065 62.5933 219.65 63.0081 219.138 63.0081C218.626 63.0081 218.211 62.5933 218.211 62.0815Z" fill="black"/>
<path d="M248.816 51.889C248.816 51.3773 249.231 50.9624 249.743 50.9624C250.256 50.9624 250.671 51.3773 250.671 51.889C250.671 52.4008 250.256 52.8156 249.743 52.8156C249.231 52.8156 248.816 52.4008 248.816 51.889Z" fill="black"/>
<path d="M238.614 62.0815C238.614 61.5698 239.029 61.1549 239.542 61.1549C240.054 61.1549 240.469 61.5698 240.469 62.0815C240.469 62.5933 240.054 63.0081 239.542 63.0081C239.029 63.0081 238.614 62.5933 238.614 62.0815Z" fill="black"/>
<path d="M269.219 51.889C269.219 51.3773 269.635 50.9624 270.147 50.9624C270.659 50.9624 271.074 51.3773 271.074 51.889C271.074 52.4008 270.659 52.8156 270.147 52.8156C269.635 52.8156 269.219 52.4008 269.219 51.889Z" fill="black"/>
<path d="M259.018 62.0815C259.018 61.5698 259.433 61.1549 259.945 61.1549C260.457 61.1549 260.873 61.5698 260.873 62.0815C260.873 62.5933 260.457 63.0081 259.945 63.0081C259.433 63.0081 259.018 62.5933 259.018 62.0815Z" fill="black"/>
<path d="M289.623 51.889C289.623 51.3773 290.038 50.9624 290.55 50.9624C291.063 50.9624 291.478 51.3773 291.478 51.889C291.478 52.4008 291.063 52.8156 290.55 52.8156C290.038 52.8156 289.623 52.4008 289.623 51.889Z" fill="black"/>
<path d="M279.421 62.0815C279.421 61.5698 279.836 61.1549 280.349 61.1549C280.861 61.1549 281.276 61.5698 281.276 62.0815C281.276 62.5933 280.861 63.0081 280.349 63.0081C279.836 63.0081 279.421 62.5933 279.421 62.0815Z" fill="black"/>
<path d="M310.026 51.889C310.026 51.3773 310.442 50.9624 310.954 50.9624C311.466 50.9624 311.881 51.3773 311.881 51.889C311.881 52.4008 311.466 52.8156 310.954 52.8156C310.442 52.8156 310.026 52.4008 310.026 51.889Z" fill="black"/>
<path d="M299.825 62.0815C299.825 61.5698 300.24 61.1549 300.752 61.1549C301.264 61.1549 301.68 61.5698 301.68 62.0815C301.68 62.5933 301.264 63.0081 300.752 63.0081C300.24 63.0081 299.825 62.5933 299.825 62.0815Z" fill="black"/>
<path d="M330.43 51.889C330.43 51.3773 330.845 50.9624 331.357 50.9624C331.87 50.9624 332.285 51.3773 332.285 51.889C332.285 52.4008 331.87 52.8156 331.357 52.8156C330.845 52.8156 330.43 52.4008 330.43 51.889Z" fill="black"/>
<path d="M320.228 62.0815C320.228 61.5698 320.643 61.1549 321.156 61.1549C321.668 61.1549 322.083 61.5698 322.083 62.0815C322.083 62.5933 321.668 63.0081 321.156 63.0081C320.643 63.0081 320.228 62.5933 320.228 62.0815Z" fill="black"/>
<path d="M350.834 51.889C350.834 51.3773 351.249 50.9624 351.761 50.9624C352.273 50.9624 352.688 51.3773 352.688 51.889C352.688 52.4008 352.273 52.8156 351.761 52.8156C351.249 52.8156 350.834 52.4008 350.834 51.889Z" fill="black"/>
<path d="M340.632 62.0815C340.632 61.5698 341.047 61.1549 341.559 61.1549C342.071 61.1549 342.487 61.5698 342.487 62.0815C342.487 62.5933 342.071 63.0081 341.559 63.0081C341.047 63.0081 340.632 62.5933 340.632 62.0815Z" fill="black"/>
<path d="M371.237 51.889C371.237 51.3773 371.652 50.9624 372.165 50.9624C372.677 50.9624 373.092 51.3773 373.092 51.889C373.092 52.4008 372.677 52.8156 372.165 52.8156C371.652 52.8156 371.237 52.4008 371.237 51.889Z" fill="black"/>
<path d="M361.035 62.0815C361.035 61.5698 361.451 61.1549 361.963 61.1549C362.475 61.1549 362.89 61.5698 362.89 62.0815C362.89 62.5933 362.475 63.0081 361.963 63.0081C361.451 63.0081 361.035 62.5933 361.035 62.0815Z" fill="black"/>
<path d="M167.202 72.274C167.202 71.7623 167.617 71.3474 168.129 71.3474C168.641 71.3474 169.057 71.7623 169.057 72.274C169.057 72.7857 168.641 73.2006 168.129 73.2006C167.617 73.2006 167.202 72.7857 167.202 72.274Z" fill="black"/>
<path d="M157 82.4665C157 81.9548 157.415 81.5399 157.927 81.5399C158.44 81.5399 158.855 81.9548 158.855 82.4665C158.855 82.9782 158.44 83.3931 157.927 83.3931C157.415 83.3931 157 82.9782 157 82.4665Z" fill="black"/>
<path d="M187.605 72.274C187.605 71.7623 188.021 71.3474 188.533 71.3474C189.045 71.3474 189.46 71.7623 189.46 72.274C189.46 72.7857 189.045 73.2006 188.533 73.2006C188.021 73.2006 187.605 72.7857 187.605 72.274Z" fill="black"/>
<path d="M177.404 82.4665C177.404 81.9548 177.819 81.5399 178.331 81.5399C178.843 81.5399 179.258 81.9548 179.258 82.4665C179.258 82.9782 178.843 83.3931 178.331 83.3931C177.819 83.3931 177.404 82.9782 177.404 82.4665Z" fill="black"/>
<path d="M208.009 72.274C208.009 71.7623 208.424 71.3474 208.936 71.3474C209.448 71.3474 209.864 71.7623 209.864 72.274C209.864 72.7857 209.448 73.2006 208.936 73.2006C208.424 73.2006 208.009 72.7857 208.009 72.274Z" fill="black"/>
<path d="M197.807 82.4665C197.807 81.9548 198.222 81.5399 198.734 81.5399C199.247 81.5399 199.662 81.9548 199.662 82.4665C199.662 82.9782 199.247 83.3931 198.734 83.3931C198.222 83.3931 197.807 82.9782 197.807 82.4665Z" fill="black"/>
<path d="M228.412 72.274C228.412 71.7623 228.828 71.3474 229.34 71.3474C229.852 71.3474 230.267 71.7623 230.267 72.274C230.267 72.7857 229.852 73.2006 229.34 73.2006C228.828 73.2006 228.412 72.7857 228.412 72.274Z" fill="black"/>
<path d="M218.211 82.4665C218.211 81.9548 218.626 81.5399 219.138 81.5399C219.65 81.5399 220.065 81.9548 220.065 82.4665C220.065 82.9782 219.65 83.3931 219.138 83.3931C218.626 83.3931 218.211 82.9782 218.211 82.4665Z" fill="black"/>
<path d="M248.816 72.274C248.816 71.7623 249.231 71.3474 249.743 71.3474C250.256 71.3474 250.671 71.7623 250.671 72.274C250.671 72.7857 250.256 73.2006 249.743 73.2006C249.231 73.2006 248.816 72.7857 248.816 72.274Z" fill="black"/>
<path d="M238.614 82.4665C238.614 81.9548 239.029 81.5399 239.542 81.5399C240.054 81.5399 240.469 81.9548 240.469 82.4665C240.469 82.9782 240.054 83.3931 239.542 83.3931C239.029 83.3931 238.614 82.9782 238.614 82.4665Z" fill="black"/>
<path d="M269.219 72.274C269.219 71.7623 269.635 71.3474 270.147 71.3474C270.659 71.3474 271.074 71.7623 271.074 72.274C271.074 72.7857 270.659 73.2006 270.147 73.2006C269.635 73.2006 269.219 72.7857 269.219 72.274Z" fill="black"/>
<path d="M259.018 82.4665C259.018 81.9548 259.433 81.5399 259.945 81.5399C260.457 81.5399 260.873 81.9548 260.873 82.4665C260.873 82.9782 260.457 83.3931 259.945 83.3931C259.433 83.3931 259.018 82.9782 259.018 82.4665Z" fill="black"/>
<path d="M289.623 72.274C289.623 71.7623 290.038 71.3474 290.55 71.3474C291.063 71.3474 291.478 71.7623 291.478 72.274C291.478 72.7857 291.063 73.2006 290.55 73.2006C290.038 73.2006 289.623 72.7857 289.623 72.274Z" fill="black"/>
<path d="M279.421 82.4665C279.421 81.9548 279.836 81.5399 280.349 81.5399C280.861 81.5399 281.276 81.9548 281.276 82.4665C281.276 82.9782 280.861 83.3931 280.349 83.3931C279.836 83.3931 279.421 82.9782 279.421 82.4665Z" fill="black"/>
<path d="M310.026 72.274C310.026 71.7623 310.442 71.3474 310.954 71.3474C311.466 71.3474 311.881 71.7623 311.881 72.274C311.881 72.7857 311.466 73.2006 310.954 73.2006C310.442 73.2006 310.026 72.7857 310.026 72.274Z" fill="black"/>
<path d="M299.825 82.4665C299.825 81.9548 300.24 81.5399 300.752 81.5399C301.264 81.5399 301.68 81.9548 301.68 82.4665C301.68 82.9782 301.264 83.3931 300.752 83.3931C300.24 83.3931 299.825 82.9782 299.825 82.4665Z" fill="black"/>
<path d="M330.43 72.274C330.43 71.7623 330.845 71.3474 331.357 71.3474C331.87 71.3474 332.285 71.7623 332.285 72.274C332.285 72.7857 331.87 73.2006 331.357 73.2006C330.845 73.2006 330.43 72.7857 330.43 72.274Z" fill="black"/>
<path d="M320.228 82.4665C320.228 81.9548 320.643 81.5399 321.156 81.5399C321.668 81.5399 322.083 81.9548 322.083 82.4665C322.083 82.9782 321.668 83.3931 321.156 83.3931C320.643 83.3931 320.228 82.9782 320.228 82.4665Z" fill="black"/>
<path d="M350.834 72.274C350.834 71.7623 351.249 71.3474 351.761 71.3474C352.273 71.3474 352.688 71.7623 352.688 72.274C352.688 72.7857 352.273 73.2006 351.761 73.2006C351.249 73.2006 350.834 72.7857 350.834 72.274Z" fill="black"/>
<path d="M340.632 82.4665C340.632 81.9548 341.047 81.5399 341.559 81.5399C342.071 81.5399 342.487 81.9548 342.487 82.4665C342.487 82.9782 342.071 83.3931 341.559 83.3931C341.047 83.3931 340.632 82.9782 340.632 82.4665Z" fill="black"/>
<path d="M371.237 72.274C371.237 71.7623 371.652 71.3474 372.165 71.3474C372.677 71.3474 373.092 71.7623 373.092 72.274C373.092 72.7857 372.677 73.2006 372.165 73.2006C371.652 73.2006 371.237 72.7857 371.237 72.274Z" fill="black"/>
<path d="M361.035 82.4665C361.035 81.9548 361.451 81.5399 361.963 81.5399C362.475 81.5399 362.89 81.9548 362.89 82.4665C362.89 82.9782 362.475 83.3931 361.963 83.3931C361.451 83.3931 361.035 82.9782 361.035 82.4665Z" fill="black"/>
<path d="M167.202 92.659C167.202 92.1472 167.617 91.7324 168.129 91.7324C168.641 91.7324 169.057 92.1472 169.057 92.659C169.057 93.1707 168.641 93.5856 168.129 93.5856C167.617 93.5856 167.202 93.1707 167.202 92.659Z" fill="black"/>
<path d="M157 102.851C157 102.34 157.415 101.925 157.927 101.925C158.44 101.925 158.855 102.34 158.855 102.851C158.855 103.363 158.44 103.778 157.927 103.778C157.415 103.778 157 103.363 157 102.851Z" fill="black"/>
<path d="M187.605 92.659C187.605 92.1472 188.021 91.7324 188.533 91.7324C189.045 91.7324 189.46 92.1472 189.46 92.659C189.46 93.1707 189.045 93.5856 188.533 93.5856C188.021 93.5856 187.605 93.1707 187.605 92.659Z" fill="black"/>
<path d="M177.404 102.851C177.404 102.34 177.819 101.925 178.331 101.925C178.843 101.925 179.258 102.34 179.258 102.851C179.258 103.363 178.843 103.778 178.331 103.778C177.819 103.778 177.404 103.363 177.404 102.851Z" fill="black"/>
<path d="M208.009 92.659C208.009 92.1472 208.424 91.7324 208.936 91.7324C209.448 91.7324 209.864 92.1472 209.864 92.659C209.864 93.1707 209.448 93.5856 208.936 93.5856C208.424 93.5856 208.009 93.1707 208.009 92.659Z" fill="black"/>
<path d="M197.807 102.851C197.807 102.34 198.222 101.925 198.734 101.925C199.247 101.925 199.662 102.34 199.662 102.851C199.662 103.363 199.247 103.778 198.734 103.778C198.222 103.778 197.807 103.363 197.807 102.851Z" fill="black"/>
<path d="M228.412 92.659C228.412 92.1472 228.828 91.7324 229.34 91.7324C229.852 91.7324 230.267 92.1472 230.267 92.659C230.267 93.1707 229.852 93.5856 229.34 93.5856C228.828 93.5856 228.412 93.1707 228.412 92.659Z" fill="black"/>
<path d="M218.211 102.851C218.211 102.34 218.626 101.925 219.138 101.925C219.65 101.925 220.065 102.34 220.065 102.851C220.065 103.363 219.65 103.778 219.138 103.778C218.626 103.778 218.211 103.363 218.211 102.851Z" fill="black"/>
<path d="M248.816 92.659C248.816 92.1472 249.231 91.7324 249.743 91.7324C250.256 91.7324 250.671 92.1472 250.671 92.659C250.671 93.1707 250.256 93.5856 249.743 93.5856C249.231 93.5856 248.816 93.1707 248.816 92.659Z" fill="black"/>
<path d="M238.614 102.851C238.614 102.34 239.029 101.925 239.542 101.925C240.054 101.925 240.469 102.34 240.469 102.851C240.469 103.363 240.054 103.778 239.542 103.778C239.029 103.778 238.614 103.363 238.614 102.851Z" fill="black"/>
<path d="M269.219 92.659C269.219 92.1472 269.635 91.7324 270.147 91.7324C270.659 91.7324 271.074 92.1472 271.074 92.659C271.074 93.1707 270.659 93.5856 270.147 93.5856C269.635 93.5856 269.219 93.1707 269.219 92.659Z" fill="black"/>
<path d="M259.018 102.851C259.018 102.34 259.433 101.925 259.945 101.925C260.457 101.925 260.873 102.34 260.873 102.851C260.873 103.363 260.457 103.778 259.945 103.778C259.433 103.778 259.018 103.363 259.018 102.851Z" fill="black"/>
<path d="M289.623 92.659C289.623 92.1472 290.038 91.7324 290.55 91.7324C291.063 91.7324 291.478 92.1472 291.478 92.659C291.478 93.1707 291.063 93.5856 290.55 93.5856C290.038 93.5856 289.623 93.1707 289.623 92.659Z" fill="black"/>
<path d="M279.421 102.851C279.421 102.34 279.836 101.925 280.349 101.925C280.861 101.925 281.276 102.34 281.276 102.851C281.276 103.363 280.861 103.778 280.349 103.778C279.836 103.778 279.421 103.363 279.421 102.851Z" fill="black"/>
<path d="M310.026 92.659C310.026 92.1472 310.442 91.7324 310.954 91.7324C311.466 91.7324 311.881 92.1472 311.881 92.659C311.881 93.1707 311.466 93.5856 310.954 93.5856C310.442 93.5856 310.026 93.1707 310.026 92.659Z" fill="black"/>
<path d="M299.825 102.851C299.825 102.34 300.24 101.925 300.752 101.925C301.264 101.925 301.68 102.34 301.68 102.851C301.68 103.363 301.264 103.778 300.752 103.778C300.24 103.778 299.825 103.363 299.825 102.851Z" fill="black"/>
<path d="M330.43 92.659C330.43 92.1472 330.845 91.7324 331.357 91.7324C331.87 91.7324 332.285 92.1472 332.285 92.659C332.285 93.1707 331.87 93.5856 331.357 93.5856C330.845 93.5856 330.43 93.1707 330.43 92.659Z" fill="black"/>
<path d="M320.228 102.851C320.228 102.34 320.643 101.925 321.156 101.925C321.668 101.925 322.083 102.34 322.083 102.851C322.083 103.363 321.668 103.778 321.156 103.778C320.643 103.778 320.228 103.363 320.228 102.851Z" fill="black"/>
<path d="M350.834 92.659C350.834 92.1472 351.249 91.7324 351.761 91.7324C352.273 91.7324 352.688 92.1472 352.688 92.659C352.688 93.1707 352.273 93.5856 351.761 93.5856C351.249 93.5856 350.834 93.1707 350.834 92.659Z" fill="black"/>
<path d="M340.632 102.851C340.632 102.34 341.047 101.925 341.559 101.925C342.071 101.925 342.487 102.34 342.487 102.851C342.487 103.363 342.071 103.778 341.559 103.778C341.047 103.778 340.632 103.363 340.632 102.851Z" fill="black"/>
<path d="M371.237 92.659C371.237 92.1472 371.652 91.7324 372.165 91.7324C372.677 91.7324 373.092 92.1472 373.092 92.659C373.092 93.1707 372.677 93.5856 372.165 93.5856C371.652 93.5856 371.237 93.1707 371.237 92.659Z" fill="black"/>
<path d="M361.035 102.851C361.035 102.34 361.451 101.925 361.963 101.925C362.475 101.925 362.89 102.34 362.89 102.851C362.89 103.363 362.475 103.778 361.963 103.778C361.451 103.778 361.035 103.363 361.035 102.851Z" fill="black"/>
<path d="M167.202 113.044C167.202 112.532 167.617 112.117 168.129 112.117C168.641 112.117 169.057 112.532 169.057 113.044C169.057 113.556 168.641 113.971 168.129 113.971C167.617 113.971 167.202 113.556 167.202 113.044Z" fill="black"/>
<path d="M157 123.236C157 122.725 157.415 122.31 157.927 122.31C158.44 122.31 158.855 122.725 158.855 123.236C158.855 123.748 158.44 124.163 157.927 124.163C157.415 124.163 157 123.748 157 123.236Z" fill="black"/>
<path d="M187.605 113.044C187.605 112.532 188.021 112.117 188.533 112.117C189.045 112.117 189.46 112.532 189.46 113.044C189.46 113.556 189.045 113.971 188.533 113.971C188.021 113.971 187.605 113.556 187.605 113.044Z" fill="black"/>
<path d="M177.404 123.236C177.404 122.725 177.819 122.31 178.331 122.31C178.843 122.31 179.258 122.725 179.258 123.236C179.258 123.748 178.843 124.163 178.331 124.163C177.819 124.163 177.404 123.748 177.404 123.236Z" fill="black"/>
<path d="M208.009 113.044C208.009 112.532 208.424 112.117 208.936 112.117C209.448 112.117 209.864 112.532 209.864 113.044C209.864 113.556 209.448 113.971 208.936 113.971C208.424 113.971 208.009 113.556 208.009 113.044Z" fill="black"/>
<path d="M197.807 123.236C197.807 122.725 198.222 122.31 198.734 122.31C199.247 122.31 199.662 122.725 199.662 123.236C199.662 123.748 199.247 124.163 198.734 124.163C198.222 124.163 197.807 123.748 197.807 123.236Z" fill="black"/>
<path d="M228.412 113.044C228.412 112.532 228.828 112.117 229.34 112.117C229.852 112.117 230.267 112.532 230.267 113.044C230.267 113.556 229.852 113.971 229.34 113.971C228.828 113.971 228.412 113.556 228.412 113.044Z" fill="black"/>
<path d="M218.211 123.236C218.211 122.725 218.626 122.31 219.138 122.31C219.65 122.31 220.065 122.725 220.065 123.236C220.065 123.748 219.65 124.163 219.138 124.163C218.626 124.163 218.211 123.748 218.211 123.236Z" fill="black"/>
<path d="M248.816 113.044C248.816 112.532 249.231 112.117 249.743 112.117C250.256 112.117 250.671 112.532 250.671 113.044C250.671 113.556 250.256 113.971 249.743 113.971C249.231 113.971 248.816 113.556 248.816 113.044Z" fill="black"/>
<path d="M238.614 123.236C238.614 122.725 239.029 122.31 239.542 122.31C240.054 122.31 240.469 122.725 240.469 123.236C240.469 123.748 240.054 124.163 239.542 124.163C239.029 124.163 238.614 123.748 238.614 123.236Z" fill="black"/>
<path d="M269.219 113.044C269.219 112.532 269.635 112.117 270.147 112.117C270.659 112.117 271.074 112.532 271.074 113.044C271.074 113.556 270.659 113.971 270.147 113.971C269.635 113.971 269.219 113.556 269.219 113.044Z" fill="black"/>
<path d="M259.018 123.236C259.018 122.725 259.433 122.31 259.945 122.31C260.457 122.31 260.873 122.725 260.873 123.236C260.873 123.748 260.457 124.163 259.945 124.163C259.433 124.163 259.018 123.748 259.018 123.236Z" fill="black"/>
<path d="M289.623 113.044C289.623 112.532 290.038 112.117 290.55 112.117C291.063 112.117 291.478 112.532 291.478 113.044C291.478 113.556 291.063 113.971 290.55 113.971C290.038 113.971 289.623 113.556 289.623 113.044Z" fill="black"/>
<path d="M279.421 123.236C279.421 122.725 279.836 122.31 280.349 122.31C280.861 122.31 281.276 122.725 281.276 123.236C281.276 123.748 280.861 124.163 280.349 124.163C279.836 124.163 279.421 123.748 279.421 123.236Z" fill="black"/>
<path d="M310.026 113.044C310.026 112.532 310.442 112.117 310.954 112.117C311.466 112.117 311.881 112.532 311.881 113.044C311.881 113.556 311.466 113.971 310.954 113.971C310.442 113.971 310.026 113.556 310.026 113.044Z" fill="black"/>
<path d="M299.825 123.236C299.825 122.725 300.24 122.31 300.752 122.31C301.264 122.31 301.68 122.725 301.68 123.236C301.68 123.748 301.264 124.163 300.752 124.163C300.24 124.163 299.825 123.748 299.825 123.236Z" fill="black"/>
<path d="M330.43 113.044C330.43 112.532 330.845 112.117 331.357 112.117C331.87 112.117 332.285 112.532 332.285 113.044C332.285 113.556 331.87 113.971 331.357 113.971C330.845 113.971 330.43 113.556 330.43 113.044Z" fill="black"/>
<path d="M320.228 123.236C320.228 122.725 320.643 122.31 321.156 122.31C321.668 122.31 322.083 122.725 322.083 123.236C322.083 123.748 321.668 124.163 321.156 124.163C320.643 124.163 320.228 123.748 320.228 123.236Z" fill="black"/>
<path d="M350.834 113.044C350.834 112.532 351.249 112.117 351.761 112.117C352.273 112.117 352.688 112.532 352.688 113.044C352.688 113.556 352.273 113.971 351.761 113.971C351.249 113.971 350.834 113.556 350.834 113.044Z" fill="black"/>
<path d="M340.632 123.236C340.632 122.725 341.047 122.31 341.559 122.31C342.071 122.31 342.487 122.725 342.487 123.236C342.487 123.748 342.071 124.163 341.559 124.163C341.047 124.163 340.632 123.748 340.632 123.236Z" fill="black"/>
<path d="M371.237 113.044C371.237 112.532 371.652 112.117 372.165 112.117C372.677 112.117 373.092 112.532 373.092 113.044C373.092 113.556 372.677 113.971 372.165 113.971C371.652 113.971 371.237 113.556 371.237 113.044Z" fill="black"/>
<path d="M361.035 123.236C361.035 122.725 361.451 122.31 361.963 122.31C362.475 122.31 362.89 122.725 362.89 123.236C362.89 123.748 362.475 124.163 361.963 124.163C361.451 124.163 361.035 123.748 361.035 123.236Z" fill="black"/>
<path d="M167.202 133.429C167.202 132.917 167.617 132.502 168.129 132.502C168.641 132.502 169.057 132.917 169.057 133.429C169.057 133.941 168.641 134.356 168.129 134.356C167.617 134.356 167.202 133.941 167.202 133.429Z" fill="black"/>
<path d="M157 143.621C157 143.11 157.415 142.695 157.927 142.695C158.44 142.695 158.855 143.11 158.855 143.621C158.855 144.133 158.44 144.548 157.927 144.548C157.415 144.548 157 144.133 157 143.621Z" fill="black"/>
<path d="M187.605 133.429C187.605 132.917 188.021 132.502 188.533 132.502C189.045 132.502 189.46 132.917 189.46 133.429C189.46 133.941 189.045 134.356 188.533 134.356C188.021 134.356 187.605 133.941 187.605 133.429Z" fill="black"/>
<path d="M177.404 143.621C177.404 143.11 177.819 142.695 178.331 142.695C178.843 142.695 179.258 143.11 179.258 143.621C179.258 144.133 178.843 144.548 178.331 144.548C177.819 144.548 177.404 144.133 177.404 143.621Z" fill="black"/>
<path d="M208.009 133.429C208.009 132.917 208.424 132.502 208.936 132.502C209.448 132.502 209.864 132.917 209.864 133.429C209.864 133.941 209.448 134.356 208.936 134.356C208.424 134.356 208.009 133.941 208.009 133.429Z" fill="black"/>
<path d="M197.807 143.621C197.807 143.11 198.222 142.695 198.734 142.695C199.247 142.695 199.662 143.11 199.662 143.621C199.662 144.133 199.247 144.548 198.734 144.548C198.222 144.548 197.807 144.133 197.807 143.621Z" fill="black"/>
<path d="M228.412 133.429C228.412 132.917 228.828 132.502 229.34 132.502C229.852 132.502 230.267 132.917 230.267 133.429C230.267 133.941 229.852 134.356 229.34 134.356C228.828 134.356 228.412 133.941 228.412 133.429Z" fill="black"/>
<path d="M218.211 143.621C218.211 143.11 218.626 142.695 219.138 142.695C219.65 142.695 220.065 143.11 220.065 143.621C220.065 144.133 219.65 144.548 219.138 144.548C218.626 144.548 218.211 144.133 218.211 143.621Z" fill="black"/>
<path d="M248.816 133.429C248.816 132.917 249.231 132.502 249.743 132.502C250.256 132.502 250.671 132.917 250.671 133.429C250.671 133.941 250.256 134.356 249.743 134.356C249.231 134.356 248.816 133.941 248.816 133.429Z" fill="black"/>
<path d="M238.614 143.621C238.614 143.11 239.029 142.695 239.542 142.695C240.054 142.695 240.469 143.11 240.469 143.621C240.469 144.133 240.054 144.548 239.542 144.548C239.029 144.548 238.614 144.133 238.614 143.621Z" fill="black"/>
<path d="M269.219 133.429C269.219 132.917 269.635 132.502 270.147 132.502C270.659 132.502 271.074 132.917 271.074 133.429C271.074 133.941 270.659 134.356 270.147 134.356C269.635 134.356 269.219 133.941 269.219 133.429Z" fill="black"/>
<path d="M259.018 143.621C259.018 143.11 259.433 142.695 259.945 142.695C260.457 142.695 260.873 143.11 260.873 143.621C260.873 144.133 260.457 144.548 259.945 144.548C259.433 144.548 259.018 144.133 259.018 143.621Z" fill="black"/>
<path d="M289.623 133.429C289.623 132.917 290.038 132.502 290.55 132.502C291.063 132.502 291.478 132.917 291.478 133.429C291.478 133.941 291.063 134.356 290.55 134.356C290.038 134.356 289.623 133.941 289.623 133.429Z" fill="black"/>
<path d="M279.421 143.621C279.421 143.11 279.836 142.695 280.349 142.695C280.861 142.695 281.276 143.11 281.276 143.621C281.276 144.133 280.861 144.548 280.349 144.548C279.836 144.548 279.421 144.133 279.421 143.621Z" fill="black"/>
<path d="M310.026 133.429C310.026 132.917 310.442 132.502 310.954 132.502C311.466 132.502 311.881 132.917 311.881 133.429C311.881 133.941 311.466 134.356 310.954 134.356C310.442 134.356 310.026 133.941 310.026 133.429Z" fill="black"/>
<path d="M299.825 143.621C299.825 143.11 300.24 142.695 300.752 142.695C301.264 142.695 301.68 143.11 301.68 143.621C301.68 144.133 301.264 144.548 300.752 144.548C300.24 144.548 299.825 144.133 299.825 143.621Z" fill="black"/>
<path d="M330.43 133.429C330.43 132.917 330.845 132.502 331.357 132.502C331.87 132.502 332.285 132.917 332.285 133.429C332.285 133.941 331.87 134.356 331.357 134.356C330.845 134.356 330.43 133.941 330.43 133.429Z" fill="black"/>
<path d="M320.228 143.621C320.228 143.11 320.643 142.695 321.156 142.695C321.668 142.695 322.083 143.11 322.083 143.621C322.083 144.133 321.668 144.548 321.156 144.548C320.643 144.548 320.228 144.133 320.228 143.621Z" fill="black"/>
<path d="M350.834 133.429C350.834 132.917 351.249 132.502 351.761 132.502C352.273 132.502 352.688 132.917 352.688 133.429C352.688 133.941 352.273 134.356 351.761 134.356C351.249 134.356 350.834 133.941 350.834 133.429Z" fill="black"/>
<path d="M340.632 143.621C340.632 143.11 341.047 142.695 341.559 142.695C342.071 142.695 342.487 143.11 342.487 143.621C342.487 144.133 342.071 144.548 341.559 144.548C341.047 144.548 340.632 144.133 340.632 143.621Z" fill="black"/>
<path d="M371.237 133.429C371.237 132.917 371.652 132.502 372.165 132.502C372.677 132.502 373.092 132.917 373.092 133.429C373.092 133.941 372.677 134.356 372.165 134.356C371.652 134.356 371.237 133.941 371.237 133.429Z" fill="black"/>
<path d="M361.035 143.621C361.035 143.11 361.451 142.695 361.963 142.695C362.475 142.695 362.89 143.11 362.89 143.621C362.89 144.133 362.475 144.548 361.963 144.548C361.451 144.548 361.035 144.133 361.035 143.621Z" fill="black"/>
<path d="M167.202 153.814C167.202 153.302 167.617 152.887 168.129 152.887C168.641 152.887 169.057 153.302 169.057 153.814C169.057 154.326 168.641 154.74 168.129 154.74C167.617 154.74 167.202 154.326 167.202 153.814Z" fill="black"/>
<path d="M157 164.006C157 163.495 157.415 163.08 157.927 163.08C158.44 163.08 158.855 163.495 158.855 164.006C158.855 164.518 158.44 164.933 157.927 164.933C157.415 164.933 157 164.518 157 164.006Z" fill="black"/>
<path d="M187.605 153.814C187.605 153.302 188.021 152.887 188.533 152.887C189.045 152.887 189.46 153.302 189.46 153.814C189.46 154.326 189.045 154.74 188.533 154.74C188.021 154.74 187.605 154.326 187.605 153.814Z" fill="black"/>
<path d="M177.404 164.006C177.404 163.495 177.819 163.08 178.331 163.08C178.843 163.08 179.258 163.495 179.258 164.006C179.258 164.518 178.843 164.933 178.331 164.933C177.819 164.933 177.404 164.518 177.404 164.006Z" fill="black"/>
<path d="M208.009 153.814C208.009 153.302 208.424 152.887 208.936 152.887C209.448 152.887 209.864 153.302 209.864 153.814C209.864 154.326 209.448 154.74 208.936 154.74C208.424 154.74 208.009 154.326 208.009 153.814Z" fill="black"/>
<path d="M197.807 164.006C197.807 163.495 198.222 163.08 198.734 163.08C199.247 163.08 199.662 163.495 199.662 164.006C199.662 164.518 199.247 164.933 198.734 164.933C198.222 164.933 197.807 164.518 197.807 164.006Z" fill="black"/>
<path d="M228.412 153.814C228.412 153.302 228.828 152.887 229.34 152.887C229.852 152.887 230.267 153.302 230.267 153.814C230.267 154.326 229.852 154.74 229.34 154.74C228.828 154.74 228.412 154.326 228.412 153.814Z" fill="black"/>
<path d="M218.211 164.006C218.211 163.495 218.626 163.08 219.138 163.08C219.65 163.08 220.065 163.495 220.065 164.006C220.065 164.518 219.65 164.933 219.138 164.933C218.626 164.933 218.211 164.518 218.211 164.006Z" fill="black"/>
<path d="M248.816 153.814C248.816 153.302 249.231 152.887 249.743 152.887C250.256 152.887 250.671 153.302 250.671 153.814C250.671 154.326 250.256 154.74 249.743 154.74C249.231 154.74 248.816 154.326 248.816 153.814Z" fill="black"/>
<path d="M238.614 164.006C238.614 163.495 239.029 163.08 239.542 163.08C240.054 163.08 240.469 163.495 240.469 164.006C240.469 164.518 240.054 164.933 239.542 164.933C239.029 164.933 238.614 164.518 238.614 164.006Z" fill="black"/>
<path d="M269.219 153.814C269.219 153.302 269.635 152.887 270.147 152.887C270.659 152.887 271.074 153.302 271.074 153.814C271.074 154.326 270.659 154.74 270.147 154.74C269.635 154.74 269.219 154.326 269.219 153.814Z" fill="black"/>
<path d="M259.018 164.006C259.018 163.495 259.433 163.08 259.945 163.08C260.457 163.08 260.873 163.495 260.873 164.006C260.873 164.518 260.457 164.933 259.945 164.933C259.433 164.933 259.018 164.518 259.018 164.006Z" fill="black"/>
<path d="M289.623 153.814C289.623 153.302 290.038 152.887 290.55 152.887C291.063 152.887 291.478 153.302 291.478 153.814C291.478 154.326 291.063 154.74 290.55 154.74C290.038 154.74 289.623 154.326 289.623 153.814Z" fill="black"/>
<path d="M279.421 164.006C279.421 163.495 279.836 163.08 280.349 163.08C280.861 163.08 281.276 163.495 281.276 164.006C281.276 164.518 280.861 164.933 280.349 164.933C279.836 164.933 279.421 164.518 279.421 164.006Z" fill="black"/>
<path d="M310.026 153.814C310.026 153.302 310.442 152.887 310.954 152.887C311.466 152.887 311.881 153.302 311.881 153.814C311.881 154.326 311.466 154.74 310.954 154.74C310.442 154.74 310.026 154.326 310.026 153.814Z" fill="black"/>
<path d="M299.825 164.006C299.825 163.495 300.24 163.08 300.752 163.08C301.264 163.08 301.68 163.495 301.68 164.006C301.68 164.518 301.264 164.933 300.752 164.933C300.24 164.933 299.825 164.518 299.825 164.006Z" fill="black"/>
<path d="M330.43 153.814C330.43 153.302 330.845 152.887 331.357 152.887C331.87 152.887 332.285 153.302 332.285 153.814C332.285 154.326 331.87 154.74 331.357 154.74C330.845 154.74 330.43 154.326 330.43 153.814Z" fill="black"/>
<path d="M320.228 164.006C320.228 163.495 320.643 163.08 321.156 163.08C321.668 163.08 322.083 163.495 322.083 164.006C322.083 164.518 321.668 164.933 321.156 164.933C320.643 164.933 320.228 164.518 320.228 164.006Z" fill="black"/>
<path d="M350.834 153.814C350.834 153.302 351.249 152.887 351.761 152.887C352.273 152.887 352.688 153.302 352.688 153.814C352.688 154.326 352.273 154.74 351.761 154.74C351.249 154.74 350.834 154.326 350.834 153.814Z" fill="black"/>
<path d="M340.632 164.006C340.632 163.495 341.047 163.08 341.559 163.08C342.071 163.08 342.487 163.495 342.487 164.006C342.487 164.518 342.071 164.933 341.559 164.933C341.047 164.933 340.632 164.518 340.632 164.006Z" fill="black"/>
<path d="M371.237 153.814C371.237 153.302 371.652 152.887 372.165 152.887C372.677 152.887 373.092 153.302 373.092 153.814C373.092 154.326 372.677 154.74 372.165 154.74C371.652 154.74 371.237 154.326 371.237 153.814Z" fill="black"/>
<path d="M361.035 164.006C361.035 163.495 361.451 163.08 361.963 163.08C362.475 163.08 362.89 163.495 362.89 164.006C362.89 164.518 362.475 164.933 361.963 164.933C361.451 164.933 361.035 164.518 361.035 164.006Z" fill="black"/>
<path d="M167.202 174.199C167.202 173.687 167.617 173.272 168.129 173.272C168.641 173.272 169.057 173.687 169.057 174.199C169.057 174.711 168.641 175.125 168.129 175.125C167.617 175.125 167.202 174.711 167.202 174.199Z" fill="black"/>
<path d="M157 184.391C157 183.88 157.415 183.465 157.927 183.465C158.44 183.465 158.855 183.88 158.855 184.391C158.855 184.903 158.44 185.318 157.927 185.318C157.415 185.318 157 184.903 157 184.391Z" fill="black"/>
<path d="M187.605 174.199C187.605 173.687 188.021 173.272 188.533 173.272C189.045 173.272 189.46 173.687 189.46 174.199C189.46 174.711 189.045 175.125 188.533 175.125C188.021 175.125 187.605 174.711 187.605 174.199Z" fill="black"/>
<path d="M177.404 184.391C177.404 183.88 177.819 183.465 178.331 183.465C178.843 183.465 179.258 183.88 179.258 184.391C179.258 184.903 178.843 185.318 178.331 185.318C177.819 185.318 177.404 184.903 177.404 184.391Z" fill="black"/>
<path d="M208.009 174.199C208.009 173.687 208.424 173.272 208.936 173.272C209.448 173.272 209.864 173.687 209.864 174.199C209.864 174.711 209.448 175.125 208.936 175.125C208.424 175.125 208.009 174.711 208.009 174.199Z" fill="black"/>
<path d="M197.807 184.391C197.807 183.88 198.222 183.465 198.734 183.465C199.247 183.465 199.662 183.88 199.662 184.391C199.662 184.903 199.247 185.318 198.734 185.318C198.222 185.318 197.807 184.903 197.807 184.391Z" fill="black"/>
<path d="M228.412 174.199C228.412 173.687 228.828 173.272 229.34 173.272C229.852 173.272 230.267 173.687 230.267 174.199C230.267 174.711 229.852 175.125 229.34 175.125C228.828 175.125 228.412 174.711 228.412 174.199Z" fill="black"/>
<path d="M218.211 184.391C218.211 183.88 218.626 183.465 219.138 183.465C219.65 183.465 220.065 183.88 220.065 184.391C220.065 184.903 219.65 185.318 219.138 185.318C218.626 185.318 218.211 184.903 218.211 184.391Z" fill="black"/>
<path d="M248.816 174.199C248.816 173.687 249.231 173.272 249.743 173.272C250.256 173.272 250.671 173.687 250.671 174.199C250.671 174.711 250.256 175.125 249.743 175.125C249.231 175.125 248.816 174.711 248.816 174.199Z" fill="black"/>
<path d="M238.614 184.391C238.614 183.88 239.029 183.465 239.542 183.465C240.054 183.465 240.469 183.88 240.469 184.391C240.469 184.903 240.054 185.318 239.542 185.318C239.029 185.318 238.614 184.903 238.614 184.391Z" fill="black"/>
<path d="M269.219 174.199C269.219 173.687 269.635 173.272 270.147 173.272C270.659 173.272 271.074 173.687 271.074 174.199C271.074 174.711 270.659 175.125 270.147 175.125C269.635 175.125 269.219 174.711 269.219 174.199Z" fill="black"/>
<path d="M259.018 184.391C259.018 183.88 259.433 183.465 259.945 183.465C260.457 183.465 260.873 183.88 260.873 184.391C260.873 184.903 260.457 185.318 259.945 185.318C259.433 185.318 259.018 184.903 259.018 184.391Z" fill="black"/>
<path d="M289.623 174.199C289.623 173.687 290.038 173.272 290.55 173.272C291.063 173.272 291.478 173.687 291.478 174.199C291.478 174.711 291.063 175.125 290.55 175.125C290.038 175.125 289.623 174.711 289.623 174.199Z" fill="black"/>
<path d="M279.421 184.391C279.421 183.88 279.836 183.465 280.349 183.465C280.861 183.465 281.276 183.88 281.276 184.391C281.276 184.903 280.861 185.318 280.349 185.318C279.836 185.318 279.421 184.903 279.421 184.391Z" fill="black"/>
<path d="M310.026 174.199C310.026 173.687 310.442 173.272 310.954 173.272C311.466 173.272 311.881 173.687 311.881 174.199C311.881 174.711 311.466 175.125 310.954 175.125C310.442 175.125 310.026 174.711 310.026 174.199Z" fill="black"/>
<path d="M299.825 184.391C299.825 183.88 300.24 183.465 300.752 183.465C301.264 183.465 301.68 183.88 301.68 184.391C301.68 184.903 301.264 185.318 300.752 185.318C300.24 185.318 299.825 184.903 299.825 184.391Z" fill="black"/>
<path d="M330.43 174.199C330.43 173.687 330.845 173.272 331.357 173.272C331.87 173.272 332.285 173.687 332.285 174.199C332.285 174.711 331.87 175.125 331.357 175.125C330.845 175.125 330.43 174.711 330.43 174.199Z" fill="black"/>
<path d="M320.228 184.391C320.228 183.88 320.643 183.465 321.156 183.465C321.668 183.465 322.083 183.88 322.083 184.391C322.083 184.903 321.668 185.318 321.156 185.318C320.643 185.318 320.228 184.903 320.228 184.391Z" fill="black"/>
<path d="M350.834 174.199C350.834 173.687 351.249 173.272 351.761 173.272C352.273 173.272 352.688 173.687 352.688 174.199C352.688 174.711 352.273 175.125 351.761 175.125C351.249 175.125 350.834 174.711 350.834 174.199Z" fill="black"/>
<path d="M340.632 184.391C340.632 183.88 341.047 183.465 341.559 183.465C342.071 183.465 342.487 183.88 342.487 184.391C342.487 184.903 342.071 185.318 341.559 185.318C341.047 185.318 340.632 184.903 340.632 184.391Z" fill="black"/>
<path d="M371.237 174.199C371.237 173.687 371.652 173.272 372.165 173.272C372.677 173.272 373.092 173.687 373.092 174.199C373.092 174.711 372.677 175.125 372.165 175.125C371.652 175.125 371.237 174.711 371.237 174.199Z" fill="black"/>
<path d="M361.035 184.391C361.035 183.88 361.451 183.465 361.963 183.465C362.475 183.465 362.89 183.88 362.89 184.391C362.89 184.903 362.475 185.318 361.963 185.318C361.451 185.318 361.035 184.903 361.035 184.391Z" fill="black"/>
<path d="M167.202 194.584C167.202 194.072 167.617 193.657 168.129 193.657C168.641 193.657 169.057 194.072 169.057 194.584C169.057 195.096 168.641 195.51 168.129 195.51C167.617 195.51 167.202 195.096 167.202 194.584Z" fill="black"/>
<path d="M157 204.776C157 204.265 157.415 203.85 157.927 203.85C158.44 203.85 158.855 204.265 158.855 204.776C158.855 205.288 158.44 205.703 157.927 205.703C157.415 205.703 157 205.288 157 204.776Z" fill="black"/>
<path d="M187.605 194.584C187.605 194.072 188.021 193.657 188.533 193.657C189.045 193.657 189.46 194.072 189.46 194.584C189.46 195.096 189.045 195.51 188.533 195.51C188.021 195.51 187.605 195.096 187.605 194.584Z" fill="black"/>
<path d="M177.404 204.776C177.404 204.265 177.819 203.85 178.331 203.85C178.843 203.85 179.258 204.265 179.258 204.776C179.258 205.288 178.843 205.703 178.331 205.703C177.819 205.703 177.404 205.288 177.404 204.776Z" fill="black"/>
<path d="M208.009 194.584C208.009 194.072 208.424 193.657 208.936 193.657C209.448 193.657 209.864 194.072 209.864 194.584C209.864 195.096 209.448 195.51 208.936 195.51C208.424 195.51 208.009 195.096 208.009 194.584Z" fill="black"/>
<path d="M197.807 204.776C197.807 204.265 198.222 203.85 198.734 203.85C199.247 203.85 199.662 204.265 199.662 204.776C199.662 205.288 199.247 205.703 198.734 205.703C198.222 205.703 197.807 205.288 197.807 204.776Z" fill="black"/>
<path d="M228.412 194.584C228.412 194.072 228.828 193.657 229.34 193.657C229.852 193.657 230.267 194.072 230.267 194.584C230.267 195.096 229.852 195.51 229.34 195.51C228.828 195.51 228.412 195.096 228.412 194.584Z" fill="black"/>
<path d="M218.211 204.776C218.211 204.265 218.626 203.85 219.138 203.85C219.65 203.85 220.065 204.265 220.065 204.776C220.065 205.288 219.65 205.703 219.138 205.703C218.626 205.703 218.211 205.288 218.211 204.776Z" fill="black"/>
<path d="M248.816 194.584C248.816 194.072 249.231 193.657 249.743 193.657C250.256 193.657 250.671 194.072 250.671 194.584C250.671 195.096 250.256 195.51 249.743 195.51C249.231 195.51 248.816 195.096 248.816 194.584Z" fill="black"/>
<path d="M238.614 204.776C238.614 204.265 239.029 203.85 239.542 203.85C240.054 203.85 240.469 204.265 240.469 204.776C240.469 205.288 240.054 205.703 239.542 205.703C239.029 205.703 238.614 205.288 238.614 204.776Z" fill="black"/>
<path d="M269.219 194.584C269.219 194.072 269.635 193.657 270.147 193.657C270.659 193.657 271.074 194.072 271.074 194.584C271.074 195.096 270.659 195.51 270.147 195.51C269.635 195.51 269.219 195.096 269.219 194.584Z" fill="black"/>
<path d="M259.018 204.776C259.018 204.265 259.433 203.85 259.945 203.85C260.457 203.85 260.873 204.265 260.873 204.776C260.873 205.288 260.457 205.703 259.945 205.703C259.433 205.703 259.018 205.288 259.018 204.776Z" fill="black"/>
<path d="M289.623 194.584C289.623 194.072 290.038 193.657 290.55 193.657C291.063 193.657 291.478 194.072 291.478 194.584C291.478 195.096 291.063 195.51 290.55 195.51C290.038 195.51 289.623 195.096 289.623 194.584Z" fill="black"/>
<path d="M279.421 204.776C279.421 204.265 279.836 203.85 280.349 203.85C280.861 203.85 281.276 204.265 281.276 204.776C281.276 205.288 280.861 205.703 280.349 205.703C279.836 205.703 279.421 205.288 279.421 204.776Z" fill="black"/>
<path d="M310.026 194.584C310.026 194.072 310.442 193.657 310.954 193.657C311.466 193.657 311.881 194.072 311.881 194.584C311.881 195.096 311.466 195.51 310.954 195.51C310.442 195.51 310.026 195.096 310.026 194.584Z" fill="black"/>
<path d="M299.825 204.776C299.825 204.265 300.24 203.85 300.752 203.85C301.264 203.85 301.68 204.265 301.68 204.776C301.68 205.288 301.264 205.703 300.752 205.703C300.24 205.703 299.825 205.288 299.825 204.776Z" fill="black"/>
<path d="M330.43 194.584C330.43 194.072 330.845 193.657 331.357 193.657C331.87 193.657 332.285 194.072 332.285 194.584C332.285 195.096 331.87 195.51 331.357 195.51C330.845 195.51 330.43 195.096 330.43 194.584Z" fill="black"/>
<path d="M320.228 204.776C320.228 204.265 320.643 203.85 321.156 203.85C321.668 203.85 322.083 204.265 322.083 204.776C322.083 205.288 321.668 205.703 321.156 205.703C320.643 205.703 320.228 205.288 320.228 204.776Z" fill="black"/>
<path d="M350.834 194.584C350.834 194.072 351.249 193.657 351.761 193.657C352.273 193.657 352.688 194.072 352.688 194.584C352.688 195.096 352.273 195.51 351.761 195.51C351.249 195.51 350.834 195.096 350.834 194.584Z" fill="black"/>
<path d="M340.632 204.776C340.632 204.265 341.047 203.85 341.559 203.85C342.071 203.85 342.487 204.265 342.487 204.776C342.487 205.288 342.071 205.703 341.559 205.703C341.047 205.703 340.632 205.288 340.632 204.776Z" fill="black"/>
<path d="M371.237 194.584C371.237 194.072 371.652 193.657 372.165 193.657C372.677 193.657 373.092 194.072 373.092 194.584C373.092 195.096 372.677 195.51 372.165 195.51C371.652 195.51 371.237 195.096 371.237 194.584Z" fill="black"/>
<path d="M361.035 204.776C361.035 204.265 361.451 203.85 361.963 203.85C362.475 203.85 362.89 204.265 362.89 204.776C362.89 205.288 362.475 205.703 361.963 205.703C361.451 205.703 361.035 205.288 361.035 204.776Z" fill="black"/>
</mask>
<g mask="url(#mask0)">
<circle cx="244.868" cy="105.475" r="76.3218" fill="#DCB1DC"/>
</g>
<rect x="206" y="40.8208" width="22.374" height="11.187" rx="5.59349" transform="rotate(-45 206 40.8208)" fill="#F7931E"/>
<rect x="233" y="98.8208" width="22.374" height="11.187" rx="5.59349" transform="rotate(-45 233 98.8208)" fill="#F7931E"/>
<rect x="194" y="108.642" width="44.7479" height="11.187" rx="5.59349" transform="rotate(-45 194 108.642)" fill="#F7931E"/>
<path d="M7.44514 235.248L26.6452 178.378C28.9117 171.665 34.1258 166.342 40.8149 163.913L78.2271 150.326L80.1568 149.625C85.0242 147.858 89.7443 150.319 91.5674 155.143C93.3801 159.938 90.9946 164.959 86.2054 166.846L75.759 170.893C71.7858 172.458 69.1635 177.591 70.724 181.547C71.1097 182.525 72.3449 183.381 73.0367 184.092C73.356 184.42 73.7025 184.718 74.071 184.982C76.0977 186.437 78.7908 186.89 81.3055 185.966L131.896 167.376L145.864 141.806C146.369 140.881 147.025 140.082 147.787 139.426C150.072 137.458 153.313 137.443 156.303 138.505L155.968 138.172C160.501 139.781 162.82 144.78 161.109 149.254L147.811 182.823C146.759 185.575 144.696 187.828 142.039 189.127L133.974 193.398L68.1892 225.562C66.3181 226.477 65.1329 228.37 65.1329 230.443V236.113C65.1329 237.615 63.9084 238.832 62.3982 238.832H10.0376C8.16855 238.833 6.85018 237.01 7.44514 235.248Z" fill="#FED2A4"/>
<path d="M156.303 137.838C153.594 136.876 150.683 137.348 148.459 138.908C151.581 141.1 152.956 145.192 151.53 148.92L135.953 189.724C135.387 191.204 134.526 192.538 133.44 193.66L133.974 193.398L142.71 189.127C145.367 187.828 147.429 185.575 148.482 182.823L161.445 148.92C163.155 144.446 160.836 139.448 156.303 137.838Z" fill="#FFBD86"/>
<path d="M82.3233 155.143C84.1361 159.938 81.7505 165.292 76.9613 167.179L65.8442 171.559C61.871 173.125 59.9194 177.591 61.4799 181.547C63.0223 185.458 67.4282 187.422 71.3907 185.966L74.0717 184.981C72.9049 184.144 71.9578 182.976 71.3944 181.547C69.8339 177.591 71.7854 173.125 75.7586 171.559L86.8758 167.179C91.665 165.292 94.0505 159.938 92.2378 155.143C90.4143 150.319 85.0238 147.857 80.1565 149.625L78.2267 150.326C80.0465 151.376 81.5262 153.033 82.3233 155.143Z" fill="#FFBD86"/>
<path d="M152.969 100.114V111.003L140.868 113.998C140.116 116.758 139.012 119.411 137.582 121.893L143.989 132.51L136.268 140.188L125.591 133.817C123.095 135.238 120.427 136.336 117.651 137.084L114.64 149.117H103.688L100.677 137.084C97.9011 136.336 95.2329 135.238 92.7373 133.817L82.0599 140.188L74.3393 132.51L80.7458 121.893C79.3166 119.411 78.2125 116.758 77.4604 113.998L65.3594 111.003V100.114L77.4604 97.1191C78.2125 94.3589 79.3166 91.7057 80.7458 89.2241L74.3393 78.6067L82.0599 70.9295L92.7373 77.3C95.2329 75.8788 97.9011 74.7809 100.677 74.0331L103.688 62H114.64L117.651 74.0331C120.427 74.7809 123.095 75.8788 125.591 77.3L136.268 70.9295L143.989 78.6067L137.582 89.2241C139.012 91.7057 140.116 94.3589 140.868 97.1191L152.969 100.114Z" fill="url(#paint0_linear)"/>
<path d="M109.164 127.338C104.832 127.338 100.598 126.061 96.9958 123.667C93.394 121.274 90.5867 117.873 88.9289 113.893C87.2712 109.914 86.8375 105.534 87.6826 101.31C88.5277 97.0849 90.6137 93.2042 93.6768 90.1583C96.7399 87.1124 100.642 85.0381 104.891 84.1978C109.14 83.3574 113.544 83.7887 117.546 85.4372C121.548 87.0856 124.969 89.8771 127.375 93.4587C129.782 97.0403 131.066 101.251 131.066 105.559C131.066 111.335 128.759 116.874 124.651 120.959C120.544 125.043 114.973 127.338 109.164 127.338ZM109.164 94.669C106.998 94.669 104.881 95.3076 103.08 96.5042C101.279 97.7008 99.8754 99.4015 99.0465 101.391C98.2176 103.381 98.0008 105.571 98.4233 107.683C98.8459 109.795 99.8889 111.736 101.42 113.259C102.952 114.782 104.903 115.819 107.028 116.239C109.152 116.659 111.354 116.444 113.355 115.619C115.356 114.795 117.066 113.399 118.27 111.609C119.473 109.818 120.115 107.712 120.115 105.559C120.115 102.67 118.961 99.9007 116.908 97.8585C114.854 95.8163 112.069 94.669 109.164 94.669Z" fill="#90278E"/>
<defs>
<linearGradient id="paint0_linear" x1="152.969" y1="105.559" x2="65.3594" y2="105.559" gradientUnits="userSpaceOnUse">
<stop stop-color="#90278E"/>
<stop offset="1" stop-color="#DB48D8"/>
</linearGradient>
</defs>
</svg>
