<svg width="382" height="249" viewBox="0 0 382 249" fill="none" xmlns="http://www.w3.org/2000/svg">
<circle cx="162" cy="136" r="102" fill="white"/>
<mask id="mask0" mask-type="alpha" maskUnits="userSpaceOnUse" x="160" y="0" width="222" height="211">
<path d="M160 21.7959C160 21.2725 160.425 20.8483 160.949 20.8483C161.472 20.8483 161.897 21.2725 161.897 21.7959C161.897 22.3193 161.472 22.7436 160.949 22.7436C160.425 22.7436 160 22.3193 160 21.7959Z" fill="black"/>
<path d="M160 0.947649C160 0.424277 160.425 0 160.949 0C161.472 0 161.897 0.424277 161.897 0.947649C161.897 1.47102 161.472 1.8953 160.949 1.8953C160.425 1.8953 160 1.47102 160 0.947649Z" fill="black"/>
<path d="M170.434 11.3718C170.434 10.8484 170.858 10.4241 171.382 10.4241C171.906 10.4241 172.331 10.8484 172.331 11.3718C172.331 11.8952 171.906 12.3194 171.382 12.3194C170.858 12.3194 170.434 11.8952 170.434 11.3718Z" fill="black"/>
<path d="M180.867 21.7959C180.867 21.2725 181.292 20.8483 181.816 20.8483C182.34 20.8483 182.764 21.2725 182.764 21.7959C182.764 22.3193 182.34 22.7436 181.816 22.7436C181.292 22.7436 180.867 22.3193 180.867 21.7959Z" fill="black"/>
<path d="M191.301 11.3718C191.301 10.8484 191.726 10.4241 192.249 10.4241C192.773 10.4241 193.198 10.8484 193.198 11.3718C193.198 11.8952 192.773 12.3194 192.249 12.3194C191.726 12.3194 191.301 11.8952 191.301 11.3718Z" fill="black"/>
<path d="M180.867 0.947649C180.867 0.424277 181.292 0 181.816 0C182.34 0 182.764 0.424277 182.764 0.947649C182.764 1.47102 182.34 1.8953 181.816 1.8953C181.292 1.8953 180.867 1.47102 180.867 0.947649Z" fill="black"/>
<path d="M201.734 21.7959C201.734 21.2725 202.159 20.8483 202.683 20.8483C203.207 20.8483 203.632 21.2725 203.632 21.7959C203.632 22.3193 203.207 22.7436 202.683 22.7436C202.159 22.7436 201.734 22.3193 201.734 21.7959Z" fill="black"/>
<path d="M212.168 11.3718C212.168 10.8484 212.593 10.4241 213.117 10.4241C213.64 10.4241 214.065 10.8484 214.065 11.3718C214.065 11.8952 213.64 12.3194 213.117 12.3194C212.593 12.3194 212.168 11.8952 212.168 11.3718Z" fill="black"/>
<path d="M201.734 0.947649C201.734 0.424277 202.159 0 202.683 0C203.207 0 203.632 0.424277 203.632 0.947649C203.632 1.47102 203.207 1.8953 202.683 1.8953C202.159 1.8953 201.734 1.47102 201.734 0.947649Z" fill="black"/>
<path d="M222.602 21.7959C222.602 21.2725 223.026 20.8483 223.55 20.8483C224.074 20.8483 224.499 21.2725 224.499 21.7959C224.499 22.3193 224.074 22.7436 223.55 22.7436C223.026 22.7436 222.602 22.3193 222.602 21.7959Z" fill="black"/>
<path d="M233.035 11.3718C233.035 10.8484 233.46 10.4241 233.984 10.4241C234.508 10.4241 234.932 10.8484 234.932 11.3718C234.932 11.8952 234.508 12.3194 233.984 12.3194C233.46 12.3194 233.035 11.8952 233.035 11.3718Z" fill="black"/>
<path d="M222.602 0.947649C222.602 0.424277 223.026 0 223.55 0C224.074 0 224.499 0.424277 224.499 0.947649C224.499 1.47102 224.074 1.8953 223.55 1.8953C223.026 1.8953 222.602 1.47102 222.602 0.947649Z" fill="black"/>
<path d="M243.469 21.7959C243.469 21.2725 243.894 20.8483 244.418 20.8483C244.941 20.8483 245.366 21.2725 245.366 21.7959C245.366 22.3193 244.941 22.7436 244.418 22.7436C243.894 22.7436 243.469 22.3193 243.469 21.7959Z" fill="black"/>
<path d="M253.903 11.3718C253.903 10.8484 254.327 10.4241 254.851 10.4241C255.375 10.4241 255.8 10.8484 255.8 11.3718C255.8 11.8952 255.375 12.3194 254.851 12.3194C254.327 12.3194 253.903 11.8952 253.903 11.3718Z" fill="black"/>
<path d="M243.469 0.947649C243.469 0.424277 243.894 0 244.418 0C244.941 0 245.366 0.424277 245.366 0.947649C245.366 1.47102 244.941 1.8953 244.418 1.8953C243.894 1.8953 243.469 1.47102 243.469 0.947649Z" fill="black"/>
<path d="M264.336 21.7959C264.336 21.2725 264.761 20.8483 265.285 20.8483C265.809 20.8483 266.233 21.2725 266.233 21.7959C266.233 22.3193 265.809 22.7436 265.285 22.7436C264.761 22.7436 264.336 22.3193 264.336 21.7959Z" fill="black"/>
<path d="M274.77 11.3718C274.77 10.8484 275.195 10.4241 275.718 10.4241C276.242 10.4241 276.667 10.8484 276.667 11.3718C276.667 11.8952 276.242 12.3194 275.718 12.3194C275.195 12.3194 274.77 11.8952 274.77 11.3718Z" fill="black"/>
<path d="M264.336 0.947649C264.336 0.424277 264.761 0 265.285 0C265.809 0 266.233 0.424277 266.233 0.947649C266.233 1.47102 265.809 1.8953 265.285 1.8953C264.761 1.8953 264.336 1.47102 264.336 0.947649Z" fill="black"/>
<path d="M285.203 21.7959C285.203 21.2725 285.628 20.8483 286.152 20.8483C286.676 20.8483 287.101 21.2725 287.101 21.7959C287.101 22.3193 286.676 22.7436 286.152 22.7436C285.628 22.7436 285.203 22.3193 285.203 21.7959Z" fill="black"/>
<path d="M295.637 11.3718C295.637 10.8484 296.062 10.4241 296.586 10.4241C297.109 10.4241 297.534 10.8484 297.534 11.3718C297.534 11.8952 297.109 12.3194 296.586 12.3194C296.062 12.3194 295.637 11.8952 295.637 11.3718Z" fill="black"/>
<path d="M285.203 0.947649C285.203 0.424277 285.628 0 286.152 0C286.676 0 287.101 0.424277 287.101 0.947649C287.101 1.47102 286.676 1.8953 286.152 1.8953C285.628 1.8953 285.203 1.47102 285.203 0.947649Z" fill="black"/>
<path d="M306.071 21.7959C306.071 21.2725 306.495 20.8483 307.019 20.8483C307.543 20.8483 307.968 21.2725 307.968 21.7959C307.968 22.3193 307.543 22.7436 307.019 22.7436C306.495 22.7436 306.071 22.3193 306.071 21.7959Z" fill="black"/>
<path d="M316.504 11.3718C316.504 10.8484 316.929 10.4241 317.453 10.4241C317.977 10.4241 318.401 10.8484 318.401 11.3718C318.401 11.8952 317.977 12.3194 317.453 12.3194C316.929 12.3194 316.504 11.8952 316.504 11.3718Z" fill="black"/>
<path d="M306.071 0.947649C306.071 0.424277 306.495 0 307.019 0C307.543 0 307.968 0.424277 307.968 0.947649C307.968 1.47102 307.543 1.8953 307.019 1.8953C306.495 1.8953 306.071 1.47102 306.071 0.947649Z" fill="black"/>
<path d="M326.938 21.7959C326.938 21.2725 327.363 20.8483 327.887 20.8483C328.41 20.8483 328.835 21.2725 328.835 21.7959C328.835 22.3193 328.41 22.7436 327.887 22.7436C327.363 22.7436 326.938 22.3193 326.938 21.7959Z" fill="black"/>
<path d="M337.372 11.3718C337.372 10.8484 337.796 10.4241 338.32 10.4241C338.844 10.4241 339.269 10.8484 339.269 11.3718C339.269 11.8952 338.844 12.3194 338.32 12.3194C337.796 12.3194 337.372 11.8952 337.372 11.3718Z" fill="black"/>
<path d="M326.938 0.947649C326.938 0.424277 327.363 0 327.887 0C328.41 0 328.835 0.424277 328.835 0.947649C328.835 1.47102 328.41 1.8953 327.887 1.8953C327.363 1.8953 326.938 1.47102 326.938 0.947649Z" fill="black"/>
<path d="M347.805 21.7959C347.805 21.2725 348.23 20.8483 348.754 20.8483C349.278 20.8483 349.702 21.2725 349.702 21.7959C349.702 22.3193 349.278 22.7436 348.754 22.7436C348.23 22.7436 347.805 22.3193 347.805 21.7959Z" fill="black"/>
<path d="M358.239 11.3718C358.239 10.8484 358.664 10.4241 359.187 10.4241C359.711 10.4241 360.136 10.8484 360.136 11.3718C360.136 11.8952 359.711 12.3194 359.187 12.3194C358.664 12.3194 358.239 11.8952 358.239 11.3718Z" fill="black"/>
<path d="M347.805 0.947649C347.805 0.424277 348.23 0 348.754 0C349.278 0 349.702 0.424277 349.702 0.947649C349.702 1.47102 349.278 1.8953 348.754 1.8953C348.23 1.8953 347.805 1.47102 347.805 0.947649Z" fill="black"/>
<path d="M368.672 21.7959C368.672 21.2725 369.097 20.8483 369.621 20.8483C370.145 20.8483 370.57 21.2725 370.57 21.7959C370.57 22.3193 370.145 22.7436 369.621 22.7436C369.097 22.7436 368.672 22.3193 368.672 21.7959Z" fill="black"/>
<path d="M379.106 11.3718C379.106 10.8484 379.531 10.4241 380.055 10.4241C380.578 10.4241 381.003 10.8484 381.003 11.3718C381.003 11.8952 380.578 12.3194 380.055 12.3194C379.531 12.3194 379.106 11.8952 379.106 11.3718Z" fill="black"/>
<path d="M368.672 0.947649C368.672 0.424277 369.097 0 369.621 0C370.145 0 370.57 0.424277 370.57 0.947649C370.57 1.47102 370.145 1.8953 369.621 1.8953C369.097 1.8953 368.672 1.47102 368.672 0.947649Z" fill="black"/>
<path d="M170.434 32.2201C170.434 31.6967 170.858 31.2724 171.382 31.2724C171.906 31.2724 172.331 31.6967 172.331 32.2201C172.331 32.7434 171.906 33.1677 171.382 33.1677C170.858 33.1677 170.434 32.7434 170.434 32.2201Z" fill="black"/>
<path d="M160 42.6442C160 42.1208 160.425 41.6965 160.949 41.6965C161.472 41.6965 161.897 42.1208 161.897 42.6442C161.897 43.1676 161.472 43.5918 160.949 43.5918C160.425 43.5918 160 43.1676 160 42.6442Z" fill="black"/>
<path d="M191.301 32.2201C191.301 31.6967 191.726 31.2724 192.249 31.2724C192.773 31.2724 193.198 31.6967 193.198 32.2201C193.198 32.7434 192.773 33.1677 192.249 33.1677C191.726 33.1677 191.301 32.7434 191.301 32.2201Z" fill="black"/>
<path d="M180.867 42.6442C180.867 42.1208 181.292 41.6965 181.816 41.6965C182.34 41.6965 182.764 42.1208 182.764 42.6442C182.764 43.1676 182.34 43.5918 181.816 43.5918C181.292 43.5918 180.867 43.1676 180.867 42.6442Z" fill="black"/>
<path d="M212.168 32.2201C212.168 31.6967 212.593 31.2724 213.117 31.2724C213.64 31.2724 214.065 31.6967 214.065 32.2201C214.065 32.7434 213.64 33.1677 213.117 33.1677C212.593 33.1677 212.168 32.7434 212.168 32.2201Z" fill="black"/>
<path d="M201.734 42.6442C201.734 42.1208 202.159 41.6965 202.683 41.6965C203.207 41.6965 203.632 42.1208 203.632 42.6442C203.632 43.1676 203.207 43.5918 202.683 43.5918C202.159 43.5918 201.734 43.1676 201.734 42.6442Z" fill="black"/>
<path d="M233.035 32.2201C233.035 31.6967 233.46 31.2724 233.984 31.2724C234.508 31.2724 234.932 31.6967 234.932 32.2201C234.932 32.7434 234.508 33.1677 233.984 33.1677C233.46 33.1677 233.035 32.7434 233.035 32.2201Z" fill="black"/>
<path d="M222.602 42.6442C222.602 42.1208 223.026 41.6965 223.55 41.6965C224.074 41.6965 224.499 42.1208 224.499 42.6442C224.499 43.1676 224.074 43.5918 223.55 43.5918C223.026 43.5918 222.602 43.1676 222.602 42.6442Z" fill="black"/>
<path d="M253.903 32.2201C253.903 31.6967 254.327 31.2724 254.851 31.2724C255.375 31.2724 255.8 31.6967 255.8 32.2201C255.8 32.7434 255.375 33.1677 254.851 33.1677C254.327 33.1677 253.903 32.7434 253.903 32.2201Z" fill="black"/>
<path d="M243.469 42.6442C243.469 42.1208 243.894 41.6965 244.418 41.6965C244.941 41.6965 245.366 42.1208 245.366 42.6442C245.366 43.1676 244.941 43.5918 244.418 43.5918C243.894 43.5918 243.469 43.1676 243.469 42.6442Z" fill="black"/>
<path d="M274.77 32.2201C274.77 31.6967 275.195 31.2724 275.718 31.2724C276.242 31.2724 276.667 31.6967 276.667 32.2201C276.667 32.7434 276.242 33.1677 275.718 33.1677C275.195 33.1677 274.77 32.7434 274.77 32.2201Z" fill="black"/>
<path d="M264.336 42.6442C264.336 42.1208 264.761 41.6965 265.285 41.6965C265.809 41.6965 266.233 42.1208 266.233 42.6442C266.233 43.1676 265.809 43.5918 265.285 43.5918C264.761 43.5918 264.336 43.1676 264.336 42.6442Z" fill="black"/>
<path d="M295.637 32.2201C295.637 31.6967 296.062 31.2724 296.586 31.2724C297.109 31.2724 297.534 31.6967 297.534 32.2201C297.534 32.7434 297.109 33.1677 296.586 33.1677C296.062 33.1677 295.637 32.7434 295.637 32.2201Z" fill="black"/>
<path d="M285.203 42.6442C285.203 42.1208 285.628 41.6965 286.152 41.6965C286.676 41.6965 287.101 42.1208 287.101 42.6442C287.101 43.1676 286.676 43.5918 286.152 43.5918C285.628 43.5918 285.203 43.1676 285.203 42.6442Z" fill="black"/>
<path d="M316.504 32.2201C316.504 31.6967 316.929 31.2724 317.453 31.2724C317.977 31.2724 318.401 31.6967 318.401 32.2201C318.401 32.7434 317.977 33.1677 317.453 33.1677C316.929 33.1677 316.504 32.7434 316.504 32.2201Z" fill="black"/>
<path d="M306.071 42.6442C306.071 42.1208 306.495 41.6965 307.019 41.6965C307.543 41.6965 307.968 42.1208 307.968 42.6442C307.968 43.1676 307.543 43.5918 307.019 43.5918C306.495 43.5918 306.071 43.1676 306.071 42.6442Z" fill="black"/>
<path d="M337.372 32.2201C337.372 31.6967 337.796 31.2724 338.32 31.2724C338.844 31.2724 339.269 31.6967 339.269 32.2201C339.269 32.7434 338.844 33.1677 338.32 33.1677C337.796 33.1677 337.372 32.7434 337.372 32.2201Z" fill="black"/>
<path d="M326.938 42.6442C326.938 42.1208 327.363 41.6965 327.887 41.6965C328.41 41.6965 328.835 42.1208 328.835 42.6442C328.835 43.1676 328.41 43.5918 327.887 43.5918C327.363 43.5918 326.938 43.1676 326.938 42.6442Z" fill="black"/>
<path d="M358.239 32.2201C358.239 31.6967 358.664 31.2724 359.187 31.2724C359.711 31.2724 360.136 31.6967 360.136 32.2201C360.136 32.7434 359.711 33.1677 359.187 33.1677C358.664 33.1677 358.239 32.7434 358.239 32.2201Z" fill="black"/>
<path d="M347.805 42.6442C347.805 42.1208 348.23 41.6965 348.754 41.6965C349.278 41.6965 349.702 42.1208 349.702 42.6442C349.702 43.1676 349.278 43.5918 348.754 43.5918C348.23 43.5918 347.805 43.1676 347.805 42.6442Z" fill="black"/>
<path d="M379.106 32.2201C379.106 31.6967 379.531 31.2724 380.055 31.2724C380.578 31.2724 381.003 31.6967 381.003 32.2201C381.003 32.7434 380.578 33.1677 380.055 33.1677C379.531 33.1677 379.106 32.7434 379.106 32.2201Z" fill="black"/>
<path d="M368.672 42.6442C368.672 42.1208 369.097 41.6965 369.621 41.6965C370.145 41.6965 370.57 42.1208 370.57 42.6442C370.57 43.1676 370.145 43.5918 369.621 43.5918C369.097 43.5918 368.672 43.1676 368.672 42.6442Z" fill="black"/>
<path d="M170.434 53.0683C170.434 52.5449 170.858 52.1207 171.382 52.1207C171.906 52.1207 172.331 52.5449 172.331 53.0683C172.331 53.5917 171.906 54.016 171.382 54.016C170.858 54.016 170.434 53.5917 170.434 53.0683Z" fill="black"/>
<path d="M160 63.4925C160 62.9691 160.425 62.5448 160.949 62.5448C161.472 62.5448 161.897 62.9691 161.897 63.4925C161.897 64.0158 161.472 64.4401 160.949 64.4401C160.425 64.4401 160 64.0158 160 63.4925Z" fill="black"/>
<path d="M191.301 53.0683C191.301 52.5449 191.726 52.1207 192.249 52.1207C192.773 52.1207 193.198 52.5449 193.198 53.0683C193.198 53.5917 192.773 54.016 192.249 54.016C191.726 54.016 191.301 53.5917 191.301 53.0683Z" fill="black"/>
<path d="M180.867 63.4925C180.867 62.9691 181.292 62.5448 181.816 62.5448C182.34 62.5448 182.764 62.9691 182.764 63.4925C182.764 64.0158 182.34 64.4401 181.816 64.4401C181.292 64.4401 180.867 64.0158 180.867 63.4925Z" fill="black"/>
<path d="M212.168 53.0683C212.168 52.5449 212.593 52.1207 213.117 52.1207C213.64 52.1207 214.065 52.5449 214.065 53.0683C214.065 53.5917 213.64 54.016 213.117 54.016C212.593 54.016 212.168 53.5917 212.168 53.0683Z" fill="black"/>
<path d="M201.734 63.4925C201.734 62.9691 202.159 62.5448 202.683 62.5448C203.207 62.5448 203.632 62.9691 203.632 63.4925C203.632 64.0158 203.207 64.4401 202.683 64.4401C202.159 64.4401 201.734 64.0158 201.734 63.4925Z" fill="black"/>
<path d="M233.035 53.0683C233.035 52.5449 233.46 52.1207 233.984 52.1207C234.508 52.1207 234.932 52.5449 234.932 53.0683C234.932 53.5917 234.508 54.016 233.984 54.016C233.46 54.016 233.035 53.5917 233.035 53.0683Z" fill="black"/>
<path d="M222.602 63.4925C222.602 62.9691 223.026 62.5448 223.55 62.5448C224.074 62.5448 224.499 62.9691 224.499 63.4925C224.499 64.0158 224.074 64.4401 223.55 64.4401C223.026 64.4401 222.602 64.0158 222.602 63.4925Z" fill="black"/>
<path d="M253.903 53.0683C253.903 52.5449 254.327 52.1207 254.851 52.1207C255.375 52.1207 255.8 52.5449 255.8 53.0683C255.8 53.5917 255.375 54.016 254.851 54.016C254.327 54.016 253.903 53.5917 253.903 53.0683Z" fill="black"/>
<path d="M243.469 63.4925C243.469 62.9691 243.894 62.5448 244.418 62.5448C244.941 62.5448 245.366 62.9691 245.366 63.4925C245.366 64.0158 244.941 64.4401 244.418 64.4401C243.894 64.4401 243.469 64.0158 243.469 63.4925Z" fill="black"/>
<path d="M274.77 53.0683C274.77 52.5449 275.195 52.1207 275.718 52.1207C276.242 52.1207 276.667 52.5449 276.667 53.0683C276.667 53.5917 276.242 54.016 275.718 54.016C275.195 54.016 274.77 53.5917 274.77 53.0683Z" fill="black"/>
<path d="M264.336 63.4925C264.336 62.9691 264.761 62.5448 265.285 62.5448C265.809 62.5448 266.233 62.9691 266.233 63.4925C266.233 64.0158 265.809 64.4401 265.285 64.4401C264.761 64.4401 264.336 64.0158 264.336 63.4925Z" fill="black"/>
<path d="M295.637 53.0683C295.637 52.5449 296.062 52.1207 296.586 52.1207C297.109 52.1207 297.534 52.5449 297.534 53.0683C297.534 53.5917 297.109 54.016 296.586 54.016C296.062 54.016 295.637 53.5917 295.637 53.0683Z" fill="black"/>
<path d="M285.203 63.4925C285.203 62.9691 285.628 62.5448 286.152 62.5448C286.676 62.5448 287.101 62.9691 287.101 63.4925C287.101 64.0158 286.676 64.4401 286.152 64.4401C285.628 64.4401 285.203 64.0158 285.203 63.4925Z" fill="black"/>
<path d="M316.504 53.0683C316.504 52.5449 316.929 52.1207 317.453 52.1207C317.977 52.1207 318.401 52.5449 318.401 53.0683C318.401 53.5917 317.977 54.016 317.453 54.016C316.929 54.016 316.504 53.5917 316.504 53.0683Z" fill="black"/>
<path d="M306.071 63.4925C306.071 62.9691 306.495 62.5448 307.019 62.5448C307.543 62.5448 307.968 62.9691 307.968 63.4925C307.968 64.0158 307.543 64.4401 307.019 64.4401C306.495 64.4401 306.071 64.0158 306.071 63.4925Z" fill="black"/>
<path d="M337.372 53.0683C337.372 52.5449 337.796 52.1207 338.32 52.1207C338.844 52.1207 339.269 52.5449 339.269 53.0683C339.269 53.5917 338.844 54.016 338.32 54.016C337.796 54.016 337.372 53.5917 337.372 53.0683Z" fill="black"/>
<path d="M326.938 63.4925C326.938 62.9691 327.363 62.5448 327.887 62.5448C328.41 62.5448 328.835 62.9691 328.835 63.4925C328.835 64.0158 328.41 64.4401 327.887 64.4401C327.363 64.4401 326.938 64.0158 326.938 63.4925Z" fill="black"/>
<path d="M358.239 53.0683C358.239 52.5449 358.664 52.1207 359.187 52.1207C359.711 52.1207 360.136 52.5449 360.136 53.0683C360.136 53.5917 359.711 54.016 359.187 54.016C358.664 54.016 358.239 53.5917 358.239 53.0683Z" fill="black"/>
<path d="M347.805 63.4925C347.805 62.9691 348.23 62.5448 348.754 62.5448C349.278 62.5448 349.702 62.9691 349.702 63.4925C349.702 64.0158 349.278 64.4401 348.754 64.4401C348.23 64.4401 347.805 64.0158 347.805 63.4925Z" fill="black"/>
<path d="M379.106 53.0683C379.106 52.5449 379.531 52.1207 380.055 52.1207C380.578 52.1207 381.003 52.5449 381.003 53.0683C381.003 53.5917 380.578 54.016 380.055 54.016C379.531 54.016 379.106 53.5917 379.106 53.0683Z" fill="black"/>
<path d="M368.672 63.4925C368.672 62.9691 369.097 62.5448 369.621 62.5448C370.145 62.5448 370.57 62.9691 370.57 63.4925C370.57 64.0158 370.145 64.4401 369.621 64.4401C369.097 64.4401 368.672 64.0158 368.672 63.4925Z" fill="black"/>
<path d="M170.434 73.9166C170.434 73.3932 170.858 72.9689 171.382 72.9689C171.906 72.9689 172.331 73.3932 172.331 73.9166C172.331 74.44 171.906 74.8642 171.382 74.8642C170.858 74.8642 170.434 74.44 170.434 73.9166Z" fill="black"/>
<path d="M160 84.3407C160 83.8174 160.425 83.3931 160.949 83.3931C161.472 83.3931 161.897 83.8174 161.897 84.3407C161.897 84.8641 161.472 85.2884 160.949 85.2884C160.425 85.2884 160 84.8641 160 84.3407Z" fill="black"/>
<path d="M191.301 73.9166C191.301 73.3932 191.726 72.9689 192.249 72.9689C192.773 72.9689 193.198 73.3932 193.198 73.9166C193.198 74.44 192.773 74.8642 192.249 74.8642C191.726 74.8642 191.301 74.44 191.301 73.9166Z" fill="black"/>
<path d="M180.867 84.3407C180.867 83.8174 181.292 83.3931 181.816 83.3931C182.34 83.3931 182.764 83.8174 182.764 84.3407C182.764 84.8641 182.34 85.2884 181.816 85.2884C181.292 85.2884 180.867 84.8641 180.867 84.3407Z" fill="black"/>
<path d="M212.168 73.9166C212.168 73.3932 212.593 72.9689 213.117 72.9689C213.64 72.9689 214.065 73.3932 214.065 73.9166C214.065 74.44 213.64 74.8642 213.117 74.8642C212.593 74.8642 212.168 74.44 212.168 73.9166Z" fill="black"/>
<path d="M201.734 84.3407C201.734 83.8174 202.159 83.3931 202.683 83.3931C203.207 83.3931 203.632 83.8174 203.632 84.3407C203.632 84.8641 203.207 85.2884 202.683 85.2884C202.159 85.2884 201.734 84.8641 201.734 84.3407Z" fill="black"/>
<path d="M233.035 73.9166C233.035 73.3932 233.46 72.9689 233.984 72.9689C234.508 72.9689 234.932 73.3932 234.932 73.9166C234.932 74.44 234.508 74.8642 233.984 74.8642C233.46 74.8642 233.035 74.44 233.035 73.9166Z" fill="black"/>
<path d="M222.602 84.3407C222.602 83.8174 223.026 83.3931 223.55 83.3931C224.074 83.3931 224.499 83.8174 224.499 84.3407C224.499 84.8641 224.074 85.2884 223.55 85.2884C223.026 85.2884 222.602 84.8641 222.602 84.3407Z" fill="black"/>
<path d="M253.903 73.9166C253.903 73.3932 254.327 72.9689 254.851 72.9689C255.375 72.9689 255.8 73.3932 255.8 73.9166C255.8 74.44 255.375 74.8642 254.851 74.8642C254.327 74.8642 253.903 74.44 253.903 73.9166Z" fill="black"/>
<path d="M243.469 84.3407C243.469 83.8174 243.894 83.3931 244.418 83.3931C244.941 83.3931 245.366 83.8174 245.366 84.3407C245.366 84.8641 244.941 85.2884 244.418 85.2884C243.894 85.2884 243.469 84.8641 243.469 84.3407Z" fill="black"/>
<path d="M274.77 73.9166C274.77 73.3932 275.195 72.9689 275.718 72.9689C276.242 72.9689 276.667 73.3932 276.667 73.9166C276.667 74.44 276.242 74.8642 275.718 74.8642C275.195 74.8642 274.77 74.44 274.77 73.9166Z" fill="black"/>
<path d="M264.336 84.3407C264.336 83.8174 264.761 83.3931 265.285 83.3931C265.809 83.3931 266.233 83.8174 266.233 84.3407C266.233 84.8641 265.809 85.2884 265.285 85.2884C264.761 85.2884 264.336 84.8641 264.336 84.3407Z" fill="black"/>
<path d="M295.637 73.9166C295.637 73.3932 296.062 72.9689 296.586 72.9689C297.109 72.9689 297.534 73.3932 297.534 73.9166C297.534 74.44 297.109 74.8642 296.586 74.8642C296.062 74.8642 295.637 74.44 295.637 73.9166Z" fill="black"/>
<path d="M285.203 84.3407C285.203 83.8174 285.628 83.3931 286.152 83.3931C286.676 83.3931 287.101 83.8174 287.101 84.3407C287.101 84.8641 286.676 85.2884 286.152 85.2884C285.628 85.2884 285.203 84.8641 285.203 84.3407Z" fill="black"/>
<path d="M316.504 73.9166C316.504 73.3932 316.929 72.9689 317.453 72.9689C317.977 72.9689 318.401 73.3932 318.401 73.9166C318.401 74.44 317.977 74.8642 317.453 74.8642C316.929 74.8642 316.504 74.44 316.504 73.9166Z" fill="black"/>
<path d="M306.071 84.3407C306.071 83.8174 306.495 83.3931 307.019 83.3931C307.543 83.3931 307.968 83.8174 307.968 84.3407C307.968 84.8641 307.543 85.2884 307.019 85.2884C306.495 85.2884 306.071 84.8641 306.071 84.3407Z" fill="black"/>
<path d="M337.372 73.9166C337.372 73.3932 337.796 72.9689 338.32 72.9689C338.844 72.9689 339.269 73.3932 339.269 73.9166C339.269 74.44 338.844 74.8642 338.32 74.8642C337.796 74.8642 337.372 74.44 337.372 73.9166Z" fill="black"/>
<path d="M326.938 84.3407C326.938 83.8174 327.363 83.3931 327.887 83.3931C328.41 83.3931 328.835 83.8174 328.835 84.3407C328.835 84.8641 328.41 85.2884 327.887 85.2884C327.363 85.2884 326.938 84.8641 326.938 84.3407Z" fill="black"/>
<path d="M358.239 73.9166C358.239 73.3932 358.664 72.9689 359.187 72.9689C359.711 72.9689 360.136 73.3932 360.136 73.9166C360.136 74.44 359.711 74.8642 359.187 74.8642C358.664 74.8642 358.239 74.44 358.239 73.9166Z" fill="black"/>
<path d="M347.805 84.3407C347.805 83.8174 348.23 83.3931 348.754 83.3931C349.278 83.3931 349.702 83.8174 349.702 84.3407C349.702 84.8641 349.278 85.2884 348.754 85.2884C348.23 85.2884 347.805 84.8641 347.805 84.3407Z" fill="black"/>
<path d="M379.106 73.9166C379.106 73.3932 379.531 72.9689 380.055 72.9689C380.578 72.9689 381.003 73.3932 381.003 73.9166C381.003 74.44 380.578 74.8642 380.055 74.8642C379.531 74.8642 379.106 74.44 379.106 73.9166Z" fill="black"/>
<path d="M368.672 84.3407C368.672 83.8174 369.097 83.3931 369.621 83.3931C370.145 83.3931 370.57 83.8174 370.57 84.3407C370.57 84.8641 370.145 85.2884 369.621 85.2884C369.097 85.2884 368.672 84.8641 368.672 84.3407Z" fill="black"/>
<path d="M170.434 94.7649C170.434 94.2415 170.858 93.8172 171.382 93.8172C171.906 93.8172 172.331 94.2415 172.331 94.7649C172.331 95.2882 171.906 95.7125 171.382 95.7125C170.858 95.7125 170.434 95.2882 170.434 94.7649Z" fill="black"/>
<path d="M160 105.189C160 104.666 160.425 104.241 160.949 104.241C161.472 104.241 161.897 104.666 161.897 105.189C161.897 105.712 161.472 106.137 160.949 106.137C160.425 106.137 160 105.712 160 105.189Z" fill="black"/>
<path d="M191.301 94.7649C191.301 94.2415 191.726 93.8172 192.249 93.8172C192.773 93.8172 193.198 94.2415 193.198 94.7649C193.198 95.2882 192.773 95.7125 192.249 95.7125C191.726 95.7125 191.301 95.2882 191.301 94.7649Z" fill="black"/>
<path d="M180.867 105.189C180.867 104.666 181.292 104.241 181.816 104.241C182.34 104.241 182.764 104.666 182.764 105.189C182.764 105.712 182.34 106.137 181.816 106.137C181.292 106.137 180.867 105.712 180.867 105.189Z" fill="black"/>
<path d="M212.168 94.7649C212.168 94.2415 212.593 93.8172 213.117 93.8172C213.64 93.8172 214.065 94.2415 214.065 94.7649C214.065 95.2882 213.64 95.7125 213.117 95.7125C212.593 95.7125 212.168 95.2882 212.168 94.7649Z" fill="black"/>
<path d="M201.734 105.189C201.734 104.666 202.159 104.241 202.683 104.241C203.207 104.241 203.632 104.666 203.632 105.189C203.632 105.712 203.207 106.137 202.683 106.137C202.159 106.137 201.734 105.712 201.734 105.189Z" fill="black"/>
<path d="M233.035 94.7649C233.035 94.2415 233.46 93.8172 233.984 93.8172C234.508 93.8172 234.932 94.2415 234.932 94.7649C234.932 95.2882 234.508 95.7125 233.984 95.7125C233.46 95.7125 233.035 95.2882 233.035 94.7649Z" fill="black"/>
<path d="M222.602 105.189C222.602 104.666 223.026 104.241 223.55 104.241C224.074 104.241 224.499 104.666 224.499 105.189C224.499 105.712 224.074 106.137 223.55 106.137C223.026 106.137 222.602 105.712 222.602 105.189Z" fill="black"/>
<path d="M253.903 94.7649C253.903 94.2415 254.327 93.8172 254.851 93.8172C255.375 93.8172 255.8 94.2415 255.8 94.7649C255.8 95.2882 255.375 95.7125 254.851 95.7125C254.327 95.7125 253.903 95.2882 253.903 94.7649Z" fill="black"/>
<path d="M243.469 105.189C243.469 104.666 243.894 104.241 244.418 104.241C244.941 104.241 245.366 104.666 245.366 105.189C245.366 105.712 244.941 106.137 244.418 106.137C243.894 106.137 243.469 105.712 243.469 105.189Z" fill="black"/>
<path d="M274.77 94.7649C274.77 94.2415 275.195 93.8172 275.718 93.8172C276.242 93.8172 276.667 94.2415 276.667 94.7649C276.667 95.2882 276.242 95.7125 275.718 95.7125C275.195 95.7125 274.77 95.2882 274.77 94.7649Z" fill="black"/>
<path d="M264.336 105.189C264.336 104.666 264.761 104.241 265.285 104.241C265.809 104.241 266.233 104.666 266.233 105.189C266.233 105.712 265.809 106.137 265.285 106.137C264.761 106.137 264.336 105.712 264.336 105.189Z" fill="black"/>
<path d="M295.637 94.7649C295.637 94.2415 296.062 93.8172 296.586 93.8172C297.109 93.8172 297.534 94.2415 297.534 94.7649C297.534 95.2882 297.109 95.7125 296.586 95.7125C296.062 95.7125 295.637 95.2882 295.637 94.7649Z" fill="black"/>
<path d="M285.203 105.189C285.203 104.666 285.628 104.241 286.152 104.241C286.676 104.241 287.101 104.666 287.101 105.189C287.101 105.712 286.676 106.137 286.152 106.137C285.628 106.137 285.203 105.712 285.203 105.189Z" fill="black"/>
<path d="M316.504 94.7649C316.504 94.2415 316.929 93.8172 317.453 93.8172C317.977 93.8172 318.401 94.2415 318.401 94.7649C318.401 95.2882 317.977 95.7125 317.453 95.7125C316.929 95.7125 316.504 95.2882 316.504 94.7649Z" fill="black"/>
<path d="M306.071 105.189C306.071 104.666 306.495 104.241 307.019 104.241C307.543 104.241 307.968 104.666 307.968 105.189C307.968 105.712 307.543 106.137 307.019 106.137C306.495 106.137 306.071 105.712 306.071 105.189Z" fill="black"/>
<path d="M337.372 94.7649C337.372 94.2415 337.796 93.8172 338.32 93.8172C338.844 93.8172 339.269 94.2415 339.269 94.7649C339.269 95.2882 338.844 95.7125 338.32 95.7125C337.796 95.7125 337.372 95.2882 337.372 94.7649Z" fill="black"/>
<path d="M326.938 105.189C326.938 104.666 327.363 104.241 327.887 104.241C328.41 104.241 328.835 104.666 328.835 105.189C328.835 105.712 328.41 106.137 327.887 106.137C327.363 106.137 326.938 105.712 326.938 105.189Z" fill="black"/>
<path d="M358.239 94.7649C358.239 94.2415 358.664 93.8172 359.187 93.8172C359.711 93.8172 360.136 94.2415 360.136 94.7649C360.136 95.2882 359.711 95.7125 359.187 95.7125C358.664 95.7125 358.239 95.2882 358.239 94.7649Z" fill="black"/>
<path d="M347.805 105.189C347.805 104.666 348.23 104.241 348.754 104.241C349.278 104.241 349.702 104.666 349.702 105.189C349.702 105.712 349.278 106.137 348.754 106.137C348.23 106.137 347.805 105.712 347.805 105.189Z" fill="black"/>
<path d="M379.106 94.7649C379.106 94.2415 379.531 93.8172 380.055 93.8172C380.578 93.8172 381.003 94.2415 381.003 94.7649C381.003 95.2882 380.578 95.7125 380.055 95.7125C379.531 95.7125 379.106 95.2882 379.106 94.7649Z" fill="black"/>
<path d="M368.672 105.189C368.672 104.666 369.097 104.241 369.621 104.241C370.145 104.241 370.57 104.666 370.57 105.189C370.57 105.712 370.145 106.137 369.621 106.137C369.097 106.137 368.672 105.712 368.672 105.189Z" fill="black"/>
<path d="M170.434 115.613C170.434 115.09 170.858 114.665 171.382 114.665C171.906 114.665 172.331 115.09 172.331 115.613C172.331 116.136 171.906 116.561 171.382 116.561C170.858 116.561 170.434 116.136 170.434 115.613Z" fill="black"/>
<path d="M160 126.037C160 125.514 160.425 125.09 160.949 125.09C161.472 125.09 161.897 125.514 161.897 126.037C161.897 126.561 161.472 126.985 160.949 126.985C160.425 126.985 160 126.561 160 126.037Z" fill="black"/>
<path d="M191.301 115.613C191.301 115.09 191.726 114.665 192.249 114.665C192.773 114.665 193.198 115.09 193.198 115.613C193.198 116.136 192.773 116.561 192.249 116.561C191.726 116.561 191.301 116.136 191.301 115.613Z" fill="black"/>
<path d="M180.867 126.037C180.867 125.514 181.292 125.09 181.816 125.09C182.34 125.09 182.764 125.514 182.764 126.037C182.764 126.561 182.34 126.985 181.816 126.985C181.292 126.985 180.867 126.561 180.867 126.037Z" fill="black"/>
<path d="M212.168 115.613C212.168 115.09 212.593 114.665 213.117 114.665C213.64 114.665 214.065 115.09 214.065 115.613C214.065 116.136 213.64 116.561 213.117 116.561C212.593 116.561 212.168 116.136 212.168 115.613Z" fill="black"/>
<path d="M201.734 126.037C201.734 125.514 202.159 125.09 202.683 125.09C203.207 125.09 203.632 125.514 203.632 126.037C203.632 126.561 203.207 126.985 202.683 126.985C202.159 126.985 201.734 126.561 201.734 126.037Z" fill="black"/>
<path d="M233.035 115.613C233.035 115.09 233.46 114.665 233.984 114.665C234.508 114.665 234.932 115.09 234.932 115.613C234.932 116.136 234.508 116.561 233.984 116.561C233.46 116.561 233.035 116.136 233.035 115.613Z" fill="black"/>
<path d="M222.602 126.037C222.602 125.514 223.026 125.09 223.55 125.09C224.074 125.09 224.499 125.514 224.499 126.037C224.499 126.561 224.074 126.985 223.55 126.985C223.026 126.985 222.602 126.561 222.602 126.037Z" fill="black"/>
<path d="M253.903 115.613C253.903 115.09 254.327 114.665 254.851 114.665C255.375 114.665 255.8 115.09 255.8 115.613C255.8 116.136 255.375 116.561 254.851 116.561C254.327 116.561 253.903 116.136 253.903 115.613Z" fill="black"/>
<path d="M243.469 126.037C243.469 125.514 243.894 125.09 244.418 125.09C244.941 125.09 245.366 125.514 245.366 126.037C245.366 126.561 244.941 126.985 244.418 126.985C243.894 126.985 243.469 126.561 243.469 126.037Z" fill="black"/>
<path d="M274.77 115.613C274.77 115.09 275.195 114.665 275.718 114.665C276.242 114.665 276.667 115.09 276.667 115.613C276.667 116.136 276.242 116.561 275.718 116.561C275.195 116.561 274.77 116.136 274.77 115.613Z" fill="black"/>
<path d="M264.336 126.037C264.336 125.514 264.761 125.09 265.285 125.09C265.809 125.09 266.233 125.514 266.233 126.037C266.233 126.561 265.809 126.985 265.285 126.985C264.761 126.985 264.336 126.561 264.336 126.037Z" fill="black"/>
<path d="M295.637 115.613C295.637 115.09 296.062 114.665 296.586 114.665C297.109 114.665 297.534 115.09 297.534 115.613C297.534 116.136 297.109 116.561 296.586 116.561C296.062 116.561 295.637 116.136 295.637 115.613Z" fill="black"/>
<path d="M285.203 126.037C285.203 125.514 285.628 125.09 286.152 125.09C286.676 125.09 287.101 125.514 287.101 126.037C287.101 126.561 286.676 126.985 286.152 126.985C285.628 126.985 285.203 126.561 285.203 126.037Z" fill="black"/>
<path d="M316.504 115.613C316.504 115.09 316.929 114.665 317.453 114.665C317.977 114.665 318.401 115.09 318.401 115.613C318.401 116.136 317.977 116.561 317.453 116.561C316.929 116.561 316.504 116.136 316.504 115.613Z" fill="black"/>
<path d="M306.071 126.037C306.071 125.514 306.495 125.09 307.019 125.09C307.543 125.09 307.968 125.514 307.968 126.037C307.968 126.561 307.543 126.985 307.019 126.985C306.495 126.985 306.071 126.561 306.071 126.037Z" fill="black"/>
<path d="M337.372 115.613C337.372 115.09 337.796 114.665 338.32 114.665C338.844 114.665 339.269 115.09 339.269 115.613C339.269 116.136 338.844 116.561 338.32 116.561C337.796 116.561 337.372 116.136 337.372 115.613Z" fill="black"/>
<path d="M326.938 126.037C326.938 125.514 327.363 125.09 327.887 125.09C328.41 125.09 328.835 125.514 328.835 126.037C328.835 126.561 328.41 126.985 327.887 126.985C327.363 126.985 326.938 126.561 326.938 126.037Z" fill="black"/>
<path d="M358.239 115.613C358.239 115.09 358.664 114.665 359.187 114.665C359.711 114.665 360.136 115.09 360.136 115.613C360.136 116.136 359.711 116.561 359.187 116.561C358.664 116.561 358.239 116.136 358.239 115.613Z" fill="black"/>
<path d="M347.805 126.037C347.805 125.514 348.23 125.09 348.754 125.09C349.278 125.09 349.702 125.514 349.702 126.037C349.702 126.561 349.278 126.985 348.754 126.985C348.23 126.985 347.805 126.561 347.805 126.037Z" fill="black"/>
<path d="M379.106 115.613C379.106 115.09 379.531 114.665 380.055 114.665C380.578 114.665 381.003 115.09 381.003 115.613C381.003 116.136 380.578 116.561 380.055 116.561C379.531 116.561 379.106 116.136 379.106 115.613Z" fill="black"/>
<path d="M368.672 126.037C368.672 125.514 369.097 125.09 369.621 125.09C370.145 125.09 370.57 125.514 370.57 126.037C370.57 126.561 370.145 126.985 369.621 126.985C369.097 126.985 368.672 126.561 368.672 126.037Z" fill="black"/>
<path d="M170.434 136.461C170.434 135.938 170.858 135.514 171.382 135.514C171.906 135.514 172.331 135.938 172.331 136.461C172.331 136.985 171.906 137.409 171.382 137.409C170.858 137.409 170.434 136.985 170.434 136.461Z" fill="black"/>
<path d="M160 146.886C160 146.362 160.425 145.938 160.949 145.938C161.472 145.938 161.897 146.362 161.897 146.886C161.897 147.409 161.472 147.833 160.949 147.833C160.425 147.833 160 147.409 160 146.886Z" fill="black"/>
<path d="M191.301 136.461C191.301 135.938 191.726 135.514 192.249 135.514C192.773 135.514 193.198 135.938 193.198 136.461C193.198 136.985 192.773 137.409 192.249 137.409C191.726 137.409 191.301 136.985 191.301 136.461Z" fill="black"/>
<path d="M180.867 146.886C180.867 146.362 181.292 145.938 181.816 145.938C182.34 145.938 182.764 146.362 182.764 146.886C182.764 147.409 182.34 147.833 181.816 147.833C181.292 147.833 180.867 147.409 180.867 146.886Z" fill="black"/>
<path d="M212.168 136.461C212.168 135.938 212.593 135.514 213.117 135.514C213.64 135.514 214.065 135.938 214.065 136.461C214.065 136.985 213.64 137.409 213.117 137.409C212.593 137.409 212.168 136.985 212.168 136.461Z" fill="black"/>
<path d="M201.734 146.886C201.734 146.362 202.159 145.938 202.683 145.938C203.207 145.938 203.632 146.362 203.632 146.886C203.632 147.409 203.207 147.833 202.683 147.833C202.159 147.833 201.734 147.409 201.734 146.886Z" fill="black"/>
<path d="M233.035 136.461C233.035 135.938 233.46 135.514 233.984 135.514C234.508 135.514 234.932 135.938 234.932 136.461C234.932 136.985 234.508 137.409 233.984 137.409C233.46 137.409 233.035 136.985 233.035 136.461Z" fill="black"/>
<path d="M222.602 146.886C222.602 146.362 223.026 145.938 223.55 145.938C224.074 145.938 224.499 146.362 224.499 146.886C224.499 147.409 224.074 147.833 223.55 147.833C223.026 147.833 222.602 147.409 222.602 146.886Z" fill="black"/>
<path d="M253.903 136.461C253.903 135.938 254.327 135.514 254.851 135.514C255.375 135.514 255.8 135.938 255.8 136.461C255.8 136.985 255.375 137.409 254.851 137.409C254.327 137.409 253.903 136.985 253.903 136.461Z" fill="black"/>
<path d="M243.469 146.886C243.469 146.362 243.894 145.938 244.418 145.938C244.941 145.938 245.366 146.362 245.366 146.886C245.366 147.409 244.941 147.833 244.418 147.833C243.894 147.833 243.469 147.409 243.469 146.886Z" fill="black"/>
<path d="M274.77 136.461C274.77 135.938 275.195 135.514 275.718 135.514C276.242 135.514 276.667 135.938 276.667 136.461C276.667 136.985 276.242 137.409 275.718 137.409C275.195 137.409 274.77 136.985 274.77 136.461Z" fill="black"/>
<path d="M264.336 146.886C264.336 146.362 264.761 145.938 265.285 145.938C265.809 145.938 266.233 146.362 266.233 146.886C266.233 147.409 265.809 147.833 265.285 147.833C264.761 147.833 264.336 147.409 264.336 146.886Z" fill="black"/>
<path d="M295.637 136.461C295.637 135.938 296.062 135.514 296.586 135.514C297.109 135.514 297.534 135.938 297.534 136.461C297.534 136.985 297.109 137.409 296.586 137.409C296.062 137.409 295.637 136.985 295.637 136.461Z" fill="black"/>
<path d="M285.203 146.886C285.203 146.362 285.628 145.938 286.152 145.938C286.676 145.938 287.101 146.362 287.101 146.886C287.101 147.409 286.676 147.833 286.152 147.833C285.628 147.833 285.203 147.409 285.203 146.886Z" fill="black"/>
<path d="M316.504 136.461C316.504 135.938 316.929 135.514 317.453 135.514C317.977 135.514 318.401 135.938 318.401 136.461C318.401 136.985 317.977 137.409 317.453 137.409C316.929 137.409 316.504 136.985 316.504 136.461Z" fill="black"/>
<path d="M306.071 146.886C306.071 146.362 306.495 145.938 307.019 145.938C307.543 145.938 307.968 146.362 307.968 146.886C307.968 147.409 307.543 147.833 307.019 147.833C306.495 147.833 306.071 147.409 306.071 146.886Z" fill="black"/>
<path d="M337.372 136.461C337.372 135.938 337.796 135.514 338.32 135.514C338.844 135.514 339.269 135.938 339.269 136.461C339.269 136.985 338.844 137.409 338.32 137.409C337.796 137.409 337.372 136.985 337.372 136.461Z" fill="black"/>
<path d="M326.938 146.886C326.938 146.362 327.363 145.938 327.887 145.938C328.41 145.938 328.835 146.362 328.835 146.886C328.835 147.409 328.41 147.833 327.887 147.833C327.363 147.833 326.938 147.409 326.938 146.886Z" fill="black"/>
<path d="M358.239 136.461C358.239 135.938 358.664 135.514 359.187 135.514C359.711 135.514 360.136 135.938 360.136 136.461C360.136 136.985 359.711 137.409 359.187 137.409C358.664 137.409 358.239 136.985 358.239 136.461Z" fill="black"/>
<path d="M347.805 146.886C347.805 146.362 348.23 145.938 348.754 145.938C349.278 145.938 349.702 146.362 349.702 146.886C349.702 147.409 349.278 147.833 348.754 147.833C348.23 147.833 347.805 147.409 347.805 146.886Z" fill="black"/>
<path d="M379.106 136.461C379.106 135.938 379.531 135.514 380.055 135.514C380.578 135.514 381.003 135.938 381.003 136.461C381.003 136.985 380.578 137.409 380.055 137.409C379.531 137.409 379.106 136.985 379.106 136.461Z" fill="black"/>
<path d="M368.672 146.886C368.672 146.362 369.097 145.938 369.621 145.938C370.145 145.938 370.57 146.362 370.57 146.886C370.57 147.409 370.145 147.833 369.621 147.833C369.097 147.833 368.672 147.409 368.672 146.886Z" fill="black"/>
<path d="M170.434 157.31C170.434 156.786 170.858 156.362 171.382 156.362C171.906 156.362 172.331 156.786 172.331 157.31C172.331 157.833 171.906 158.257 171.382 158.257C170.858 158.257 170.434 157.833 170.434 157.31Z" fill="black"/>
<path d="M160 167.734C160 167.21 160.425 166.786 160.949 166.786C161.472 166.786 161.897 167.21 161.897 167.734C161.897 168.257 161.472 168.681 160.949 168.681C160.425 168.681 160 168.257 160 167.734Z" fill="black"/>
<path d="M191.301 157.31C191.301 156.786 191.726 156.362 192.249 156.362C192.773 156.362 193.198 156.786 193.198 157.31C193.198 157.833 192.773 158.257 192.249 158.257C191.726 158.257 191.301 157.833 191.301 157.31Z" fill="black"/>
<path d="M180.867 167.734C180.867 167.21 181.292 166.786 181.816 166.786C182.34 166.786 182.764 167.21 182.764 167.734C182.764 168.257 182.34 168.681 181.816 168.681C181.292 168.681 180.867 168.257 180.867 167.734Z" fill="black"/>
<path d="M212.168 157.31C212.168 156.786 212.593 156.362 213.117 156.362C213.64 156.362 214.065 156.786 214.065 157.31C214.065 157.833 213.64 158.257 213.117 158.257C212.593 158.257 212.168 157.833 212.168 157.31Z" fill="black"/>
<path d="M201.734 167.734C201.734 167.21 202.159 166.786 202.683 166.786C203.207 166.786 203.632 167.21 203.632 167.734C203.632 168.257 203.207 168.681 202.683 168.681C202.159 168.681 201.734 168.257 201.734 167.734Z" fill="black"/>
<path d="M233.035 157.31C233.035 156.786 233.46 156.362 233.984 156.362C234.508 156.362 234.932 156.786 234.932 157.31C234.932 157.833 234.508 158.257 233.984 158.257C233.46 158.257 233.035 157.833 233.035 157.31Z" fill="black"/>
<path d="M222.602 167.734C222.602 167.21 223.026 166.786 223.55 166.786C224.074 166.786 224.499 167.21 224.499 167.734C224.499 168.257 224.074 168.681 223.55 168.681C223.026 168.681 222.602 168.257 222.602 167.734Z" fill="black"/>
<path d="M253.903 157.31C253.903 156.786 254.327 156.362 254.851 156.362C255.375 156.362 255.8 156.786 255.8 157.31C255.8 157.833 255.375 158.257 254.851 158.257C254.327 158.257 253.903 157.833 253.903 157.31Z" fill="black"/>
<path d="M243.469 167.734C243.469 167.21 243.894 166.786 244.418 166.786C244.941 166.786 245.366 167.21 245.366 167.734C245.366 168.257 244.941 168.681 244.418 168.681C243.894 168.681 243.469 168.257 243.469 167.734Z" fill="black"/>
<path d="M274.77 157.31C274.77 156.786 275.195 156.362 275.718 156.362C276.242 156.362 276.667 156.786 276.667 157.31C276.667 157.833 276.242 158.257 275.718 158.257C275.195 158.257 274.77 157.833 274.77 157.31Z" fill="black"/>
<path d="M264.336 167.734C264.336 167.21 264.761 166.786 265.285 166.786C265.809 166.786 266.233 167.21 266.233 167.734C266.233 168.257 265.809 168.681 265.285 168.681C264.761 168.681 264.336 168.257 264.336 167.734Z" fill="black"/>
<path d="M295.637 157.31C295.637 156.786 296.062 156.362 296.586 156.362C297.109 156.362 297.534 156.786 297.534 157.31C297.534 157.833 297.109 158.257 296.586 158.257C296.062 158.257 295.637 157.833 295.637 157.31Z" fill="black"/>
<path d="M285.203 167.734C285.203 167.21 285.628 166.786 286.152 166.786C286.676 166.786 287.101 167.21 287.101 167.734C287.101 168.257 286.676 168.681 286.152 168.681C285.628 168.681 285.203 168.257 285.203 167.734Z" fill="black"/>
<path d="M316.504 157.31C316.504 156.786 316.929 156.362 317.453 156.362C317.977 156.362 318.401 156.786 318.401 157.31C318.401 157.833 317.977 158.257 317.453 158.257C316.929 158.257 316.504 157.833 316.504 157.31Z" fill="black"/>
<path d="M306.071 167.734C306.071 167.21 306.495 166.786 307.019 166.786C307.543 166.786 307.968 167.21 307.968 167.734C307.968 168.257 307.543 168.681 307.019 168.681C306.495 168.681 306.071 168.257 306.071 167.734Z" fill="black"/>
<path d="M337.372 157.31C337.372 156.786 337.796 156.362 338.32 156.362C338.844 156.362 339.269 156.786 339.269 157.31C339.269 157.833 338.844 158.257 338.32 158.257C337.796 158.257 337.372 157.833 337.372 157.31Z" fill="black"/>
<path d="M326.938 167.734C326.938 167.21 327.363 166.786 327.887 166.786C328.41 166.786 328.835 167.21 328.835 167.734C328.835 168.257 328.41 168.681 327.887 168.681C327.363 168.681 326.938 168.257 326.938 167.734Z" fill="black"/>
<path d="M358.239 157.31C358.239 156.786 358.664 156.362 359.187 156.362C359.711 156.362 360.136 156.786 360.136 157.31C360.136 157.833 359.711 158.257 359.187 158.257C358.664 158.257 358.239 157.833 358.239 157.31Z" fill="black"/>
<path d="M347.805 167.734C347.805 167.21 348.23 166.786 348.754 166.786C349.278 166.786 349.702 167.21 349.702 167.734C349.702 168.257 349.278 168.681 348.754 168.681C348.23 168.681 347.805 168.257 347.805 167.734Z" fill="black"/>
<path d="M379.106 157.31C379.106 156.786 379.531 156.362 380.055 156.362C380.578 156.362 381.003 156.786 381.003 157.31C381.003 157.833 380.578 158.257 380.055 158.257C379.531 158.257 379.106 157.833 379.106 157.31Z" fill="black"/>
<path d="M368.672 167.734C368.672 167.21 369.097 166.786 369.621 166.786C370.145 166.786 370.57 167.21 370.57 167.734C370.57 168.257 370.145 168.681 369.621 168.681C369.097 168.681 368.672 168.257 368.672 167.734Z" fill="black"/>
<path d="M170.434 178.158C170.434 177.635 170.858 177.21 171.382 177.21C171.906 177.21 172.331 177.635 172.331 178.158C172.331 178.681 171.906 179.106 171.382 179.106C170.858 179.106 170.434 178.681 170.434 178.158Z" fill="black"/>
<path d="M160 188.582C160 188.059 160.425 187.634 160.949 187.634C161.472 187.634 161.897 188.059 161.897 188.582C161.897 189.105 161.472 189.53 160.949 189.53C160.425 189.53 160 189.105 160 188.582Z" fill="black"/>
<path d="M191.301 178.158C191.301 177.635 191.726 177.21 192.249 177.21C192.773 177.21 193.198 177.635 193.198 178.158C193.198 178.681 192.773 179.106 192.249 179.106C191.726 179.106 191.301 178.681 191.301 178.158Z" fill="black"/>
<path d="M180.867 188.582C180.867 188.059 181.292 187.634 181.816 187.634C182.34 187.634 182.764 188.059 182.764 188.582C182.764 189.105 182.34 189.53 181.816 189.53C181.292 189.53 180.867 189.105 180.867 188.582Z" fill="black"/>
<path d="M212.168 178.158C212.168 177.635 212.593 177.21 213.117 177.21C213.64 177.21 214.065 177.635 214.065 178.158C214.065 178.681 213.64 179.106 213.117 179.106C212.593 179.106 212.168 178.681 212.168 178.158Z" fill="black"/>
<path d="M201.734 188.582C201.734 188.059 202.159 187.634 202.683 187.634C203.207 187.634 203.632 188.059 203.632 188.582C203.632 189.105 203.207 189.53 202.683 189.53C202.159 189.53 201.734 189.105 201.734 188.582Z" fill="black"/>
<path d="M233.035 178.158C233.035 177.635 233.46 177.21 233.984 177.21C234.508 177.21 234.932 177.635 234.932 178.158C234.932 178.681 234.508 179.106 233.984 179.106C233.46 179.106 233.035 178.681 233.035 178.158Z" fill="black"/>
<path d="M222.602 188.582C222.602 188.059 223.026 187.634 223.55 187.634C224.074 187.634 224.499 188.059 224.499 188.582C224.499 189.105 224.074 189.53 223.55 189.53C223.026 189.53 222.602 189.105 222.602 188.582Z" fill="black"/>
<path d="M253.903 178.158C253.903 177.635 254.327 177.21 254.851 177.21C255.375 177.21 255.8 177.635 255.8 178.158C255.8 178.681 255.375 179.106 254.851 179.106C254.327 179.106 253.903 178.681 253.903 178.158Z" fill="black"/>
<path d="M243.469 188.582C243.469 188.059 243.894 187.634 244.418 187.634C244.941 187.634 245.366 188.059 245.366 188.582C245.366 189.105 244.941 189.53 244.418 189.53C243.894 189.53 243.469 189.105 243.469 188.582Z" fill="black"/>
<path d="M274.77 178.158C274.77 177.635 275.195 177.21 275.718 177.21C276.242 177.21 276.667 177.635 276.667 178.158C276.667 178.681 276.242 179.106 275.718 179.106C275.195 179.106 274.77 178.681 274.77 178.158Z" fill="black"/>
<path d="M264.336 188.582C264.336 188.059 264.761 187.634 265.285 187.634C265.809 187.634 266.233 188.059 266.233 188.582C266.233 189.105 265.809 189.53 265.285 189.53C264.761 189.53 264.336 189.105 264.336 188.582Z" fill="black"/>
<path d="M295.637 178.158C295.637 177.635 296.062 177.21 296.586 177.21C297.109 177.21 297.534 177.635 297.534 178.158C297.534 178.681 297.109 179.106 296.586 179.106C296.062 179.106 295.637 178.681 295.637 178.158Z" fill="black"/>
<path d="M285.203 188.582C285.203 188.059 285.628 187.634 286.152 187.634C286.676 187.634 287.101 188.059 287.101 188.582C287.101 189.105 286.676 189.53 286.152 189.53C285.628 189.53 285.203 189.105 285.203 188.582Z" fill="black"/>
<path d="M316.504 178.158C316.504 177.635 316.929 177.21 317.453 177.21C317.977 177.21 318.401 177.635 318.401 178.158C318.401 178.681 317.977 179.106 317.453 179.106C316.929 179.106 316.504 178.681 316.504 178.158Z" fill="black"/>
<path d="M306.071 188.582C306.071 188.059 306.495 187.634 307.019 187.634C307.543 187.634 307.968 188.059 307.968 188.582C307.968 189.105 307.543 189.53 307.019 189.53C306.495 189.53 306.071 189.105 306.071 188.582Z" fill="black"/>
<path d="M337.372 178.158C337.372 177.635 337.796 177.21 338.32 177.21C338.844 177.21 339.269 177.635 339.269 178.158C339.269 178.681 338.844 179.106 338.32 179.106C337.796 179.106 337.372 178.681 337.372 178.158Z" fill="black"/>
<path d="M326.938 188.582C326.938 188.059 327.363 187.634 327.887 187.634C328.41 187.634 328.835 188.059 328.835 188.582C328.835 189.105 328.41 189.53 327.887 189.53C327.363 189.53 326.938 189.105 326.938 188.582Z" fill="black"/>
<path d="M358.239 178.158C358.239 177.635 358.664 177.21 359.187 177.21C359.711 177.21 360.136 177.635 360.136 178.158C360.136 178.681 359.711 179.106 359.187 179.106C358.664 179.106 358.239 178.681 358.239 178.158Z" fill="black"/>
<path d="M347.805 188.582C347.805 188.059 348.23 187.634 348.754 187.634C349.278 187.634 349.702 188.059 349.702 188.582C349.702 189.105 349.278 189.53 348.754 189.53C348.23 189.53 347.805 189.105 347.805 188.582Z" fill="black"/>
<path d="M379.106 178.158C379.106 177.635 379.531 177.21 380.055 177.21C380.578 177.21 381.003 177.635 381.003 178.158C381.003 178.681 380.578 179.106 380.055 179.106C379.531 179.106 379.106 178.681 379.106 178.158Z" fill="black"/>
<path d="M368.672 188.582C368.672 188.059 369.097 187.634 369.621 187.634C370.145 187.634 370.57 188.059 370.57 188.582C370.57 189.105 370.145 189.53 369.621 189.53C369.097 189.53 368.672 189.105 368.672 188.582Z" fill="black"/>
<path d="M170.434 199.006C170.434 198.483 170.858 198.059 171.382 198.059C171.906 198.059 172.331 198.483 172.331 199.006C172.331 199.53 171.906 199.954 171.382 199.954C170.858 199.954 170.434 199.53 170.434 199.006Z" fill="black"/>
<path d="M160 209.43C160 208.907 160.425 208.483 160.949 208.483C161.472 208.483 161.897 208.907 161.897 209.43C161.897 209.954 161.472 210.378 160.949 210.378C160.425 210.378 160 209.954 160 209.43Z" fill="black"/>
<path d="M191.301 199.006C191.301 198.483 191.726 198.059 192.249 198.059C192.773 198.059 193.198 198.483 193.198 199.006C193.198 199.53 192.773 199.954 192.249 199.954C191.726 199.954 191.301 199.53 191.301 199.006Z" fill="black"/>
<path d="M180.867 209.43C180.867 208.907 181.292 208.483 181.816 208.483C182.34 208.483 182.764 208.907 182.764 209.43C182.764 209.954 182.34 210.378 181.816 210.378C181.292 210.378 180.867 209.954 180.867 209.43Z" fill="black"/>
<path d="M212.168 199.006C212.168 198.483 212.593 198.059 213.117 198.059C213.64 198.059 214.065 198.483 214.065 199.006C214.065 199.53 213.64 199.954 213.117 199.954C212.593 199.954 212.168 199.53 212.168 199.006Z" fill="black"/>
<path d="M201.734 209.43C201.734 208.907 202.159 208.483 202.683 208.483C203.207 208.483 203.632 208.907 203.632 209.43C203.632 209.954 203.207 210.378 202.683 210.378C202.159 210.378 201.734 209.954 201.734 209.43Z" fill="black"/>
<path d="M233.035 199.006C233.035 198.483 233.46 198.059 233.984 198.059C234.508 198.059 234.932 198.483 234.932 199.006C234.932 199.53 234.508 199.954 233.984 199.954C233.46 199.954 233.035 199.53 233.035 199.006Z" fill="black"/>
<path d="M222.602 209.43C222.602 208.907 223.026 208.483 223.55 208.483C224.074 208.483 224.499 208.907 224.499 209.43C224.499 209.954 224.074 210.378 223.55 210.378C223.026 210.378 222.602 209.954 222.602 209.43Z" fill="black"/>
<path d="M253.903 199.006C253.903 198.483 254.327 198.059 254.851 198.059C255.375 198.059 255.8 198.483 255.8 199.006C255.8 199.53 255.375 199.954 254.851 199.954C254.327 199.954 253.903 199.53 253.903 199.006Z" fill="black"/>
<path d="M243.469 209.43C243.469 208.907 243.894 208.483 244.418 208.483C244.941 208.483 245.366 208.907 245.366 209.43C245.366 209.954 244.941 210.378 244.418 210.378C243.894 210.378 243.469 209.954 243.469 209.43Z" fill="black"/>
<path d="M274.77 199.006C274.77 198.483 275.195 198.059 275.718 198.059C276.242 198.059 276.667 198.483 276.667 199.006C276.667 199.53 276.242 199.954 275.718 199.954C275.195 199.954 274.77 199.53 274.77 199.006Z" fill="black"/>
<path d="M264.336 209.43C264.336 208.907 264.761 208.483 265.285 208.483C265.809 208.483 266.233 208.907 266.233 209.43C266.233 209.954 265.809 210.378 265.285 210.378C264.761 210.378 264.336 209.954 264.336 209.43Z" fill="black"/>
<path d="M295.637 199.006C295.637 198.483 296.062 198.059 296.586 198.059C297.109 198.059 297.534 198.483 297.534 199.006C297.534 199.53 297.109 199.954 296.586 199.954C296.062 199.954 295.637 199.53 295.637 199.006Z" fill="black"/>
<path d="M285.203 209.43C285.203 208.907 285.628 208.483 286.152 208.483C286.676 208.483 287.101 208.907 287.101 209.43C287.101 209.954 286.676 210.378 286.152 210.378C285.628 210.378 285.203 209.954 285.203 209.43Z" fill="black"/>
<path d="M316.504 199.006C316.504 198.483 316.929 198.059 317.453 198.059C317.977 198.059 318.401 198.483 318.401 199.006C318.401 199.53 317.977 199.954 317.453 199.954C316.929 199.954 316.504 199.53 316.504 199.006Z" fill="black"/>
<path d="M306.071 209.43C306.071 208.907 306.495 208.483 307.019 208.483C307.543 208.483 307.968 208.907 307.968 209.43C307.968 209.954 307.543 210.378 307.019 210.378C306.495 210.378 306.071 209.954 306.071 209.43Z" fill="black"/>
<path d="M337.372 199.006C337.372 198.483 337.796 198.059 338.32 198.059C338.844 198.059 339.269 198.483 339.269 199.006C339.269 199.53 338.844 199.954 338.32 199.954C337.796 199.954 337.372 199.53 337.372 199.006Z" fill="black"/>
<path d="M326.938 209.43C326.938 208.907 327.363 208.483 327.887 208.483C328.41 208.483 328.835 208.907 328.835 209.43C328.835 209.954 328.41 210.378 327.887 210.378C327.363 210.378 326.938 209.954 326.938 209.43Z" fill="black"/>
<path d="M358.239 199.006C358.239 198.483 358.664 198.059 359.187 198.059C359.711 198.059 360.136 198.483 360.136 199.006C360.136 199.53 359.711 199.954 359.187 199.954C358.664 199.954 358.239 199.53 358.239 199.006Z" fill="black"/>
<path d="M347.805 209.43C347.805 208.907 348.23 208.483 348.754 208.483C349.278 208.483 349.702 208.907 349.702 209.43C349.702 209.954 349.278 210.378 348.754 210.378C348.23 210.378 347.805 209.954 347.805 209.43Z" fill="black"/>
<path d="M379.106 199.006C379.106 198.483 379.531 198.059 380.055 198.059C380.578 198.059 381.003 198.483 381.003 199.006C381.003 199.53 380.578 199.954 380.055 199.954C379.531 199.954 379.106 199.53 379.106 199.006Z" fill="black"/>
<path d="M368.672 209.43C368.672 208.907 369.097 208.483 369.621 208.483C370.145 208.483 370.57 208.907 370.57 209.43C370.57 209.954 370.145 210.378 369.621 210.378C369.097 210.378 368.672 209.954 368.672 209.43Z" fill="black"/>
</mask>
<g mask="url(#mask0)">
<circle cx="249.865" cy="107.872" r="78.0564" fill="#DCB1DC"/>
</g>
<rect x="236" y="126.361" width="45.7649" height="11.4412" rx="5.72062" transform="rotate(-45 236 126.361)" fill="#F7931E"/>
<rect x="186.054" y="60.6875" width="45.7649" height="11.4412" rx="5.72062" transform="rotate(-45 186.054 60.6875)" fill="#F7931E"/>
<rect x="226.619" y="44.5071" width="22.8825" height="11.4412" rx="5.72062" transform="rotate(-45 226.619 44.5071)" fill="#F7931E"/>
<path d="M145.26 166.836V173.075V188.484C145.26 195.845 143.763 203.019 140.831 209.57C138.211 215.684 134.468 221.298 129.664 226.102H129.602C123.987 231.779 117.125 236.021 109.701 238.641C104.086 240.637 98.1598 241.698 92.1085 241.698H86.2444C80.1307 241.698 74.1418 240.7 68.5272 238.641C67.5914 238.329 66.718 238.017 65.8446 237.643C59.419 234.96 53.5549 231.092 48.5641 226.102C43.7605 221.298 40.0174 215.684 37.3973 209.57C34.4652 203.019 32.968 195.845 32.968 188.484V173.075V154.36V129.406H57.6722H57.7346H107.829C128.479 129.406 145.26 146.187 145.26 166.836Z" fill="#FED2A4"/>
<path d="M105.628 208.323H74.6865C74.6865 216.582 81.6095 223.272 90.157 223.272C94.4115 223.272 98.2791 221.59 101.102 218.9C103.887 216.171 105.628 212.434 105.628 208.323Z" fill="#FFBD86"/>
<path d="M119.186 171.24C118.319 171.24 117.508 171.48 116.818 171.895C114.68 173.183 112.643 175.644 110.147 175.644C107.651 175.644 105.553 173.559 106.411 171.216C108.284 166.103 113.304 162.433 119.186 162.433C125.068 162.433 130.088 166.103 131.961 171.216C132.819 173.559 130.721 175.644 128.225 175.644C125.729 175.644 123.692 173.183 121.554 171.895C120.865 171.48 120.053 171.24 119.186 171.24Z" fill="#754C29"/>
<path d="M60.4327 162.433C66.3146 162.433 71.3348 166.103 73.2075 171.216C74.066 173.559 71.9677 175.644 69.4717 175.644C66.9756 175.644 64.9386 173.183 62.8004 171.895C62.1112 171.48 61.2999 171.24 60.4327 171.24C59.5654 171.24 58.7541 171.48 58.0649 171.895C55.9267 173.183 53.8897 175.644 51.3937 175.644C48.8976 175.644 46.7993 173.559 47.6578 171.216C49.5306 166.103 54.5507 162.433 60.4327 162.433Z" fill="#754C29"/>
<path d="M153.94 154.091L155.69 157.566L149.953 163.476C149.953 163.476 147.935 163.398 145.086 161.042C141.449 158.041 137.404 142.298 120.577 131.839C103.749 121.381 68.6849 162.746 28.1502 155.522C11.3901 157.282 31.5717 124.552 31.5717 124.552L49.1371 105.412C62.9872 90.3196 83.7401 83.6646 103.749 87.897C125.39 92.4748 142.55 108.998 147.982 130.5L153.94 154.091Z" fill="#754C29"/>
<path d="M162.295 159.652H149.184V150.98C149.184 118.224 122.86 91.5739 90.5047 91.5739C58.1491 91.5739 31.825 118.224 31.825 150.98V159.652H18.7142V150.98C18.7142 110.901 50.9217 78.3008 90.5047 78.3008C130.088 78.3008 162.295 110.901 162.295 150.98V159.652Z" fill="url(#paint0_linear)"/>
<path d="M126.713 241.854H97.827C94.2948 241.854 91.4246 238.989 91.4246 235.451C91.4246 231.914 94.2892 229.049 97.827 229.049H126.713C138.127 229.049 147.405 219.765 147.405 208.351V180.961C147.405 177.424 150.27 174.559 153.808 174.559C157.345 174.559 160.21 177.424 160.21 180.961V208.351C160.21 226.824 145.186 241.854 126.713 241.854Z" fill="#231F20"/>
<path d="M156.112 153.046H145.276C144.724 153.046 144.276 153.494 144.276 154.046V200.37C144.276 200.922 144.724 201.37 145.276 201.37H156.112C164.165 201.37 170.698 194.83 170.698 186.754V167.662C170.692 159.586 164.165 153.046 156.112 153.046Z" fill="url(#paint1_linear)"/>
<path d="M7.30072 167.662V186.754C7.30072 194.824 13.8333 201.37 21.8865 201.37H32.7224C33.2747 201.37 33.7224 200.922 33.7224 200.37V154.046C33.7224 153.494 33.2747 153.046 32.7224 153.046H21.8865C13.8269 153.046 7.30072 159.586 7.30072 167.662Z" fill="url(#paint2_linear)"/>
<path d="M151.21 165.898V183.231C151.21 186.246 153.652 188.693 156.672 188.693C159.693 188.693 162.134 186.246 162.134 183.231V165.898C162.134 162.883 159.693 160.436 156.672 160.436C153.657 160.436 151.21 162.883 151.21 165.898Z" fill="#F7931E"/>
<path d="M15.725 165.898V183.231C15.725 186.246 18.167 188.693 21.1874 188.693C24.2078 188.693 26.6497 186.246 26.6497 183.231V165.898C26.6497 162.883 24.2078 160.436 21.1874 160.436C18.167 160.436 15.725 162.883 15.725 165.898Z" fill="#F7931E"/>
<defs>
<linearGradient id="paint0_linear" x1="162.295" y1="118.976" x2="18.7142" y2="118.976" gradientUnits="userSpaceOnUse">
<stop stop-color="#90278E"/>
<stop offset="1" stop-color="#DB48D8"/>
</linearGradient>
<linearGradient id="paint1_linear" x1="144.276" y1="177.208" x2="170.698" y2="177.208" gradientUnits="userSpaceOnUse">
<stop stop-color="#EF4223"/>
<stop offset="0.0001" stop-color="#EF4323"/>
<stop offset="1" stop-color="#F7931E"/>
</linearGradient>
<linearGradient id="paint2_linear" x1="7.30072" y1="177.208" x2="33.7224" y2="177.208" gradientUnits="userSpaceOnUse">
<stop stop-color="#EF4223"/>
<stop offset="0.0001" stop-color="#EF4323"/>
<stop offset="1" stop-color="#F7931E"/>
</linearGradient>
</defs>
</svg>
