<svg xmlns="http://www.w3.org/2000/svg" width="503" height="500" viewBox="0 0 503 500"><linearGradient id="a" gradientUnits="userSpaceOnUse" x1="-.341" y1="252.022" x2="502.632" y2="252.022" gradientTransform="matrix(1 0 0 -1 0 502)"><stop offset="0" stop-color="#EF4223"/><stop offset="0" stop-color="#EF4323"/><stop offset="1" stop-color="#F7931E"/></linearGradient><path fill="url(#a)" d="M209.2 110.1c1.6-.5 2.6-1.6 3.1-2.6l21-47.8 29.4 43.1c1 1 2.1 2.1 3.7 2.1s2.6-.5 4.2-1.6l37.7-36.3 10.5 51.4c.5 1.6 1 2.6 2.6 3.1 1 .5 2.6 1 4.2.5l49.3-19.2-10 51.4c0 1.6 0 3.1 1 4.2 1 1 2.1 1.6 3.7 2.1l52.4.5-29.4 43.6c-1 1-1 2.6-.5 4.2s1.6 2.6 2.6 3.1l48.2 20.8-44 29.1c-1 1-2.1 2.1-2.1 3.6s.5 2.6 1.6 3.6l36.7 37.4-51.9 10.4c-1.6.5-2.6 1-3.1 2.6-.5 1-.5 2.6 0 4.2l19.4 48.8-51.9-9.9c-1.6 0-3.1 0-4.2 1-1 1-1.6 2.1-2.1 3.6l-1 52.5-43-29.1c-1-1-2.6-1-4.2-.5s-2.6 1.6-3.1 2.6l-21 47.8-29.4-43.6c-1-1-2.1-2.1-3.7-2.1s-2.6.5-4.2 1.6l-37.7 36.3-10.5-51.4c-.5-1.6-1-2.6-2.6-3.1-1-.5-2.6-.5-4.2 0l-49.3 19.2 10-51.4c.5-1.6 0-3.1-1-4.2-1-1-2.1-1.6-3.7-1.6l-52.9-1 29.4-43.6c.5-1 1-2.6.5-4.2s-1.6-2.6-2.6-3.1l-48.2-20.8 44-29.1c1-1 2.1-2.1 2.1-3.6 0-1.6-.5-2.6-1.6-4.2l-36.7-37.4 51.9-10.4c1.6-.5 2.6-1 3.1-2.6.5-1 1-2.6 0-4.2l-19.4-48.8 51.9 9.9c1.6 0 3.1 0 4.2-1 1-1 1.6-2.1 1.6-3.6l1-51.9 44 29.1c1 .5 1.6 1 2.6 1 .6 0 1.1-.5 1.6-.5zm40.9-110.1c-1.6.5-2.6 1.6-3.1 2.6l-15.7 36.4-22.6-32.8c-1.6-2.1-4.7-2.6-6.8-1s-2.6 4.7-1.6 6.8l25.7 37.8-21 48.3-44-29.1.5-45.7c0-2.6-2.1-4.7-4.7-5.2-1 0-2.1.5-3.1 1-1 1-1.6 2.1-1.6 3.6l-.5 39.5-33.6-21.7c-2.1-1.6-5.2-1-6.8 1.6-1.6 2.1-1 5.2 1.6 6.8l38.8 25.4-1 53-52.4-9.9-16.9-42.6c-1-2.6-3.7-3.6-6.3-2.6-1 .5-2.1 1-2.6 2.1-.5 1-1 2.6 0 4.2l14.7 36.9-39.3-7.8c-2.6-.5-5.2 1-5.8 3.6-.5 2.6 1 5.2 3.7 5.7l45.6 8.8 19.4 48.8-51.9 10.4-32-32.7c-2.1-2.1-5.2-2.1-6.8 0-1 1-1.6 2.1-1.6 3.1 0 1.6.5 2.6 1.6 4.2l27.8 28.5-39.3 7.8c-2.6.5-4.2 3.1-3.7 5.7s3.1 4.2 5.8 3.6l45.1-9.3 37.2 37.9-44 29.6-42.6-18.2c-2.6-1-5.2 0-6.3 2.6-.5 1-.5 2.1 0 3.1.5 1.6 1.6 2.6 2.6 3.1l36.7 15.6-33 22.3c-3.7 1.6-4.2 4.2-2.6 6.8 1.6 2.1 4.7 2.6 6.8 1.6l38.3-25.4 48.8 20.8-29.4 44.1-46.1-.5c-2.6 0-4.7 2.1-5.2 4.7 0 1 .5 2.1 1 3.1 1 .5 2.6 1 4.2 1l39.8.5-22 33.2c-1.6 2.1-1 5.2 1.6 6.8 2.1 1.6 5.2 1 6.8-1.6l25.7-38.4 53.5 1-10 51.9-43 16.6c-2.6 1-3.7 3.6-2.6 6.2 1 2.6 3.7 3.6 6.3 2.6l37.2-14.5-8.4 39.5c-.5 2.6 1 5.2 3.7 5.7 2.6.5 5.2-1 5.8-3.6l8.9-45.2 49.3-19.2 10.5 51.4-33 31.7c-2.1 2.1-2.1 5.2 0 6.8 2.1 2.1 5.2 2.1 6.8 0l28.8-27.5 7.9 39c.5 2.6 3.1 4.2 5.8 3.6 2.6-.5 4.2-3.1 3.7-5.7l-9.4-45.2 38.3-36.9 29.9 43.6-17.8 43.1c-1 2.6 0 5.2 2.6 6.2s5.2 0 6.3-2.6l15.7-36.4 22.5 32.7c1.6 2.1 4.7 2.6 6.8 1.6 2.1-1.6 2.6-4.7 1.6-6.8l-25.7-37.9 21-48.3 44.6 29.1-.5 45.7c0 2.6 2.1 4.7 4.7 5.2 2.6 0 4.7-2.1 5.2-4.7l.5-39.5 33.5 21.8c2.1 1.6 5.2 1 6.8-1.6 1.6-2.1 1-5.2-1.6-6.8l-39.3-25.4 1-53 52.4 9.9 16.8 42.6c1 2.6 3.7 3.6 6.3 2.6 2.6-1 3.7-3.6 2.6-6.2l-14.7-36.9 39.3 7.8c2.6.5 5.2-1 5.8-3.6.5-2.6-1-5.2-3.7-5.7l-45.6-8.8-19.4-48.8 51.9-10.4 32 32.7c2.1 2.1 5.2 2.1 6.8 0 2.1-2.1 2.1-5.2 0-6.8l-27.8-28.6 39.3-7.8c2.6-.5 4.2-3.1 3.7-5.7s-3.1-4.2-5.8-3.6l-45.1 9.3-37.2-37.9 44-29.6 42.5 18.2c2.6 1 5.2 0 6.3-2.6 1-2.6 0-5.2-2.6-6.2l-36.7-15.6 33-22.3c2.1-1.6 2.6-4.7 1.6-6.8-1.6-2.1-4.7-2.6-6.8-1.6l-38.3 25.4-48.8-20.8 29.9-44.1 46.1.5c2.6 0 4.7-2.1 5.2-4.7 0-2.6-2.1-4.7-4.7-5.2l-39.8-.5 22-33.2c1.6-2.1 1-5.2-1.6-6.8-2.1-1.6-5.2-1-6.8 1.6l-25.7 38.4-53.5-1 10-51.9 43-16.6c2.6-1 3.7-3.6 2.6-6.2-.5-1-1-2.1-2.1-2.6-1-.5-2.6-1-4.2 0l-37.2 14.5 7.9-39c.5-2.6-1-5.2-3.7-5.7-2.6-.5-5.2 1-5.8 3.6l-8.9 45.2-49.3 19.2-10.5-51.9 33-31.2c2.1-2.1 2.1-5.2 0-6.8-1-1-2.1-1.6-3.1-1.6-1.6 0-2.6.5-3.7 1.6l-28.8 27.8-7.9-39c-.5-2.6-3.1-4.2-5.8-3.6s-4.2 3.1-3.7 5.7l9.4 44.7-38.3 36.9-29.7-43.7 18.3-42.1c1-2.6 0-5.2-2.6-6.2-.5-1-1.6-1-2.1-1h-1.5z"/></svg>