<svg width="32" height="30" viewBox="0 0 32 30" xmlns="http://www.w3.org/2000/svg" fill="none"><path fill-rule="evenodd" clip-rule="evenodd" d="M0 2.195c0-1.212.982-2.195 2.194-2.195h27.611c1.212 0 2.194.983 2.194 2.195 0 1.212-.982 2.195-2.194 2.195h-27.611c-1.212 0-2.194-.983-2.194-2.195z" fill="#F6921E"/><path fill-rule="evenodd" clip-rule="evenodd" d="M0 9.512c0-1.212.982-2.195 2.194-2.195h27.611c1.212 0 2.194.983 2.194 2.195 0 1.212-.982 2.195-2.194 2.195h-27.611c-1.212 0-2.194-.983-2.194-2.195z" fill="#00994E"/><path fill-rule="evenodd" clip-rule="evenodd" d="M2.194 14.634c-1.212 0-2.194.983-2.194 2.195 0 1.212.982 2.195 2.194 2.195h11.52v8.78c0 1.212.982 2.195 2.194 2.195s2.194-.983 2.194-2.195v-8.78h11.703c1.212 0 2.194-.983 2.194-2.195 0-1.212-.982-2.195-2.194-2.195h-27.611z" fill="#90278E"/></svg>