<svg width="398" height="75" viewBox="0 0 398 75" xmlns="http://www.w3.org/2000/svg" fill="none"><path fill-rule="evenodd" clip-rule="evenodd" d="M117.922 21.618c-.148-2.218-2.05-3.972-4.374-3.972-2.42 0-4.382 1.903-4.382 4.251v46.643c0 2.348 1.962 4.251 4.382 4.251 2.421 0 4.383-1.903 4.383-4.251v-13.501c3.522 2.494 7.863 3.965 12.558 3.965 11.775 0 21.321-9.258 21.321-20.679s-9.546-20.679-21.321-20.679c-4.699 0-9.043 1.474-12.567 3.972zm25.123 16.707c0 6.726-5.622 12.178-12.556 12.178-6.935 0-12.556-5.452-12.556-12.178 0-6.726 5.621-12.178 12.556-12.178 6.934 0 12.556 5.452 12.556 12.178zM303.072 17.646c2.421 0 4.383 1.903 4.383 4.251v46.643c0 2.348-1.962 4.251-4.383 4.251-2.42 0-4.383-1.903-4.383-4.251v-46.643c0-2.348 1.963-4.251 4.383-4.251zM210.324 21.897c0-2.348-1.962-4.251-4.383-4.251-2.42 0-4.382 1.903-4.382 4.251v30.559l.01.288c.344 11.128 9.754 20.046 21.311 20.046 11.776 0 21.322-9.258 21.322-20.679s-9.546-20.679-21.322-20.679c-4.694 0-9.034 1.471-12.556 3.964v-13.5zm25.112 30.215c0 6.726-5.621 12.178-12.556 12.178-6.934 0-12.556-5.452-12.556-12.178 0-6.725 5.622-12.178 12.556-12.178 6.935 0 12.556 5.452 12.556 12.178zM257.705 21.897c0-2.348-1.962-4.251-4.383-4.251-2.42 0-4.383 1.903-4.383 4.251v30.559l.01.287c.344 11.129 9.754 20.048 21.312 20.048 11.776 0 21.322-9.258 21.322-20.679s-9.546-20.679-21.322-20.679c-4.694 0-9.034 1.471-12.556 3.964v-13.5zm25.112 30.215c0 6.726-5.621 12.178-12.556 12.178-6.934 0-12.556-5.452-12.556-12.178 0-6.725 5.622-12.178 12.556-12.178 6.935 0 12.556 5.452 12.556 12.178zM322.426 49.307c1.377-5.361 6.138-9.076 11.799-9.076 5.633 0 10.374 3.842 11.778 9.076h-23.577zm.211 7.353c1.508 4.732 5.706 7.745 11.588 7.704 1.649 0 2.761-.009 3.998-.222 1.191-.205 2.648-.631 4.703-1.627 2.165-1.05 4.797-.199 5.88 1.901 1.082 2.1.205 4.653-1.96 5.703-2.684 1.301-4.943 2.024-7.092 2.394-2.051.353-3.862.353-5.416.353h-.113c-11.579 0-20.966-8.632-20.966-20.335 0-11.702 9.387-20.801 20.966-20.801s20.966 9.099 20.966 20.801c0 2.34-1.949 4.117-4.359 4.129h-28.195zM163.169 49.307c1.378-5.361 6.138-9.076 11.8-9.076 5.632 0 10.374 3.842 11.778 9.076h-23.578zm.212 7.353c1.507 4.732 5.706 7.745 11.588 7.704 1.648 0 2.761-.009 3.998-.222 1.191-.205 2.647-.631 4.702-1.627 2.165-1.05 4.798-.199 5.88 1.901 1.083 2.1.205 4.653-1.96 5.703-2.683 1.301-4.943 2.024-7.091 2.394-2.052.353-3.862.353-5.416.353h-.113c-11.58 0-20.967-8.632-20.967-20.335 0-11.702 9.387-20.801 20.967-20.801 11.579 0 20.966 9.099 20.966 20.801 0 2.34-1.949 4.117-4.359 4.129h-28.195z" fill="#4B485F"/><path d="M386.209 48.644c6.172 0 11.176 4.426 11.176 11.276 0 6.851-5.775 12.404-12.192 12.404h-20.32c-2.244 0-4.064-1.708-4.064-4.199 0-2.491 1.82-4.355 4.064-4.355h19.999000000000002c2.888 0 4.332-1.942 4.332-3.811 0-1.868-1.444-3.966-4.332-3.966h-12.994c-6.172 0-11.069-5.281-11.069-12.132 0-6.85 5.86-12.132 12.032-12.132h18.194c2.244 0 4.064 2.019 4.064 4.511 0 2.491-1.82 4.044-4.064 4.044h-18.194c-2.407 0-4.332 2.178-4.332 4.277 0 2.1 1.925 4.083 4.332 4.083h13.368z" fill="#4B485F"/><path fill-rule="evenodd" clip-rule="evenodd" d="M0 5.735c0-2.924 2.444-5.294 5.458-5.294h68.683c3.014 0 5.458 2.37 5.458 5.294 0 2.924-2.444 5.294-5.458 5.294h-68.683c-3.015 0-5.458-2.37-5.458-5.294z" fill="#F6921E"/><path fill-rule="evenodd" clip-rule="evenodd" d="M0 23.381c0-2.924 2.444-5.294 5.458-5.294h68.683c3.014 0 5.458 2.37 5.458 5.294 0 2.924-2.444 5.294-5.458 5.294h-68.683c-3.015 0-5.458-2.37-5.458-5.294z" fill="#00994E"/><path fill-rule="evenodd" clip-rule="evenodd" d="M5.458 35.733c-3.015 0-5.458 2.37-5.458 5.294 0 2.924 2.444 5.294 5.458 5.294h28.656v21.176c0 2.924 2.444 5.294 5.458 5.294 3.015 0 5.458-2.37 5.458-5.294v-21.176h29.111c3.014 0 5.458-2.37 5.458-5.294 0-2.924-2.444-5.294-5.458-5.294h-68.683z" fill="#90278E"/></svg>