<svg width="200" height="199" viewBox="0 0 200 199" xmlns="http://www.w3.org/2000/svg" fill="none"><path d="M200 93.88c0 42.5-34.395 76.951-76.824 76.951-42.431 0-76.826-34.451-76.826-76.951 0-42.498 34.395-76.949 76.826-76.949 42.429 0 76.824 34.451 76.824 76.949z" fill="url(#a)"/><path d="M200 93.878c0 42.5-34.393 76.956-76.824 76.956s-76.824-34.456-76.824-76.956c0-2.215.094-4.408.279-6.578 3.334 39.414 36.327 70.367 76.544 70.367 40.22 0 73.21-30.953 76.547-70.367.185 2.17.277 4.363.277 6.578z" fill="#EF4323"/><path d="M110.151 73.79l14.872 8.834 5.361-25.116 11.572-19.758c.833-1.721 1.403-3.482 1.733-5.244.36-1.908.437-3.816.261-5.681l-31.292-9.341c-1.531 1.032-4.146 2.123-5.927 3.61l-.287.244c-6.151 5.343-9.066 14.737-10.006 18.386-.215.838.269 1.693 1.096 1.94l5.246 1.566-3.338 13.297c-.251.844.224 1.734 1.064 1.993l13.622-.319-3.977 15.59z" fill="#FED2A4"/><path d="M141.957 37.75l-9.917 20.096c-.401.812-1.431 1.075-2.171.554l-9.278-6.539c-.563-.398-.811-1.112-.614-1.773l5.784-19.441-5.164-1.541c-.369-.11-.669-.342-.869-.639-.261-.385-.352-.879-.209-1.359l2.187-7.351 22.198 6.626c.434 3.722-.144 7.639-1.947 11.367z" fill="#91633C"/><path d="M143.797 30.714l-35.695-10.655c-4.599-1.373-7.215-6.22-5.845-10.826l2.29-7.694c.252-.85 1.145-1.334 1.994-1.081l30.952 9.239c7.218 2.155 11.325 9.762 9.174 16.991l-.876 2.944c-.252.85-1.145 1.334-1.994 1.081z" fill="#754C29"/><path d="M114.034 47.223c-.54 1.815-1.628 3.135-3.236 3.918-3.019 1.475-7.104.584-9.122-.019-.556-.166-.954-.31-1.132-.378l.672-2.259.092.032c.007.002.402.154 1.037.344.556.166 1.292.36 2.117.506 2.212.394 4.049.274 5.31-.344 1.004-.491 1.66-1.301 2.01-2.474.185-.622.839-.977 1.461-.791.624.186.976.842.791 1.464z" fill="#FFBD86"/><path d="M109.727 31.596c1.1.328 1.903 1.237 2.095 2.371.108.641-.323 1.249-.963 1.357-.64.109-1.246-.323-1.354-.964-.033-.191-.168-.425-.449-.509-.282-.084-.522.038-.654.18-.441.477-1.184.506-1.66.064-.477-.441-.505-1.186-.064-1.663.781-.844 1.948-1.165 3.049-.836z" fill="#754C29"/><path d="M74.345 156.052c7.533-25.963 16.717-43.727 21.866-65.495l12.72 20.473 2.332 66.8-36.918-21.778z" fill="#fff"/><path d="M21.815 77.004c1.616 1.839 8.293 6.875 10.552 9.566l11.606-3.056c-3.459-2.778-10.91-8.907-13.048-11.193-2.672-2.858-5.413-12.281-6.875-14.949-1.462-2.668-2.672-2.858-3.758-1.809-1.085 1.049 1.869 6.695.225 8.114-1.644 1.419-14.905-5.997-17.125-7.337-2.221-1.339-1.195 3.042-.681 5.18s17.084 13.186 19.104 15.484z" fill="#FED2A4"/><path d="M22.461 79.516l6.603-12.905c35.084 36.606 68.972-1.169 87.582 2.818 15.1 3.235 16.118 2.549 20.732 16.443 11.666 46.608 8.759 84.101 7.136 103.434-56.656-2.607-61.653-16.489-56.613-34.573 5.04-18.084 9.079-30.964 10.094-43.06 0 0-26.793 7.257-42.102 1.262-15.309-5.996-26.628-22.992-33.432-33.42z" fill="#754C29"/><path d="M12.383 21.468c.093-.031.155-.093.186-.155l1.239-2.845 1.735 2.567c.062.062.124.124.217.124s.155-.031.248-.093l2.23-2.165.619 3.061c.031.093.062.155.155.186.062.031.155.062.248.031l2.912-1.144-.588 3.061c0 .093 0 .186.062.247.062.062.124.093.217.124l3.098.031-1.735 2.598c-.062.062-.062.155-.031.247.031.093.093.155.155.186l2.85 1.237-2.602 1.732c-.062.062-.124.124-.124.216 0 .093.031.155.093.216l2.168 2.226-3.067.618c-.093.031-.155.062-.186.155-.031.062-.031.155 0 .247l1.146 2.907-3.067-.588c-.093 0-.186 0-.248.062s-.093.124-.124.216l-.062 3.123-2.54-1.732c-.062-.062-.155-.062-.248-.031s-.155.093-.186.155l-1.239 2.845-1.735-2.598c-.062-.062-.124-.124-.217-.124s-.155.031-.248.093l-2.23 2.165-.62-3.061c-.031-.093-.062-.155-.155-.186-.062-.031-.155-.031-.248 0l-2.912 1.144.589-3.061c.031-.093 0-.186-.062-.247-.062-.062-.124-.093-.217-.093l-3.129-.062 1.735-2.598c.031-.062.062-.155.031-.247-.031-.093-.093-.155-.155-.185l-2.85-1.237 2.602-1.732c.062-.062.124-.124.124-.216 0-.093-.031-.155-.093-.247l-2.168-2.226 3.067-.618c.093-.031.155-.062.186-.155.031-.062.062-.155 0-.247l-1.146-2.907 3.067.588c.093 0 .186 0 .248-.062s.093-.124.093-.216l.062-3.092 2.602 1.732.155.062.093-.031zm2.416-6.556c-.093.031-.155.093-.186.155l-.929 2.165-1.332-1.948c-.093-.124-.279-.155-.403-.062s-.155.278-.093.402l1.518 2.257-1.239 2.876-2.602-1.732.031-2.721c0-.155-.124-.278-.279-.309l-.186.062c-.062.062-.093.124-.093.216l-.031 2.35-1.983-1.299c-.124-.093-.31-.062-.403.093-.093.124-.062.309.093.402l2.292 1.515-.062 3.154-3.098-.587-.991-2.536c-.062-.155-.217-.216-.372-.155-.062.031-.124.062-.155.124s-.062.155 0 .247l.867 2.195-2.323-.464c-.155-.031-.31.062-.341.216-.031.155.062.309.217.34l2.695.526 1.146 2.907-3.067.619-1.89-1.948c-.124-.124-.31-.124-.403 0-.062.062-.093.124-.093.186 0 .093.031.155.093.247l1.642 1.701-2.323.464c-.155.031-.248.186-.217.34.031.155.186.247.341.216l2.664-.557 2.199 2.257-2.602 1.763-2.509-1.082c-.155-.062-.31 0-.372.155-.031.062-.031.124 0 .186.031.093.093.155.155.186l2.168.928-1.952 1.33c-.217.093-.248.247-.155.402.093.124.279.155.403.093l2.261-1.515 2.881 1.237-1.735 2.629-2.726-.031c-.155 0-.279.124-.31.278l.062.186c.062.031.155.062.248.062l2.354.031-1.301 1.979c-.093.124-.062.309.093.402.124.093.31.062.403-.093l1.518-2.288 3.16.062-.589 3.092-2.54.989c-.155.062-.217.217-.155.371.062.155.217.216.372.155l2.199-.866-.496 2.35c-.031.155.062.309.217.34.155.031.31-.062.341-.216l.527-2.69 2.912-1.144.62 3.061-1.952 1.886c-.124.124-.124.309 0 .402.124.124.31.124.403 0l1.704-1.639.465 2.319c.031.155.186.247.341.216.155-.031.248-.185.217-.34l-.558-2.69 2.261-2.196 1.766 2.598-1.053 2.567c-.062.155 0 .309.155.371s.31 0 .372-.155l.929-2.165 1.332 1.948c.093.124.279.155.403.093.124-.093.155-.278.093-.402l-1.518-2.257 1.239-2.876 2.633 1.732-.031 2.721c0 .155.124.278.279.309.155 0 .279-.124.31-.278l.031-2.35 1.983 1.299c.124.093.31.062.403-.093.093-.124.062-.309-.093-.402l-2.323-1.515.062-3.154 3.098.587.991 2.536c.062.155.217.216.372.155.155-.062.217-.216.155-.371l-.867-2.196 2.323.464c.155.031.31-.062.341-.216.031-.155-.062-.309-.217-.34l-2.695-.526-1.146-2.907 3.067-.618 1.89 1.948c.124.124.31.124.403 0 .124-.124.124-.309 0-.402l-1.642-1.701 2.323-.464c.155-.031.248-.185.217-.34-.031-.155-.186-.247-.341-.217l-2.664.557-2.199-2.257 2.602-1.763 2.509 1.082c.155.062.31 0 .372-.155s0-.309-.155-.371l-2.168-.928 1.951-1.33c.124-.093.155-.278.093-.402-.093-.124-.279-.155-.403-.093l-2.261 1.515-2.881-1.237 1.766-2.628 2.726.031c.155 0 .279-.124.31-.278 0-.155-.124-.278-.279-.309l-2.354-.031 1.301-1.979c.093-.124.062-.309-.093-.402-.124-.093-.31-.062-.403.093l-1.518 2.288-3.16-.062.589-3.092 2.54-.99c.155-.062.217-.216.155-.371-.031-.062-.062-.124-.124-.155s-.155-.062-.248 0l-2.199.866.465-2.319c.031-.155-.062-.309-.217-.34-.155-.031-.31.062-.341.216l-.527 2.69-2.912 1.144-.619-3.092 1.952-1.855c.124-.124.124-.309 0-.402-.062-.062-.124-.093-.186-.093-.093 0-.155.031-.217.093l-1.704 1.639-.465-2.319c-.031-.155-.186-.247-.341-.216-.155.031-.248.186-.217.34l.558 2.659-2.261 2.196-1.766-2.598 1.084-2.505c.062-.155 0-.309-.155-.371-.031-.062-.093-.062-.124-.062h-.093z" fill="url(#b)"/><path d="M175.452 152.279c-.39-.39-1.169-.39-1.559 0-.39.391-.39 1.171 0 1.691.26.26.52.39.78.39s.519-.13.779-.39c.52-.52.52-1.17 0-1.691zM164.017 142.395c.39-.391.39-1.171 0-1.561-.39-.39-1.17-.39-1.559 0-.39.39-.39 1.17 0 1.691.26.26.519.39.779.39.26-.13.52-.26.78-.52zM152.582 130.949c.39-.39.39-1.171 0-1.561-.39-.39-1.17-.39-1.559 0-.39.39-.39 1.171 0 1.691.259.26.519.39.779.39s.52-.39.78-.52zM158.299 136.672c.39-.391.39-1.171 0-1.561-.389-.39-1.169-.39-1.559 0-.39.39-.39 1.17 0 1.691.26.26.52.26.78.26s.52-.13.779-.39zM169.735 148.117c.389-.39.389-1.17 0-1.56-.39-.391-1.17-.391-1.56 0-.39.39-.39 1.17 0 1.691.26.26.52.39.78.39.26-.13.65-.26.78-.521zM181.169 158.002c-.39-.39-1.169-.39-1.559 0-.39.39-.39 1.171 0 1.691.26.26.52.39.78.39s.519-.13.779-.39c.52-.52.52-1.171 0-1.691zM174.152 129.258c-.519-.52-1.169-.52-1.689 0-.39.39-.39 1.171 0 1.691.26.26.52.39.78.39s.519-.13.779-.39c.65-.52.65-1.171.13-1.691zM180.13 136.932c.39-.39.39-1.171 0-1.561-.39-.39-1.169-.39-1.559 0-.39.39-.39 1.171 0 1.691.26.26.519.39.779.39s.65-.39.78-.52zM186.107 141.224c-.39-.39-1.169-.39-1.559 0-.39.39-.39 1.17 0 1.691.26.26.52.39.779.39.26 0 .52-.13.78-.39.52-.521.52-1.171 0-1.691zM192.085 147.207c-.39-.39-1.17-.39-1.559 0-.39.39-.39 1.17 0 1.691.259.26.519.39.779.39s.52-.13.78-.39c.52-.521.52-1.171 0-1.691zM153.492 152.019c-.39-.39-1.17-.39-1.56 0-.39.39-.39 1.171 0 1.691.26.26.52.39.78.39s.52-.13.78-.39c.519-.52.519-1.171 0-1.691zM147.775 146.296c-.39-.39-1.17-.39-1.56 0-.39.39-.39 1.171 0 1.691.26.26.52.39.78.39s.52-.13.78-.39c.519-.52.519-1.17 0-1.691zM159.209 157.612c-.39-.39-1.169-.39-1.559 0-.39.39-.39 1.171 0 1.691.26.26.52.39.779.39.26 0 .52-.13.78-.39.39-.39.39-1.171 0-1.691zM130.752 129.258c-.39-.39-1.17-.39-1.56 0-.39.39-.39 1.171 0 1.691.26.26.52.39.78.39s.52-.13.78-.39c.519-.52.519-1.171 0-1.691zM142.057 140.574c-.39-.391-1.17-.391-1.56 0-.39.39-.39 1.17 0 1.69.26.261.52.261.78.261s.65-.13.78-.391c.519-.26.519-1.04 0-1.56zM170.514 169.058c-.39-.391-1.17-.391-1.56 0-.389.39-.389 1.17 0 1.69.26.26.52.26.78.26s.65-.13.78-.39c.52-.39.52-1.17 0-1.56zM164.797 163.335c-.39-.391-1.17-.391-1.56 0-.39.39-.39 1.17 0 1.69.26.26.52.391.78.391s.52-.131.78-.391c.519-.52.519-1.17 0-1.69zM136.469 134.981c-.39-.39-1.17-.39-1.559 0-.39.39-.39 1.17 0 1.691.259.26.519.39.779.39s.52-.13.78-.39c.52-.521.52-1.171 0-1.691zM158.17 125.226c.519-.52.519-1.17.13-1.691-.26-.26-.52-.39-.78-.39s-.52.13-.78.26c-.39.39-.519 1.171 0 1.691.39.52 1.04.52 1.43.13zM174.672 105.977c-.26 0-.649.13-.779.39-.39.39-.52 1.17 0 1.691.389.39 1.169.52 1.559 0 .39-.391.39-1.171 0-1.561-.13-.39-.52-.52-.78-.52zM180.39 100.254c-.26 0-.65.13-.78.39-.39.39-.52 1.171 0 1.691.39.39 1.17.52 1.559 0 .39-.39.39-1.171 0-1.561-.129-.52-.389-.52-.779-.52zM164.017 119.373c.52-.52.52-1.17 0-1.691-.26-.26-.52-.39-.78-.39s-.649.13-.779.39c-.39.391-.52 1.171 0 1.691.389.521 1.039.521 1.559 0zM169.734 113.651c.52-.521.52-1.171 0-1.691-.259-.26-.519-.39-.779-.39s-.52.13-.78.39c-.39.39-.52 1.17 0 1.691.39.39 1.04.52 1.559 0zM185.328 117.032c-.26 0-.52.13-.78.39-.39.39-.52 1.171 0 1.691.39.39 1.17.52 1.559 0 .39-.39.39-1.171 0-1.561-.13-.52-.519-.52-.779-.52zM192.085 113c.52-.52.52-1.171 0-1.691-.26-.26-.52-.39-.78-.39s-.519.13-.779.39c-.39.39-.52 1.171 0 1.691.39.39 1.169.39 1.559 0zM180.13 124.966c.519-.52.519-1.171 0-1.691-.26-.26-.52-.39-.78-.39s-.52.13-.78.39c-.389.39-.519 1.171 0 1.691.39.39 1.17.39 1.56 0zM169.735 89.198c-.26 0-.52.13-.78.26-.39.39-.52 1.171 0 1.691.39.39 1.169.52 1.559 0 .39-.39.52-1.171 0-1.561-.13-.26-.52-.39-.779-.39zM158.429 100.514c-.26 0-.65.13-.78.39-.389.39-.519 1.171 0 1.691.39.39 1.17.52 1.56 0 .39-.39.39-1.171 0-1.561-.26-.39-.52-.52-.78-.52zM164.017 94.921c-.26 0-.52.13-.78.39-.39.39-.52 1.171 0 1.691.39.39 1.17.52 1.559 0 .39-.39.39-1.171 0-1.561-.13-.52-.389-.52-.779-.52zM152.712 106.237c-.26 0-.65.13-.78.39-.39.39-.52 1.17 0 1.691.39.39 1.17.52 1.56 0 .389-.39.389-1.171 0-1.561-.26-.39-.52-.52-.78-.52zM146.994 111.96c-.26 0-.519.13-.779.39-.39.39-.52 1.17 0 1.691.389.39 1.169.52 1.559 0 .39-.391.39-1.171 0-1.561-.13-.52-.39-.52-.78-.52zM135.689 123.275c-.26 0-.649.13-.779.391-.39.39-.52 1.17 0 1.69.39.391 1.169.521 1.559 0 .39-.39.39-1.17 0-1.56-.26-.391-.52-.521-.78-.521zM141.407 117.552c-.26 0-.52.131-.78.261-.39.39-.52 1.17 0 1.69.39.391 1.169.521 1.559 0 .39-.39.52-1.17 0-1.56-.26-.26-.519-.391-.779-.391z" fill="#fff"/><defs><linearGradient id="a" x1="46.35" y1="93.881" x2="200" y2="93.881" gradientUnits="userSpaceOnUse"><stop stop-color="#EF4223"/><stop offset="0" stop-color="#EF4323"/><stop offset="1" stop-color="#F7931E"/></linearGradient><linearGradient id="b" y1="29.798" x2="29.723" y2="29.798" gradientUnits="userSpaceOnUse"><stop stop-color="#EF4223"/><stop offset="0" stop-color="#EF4323"/><stop offset="1" stop-color="#F7931E"/></linearGradient></defs></svg>