<svg width="416" height="396" viewBox="0 0 416 396" xmlns="http://www.w3.org/2000/svg" fill="none"><mask id="a" maskUnits="userSpaceOnUse" x="0" y="0" width="416" height="396"><path d="M0 41.027c0-.985.799-1.784 1.785-1.784.986 0 1.785.799 1.785 1.784s-.799 1.784-1.785 1.784c-.986 0-1.785-.799-1.785-1.784zM0 1.784c0-.985.799-1.784 1.785-1.784.986 0 1.785.799 1.785 1.784s-.799 1.784-1.785 1.784c-.986 0-1.785-.799-1.785-1.784zM19.64 21.405c0-.985.799-1.784 1.785-1.784.986 0 1.785.799 1.785 1.784s-.799 1.784-1.785 1.784c-.986 0-1.785-.799-1.785-1.784zM39.279 41.027c0-.985.799-1.784 1.785-1.784.986 0 1.785.799 1.785 1.784s-.799 1.784-1.785 1.784c-.986 0-1.785-.799-1.785-1.784zM58.919 21.405c0-.985.799-1.784 1.785-1.784.986 0 1.785.799 1.785 1.784s-.799 1.784-1.785 1.784c-.986 0-1.785-.799-1.785-1.784zM39.279 1.784c0-.985.799-1.784 1.785-1.784.986 0 1.785.799 1.785 1.784s-.799 1.784-1.785 1.784c-.986 0-1.785-.799-1.785-1.784zM78.558 41.027c0-.985.799-1.784 1.785-1.784.986 0 1.785.799 1.785 1.784s-.799 1.784-1.785 1.784c-.986 0-1.785-.799-1.785-1.784zM98.197 21.405c0-.985.799-1.784 1.785-1.784.986 0 1.785.799 1.785 1.784s-.799 1.784-1.785 1.784c-.986 0-1.785-.799-1.785-1.784zM78.558 1.784c0-.985.799-1.784 1.785-1.784.986 0 1.785.799 1.785 1.784s-.799 1.784-1.785 1.784c-.986 0-1.785-.799-1.785-1.784zM117.837 41.027c0-.985.799-1.784 1.785-1.784.986 0 1.786.799 1.786 1.784s-.8 1.784-1.786 1.784-1.785-.799-1.785-1.784zM137.476 21.405c0-.985.8-1.784 1.786-1.784s1.785.799 1.785 1.784-.799 1.784-1.785 1.784c-.986 0-1.786-.799-1.786-1.784zM117.837 1.784c0-.985.799-1.784 1.785-1.784.986 0 1.786.799 1.786 1.784s-.8 1.784-1.786 1.784-1.785-.799-1.785-1.784zM157.116 41.027c0-.985.799-1.784 1.785-1.784.986 0 1.786.799 1.786 1.784s-.8 1.784-1.786 1.784-1.785-.799-1.785-1.784zM176.755 21.405c0-.985.8-1.784 1.786-1.784s1.785.799 1.785 1.784-.799 1.784-1.785 1.784c-.986 0-1.786-.799-1.786-1.784zM157.116 1.784c0-.985.799-1.784 1.785-1.784.986 0 1.786.799 1.786 1.784s-.8 1.784-1.786 1.784-1.785-.799-1.785-1.784zM196.395 41.027c0-.985.799-1.784 1.785-1.784.986 0 1.786.799 1.786 1.784s-.8 1.784-1.786 1.784-1.785-.799-1.785-1.784zM216.034 21.405c0-.985.8-1.784 1.786-1.784s1.785.799 1.785 1.784-.799 1.784-1.785 1.784c-.986 0-1.786-.799-1.786-1.784zM196.395 1.784c0-.985.799-1.784 1.785-1.784.986 0 1.786.799 1.786 1.784s-.8 1.784-1.786 1.784-1.785-.799-1.785-1.784zM235.674 41.027c0-.985.799-1.784 1.785-1.784.986 0 1.786.799 1.786 1.784s-.8 1.784-1.786 1.784-1.785-.799-1.785-1.784zM255.313 21.405c0-.985.8-1.784 1.786-1.784s1.785.799 1.785 1.784-.799 1.784-1.785 1.784c-.986 0-1.786-.799-1.786-1.784zM235.674 1.784c0-.985.799-1.784 1.785-1.784.986 0 1.786.799 1.786 1.784s-.8 1.784-1.786 1.784-1.785-.799-1.785-1.784zM274.953 41.027c0-.985.799-1.784 1.785-1.784.986 0 1.786.799 1.786 1.784s-.8 1.784-1.786 1.784-1.785-.799-1.785-1.784zM294.592 21.405c0-.985.8-1.784 1.786-1.784s1.785.799 1.785 1.784-.799 1.784-1.785 1.784c-.986 0-1.786-.799-1.786-1.784zM274.953 1.784c0-.985.799-1.784 1.785-1.784.986 0 1.786.799 1.786 1.784s-.8 1.784-1.786 1.784-1.785-.799-1.785-1.784zM314.232 41.027c0-.985.799-1.784 1.785-1.784.986 0 1.786.799 1.786 1.784s-.8 1.784-1.786 1.784-1.785-.799-1.785-1.784zM333.871 21.405c0-.985.8-1.784 1.786-1.784s1.785.799 1.785 1.784-.799 1.784-1.785 1.784c-.986 0-1.786-.799-1.786-1.784zM314.232 1.784c0-.985.799-1.784 1.785-1.784.986 0 1.786.799 1.786 1.784s-.8 1.784-1.786 1.784-1.785-.799-1.785-1.784zM353.511 41.027c0-.985.799-1.784 1.785-1.784.986 0 1.786.799 1.786 1.784s-.8 1.784-1.786 1.784-1.785-.799-1.785-1.784zM373.15 21.405c0-.985.8-1.784 1.786-1.784s1.785.799 1.785 1.784-.799 1.784-1.785 1.784c-.986 0-1.786-.799-1.786-1.784zM353.511 1.784c0-.985.799-1.784 1.785-1.784.986 0 1.786.799 1.786 1.784s-.8 1.784-1.786 1.784-1.785-.799-1.785-1.784zM392.79 41.027c0-.985.799-1.784 1.785-1.784.986 0 1.786.799 1.786 1.784s-.8 1.784-1.786 1.784-1.785-.799-1.785-1.784zM412.429 21.405c0-.985.8-1.784 1.786-1.784s1.785.799 1.785 1.784-.799 1.784-1.785 1.784c-.986 0-1.786-.799-1.786-1.784zM392.79 1.784c0-.985.799-1.784 1.785-1.784.986 0 1.786.799 1.786 1.784s-.8 1.784-1.786 1.784-1.785-.799-1.785-1.784zM19.64 60.649c0-.985.799-1.784 1.785-1.784.986 0 1.785.799 1.785 1.784s-.799 1.784-1.785 1.784c-.986 0-1.785-.799-1.785-1.784zM0 80.27c0-.985.799-1.784 1.785-1.784.986 0 1.785.799 1.785 1.784s-.799 1.784-1.785 1.784c-.986 0-1.785-.799-1.785-1.784zM58.919 60.649c0-.985.799-1.784 1.785-1.784.986 0 1.785.799 1.785 1.784s-.799 1.784-1.785 1.784c-.986 0-1.785-.799-1.785-1.784zM39.279 80.27c0-.985.799-1.784 1.785-1.784.986 0 1.785.799 1.785 1.784s-.799 1.784-1.785 1.784c-.986 0-1.785-.799-1.785-1.784zM98.197 60.649c0-.985.799-1.784 1.785-1.784.986 0 1.785.799 1.785 1.784s-.799 1.784-1.785 1.784c-.986 0-1.785-.799-1.785-1.784zM78.558 80.27c0-.985.799-1.784 1.785-1.784.986 0 1.785.799 1.785 1.784s-.799 1.784-1.785 1.784c-.986 0-1.785-.799-1.785-1.784zM137.476 60.649c0-.985.8-1.784 1.786-1.784s1.785.799 1.785 1.784-.799 1.784-1.785 1.784c-.986 0-1.786-.799-1.786-1.784zM117.837 80.27c0-.985.799-1.784 1.785-1.784.986 0 1.786.799 1.786 1.784s-.8 1.784-1.786 1.784-1.785-.799-1.785-1.784zM176.755 60.649c0-.985.8-1.784 1.786-1.784s1.785.799 1.785 1.784-.799 1.784-1.785 1.784c-.986 0-1.786-.799-1.786-1.784zM157.116 80.27c0-.985.799-1.784 1.785-1.784.986 0 1.786.799 1.786 1.784s-.8 1.784-1.786 1.784-1.785-.799-1.785-1.784zM216.034 60.649c0-.985.8-1.784 1.786-1.784s1.785.799 1.785 1.784-.799 1.784-1.785 1.784c-.986 0-1.786-.799-1.786-1.784zM196.395 80.27c0-.985.799-1.784 1.785-1.784.986 0 1.786.799 1.786 1.784s-.8 1.784-1.786 1.784-1.785-.799-1.785-1.784zM255.313 60.649c0-.985.8-1.784 1.786-1.784s1.785.799 1.785 1.784-.799 1.784-1.785 1.784c-.986 0-1.786-.799-1.786-1.784zM235.674 80.27c0-.985.799-1.784 1.785-1.784.986 0 1.786.799 1.786 1.784s-.8 1.784-1.786 1.784-1.785-.799-1.785-1.784zM294.592 60.649c0-.985.8-1.784 1.786-1.784s1.785.799 1.785 1.784-.799 1.784-1.785 1.784c-.986 0-1.786-.799-1.786-1.784zM274.953 80.27c0-.985.799-1.784 1.785-1.784.986 0 1.786.799 1.786 1.784s-.8 1.784-1.786 1.784-1.785-.799-1.785-1.784zM333.871 60.649c0-.985.8-1.784 1.786-1.784s1.785.799 1.785 1.784-.799 1.784-1.785 1.784c-.986 0-1.786-.799-1.786-1.784zM314.232 80.27c0-.985.799-1.784 1.785-1.784.986 0 1.786.799 1.786 1.784s-.8 1.784-1.786 1.784-1.785-.799-1.785-1.784zM373.15 60.649c0-.985.8-1.784 1.786-1.784s1.785.799 1.785 1.784-.799 1.784-1.785 1.784c-.986 0-1.786-.799-1.786-1.784zM353.511 80.27c0-.985.799-1.784 1.785-1.784.986 0 1.786.799 1.786 1.784s-.8 1.784-1.786 1.784-1.785-.799-1.785-1.784zM412.429 60.649c0-.985.8-1.784 1.786-1.784s1.785.799 1.785 1.784-.799 1.784-1.785 1.784c-.986 0-1.786-.799-1.786-1.784zM392.79 80.27c0-.985.799-1.784 1.785-1.784.986 0 1.786.799 1.786 1.784s-.8 1.784-1.786 1.784-1.785-.799-1.785-1.784zM19.64 99.892c0-.985.799-1.784 1.785-1.784.986 0 1.785.799 1.785 1.784s-.799 1.784-1.785 1.784c-.986 0-1.785-.799-1.785-1.784zM0 119.514c0-.986.799-1.784 1.785-1.784.986 0 1.785.798 1.785 1.784 0 .985-.799 1.783-1.785 1.783-.986 0-1.785-.798-1.785-1.783zM58.919 99.892c0-.985.799-1.784 1.785-1.784.986 0 1.785.799 1.785 1.784s-.799 1.784-1.785 1.784c-.986 0-1.785-.799-1.785-1.784zM39.279 119.514c0-.986.799-1.784 1.785-1.784.986 0 1.785.798 1.785 1.784 0 .985-.799 1.783-1.785 1.783-.986 0-1.785-.798-1.785-1.783zM98.197 99.892c0-.985.799-1.784 1.785-1.784.986 0 1.785.799 1.785 1.784s-.799 1.784-1.785 1.784c-.986 0-1.785-.799-1.785-1.784zM78.558 119.514c0-.986.799-1.784 1.785-1.784.986 0 1.785.798 1.785 1.784 0 .985-.799 1.783-1.785 1.783-.986 0-1.785-.798-1.785-1.783zM137.476 99.892c0-.985.8-1.784 1.786-1.784s1.785.799 1.785 1.784-.799 1.784-1.785 1.784c-.986 0-1.786-.799-1.786-1.784zM117.837 119.514c0-.986.799-1.784 1.785-1.784.986 0 1.786.798 1.786 1.784 0 .985-.8 1.783-1.786 1.783s-1.785-.798-1.785-1.783zM176.755 99.892c0-.985.8-1.784 1.786-1.784s1.785.799 1.785 1.784-.799 1.784-1.785 1.784c-.986 0-1.786-.799-1.786-1.784zM157.116 119.514c0-.986.799-1.784 1.785-1.784.986 0 1.786.798 1.786 1.784 0 .985-.8 1.783-1.786 1.783s-1.785-.798-1.785-1.783zM216.034 99.892c0-.985.8-1.784 1.786-1.784s1.785.799 1.785 1.784-.799 1.784-1.785 1.784c-.986 0-1.786-.799-1.786-1.784zM196.395 119.514c0-.986.799-1.784 1.785-1.784.986 0 1.786.798 1.786 1.784 0 .985-.8 1.783-1.786 1.783s-1.785-.798-1.785-1.783zM255.313 99.892c0-.985.8-1.784 1.786-1.784s1.785.799 1.785 1.784-.799 1.784-1.785 1.784c-.986 0-1.786-.799-1.786-1.784zM235.674 119.514c0-.986.799-1.784 1.785-1.784.986 0 1.786.798 1.786 1.784 0 .985-.8 1.783-1.786 1.783s-1.785-.798-1.785-1.783zM294.592 99.892c0-.985.8-1.784 1.786-1.784s1.785.799 1.785 1.784-.799 1.784-1.785 1.784c-.986 0-1.786-.799-1.786-1.784zM274.953 119.514c0-.986.799-1.784 1.785-1.784.986 0 1.786.798 1.786 1.784 0 .985-.8 1.783-1.786 1.783s-1.785-.798-1.785-1.783zM333.871 99.892c0-.985.8-1.784 1.786-1.784s1.785.799 1.785 1.784-.799 1.784-1.785 1.784c-.986 0-1.786-.799-1.786-1.784zM314.232 119.514c0-.986.799-1.784 1.785-1.784.986 0 1.786.798 1.786 1.784 0 .985-.8 1.783-1.786 1.783s-1.785-.798-1.785-1.783zM373.15 99.892c0-.985.8-1.784 1.786-1.784s1.785.799 1.785 1.784-.799 1.784-1.785 1.784c-.986 0-1.786-.799-1.786-1.784zM353.511 119.514c0-.986.799-1.784 1.785-1.784.986 0 1.786.798 1.786 1.784 0 .985-.8 1.783-1.786 1.783s-1.785-.798-1.785-1.783zM412.429 99.892c0-.985.8-1.784 1.786-1.784s1.785.799 1.785 1.784-.799 1.784-1.785 1.784c-.986 0-1.786-.799-1.786-1.784zM392.79 119.514c0-.986.799-1.784 1.785-1.784.986 0 1.786.798 1.786 1.784 0 .985-.8 1.783-1.786 1.783s-1.785-.798-1.785-1.783zM19.64 139.135c0-.985.799-1.784 1.785-1.784.986 0 1.785.799 1.785 1.784s-.799 1.784-1.785 1.784c-.986 0-1.785-.799-1.785-1.784zM0 158.757c0-.985.799-1.784 1.785-1.784.986 0 1.785.799 1.785 1.784s-.799 1.784-1.785 1.784c-.986 0-1.785-.799-1.785-1.784zM58.919 139.135c0-.985.799-1.784 1.785-1.784.986 0 1.785.799 1.785 1.784s-.799 1.784-1.785 1.784c-.986 0-1.785-.799-1.785-1.784zM39.279 158.757c0-.985.799-1.784 1.785-1.784.986 0 1.785.799 1.785 1.784s-.799 1.784-1.785 1.784c-.986 0-1.785-.799-1.785-1.784zM98.197 139.135c0-.985.799-1.784 1.785-1.784.986 0 1.785.799 1.785 1.784s-.799 1.784-1.785 1.784c-.986 0-1.785-.799-1.785-1.784zM78.558 158.757c0-.985.799-1.784 1.785-1.784.986 0 1.785.799 1.785 1.784s-.799 1.784-1.785 1.784c-.986 0-1.785-.799-1.785-1.784zM137.476 139.135c0-.985.8-1.784 1.786-1.784s1.785.799 1.785 1.784-.799 1.784-1.785 1.784c-.986 0-1.786-.799-1.786-1.784zM117.837 158.757c0-.985.799-1.784 1.785-1.784.986 0 1.786.799 1.786 1.784s-.8 1.784-1.786 1.784-1.785-.799-1.785-1.784zM176.755 139.135c0-.985.8-1.784 1.786-1.784s1.785.799 1.785 1.784-.799 1.784-1.785 1.784c-.986 0-1.786-.799-1.786-1.784zM157.116 158.757c0-.985.799-1.784 1.785-1.784.986 0 1.786.799 1.786 1.784s-.8 1.784-1.786 1.784-1.785-.799-1.785-1.784zM216.034 139.135c0-.985.8-1.784 1.786-1.784s1.785.799 1.785 1.784-.799 1.784-1.785 1.784c-.986 0-1.786-.799-1.786-1.784zM196.395 158.757c0-.985.799-1.784 1.785-1.784.986 0 1.786.799 1.786 1.784s-.8 1.784-1.786 1.784-1.785-.799-1.785-1.784zM255.313 139.135c0-.985.8-1.784 1.786-1.784s1.785.799 1.785 1.784-.799 1.784-1.785 1.784c-.986 0-1.786-.799-1.786-1.784zM235.674 158.757c0-.985.799-1.784 1.785-1.784.986 0 1.786.799 1.786 1.784s-.8 1.784-1.786 1.784-1.785-.799-1.785-1.784zM294.592 139.135c0-.985.8-1.784 1.786-1.784s1.785.799 1.785 1.784-.799 1.784-1.785 1.784c-.986 0-1.786-.799-1.786-1.784zM274.953 158.757c0-.985.799-1.784 1.785-1.784.986 0 1.786.799 1.786 1.784s-.8 1.784-1.786 1.784-1.785-.799-1.785-1.784zM333.871 139.135c0-.985.8-1.784 1.786-1.784s1.785.799 1.785 1.784-.799 1.784-1.785 1.784c-.986 0-1.786-.799-1.786-1.784zM314.232 158.757c0-.985.799-1.784 1.785-1.784.986 0 1.786.799 1.786 1.784s-.8 1.784-1.786 1.784-1.785-.799-1.785-1.784zM373.15 139.135c0-.985.8-1.784 1.786-1.784s1.785.799 1.785 1.784-.799 1.784-1.785 1.784c-.986 0-1.786-.799-1.786-1.784zM353.511 158.757c0-.985.799-1.784 1.785-1.784.986 0 1.786.799 1.786 1.784s-.8 1.784-1.786 1.784-1.785-.799-1.785-1.784zM412.429 139.135c0-.985.8-1.784 1.786-1.784s1.785.799 1.785 1.784-.799 1.784-1.785 1.784c-.986 0-1.786-.799-1.786-1.784zM392.79 158.757c0-.985.799-1.784 1.785-1.784.986 0 1.786.799 1.786 1.784s-.8 1.784-1.786 1.784-1.785-.799-1.785-1.784zM19.64 178.378c0-.985.799-1.783 1.785-1.783.986 0 1.785.798 1.785 1.783 0 .986-.799 1.784-1.785 1.784-.986 0-1.785-.798-1.785-1.784zM0 198c0-.985.799-1.784 1.785-1.784.986 0 1.785.799 1.785 1.784s-.799 1.784-1.785 1.784c-.986 0-1.785-.799-1.785-1.784zM58.919 178.378c0-.985.799-1.783 1.785-1.783.986 0 1.785.798 1.785 1.783 0 .986-.799 1.784-1.785 1.784-.986 0-1.785-.798-1.785-1.784zM39.279 198c0-.985.799-1.784 1.785-1.784.986 0 1.785.799 1.785 1.784s-.799 1.784-1.785 1.784c-.986 0-1.785-.799-1.785-1.784zM98.197 178.378c0-.985.799-1.783 1.785-1.783.986 0 1.785.798 1.785 1.783 0 .986-.799 1.784-1.785 1.784-.986 0-1.785-.798-1.785-1.784zM78.558 198c0-.985.799-1.784 1.785-1.784.986 0 1.785.799 1.785 1.784s-.799 1.784-1.785 1.784c-.986 0-1.785-.799-1.785-1.784zM137.476 178.378c0-.985.8-1.783 1.786-1.783s1.785.798 1.785 1.783c0 .986-.799 1.784-1.785 1.784-.986 0-1.786-.798-1.786-1.784zM117.837 198c0-.985.799-1.784 1.785-1.784.986 0 1.786.799 1.786 1.784s-.8 1.784-1.786 1.784-1.785-.799-1.785-1.784zM176.755 178.378c0-.985.8-1.783 1.786-1.783s1.785.798 1.785 1.783c0 .986-.799 1.784-1.785 1.784-.986 0-1.786-.798-1.786-1.784zM157.116 198c0-.985.799-1.784 1.785-1.784.986 0 1.786.799 1.786 1.784s-.8 1.784-1.786 1.784-1.785-.799-1.785-1.784zM216.034 178.378c0-.985.8-1.783 1.786-1.783s1.785.798 1.785 1.783c0 .986-.799 1.784-1.785 1.784-.986 0-1.786-.798-1.786-1.784zM196.395 198c0-.985.799-1.784 1.785-1.784.986 0 1.786.799 1.786 1.784s-.8 1.784-1.786 1.784-1.785-.799-1.785-1.784zM255.313 178.378c0-.985.8-1.783 1.786-1.783s1.785.798 1.785 1.783c0 .986-.799 1.784-1.785 1.784-.986 0-1.786-.798-1.786-1.784zM235.674 198c0-.985.799-1.784 1.785-1.784.986 0 1.786.799 1.786 1.784s-.8 1.784-1.786 1.784-1.785-.799-1.785-1.784zM294.592 178.378c0-.985.8-1.783 1.786-1.783s1.785.798 1.785 1.783c0 .986-.799 1.784-1.785 1.784-.986 0-1.786-.798-1.786-1.784zM274.953 198c0-.985.799-1.784 1.785-1.784.986 0 1.786.799 1.786 1.784s-.8 1.784-1.786 1.784-1.785-.799-1.785-1.784zM333.871 178.378c0-.985.8-1.783 1.786-1.783s1.785.798 1.785 1.783c0 .986-.799 1.784-1.785 1.784-.986 0-1.786-.798-1.786-1.784zM314.232 198c0-.985.799-1.784 1.785-1.784.986 0 1.786.799 1.786 1.784s-.8 1.784-1.786 1.784-1.785-.799-1.785-1.784zM373.15 178.378c0-.985.8-1.783 1.786-1.783s1.785.798 1.785 1.783c0 .986-.799 1.784-1.785 1.784-.986 0-1.786-.798-1.786-1.784zM353.511 198c0-.985.799-1.784 1.785-1.784.986 0 1.786.799 1.786 1.784s-.8 1.784-1.786 1.784-1.785-.799-1.785-1.784zM412.429 178.378c0-.985.8-1.783 1.786-1.783s1.785.798 1.785 1.783c0 .986-.799 1.784-1.785 1.784-.986 0-1.786-.798-1.786-1.784zM392.79 198c0-.985.799-1.784 1.785-1.784.986 0 1.786.799 1.786 1.784s-.8 1.784-1.786 1.784-1.785-.799-1.785-1.784zM19.64 217.622c0-.986.799-1.784 1.785-1.784.986 0 1.785.798 1.785 1.784 0 .985-.799 1.783-1.785 1.783-.986 0-1.785-.798-1.785-1.783zM0 237.243c0-.985.799-1.784 1.785-1.784.986 0 1.785.799 1.785 1.784s-.799 1.784-1.785 1.784c-.986 0-1.785-.799-1.785-1.784zM58.919 217.622c0-.986.799-1.784 1.785-1.784.986 0 1.785.798 1.785 1.784 0 .985-.799 1.783-1.785 1.783-.986 0-1.785-.798-1.785-1.783zM39.279 237.243c0-.985.799-1.784 1.785-1.784.986 0 1.785.799 1.785 1.784s-.799 1.784-1.785 1.784c-.986 0-1.785-.799-1.785-1.784zM98.197 217.622c0-.986.799-1.784 1.785-1.784.986 0 1.785.798 1.785 1.784 0 .985-.799 1.783-1.785 1.783-.986 0-1.785-.798-1.785-1.783zM78.558 237.243c0-.985.799-1.784 1.785-1.784.986 0 1.785.799 1.785 1.784s-.799 1.784-1.785 1.784c-.986 0-1.785-.799-1.785-1.784zM137.476 217.622c0-.986.8-1.784 1.786-1.784s1.785.798 1.785 1.784c0 .985-.799 1.783-1.785 1.783-.986 0-1.786-.798-1.786-1.783zM117.837 237.243c0-.985.799-1.784 1.785-1.784.986 0 1.786.799 1.786 1.784s-.8 1.784-1.786 1.784-1.785-.799-1.785-1.784zM176.755 217.622c0-.986.8-1.784 1.786-1.784s1.785.798 1.785 1.784c0 .985-.799 1.783-1.785 1.783-.986 0-1.786-.798-1.786-1.783zM157.116 237.243c0-.985.799-1.784 1.785-1.784.986 0 1.786.799 1.786 1.784s-.8 1.784-1.786 1.784-1.785-.799-1.785-1.784zM216.034 217.622c0-.986.8-1.784 1.786-1.784s1.785.798 1.785 1.784c0 .985-.799 1.783-1.785 1.783-.986 0-1.786-.798-1.786-1.783zM196.395 237.243c0-.985.799-1.784 1.785-1.784.986 0 1.786.799 1.786 1.784s-.8 1.784-1.786 1.784-1.785-.799-1.785-1.784zM255.313 217.622c0-.986.8-1.784 1.786-1.784s1.785.798 1.785 1.784c0 .985-.799 1.783-1.785 1.783-.986 0-1.786-.798-1.786-1.783zM235.674 237.243c0-.985.799-1.784 1.785-1.784.986 0 1.786.799 1.786 1.784s-.8 1.784-1.786 1.784-1.785-.799-1.785-1.784zM294.592 217.622c0-.986.8-1.784 1.786-1.784s1.785.798 1.785 1.784c0 .985-.799 1.783-1.785 1.783-.986 0-1.786-.798-1.786-1.783zM274.953 237.243c0-.985.799-1.784 1.785-1.784.986 0 1.786.799 1.786 1.784s-.8 1.784-1.786 1.784-1.785-.799-1.785-1.784zM333.871 217.622c0-.986.8-1.784 1.786-1.784s1.785.798 1.785 1.784c0 .985-.799 1.783-1.785 1.783-.986 0-1.786-.798-1.786-1.783zM314.232 237.243c0-.985.799-1.784 1.785-1.784.986 0 1.786.799 1.786 1.784s-.8 1.784-1.786 1.784-1.785-.799-1.785-1.784zM373.15 217.622c0-.986.8-1.784 1.786-1.784s1.785.798 1.785 1.784c0 .985-.799 1.783-1.785 1.783-.986 0-1.786-.798-1.786-1.783zM353.511 237.243c0-.985.799-1.784 1.785-1.784.986 0 1.786.799 1.786 1.784s-.8 1.784-1.786 1.784-1.785-.799-1.785-1.784zM412.429 217.622c0-.986.8-1.784 1.786-1.784s1.785.798 1.785 1.784c0 .985-.799 1.783-1.785 1.783-.986 0-1.786-.798-1.786-1.783zM392.79 237.243c0-.985.799-1.784 1.785-1.784.986 0 1.786.799 1.786 1.784s-.8 1.784-1.786 1.784-1.785-.799-1.785-1.784zM19.64 256.865c0-.985.799-1.784 1.785-1.784.986 0 1.785.799 1.785 1.784s-.799 1.784-1.785 1.784c-.986 0-1.785-.799-1.785-1.784zM0 276.486c0-.985.799-1.783 1.785-1.783.986 0 1.785.798 1.785 1.783 0 .986-.799 1.784-1.785 1.784-.986 0-1.785-.798-1.785-1.784zM58.919 256.865c0-.985.799-1.784 1.785-1.784.986 0 1.785.799 1.785 1.784s-.799 1.784-1.785 1.784c-.986 0-1.785-.799-1.785-1.784zM39.279 276.486c0-.985.799-1.783 1.785-1.783.986 0 1.785.798 1.785 1.783 0 .986-.799 1.784-1.785 1.784-.986 0-1.785-.798-1.785-1.784zM98.197 256.865c0-.985.799-1.784 1.785-1.784.986 0 1.785.799 1.785 1.784s-.799 1.784-1.785 1.784c-.986 0-1.785-.799-1.785-1.784zM78.558 276.486c0-.985.799-1.783 1.785-1.783.986 0 1.785.798 1.785 1.783 0 .986-.799 1.784-1.785 1.784-.986 0-1.785-.798-1.785-1.784zM137.476 256.865c0-.985.8-1.784 1.786-1.784s1.785.799 1.785 1.784-.799 1.784-1.785 1.784c-.986 0-1.786-.799-1.786-1.784zM117.837 276.486c0-.985.799-1.783 1.785-1.783.986 0 1.786.798 1.786 1.783 0 .986-.8 1.784-1.786 1.784s-1.785-.798-1.785-1.784zM176.755 256.865c0-.985.8-1.784 1.786-1.784s1.785.799 1.785 1.784-.799 1.784-1.785 1.784c-.986 0-1.786-.799-1.786-1.784zM157.116 276.486c0-.985.799-1.783 1.785-1.783.986 0 1.786.798 1.786 1.783 0 .986-.8 1.784-1.786 1.784s-1.785-.798-1.785-1.784zM216.034 256.865c0-.985.8-1.784 1.786-1.784s1.785.799 1.785 1.784-.799 1.784-1.785 1.784c-.986 0-1.786-.799-1.786-1.784zM196.395 276.486c0-.985.799-1.783 1.785-1.783.986 0 1.786.798 1.786 1.783 0 .986-.8 1.784-1.786 1.784s-1.785-.798-1.785-1.784zM255.313 256.865c0-.985.8-1.784 1.786-1.784s1.785.799 1.785 1.784-.799 1.784-1.785 1.784c-.986 0-1.786-.799-1.786-1.784zM235.674 276.486c0-.985.799-1.783 1.785-1.783.986 0 1.786.798 1.786 1.783 0 .986-.8 1.784-1.786 1.784s-1.785-.798-1.785-1.784zM294.592 256.865c0-.985.8-1.784 1.786-1.784s1.785.799 1.785 1.784-.799 1.784-1.785 1.784c-.986 0-1.786-.799-1.786-1.784zM274.953 276.486c0-.985.799-1.783 1.785-1.783.986 0 1.786.798 1.786 1.783 0 .986-.8 1.784-1.786 1.784s-1.785-.798-1.785-1.784zM333.871 256.865c0-.985.8-1.784 1.786-1.784s1.785.799 1.785 1.784-.799 1.784-1.785 1.784c-.986 0-1.786-.799-1.786-1.784zM314.232 276.486c0-.985.799-1.783 1.785-1.783.986 0 1.786.798 1.786 1.783 0 .986-.8 1.784-1.786 1.784s-1.785-.798-1.785-1.784zM373.15 256.865c0-.985.8-1.784 1.786-1.784s1.785.799 1.785 1.784-.799 1.784-1.785 1.784c-.986 0-1.786-.799-1.786-1.784zM353.511 276.486c0-.985.799-1.783 1.785-1.783.986 0 1.786.798 1.786 1.783 0 .986-.8 1.784-1.786 1.784s-1.785-.798-1.785-1.784zM412.429 256.865c0-.985.8-1.784 1.786-1.784s1.785.799 1.785 1.784-.799 1.784-1.785 1.784c-.986 0-1.786-.799-1.786-1.784zM392.79 276.486c0-.985.799-1.783 1.785-1.783.986 0 1.786.798 1.786 1.783 0 .986-.8 1.784-1.786 1.784s-1.785-.798-1.785-1.784zM19.64 296.108c0-.985.799-1.784 1.785-1.784.986 0 1.785.799 1.785 1.784s-.799 1.784-1.785 1.784c-.986 0-1.785-.799-1.785-1.784zM0 315.73c0-.985.799-1.784 1.785-1.784.986 0 1.785.799 1.785 1.784s-.799 1.784-1.785 1.784c-.986 0-1.785-.799-1.785-1.784zM58.919 296.108c0-.985.799-1.784 1.785-1.784.986 0 1.785.799 1.785 1.784s-.799 1.784-1.785 1.784c-.986 0-1.785-.799-1.785-1.784zM39.279 315.73c0-.985.799-1.784 1.785-1.784.986 0 1.785.799 1.785 1.784s-.799 1.784-1.785 1.784c-.986 0-1.785-.799-1.785-1.784zM98.197 296.108c0-.985.799-1.784 1.785-1.784.986 0 1.785.799 1.785 1.784s-.799 1.784-1.785 1.784c-.986 0-1.785-.799-1.785-1.784zM78.558 315.73c0-.985.799-1.784 1.785-1.784.986 0 1.785.799 1.785 1.784s-.799 1.784-1.785 1.784c-.986 0-1.785-.799-1.785-1.784zM137.476 296.108c0-.985.8-1.784 1.786-1.784s1.785.799 1.785 1.784-.799 1.784-1.785 1.784c-.986 0-1.786-.799-1.786-1.784zM117.837 315.73c0-.985.799-1.784 1.785-1.784.986 0 1.786.799 1.786 1.784s-.8 1.784-1.786 1.784-1.785-.799-1.785-1.784zM176.755 296.108c0-.985.8-1.784 1.786-1.784s1.785.799 1.785 1.784-.799 1.784-1.785 1.784c-.986 0-1.786-.799-1.786-1.784zM157.116 315.73c0-.985.799-1.784 1.785-1.784.986 0 1.786.799 1.786 1.784s-.8 1.784-1.786 1.784-1.785-.799-1.785-1.784zM216.034 296.108c0-.985.8-1.784 1.786-1.784s1.785.799 1.785 1.784-.799 1.784-1.785 1.784c-.986 0-1.786-.799-1.786-1.784zM196.395 315.73c0-.985.799-1.784 1.785-1.784.986 0 1.786.799 1.786 1.784s-.8 1.784-1.786 1.784-1.785-.799-1.785-1.784zM255.313 296.108c0-.985.8-1.784 1.786-1.784s1.785.799 1.785 1.784-.799 1.784-1.785 1.784c-.986 0-1.786-.799-1.786-1.784zM235.674 315.73c0-.985.799-1.784 1.785-1.784.986 0 1.786.799 1.786 1.784s-.8 1.784-1.786 1.784-1.785-.799-1.785-1.784zM294.592 296.108c0-.985.8-1.784 1.786-1.784s1.785.799 1.785 1.784-.799 1.784-1.785 1.784c-.986 0-1.786-.799-1.786-1.784zM274.953 315.73c0-.985.799-1.784 1.785-1.784.986 0 1.786.799 1.786 1.784s-.8 1.784-1.786 1.784-1.785-.799-1.785-1.784zM333.871 296.108c0-.985.8-1.784 1.786-1.784s1.785.799 1.785 1.784-.799 1.784-1.785 1.784c-.986 0-1.786-.799-1.786-1.784zM314.232 315.73c0-.985.799-1.784 1.785-1.784.986 0 1.786.799 1.786 1.784s-.8 1.784-1.786 1.784-1.785-.799-1.785-1.784zM373.15 296.108c0-.985.8-1.784 1.786-1.784s1.785.799 1.785 1.784-.799 1.784-1.785 1.784c-.986 0-1.786-.799-1.786-1.784zM353.511 315.73c0-.985.799-1.784 1.785-1.784.986 0 1.786.799 1.786 1.784s-.8 1.784-1.786 1.784-1.785-.799-1.785-1.784zM412.429 296.108c0-.985.8-1.784 1.786-1.784s1.785.799 1.785 1.784-.799 1.784-1.785 1.784c-.986 0-1.786-.799-1.786-1.784zM392.79 315.73c0-.985.799-1.784 1.785-1.784.986 0 1.786.799 1.786 1.784s-.8 1.784-1.786 1.784-1.785-.799-1.785-1.784zM19.64 335.351c0-.985.799-1.783 1.785-1.783.986 0 1.785.798 1.785 1.783 0 .986-.799 1.784-1.785 1.784-.986 0-1.785-.798-1.785-1.784zM0 354.973c0-.985.799-1.784 1.785-1.784.986 0 1.785.799 1.785 1.784s-.799 1.784-1.785 1.784c-.986 0-1.785-.799-1.785-1.784zM58.919 335.351c0-.985.799-1.783 1.785-1.783.986 0 1.785.798 1.785 1.783 0 .986-.799 1.784-1.785 1.784-.986 0-1.785-.798-1.785-1.784zM39.279 354.973c0-.985.799-1.784 1.785-1.784.986 0 1.785.799 1.785 1.784s-.799 1.784-1.785 1.784c-.986 0-1.785-.799-1.785-1.784zM98.197 335.351c0-.985.799-1.783 1.785-1.783.986 0 1.785.798 1.785 1.783 0 .986-.799 1.784-1.785 1.784-.986 0-1.785-.798-1.785-1.784zM78.558 354.973c0-.985.799-1.784 1.785-1.784.986 0 1.785.799 1.785 1.784s-.799 1.784-1.785 1.784c-.986 0-1.785-.799-1.785-1.784zM137.476 335.351c0-.985.8-1.783 1.786-1.783s1.785.798 1.785 1.783c0 .986-.799 1.784-1.785 1.784-.986 0-1.786-.798-1.786-1.784zM117.837 354.973c0-.985.799-1.784 1.785-1.784.986 0 1.786.799 1.786 1.784s-.8 1.784-1.786 1.784-1.785-.799-1.785-1.784zM176.755 335.351c0-.985.8-1.783 1.786-1.783s1.785.798 1.785 1.783c0 .986-.799 1.784-1.785 1.784-.986 0-1.786-.798-1.786-1.784zM157.116 354.973c0-.985.799-1.784 1.785-1.784.986 0 1.786.799 1.786 1.784s-.8 1.784-1.786 1.784-1.785-.799-1.785-1.784zM216.034 335.351c0-.985.8-1.783 1.786-1.783s1.785.798 1.785 1.783c0 .986-.799 1.784-1.785 1.784-.986 0-1.786-.798-1.786-1.784zM196.395 354.973c0-.985.799-1.784 1.785-1.784.986 0 1.786.799 1.786 1.784s-.8 1.784-1.786 1.784-1.785-.799-1.785-1.784zM255.313 335.351c0-.985.8-1.783 1.786-1.783s1.785.798 1.785 1.783c0 .986-.799 1.784-1.785 1.784-.986 0-1.786-.798-1.786-1.784zM235.674 354.973c0-.985.799-1.784 1.785-1.784.986 0 1.786.799 1.786 1.784s-.8 1.784-1.786 1.784-1.785-.799-1.785-1.784zM294.592 335.351c0-.985.8-1.783 1.786-1.783s1.785.798 1.785 1.783c0 .986-.799 1.784-1.785 1.784-.986 0-1.786-.798-1.786-1.784zM274.953 354.973c0-.985.799-1.784 1.785-1.784.986 0 1.786.799 1.786 1.784s-.8 1.784-1.786 1.784-1.785-.799-1.785-1.784zM333.871 335.351c0-.985.8-1.783 1.786-1.783s1.785.798 1.785 1.783c0 .986-.799 1.784-1.785 1.784-.986 0-1.786-.798-1.786-1.784zM314.232 354.973c0-.985.799-1.784 1.785-1.784.986 0 1.786.799 1.786 1.784s-.8 1.784-1.786 1.784-1.785-.799-1.785-1.784zM373.15 335.351c0-.985.8-1.783 1.786-1.783s1.785.798 1.785 1.783c0 .986-.799 1.784-1.785 1.784-.986 0-1.786-.798-1.786-1.784zM353.511 354.973c0-.985.799-1.784 1.785-1.784.986 0 1.786.799 1.786 1.784s-.8 1.784-1.786 1.784-1.785-.799-1.785-1.784zM412.429 335.351c0-.985.8-1.783 1.786-1.783s1.785.798 1.785 1.783c0 .986-.799 1.784-1.785 1.784-.986 0-1.786-.798-1.786-1.784zM392.79 354.973c0-.985.799-1.784 1.785-1.784.986 0 1.786.799 1.786 1.784s-.8 1.784-1.786 1.784-1.785-.799-1.785-1.784zM19.64 374.595c0-.986.799-1.784 1.785-1.784.986 0 1.785.798 1.785 1.784 0 .985-.799 1.783-1.785 1.783-.986 0-1.785-.798-1.785-1.783zM0 394.216c0-.985.799-1.784 1.785-1.784.986 0 1.785.799 1.785 1.784s-.799 1.784-1.785 1.784c-.986 0-1.785-.799-1.785-1.784zM58.919 374.595c0-.986.799-1.784 1.785-1.784.986 0 1.785.798 1.785 1.784 0 .985-.799 1.783-1.785 1.783-.986 0-1.785-.798-1.785-1.783zM39.279 394.216c0-.985.799-1.784 1.785-1.784.986 0 1.785.799 1.785 1.784s-.799 1.784-1.785 1.784c-.986 0-1.785-.799-1.785-1.784zM98.197 374.595c0-.986.799-1.784 1.785-1.784.986 0 1.785.798 1.785 1.784 0 .985-.799 1.783-1.785 1.783-.986 0-1.785-.798-1.785-1.783zM78.558 394.216c0-.985.799-1.784 1.785-1.784.986 0 1.785.799 1.785 1.784s-.799 1.784-1.785 1.784c-.986 0-1.785-.799-1.785-1.784zM137.476 374.595c0-.986.8-1.784 1.786-1.784s1.785.798 1.785 1.784c0 .985-.799 1.783-1.785 1.783-.986 0-1.786-.798-1.786-1.783zM117.837 394.216c0-.985.799-1.784 1.785-1.784.986 0 1.786.799 1.786 1.784s-.8 1.784-1.786 1.784-1.785-.799-1.785-1.784zM176.755 374.595c0-.986.8-1.784 1.786-1.784s1.785.798 1.785 1.784c0 .985-.799 1.783-1.785 1.783-.986 0-1.786-.798-1.786-1.783zM157.116 394.216c0-.985.799-1.784 1.785-1.784.986 0 1.786.799 1.786 1.784s-.8 1.784-1.786 1.784-1.785-.799-1.785-1.784zM216.034 374.595c0-.986.8-1.784 1.786-1.784s1.785.798 1.785 1.784c0 .985-.799 1.783-1.785 1.783-.986 0-1.786-.798-1.786-1.783zM196.395 394.216c0-.985.799-1.784 1.785-1.784.986 0 1.786.799 1.786 1.784s-.8 1.784-1.786 1.784-1.785-.799-1.785-1.784zM255.313 374.595c0-.986.8-1.784 1.786-1.784s1.785.798 1.785 1.784c0 .985-.799 1.783-1.785 1.783-.986 0-1.786-.798-1.786-1.783zM235.674 394.216c0-.985.799-1.784 1.785-1.784.986 0 1.786.799 1.786 1.784s-.8 1.784-1.786 1.784-1.785-.799-1.785-1.784zM294.592 374.595c0-.986.8-1.784 1.786-1.784s1.785.798 1.785 1.784c0 .985-.799 1.783-1.785 1.783-.986 0-1.786-.798-1.786-1.783zM274.953 394.216c0-.985.799-1.784 1.785-1.784.986 0 1.786.799 1.786 1.784s-.8 1.784-1.786 1.784-1.785-.799-1.785-1.784zM333.871 374.595c0-.986.8-1.784 1.786-1.784s1.785.798 1.785 1.784c0 .985-.799 1.783-1.785 1.783-.986 0-1.786-.798-1.786-1.783zM314.232 394.216c0-.985.799-1.784 1.785-1.784.986 0 1.786.799 1.786 1.784s-.8 1.784-1.786 1.784-1.785-.799-1.785-1.784zM373.15 374.595c0-.986.8-1.784 1.786-1.784s1.785.798 1.785 1.784c0 .985-.799 1.783-1.785 1.783-.986 0-1.786-.798-1.786-1.783zM353.511 394.216c0-.985.799-1.784 1.785-1.784.986 0 1.786.799 1.786 1.784s-.8 1.784-1.786 1.784-1.785-.799-1.785-1.784zM412.429 374.595c0-.986.8-1.784 1.786-1.784s1.785.798 1.785 1.784c0 .985-.799 1.783-1.785 1.783-.986 0-1.786-.798-1.786-1.783zM392.79 394.216c0-.985.799-1.784 1.785-1.784.986 0 1.786.799 1.786 1.784s-.8 1.784-1.786 1.784-1.785-.799-1.785-1.784z"/></mask><circle cx="216" cy="193" r="200" fill="#C7C7C7" mask="url(#a)"/></svg>