<svg width="643" height="595" viewBox="0 0 643 595" xmlns="http://www.w3.org/2000/svg" fill="none"><path d="M618 529c13.807 0 25-11.193 25-25s-11.193-25-25-25-25 11.193-25 25 11.193 25 25 25zM47.941 539.813c-13.429-3.21-26.917 5.073-30.128 18.502-3.21 13.429 5.073 26.917 18.502 30.128 13.429 3.21 26.917-5.074 30.128-18.502 3.21-13.429-5.073-26.918-18.502-30.128zM341 529c133.653 0 242-110.138 242-246s-108.347-246-242-246c-133.653 0-242 110.138-242 246s108.347 246 242 246z" fill="#F0F0F4"/><rect x="200" y="30" width="290" height="451" rx="16" fill="#fff" filter="url(#a)"/><path fill-rule="evenodd" clip-rule="evenodd" d="M261 227.546c0-.552.696-1 1.556-1h164.888c.86 0 1.556.448 1.556 1s-.696 1-1.556 1h-164.888c-.86 0-1.556-.448-1.556-1z" fill="#231F20"/><path d="M268.845 207.525c.61.18 1.08.495 1.41.945.34.44.51.985.51 1.635 0 .89-.33 1.595-.99 2.115-.65.52-1.55.78-2.7.78h-3.93c-.35 0-.62-.095-.81-.285-.19-.19-.285-.46-.285-.81v-8.385c0-.35.095-.62.285-.81.19-.19.46-.285.81-.285h3.78c1.1 0 1.97.245 2.61.735.65.49.975 1.16.975 2.01 0 .55-.15 1.035-.45 1.455-.29.41-.695.71-1.215.9zm-4.515-.795h2.205c.6 0 1.04-.1 1.32-.3.29-.21.435-.525.435-.945 0-.44-.145-.76-.435-.96-.28-.21-.72-.315-1.32-.315h-2.205v2.52zm2.475 4.485c.62 0 1.07-.105 1.35-.315.28-.21.42-.55.42-1.02s-.14-.815-.42-1.035c-.28-.22-.73-.33-1.35-.33h-2.475v2.7h2.475zm6.757 1.875c-.36 0-.645-.105-.855-.315-.21-.21-.315-.495-.315-.855v-8.415c0-.35.105-.63.315-.84.21-.21.495-.315.855-.315s.645.105.855.315c.21.21.315.49.315.84v8.415c0 .36-.105.645-.315.855-.21.21-.495.315-.855.315zm4.048-3.225c-.71 0-1.065-.295-1.065-.885 0-.59.355-.885 1.065-.885h2.94c.71 0 1.065.295 1.065.885 0 .59-.355.885-1.065.885h-2.94zm6.922 3.135c-.35 0-.62-.095-.81-.285-.19-.19-.285-.46-.285-.81v-8.385c0-.35.095-.62.285-.81.19-.19.46-.285.81-.285h3.015c1.15 0 2.14.21 2.97.63.83.42 1.465 1.025 1.905 1.815.44.79.66 1.735.66 2.835 0 1.1-.22 2.05-.66 2.85-.43.79-1.06 1.395-1.89 1.815-.83.42-1.825.63-2.985.63h-3.015zm2.85-1.89c2.25 0 3.375-1.135 3.375-3.405 0-2.26-1.125-3.39-3.375-3.39h-1.605v6.795h1.605zm8.665 1.98c-.36 0-.645-.105-.855-.315-.21-.21-.315-.495-.315-.855v-8.415c0-.35.105-.63.315-.84.21-.21.495-.315.855-.315s.645.105.855.315c.21.21.315.49.315.84v8.415c0 .36-.105.645-.315.855-.21.21-.495.315-.855.315zm11.939-1.575c.15.22.225.435.225.645 0 .28-.115.51-.345.69-.22.18-.48.27-.78.27-.19 0-.375-.045-.555-.135-.18-.09-.33-.23-.45-.42l-1.98-2.94c-.17-.26-.35-.445-.54-.555-.19-.12-.43-.18-.72-.18h-1.215v3.03c0 .36-.105.645-.315.855-.2.21-.475.315-.825.315-.36 0-.645-.105-.855-.315-.21-.21-.315-.495-.315-.855v-8.4c0-.35.095-.62.285-.81.19-.19.46-.285.81-.285h3.765c1.24 0 2.175.275 2.805.825.64.54.96 1.325.96 2.355 0 .81-.225 1.485-.675 2.025-.45.54-1.085.895-1.905 1.065.3.06.565.18.795.36.24.17.47.42.69.75l1.14 1.71zm-4.155-4.395c.67 0 1.155-.115 1.455-.345.3-.24.45-.61.45-1.11 0-.51-.15-.88-.45-1.11-.3-.23-.785-.345-1.455-.345h-2.235v2.91h2.235zm7.097 5.88c-.35 0-.62-.095-.81-.285-.19-.19-.285-.46-.285-.81v-8.385c0-.35.095-.62.285-.81.19-.19.46-.285.81-.285h5.31c.74 0 1.11.3 1.11.9 0 .61-.37.915-1.11.915h-4.125v2.475h3.825c.74 0 1.11.305 1.11.915 0 .6-.37.9-1.11.9h-3.825v2.655h4.125c.74 0 1.11.305 1.11.915 0 .6-.37.9-1.11.9h-5.31zm12.657.135c-1.04 0-1.95-.22-2.73-.66-.78-.44-1.38-1.07-1.8-1.89-.42-.82-.63-1.78-.63-2.88 0-1.1.21-2.055.63-2.865.42-.82 1.02-1.45 1.8-1.89.78-.44 1.69-.66 2.73-.66 1.31 0 2.44.36 3.39 1.08.15.12.255.24.315.36s.09.27.09.45c0 .26-.075.485-.225.675-.14.18-.315.27-.525.27-.14 0-.265-.015-.375-.045-.1-.04-.215-.105-.345-.195-.4-.26-.77-.445-1.11-.555-.34-.12-.705-.18-1.095-.18-.96 0-1.685.3-2.175.9-.48.59-.72 1.475-.72 2.655 0 2.38.965 3.57 2.895 3.57.37 0 .72-.055 1.05-.165.33-.12.715-.31 1.155-.57.15-.09.275-.15.375-.18.1-.04.215-.06.345-.06.21 0 .385.095.525.285.15.18.225.4.225.66 0 .18-.035.335-.105.465-.06.12-.16.235-.3.345-.95.72-2.08 1.08-3.39 1.08zm8.774-.06c-.35 0-.635-.105-.855-.315-.21-.21-.315-.49-.315-.84v-7.59h-2.43c-.74 0-1.11-.32-1.11-.96 0-.63.37-.945 1.11-.945h7.2c.74 0 1.11.315 1.11.945 0 .64-.37.96-1.11.96h-2.43v7.59c0 .35-.105.63-.315.84-.21.21-.495.315-.855.315zm6.886.015c-.36 0-.645-.105-.855-.315-.21-.21-.315-.495-.315-.855v-8.415c0-.35.105-.63.315-.84.21-.21.495-.315.855-.315s.645.105.855.315c.21.21.315.49.315.84v8.415c0 .36-.105.645-.315.855-.21.21-.495.315-.855.315zm8.129.045c-1.05 0-1.965-.22-2.745-.66-.77-.45-1.365-1.08-1.785-1.89-.42-.82-.63-1.78-.63-2.88 0-1.1.21-2.055.63-2.865.42-.82 1.015-1.45 1.785-1.89.78-.44 1.695-.66 2.745-.66s1.96.22 2.73.66c.78.44 1.38 1.07 1.8 1.89.42.81.63 1.765.63 2.865 0 1.1-.21 2.06-.63 2.88-.42.81-1.02 1.44-1.8 1.89-.77.44-1.68.66-2.73.66zm0-1.815c.88 0 1.57-.31 2.07-.93.51-.62.765-1.515.765-2.685 0-1.17-.25-2.06-.75-2.67-.5-.62-1.195-.93-2.085-.93-.89 0-1.585.31-2.085.93-.49.61-.735 1.5-.735 2.67s.25 2.065.75 2.685c.5.62 1.19.93 2.07.93zm15.017-8.97c.33 0 .595.11.795.33.21.21.315.485.315.825v8.415c0 .35-.105.635-.315.855-.2.21-.465.315-.795.315-.36 0-.65-.13-.87-.39l-5.025-6.435v5.655c0 .35-.1.635-.3.855-.19.21-.45.315-.78.315s-.595-.105-.795-.315c-.2-.22-.3-.505-.3-.855v-8.415c0-.34.1-.615.3-.825.21-.22.48-.33.81-.33.37 0 .655.13.855.39l5.025 6.39v-5.625c0-.34.1-.615.3-.825.2-.22.46-.33.78-.33zm13.064 9.225c.08.18.12.34.12.48 0 .28-.115.52-.345.72-.22.19-.475.285-.765.285-.19 0-.37-.05-.54-.15-.17-.11-.3-.27-.39-.48l-.795-1.77h-5.085l-.795 1.77c-.09.21-.22.37-.39.48-.16.1-.34.15-.54.15-.29 0-.55-.095-.78-.285-.23-.2-.345-.44-.345-.72 0-.14.04-.3.12-.48l4.05-8.505c.11-.24.275-.42.495-.54.22-.13.455-.195.705-.195.26 0 .5.065.72.195.22.13.39.31.51.54l4.05 8.505zm-3.51-2.685l-1.74-3.9-1.755 3.9h3.495zm6.014 4.11c-.35 0-.62-.095-.81-.285-.19-.19-.285-.46-.285-.81v-8.4c0-.35.105-.63.315-.84.21-.21.495-.315.855-.315s.645.105.855.315c.21.21.315.49.315.84v7.59h3.84c.73 0 1.095.32 1.095.96 0 .63-.365.945-1.095.945h-5.085zm15.357.135c-.79 0-1.525-.09-2.205-.27-.68-.19-1.235-.455-1.665-.795-.15-.11-.26-.225-.33-.345-.06-.13-.09-.29-.09-.48 0-.25.075-.47.225-.66.16-.19.34-.285.54-.285.11 0 .215.02.315.06.11.03.24.09.39.18.43.27.865.47 1.305.6.44.12.925.18 1.455.18.66 0 1.165-.11 1.515-.33.35-.22.525-.535.525-.945 0-.31-.165-.56-.495-.75-.32-.19-.895-.37-1.725-.54-.93-.19-1.675-.42-2.235-.69-.55-.27-.955-.605-1.215-1.005-.25-.4-.375-.885-.375-1.455 0-.63.18-1.195.54-1.695.37-.51.875-.905 1.515-1.185.65-.29 1.38-.435 2.19-.435 1.42 0 2.59.355 3.51 1.065.15.12.255.245.315.375.07.12.105.27.105.45 0 .25-.08.47-.24.66-.15.19-.325.285-.525.285-.11 0-.215-.015-.315-.045-.09-.03-.22-.095-.39-.195-.41-.26-.79-.455-1.14-.585-.34-.13-.775-.195-1.305-.195-.61 0-1.09.12-1.44.36-.35.23-.525.55-.525.96 0 .24.065.44.195.6.14.15.365.285.675.405.32.12.77.245 1.35.375 1.36.3 2.335.685 2.925 1.155.6.47.9 1.115.9 1.935 0 .64-.18 1.205-.54 1.695-.35.49-.85.87-1.5 1.14-.64.27-1.385.405-2.235.405zm12.253-10.41c.22-.26.48-.39.78-.39.28 0 .53.11.75.33.23.21.345.455.345.735 0 .25-.095.485-.285.705l-3.285 3.9v3.915c0 .38-.11.67-.33.87-.22.2-.495.3-.825.3-.35 0-.635-.1-.855-.3-.22-.2-.33-.49-.33-.87v-3.915l-3.255-3.9c-.19-.2-.285-.435-.285-.705 0-.28.105-.525.315-.735.22-.22.47-.33.75-.33.3 0 .56.13.78.39l2.865 3.495 2.865-3.495zm11.021-.375c.33 0 .595.11.795.33.21.21.315.485.315.825v8.415c0 .35-.105.635-.315.855-.2.21-.465.315-.795.315-.36 0-.65-.13-.87-.39l-5.025-6.435v5.655c0 .35-.1.635-.3.855-.19.21-.45.315-.78.315s-.595-.105-.795-.315c-.2-.22-.3-.505-.3-.855v-8.415c0-.34.1-.615.3-.825.21-.22.48-.33.81-.33.37 0 .655.13.855.39l5.025 6.39v-5.625c0-.34.1-.615.3-.825.2-.22.46-.33.78-.33zm8.069 10.785c-1.04 0-1.95-.22-2.73-.66-.78-.44-1.38-1.07-1.8-1.89-.42-.82-.63-1.78-.63-2.88 0-1.1.21-2.055.63-2.865.42-.82 1.02-1.45 1.8-1.89.78-.44 1.69-.66 2.73-.66 1.31 0 2.44.36 3.39 1.08.15.12.255.24.315.36s.09.27.09.45c0 .26-.075.485-.225.675-.14.18-.315.27-.525.27-.14 0-.265-.015-.375-.045-.1-.04-.215-.105-.345-.195-.4-.26-.77-.445-1.11-.555-.34-.12-.705-.18-1.095-.18-.96 0-1.685.3-2.175.9-.48.59-.72 1.475-.72 2.655 0 2.38.965 3.57 2.895 3.57.37 0 .72-.055 1.05-.165.33-.12.715-.31 1.155-.57.15-.09.275-.15.375-.18.1-.04.215-.06.345-.06.21 0 .385.095.525.285.15.18.225.4.225.66 0 .18-.035.335-.105.465-.06.12-.16.235-.3.345-.95.72-2.08 1.08-3.39 1.08z" fill="#231F20"/><path d="M352.963 159.625h-17.422c-4.433 0-8.041-3.622-8.041-8.073 0-3.924 2.798-7.199 6.497-7.925 1.394-4.782 5.838-8.221 10.925-8.221 4.018 0 7.733 2.145 9.764 5.549 4.377.804 7.658 4.661 7.658 9.251 0 5.194-4.208 9.419-9.381 9.419z" fill="url(#b)"/><path d="M344.87 121.364c5.343 0 10.184 1.396 14.518 4.141l-2.352 2.46c-1.488 1.493-.438 4.047 1.664 4.067l9.671 1.255h.024c1.317 0 2.386-1.068 2.386-2.384v-.017l-.879-10.041c-.014-2.114-2.583-3.163-4.073-1.668l-2.77 2.769c-5.289-3.599-11.565-5.602-18.189-5.602-17.936 0-32.526 14.581-32.526 32.507 0 3.174.466 6.333 1.387 9.388.317 1.059 1.411 1.698 2.41 1.698h.023l.762-.092.032-.01c1.259-.381 1.975-1.71 1.596-2.972-.788-2.608-1.187-5.305-1.187-8.012 0-15.295 12.199-27.487 27.503-27.487z" fill="#C7C7C7"/><path d="M344.825 176.392c-5.343-.025-10.177-1.445-14.497-4.211l2.363-2.451c1.496-1.486.457-4.046-1.645-4.076l-9.663-1.302h-.025c-1.317-.006-2.391 1.058-2.397 2.375v.016l.832 10.051c.004 2.114 2.568 3.176 4.064 1.687l2.784-2.757c5.271 3.626 11.537 5.66 18.161 5.691 17.933.084 32.591-14.436 32.675-32.369.015-3.177-.436-6.339-1.343-9.4-.312-1.06-1.403-1.705-2.402-1.71h-.023l-.762.089-.032.009c-1.261.376-1.982 1.702-1.61 2.966v.001c.776 2.612 1.162 5.312 1.149 8.021-.072 15.302-12.327 27.442-27.629 27.37z" fill="#9AA3A7"/><path fill-rule="evenodd" clip-rule="evenodd" d="M428.475 148.363l-6.838-6.839c-.7-.699-1.834-.699-2.533 0-.7.7-.7 1.834 0 2.533l3.781 3.782h-16.094c-.989 0-1.791.802-1.791 1.791 0 .989.802 1.791 1.791 1.791h16.094l-3.781 3.781c-.7.7-.7 1.834 0 2.533.699.699 1.833.699 2.533 0l6.838-6.839c.7-.699.7-1.833 0-2.533z" fill="#231F20"/><path d="M270.896 144.057l-3.781 3.782h16.094c.989 0 1.791.802 1.791 1.791 0 .989-.802 1.791-1.791 1.791h-16.094l3.781 3.781c.7.7.7 1.834 0 2.533-.699.699-1.833.699-2.533 0l-6.838-6.839c-.7-.699-.7-1.833 0-2.533l6.838-6.839c.7-.699 1.834-.699 2.533 0 .7.7.7 1.834 0 2.533z" fill="#231F20"/><path d="M199 46c0-8.837 7.163-16 16-16h259c8.837 0 16 7.163 16 16v51h-291v-51z" fill="#fff" filter="url(#c)"/><path fill-rule="evenodd" clip-rule="evenodd" d="M375.567 69.82v-20.077l3.747-.744v18.962c0 1.859.937 2.231 1.686 2.231 0 2.788-5.433 2.788-5.433-.372zM349.809 66.513l-4.215 5.167h-4.871l6.699-8.093-6.137-7.523h4.683l3.841 4.639 3.84-4.639h4.683l-6.136 7.523 6.698 8.093h-4.87l-4.215-5.167z"/><path d="M351.588 71.68h-3.372l1.686-2.231 1.686 2.231z" fill="#CC3630"/><path fill-rule="evenodd" clip-rule="evenodd" d="M332.458 55.875c-3.556.674-6.347 3.216-6.347 7.625v.744c0 5.205 3.704 7.808 8.335 7.808 4.26 0 8.15-2.602 8.15-7.808v-.744c0-4.634-2.737-7.07-6.328-7.663l-1.38 2.844c1.944.16 4.003 1.662 4.003 4.819v1.115c0 3.346-2.313 4.462-4.35 4.462-2.038 0-4.541-1.115-4.541-4.462v-1.115c0-2.97 1.972-4.475 3.84-4.776l-1.382-2.849zM363.842 55.694c-1.513.282-2.899.883-4.009 1.808-1.608 1.339-2.625 3.344-2.625 5.998v.744c0 2.651.967 4.657 2.553 5.997 1.581 1.337 3.759 1.996 6.16 1.996 2.361 0 4.467-.566 6.371-1.7l-1.783-2.576c-1.844.915-3.257 1.115-4.588 1.115-1.006 0-2.097-.314-2.933-1.024-.766-.65-1.574-1.457-1.658-2.88h12.926s.187-.744.187-1.673c0-2.603-.965-4.749-2.528-6.067-1.117-.942-2.529-1.523-4.087-1.777l-1.469 3.027c1.625.146 3.461 1.311 3.963 3.516h-8.805c.466-2.051 2.229-3.202 3.797-3.471l-1.472-3.034z"/><path d="M313.934 56.064h-3.934s6.931 15.615 6.931 15.987c0 2.602-2.435 2.602-4.87 2.602v3.346c1.49 0 2.974-.019 4.308-.558 1.332-.538 2.845-1.742 3.56-3.16.641-1.273 5.459-12.83 7.68-18.218h-4.121c-1.042 2.527-2.427 6.016-3.676 9.162l-.82 1.991-5.058-11.154z"/><g clip-path="url(#d)" fill="#0072C6"><path d="M580.065 88.149v15.821l5.529 3.482c.145.042.461.045.607 0l23.796-16.043c0-1.899-1.771-3.26-2.771-3.26h-27.161zM580.065 109.873l5.046 3.466c.71.523 1.567 0 1.567 0-.854.523 23.322-15.536 23.322-15.536v29.079c0 3.165-2.026 4.493-4.305 4.493h-25.633v-21.502h.003zM553.939 102.579c-1.72 0-3.09.808-4.102 2.421-1.011 1.613-1.518 3.749-1.518 6.407 0 2.698.507 4.83 1.518 6.398 1.012 1.57 2.34 2.351 3.98 2.351 1.692 0 3.035-.762 4.025-2.287.991-1.525 1.489-3.643 1.489-6.35 0-2.822-.48-5.018-1.443-6.589-.963-1.567-2.279-2.351-3.949-2.351zM530 80.114v61.897l47.087 9.873v-80.884l-47.087 9.114zm31.509 41.412c-1.99 2.619-4.584 3.931-7.786 3.931-3.12 0-5.66-1.269-7.625-3.806-1.963-2.54-2.947-5.845-2.947-9.922 0-4.305.996-7.786 2.992-10.444 1.996-2.658 4.639-3.989 7.929-3.989 3.108 0 5.623 1.27 7.54 3.816 1.92 2.545 2.88 5.899 2.88 10.064.003 4.281-.993 7.732-2.983 10.35z"/></g><path d="M66.182 110.092c5.135-5.335 12.266-8.642 20.147-8.642 10.484 0 19.647 5.833 24.532 14.511 4.244-1.885 8.915-2.952 13.871-2.952 18.935 0 34.268 15.435 34.268 34.498 0 19.063-15.333 34.499-34.268 34.499-2.317 0-4.564-.249-6.739-.676-4.279 7.647-12.48 12.804-21.858 12.804-3.922 0-7.667-.89-10.947-2.526-4.35 10.208-14.513 17.392-26.316 17.392-12.302 0-22.821-7.753-26.815-18.672-1.747.356-3.601.569-5.456.569-14.727 0-26.601-11.95-26.601-26.745 0-9.887 5.349-18.53 13.265-23.153-1.64-3.735-2.532-7.896-2.532-12.235 0-17 13.835-30.764 30.88-30.764 10.02 0 18.899 4.73 24.569 12.092z" fill="#119CD8"/><path d="M23.035 155.58c-.107.249.036.32.071.356.285.213.606.356.891.534 1.605.853 3.138 1.102 4.743 1.102 3.245 0 5.277-1.743 5.277-4.517v-.071c0-2.561-2.282-3.521-4.422-4.197l-.285-.071c-1.605-.533-2.995-.96-2.995-2.027v-.071c0-.925.82-1.565 2.068-1.565 1.391 0 3.067.462 4.136 1.067 0 0 .321.213.428-.107.071-.178.606-1.636.678-1.778.071-.178-.036-.285-.143-.356-1.212-.747-2.924-1.244-4.671-1.244h-.321c-2.995 0-5.063 1.813-5.063 4.374v.071c0 2.703 2.282 3.592 4.457 4.197l.357.107c1.569.498 2.924.889 2.924 1.991v.071c0 .996-.891 1.743-2.282 1.743-.535 0-2.318 0-4.208-1.209-.214-.142-.357-.213-.535-.356-.107-.071-.321-.142-.428.143l-.677 1.813zM70.781 155.58c-.107.249.036.32.071.356.285.213.606.356.891.534 1.605.853 3.138 1.102 4.743 1.102 3.245 0 5.277-1.743 5.277-4.517v-.071c0-2.561-2.282-3.521-4.422-4.197l-.285-.071c-1.605-.533-2.995-.96-2.995-2.027v-.071c0-.925.82-1.565 2.068-1.565 1.391 0 3.067.462 4.136 1.067 0 0 .321.213.428-.107.071-.178.606-1.636.677-1.778.071-.178-.036-.285-.143-.356-1.212-.747-2.924-1.244-4.671-1.244h-.321c-2.995 0-5.064 1.813-5.064 4.374v.071c0 2.703 2.318 3.592 4.457 4.197l.356.107c1.569.498 2.924.889 2.924 1.991v.071c0 .996-.891 1.743-2.282 1.743-.535 0-2.318 0-4.208-1.209-.214-.142-.357-.213-.535-.356-.071-.035-.321-.142-.428.143l-.678 1.813zM106.083 147.187c-.249-.889-.677-1.707-1.248-2.347-.57-.676-1.248-1.21-2.104-1.601-.82-.391-1.818-.569-2.924-.569-1.105 0-2.104.214-2.924.569-.82.391-1.533.925-2.104 1.601-.57.675-.963 1.458-1.248 2.347-.25.889-.392 1.885-.392 2.916 0 1.032.143 2.028.392 2.917.25.889.678 1.707 1.248 2.347.57.676 1.248 1.209 2.104 1.565.82.391 1.819.569 2.924.569 1.106 0 2.069-.178 2.924-.569.821-.391 1.534-.925 2.104-1.565.571-.676.963-1.458 1.248-2.347.25-.889.392-1.885.392-2.917.036-1.031-.106-2.027-.392-2.916zm-2.71 2.916c0 1.565-.285 2.81-.891 3.699-.571.854-1.427 1.281-2.639 1.281-1.212 0-2.068-.427-2.639-1.281-.571-.889-.856-2.134-.856-3.699s.285-2.809.856-3.663c.571-.853 1.426-1.28 2.639-1.28 1.212 0 2.068.427 2.639 1.28.606.854.891 2.098.891 3.663z" fill="#fff"/><path fill-rule="evenodd" clip-rule="evenodd" d="M128.441 154.656c-.071-.249-.357-.178-.357-.178-.392.142-.82.284-1.283.356-.464.071-.963.106-1.498.106-1.319 0-2.353-.391-3.102-1.173-.749-.783-1.177-2.028-1.177-3.699 0-1.53.392-2.703 1.034-3.592.678-.89 1.676-1.316 3.031-1.316 1.105 0 1.997.142 2.888.426 0 0 .214.107.321-.177.25-.676.428-1.138.678-1.85.071-.213-.107-.284-.179-.32-.356-.142-1.176-.356-1.818-.462-.571-.071-1.284-.142-2.033-.142-1.141 0-2.175.213-3.031.569-.855.391-1.604.924-2.21 1.6-.571.676-1.034 1.458-1.32 2.347-.285.889-.428 1.885-.428 2.917 0 2.24.607 4.054 1.819 5.406 1.212 1.351 3.031 2.027 5.384 2.027 1.391 0 2.817-.285 3.851-.676 0 0 .214-.107.107-.32l-.677-1.849zM142.383 146.689c-.214-.889-.82-1.743-1.176-2.134-.607-.64-1.177-1.067-1.748-1.316-.749-.32-1.64-.533-2.638-.533-1.141 0-2.211.178-3.031.604-.856.392-1.569.925-2.14 1.601-.57.676-.963 1.458-1.248 2.383-.285.889-.392 1.885-.392 2.916 0 1.067.142 2.063.428 2.952.285.889.713 1.672 1.319 2.347.606.641 1.391 1.174 2.318 1.53.927.355 2.068.533 3.352.533 2.674 0 4.065-.604 4.635-.925.107-.071.214-.142.072-.426l-.607-1.672c-.107-.249-.356-.142-.356-.142-.678.249-1.605.676-3.78.676-1.426 0-2.496-.427-3.138-1.067-.677-.676-1.034-1.672-1.07-3.059h9.2s.25 0 .286-.249c0-.178.32-1.956-.286-4.019zm-9.164 1.921c.143-.889.357-1.601.749-2.17.57-.853 1.426-1.351 2.639-1.351 1.212 0 1.996.462 2.567 1.351.392.569.535 1.316.606 2.17h-6.561zM68.571 146.689c-.214-.889-.82-1.743-1.177-2.134-.606-.64-1.177-1.067-1.747-1.316-.749-.32-1.64-.533-2.639-.533-1.141 0-2.211.178-3.031.604-.856.392-1.569.925-2.139 1.601-.571.676-.963 1.458-1.248 2.383-.285.889-.392 1.885-.392 2.916 0 1.067.143 2.063.428 2.952.285.889.713 1.672 1.319 2.347.606.641 1.391 1.174 2.318 1.53.927.355 2.068.533 3.352.533 2.674 0 4.065-.604 4.636-.925.107-.071.214-.142.071-.426l-.606-1.672c-.107-.249-.357-.142-.357-.142-.678.249-1.605.676-3.78.676-1.426 0-2.496-.427-3.138-1.067-.678-.676-1.034-1.672-1.07-3.059h9.2s.25 0 .285-.249c0-.178.321-1.956-.285-4.019zm-9.164 1.921c.143-.889.357-1.601.749-2.17.571-.853 1.426-1.351 2.639-1.351 1.212 0 1.997.462 2.567 1.351.392.569.535 1.316.606 2.17h-6.561z" fill="#fff"/><path d="M43.146 148.147c-.357-.035-.856-.035-1.426-.035-.785 0-1.569.106-2.282.284-.713.178-1.355.498-1.926.889s-.998.925-1.319 1.53c-.321.604-.499 1.316-.499 2.134 0 .818.143 1.529.428 2.098.285.569.678 1.067 1.212 1.423.499.355 1.141.64 1.89.818.713.177 1.533.248 2.425.248.963 0 1.89-.071 2.817-.248.891-.143 1.997-.392 2.318-.463.321-.071.642-.178.642-.178.214-.071.214-.284.214-.284v-8.394c0-1.849-.499-3.201-1.462-4.054-.963-.854-2.389-1.28-4.243-1.28-.678 0-1.819.106-2.46.213 0 0-1.997.391-2.853 1.031 0 0-.178.107-.071.356l.642 1.743c.071.213.321.142.321.142l.143-.071c1.783-.96 4.029-.925 4.029-.925.998 0 1.747.213 2.282.605.499.391.749.96.749 2.205v.391c-.82-.107-1.569-.178-1.569-.178zm-3.673 6.473c-.357-.284-.428-.356-.535-.533-.178-.285-.285-.676-.285-1.21 0-.818.285-1.387.82-1.778 0 0 .785-.676 2.674-.676 1.319 0 2.496.214 2.496.214v4.196s-1.177.249-2.496.321c-1.819.106-2.674-.534-2.674-.534z" fill="#fff"/><path fill-rule="evenodd" clip-rule="evenodd" d="M117.494 143.417c.071-.213-.071-.32-.143-.32-.142-.071-.927-.213-1.533-.249-1.177-.071-1.819.107-2.389.391-.571.249-1.212.676-1.569 1.138v-1.138c0-.142-.107-.284-.25-.284h-2.353c-.143 0-.25.106-.25.284v13.728c0 .143.107.285.286.285h2.424c.143 0 .286-.107.286-.285v-6.864c0-.924.107-1.849.321-2.418.213-.569.463-1.032.82-1.352.321-.32.713-.569 1.141-.675.428-.143.891-.178 1.248-.178.499 0 .998.142.998.142.178.036.285-.107.357-.249.071-.427.535-1.707.606-1.956zM94.779 137.051c-.285-.107-.571-.142-.927-.214-.357-.071-.784-.106-1.248-.106-1.676 0-2.995.462-3.887 1.387-.927.924-1.533 2.312-1.854 4.161l-.107.64h-2.104s-.25 0-.321.285l-.357 1.92c-.036.178.071.285.285.285h2.032l-2.068 11.487c-.178.925-.357 1.672-.535 2.277-.214.569-.392.995-.642 1.315-.25.285-.463.534-.856.641-.321.106-.677.142-1.07.142-.214 0-.535-.036-.749-.071l-.499-.142s-.25-.107-.321.142l-.677 1.885c-.071.178.036.32.143.355.285.107.463.143.856.249.499.107.963.143 1.355.143.856 0 1.605-.107 2.246-.356.642-.249 1.212-.64 1.712-1.174.535-.604.892-1.209 1.212-2.062.321-.854.606-1.885.82-3.095l2.068-11.701h3.031s.25 0 .321-.284l.357-1.921c.036-.178-.071-.284-.285-.284h-2.96c0-.071.143-1.103.499-2.063.143-.427.428-.747.642-.996.214-.213.499-.391.784-.498.285-.107.606-.142.998-.142.285 0 .535.035.749.071l.463.107c.285.106.357 0 .392-.143l.713-1.92c0-.178-.178-.285-.214-.32zM53.594 156.932c0 .142-.107.285-.25.285h-2.46c-.143 0-.25-.143-.25-.285v-19.632c0-.142.107-.285.25-.285h2.46c.143 0 .25.107.25.285v19.632z" fill="#fff"/><g clip-path="url(#e)"><path d="M622.636 249.499h-69.588c-2.698 0-4.97-2.202-4.97-4.971v-50.273c0-2.699 2.201-4.971 4.97-4.971h69.588c2.698 0 4.97 2.201 4.97 4.971v50.273c0 2.769-2.201 4.971-4.97 4.971z" fill="#E3E3E3"/><path opacity=".1" d="M558.019 249.499l29.752-23.93.213-1.278-30.675-22.083-.071 46.225.781 1.066z" fill="#231F20"/><path d="M553.048 249.498c-2.769 0-4.97-2.201-4.97-4.97v-50.345c0-2.769 2.201-3.266 4.97-3.266 2.769 0 4.971.568 4.971 3.266v55.315h-4.971z" fill="#D54B3D"/><path d="M553.048 191.627c3.551 0 4.261 1.065 4.261 2.556v54.605h-4.261c-2.343 0-4.26-1.917-4.26-4.26v-50.345c0-1.562.71-2.556 4.26-2.556zm0-.71c-2.769 0-4.97.568-4.97 3.266v50.345c0 2.769 2.201 4.97 4.97 4.97h4.971v-55.315c0-2.769-2.202-3.266-4.971-3.266z" fill="#D72B27"/><path d="M622.636 249.498h-4.971v-55.457c0-2.769 2.201-3.124 4.971-3.124 2.769 0 4.97.355 4.97 3.124v50.558c0 2.698-2.201 4.899-4.97 4.899z" fill="#D54B3D"/><path d="M622.636 191.627c3.195 0 4.26.639 4.26 2.414v50.558c0 2.343-1.917 4.26-4.26 4.26h-4.261v-54.818c0-1.846 1.065-2.414 4.261-2.414zm0-.71c-2.77 0-4.971.355-4.971 3.124v55.528h4.971c2.769 0 4.97-2.201 4.97-4.97v-50.558c0-2.769-2.201-3.124-4.97-3.124z" fill="#D72B27"/><path d="M601.333 249.499l-52.839-53.25 2.779 1.13 36.782 26.486 39.551-29.002v49.736c0 2.698-2.201 4.9-4.97 4.9h-21.303z" fill="url(#f)"/><path d="M587.771 225.569l-37.563-27.267c-2.201-1.633-2.841-4.758-1.207-6.959 1.633-2.201 4.828-2.698 7.1-1.065l31.741 23.078 31.953-23.362c2.201-1.633 5.326-1.136 6.959 1.136 1.633 2.201 1.136 5.326-1.136 6.959l-37.847 27.48z" fill="#D54B3D"/><path d="M622.636 189.71c1.349 0 2.627.639 3.479 1.775 1.349 1.917.923 4.545-.923 5.965l-37.421 27.267-37.137-26.983c-1.917-1.42-2.414-4.119-1.065-5.965.781-1.065 2.13-1.775 3.55-1.775.923 0 1.846.284 2.556.852l31.67 23.007.426.284.426-.284 31.882-23.362c.781-.497 1.633-.781 2.557-.781zm0-.71c-.995 0-2.06.284-2.912.923l-31.953 23.362-31.741-23.078c-.852-.639-1.917-.923-2.982-.923-1.562 0-3.124.71-4.118 2.059-1.562 2.201-.923 5.326 1.278 6.959l37.563 27.338 37.776-27.551c2.201-1.633 2.698-4.687 1.136-6.959-.994-1.42-2.485-2.13-4.047-2.13z" fill="#D72B27"/></g><path d="M264.68 265.12c-.75 0-1.47-.11-2.16-.33-.68-.23-1.225-.535-1.635-.915-.15-.14-.225-.315-.225-.525 0-.14.04-.26.12-.36.08-.11.175-.165.285-.165.13 0 .27.055.42.165.93.72 1.99 1.08 3.18 1.08.86 0 1.52-.165 1.98-.495.46-.33.69-.8.69-1.41 0-.35-.11-.63-.33-.84-.22-.22-.51-.395-.87-.525s-.845-.265-1.455-.405c-.82-.19-1.495-.39-2.025-.6-.52-.21-.945-.51-1.275-.9-.32-.39-.48-.9-.48-1.53 0-.6.16-1.13.48-1.59.33-.47.785-.83 1.365-1.08.59-.26 1.26-.39 2.01-.39.7 0 1.35.11 1.95.33.61.21 1.12.515 1.53.915.16.16.24.335.24.525 0 .14-.04.265-.12.375-.08.1-.175.15-.285.15-.11 0-.255-.055-.435-.165-.49-.4-.945-.68-1.365-.84-.42-.16-.925-.24-1.515-.24-.83 0-1.475.175-1.935.525-.46.34-.69.82-.69 1.44 0 .53.2.93.6 1.2.41.26 1.035.49 1.875.69.91.22 1.625.425 2.145.615.52.18.95.455 1.29.825.35.37.525.865.525 1.485 0 .59-.165 1.11-.495 1.56-.32.45-.775.8-1.365 1.05s-1.265.375-2.025.375zm11.253-7.575c.19 0 .335.055.435.165.11.11.165.255.165.435v6.345c0 .17-.055.31-.165.42-.1.11-.245.165-.435.165-.18 0-.325-.05-.435-.15-.1-.11-.15-.25-.15-.42v-.75c-.23.44-.555.775-.975 1.005-.41.23-.875.345-1.395.345-.87 0-1.525-.24-1.965-.72-.44-.49-.66-1.21-.66-2.16v-4.08c0-.18.055-.325.165-.435.11-.11.26-.165.45-.165s.335.055.435.165c.11.11.165.255.165.435v4.05c0 .65.13 1.13.39 1.44.26.3.67.45 1.23.45.64 0 1.155-.205 1.545-.615.39-.42.585-.97.585-1.65v-3.675c0-.18.055-.325.165-.435.11-.11.26-.165.45-.165zm6.533-.03c.64 0 1.205.155 1.695.465.49.31.87.75 1.14 1.32.27.57.405 1.23.405 1.98 0 .76-.135 1.43-.405 2.01-.27.57-.65 1.015-1.14 1.335-.49.32-1.055.48-1.695.48-.57 0-1.07-.125-1.5-.375-.42-.25-.74-.605-.96-1.065v.81c0 .18-.055.325-.165.435-.1.11-.245.165-.435.165s-.34-.055-.45-.165c-.11-.11-.165-.255-.165-.435v-9.54c0-.17.055-.31.165-.42.11-.11.26-.165.45-.165s.335.055.435.165c.11.1.165.24.165.42v4.02c.22-.46.54-.815.96-1.065.43-.25.93-.375 1.5-.375zm-.24 6.585c.71 0 1.26-.245 1.65-.735.39-.5.585-1.195.585-2.085 0-.87-.195-1.545-.585-2.025-.39-.48-.94-.72-1.65-.72s-1.26.24-1.65.72c-.38.48-.57 1.165-.57 2.055 0 .89.19 1.58.57 2.07.39.48.94.72 1.65.72zm3.78 3.63c-.25.02-.435-.015-.555-.105-.13-.08-.195-.205-.195-.375 0-.27.175-.425.525-.465l.42-.03c.45-.03.78-.165.99-.405.22-.24.33-.635.33-1.185v-7.02c0-.19.055-.335.165-.435.12-.11.27-.165.45-.165s.325.055.435.165c.11.1.165.245.165.435v6.945c0 .84-.19 1.47-.57 1.89-.37.42-.95.66-1.74.72l-.42.03zm2.13-11.76c-.24 0-.435-.07-.585-.21-.15-.14-.225-.325-.225-.555 0-.22.075-.4.225-.54.15-.14.345-.21.585-.21s.435.07.585.21c.15.14.225.32.225.54 0 .23-.075.415-.225.555-.15.14-.345.21-.585.21zm8.527 7.335c.11 0 .205.045.285.135.08.09.12.205.12.345 0 .25-.175.48-.525.69-.36.21-.74.37-1.14.48-.4.1-.79.15-1.17.15-1.13 0-2.025-.335-2.685-1.005-.65-.67-.975-1.595-.975-2.775 0-.75.145-1.41.435-1.98.29-.58.695-1.03 1.215-1.35.53-.32 1.13-.48 1.8-.48.95 0 1.705.31 2.265.93.56.62.84 1.46.84 2.52 0 .2-.04.345-.12.435-.08.09-.21.135-.39.135h-4.83c.09 1.72.905 2.58 2.445 2.58.39 0 .725-.05 1.005-.15.28-.11.58-.255.9-.435.26-.15.435-.225.525-.225zm-2.625-4.845c-.64 0-1.155.2-1.545.6-.38.4-.605.965-.675 1.695h4.245c-.02-.74-.205-1.305-.555-1.695-.35-.4-.84-.6-1.47-.6zm7.895 6.645c-.68 0-1.285-.155-1.815-.465-.52-.31-.925-.75-1.215-1.32-.28-.57-.42-1.23-.42-1.98s.145-1.415.435-1.995c.3-.58.715-1.03 1.245-1.35.53-.32 1.14-.48 1.83-.48.38 0 .755.055 1.125.165.38.1.71.25.99.45.18.12.305.24.375.36.08.11.12.235.12.375s-.04.255-.12.345c-.07.09-.165.135-.285.135-.07 0-.145-.02-.225-.06l-.21-.12-.105-.075c-.26-.17-.51-.305-.75-.405-.23-.1-.515-.15-.855-.15-.73 0-1.3.25-1.71.75-.4.49-.6 1.175-.6 2.055 0 .88.2 1.56.6 2.04.41.48.98.72 1.71.72.34 0 .63-.05.87-.15.25-.1.5-.235.75-.405l.315-.18c.1-.05.185-.075.255-.075.11 0 .2.045.27.135.08.09.12.205.12.345 0 .13-.035.25-.105.36-.07.1-.2.215-.39.345-.28.19-.62.345-1.02.465-.39.11-.785.165-1.185.165zm7.552-.99c.35.03.525.19.525.48 0 .17-.065.3-.195.39-.12.08-.305.11-.555.09l-.405-.03c-.8-.06-1.39-.3-1.77-.72-.38-.42-.57-1.055-.57-1.905v-3.765h-1.005c-.17 0-.305-.04-.405-.12-.09-.09-.135-.205-.135-.345 0-.15.045-.27.135-.36.1-.09.235-.135.405-.135h1.005v-1.695c0-.19.055-.335.165-.435.11-.11.26-.165.45-.165.18 0 .325.055.435.165.11.1.165.245.165.435v1.695h1.665c.16 0 .285.045.375.135.1.09.15.21.15.36 0 .14-.05.255-.15.345-.09.08-.215.12-.375.12h-1.665v3.825c0 .55.11.95.33 1.2.23.24.57.375 1.02.405l.405.03zM261.905 295c-.17 0-.315-.05-.435-.15-.11-.11-.165-.25-.165-.42v-9.45c0-.19.055-.34.165-.45.11-.12.26-.18.45-.18s.34.06.45.18c.11.11.165.26.165.45v8.97h4.845c.18 0 .32.045.42.135.1.09.15.22.15.39s-.05.3-.15.39c-.1.09-.24.135-.42.135h-5.475zm10.336.105c-.69 0-1.3-.155-1.83-.465-.52-.31-.925-.75-1.215-1.32-.28-.58-.42-1.25-.42-2.01 0-.76.14-1.425.42-1.995.29-.58.695-1.025 1.215-1.335.53-.31 1.14-.465 1.83-.465.69 0 1.3.155 1.83.465.53.31.935.755 1.215 1.335.29.57.435 1.235.435 1.995s-.145 1.43-.435 2.01c-.28.57-.685 1.01-1.215 1.32-.53.31-1.14.465-1.83.465zm0-1.005c.72 0 1.27-.235 1.65-.705.39-.48.585-1.175.585-2.085 0-.89-.195-1.575-.585-2.055-.39-.49-.94-.735-1.65-.735s-1.26.245-1.65.735c-.39.48-.585 1.165-.585 2.055 0 .9.19 1.59.57 2.07.39.48.945.72 1.665.72zm8.305 1.005c-.68 0-1.285-.155-1.815-.465-.52-.31-.925-.75-1.215-1.32-.28-.57-.42-1.23-.42-1.98s.145-1.415.435-1.995c.3-.58.715-1.03 1.245-1.35.53-.32 1.14-.48 1.83-.48.38 0 .755.055 1.125.165.38.1.71.25.99.45.18.12.305.24.375.36.08.11.12.235.12.375s-.04.255-.12.345c-.07.09-.165.135-.285.135-.07 0-.145-.02-.225-.06l-.21-.12-.105-.075c-.26-.17-.51-.305-.75-.405-.23-.1-.515-.15-.855-.15-.73 0-1.3.25-1.71.75-.4.49-.6 1.175-.6 2.055 0 .88.2 1.56.6 2.04.41.48.98.72 1.71.72.34 0 .63-.05.87-.15.25-.1.5-.235.75-.405l.315-.18c.1-.05.185-.075.255-.075.11 0 .2.045.27.135.08.09.12.205.12.345 0 .13-.035.25-.105.36-.07.1-.2.215-.39.345-.28.19-.62.345-1.02.465-.39.11-.785.165-1.185.165zm7.148-7.59c1.83 0 2.745.96 2.745 2.88v4.08c0 .18-.055.325-.165.435-.1.11-.24.165-.42.165s-.325-.055-.435-.165c-.11-.11-.165-.255-.165-.435v-.72c-.19.43-.48.765-.87 1.005-.39.23-.84.345-1.35.345-.47 0-.905-.095-1.305-.285-.39-.19-.7-.455-.93-.795-.23-.34-.345-.715-.345-1.125 0-.55.14-.975.42-1.275.28-.31.74-.53 1.38-.66.64-.14 1.53-.21 2.67-.21h.33v-.495c0-.6-.125-1.04-.375-1.32-.24-.28-.635-.42-1.185-.42-.68 0-1.37.185-2.07.555-.27.17-.46.255-.57.255-.12 0-.22-.045-.3-.135-.08-.09-.12-.205-.12-.345 0-.14.04-.26.12-.36.09-.11.23-.22.42-.33.35-.2.745-.355 1.185-.465.45-.12.895-.18 1.335-.18zm-.495 6.63c.6 0 1.09-.2 1.47-.6.39-.41.585-.935.585-1.575v-.435h-.27c-.88 0-1.55.04-2.01.12-.46.07-.79.195-.99.375-.19.17-.285.425-.285.765 0 .39.14.715.42.975.29.25.65.375 1.08.375zm8.839-.03c.35.03.525.19.525.48 0 .17-.065.3-.195.39-.12.08-.305.11-.555.09l-.405-.03c-.8-.06-1.39-.3-1.77-.72-.38-.42-.57-1.055-.57-1.905v-3.765h-1.005c-.17 0-.305-.04-.405-.12-.09-.09-.135-.205-.135-.345 0-.15.045-.27.135-.36.1-.09.235-.135.405-.135h1.005v-1.695c0-.19.055-.335.165-.435.11-.11.26-.165.45-.165.18 0 .325.055.435.165.11.1.165.245.165.435v1.695h1.665c.16 0 .285.045.375.135.1.09.15.21.15.36 0 .14-.05.255-.15.345-.09.08-.215.12-.375.12h-1.665v3.825c0 .55.11.95.33 1.2.23.24.57.375 1.02.405l.405.03zm2.338.96c-.18 0-.33-.05-.45-.15-.11-.11-.165-.26-.165-.45v-6.33c0-.19.055-.335.165-.435.12-.11.27-.165.45-.165s.325.055.435.165c.11.1.165.245.165.435v6.33c0 .2-.055.35-.165.45-.11.1-.255.15-.435.15zm0-9.105c-.24 0-.435-.07-.585-.21-.15-.14-.225-.325-.225-.555 0-.22.075-.4.225-.54.15-.14.345-.21.585-.21s.435.07.585.21c.15.14.225.32.225.54 0 .23-.075.415-.225.555-.15.14-.345.21-.585.21zm5.901 9.135c-.69 0-1.3-.155-1.83-.465-.52-.31-.925-.75-1.215-1.32-.28-.58-.42-1.25-.42-2.01 0-.76.14-1.425.42-1.995.29-.58.695-1.025 1.215-1.335.53-.31 1.14-.465 1.83-.465.69 0 1.3.155 1.83.465.53.31.935.755 1.215 1.335.29.57.435 1.235.435 1.995s-.145 1.43-.435 2.01c-.28.57-.685 1.01-1.215 1.32-.53.31-1.14.465-1.83.465zm0-1.005c.72 0 1.27-.235 1.65-.705.39-.48.585-1.175.585-2.085 0-.89-.195-1.575-.585-2.055-.39-.49-.94-.735-1.65-.735s-1.26.245-1.65.735c-.39.48-.585 1.165-.585 2.055 0 .9.19 1.59.57 2.07.39.48.945.72 1.665.72zm8.965-6.585c1.75 0 2.625.965 2.625 2.895v4.065c0 .19-.055.34-.165.45-.1.1-.245.15-.435.15s-.34-.05-.45-.15c-.11-.11-.165-.26-.165-.45v-3.99c0-.68-.135-1.175-.405-1.485-.26-.31-.68-.465-1.26-.465-.67 0-1.205.205-1.605.615-.4.41-.6.965-.6 1.665v3.66c0 .19-.055.34-.165.45-.1.1-.245.15-.435.15s-.34-.05-.45-.15c-.11-.11-.165-.26-.165-.45v-6.33c0-.18.055-.325.165-.435.11-.11.26-.165.45-.165.18 0 .32.055.42.165.11.11.165.25.165.42v.765c.24-.45.575-.79 1.005-1.02.43-.24.92-.36 1.47-.36zM264.68 325.12c-.75 0-1.47-.11-2.16-.33-.68-.23-1.225-.535-1.635-.915-.15-.14-.225-.315-.225-.525 0-.14.04-.26.12-.36.08-.11.175-.165.285-.165.13 0 .27.055.42.165.93.72 1.99 1.08 3.18 1.08.86 0 1.52-.165 1.98-.495.46-.33.69-.8.69-1.41 0-.35-.11-.63-.33-.84-.22-.22-.51-.395-.87-.525s-.845-.265-1.455-.405c-.82-.19-1.495-.39-2.025-.6-.52-.21-.945-.51-1.275-.9-.32-.39-.48-.9-.48-1.53 0-.6.16-1.13.48-1.59.33-.47.785-.83 1.365-1.08.59-.26 1.26-.39 2.01-.39.7 0 1.35.11 1.95.33.61.21 1.12.515 1.53.915.16.16.24.335.24.525 0 .14-.04.265-.12.375-.08.1-.175.15-.285.15-.11 0-.255-.055-.435-.165-.49-.4-.945-.68-1.365-.84-.42-.16-.925-.24-1.515-.24-.83 0-1.475.175-1.935.525-.46.34-.69.82-.69 1.44 0 .53.2.93.6 1.2.41.26 1.035.49 1.875.69.91.22 1.625.425 2.145.615.52.18.95.455 1.29.825.35.37.525.865.525 1.485 0 .59-.165 1.11-.495 1.56-.32.45-.775.8-1.365 1.05s-1.265.375-2.025.375zm9.034-1.005c.35.03.525.19.525.48 0 .17-.065.3-.195.39-.12.08-.305.11-.555.09l-.405-.03c-.8-.06-1.39-.3-1.77-.72-.38-.42-.57-1.055-.57-1.905v-3.765h-1.005c-.17 0-.305-.04-.405-.12-.09-.09-.135-.205-.135-.345 0-.15.045-.27.135-.36.1-.09.235-.135.405-.135h1.005v-1.695c0-.19.055-.335.165-.435.11-.11.26-.165.45-.165.18 0 .325.055.435.165.11.1.165.245.165.435v1.695h1.665c.16 0 .285.045.375.135.1.09.15.21.15.36 0 .14-.05.255-.15.345-.09.08-.215.12-.375.12h-1.665v3.825c0 .55.11.95.33 1.2.23.24.57.375 1.02.405l.405.03zm4.708-6.6c1.83 0 2.745.96 2.745 2.88v4.08c0 .18-.055.325-.165.435-.1.11-.24.165-.42.165s-.325-.055-.435-.165c-.11-.11-.165-.255-.165-.435v-.72c-.19.43-.48.765-.87 1.005-.39.23-.84.345-1.35.345-.47 0-.905-.095-1.305-.285-.39-.19-.7-.455-.93-.795-.23-.34-.345-.715-.345-1.125 0-.55.14-.975.42-1.275.28-.31.74-.53 1.38-.66.64-.14 1.53-.21 2.67-.21h.33v-.495c0-.6-.125-1.04-.375-1.32-.24-.28-.635-.42-1.185-.42-.68 0-1.37.185-2.07.555-.27.17-.46.255-.57.255-.12 0-.22-.045-.3-.135-.08-.09-.12-.205-.12-.345 0-.14.04-.26.12-.36.09-.11.23-.22.42-.33.35-.2.745-.355 1.185-.465.45-.12.895-.18 1.335-.18zm-.495 6.63c.6 0 1.09-.2 1.47-.6.39-.41.585-.935.585-1.575v-.435h-.27c-.88 0-1.55.04-2.01.12-.46.07-.79.195-.99.375-.19.17-.285.425-.285.765 0 .39.14.715.42.975.29.25.65.375 1.08.375zm8.839-.03c.35.03.525.19.525.48 0 .17-.065.3-.195.39-.12.08-.305.11-.555.09l-.405-.03c-.8-.06-1.39-.3-1.77-.72-.38-.42-.57-1.055-.57-1.905v-3.765h-1.005c-.17 0-.305-.04-.405-.12-.09-.09-.135-.205-.135-.345 0-.15.045-.27.135-.36.1-.09.235-.135.405-.135h1.005v-1.695c0-.19.055-.335.165-.435.11-.11.26-.165.45-.165.18 0 .325.055.435.165.11.1.165.245.165.435v1.695h1.665c.16 0 .285.045.375.135.1.09.15.21.15.36 0 .14-.05.255-.15.345-.09.08-.215.12-.375.12h-1.665v3.825c0 .55.11.95.33 1.2.23.24.57.375 1.02.405l.405.03zm7.272-6.57c.19 0 .335.055.435.165.11.11.165.255.165.435v6.345c0 .17-.055.31-.165.42-.1.11-.245.165-.435.165-.18 0-.325-.05-.435-.15-.1-.11-.15-.25-.15-.42v-.75c-.23.44-.555.775-.975 1.005-.41.23-.875.345-1.395.345-.87 0-1.525-.24-1.965-.72-.44-.49-.66-1.21-.66-2.16v-4.08c0-.18.055-.325.165-.435.11-.11.26-.165.45-.165s.335.055.435.165c.11.11.165.255.165.435v4.05c0 .65.13 1.13.39 1.44.26.3.67.45 1.23.45.64 0 1.155-.205 1.545-.615.39-.42.585-.97.585-1.65v-3.675c0-.18.055-.325.165-.435.11-.11.26-.165.45-.165zm5.318 7.56c-.46 0-.9-.055-1.32-.165-.41-.11-.775-.265-1.095-.465-.18-.12-.31-.23-.39-.33-.07-.11-.105-.24-.105-.39 0-.13.035-.235.105-.315.08-.09.18-.135.3-.135s.295.075.525.225c.3.18.595.325.885.435.3.1.67.15 1.11.15.54 0 .96-.095 1.26-.285.3-.19.45-.465.45-.825 0-.22-.055-.395-.165-.525-.11-.14-.3-.26-.57-.36-.27-.11-.665-.22-1.185-.33-.88-.19-1.51-.445-1.89-.765-.38-.32-.57-.755-.57-1.305 0-.43.12-.81.36-1.14.24-.33.57-.59.99-.78.43-.19.915-.285 1.455-.285.39 0 .765.055 1.125.165.37.1.695.245.975.435.34.24.51.49.51.75 0 .13-.04.24-.12.33-.08.09-.175.135-.285.135-.12 0-.3-.085-.54-.255-.28-.18-.545-.32-.795-.42-.25-.1-.56-.15-.93-.15-.47 0-.85.105-1.14.315-.28.21-.42.49-.42.84 0 .22.05.4.15.54.11.13.285.25.525.36.25.1.605.2 1.065.3.68.15 1.205.315 1.575.495.38.18.65.4.81.66.16.26.24.59.24.99 0 .63-.265 1.14-.795 1.53-.53.38-1.23.57-2.1.57zM264.68 355.12c-.75 0-1.47-.11-2.16-.33-.68-.23-1.225-.535-1.635-.915-.15-.14-.225-.315-.225-.525 0-.14.04-.26.12-.36.08-.11.175-.165.285-.165.13 0 .27.055.42.165.93.72 1.99 1.08 3.18 1.08.86 0 1.52-.165 1.98-.495.46-.33.69-.8.69-1.41 0-.35-.11-.63-.33-.84-.22-.22-.51-.395-.87-.525s-.845-.265-1.455-.405c-.82-.19-1.495-.39-2.025-.6-.52-.21-.945-.51-1.275-.9-.32-.39-.48-.9-.48-1.53 0-.6.16-1.13.48-1.59.33-.47.785-.83 1.365-1.08.59-.26 1.26-.39 2.01-.39.7 0 1.35.11 1.95.33.61.21 1.12.515 1.53.915.16.16.24.335.24.525 0 .14-.04.265-.12.375-.08.1-.175.15-.285.15-.11 0-.255-.055-.435-.165-.49-.4-.945-.68-1.365-.84-.42-.16-.925-.24-1.515-.24-.83 0-1.475.175-1.935.525-.46.34-.69.82-.69 1.44 0 .53.2.93.6 1.2.41.26 1.035.49 1.875.69.91.22 1.625.425 2.145.615.52.18.95.455 1.29.825.35.37.525.865.525 1.485 0 .59-.165 1.11-.495 1.56-.32.45-.775.8-1.365 1.05s-1.265.375-2.025.375zm9.034-1.005c.35.03.525.19.525.48 0 .17-.065.3-.195.39-.12.08-.305.11-.555.09l-.405-.03c-.8-.06-1.39-.3-1.77-.72-.38-.42-.57-1.055-.57-1.905v-3.765h-1.005c-.17 0-.305-.04-.405-.12-.09-.09-.135-.205-.135-.345 0-.15.045-.27.135-.36.1-.09.235-.135.405-.135h1.005v-1.695c0-.19.055-.335.165-.435.11-.11.26-.165.45-.165.18 0 .325.055.435.165.11.1.165.245.165.435v1.695h1.665c.16 0 .285.045.375.135.1.09.15.21.15.36 0 .14-.05.255-.15.345-.09.08-.215.12-.375.12h-1.665v3.825c0 .55.11.95.33 1.2.23.24.57.375 1.02.405l.405.03zm4.708-6.6c1.83 0 2.745.96 2.745 2.88v4.08c0 .18-.055.325-.165.435-.1.11-.24.165-.42.165s-.325-.055-.435-.165c-.11-.11-.165-.255-.165-.435v-.72c-.19.43-.48.765-.87 1.005-.39.23-.84.345-1.35.345-.47 0-.905-.095-1.305-.285-.39-.19-.7-.455-.93-.795-.23-.34-.345-.715-.345-1.125 0-.55.14-.975.42-1.275.28-.31.74-.53 1.38-.66.64-.14 1.53-.21 2.67-.21h.33v-.495c0-.6-.125-1.04-.375-1.32-.24-.28-.635-.42-1.185-.42-.68 0-1.37.185-2.07.555-.27.17-.46.255-.57.255-.12 0-.22-.045-.3-.135-.08-.09-.12-.205-.12-.345 0-.14.04-.26.12-.36.09-.11.23-.22.42-.33.35-.2.745-.355 1.185-.465.45-.12.895-.18 1.335-.18zm-.495 6.63c.6 0 1.09-.2 1.47-.6.39-.41.585-.935.585-1.575v-.435h-.27c-.88 0-1.55.04-2.01.12-.46.07-.79.195-.99.375-.19.17-.285.425-.285.765 0 .39.14.715.42.975.29.25.65.375 1.08.375zm9.079-6.6c.42-.03.63.14.63.51 0 .16-.045.29-.135.39-.09.09-.245.145-.465.165l-.45.045c-.67.06-1.17.3-1.5.72-.32.41-.48.895-.48 1.455v3.645c0 .2-.055.35-.165.45-.11.1-.255.15-.435.15s-.33-.05-.45-.15c-.11-.11-.165-.26-.165-.45v-6.33c0-.19.06-.335.18-.435.12-.11.265-.165.435-.165.16 0 .295.055.405.165.11.1.165.24.165.42v.84c.21-.44.505-.775.885-1.005.39-.23.835-.365 1.335-.405l.21-.015zm5.634 6.57c.35.03.525.19.525.48 0 .17-.065.3-.195.39-.12.08-.305.11-.555.09l-.405-.03c-.8-.06-1.39-.3-1.77-.72-.38-.42-.57-1.055-.57-1.905v-3.765h-1.005c-.17 0-.305-.04-.405-.12-.09-.09-.135-.205-.135-.345 0-.15.045-.27.135-.36.1-.09.235-.135.405-.135h1.005v-1.695c0-.19.055-.335.165-.435.11-.11.26-.165.45-.165.18 0 .325.055.435.165.11.1.165.245.165.435v1.695h1.665c.16 0 .285.045.375.135.1.09.15.21.15.36 0 .14-.05.255-.15.345-.09.08-.215.12-.375.12h-1.665v3.825c0 .55.11.95.33 1.2.23.24.57.375 1.02.405l.405.03zm8.964 0c.35.03.525.19.525.48 0 .17-.065.3-.195.39-.12.08-.305.11-.555.09l-.405-.03c-.8-.06-1.39-.3-1.77-.72-.38-.42-.57-1.055-.57-1.905v-3.765h-1.005c-.17 0-.305-.04-.405-.12-.09-.09-.135-.205-.135-.345 0-.15.045-.27.135-.36.1-.09.235-.135.405-.135h1.005v-1.695c0-.19.055-.335.165-.435.11-.11.26-.165.45-.165.18 0 .325.055.435.165.11.1.165.245.165.435v1.695h1.665c.16 0 .285.045.375.135.1.09.15.21.15.36 0 .14-.05.255-.15.345-.09.08-.215.12-.375.12h-1.665v3.825c0 .55.11.95.33 1.2.23.24.57.375 1.02.405l.405.03zm2.338.96c-.18 0-.33-.05-.45-.15-.11-.11-.165-.26-.165-.45v-6.33c0-.19.055-.335.165-.435.12-.11.27-.165.45-.165s.325.055.435.165c.11.1.165.245.165.435v6.33c0 .2-.055.35-.165.45-.11.1-.255.15-.435.15zm0-9.105c-.24 0-.435-.07-.585-.21-.15-.14-.225-.325-.225-.555 0-.22.075-.4.225-.54.15-.14.345-.21.585-.21s.435.07.585.21c.15.14.225.32.225.54 0 .23-.075.415-.225.555-.15.14-.345.21-.585.21zm11.001 1.545c1.62 0 2.43.965 2.43 2.895v4.065c0 .19-.055.34-.165.45-.11.1-.255.15-.435.15s-.33-.05-.45-.15c-.11-.11-.165-.26-.165-.45v-4.035c0-.67-.12-1.155-.36-1.455-.24-.3-.615-.45-1.125-.45-.61 0-1.09.205-1.44.615-.35.41-.525.965-.525 1.665v3.66c0 .19-.06.34-.18.45-.11.1-.255.15-.435.15s-.325-.05-.435-.15c-.11-.11-.165-.26-.165-.45v-4.035c0-.67-.12-1.155-.36-1.455-.24-.3-.62-.45-1.14-.45-.6 0-1.08.205-1.44.615-.35.41-.525.965-.525 1.665v3.66c0 .19-.055.34-.165.45-.11.1-.255.15-.435.15s-.33-.05-.45-.15c-.11-.11-.165-.26-.165-.45v-6.33c0-.18.055-.325.165-.435.12-.11.27-.165.45-.165.17 0 .31.055.42.165.11.1.165.24.165.42v.72c.22-.43.525-.76.915-.99.39-.23.84-.345 1.35-.345 1.14 0 1.885.48 2.235 1.44.21-.44.53-.79.96-1.05.43-.26.92-.39 1.47-.39zm10.299 5.79c.11 0 .205.045.285.135.08.09.12.205.12.345 0 .25-.175.48-.525.69-.36.21-.74.37-1.14.48-.4.1-.79.15-1.17.15-1.13 0-2.025-.335-2.685-1.005-.65-.67-.975-1.595-.975-2.775 0-.75.145-1.41.435-1.98.29-.58.695-1.03 1.215-1.35.53-.32 1.13-.48 1.8-.48.95 0 1.705.31 2.265.93.56.62.84 1.46.84 2.52 0 .2-.04.345-.12.435-.08.09-.21.135-.39.135h-4.83c.09 1.72.905 2.58 2.445 2.58.39 0 .725-.05 1.005-.15.28-.11.58-.255.9-.435.26-.15.435-.225.525-.225zm-2.625-4.845c-.64 0-1.155.2-1.545.6-.38.4-.605.965-.675 1.695h4.245c-.02-.74-.205-1.305-.555-1.695-.35-.4-.84-.6-1.47-.6zM261.935 385c-.19 0-.345-.055-.465-.165-.11-.11-.165-.255-.165-.435v-9.375c0-.18.055-.325.165-.435.12-.11.275-.165.465-.165h5.61c.18 0 .32.045.42.135.1.09.15.215.15.375s-.05.285-.15.375c-.1.09-.24.135-.42.135h-5.025v3.675h4.725c.18 0 .32.045.42.135.1.09.15.215.15.375s-.05.285-.15.375c-.1.09-.24.135-.42.135h-4.725v3.84h5.025c.18 0 .32.045.42.135.1.08.15.205.15.375 0 .16-.05.285-.15.375-.1.09-.24.135-.42.135h-5.61zm11.595-7.485c1.75 0 2.625.965 2.625 2.895v4.065c0 .19-.055.34-.165.45-.1.1-.245.15-.435.15s-.34-.05-.45-.15c-.11-.11-.165-.26-.165-.45v-3.99c0-.68-.135-1.175-.405-1.485-.26-.31-.68-.465-1.26-.465-.67 0-1.205.205-1.605.615-.4.41-.6.965-.6 1.665v3.66c0 .19-.055.34-.165.45-.1.1-.245.15-.435.15s-.34-.05-.45-.15c-.11-.11-.165-.26-.165-.45v-6.33c0-.18.055-.325.165-.435.11-.11.26-.165.45-.165.18 0 .32.055.42.165.11.11.165.25.165.42v.765c.24-.45.575-.79 1.005-1.02.43-.24.92-.36 1.47-.36zm10.716-3.165c.19 0 .34.055.45.165.11.11.165.25.165.42v9.54c0 .18-.055.325-.165.435-.11.11-.26.165-.45.165s-.34-.055-.45-.165c-.1-.11-.15-.255-.15-.435v-.81c-.22.46-.545.815-.975 1.065-.42.25-.915.375-1.485.375-.64 0-1.205-.16-1.695-.48-.49-.32-.87-.765-1.14-1.335-.27-.58-.405-1.25-.405-2.01 0-.75.135-1.41.405-1.98.27-.57.65-1.01 1.14-1.32.49-.31 1.055-.465 1.695-.465.57 0 1.065.125 1.485.375.43.25.755.605.975 1.065v-4.02c0-.18.05-.32.15-.42.11-.11.26-.165.45-.165zm-2.82 9.75c.71 0 1.255-.24 1.635-.72.39-.49.585-1.18.585-2.07 0-.89-.195-1.575-.585-2.055-.38-.48-.925-.72-1.635-.72s-1.265.24-1.665.72c-.39.48-.585 1.155-.585 2.025 0 .89.195 1.585.585 2.085.4.49.955.735 1.665.735zm12.928.015c.35.03.525.19.525.48 0 .17-.065.3-.195.39-.12.08-.305.11-.555.09l-.405-.03c-.8-.06-1.39-.3-1.77-.72-.38-.42-.57-1.055-.57-1.905v-3.765h-1.005c-.17 0-.305-.04-.405-.12-.09-.09-.135-.205-.135-.345 0-.15.045-.27.135-.36.1-.09.235-.135.405-.135h1.005v-1.695c0-.19.055-.335.165-.435.11-.11.26-.165.45-.165.18 0 .325.055.435.165.11.1.165.245.165.435v1.695h1.665c.16 0 .285.045.375.135.1.09.15.21.15.36 0 .14-.05.255-.15.345-.09.08-.215.12-.375.12h-1.665v3.825c0 .55.11.95.33 1.2.23.24.57.375 1.02.405l.405.03zm2.337.96c-.18 0-.33-.05-.45-.15-.11-.11-.165-.26-.165-.45v-6.33c0-.19.055-.335.165-.435.12-.11.27-.165.45-.165s.325.055.435.165c.11.1.165.245.165.435v6.33c0 .2-.055.35-.165.45-.11.1-.255.15-.435.15zm0-9.105c-.24 0-.435-.07-.585-.21-.15-.14-.225-.325-.225-.555 0-.22.075-.4.225-.54.15-.14.345-.21.585-.21s.435.07.585.21c.15.14.225.32.225.54 0 .23-.075.415-.225.555-.15.14-.345.21-.585.21zm11.002 1.545c1.62 0 2.43.965 2.43 2.895v4.065c0 .19-.055.34-.165.45-.11.1-.255.15-.435.15s-.33-.05-.45-.15c-.11-.11-.165-.26-.165-.45v-4.035c0-.67-.12-1.155-.36-1.455-.24-.3-.615-.45-1.125-.45-.61 0-1.09.205-1.44.615-.35.41-.525.965-.525 1.665v3.66c0 .19-.06.34-.18.45-.11.1-.255.15-.435.15s-.325-.05-.435-.15c-.11-.11-.165-.26-.165-.45v-4.035c0-.67-.12-1.155-.36-1.455-.24-.3-.62-.45-1.14-.45-.6 0-1.08.205-1.44.615-.35.41-.525.965-.525 1.665v3.66c0 .19-.055.34-.165.45-.11.1-.255.15-.435.15s-.33-.05-.45-.15c-.11-.11-.165-.26-.165-.45v-6.33c0-.18.055-.325.165-.435.12-.11.27-.165.45-.165.17 0 .31.055.42.165.11.1.165.24.165.42v.72c.22-.43.525-.76.915-.99.39-.23.84-.345 1.35-.345 1.14 0 1.885.48 2.235 1.44.21-.44.53-.79.96-1.05.43-.26.92-.39 1.47-.39zm10.298 5.79c.11 0 .205.045.285.135.08.09.12.205.12.345 0 .25-.175.48-.525.69-.36.21-.74.37-1.14.48-.4.1-.79.15-1.17.15-1.13 0-2.025-.335-2.685-1.005-.65-.67-.975-1.595-.975-2.775 0-.75.145-1.41.435-1.98.29-.58.695-1.03 1.215-1.35.53-.32 1.13-.48 1.8-.48.95 0 1.705.31 2.265.93.56.62.84 1.46.84 2.52 0 .2-.04.345-.12.435-.08.09-.21.135-.39.135h-4.83c.09 1.72.905 2.58 2.445 2.58.39 0 .725-.05 1.005-.15.28-.11.58-.255.9-.435.26-.15.435-.225.525-.225zm-2.625-4.845c-.64 0-1.155.2-1.545.6-.38.4-.605.965-.675 1.695h4.245c-.02-.74-.205-1.305-.555-1.695-.35-.4-.84-.6-1.47-.6zM261.935 415c-.19 0-.345-.055-.465-.165-.11-.11-.165-.255-.165-.435v-9.375c0-.18.055-.325.165-.435.12-.11.275-.165.465-.165h2.925c1.69 0 2.995.46 3.915 1.38.93.91 1.395 2.21 1.395 3.9s-.465 2.995-1.395 3.915c-.93.92-2.235 1.38-3.915 1.38h-2.925zm2.85-1.05c2.74 0 4.11-1.415 4.11-4.245 0-2.82-1.37-4.23-4.11-4.23h-2.25v8.475h2.25zm13.084-.645c.11 0 .205.045.285.135.08.09.12.205.12.345 0 .25-.175.48-.525.69-.36.21-.74.37-1.14.48-.4.1-.79.15-1.17.15-1.13 0-2.025-.335-2.685-1.005-.65-.67-.975-1.595-.975-2.775 0-.75.145-1.41.435-1.98.29-.58.695-1.03 1.215-1.35.53-.32 1.13-.48 1.8-.48.95 0 1.705.31 2.265.93.56.62.84 1.46.84 2.52 0 .2-.04.345-.12.435-.08.09-.21.135-.39.135h-4.83c.09 1.72.905 2.58 2.445 2.58.39 0 .725-.05 1.005-.15.28-.11.58-.255.9-.435.26-.15.435-.225.525-.225zm-2.625-4.845c-.64 0-1.155.2-1.545.6-.38.4-.605.965-.675 1.695h4.245c-.02-.74-.205-1.305-.555-1.695-.35-.4-.84-.6-1.47-.6zm7.34 6.645c-.46 0-.9-.055-1.32-.165-.41-.11-.775-.265-1.095-.465-.18-.12-.31-.23-.39-.33-.07-.11-.105-.24-.105-.39 0-.13.035-.235.105-.315.08-.09.18-.135.3-.135s.295.075.525.225c.3.18.595.325.885.435.3.1.67.15 1.11.15.54 0 .96-.095 1.26-.285.3-.19.45-.465.45-.825 0-.22-.055-.395-.165-.525-.11-.14-.3-.26-.57-.36-.27-.11-.665-.22-1.185-.33-.88-.19-1.51-.445-1.89-.765-.38-.32-.57-.755-.57-1.305 0-.43.12-.81.36-1.14.24-.33.57-.59.99-.78.43-.19.915-.285 1.455-.285.39 0 .765.055 1.125.165.37.1.695.245.975.435.34.24.51.49.51.75 0 .13-.04.24-.12.33-.08.09-.175.135-.285.135-.12 0-.3-.085-.54-.255-.28-.18-.545-.32-.795-.42-.25-.1-.56-.15-.93-.15-.47 0-.85.105-1.14.315-.28.21-.42.49-.42.84 0 .22.05.4.15.54.11.13.285.25.525.36.25.1.605.2 1.065.3.68.15 1.205.315 1.575.495.38.18.65.4.81.66.16.26.24.59.24.99 0 .63-.265 1.14-.795 1.53-.53.38-1.23.57-2.1.57zm7.762 0c-.68 0-1.285-.155-1.815-.465-.52-.31-.925-.75-1.215-1.32-.28-.57-.42-1.23-.42-1.98s.145-1.415.435-1.995c.3-.58.715-1.03 1.245-1.35.53-.32 1.14-.48 1.83-.48.38 0 .755.055 1.125.165.38.1.71.25.99.45.18.12.305.24.375.36.08.11.12.235.12.375s-.04.255-.12.345c-.07.09-.165.135-.285.135-.07 0-.145-.02-.225-.06l-.21-.12-.105-.075c-.26-.17-.51-.305-.75-.405-.23-.1-.515-.15-.855-.15-.73 0-1.3.25-1.71.75-.4.49-.6 1.175-.6 2.055 0 .88.2 1.56.6 2.04.41.48.98.72 1.71.72.34 0 .63-.05.87-.15.25-.1.5-.235.75-.405l.315-.18c.1-.05.185-.075.255-.075.11 0 .2.045.27.135.08.09.12.205.12.345 0 .13-.035.25-.105.36-.07.1-.2.215-.39.345-.28.19-.62.345-1.02.465-.39.11-.785.165-1.185.165zm7.778-7.56c.42-.03.63.14.63.51 0 .16-.045.29-.135.39-.09.09-.245.145-.465.165l-.45.045c-.67.06-1.17.3-1.5.72-.32.41-.48.895-.48 1.455v3.645c0 .2-.055.35-.165.45-.11.1-.255.15-.435.15s-.33-.05-.45-.15c-.11-.11-.165-.26-.165-.45v-6.33c0-.19.06-.335.18-.435.12-.11.265-.165.435-.165.16 0 .295.055.405.165.11.1.165.24.165.42v.84c.21-.44.505-.775.885-1.005.39-.23.835-.365 1.335-.405l.21-.015zm2.288 7.53c-.18 0-.33-.05-.45-.15-.11-.11-.165-.26-.165-.45v-6.33c0-.19.055-.335.165-.435.12-.11.27-.165.45-.165s.325.055.435.165c.11.1.165.245.165.435v6.33c0 .2-.055.35-.165.45-.11.1-.255.15-.435.15zm0-9.105c-.24 0-.435-.07-.585-.21-.15-.14-.225-.325-.225-.555 0-.22.075-.4.225-.54.15-.14.345-.21.585-.21s.435.07.585.21c.15.14.225.32.225.54 0 .23-.075.415-.225.555-.15.14-.345.21-.585.21zm6.546 1.545c.64 0 1.205.16 1.695.48.49.32.87.77 1.14 1.35.27.57.405 1.235.405 1.995s-.135 1.425-.405 1.995c-.27.56-.65.995-1.14 1.305-.48.31-1.045.465-1.695.465-.57 0-1.07-.125-1.5-.375-.42-.25-.74-.605-.96-1.065v3.525c0 .18-.055.32-.165.42-.1.11-.245.165-.435.165s-.34-.055-.45-.165c-.11-.11-.165-.25-.165-.42v-9.045c0-.18.055-.325.165-.435.11-.11.26-.165.45-.165s.335.055.435.165c.11.11.165.255.165.435v.81c.22-.46.54-.815.96-1.065.43-.25.93-.375 1.5-.375zm-.24 6.585c.71 0 1.26-.24 1.65-.72.39-.48.585-1.16.585-2.04 0-.88-.195-1.565-.585-2.055-.39-.5-.94-.75-1.65-.75s-1.26.24-1.65.72c-.38.48-.57 1.165-.57 2.055 0 .89.19 1.58.57 2.07.39.48.94.72 1.65.72zm8.656.015c.35.03.525.19.525.48 0 .17-.065.3-.195.39-.12.08-.305.11-.555.09l-.405-.03c-.8-.06-1.39-.3-1.77-.72-.38-.42-.57-1.055-.57-1.905v-3.765h-1.005c-.17 0-.305-.04-.405-.12-.09-.09-.135-.205-.135-.345 0-.15.045-.27.135-.36.1-.09.235-.135.405-.135h1.005v-1.695c0-.19.055-.335.165-.435.11-.11.26-.165.45-.165.18 0 .325.055.435.165.11.1.165.245.165.435v1.695h1.665c.16 0 .285.045.375.135.1.09.15.21.15.36 0 .14-.05.255-.15.345-.09.08-.215.12-.375.12h-1.665v3.825c0 .55.11.95.33 1.2.23.24.57.375 1.02.405l.405.03zm2.338.96c-.18 0-.33-.05-.45-.15-.11-.11-.165-.26-.165-.45v-6.33c0-.19.055-.335.165-.435.12-.11.27-.165.45-.165s.325.055.435.165c.11.1.165.245.165.435v6.33c0 .2-.055.35-.165.45-.11.1-.255.15-.435.15zm0-9.105c-.24 0-.435-.07-.585-.21-.15-.14-.225-.325-.225-.555 0-.22.075-.4.225-.54.15-.14.345-.21.585-.21s.435.07.585.21c.15.14.225.32.225.54 0 .23-.075.415-.225.555-.15.14-.345.21-.585.21zm5.901 9.135c-.69 0-1.3-.155-1.83-.465-.52-.31-.925-.75-1.215-1.32-.28-.58-.42-1.25-.42-2.01 0-.76.14-1.425.42-1.995.29-.58.695-1.025 1.215-1.335.53-.31 1.14-.465 1.83-.465.69 0 1.3.155 1.83.465.53.31.935.755 1.215 1.335.29.57.435 1.235.435 1.995s-.145 1.43-.435 2.01c-.28.57-.685 1.01-1.215 1.32-.53.31-1.14.465-1.83.465zm0-1.005c.72 0 1.27-.235 1.65-.705.39-.48.585-1.175.585-2.085 0-.89-.195-1.575-.585-2.055-.39-.49-.94-.735-1.65-.735s-1.26.245-1.65.735c-.39.48-.585 1.165-.585 2.055 0 .9.19 1.59.57 2.07.39.48.945.72 1.665.72zm8.965-6.585c1.75 0 2.625.965 2.625 2.895v4.065c0 .19-.055.34-.165.45-.1.1-.245.15-.435.15s-.34-.05-.45-.15c-.11-.11-.165-.26-.165-.45v-3.99c0-.68-.135-1.175-.405-1.485-.26-.31-.68-.465-1.26-.465-.67 0-1.205.205-1.605.615-.4.41-.6.965-.6 1.665v3.66c0 .19-.055.34-.165.45-.1.1-.245.15-.435.15s-.34-.05-.45-.15c-.11-.11-.165-.26-.165-.45v-6.33c0-.18.055-.325.165-.435.11-.11.26-.165.45-.165.18 0 .32.055.42.165.11.11.165.25.165.42v.765c.24-.45.575-.79 1.005-1.02.43-.24.92-.36 1.47-.36zM269.375 444.235c.07.11.105.225.105.345 0 .15-.06.275-.18.375-.11.09-.24.135-.39.135-.23 0-.41-.1-.54-.3l-2.01-3.18c-.26-.41-.53-.69-.81-.84-.28-.16-.66-.24-1.14-.24h-1.89v3.915c0 .19-.055.345-.165.465-.11.11-.255.165-.435.165-.19 0-.34-.055-.45-.165-.11-.12-.165-.275-.165-.465v-9.42c0-.18.055-.325.165-.435.12-.11.275-.165.465-.165h3.72c1.15 0 2.025.255 2.625.765.61.51.915 1.26.915 2.25 0 .84-.245 1.515-.735 2.025-.48.51-1.17.82-2.07.93.25.08.475.21.675.39.2.18.4.43.6.75l1.71 2.7zm-3.825-4.725c.82 0 1.43-.17 1.83-.51.41-.34.615-.855.615-1.545 0-.68-.2-1.185-.6-1.515-.4-.33-1.015-.495-1.845-.495h-3.03v4.065h3.03zm11.513 3.795c.11 0 .205.045.285.135.08.09.12.205.12.345 0 .25-.175.48-.525.69-.36.21-.74.37-1.14.48-.4.1-.79.15-1.17.15-1.13 0-2.025-.335-2.685-1.005-.65-.67-.975-1.595-.975-2.775 0-.75.145-1.41.435-1.98.29-.58.695-1.03 1.215-1.35.53-.32 1.13-.48 1.8-.48.95 0 1.705.31 2.265.93.56.62.84 1.46.84 2.52 0 .2-.04.345-.12.435-.08.09-.21.135-.39.135h-4.83c.09 1.72.905 2.58 2.445 2.58.39 0 .725-.05 1.005-.15.28-.11.58-.255.9-.435.26-.15.435-.225.525-.225zm-2.625-4.845c-.64 0-1.155.2-1.545.6-.38.4-.605.965-.675 1.695h4.245c-.02-.74-.205-1.305-.555-1.695-.35-.4-.84-.6-1.47-.6zm7.895 6.645c-.68 0-1.285-.155-1.815-.465-.52-.31-.925-.75-1.215-1.32-.28-.57-.42-1.23-.42-1.98s.145-1.415.435-1.995c.3-.58.715-1.03 1.245-1.35.53-.32 1.14-.48 1.83-.48.38 0 .755.055 1.125.165.38.1.71.25.99.45.18.12.305.24.375.36.08.11.12.235.12.375s-.04.255-.12.345c-.07.09-.165.135-.285.135-.07 0-.145-.02-.225-.06l-.21-.12-.105-.075c-.26-.17-.51-.305-.75-.405-.23-.1-.515-.15-.855-.15-.73 0-1.3.25-1.71.75-.4.49-.6 1.175-.6 2.055 0 .88.2 1.56.6 2.04.41.48.98.72 1.71.72.34 0 .63-.05.87-.15.25-.1.5-.235.75-.405l.315-.18c.1-.05.185-.075.255-.075.11 0 .2.045.27.135.08.09.12.205.12.345 0 .13-.035.25-.105.36-.07.1-.2.215-.39.345-.28.19-.62.345-1.02.465-.39.11-.785.165-1.185.165zm9.713-7.56c.19 0 .335.055.435.165.11.11.165.255.165.435v6.345c0 .17-.055.31-.165.42-.1.11-.245.165-.435.165-.18 0-.325-.05-.435-.15-.1-.11-.15-.25-.15-.42v-.75c-.23.44-.555.775-.975 1.005-.41.23-.875.345-1.395.345-.87 0-1.525-.24-1.965-.72-.44-.49-.66-1.21-.66-2.16v-4.08c0-.18.055-.325.165-.435.11-.11.26-.165.45-.165s.335.055.435.165c.11.11.165.255.165.435v4.05c0 .65.13 1.13.39 1.44.26.3.67.45 1.23.45.64 0 1.155-.205 1.545-.615.39-.42.585-.97.585-1.65v-3.675c0-.18.055-.325.165-.435.11-.11.26-.165.45-.165zm6.473 0c.42-.03.63.14.63.51 0 .16-.045.29-.135.39-.09.09-.245.145-.465.165l-.45.045c-.67.06-1.17.3-1.5.72-.32.41-.48.895-.48 1.455v3.645c0 .2-.055.35-.165.45-.11.1-.255.15-.435.15s-.33-.05-.45-.15c-.11-.11-.165-.26-.165-.45v-6.33c0-.19.06-.335.18-.435.12-.11.265-.165.435-.165.16 0 .295.055.405.165.11.1.165.24.165.42v.84c.21-.44.505-.775.885-1.005.39-.23.835-.365 1.335-.405l.21-.015zm5.288 0c.42-.03.63.14.63.51 0 .16-.045.29-.135.39-.09.09-.245.145-.465.165l-.45.045c-.67.06-1.17.3-1.5.72-.32.41-.48.895-.48 1.455v3.645c0 .2-.055.35-.165.45-.11.1-.255.15-.435.15s-.33-.05-.45-.15c-.11-.11-.165-.26-.165-.45v-6.33c0-.19.06-.335.18-.435.12-.11.265-.165.435-.165.16 0 .295.055.405.165.11.1.165.24.165.42v.84c.21-.44.505-.775.885-1.005.39-.23.835-.365 1.335-.405l.21-.015zm2.288 7.53c-.18 0-.33-.05-.45-.15-.11-.11-.165-.26-.165-.45v-6.33c0-.19.055-.335.165-.435.12-.11.27-.165.45-.165s.325.055.435.165c.11.1.165.245.165.435v6.33c0 .2-.055.35-.165.45-.11.1-.255.15-.435.15zm0-9.105c-.24 0-.435-.07-.585-.21-.15-.14-.225-.325-.225-.555 0-.22.075-.4.225-.54.15-.14.345-.21.585-.21s.435.07.585.21c.15.14.225.32.225.54 0 .23-.075.415-.225.555-.15.14-.345.21-.585.21zm6.547 1.545c1.75 0 2.625.965 2.625 2.895v4.065c0 .19-.055.34-.165.45-.1.1-.245.15-.435.15s-.34-.05-.45-.15c-.11-.11-.165-.26-.165-.45v-3.99c0-.68-.135-1.175-.405-1.485-.26-.31-.68-.465-1.26-.465-.67 0-1.205.205-1.605.615-.4.41-.6.965-.6 1.665v3.66c0 .19-.055.34-.165.45-.1.1-.245.15-.435.15s-.34-.05-.45-.15c-.11-.11-.165-.26-.165-.45v-6.33c0-.18.055-.325.165-.435.11-.11.26-.165.45-.165.18 0 .32.055.42.165.11.11.165.25.165.42v.765c.24-.45.575-.79 1.005-1.02.43-.24.92-.36 1.47-.36zm10.775.03c.19 0 .34.055.45.165.11.11.165.255.165.435v6.36c0 1.09-.28 1.91-.84 2.46-.56.56-1.39.84-2.49.84-1.07 0-1.96-.21-2.67-.63-.36-.2-.54-.43-.54-.69 0-.14.035-.255.105-.345.08-.09.18-.135.3-.135.1 0 .28.07.54.21.35.18.695.325 1.035.435.34.11.745.165 1.215.165.71 0 1.245-.19 1.605-.57.36-.37.54-.915.54-1.635v-1.29c-.21.47-.535.83-.975 1.08-.43.25-.94.375-1.53.375-.64 0-1.21-.15-1.71-.45-.49-.3-.875-.725-1.155-1.275-.27-.55-.405-1.185-.405-1.905s.135-1.355.405-1.905c.28-.55.665-.975 1.155-1.275.5-.3 1.07-.45 1.71-.45.58 0 1.085.125 1.515.375.43.25.755.605.975 1.065v-.81c0-.18.05-.325.15-.435.11-.11.26-.165.45-.165zm-2.85 6.225c.7 0 1.25-.23 1.65-.69.4-.47.6-1.115.6-1.935 0-.81-.2-1.445-.6-1.905-.39-.47-.94-.705-1.65-.705s-1.27.235-1.68.705c-.4.46-.6 1.095-.6 1.905 0 .82.2 1.465.6 1.935.41.46.97.69 1.68.69zm15.236-.465c.11 0 .205.045.285.135.08.09.12.205.12.345 0 .25-.175.48-.525.69-.36.21-.74.37-1.14.48-.4.1-.79.15-1.17.15-1.13 0-2.025-.335-2.685-1.005-.65-.67-.975-1.595-.975-2.775 0-.75.145-1.41.435-1.98.29-.58.695-1.03 1.215-1.35.53-.32 1.13-.48 1.8-.48.95 0 1.705.31 2.265.93.56.62.84 1.46.84 2.52 0 .2-.04.345-.12.435-.08.09-.21.135-.39.135h-4.83c.09 1.72.905 2.58 2.445 2.58.39 0 .725-.05 1.005-.15.28-.11.58-.255.9-.435.26-.15.435-.225.525-.225zm-2.625-4.845c-.64 0-1.155.2-1.545.6-.38.4-.605.965-.675 1.695h4.245c-.02-.74-.205-1.305-.555-1.695-.35-.4-.84-.6-1.47-.6zm10.058-.54c.11-.24.285-.36.525-.36.15 0 .285.05.405.15.12.1.18.225.18.375 0 .09-.02.17-.06.24l-2.925 6.3c-.06.13-.15.235-.27.315-.12.07-.25.105-.39.105-.13 0-.255-.035-.375-.105-.12-.08-.215-.185-.285-.315l-2.91-6.3c-.04-.07-.06-.145-.06-.225 0-.15.065-.28.195-.39.14-.11.29-.165.45-.165.1 0 .195.03.285.09.1.06.175.145.225.255l2.505 5.625 2.505-5.595zm8.007 5.385c.11 0 .205.045.285.135.08.09.12.205.12.345 0 .25-.175.48-.525.69-.36.21-.74.37-1.14.48-.4.1-.79.15-1.17.15-1.13 0-2.025-.335-2.685-1.005-.65-.67-.975-1.595-.975-2.775 0-.75.145-1.41.435-1.98.29-.58.695-1.03 1.215-1.35.53-.32 1.13-.48 1.8-.48.95 0 1.705.31 2.265.93.56.62.84 1.46.84 2.52 0 .2-.04.345-.12.435-.08.09-.21.135-.39.135h-4.83c.09 1.72.905 2.58 2.445 2.58.39 0 .725-.05 1.005-.15.28-.11.58-.255.9-.435.26-.15.435-.225.525-.225zm-2.625-4.845c-.64 0-1.155.2-1.545.6-.38.4-.605.965-.675 1.695h4.245c-.02-.74-.205-1.305-.555-1.695-.35-.4-.84-.6-1.47-.6zm8.555-.945c1.75 0 2.625.965 2.625 2.895v4.065c0 .19-.055.34-.165.45-.1.1-.245.15-.435.15s-.34-.05-.45-.15c-.11-.11-.165-.26-.165-.45v-3.99c0-.68-.135-1.175-.405-1.485-.26-.31-.68-.465-1.26-.465-.67 0-1.205.205-1.605.615-.4.41-.6.965-.6 1.665v3.66c0 .19-.055.34-.165.45-.1.1-.245.15-.435.15s-.34-.05-.45-.15c-.11-.11-.165-.26-.165-.45v-6.33c0-.18.055-.325.165-.435.11-.11.26-.165.45-.165.18 0 .32.055.42.165.11.11.165.25.165.42v.765c.24-.45.575-.79 1.005-1.02.43-.24.92-.36 1.47-.36zm8.225 6.6c.35.03.525.19.525.48 0 .17-.065.3-.195.39-.12.08-.305.11-.555.09l-.405-.03c-.8-.06-1.39-.3-1.77-.72-.38-.42-.57-1.055-.57-1.905v-3.765h-1.005c-.17 0-.305-.04-.405-.12-.09-.09-.135-.205-.135-.345 0-.15.045-.27.135-.36.1-.09.235-.135.405-.135h1.005v-1.695c0-.19.055-.335.165-.435.11-.11.26-.165.45-.165.18 0 .325.055.435.165.11.1.165.245.165.435v1.695h1.665c.16 0 .285.045.375.135.1.09.15.21.15.36 0 .14-.05.255-.15.345-.09.08-.215.12-.375.12h-1.665v3.825c0 .55.11.95.33 1.2.23.24.57.375 1.02.405l.405.03zm4.183.99c-.46 0-.9-.055-1.32-.165-.41-.11-.775-.265-1.095-.465-.18-.12-.31-.23-.39-.33-.07-.11-.105-.24-.105-.39 0-.13.035-.235.105-.315.08-.09.18-.135.3-.135s.295.075.525.225c.3.18.595.325.885.435.3.1.67.15 1.11.15.54 0 .96-.095 1.26-.285.3-.19.45-.465.45-.825 0-.22-.055-.395-.165-.525-.11-.14-.3-.26-.57-.36-.27-.11-.665-.22-1.185-.33-.88-.19-1.51-.445-1.89-.765-.38-.32-.57-.755-.57-1.305 0-.43.12-.81.36-1.14.24-.33.57-.59.99-.78.43-.19.915-.285 1.455-.285.39 0 .765.055 1.125.165.37.1.695.245.975.435.34.24.51.49.51.75 0 .13-.04.24-.12.33-.08.09-.175.135-.285.135-.12 0-.3-.085-.54-.255-.28-.18-.545-.32-.795-.42-.25-.1-.56-.15-.93-.15-.47 0-.85.105-1.14.315-.28.21-.42.49-.42.84 0 .22.05.4.15.54.11.13.285.25.525.36.25.1.605.2 1.065.3.68.15 1.205.315 1.575.495.38.18.65.4.81.66.16.26.24.59.24.99 0 .63-.265 1.14-.795 1.53-.53.38-1.23.57-2.1.57z" fill="#6F737B"/><defs><filter id="a" x="150" y="0" width="390" height="551" filterUnits="userSpaceOnUse" color-interpolation-filters="sRGB"><feFlood flood-opacity="0" result="BackgroundImageFix"/><feColorMatrix in="SourceAlpha" values="0 0 0 0 0 0 0 0 0 0 0 0 0 0 0 0 0 0 127 0"/><feOffset dy="20"/><feGaussianBlur stdDeviation="25"/><feColorMatrix values="0 0 0 0 0 0 0 0 0 0 0 0 0 0 0 0 0 0 0.12 0"/><feBlend in2="BackgroundImageFix" result="effect1_dropShadow"/><feBlend in="SourceGraphic" in2="effect1_dropShadow" result="shape"/></filter><filter id="c" x="179" y="13" width="331" height="107" filterUnits="userSpaceOnUse" color-interpolation-filters="sRGB"><feFlood flood-opacity="0" result="BackgroundImageFix"/><feColorMatrix in="SourceAlpha" values="0 0 0 0 0 0 0 0 0 0 0 0 0 0 0 0 0 0 127 0"/><feOffset dy="3"/><feGaussianBlur stdDeviation="10"/><feColorMatrix values="0 0 0 0 0 0 0 0 0 0 0 0 0 0 0 0 0 0 0.07 0"/><feBlend in2="BackgroundImageFix" result="effect1_dropShadow"/><feBlend in="SourceGraphic" in2="effect1_dropShadow" result="shape"/></filter><linearGradient id="b" x1="362.344" y1="147.515" x2="327.5" y2="147.515" gradientUnits="userSpaceOnUse"><stop stop-color="#204BB9"/><stop offset="1" stop-color="#2CCCD4"/></linearGradient><linearGradient id="f" x1="548.497" y1="222.179" x2="627.632" y2="222.179" gradientUnits="userSpaceOnUse"><stop stop-opacity=".1"/><stop offset="1" stop-opacity=".2"/></linearGradient><clipPath id="d"><path fill="#fff" d="M530 71h80v80.884h-80z"/></clipPath><clipPath id="e"><path fill="#fff" d="M548 189h80v60.625h-80z"/></clipPath></defs></svg>