<svg width="563" height="397" viewBox="0 0 563 397" fill="none" xmlns="http://www.w3.org/2000/svg">
<path d="M356.5 371.502C412.557 371.502 458 324.94 458 267.502C458 210.064 412.557 163.502 356.5 163.502C300.443 163.502 255 210.064 255 267.502C255 324.94 300.443 371.502 356.5 371.502Z" fill="#F0F0F4"/>
<path d="M160.5 140.502C181.211 140.502 198 123.265 198 102.002C198 80.739 181.211 63.502 160.5 63.502C139.789 63.502 123 80.739 123 102.002C123 123.265 139.789 140.502 160.5 140.502Z" fill="#F0F0F4"/>
<g filter="url(#filter0_d)">
<rect x="161" y="30.502" width="242" height="296" rx="16" fill="white"/>
</g>
<path fill-rule="evenodd" clip-rule="evenodd" d="M198.731 195.503C198.731 194.951 199.428 194.503 200.287 194.503H365.176C366.035 194.503 366.731 194.951 366.731 195.503C366.731 196.055 366.035 196.503 365.176 196.503H200.287C199.428 196.503 198.731 196.055 198.731 195.503Z" fill="#231F20"/>
<path d="M206.576 180.028C207.186 180.208 207.656 180.523 207.986 180.973C208.326 181.413 208.496 181.958 208.496 182.608C208.496 183.498 208.166 184.203 207.506 184.723C206.856 185.243 205.956 185.503 204.806 185.503H200.876C200.526 185.503 200.256 185.408 200.066 185.218C199.876 185.028 199.781 184.758 199.781 184.408V176.023C199.781 175.673 199.876 175.403 200.066 175.213C200.256 175.023 200.526 174.928 200.876 174.928H204.656C205.756 174.928 206.626 175.173 207.266 175.663C207.916 176.153 208.241 176.823 208.241 177.673C208.241 178.223 208.091 178.708 207.791 179.128C207.501 179.538 207.096 179.838 206.576 180.028ZM202.061 179.233H204.266C204.866 179.233 205.306 179.133 205.586 178.933C205.876 178.723 206.021 178.408 206.021 177.988C206.021 177.548 205.876 177.228 205.586 177.028C205.306 176.818 204.866 176.713 204.266 176.713H202.061V179.233ZM204.536 183.718C205.156 183.718 205.606 183.613 205.886 183.403C206.166 183.193 206.306 182.853 206.306 182.383C206.306 181.913 206.166 181.568 205.886 181.348C205.606 181.128 205.156 181.018 204.536 181.018H202.061V183.718H204.536ZM211.293 185.593C210.933 185.593 210.648 185.488 210.438 185.278C210.228 185.068 210.123 184.783 210.123 184.423V176.008C210.123 175.658 210.228 175.378 210.438 175.168C210.648 174.958 210.933 174.853 211.293 174.853C211.653 174.853 211.938 174.958 212.148 175.168C212.358 175.378 212.463 175.658 212.463 176.008V184.423C212.463 184.783 212.358 185.068 212.148 185.278C211.938 185.488 211.653 185.593 211.293 185.593ZM215.342 182.368C214.632 182.368 214.277 182.073 214.277 181.483C214.277 180.893 214.632 180.598 215.342 180.598H218.282C218.992 180.598 219.347 180.893 219.347 181.483C219.347 182.073 218.992 182.368 218.282 182.368H215.342ZM222.263 185.503C221.913 185.503 221.643 185.408 221.453 185.218C221.263 185.028 221.168 184.758 221.168 184.408V176.023C221.168 175.673 221.263 175.403 221.453 175.213C221.643 175.023 221.913 174.928 222.263 174.928H225.278C226.428 174.928 227.418 175.138 228.248 175.558C229.078 175.978 229.713 176.583 230.153 177.373C230.593 178.163 230.813 179.108 230.813 180.208C230.813 181.308 230.593 182.258 230.153 183.058C229.723 183.848 229.093 184.453 228.263 184.873C227.433 185.293 226.438 185.503 225.278 185.503H222.263ZM225.113 183.613C227.363 183.613 228.488 182.478 228.488 180.208C228.488 177.948 227.363 176.818 225.113 176.818H223.508V183.613H225.113ZM233.779 185.593C233.419 185.593 233.134 185.488 232.924 185.278C232.714 185.068 232.609 184.783 232.609 184.423V176.008C232.609 175.658 232.714 175.378 232.924 175.168C233.134 174.958 233.419 174.853 233.779 174.853C234.139 174.853 234.424 174.958 234.634 175.168C234.844 175.378 234.949 175.658 234.949 176.008V184.423C234.949 184.783 234.844 185.068 234.634 185.278C234.424 185.488 234.139 185.593 233.779 185.593ZM245.717 184.018C245.867 184.238 245.942 184.453 245.942 184.663C245.942 184.943 245.827 185.173 245.597 185.353C245.377 185.533 245.117 185.623 244.817 185.623C244.627 185.623 244.442 185.578 244.262 185.488C244.082 185.398 243.932 185.258 243.812 185.068L241.832 182.128C241.662 181.868 241.482 181.683 241.292 181.573C241.102 181.453 240.862 181.393 240.572 181.393H239.357V184.423C239.357 184.783 239.252 185.068 239.042 185.278C238.842 185.488 238.567 185.593 238.217 185.593C237.857 185.593 237.572 185.488 237.362 185.278C237.152 185.068 237.047 184.783 237.047 184.423V176.023C237.047 175.673 237.142 175.403 237.332 175.213C237.522 175.023 237.792 174.928 238.142 174.928H241.907C243.147 174.928 244.082 175.203 244.712 175.753C245.352 176.293 245.672 177.078 245.672 178.108C245.672 178.918 245.447 179.593 244.997 180.133C244.547 180.673 243.912 181.028 243.092 181.198C243.392 181.258 243.657 181.378 243.887 181.558C244.127 181.728 244.357 181.978 244.577 182.308L245.717 184.018ZM241.562 179.623C242.232 179.623 242.717 179.508 243.017 179.278C243.317 179.038 243.467 178.668 243.467 178.168C243.467 177.658 243.317 177.288 243.017 177.058C242.717 176.828 242.232 176.713 241.562 176.713H239.327V179.623H241.562ZM248.66 185.503C248.31 185.503 248.04 185.408 247.85 185.218C247.66 185.028 247.565 184.758 247.565 184.408V176.023C247.565 175.673 247.66 175.403 247.85 175.213C248.04 175.023 248.31 174.928 248.66 174.928H253.97C254.71 174.928 255.08 175.228 255.08 175.828C255.08 176.438 254.71 176.743 253.97 176.743H249.845V179.218H253.67C254.41 179.218 254.78 179.523 254.78 180.133C254.78 180.733 254.41 181.033 253.67 181.033H249.845V183.688H253.97C254.71 183.688 255.08 183.993 255.08 184.603C255.08 185.203 254.71 185.503 253.97 185.503H248.66ZM261.316 185.638C260.276 185.638 259.366 185.418 258.586 184.978C257.806 184.538 257.206 183.908 256.786 183.088C256.366 182.268 256.156 181.308 256.156 180.208C256.156 179.108 256.366 178.153 256.786 177.343C257.206 176.523 257.806 175.893 258.586 175.453C259.366 175.013 260.276 174.793 261.316 174.793C262.626 174.793 263.756 175.153 264.706 175.873C264.856 175.993 264.961 176.113 265.021 176.233C265.081 176.353 265.111 176.503 265.111 176.683C265.111 176.943 265.036 177.168 264.886 177.358C264.746 177.538 264.571 177.628 264.361 177.628C264.221 177.628 264.096 177.613 263.986 177.583C263.886 177.543 263.771 177.478 263.641 177.388C263.241 177.128 262.871 176.943 262.531 176.833C262.191 176.713 261.826 176.653 261.436 176.653C260.476 176.653 259.751 176.953 259.261 177.553C258.781 178.143 258.541 179.028 258.541 180.208C258.541 182.588 259.506 183.778 261.436 183.778C261.806 183.778 262.156 183.723 262.486 183.613C262.816 183.493 263.201 183.303 263.641 183.043C263.791 182.953 263.916 182.893 264.016 182.863C264.116 182.823 264.231 182.803 264.361 182.803C264.571 182.803 264.746 182.898 264.886 183.088C265.036 183.268 265.111 183.488 265.111 183.748C265.111 183.928 265.076 184.083 265.006 184.213C264.946 184.333 264.846 184.448 264.706 184.558C263.756 185.278 262.626 185.638 261.316 185.638ZM270.091 185.578C269.741 185.578 269.456 185.473 269.236 185.263C269.026 185.053 268.921 184.773 268.921 184.423V176.833H266.491C265.751 176.833 265.381 176.513 265.381 175.873C265.381 175.243 265.751 174.928 266.491 174.928H273.691C274.431 174.928 274.801 175.243 274.801 175.873C274.801 176.513 274.431 176.833 273.691 176.833H271.261V184.423C271.261 184.773 271.156 185.053 270.946 185.263C270.736 185.473 270.451 185.578 270.091 185.578ZM276.977 185.593C276.617 185.593 276.332 185.488 276.122 185.278C275.912 185.068 275.807 184.783 275.807 184.423V176.008C275.807 175.658 275.912 175.378 276.122 175.168C276.332 174.958 276.617 174.853 276.977 174.853C277.337 174.853 277.622 174.958 277.832 175.168C278.042 175.378 278.147 175.658 278.147 176.008V184.423C278.147 184.783 278.042 185.068 277.832 185.278C277.622 185.488 277.337 185.593 276.977 185.593ZM285.105 185.638C284.055 185.638 283.14 185.418 282.36 184.978C281.59 184.528 280.995 183.898 280.575 183.088C280.155 182.268 279.945 181.308 279.945 180.208C279.945 179.108 280.155 178.153 280.575 177.343C280.995 176.523 281.59 175.893 282.36 175.453C283.14 175.013 284.055 174.793 285.105 174.793C286.155 174.793 287.065 175.013 287.835 175.453C288.615 175.893 289.215 176.523 289.635 177.343C290.055 178.153 290.265 179.108 290.265 180.208C290.265 181.308 290.055 182.268 289.635 183.088C289.215 183.898 288.615 184.528 287.835 184.978C287.065 185.418 286.155 185.638 285.105 185.638ZM285.105 183.823C285.985 183.823 286.675 183.513 287.175 182.893C287.685 182.273 287.94 181.378 287.94 180.208C287.94 179.038 287.69 178.148 287.19 177.538C286.69 176.918 285.995 176.608 285.105 176.608C284.215 176.608 283.52 176.918 283.02 177.538C282.53 178.148 282.285 179.038 282.285 180.208C282.285 181.378 282.535 182.273 283.035 182.893C283.535 183.513 284.225 183.823 285.105 183.823ZM300.122 174.853C300.452 174.853 300.717 174.963 300.917 175.183C301.127 175.393 301.232 175.668 301.232 176.008V184.423C301.232 184.773 301.127 185.058 300.917 185.278C300.717 185.488 300.452 185.593 300.122 185.593C299.762 185.593 299.472 185.463 299.252 185.203L294.227 178.768V184.423C294.227 184.773 294.127 185.058 293.927 185.278C293.737 185.488 293.477 185.593 293.147 185.593C292.817 185.593 292.552 185.488 292.352 185.278C292.152 185.058 292.052 184.773 292.052 184.423V176.008C292.052 175.668 292.152 175.393 292.352 175.183C292.562 174.963 292.832 174.853 293.162 174.853C293.532 174.853 293.817 174.983 294.017 175.243L299.042 181.633V176.008C299.042 175.668 299.142 175.393 299.342 175.183C299.542 174.963 299.802 174.853 300.122 174.853ZM313.186 184.078C313.266 184.258 313.306 184.418 313.306 184.558C313.306 184.838 313.191 185.078 312.961 185.278C312.741 185.468 312.486 185.563 312.196 185.563C312.006 185.563 311.826 185.513 311.656 185.413C311.486 185.303 311.356 185.143 311.266 184.933L310.471 183.163H305.386L304.591 184.933C304.501 185.143 304.371 185.303 304.201 185.413C304.041 185.513 303.861 185.563 303.661 185.563C303.371 185.563 303.111 185.468 302.881 185.278C302.651 185.078 302.536 184.838 302.536 184.558C302.536 184.418 302.576 184.258 302.656 184.078L306.706 175.573C306.816 175.333 306.981 175.153 307.201 175.033C307.421 174.903 307.656 174.838 307.906 174.838C308.166 174.838 308.406 174.903 308.626 175.033C308.846 175.163 309.016 175.343 309.136 175.573L313.186 184.078ZM309.676 181.393L307.936 177.493L306.181 181.393H309.676ZM315.691 185.503C315.341 185.503 315.071 185.408 314.881 185.218C314.691 185.028 314.596 184.758 314.596 184.408V176.008C314.596 175.658 314.701 175.378 314.911 175.168C315.121 174.958 315.406 174.853 315.766 174.853C316.126 174.853 316.411 174.958 316.621 175.168C316.831 175.378 316.936 175.658 316.936 176.008V183.598H320.776C321.506 183.598 321.871 183.918 321.871 184.558C321.871 185.188 321.506 185.503 320.776 185.503H315.691ZM331.048 185.638C330.258 185.638 329.523 185.548 328.843 185.368C328.163 185.178 327.608 184.913 327.177 184.573C327.028 184.463 326.918 184.348 326.848 184.228C326.788 184.098 326.758 183.938 326.758 183.748C326.758 183.498 326.833 183.278 326.983 183.088C327.143 182.898 327.323 182.803 327.523 182.803C327.633 182.803 327.738 182.823 327.838 182.863C327.948 182.893 328.078 182.953 328.228 183.043C328.658 183.313 329.093 183.513 329.533 183.643C329.973 183.763 330.458 183.823 330.988 183.823C331.648 183.823 332.153 183.713 332.503 183.493C332.853 183.273 333.028 182.958 333.028 182.548C333.028 182.238 332.863 181.988 332.533 181.798C332.213 181.608 331.638 181.428 330.808 181.258C329.878 181.068 329.133 180.838 328.573 180.568C328.023 180.298 327.618 179.963 327.358 179.563C327.108 179.163 326.983 178.678 326.983 178.108C326.983 177.478 327.163 176.913 327.523 176.413C327.893 175.903 328.398 175.508 329.038 175.228C329.688 174.938 330.418 174.793 331.228 174.793C332.648 174.793 333.818 175.148 334.738 175.858C334.888 175.978 334.993 176.103 335.053 176.233C335.123 176.353 335.158 176.503 335.158 176.683C335.158 176.933 335.078 177.153 334.918 177.343C334.768 177.533 334.593 177.628 334.393 177.628C334.283 177.628 334.178 177.613 334.078 177.583C333.988 177.553 333.858 177.488 333.688 177.388C333.278 177.128 332.898 176.933 332.548 176.803C332.208 176.673 331.773 176.608 331.243 176.608C330.633 176.608 330.153 176.728 329.803 176.968C329.453 177.198 329.278 177.518 329.278 177.928C329.278 178.168 329.343 178.368 329.473 178.528C329.613 178.678 329.838 178.813 330.147 178.933C330.468 179.053 330.918 179.178 331.498 179.308C332.858 179.608 333.833 179.993 334.423 180.463C335.023 180.933 335.323 181.578 335.323 182.398C335.323 183.038 335.143 183.603 334.783 184.093C334.433 184.583 333.933 184.963 333.283 185.233C332.643 185.503 331.898 185.638 331.048 185.638ZM343.3 175.228C343.52 174.968 343.78 174.838 344.08 174.838C344.36 174.838 344.61 174.948 344.83 175.168C345.06 175.378 345.175 175.623 345.175 175.903C345.175 176.153 345.08 176.388 344.89 176.608L341.605 180.508V184.423C341.605 184.803 341.495 185.093 341.275 185.293C341.055 185.493 340.78 185.593 340.45 185.593C340.1 185.593 339.815 185.493 339.595 185.293C339.375 185.093 339.265 184.803 339.265 184.423V180.508L336.01 176.608C335.82 176.408 335.725 176.173 335.725 175.903C335.725 175.623 335.83 175.378 336.04 175.168C336.26 174.948 336.51 174.838 336.79 174.838C337.09 174.838 337.35 174.968 337.57 175.228L340.435 178.723L343.3 175.228ZM354.321 174.853C354.651 174.853 354.916 174.963 355.116 175.183C355.326 175.393 355.431 175.668 355.431 176.008V184.423C355.431 184.773 355.326 185.058 355.116 185.278C354.916 185.488 354.651 185.593 354.321 185.593C353.961 185.593 353.671 185.463 353.451 185.203L348.426 178.768V184.423C348.426 184.773 348.326 185.058 348.126 185.278C347.936 185.488 347.676 185.593 347.346 185.593C347.016 185.593 346.751 185.488 346.551 185.278C346.351 185.058 346.251 184.773 346.251 184.423V176.008C346.251 175.668 346.351 175.393 346.551 175.183C346.761 174.963 347.031 174.853 347.361 174.853C347.731 174.853 348.016 174.983 348.216 175.243L353.241 181.633V176.008C353.241 175.668 353.341 175.393 353.541 175.183C353.741 174.963 354.001 174.853 354.321 174.853ZM362.39 185.638C361.35 185.638 360.44 185.418 359.66 184.978C358.88 184.538 358.28 183.908 357.86 183.088C357.44 182.268 357.23 181.308 357.23 180.208C357.23 179.108 357.44 178.153 357.86 177.343C358.28 176.523 358.88 175.893 359.66 175.453C360.44 175.013 361.35 174.793 362.39 174.793C363.7 174.793 364.83 175.153 365.78 175.873C365.93 175.993 366.035 176.113 366.095 176.233C366.155 176.353 366.185 176.503 366.185 176.683C366.185 176.943 366.11 177.168 365.96 177.358C365.82 177.538 365.645 177.628 365.435 177.628C365.295 177.628 365.17 177.613 365.06 177.583C364.96 177.543 364.845 177.478 364.715 177.388C364.315 177.128 363.945 176.943 363.605 176.833C363.265 176.713 362.9 176.653 362.51 176.653C361.55 176.653 360.825 176.953 360.335 177.553C359.855 178.143 359.615 179.028 359.615 180.208C359.615 182.588 360.58 183.778 362.51 183.778C362.88 183.778 363.23 183.723 363.56 183.613C363.89 183.493 364.275 183.303 364.715 183.043C364.865 182.953 364.99 182.893 365.09 182.863C365.19 182.823 365.305 182.803 365.435 182.803C365.645 182.803 365.82 182.898 365.96 183.088C366.11 183.268 366.185 183.488 366.185 183.748C366.185 183.928 366.15 184.083 366.08 184.213C366.02 184.333 365.92 184.448 365.78 184.558C364.83 185.278 363.7 185.638 362.39 185.638Z" fill="#231F20"/>
<path d="M288.629 138.703H274.086C270.386 138.703 267.374 135.68 267.374 131.965C267.374 128.69 269.71 125.956 272.798 125.35C273.961 121.358 277.67 118.487 281.917 118.487C285.271 118.487 288.372 120.278 290.067 123.119C293.721 123.791 296.459 127.01 296.459 130.842C296.459 135.177 292.947 138.703 288.629 138.703Z" fill="url(#paint0_linear)"/>
<path d="M281.873 106.766C286.334 106.766 290.375 107.931 293.992 110.222L292.029 112.276C290.786 113.522 291.664 115.654 293.418 115.671L301.49 116.719H301.511C302.61 116.719 303.502 115.827 303.502 114.728V114.714L302.769 106.333C302.757 104.569 300.612 103.693 299.369 104.94L297.056 107.252C292.642 104.248 287.403 102.575 281.873 102.575C266.902 102.575 254.723 114.747 254.723 129.71C254.723 132.36 255.112 134.996 255.881 137.547C256.145 138.43 257.059 138.964 257.893 138.964H257.912L258.548 138.887L258.574 138.879C259.625 138.561 260.223 137.452 259.907 136.398L259.907 136.398C259.249 134.221 258.916 131.97 258.916 129.71C258.916 116.943 269.099 106.766 281.873 106.766Z" fill="#C7C7C7"/>
<path d="M281.836 152.7C277.376 152.679 273.341 151.494 269.735 149.185L271.708 147.139C272.956 145.898 272.089 143.761 270.335 143.736L262.268 142.65L262.248 142.65C261.148 142.644 260.252 143.532 260.247 144.632L260.247 144.645L260.941 153.035C260.944 154.8 263.085 155.686 264.334 154.443L266.657 152.142C271.057 155.168 276.287 156.866 281.816 156.892C296.786 156.963 309.021 144.842 309.092 129.873C309.104 127.221 308.727 124.582 307.97 122.027C307.71 121.141 306.799 120.603 305.966 120.599L305.947 120.599L305.31 120.673L305.284 120.681C304.231 120.995 303.629 122.101 303.94 123.157L303.94 123.157C304.587 125.338 304.91 127.592 304.899 129.853C304.839 142.626 294.609 152.76 281.836 152.7Z" fill="#9AA3A7"/>
<path fill-rule="evenodd" clip-rule="evenodd" d="M351.662 129.303L345.953 123.595C345.369 123.011 344.422 123.011 343.839 123.595C343.255 124.178 343.255 125.125 343.839 125.709L346.995 128.865H333.561C332.735 128.865 332.066 129.535 332.066 130.36C332.066 131.186 332.735 131.855 333.561 131.855H346.995L343.839 135.012C343.255 135.596 343.255 136.542 343.839 137.126C344.422 137.71 345.369 137.71 345.953 137.126L351.662 131.418C352.245 130.834 352.245 129.887 351.662 129.303ZM344.261 124.017C343.911 124.368 343.911 124.936 344.261 125.286L348.439 129.463H348.439L344.262 125.286C343.911 124.936 343.911 124.368 344.262 124.017C344.394 123.885 344.557 123.803 344.727 123.771C344.557 123.803 344.394 123.885 344.261 124.017ZM333.394 129.479C332.978 129.557 332.664 129.922 332.664 130.36C332.664 130.856 333.066 131.257 333.561 131.257H348.439L344.261 135.435C343.911 135.785 343.911 136.353 344.261 136.703C344.478 136.92 344.779 137.003 345.059 136.951C344.779 137.003 344.478 136.92 344.262 136.703C343.911 136.353 343.911 135.785 344.262 135.435L348.439 131.257H333.561C333.066 131.257 332.664 130.856 332.664 130.36C332.664 129.922 332.978 129.557 333.394 129.479Z" fill="#231F20"/>
<path d="M220.126 125.709L216.969 128.865L230.403 128.865C231.229 128.865 231.898 129.535 231.898 130.36C231.898 131.186 231.229 131.855 230.403 131.855L216.969 131.855L220.126 135.012C220.709 135.596 220.709 136.542 220.126 137.126C219.542 137.71 218.595 137.71 218.011 137.126L212.303 131.418C211.719 130.834 211.719 129.887 212.303 129.303L218.011 123.595C218.595 123.011 219.542 123.011 220.126 123.595C220.709 124.178 220.709 125.125 220.126 125.709Z" fill="#231F20"/>
<g clip-path="url(#clip0)">
<g clip-path="url(#clip1)">
<path fill-rule="evenodd" clip-rule="evenodd" d="M222.536 212.983C222.992 213.363 223.054 214.042 222.673 214.499L215.494 223.115C215.289 223.36 214.986 223.502 214.667 223.502C214.347 223.502 214.044 223.36 213.839 223.115L210.25 218.807C209.869 218.35 209.931 217.671 210.388 217.29C210.844 216.909 211.523 216.971 211.904 217.428L214.667 220.743L221.019 213.12C221.4 212.664 222.079 212.602 222.536 212.983Z" fill="#2CCCD4"/>
<path d="M240.68 225.622C239.93 225.622 239.21 225.512 238.52 225.292C237.84 225.062 237.295 224.757 236.885 224.377C236.735 224.237 236.66 224.062 236.66 223.852C236.66 223.712 236.7 223.592 236.78 223.492C236.86 223.382 236.955 223.327 237.065 223.327C237.195 223.327 237.335 223.382 237.485 223.492C238.415 224.212 239.475 224.572 240.665 224.572C241.525 224.572 242.185 224.407 242.645 224.077C243.105 223.747 243.335 223.277 243.335 222.667C243.335 222.317 243.225 222.037 243.005 221.827C242.785 221.607 242.495 221.432 242.135 221.302C241.775 221.172 241.29 221.037 240.68 220.897C239.86 220.707 239.185 220.507 238.655 220.297C238.135 220.087 237.71 219.787 237.38 219.397C237.06 219.007 236.9 218.497 236.9 217.867C236.9 217.267 237.06 216.737 237.38 216.277C237.71 215.807 238.165 215.447 238.745 215.197C239.335 214.937 240.005 214.807 240.755 214.807C241.455 214.807 242.105 214.917 242.705 215.137C243.315 215.347 243.825 215.652 244.235 216.052C244.395 216.212 244.475 216.387 244.475 216.577C244.475 216.717 244.435 216.842 244.355 216.952C244.275 217.052 244.18 217.102 244.07 217.102C243.96 217.102 243.815 217.047 243.635 216.937C243.145 216.537 242.69 216.257 242.27 216.097C241.85 215.937 241.345 215.857 240.755 215.857C239.925 215.857 239.28 216.032 238.82 216.382C238.36 216.722 238.13 217.202 238.13 217.822C238.13 218.352 238.33 218.752 238.73 219.022C239.14 219.282 239.765 219.512 240.605 219.712C241.515 219.932 242.23 220.137 242.75 220.327C243.27 220.507 243.7 220.782 244.04 221.152C244.39 221.522 244.565 222.017 244.565 222.637C244.565 223.227 244.4 223.747 244.07 224.197C243.75 224.647 243.295 224.997 242.705 225.247C242.115 225.497 241.44 225.622 240.68 225.622ZM251.933 218.047C252.123 218.047 252.268 218.102 252.368 218.212C252.478 218.322 252.533 218.467 252.533 218.647V224.992C252.533 225.162 252.478 225.302 252.368 225.412C252.268 225.522 252.123 225.577 251.933 225.577C251.753 225.577 251.608 225.527 251.498 225.427C251.398 225.317 251.348 225.177 251.348 225.007V224.257C251.118 224.697 250.793 225.032 250.373 225.262C249.963 225.492 249.498 225.607 248.978 225.607C248.108 225.607 247.453 225.367 247.013 224.887C246.573 224.397 246.353 223.677 246.353 222.727V218.647C246.353 218.467 246.408 218.322 246.518 218.212C246.628 218.102 246.778 218.047 246.968 218.047C247.158 218.047 247.303 218.102 247.403 218.212C247.513 218.322 247.568 218.467 247.568 218.647V222.697C247.568 223.347 247.698 223.827 247.958 224.137C248.218 224.437 248.628 224.587 249.188 224.587C249.828 224.587 250.343 224.382 250.733 223.972C251.123 223.552 251.318 223.002 251.318 222.322V218.647C251.318 218.467 251.373 218.322 251.483 218.212C251.593 218.102 251.743 218.047 251.933 218.047ZM258.466 218.017C259.106 218.017 259.671 218.172 260.161 218.482C260.651 218.792 261.031 219.232 261.301 219.802C261.571 220.372 261.706 221.032 261.706 221.782C261.706 222.542 261.571 223.212 261.301 223.792C261.031 224.362 260.651 224.807 260.161 225.127C259.671 225.447 259.106 225.607 258.466 225.607C257.896 225.607 257.396 225.482 256.966 225.232C256.546 224.982 256.226 224.627 256.006 224.167V224.977C256.006 225.157 255.951 225.302 255.841 225.412C255.741 225.522 255.596 225.577 255.406 225.577C255.216 225.577 255.066 225.522 254.956 225.412C254.846 225.302 254.791 225.157 254.791 224.977V215.437C254.791 215.267 254.846 215.127 254.956 215.017C255.066 214.907 255.216 214.852 255.406 214.852C255.596 214.852 255.741 214.907 255.841 215.017C255.951 215.117 256.006 215.257 256.006 215.437V219.457C256.226 218.997 256.546 218.642 256.966 218.392C257.396 218.142 257.896 218.017 258.466 218.017ZM258.226 224.602C258.936 224.602 259.486 224.357 259.876 223.867C260.266 223.367 260.461 222.672 260.461 221.782C260.461 220.912 260.266 220.237 259.876 219.757C259.486 219.277 258.936 219.037 258.226 219.037C257.516 219.037 256.966 219.277 256.576 219.757C256.196 220.237 256.006 220.922 256.006 221.812C256.006 222.702 256.196 223.392 256.576 223.882C256.966 224.362 257.516 224.602 258.226 224.602ZM262.006 228.232C261.756 228.252 261.571 228.217 261.451 228.127C261.321 228.047 261.256 227.922 261.256 227.752C261.256 227.482 261.431 227.327 261.781 227.287L262.201 227.257C262.651 227.227 262.981 227.092 263.191 226.852C263.411 226.612 263.521 226.217 263.521 225.667V218.647C263.521 218.457 263.576 218.312 263.686 218.212C263.806 218.102 263.956 218.047 264.136 218.047C264.316 218.047 264.461 218.102 264.571 218.212C264.681 218.312 264.736 218.457 264.736 218.647V225.592C264.736 226.432 264.546 227.062 264.166 227.482C263.796 227.902 263.216 228.142 262.426 228.202L262.006 228.232ZM264.136 216.472C263.896 216.472 263.701 216.402 263.551 216.262C263.401 216.122 263.326 215.937 263.326 215.707C263.326 215.487 263.401 215.307 263.551 215.167C263.701 215.027 263.896 214.957 264.136 214.957C264.376 214.957 264.571 215.027 264.721 215.167C264.871 215.307 264.946 215.487 264.946 215.707C264.946 215.937 264.871 216.122 264.721 216.262C264.571 216.402 264.376 216.472 264.136 216.472ZM272.663 223.807C272.773 223.807 272.868 223.852 272.948 223.942C273.028 224.032 273.068 224.147 273.068 224.287C273.068 224.537 272.893 224.767 272.543 224.977C272.183 225.187 271.803 225.347 271.403 225.457C271.003 225.557 270.613 225.607 270.233 225.607C269.103 225.607 268.208 225.272 267.548 224.602C266.898 223.932 266.573 223.007 266.573 221.827C266.573 221.077 266.718 220.417 267.008 219.847C267.298 219.267 267.703 218.817 268.223 218.497C268.753 218.177 269.353 218.017 270.023 218.017C270.973 218.017 271.728 218.327 272.288 218.947C272.848 219.567 273.128 220.407 273.128 221.467C273.128 221.667 273.088 221.812 273.008 221.902C272.928 221.992 272.798 222.037 272.618 222.037H267.788C267.878 223.757 268.693 224.617 270.233 224.617C270.623 224.617 270.958 224.567 271.238 224.467C271.518 224.357 271.818 224.212 272.138 224.032C272.398 223.882 272.573 223.807 272.663 223.807ZM270.038 218.962C269.398 218.962 268.883 219.162 268.493 219.562C268.113 219.962 267.888 220.527 267.818 221.257H272.063C272.043 220.517 271.858 219.952 271.508 219.562C271.158 219.162 270.668 218.962 270.038 218.962ZM277.933 225.607C277.253 225.607 276.648 225.452 276.118 225.142C275.598 224.832 275.193 224.392 274.903 223.822C274.623 223.252 274.483 222.592 274.483 221.842C274.483 221.092 274.628 220.427 274.918 219.847C275.218 219.267 275.633 218.817 276.163 218.497C276.693 218.177 277.303 218.017 277.993 218.017C278.373 218.017 278.748 218.072 279.118 218.182C279.498 218.282 279.828 218.432 280.108 218.632C280.288 218.752 280.413 218.872 280.483 218.992C280.563 219.102 280.603 219.227 280.603 219.367C280.603 219.507 280.563 219.622 280.483 219.712C280.413 219.802 280.318 219.847 280.198 219.847C280.128 219.847 280.053 219.827 279.973 219.787C279.893 219.747 279.823 219.707 279.763 219.667C279.713 219.627 279.678 219.602 279.658 219.592C279.398 219.422 279.148 219.287 278.908 219.187C278.678 219.087 278.393 219.037 278.053 219.037C277.323 219.037 276.753 219.287 276.343 219.787C275.943 220.277 275.743 220.962 275.743 221.842C275.743 222.722 275.943 223.402 276.343 223.882C276.753 224.362 277.323 224.602 278.053 224.602C278.393 224.602 278.683 224.552 278.923 224.452C279.173 224.352 279.423 224.217 279.673 224.047C279.783 223.977 279.888 223.917 279.988 223.867C280.088 223.817 280.173 223.792 280.243 223.792C280.353 223.792 280.443 223.837 280.513 223.927C280.593 224.017 280.633 224.132 280.633 224.272C280.633 224.402 280.598 224.522 280.528 224.632C280.458 224.732 280.328 224.847 280.138 224.977C279.858 225.167 279.518 225.322 279.118 225.442C278.728 225.552 278.333 225.607 277.933 225.607ZM285.485 224.617C285.835 224.647 286.01 224.807 286.01 225.097C286.01 225.267 285.945 225.397 285.815 225.487C285.695 225.567 285.51 225.597 285.26 225.577L284.855 225.547C284.055 225.487 283.465 225.247 283.085 224.827C282.705 224.407 282.515 223.772 282.515 222.922V219.157H281.51C281.34 219.157 281.205 219.117 281.105 219.037C281.015 218.947 280.97 218.832 280.97 218.692C280.97 218.542 281.015 218.422 281.105 218.332C281.205 218.242 281.34 218.197 281.51 218.197H282.515V216.502C282.515 216.312 282.57 216.167 282.68 216.067C282.79 215.957 282.94 215.902 283.13 215.902C283.31 215.902 283.455 215.957 283.565 216.067C283.675 216.167 283.73 216.312 283.73 216.502V218.197H285.395C285.555 218.197 285.68 218.242 285.77 218.332C285.87 218.422 285.92 218.542 285.92 218.692C285.92 218.832 285.87 218.947 285.77 219.037C285.68 219.117 285.555 219.157 285.395 219.157H283.73V222.982C283.73 223.532 283.84 223.932 284.06 224.182C284.29 224.422 284.63 224.557 285.08 224.587L285.485 224.617Z" fill="#6F737B"/>
</g>
<g clip-path="url(#clip2)">
<path fill-rule="evenodd" clip-rule="evenodd" d="M222.536 238.983C222.992 239.363 223.054 240.042 222.673 240.499L215.494 249.115C215.289 249.36 214.986 249.502 214.667 249.502C214.347 249.502 214.044 249.36 213.839 249.115L210.25 244.807C209.869 244.35 209.931 243.671 210.388 243.29C210.844 242.909 211.523 242.971 211.904 243.428L214.667 246.743L221.019 239.12C221.4 238.664 222.079 238.602 222.536 238.983Z" fill="#2CCCD4"/>
<path d="M237.935 251.502C237.745 251.502 237.59 251.447 237.47 251.337C237.36 251.227 237.305 251.082 237.305 250.902V241.527C237.305 241.347 237.36 241.202 237.47 241.092C237.59 240.982 237.745 240.927 237.935 240.927H240.86C242.55 240.927 243.855 241.387 244.775 242.307C245.705 243.217 246.17 244.517 246.17 246.207C246.17 247.897 245.705 249.202 244.775 250.122C243.845 251.042 242.54 251.502 240.86 251.502H237.935ZM240.785 250.452C243.525 250.452 244.895 249.037 244.895 246.207C244.895 243.387 243.525 241.977 240.785 241.977H238.535V250.452H240.785ZM253.764 244.047C253.954 244.047 254.099 244.102 254.199 244.212C254.309 244.322 254.364 244.467 254.364 244.647V250.992C254.364 251.162 254.309 251.302 254.199 251.412C254.099 251.522 253.954 251.577 253.764 251.577C253.584 251.577 253.439 251.527 253.329 251.427C253.229 251.317 253.179 251.177 253.179 251.007V250.257C252.949 250.697 252.624 251.032 252.204 251.262C251.794 251.492 251.329 251.607 250.809 251.607C249.939 251.607 249.284 251.367 248.844 250.887C248.404 250.397 248.184 249.677 248.184 248.727V244.647C248.184 244.467 248.239 244.322 248.349 244.212C248.459 244.102 248.609 244.047 248.799 244.047C248.989 244.047 249.134 244.102 249.234 244.212C249.344 244.322 249.399 244.467 249.399 244.647V248.697C249.399 249.347 249.529 249.827 249.789 250.137C250.049 250.437 250.459 250.587 251.019 250.587C251.659 250.587 252.174 250.382 252.564 249.972C252.954 249.552 253.149 249.002 253.149 248.322V244.647C253.149 244.467 253.204 244.322 253.314 244.212C253.424 244.102 253.574 244.047 253.764 244.047ZM262.277 249.807C262.387 249.807 262.482 249.852 262.562 249.942C262.642 250.032 262.682 250.147 262.682 250.287C262.682 250.537 262.507 250.767 262.157 250.977C261.797 251.187 261.417 251.347 261.017 251.457C260.617 251.557 260.227 251.607 259.847 251.607C258.717 251.607 257.822 251.272 257.162 250.602C256.512 249.932 256.187 249.007 256.187 247.827C256.187 247.077 256.332 246.417 256.622 245.847C256.912 245.267 257.317 244.817 257.837 244.497C258.367 244.177 258.967 244.017 259.637 244.017C260.587 244.017 261.342 244.327 261.902 244.947C262.462 245.567 262.742 246.407 262.742 247.467C262.742 247.667 262.702 247.812 262.622 247.902C262.542 247.992 262.412 248.037 262.232 248.037H257.402C257.492 249.757 258.307 250.617 259.847 250.617C260.237 250.617 260.572 250.567 260.852 250.467C261.132 250.357 261.432 250.212 261.752 250.032C262.012 249.882 262.187 249.807 262.277 249.807ZM259.652 244.962C259.012 244.962 258.497 245.162 258.107 245.562C257.727 245.962 257.502 246.527 257.432 247.257H261.677C261.657 246.517 261.472 245.952 261.122 245.562C260.772 245.162 260.282 244.962 259.652 244.962ZM271.774 250.617C272.124 250.647 272.299 250.807 272.299 251.097C272.299 251.267 272.234 251.397 272.104 251.487C271.984 251.567 271.799 251.597 271.549 251.577L271.144 251.547C270.344 251.487 269.754 251.247 269.374 250.827C268.994 250.407 268.804 249.772 268.804 248.922V245.157H267.799C267.629 245.157 267.494 245.117 267.394 245.037C267.304 244.947 267.259 244.832 267.259 244.692C267.259 244.542 267.304 244.422 267.394 244.332C267.494 244.242 267.629 244.197 267.799 244.197H268.804V242.502C268.804 242.312 268.859 242.167 268.969 242.067C269.079 241.957 269.229 241.902 269.419 241.902C269.599 241.902 269.744 241.957 269.854 242.067C269.964 242.167 270.019 242.312 270.019 242.502V244.197H271.684C271.844 244.197 271.969 244.242 272.059 244.332C272.159 244.422 272.209 244.542 272.209 244.692C272.209 244.832 272.159 244.947 272.059 245.037C271.969 245.117 271.844 245.157 271.684 245.157H270.019V248.982C270.019 249.532 270.129 249.932 270.349 250.182C270.579 250.422 270.919 250.557 271.369 250.587L271.774 250.617ZM274.112 251.577C273.932 251.577 273.782 251.527 273.662 251.427C273.552 251.317 273.497 251.167 273.497 250.977V244.647C273.497 244.457 273.552 244.312 273.662 244.212C273.782 244.102 273.932 244.047 274.112 244.047C274.292 244.047 274.437 244.102 274.547 244.212C274.657 244.312 274.712 244.457 274.712 244.647V250.977C274.712 251.177 274.657 251.327 274.547 251.427C274.437 251.527 274.292 251.577 274.112 251.577ZM274.112 242.472C273.872 242.472 273.677 242.402 273.527 242.262C273.377 242.122 273.302 241.937 273.302 241.707C273.302 241.487 273.377 241.307 273.527 241.167C273.677 241.027 273.872 240.957 274.112 240.957C274.352 240.957 274.547 241.027 274.697 241.167C274.847 241.307 274.922 241.487 274.922 241.707C274.922 241.937 274.847 242.122 274.697 242.262C274.547 242.402 274.352 242.472 274.112 242.472ZM285.113 244.017C286.733 244.017 287.543 244.982 287.543 246.912V250.977C287.543 251.167 287.488 251.317 287.378 251.427C287.268 251.527 287.123 251.577 286.943 251.577C286.763 251.577 286.613 251.527 286.493 251.427C286.383 251.317 286.328 251.167 286.328 250.977V246.942C286.328 246.272 286.208 245.787 285.968 245.487C285.728 245.187 285.353 245.037 284.843 245.037C284.233 245.037 283.753 245.242 283.403 245.652C283.053 246.062 282.878 246.617 282.878 247.317V250.977C282.878 251.167 282.818 251.317 282.698 251.427C282.588 251.527 282.443 251.577 282.263 251.577C282.083 251.577 281.938 251.527 281.828 251.427C281.718 251.317 281.663 251.167 281.663 250.977V246.942C281.663 246.272 281.543 245.787 281.303 245.487C281.063 245.187 280.683 245.037 280.163 245.037C279.563 245.037 279.083 245.242 278.723 245.652C278.373 246.062 278.198 246.617 278.198 247.317V250.977C278.198 251.167 278.143 251.317 278.033 251.427C277.923 251.527 277.778 251.577 277.598 251.577C277.418 251.577 277.268 251.527 277.148 251.427C277.038 251.317 276.983 251.167 276.983 250.977V244.647C276.983 244.467 277.038 244.322 277.148 244.212C277.268 244.102 277.418 244.047 277.598 244.047C277.768 244.047 277.908 244.102 278.018 244.212C278.128 244.312 278.183 244.452 278.183 244.632V245.352C278.403 244.922 278.708 244.592 279.098 244.362C279.488 244.132 279.938 244.017 280.448 244.017C281.588 244.017 282.333 244.497 282.683 245.457C282.893 245.017 283.213 244.667 283.643 244.407C284.073 244.147 284.563 244.017 285.113 244.017ZM295.412 249.807C295.522 249.807 295.617 249.852 295.697 249.942C295.777 250.032 295.817 250.147 295.817 250.287C295.817 250.537 295.642 250.767 295.292 250.977C294.932 251.187 294.552 251.347 294.152 251.457C293.752 251.557 293.362 251.607 292.982 251.607C291.852 251.607 290.957 251.272 290.297 250.602C289.647 249.932 289.322 249.007 289.322 247.827C289.322 247.077 289.467 246.417 289.757 245.847C290.047 245.267 290.452 244.817 290.972 244.497C291.502 244.177 292.102 244.017 292.772 244.017C293.722 244.017 294.477 244.327 295.037 244.947C295.597 245.567 295.877 246.407 295.877 247.467C295.877 247.667 295.837 247.812 295.757 247.902C295.677 247.992 295.547 248.037 295.367 248.037H290.537C290.627 249.757 291.442 250.617 292.982 250.617C293.372 250.617 293.707 250.567 293.987 250.467C294.267 250.357 294.567 250.212 294.887 250.032C295.147 249.882 295.322 249.807 295.412 249.807ZM292.787 244.962C292.147 244.962 291.632 245.162 291.242 245.562C290.862 245.962 290.637 246.527 290.567 247.257H294.812C294.792 246.517 294.607 245.952 294.257 245.562C293.907 245.162 293.417 244.962 292.787 244.962Z" fill="#6F737B"/>
</g>
<g clip-path="url(#clip3)">
<path fill-rule="evenodd" clip-rule="evenodd" d="M222.536 264.983C222.992 265.363 223.054 266.042 222.673 266.499L215.494 275.115C215.289 275.36 214.986 275.502 214.667 275.502C214.347 275.502 214.044 275.36 213.839 275.115L210.25 270.807C209.869 270.35 209.931 269.671 210.388 269.29C210.844 268.909 211.523 268.971 211.904 269.428L214.667 272.743L221.019 265.12C221.4 264.664 222.079 264.602 222.536 264.983Z" fill="#2CCCD4"/>
<path d="M245.21 266.852C245.39 266.852 245.53 266.912 245.63 267.032C245.73 267.142 245.78 267.292 245.78 267.482V276.947C245.78 277.137 245.725 277.292 245.615 277.412C245.515 277.522 245.37 277.577 245.18 277.577C244.99 277.577 244.825 277.492 244.685 277.322L238.46 268.997V276.947C238.46 277.137 238.405 277.292 238.295 277.412C238.195 277.522 238.055 277.577 237.875 277.577C237.695 277.577 237.555 277.522 237.455 277.412C237.355 277.292 237.305 277.137 237.305 276.947V267.482C237.305 267.292 237.355 267.142 237.455 267.032C237.565 266.912 237.715 266.852 237.905 266.852C238.105 266.852 238.275 266.937 238.415 267.107L244.625 275.432V267.482C244.625 267.292 244.675 267.142 244.775 267.032C244.885 266.912 245.03 266.852 245.21 266.852ZM251.244 277.607C250.554 277.607 249.944 277.452 249.414 277.142C248.894 276.832 248.489 276.392 248.199 275.822C247.919 275.242 247.779 274.572 247.779 273.812C247.779 273.052 247.919 272.387 248.199 271.817C248.489 271.237 248.894 270.792 249.414 270.482C249.944 270.172 250.554 270.017 251.244 270.017C251.934 270.017 252.544 270.172 253.074 270.482C253.604 270.792 254.009 271.237 254.289 271.817C254.579 272.387 254.724 273.052 254.724 273.812C254.724 274.572 254.579 275.242 254.289 275.822C254.009 276.392 253.604 276.832 253.074 277.142C252.544 277.452 251.934 277.607 251.244 277.607ZM251.244 276.602C251.964 276.602 252.514 276.367 252.894 275.897C253.284 275.417 253.479 274.722 253.479 273.812C253.479 272.922 253.284 272.237 252.894 271.757C252.504 271.267 251.954 271.022 251.244 271.022C250.534 271.022 249.984 271.267 249.594 271.757C249.204 272.237 249.009 272.922 249.009 273.812C249.009 274.712 249.199 275.402 249.579 275.882C249.969 276.362 250.524 276.602 251.244 276.602ZM259.895 276.617C260.245 276.647 260.42 276.807 260.42 277.097C260.42 277.267 260.355 277.397 260.225 277.487C260.105 277.567 259.92 277.597 259.67 277.577L259.265 277.547C258.465 277.487 257.875 277.247 257.495 276.827C257.115 276.407 256.925 275.772 256.925 274.922V271.157H255.92C255.75 271.157 255.615 271.117 255.515 271.037C255.425 270.947 255.38 270.832 255.38 270.692C255.38 270.542 255.425 270.422 255.515 270.332C255.615 270.242 255.75 270.197 255.92 270.197H256.925V268.502C256.925 268.312 256.98 268.167 257.09 268.067C257.2 267.957 257.35 267.902 257.54 267.902C257.72 267.902 257.865 267.957 257.975 268.067C258.085 268.167 258.14 268.312 258.14 268.502V270.197H259.805C259.965 270.197 260.09 270.242 260.18 270.332C260.28 270.422 260.33 270.542 260.33 270.692C260.33 270.832 260.28 270.947 260.18 271.037C260.09 271.117 259.965 271.157 259.805 271.157H258.14V274.982C258.14 275.532 258.25 275.932 258.47 276.182C258.7 276.422 259.04 276.557 259.49 276.587L259.895 276.617ZM267.272 275.807C267.382 275.807 267.477 275.852 267.557 275.942C267.637 276.032 267.677 276.147 267.677 276.287C267.677 276.537 267.502 276.767 267.152 276.977C266.792 277.187 266.412 277.347 266.012 277.457C265.612 277.557 265.222 277.607 264.842 277.607C263.712 277.607 262.817 277.272 262.157 276.602C261.507 275.932 261.182 275.007 261.182 273.827C261.182 273.077 261.327 272.417 261.617 271.847C261.907 271.267 262.312 270.817 262.832 270.497C263.362 270.177 263.962 270.017 264.632 270.017C265.582 270.017 266.337 270.327 266.897 270.947C267.457 271.567 267.737 272.407 267.737 273.467C267.737 273.667 267.697 273.812 267.617 273.902C267.537 273.992 267.407 274.037 267.227 274.037H262.397C262.487 275.757 263.302 276.617 264.842 276.617C265.232 276.617 265.567 276.567 265.847 276.467C266.127 276.357 266.427 276.212 266.747 276.032C267.007 275.882 267.182 275.807 267.272 275.807ZM264.647 270.962C264.007 270.962 263.492 271.162 263.102 271.562C262.722 271.962 262.497 272.527 262.427 273.257H266.672C266.652 272.517 266.467 271.952 266.117 271.562C265.767 271.162 265.277 270.962 264.647 270.962ZM271.987 277.607C271.527 277.607 271.087 277.552 270.667 277.442C270.257 277.332 269.892 277.177 269.572 276.977C269.392 276.857 269.262 276.747 269.182 276.647C269.112 276.537 269.077 276.407 269.077 276.257C269.077 276.127 269.112 276.022 269.182 275.942C269.262 275.852 269.362 275.807 269.482 275.807C269.602 275.807 269.777 275.882 270.007 276.032C270.307 276.212 270.602 276.357 270.892 276.467C271.192 276.567 271.562 276.617 272.002 276.617C272.542 276.617 272.962 276.522 273.262 276.332C273.562 276.142 273.712 275.867 273.712 275.507C273.712 275.287 273.657 275.112 273.547 274.982C273.437 274.842 273.247 274.722 272.977 274.622C272.707 274.512 272.312 274.402 271.792 274.292C270.912 274.102 270.282 273.847 269.902 273.527C269.522 273.207 269.332 272.772 269.332 272.222C269.332 271.792 269.452 271.412 269.692 271.082C269.932 270.752 270.262 270.492 270.682 270.302C271.112 270.112 271.597 270.017 272.137 270.017C272.527 270.017 272.902 270.072 273.262 270.182C273.632 270.282 273.957 270.427 274.237 270.617C274.577 270.857 274.747 271.107 274.747 271.367C274.747 271.497 274.707 271.607 274.627 271.697C274.547 271.787 274.452 271.832 274.342 271.832C274.222 271.832 274.042 271.747 273.802 271.577C273.522 271.397 273.257 271.257 273.007 271.157C272.757 271.057 272.447 271.007 272.077 271.007C271.607 271.007 271.227 271.112 270.937 271.322C270.657 271.532 270.517 271.812 270.517 272.162C270.517 272.382 270.567 272.562 270.667 272.702C270.777 272.832 270.952 272.952 271.192 273.062C271.442 273.162 271.797 273.262 272.257 273.362C272.937 273.512 273.462 273.677 273.832 273.857C274.212 274.037 274.482 274.257 274.642 274.517C274.802 274.777 274.882 275.107 274.882 275.507C274.882 276.137 274.617 276.647 274.087 277.037C273.557 277.417 272.857 277.607 271.987 277.607Z" fill="#6F737B"/>
</g>
<g clip-path="url(#clip4)">
<path fill-rule="evenodd" clip-rule="evenodd" d="M222.536 290.983C222.992 291.363 223.054 292.042 222.673 292.499L215.494 301.115C215.289 301.36 214.986 301.502 214.667 301.502C214.347 301.502 214.044 301.36 213.839 301.115L210.25 296.807C209.869 296.35 209.931 295.671 210.388 295.29C210.844 294.909 211.523 294.971 211.904 295.428L214.667 298.743L221.019 291.12C221.4 290.664 222.079 290.602 222.536 290.983Z" fill="#2CCCD4"/>
<path d="M240.68 303.622C239.93 303.622 239.21 303.512 238.52 303.292C237.84 303.062 237.295 302.757 236.885 302.377C236.735 302.237 236.66 302.062 236.66 301.852C236.66 301.712 236.7 301.592 236.78 301.492C236.86 301.382 236.955 301.327 237.065 301.327C237.195 301.327 237.335 301.382 237.485 301.492C238.415 302.212 239.475 302.572 240.665 302.572C241.525 302.572 242.185 302.407 242.645 302.077C243.105 301.747 243.335 301.277 243.335 300.667C243.335 300.317 243.225 300.037 243.005 299.827C242.785 299.607 242.495 299.432 242.135 299.302C241.775 299.172 241.29 299.037 240.68 298.897C239.86 298.707 239.185 298.507 238.655 298.297C238.135 298.087 237.71 297.787 237.38 297.397C237.06 297.007 236.9 296.497 236.9 295.867C236.9 295.267 237.06 294.737 237.38 294.277C237.71 293.807 238.165 293.447 238.745 293.197C239.335 292.937 240.005 292.807 240.755 292.807C241.455 292.807 242.105 292.917 242.705 293.137C243.315 293.347 243.825 293.652 244.235 294.052C244.395 294.212 244.475 294.387 244.475 294.577C244.475 294.717 244.435 294.842 244.355 294.952C244.275 295.052 244.18 295.102 244.07 295.102C243.96 295.102 243.815 295.047 243.635 294.937C243.145 294.537 242.69 294.257 242.27 294.097C241.85 293.937 241.345 293.857 240.755 293.857C239.925 293.857 239.28 294.032 238.82 294.382C238.36 294.722 238.13 295.202 238.13 295.822C238.13 296.352 238.33 296.752 238.73 297.022C239.14 297.282 239.765 297.512 240.605 297.712C241.515 297.932 242.23 298.137 242.75 298.327C243.27 298.507 243.7 298.782 244.04 299.152C244.39 299.522 244.565 300.017 244.565 300.637C244.565 301.227 244.4 301.747 244.07 302.197C243.75 302.647 243.295 302.997 242.705 303.247C242.115 303.497 241.44 303.622 240.68 303.622ZM249.714 302.617C250.064 302.647 250.239 302.807 250.239 303.097C250.239 303.267 250.174 303.397 250.044 303.487C249.924 303.567 249.739 303.597 249.489 303.577L249.084 303.547C248.284 303.487 247.694 303.247 247.314 302.827C246.934 302.407 246.744 301.772 246.744 300.922V297.157H245.739C245.569 297.157 245.434 297.117 245.334 297.037C245.244 296.947 245.199 296.832 245.199 296.692C245.199 296.542 245.244 296.422 245.334 296.332C245.434 296.242 245.569 296.197 245.739 296.197H246.744V294.502C246.744 294.312 246.799 294.167 246.909 294.067C247.019 293.957 247.169 293.902 247.359 293.902C247.539 293.902 247.684 293.957 247.794 294.067C247.904 294.167 247.959 294.312 247.959 294.502V296.197H249.624C249.784 296.197 249.909 296.242 249.999 296.332C250.099 296.422 250.149 296.542 250.149 296.692C250.149 296.832 250.099 296.947 249.999 297.037C249.909 297.117 249.784 297.157 249.624 297.157H247.959V300.982C247.959 301.532 248.069 301.932 248.289 302.182C248.519 302.422 248.859 302.557 249.309 302.587L249.714 302.617ZM254.422 296.017C256.252 296.017 257.167 296.977 257.167 298.897V302.977C257.167 303.157 257.112 303.302 257.002 303.412C256.902 303.522 256.762 303.577 256.582 303.577C256.402 303.577 256.257 303.522 256.147 303.412C256.037 303.302 255.982 303.157 255.982 302.977V302.257C255.792 302.687 255.502 303.022 255.112 303.262C254.722 303.492 254.272 303.607 253.762 303.607C253.292 303.607 252.857 303.512 252.457 303.322C252.067 303.132 251.757 302.867 251.527 302.527C251.297 302.187 251.182 301.812 251.182 301.402C251.182 300.852 251.322 300.427 251.602 300.127C251.882 299.817 252.342 299.597 252.982 299.467C253.622 299.327 254.512 299.257 255.652 299.257H255.982V298.762C255.982 298.162 255.857 297.722 255.607 297.442C255.367 297.162 254.972 297.022 254.422 297.022C253.742 297.022 253.052 297.207 252.352 297.577C252.082 297.747 251.892 297.832 251.782 297.832C251.662 297.832 251.562 297.787 251.482 297.697C251.402 297.607 251.362 297.492 251.362 297.352C251.362 297.212 251.402 297.092 251.482 296.992C251.572 296.882 251.712 296.772 251.902 296.662C252.252 296.462 252.647 296.307 253.087 296.197C253.537 296.077 253.982 296.017 254.422 296.017ZM253.927 302.647C254.527 302.647 255.017 302.447 255.397 302.047C255.787 301.637 255.982 301.112 255.982 300.472V300.037H255.712C254.832 300.037 254.162 300.077 253.702 300.157C253.242 300.227 252.912 300.352 252.712 300.532C252.522 300.702 252.427 300.957 252.427 301.297C252.427 301.687 252.567 302.012 252.847 302.272C253.137 302.522 253.497 302.647 253.927 302.647ZM262.766 302.617C263.116 302.647 263.291 302.807 263.291 303.097C263.291 303.267 263.226 303.397 263.096 303.487C262.976 303.567 262.791 303.597 262.541 303.577L262.136 303.547C261.336 303.487 260.746 303.247 260.366 302.827C259.986 302.407 259.796 301.772 259.796 300.922V297.157H258.791C258.621 297.157 258.486 297.117 258.386 297.037C258.296 296.947 258.251 296.832 258.251 296.692C258.251 296.542 258.296 296.422 258.386 296.332C258.486 296.242 258.621 296.197 258.791 296.197H259.796V294.502C259.796 294.312 259.851 294.167 259.961 294.067C260.071 293.957 260.221 293.902 260.411 293.902C260.591 293.902 260.736 293.957 260.846 294.067C260.956 294.167 261.011 294.312 261.011 294.502V296.197H262.676C262.836 296.197 262.961 296.242 263.051 296.332C263.151 296.422 263.201 296.542 263.201 296.692C263.201 296.832 263.151 296.947 263.051 297.037C262.961 297.117 262.836 297.157 262.676 297.157H261.011V300.982C261.011 301.532 261.121 301.932 261.341 302.182C261.571 302.422 261.911 302.557 262.361 302.587L262.766 302.617ZM270.038 296.047C270.228 296.047 270.373 296.102 270.473 296.212C270.583 296.322 270.638 296.467 270.638 296.647V302.992C270.638 303.162 270.583 303.302 270.473 303.412C270.373 303.522 270.228 303.577 270.038 303.577C269.858 303.577 269.713 303.527 269.603 303.427C269.503 303.317 269.453 303.177 269.453 303.007V302.257C269.223 302.697 268.898 303.032 268.478 303.262C268.068 303.492 267.603 303.607 267.083 303.607C266.213 303.607 265.558 303.367 265.118 302.887C264.678 302.397 264.458 301.677 264.458 300.727V296.647C264.458 296.467 264.513 296.322 264.623 296.212C264.733 296.102 264.883 296.047 265.073 296.047C265.263 296.047 265.408 296.102 265.508 296.212C265.618 296.322 265.673 296.467 265.673 296.647V300.697C265.673 301.347 265.803 301.827 266.063 302.137C266.323 302.437 266.733 302.587 267.293 302.587C267.933 302.587 268.448 302.382 268.838 301.972C269.228 301.552 269.423 301.002 269.423 300.322V296.647C269.423 296.467 269.478 296.322 269.588 296.212C269.698 296.102 269.848 296.047 270.038 296.047ZM275.356 303.607C274.896 303.607 274.456 303.552 274.036 303.442C273.626 303.332 273.261 303.177 272.941 302.977C272.761 302.857 272.631 302.747 272.551 302.647C272.481 302.537 272.446 302.407 272.446 302.257C272.446 302.127 272.481 302.022 272.551 301.942C272.631 301.852 272.731 301.807 272.851 301.807C272.971 301.807 273.146 301.882 273.376 302.032C273.676 302.212 273.971 302.357 274.261 302.467C274.561 302.567 274.931 302.617 275.371 302.617C275.911 302.617 276.331 302.522 276.631 302.332C276.931 302.142 277.081 301.867 277.081 301.507C277.081 301.287 277.026 301.112 276.916 300.982C276.806 300.842 276.616 300.722 276.346 300.622C276.076 300.512 275.681 300.402 275.161 300.292C274.281 300.102 273.651 299.847 273.271 299.527C272.891 299.207 272.701 298.772 272.701 298.222C272.701 297.792 272.821 297.412 273.061 297.082C273.301 296.752 273.631 296.492 274.051 296.302C274.481 296.112 274.966 296.017 275.506 296.017C275.896 296.017 276.271 296.072 276.631 296.182C277.001 296.282 277.326 296.427 277.606 296.617C277.946 296.857 278.116 297.107 278.116 297.367C278.116 297.497 278.076 297.607 277.996 297.697C277.916 297.787 277.821 297.832 277.711 297.832C277.591 297.832 277.411 297.747 277.171 297.577C276.891 297.397 276.626 297.257 276.376 297.157C276.126 297.057 275.816 297.007 275.446 297.007C274.976 297.007 274.596 297.112 274.306 297.322C274.026 297.532 273.886 297.812 273.886 298.162C273.886 298.382 273.936 298.562 274.036 298.702C274.146 298.832 274.321 298.952 274.561 299.062C274.811 299.162 275.166 299.262 275.626 299.362C276.306 299.512 276.831 299.677 277.201 299.857C277.581 300.037 277.851 300.257 278.011 300.517C278.171 300.777 278.251 301.107 278.251 301.507C278.251 302.137 277.986 302.647 277.456 303.037C276.926 303.417 276.226 303.607 275.356 303.607Z" fill="#6F737B"/>
</g>
</g>
<g filter="url(#filter1_d)">
<path d="M160.111 46.502C160.111 37.6654 167.275 30.502 176.111 30.502H387.018C395.854 30.502 403.018 37.6654 403.018 46.502V86.4289H160.111V46.502Z" fill="white"/>
</g>
<path fill-rule="evenodd" clip-rule="evenodd" d="M307.498 63.7413C307.498 61.1034 307.498 46.9825 307.498 46.9825L310.625 46.3618C310.625 46.3618 310.625 60.6378 310.625 62.1896C310.625 63.7413 311.407 64.0517 312.032 64.0517C312.032 66.3793 307.498 66.3793 307.498 63.7413Z" fill="black"/>
<path fill-rule="evenodd" clip-rule="evenodd" d="M285.996 60.98L282.478 65.2929H278.412L284.004 58.5378L278.881 52.2583H282.79L285.996 56.1309L289.202 52.2583H293.111L287.988 58.5378L293.58 65.2929H289.515L285.996 60.98Z" fill="black"/>
<path d="M287.482 65.2932H284.667L286.074 63.4312L287.482 65.2932Z" fill="#CC3630"/>
<path fill-rule="evenodd" clip-rule="evenodd" d="M271.513 52.1005C268.545 52.6633 266.215 54.7849 266.215 58.4654V59.0861C266.215 63.431 269.307 65.6034 273.173 65.6034C276.729 65.6034 279.976 63.431 279.976 59.0861V58.4654C279.976 54.5976 277.691 52.5639 274.693 52.0688L273.541 54.4428C275.164 54.5759 276.883 55.8299 276.883 58.4654V59.3965C276.883 62.1896 274.952 63.1207 273.251 63.1207C271.551 63.1207 269.462 62.1896 269.462 59.3965V58.4654C269.462 55.9864 271.107 54.7297 272.667 54.4784L271.513 52.1005Z" fill="black"/>
<path fill-rule="evenodd" clip-rule="evenodd" d="M297.71 51.9494C296.447 52.1849 295.291 52.6865 294.364 53.4584C293.021 54.5759 292.173 56.2498 292.173 58.4653V59.086C292.173 61.2989 292.98 62.9733 294.303 64.0921C295.623 65.2079 297.441 65.7584 299.445 65.7584C301.416 65.7584 303.174 65.2861 304.763 64.3398L303.275 62.1894C301.736 62.9532 300.556 63.1205 299.445 63.1205C298.606 63.1205 297.695 62.858 296.997 62.2655C296.357 61.7227 295.683 61.0492 295.613 59.8618H306.403C306.403 59.8618 306.559 59.2411 306.559 58.4653C306.559 56.2928 305.753 54.5011 304.449 53.4008C303.516 52.6146 302.338 52.1293 301.037 51.9175L299.812 54.4439C301.167 54.5659 302.701 55.5381 303.119 57.379H295.77C296.159 55.6669 297.63 54.7062 298.939 54.482L297.71 51.9494Z" fill="black"/>
<path d="M256.05 52.2583H252.767C252.767 52.2583 258.552 65.2929 258.552 65.6033C258.552 67.7756 256.52 67.7756 254.487 67.7756H254.487V70.5689C255.73 70.5689 256.969 70.5534 258.083 70.1033C259.195 69.6544 260.458 68.6495 261.054 67.4654C261.59 66.4031 265.612 56.7556 267.466 52.2583H264.026C263.156 54.3677 262 57.2802 260.957 59.9065C260.721 60.5022 260.493 61.0152 260.273 61.5688L256.05 52.2583Z" fill="black"/>
<g clip-path="url(#clip5)">
<path d="M536.807 208.507V222.351L541.644 225.397C541.772 225.434 542.048 225.437 542.176 225.397L562.997 211.36C562.997 209.698 561.448 208.507 560.573 208.507H536.807Z" fill="#0072C6"/>
<path d="M536.807 227.516L541.222 230.549C541.844 231.006 542.593 230.549 542.593 230.549C541.846 231.006 563 216.955 563 216.955V242.399C563 245.169 561.227 246.33 559.233 246.33H536.804V227.516H536.807Z" fill="#0072C6"/>
<path d="M513.946 221.134C512.442 221.134 511.243 221.841 510.358 223.252C509.473 224.664 509.029 226.533 509.029 228.858C509.029 231.219 509.473 233.085 510.358 234.456C511.243 235.831 512.405 236.514 513.84 236.514C515.321 236.514 516.496 235.847 517.362 234.512C518.229 233.178 518.665 231.325 518.665 228.957C518.665 226.487 518.245 224.565 517.402 223.191C516.559 221.82 515.408 221.134 513.946 221.134Z" fill="#0072C6"/>
<path d="M493 201.476V255.636L534.201 264.275V193.502L493 201.476ZM520.57 237.712C518.829 240.004 516.559 241.152 513.758 241.152C511.028 241.152 508.805 240.041 507.086 237.821C505.368 235.599 504.507 232.707 504.507 229.14C504.507 225.373 505.379 222.327 507.125 220.001C508.872 217.675 511.184 216.511 514.063 216.511C516.783 216.511 518.984 217.622 520.661 219.85C522.341 222.077 523.181 225.012 523.181 228.656C523.183 232.401 522.312 235.421 520.57 237.712Z" fill="#0072C6"/>
</g>
<g clip-path="url(#clip6)">
<path d="M54.1108 112.389C58.309 108.027 64.1399 105.323 70.5831 105.323C79.1545 105.323 86.6472 110.092 90.6414 117.187C94.1108 115.646 97.93 114.773 101.982 114.773C117.464 114.773 130 127.393 130 142.98C130 158.566 117.464 171.186 101.982 171.186C100.087 171.186 98.2507 170.982 96.4723 170.633C92.9738 176.885 86.2682 181.102 78.6006 181.102C75.3936 181.102 72.3324 180.375 69.6501 179.037C66.0933 187.383 57.7843 193.257 48.1341 193.257C38.0758 193.257 29.4752 186.918 26.2099 177.99C24.7813 178.281 23.2653 178.456 21.7493 178.456C9.70845 178.456 0 168.685 0 156.588C0 148.505 4.37318 141.438 10.8455 137.658C9.50437 134.605 8.77551 131.203 8.77551 127.655C8.77551 113.755 20.0875 102.502 34.0233 102.502C42.2157 102.502 49.4752 106.369 54.1108 112.389Z" fill="#119CD8"/>
<path d="M18.8338 149.58C18.7463 149.784 18.8629 149.842 18.8921 149.871C19.1253 150.046 19.3877 150.162 19.621 150.307C20.9329 151.005 22.1866 151.209 23.4985 151.209C26.1516 151.209 27.8134 149.784 27.8134 147.516V147.458C27.8134 145.364 25.9475 144.579 24.1982 144.026L23.965 143.968C22.653 143.532 21.516 143.183 21.516 142.311V142.252C21.516 141.496 22.1866 140.973 23.207 140.973C24.344 140.973 25.7143 141.351 26.5889 141.845C26.5889 141.845 26.8513 142.02 26.9387 141.758C26.9971 141.613 27.4344 140.42 27.4927 140.304C27.551 140.159 27.4635 140.072 27.3761 140.013C26.3848 139.403 24.9854 138.996 23.5568 138.996H23.2944C20.8454 138.996 19.1545 140.479 19.1545 142.572V142.63C19.1545 144.84 21.0204 145.567 22.7988 146.062L23.0903 146.149C24.3731 146.556 25.481 146.876 25.481 147.777V147.836C25.481 148.65 24.7522 149.26 23.6151 149.26C23.1778 149.26 21.7201 149.26 20.1749 148.272C20 148.155 19.8833 148.097 19.7376 147.981C19.6501 147.923 19.4752 147.865 19.3877 148.097L18.8338 149.58Z" fill="white"/>
<path d="M57.8717 149.58C57.7842 149.784 57.9008 149.842 57.93 149.871C58.1632 150.046 58.4256 150.162 58.6589 150.307C59.9708 151.005 61.2245 151.209 62.5364 151.209C65.1895 151.209 66.8513 149.784 66.8513 147.516V147.458C66.8513 145.364 64.9854 144.579 63.2361 144.026L63.0029 143.968C61.6909 143.532 60.5539 143.183 60.5539 142.311V142.252C60.5539 141.496 61.2245 140.973 62.2449 140.973C63.3819 140.973 64.7521 141.351 65.6268 141.845C65.6268 141.845 65.8892 142.02 65.9766 141.758C66.0349 141.613 66.4723 140.42 66.5306 140.304C66.5889 140.159 66.5014 140.072 66.4139 140.013C65.4227 139.403 64.0233 138.996 62.5947 138.996H62.3323C59.8833 138.996 58.1924 140.479 58.1924 142.572V142.63C58.1924 144.84 60.0874 145.567 61.8367 146.062L62.1282 146.149C63.411 146.556 64.5189 146.876 64.5189 147.777V147.836C64.5189 148.65 63.79 149.26 62.653 149.26C62.2157 149.26 60.758 149.26 59.2128 148.272C59.0379 148.155 58.9212 148.097 58.7755 147.981C58.7172 147.952 58.5131 147.865 58.4256 148.097L57.8717 149.58Z" fill="white"/>
<path d="M86.7348 142.717C86.5307 141.99 86.1809 141.322 85.7144 140.798C85.2479 140.246 84.694 139.81 83.9943 139.49C83.3237 139.17 82.5074 139.024 81.6036 139.024C80.6998 139.024 79.8835 139.199 79.213 139.49C78.5424 139.81 77.9593 140.246 77.4928 140.798C77.0264 141.351 76.7057 141.99 76.4724 142.717C76.2683 143.444 76.1517 144.259 76.1517 145.102C76.1517 145.945 76.2683 146.759 76.4724 147.486C76.6765 148.213 77.0264 148.882 77.4928 149.406C77.9593 149.958 78.5133 150.394 79.213 150.685C79.8835 151.005 80.6998 151.15 81.6036 151.15C82.5074 151.15 83.2946 151.005 83.9943 150.685C84.6649 150.365 85.2479 149.929 85.7144 149.406C86.1809 148.853 86.5016 148.213 86.7348 147.486C86.9389 146.759 87.0555 145.945 87.0555 145.102C87.0847 144.259 86.9681 143.444 86.7348 142.717ZM84.5191 145.102C84.5191 146.381 84.2858 147.399 83.7902 148.126C83.3237 148.824 82.624 149.173 81.6328 149.173C80.6415 149.173 79.9418 148.824 79.4753 148.126C79.0089 147.399 78.7756 146.381 78.7756 145.102C78.7756 143.822 79.0089 142.805 79.4753 142.107C79.9418 141.409 80.6415 141.06 81.6328 141.06C82.624 141.06 83.3237 141.409 83.7902 142.107C84.2858 142.805 84.5191 143.822 84.5191 145.102Z" fill="white"/>
<path fill-rule="evenodd" clip-rule="evenodd" d="M105.015 148.824C104.956 148.621 104.723 148.679 104.723 148.679C104.402 148.795 104.052 148.911 103.673 148.97C103.294 149.028 102.886 149.057 102.449 149.057C101.37 149.057 100.525 148.737 99.9125 148.097C99.3003 147.458 98.9504 146.44 98.9504 145.073C98.9504 143.823 99.2711 142.863 99.7959 142.136C100.35 141.409 101.166 141.06 102.274 141.06C103.178 141.06 103.907 141.177 104.636 141.409C104.636 141.409 104.81 141.496 104.898 141.264C105.102 140.711 105.248 140.333 105.452 139.752C105.51 139.577 105.364 139.519 105.306 139.49C105.015 139.374 104.344 139.199 103.819 139.112C103.353 139.054 102.77 138.996 102.157 138.996C101.224 138.996 100.379 139.17 99.6793 139.461C98.9796 139.781 98.3673 140.217 97.8717 140.769C97.4052 141.322 97.0262 141.962 96.793 142.689C96.5597 143.416 96.4431 144.23 96.4431 145.073C96.4431 146.905 96.9387 148.388 97.93 149.493C98.9213 150.598 100.408 151.151 102.332 151.151C103.469 151.151 104.636 150.918 105.481 150.598C105.481 150.598 105.656 150.511 105.568 150.336L105.015 148.824Z" fill="white"/>
<path fill-rule="evenodd" clip-rule="evenodd" d="M116.414 142.311C116.239 141.584 115.744 140.886 115.452 140.566C114.956 140.042 114.49 139.693 114.023 139.49C113.411 139.228 112.682 139.054 111.866 139.054C110.933 139.054 110.058 139.199 109.388 139.548C108.688 139.868 108.105 140.304 107.639 140.857C107.172 141.409 106.851 142.049 106.618 142.805C106.385 143.532 106.297 144.346 106.297 145.189C106.297 146.062 106.414 146.876 106.647 147.603C106.881 148.33 107.23 148.97 107.726 149.522C108.222 150.045 108.863 150.482 109.621 150.772C110.379 151.063 111.312 151.209 112.362 151.209C114.548 151.209 115.685 150.714 116.152 150.453C116.239 150.394 116.327 150.336 116.21 150.104L115.714 148.737C115.627 148.533 115.423 148.621 115.423 148.621C114.869 148.824 114.111 149.173 112.332 149.173C111.166 149.173 110.292 148.824 109.767 148.301C109.213 147.748 108.921 146.934 108.892 145.8H116.414C116.414 145.8 116.618 145.8 116.647 145.596C116.647 145.451 116.91 143.997 116.414 142.311ZM108.921 143.881C109.038 143.154 109.213 142.572 109.534 142.107C110 141.409 110.7 141.002 111.691 141.002C112.682 141.002 113.324 141.38 113.79 142.107C114.111 142.572 114.227 143.183 114.286 143.881H108.921Z" fill="white"/>
<path fill-rule="evenodd" clip-rule="evenodd" d="M56.0642 142.311C55.8893 141.584 55.3936 140.886 55.1021 140.566C54.6065 140.042 54.14 139.693 53.6735 139.49C53.0613 139.228 52.3324 139.054 51.5161 139.054C50.5831 139.054 49.7085 139.199 49.0379 139.548C48.3382 139.868 47.7551 140.304 47.2887 140.857C46.8222 141.409 46.5015 142.049 46.2683 142.805C46.035 143.532 45.9476 144.346 45.9476 145.189C45.9476 146.062 46.0642 146.876 46.2974 147.603C46.5307 148.33 46.8805 148.97 47.3761 149.522C47.8718 150.045 48.5132 150.482 49.2712 150.772C50.0292 151.063 50.9621 151.209 52.0117 151.209C54.1983 151.209 55.3353 150.714 55.8018 150.453C55.8893 150.394 55.9767 150.336 55.8601 150.104L55.3645 148.737C55.277 148.533 55.0729 148.621 55.0729 148.621C54.519 148.824 53.761 149.173 51.9826 149.173C50.8164 149.173 49.9417 148.824 49.417 148.301C48.863 147.748 48.5715 146.934 48.5423 145.8H56.0642C56.0642 145.8 56.2683 145.8 56.2974 145.596C56.2974 145.451 56.5598 143.997 56.0642 142.311ZM48.5715 143.881C48.6881 143.154 48.863 142.572 49.1837 142.107C49.6502 141.409 50.3499 141.002 51.3412 141.002C52.3324 141.002 52.9738 141.38 53.4403 142.107C53.761 142.572 53.8776 143.183 53.9359 143.881H48.5715Z" fill="white"/>
<path d="M35.2769 143.503C34.9854 143.474 34.5772 143.474 34.1108 143.474C33.4694 143.474 32.828 143.561 32.2449 143.706C31.6618 143.852 31.137 144.113 30.6705 144.433C30.2041 144.753 29.8542 145.189 29.5918 145.684C29.3294 146.178 29.1837 146.76 29.1837 147.428C29.1837 148.097 29.3003 148.679 29.5335 149.144C29.7667 149.609 30.0874 150.016 30.5248 150.307C30.9329 150.598 31.4577 150.831 32.07 150.976C32.653 151.121 33.3236 151.18 34.0525 151.18C34.8396 151.18 35.5976 151.121 36.3557 150.976C37.0845 150.86 37.9883 150.656 38.2507 150.598C38.5131 150.54 38.7755 150.453 38.7755 150.453C38.9504 150.394 38.9504 150.22 38.9504 150.22V143.357C38.9504 141.845 38.5422 140.74 37.7551 140.042C36.9679 139.345 35.8017 138.996 34.2857 138.996C33.7318 138.996 32.7988 139.083 32.274 139.17C32.274 139.17 30.6414 139.49 29.9417 140.013C29.9417 140.013 29.7959 140.101 29.8834 140.304L30.4081 141.729C30.4665 141.903 30.6705 141.845 30.6705 141.845C30.6705 141.845 30.7288 141.816 30.7872 141.787C32.2449 141.002 34.0816 141.031 34.0816 141.031C34.8979 141.031 35.5102 141.206 35.9475 141.525C36.3557 141.845 36.5597 142.311 36.5597 143.328V143.648C35.8892 143.561 35.2769 143.503 35.2769 143.503ZM32.274 148.795C31.9825 148.563 31.9242 148.504 31.8367 148.359C31.6909 148.126 31.6035 147.806 31.6035 147.37C31.6035 146.701 31.8367 146.236 32.274 145.916C32.274 145.916 32.9154 145.364 34.4606 145.364C35.5393 145.364 36.5014 145.538 36.5014 145.538V148.97C36.5014 148.97 35.5393 149.173 34.4606 149.231C32.9737 149.319 32.274 148.795 32.274 148.795Z" fill="white"/>
<path fill-rule="evenodd" clip-rule="evenodd" d="M96.0643 139.635C96.1226 139.461 96.006 139.374 95.9477 139.374C95.8311 139.315 95.1897 139.199 94.694 139.17C93.7319 139.112 93.2072 139.257 92.7407 139.49C92.2742 139.693 91.7495 140.042 91.4579 140.42V139.49C91.4579 139.374 91.3704 139.257 91.2538 139.257H89.3296C89.213 139.257 89.1255 139.345 89.1255 139.49V150.714C89.1255 150.831 89.213 150.947 89.3588 150.947H91.3413C91.4579 150.947 91.5745 150.86 91.5745 150.714V145.102C91.5745 144.346 91.662 143.59 91.8369 143.125C92.0118 142.66 92.2159 142.281 92.5075 142.02C92.7699 141.758 93.0906 141.555 93.4404 141.467C93.7903 141.351 94.1693 141.322 94.4608 141.322C94.869 141.322 95.2771 141.438 95.2771 141.438C95.4229 141.467 95.5104 141.351 95.5687 141.235C95.627 140.886 96.006 139.839 96.0643 139.635Z" fill="white"/>
<path fill-rule="evenodd" clip-rule="evenodd" d="M77.4926 134.43C77.2594 134.343 77.0261 134.314 76.7346 134.256C76.443 134.198 76.0932 134.168 75.7142 134.168C74.3439 134.168 73.2652 134.546 72.5363 135.303C71.7783 136.059 71.2827 137.193 71.0203 138.705L70.9328 139.228H69.2127C69.2127 139.228 69.0086 139.228 68.9503 139.461L68.6588 141.031C68.6296 141.176 68.7171 141.264 68.892 141.264H70.5538L68.8629 150.656C68.7171 151.412 68.5713 152.023 68.4256 152.517C68.2506 152.982 68.1049 153.331 67.9008 153.593C67.6967 153.826 67.5218 154.029 67.2011 154.116C66.9387 154.204 66.6471 154.233 66.3264 154.233C66.1515 154.233 65.8891 154.204 65.7142 154.175C65.5393 154.146 65.4518 154.087 65.306 154.058C65.306 154.058 65.102 153.971 65.0436 154.175C64.9853 154.349 64.548 155.541 64.4897 155.716C64.4314 155.861 64.5189 155.978 64.6063 156.007C64.8396 156.094 64.9853 156.123 65.306 156.21C65.7142 156.297 66.0932 156.326 66.4139 156.326C67.1136 156.326 67.7259 156.239 68.2506 156.036C68.7754 155.832 69.2419 155.512 69.65 155.076C70.0874 154.582 70.3789 154.087 70.6413 153.389C70.9037 152.692 71.1369 151.848 71.3119 150.86L73.0028 141.293H75.4809C75.4809 141.293 75.685 141.293 75.7433 141.06L76.0349 139.49C76.064 139.344 75.9766 139.257 75.8016 139.257H73.3818C73.3818 139.199 73.4984 138.356 73.79 137.571C73.9066 137.222 74.1398 136.96 74.3148 136.756C74.4897 136.582 74.7229 136.437 74.9562 136.349C75.1894 136.262 75.4518 136.233 75.7725 136.233C76.0057 136.233 76.2098 136.262 76.3847 136.291C76.618 136.349 76.7054 136.378 76.7637 136.378C76.997 136.466 77.0553 136.378 77.0844 136.262L77.6675 134.692C77.6675 134.546 77.5217 134.459 77.4926 134.43Z" fill="white"/>
<path fill-rule="evenodd" clip-rule="evenodd" d="M43.8192 150.685C43.8192 150.802 43.7318 150.918 43.6152 150.918H41.6035C41.4869 150.918 41.3994 150.802 41.3994 150.685V134.634C41.3994 134.518 41.4869 134.401 41.6035 134.401H43.6152C43.7318 134.401 43.8192 134.489 43.8192 134.634V150.685Z" fill="white"/>
</g>
<g clip-path="url(#clip7)">
<path d="M510 135.036C510 132.609 509.803 130.168 509.383 127.779H475.702V141.532H494.99C494.189 145.968 491.618 149.892 487.852 152.385V161.309H499.359C506.116 155.088 510 145.902 510 135.036Z" fill="#4285F4"/>
<path d="M475.702 169.931C485.333 169.931 493.455 166.768 499.372 161.309L487.865 152.385C484.663 154.564 480.53 155.797 475.715 155.797C466.399 155.797 458.5 149.511 455.666 141.06H443.792V150.259C449.854 162.319 462.201 169.931 475.702 169.931Z" fill="#34A853"/>
<path d="M455.653 141.06C454.157 136.624 454.157 131.821 455.653 127.386V118.187H443.792C438.727 128.278 438.727 140.168 443.792 150.259L455.653 141.06Z" fill="#FBBC04"/>
<path d="M475.702 112.635C480.793 112.557 485.713 114.473 489.4 117.99L499.595 107.793C493.14 101.73 484.572 98.3969 475.702 98.5019C462.201 98.5019 449.854 106.113 443.792 118.186L455.653 127.386C458.474 118.921 466.386 112.635 475.702 112.635Z" fill="#EA4335"/>
</g>
<defs>
<filter id="filter0_d" x="111" y="0.501953" width="342" height="396" filterUnits="userSpaceOnUse" color-interpolation-filters="sRGB">
<feFlood flood-opacity="0" result="BackgroundImageFix"/>
<feColorMatrix in="SourceAlpha" type="matrix" values="0 0 0 0 0 0 0 0 0 0 0 0 0 0 0 0 0 0 127 0"/>
<feOffset dy="20"/>
<feGaussianBlur stdDeviation="25"/>
<feColorMatrix type="matrix" values="0 0 0 0 0 0 0 0 0 0 0 0 0 0 0 0 0 0 0.12 0"/>
<feBlend mode="normal" in2="BackgroundImageFix" result="effect1_dropShadow"/>
<feBlend mode="normal" in="SourceGraphic" in2="effect1_dropShadow" result="shape"/>
</filter>
<filter id="filter1_d" x="140.111" y="13.502" width="282.907" height="95.9269" filterUnits="userSpaceOnUse" color-interpolation-filters="sRGB">
<feFlood flood-opacity="0" result="BackgroundImageFix"/>
<feColorMatrix in="SourceAlpha" type="matrix" values="0 0 0 0 0 0 0 0 0 0 0 0 0 0 0 0 0 0 127 0"/>
<feOffset dy="3"/>
<feGaussianBlur stdDeviation="10"/>
<feColorMatrix type="matrix" values="0 0 0 0 0 0 0 0 0 0 0 0 0 0 0 0 0 0 0.07 0"/>
<feBlend mode="normal" in2="BackgroundImageFix" result="effect1_dropShadow"/>
<feBlend mode="normal" in="SourceGraphic" in2="effect1_dropShadow" result="shape"/>
</filter>
<linearGradient id="paint0_linear" x1="296.459" y1="128.595" x2="267.374" y2="128.595" gradientUnits="userSpaceOnUse">
<stop stop-color="#204BB9"/>
<stop offset="1" stop-color="#2CCCD4"/>
</linearGradient>
<clipPath id="clip0">
<rect width="143" height="100" fill="white" transform="translate(210 209.502)"/>
</clipPath>
<clipPath id="clip1">
<rect width="146" height="22" fill="white" transform="translate(210 209.502)"/>
</clipPath>
<clipPath id="clip2">
<rect width="146" height="22" fill="white" transform="translate(210 235.502)"/>
</clipPath>
<clipPath id="clip3">
<rect width="146" height="22" fill="white" transform="translate(210 261.502)"/>
</clipPath>
<clipPath id="clip4">
<rect width="146" height="22" fill="white" transform="translate(210 287.502)"/>
</clipPath>
<clipPath id="clip5">
<rect width="70" height="70.7735" fill="white" transform="translate(493 193.502)"/>
</clipPath>
<clipPath id="clip6">
<rect width="130" height="90.7547" fill="white" transform="translate(0 102.502)"/>
</clipPath>
<clipPath id="clip7">
<rect width="70" height="71.4286" fill="white" transform="translate(440 98.502)"/>
</clipPath>
</defs>
</svg>
