<svg width="403" height="166" viewBox="0 0 403 166" fill="none" xmlns="http://www.w3.org/2000/svg">
<path fill-rule="evenodd" clip-rule="evenodd" d="M372.164 119.179C372.164 101.09 372.164 4.25641 372.164 4.25641L393.43 0C393.43 0 393.43 97.8974 393.43 108.538C393.43 119.179 398.747 121.308 403 121.308C403 137.269 372.164 137.269 372.164 119.179Z" fill="black"/>
<path fill-rule="evenodd" clip-rule="evenodd" d="M225.956 100.245L202.032 129.82H174.385L212.409 83.497L177.575 40.4358H204.158L225.956 66.9921L247.755 40.4358H274.338L239.504 83.497L277.528 129.82H249.881L225.956 100.245Z" fill="black"/>
<path d="M236.058 129.821H216.918L226.488 117.051L236.058 129.821Z" fill="#CC3630"/>
<path fill-rule="evenodd" clip-rule="evenodd" d="M127.472 39.3518C107.289 43.2111 91.4459 57.7602 91.4459 82.9991V87.2555C91.4459 117.05 112.473 131.948 138.758 131.948C162.94 131.948 185.018 117.05 185.018 87.2555V82.9991C185.018 56.4755 169.484 42.5297 149.097 39.1348L141.265 55.4141C152.3 56.327 163.99 64.926 163.99 82.9991V89.3837C163.99 108.538 150.86 114.922 139.295 114.922C127.73 114.922 113.524 108.538 113.524 89.3837V82.9991C113.524 65.999 124.714 57.3814 135.317 55.6584L127.472 39.3518Z" fill="black"/>
<path fill-rule="evenodd" clip-rule="evenodd" d="M305.612 38.3168C297.022 39.9317 289.157 43.3717 282.854 48.6647C273.727 56.3278 267.958 67.8066 267.958 82.9991V87.2555C267.958 102.431 273.446 113.913 282.444 121.585C291.419 129.236 303.782 133.012 317.408 133.012C330.81 133.012 342.763 129.773 353.571 123.283L343.454 108.538C332.987 113.775 324.965 114.922 317.409 114.922C311.7 114.922 305.508 113.122 300.761 109.059C296.412 105.337 291.827 100.719 291.351 92.576H364.72C364.72 92.576 365.784 88.3196 365.784 82.9991C365.784 68.1017 360.302 55.8148 351.43 48.27C345.091 42.8783 337.08 39.5505 328.235 38.0979L319.899 55.4226C329.12 56.2595 339.544 62.9264 342.39 75.5504H292.414C295.061 63.8096 305.064 57.2215 313.968 55.6839L305.612 38.3168Z" fill="black"/>
<path d="M22.3298 40.4358H0C0 40.4358 39.343 129.82 39.343 131.949C39.343 146.845 25.5213 146.845 11.6989 146.845H11.6966V166C20.1541 166 28.5764 165.894 36.153 162.808C43.7102 159.729 52.299 152.838 56.3562 144.718C59.9958 137.433 87.3453 71.2761 99.9525 40.4358H76.5594C70.6461 54.901 62.7848 74.8731 55.6958 92.8833C54.0879 96.9684 52.5363 100.486 51.0396 104.282L22.3298 40.4358Z" fill="black"/>
</svg>
